
<svg width="30px" height="30px" viewBox="0 0 30 30" version="1.1" xmlns="http://www.w3.org/2000/svg" xmlns:xlink="http://www.w3.org/1999/xlink">
    <!-- Generator: Sketch 50.2 (55047) - http://www.bohemiancoding.com/sketch -->
    <desc>Created with Sketch.</desc>
    <defs></defs>
    <g id="Desktop" stroke="none" stroke-width="1" fill="none" fill-rule="evenodd" stroke-linecap="square">
        <g id="Woningen" transform="translate(-1351.000000, -2508.000000)" stroke="#FFFFFF">
            <g id="Component" transform="translate(0.000000, 1800.000000)">
                <g id="icon/fullscreen" transform="translate(1352.000000, 709.000000)">
                    <g>
                        <g id="Group-2" stroke-width="2">
                            <path d="M0.75,0.259259259 L0.75,8.62011915" id="Line-2"></path>
                            <path d="M9.06225775,0 L1,0" id="Line-2"></path>
                        </g>
                        <g id="Group-2" transform="translate(23.000000, 4.666667) scale(1, -1) rotate(180.000000) translate(-23.000000, -4.666667) translate(18.000000, 0.000000)" stroke-width="2">
                            <path d="M0.75,0.259259259 L0.75,8.62011915" id="Line-2"></path>
                            <path d="M9.06225775,0 L1,0" id="Line-2"></path>
                        </g>
                        <g id="Group-5" transform="translate(14.000000, 23.333333) scale(1, -1) translate(-14.000000, -23.333333) translate(0.000000, 18.666667)" stroke-width="2">
                            <g id="Group-2">
                                <path d="M0.75,0.259259259 L0.75,8.62011915" id="Line-2"></path>
                                <path d="M9.06225775,0 L1,0" id="Line-2"></path>
                            </g>
                            <g id="Group-2" transform="translate(23.000000, 4.666667) scale(1, -1) rotate(180.000000) translate(-23.000000, -4.666667) translate(18.000000, 0.000000)">
                                <path d="M0.75,0.259259259 L0.75,8.62011915" id="Line-2"></path>
                                <path d="M9.06225775,0 L1,0" id="Line-2"></path>
                            </g>
                        </g>
                    </g>
                </g>
            </g>
        </g>
    </g>
</svg>