
<svg width="68px" height="68px" viewBox="0 0 68 68" version="1.1" xmlns="http://www.w3.org/2000/svg" xmlns:xlink="http://www.w3.org/1999/xlink">
    <!-- Generator: Sketch 50.2 (55047) - http://www.bohemiancoding.com/sketch -->
    <desc>Created with Sketch.</desc>
    <defs></defs>
    <g id="Symbols" stroke="none" stroke-width="1" fill="none" fill-rule="evenodd">
        <g id="logo/small">
            <rect id="Rectangle" fill="#000000" x="0" y="0" width="68" height="68"></rect>
            <path d="M21,51.1438776 L25.8720775,51.1438776 L25.8720775,16 L21,16 L21,51.1438776 Z M34.433051,51.1438776 L26.5682542,51.1438776 L26.5682542,46.5599911 L34.3412125,46.5599911 C38.4383119,46.5599911 42.8091886,46.0860862 42.8091886,40.4258829 L42.8109268,40.3804285 C42.8120857,40.36191 42.9401382,38.3007464 41.4718805,36.7777412 C40.3698181,35.6349262 38.641979,35.055522 36.3364553,35.055522 L26.5682542,35.055522 L26.5682542,30.650367 L33.7380332,30.650367 C33.8623194,30.650367 34.0173151,30.6559787 34.1963567,30.6621515 C35.4050329,30.7033972 37.6537732,30.7833634 39.1205823,29.4127149 C40.0902466,28.5072732 40.5818869,27.0712488 40.5818869,25.1453262 C40.5818869,21.5645244 39.0704623,20.584167 33.5514591,20.584167 L26.5682542,20.584167 L26.5682542,16 L33.5514591,16 C43.9886039,16 45.5469618,21.645613 45.5469618,25.0106463 C45.5469618,28.3125485 44.1296934,30.3189984 42.9407176,31.4202871 C42.5394672,31.7923403 42.137058,32.0883555 41.7714421,32.3203978 C47.7452923,33.718824 47.8203276,40.5305404 47.8203276,40.604895 C47.8203276,45.4129673 45.4977109,51.1438776 34.433051,51.1438776 Z" id="Fill-1" fill="#FFFFFF"></path>
        </g>
    </g>
</svg>