<svg width="231px" height="36px" viewBox="0 0 231 36" version="1.1" xmlns="http://www.w3.org/2000/svg" xmlns:xlink="http://www.w3.org/1999/xlink">
    <!-- Generator: Sketch 50.2 (55047) - http://www.bohemiancoding.com/sketch -->
    <desc>Created with Sketch.</desc>
    <defs></defs>
    <g id="Symbols" stroke="none" stroke-width="1" fill="none" fill-rule="evenodd">
        <g id="navbar" transform="translate(-40.000000, -24.000000)" fill="#1D1D1B">
            <g id="logo" transform="translate(40.000000, 24.000000)">
                <path d="M7.10542736e-15,35.1438776 L4.87207753,35.1438776 L4.87207753,-2.13162821e-14 L7.10542736e-15,-2.13162821e-14 L7.10542736e-15,35.1438776 Z M13.433051,35.1438776 L5.56825415,35.1438776 L5.56825415,30.5599911 L13.3412125,30.5599911 C17.4383119,30.5599911 21.8091886,30.0860862 21.8091886,24.4258829 L21.8109268,24.3804285 C21.8120857,24.36191 21.9401382,22.3007464 20.4718805,20.7777412 C19.3698181,19.6349262 17.641979,19.055522 15.3364553,19.055522 L5.56825415,19.055522 L5.56825415,14.650367 L12.7380332,14.650367 C12.8623194,14.650367 13.0173151,14.6559787 13.1963567,14.6621515 C14.4050329,14.7033972 16.6537732,14.7833634 18.1205823,13.4127149 C19.0902466,12.5072732 19.5818869,11.0712488 19.5818869,9.14532622 C19.5818869,5.56452444 18.0704623,4.58416702 12.5514591,4.58416702 L5.56825415,4.58416702 L5.56825415,-2.13162821e-14 L12.5514591,-2.13162821e-14 C22.9886039,-2.13162821e-14 24.5469618,5.64561296 24.5469618,9.01064632 C24.5469618,12.3125485 23.1296934,14.3189984 21.9407176,15.4202871 C21.5394672,15.7923403 21.137058,16.0883555 20.7714421,16.3203978 C26.7452923,17.718824 26.8203276,24.5305404 26.8203276,24.604895 C26.8203276,29.4129673 24.4977109,35.1438776 13.433051,35.1438776 Z" id="Fill-1"></path>
                <path d="M44.987819,35.4804604 L49.5769692,35.4804604 L49.5769692,10.3834184 L44.987819,10.3834184 L44.987819,35.4804604 Z M38.2517327,35.942602 C37.0431062,35.942602 33.3224878,35.72074 30.5994616,33.1626682 C28.6312241,31.3129681 27.6330648,28.6650747 27.6330648,25.2918088 L27.6330648,10.3834184 L32.1759803,10.3834184 L32.1759803,25.2918088 C32.1836388,25.5340719 32.436937,31.6223848 38.6043079,31.6223848 L38.6408986,31.6235182 C38.7509542,31.6274851 41.402501,31.7405412 43.2584136,29.4040481 L44.3524462,28.0266902 L44.3524462,33.7766848 L44.1524739,33.9591613 C42.7637305,35.2254466 40.9052651,35.8898992 38.6278507,35.9343849 C38.5799141,35.9372184 38.4494358,35.942602 38.2517327,35.942602 Z" id="Fill-3"></path>
                <path d="M52.0151808,35.1438776 L56.5937863,35.1438776 L56.5937863,10.0462591 L52.0151808,10.0462591 L52.0151808,35.1438776 Z M73.9590852,35.1438776 L69.3793475,35.1438776 L69.3793475,20.2799148 C69.3734031,20.0319791 69.161386,13.9030065 63.0103445,13.9030065 L62.9834531,13.9024398 C62.8722079,13.8967727 60.1782612,13.8236671 58.3666336,16.1219609 L57.2739958,17.5078511 L57.2739958,11.7580078 L57.4633675,11.5769438 C58.3802209,10.7002429 60.0851322,9.6444615 62.9993049,9.59204079 C63.1697111,9.58212336 67.7822846,9.35572257 70.9987726,12.3972571 C72.9629731,14.2546503 73.9590852,16.9065714 73.9590852,20.2799148 L73.9590852,35.1438776 Z" id="Fill-4"></path>
                <path d="M75.5845596,35.1438776 L80.2208829,35.1438776 L80.2208829,-7.10542736e-15 L75.5845596,-7.10542736e-15 L75.5845596,35.1438776 Z M98.3412012,35.1438776 L92.5589074,35.1438776 L83.284828,23.2558513 L80.9092103,25.4093268 L80.9092103,19.264837 L90.5085401,10.4264687 L96.9178365,10.4264687 L86.6697252,20.1714011 L98.3412012,35.1438776 Z" id="Fill-5"></path>
                <path d="M126.342739,17.8014313 L126.342739,11.9760224 L126.536035,11.7949084 C128.098344,10.3284234 130.219476,9.58469388 132.839646,9.58469388 C133.362029,9.58469388 133.879858,9.63004324 134.361247,9.67907724 L134.914375,9.73519707 L134.914375,14.4838421 L134.179623,14.3395744 C133.764848,14.258229 133.301678,14.2151471 132.839646,14.2151471 C130.474262,14.2151471 128.705561,14.959727 127.432769,16.4905514 L126.342739,17.8014313 Z M121.097843,35.1438776 L125.703638,35.1438776 L125.703638,10.0841037 L121.097843,10.0841037 L121.097843,35.1438776 Z" id="Fill-6"></path>
                <path d="M125.974266,4.58416702 L152.794594,4.58416702 L152.794594,3.55271368e-15 L125.974266,3.55271368e-15 L125.974266,4.58416702 Z M137.012922,35.1438776 L141.757077,35.1438776 L141.757077,5.25812767 L137.012922,5.25812767 L137.012922,35.1438776 Z" id="Fill-7"></path>
                <path d="M156.105722,35.1394393 L155.435568,35.0920052 C148.616851,34.6098978 143.854484,29.376064 143.854484,22.3635922 C143.854484,15.3525074 148.616851,10.118951 155.435568,9.6365662 L156.105722,9.58940954 L156.105722,13.8052144 L155.536005,13.8529258 C151.268029,14.2121486 148.616562,17.4728925 148.616562,22.3635922 C148.616562,27.2551242 151.26774,30.5164229 155.535716,30.874536 L156.105722,30.9222475 L156.105722,35.1394393 Z M156.797811,35.1438776 L156.797811,30.9275179 L157.361756,30.8748134 C161.633484,30.4756462 164.286972,27.2146249 164.286972,22.3635922 C164.286972,17.5125595 161.633484,14.2512608 157.361756,13.852371 L156.797811,13.7996665 L156.797811,9.58469388 L157.472006,9.6365662 C164.288415,10.1625016 169.049338,15.3957806 169.049338,22.3635922 C169.049338,29.3316813 164.288415,34.5660698 157.472006,35.0917278 L156.797811,35.1438776 Z" id="Fill-8"></path>
                <path d="M175.106971,17.8014313 L175.106971,11.9760224 L175.300267,11.7949084 C176.862861,10.32814 178.983708,9.58469388 181.604163,9.58469388 C182.126261,9.58469388 182.64409,9.63004324 183.125764,9.67907724 L183.678607,9.73519707 L183.678607,14.4838421 L182.94414,14.3395744 C182.52908,14.258229 182.06591,14.2151471 181.604163,14.2151471 C179.238779,14.2151471 177.469793,14.959727 176.196716,16.4905514 L175.106971,17.8014313 Z M169.862075,35.1438776 L174.46787,35.1438776 L174.46787,10.0841037 L169.862075,10.0841037 L169.862075,35.1438776 Z" id="Fill-9"></path>
                <path d="M195.170181,30.8536896 C191.008076,30.8536896 187.395118,28.096598 187.395118,24.7604592 L182.86587,24.7604592 C182.86587,30.5106731 188.510528,35.1438776 195.170181,35.1438776 C201.829833,35.1438776 207.247986,30.5106731 207.247986,24.7604592 L202.718738,24.7604592 C202.718738,28.096598 199.332285,30.8536896 195.170181,30.8536896" id="Fill-10"></path>
                <path d="M187.860047,19.7071216 C188.707842,15.9382307 191.306325,13.7948453 195.079223,13.7948453 C198.82514,13.7948453 201.407718,15.9382307 202.253809,19.7071216 L187.860047,19.7071216 Z M195.079223,9.58469388 C188.002056,9.58469388 182.86587,14.9810477 182.86587,22.4162042 C182.86587,22.7458913 182.916425,23.9617347 182.916425,23.9617347 L207.247986,23.9617347 L207.247986,22.4162042 C207.247986,14.9810477 202.130261,9.58469388 195.079223,9.58469388 Z" id="Fill-11"></path>
                <path d="M107.394563,30.8536896 C103.232459,30.8536896 99.6195008,28.096598 99.6195008,24.7604592 L95.0902524,24.7604592 C95.0902524,30.5106731 100.734911,35.1438776 107.394563,35.1438776 C114.054216,35.1438776 119.472368,30.5106731 119.472368,24.7604592 L114.94312,24.7604592 C114.94312,28.096598 111.556668,30.8536896 107.394563,30.8536896" id="Fill-12"></path>
                <path d="M100.08443,19.7071216 C100.93194,15.9382307 103.530991,13.7948453 107.303606,13.7948453 C111.049523,13.7948453 113.632101,15.9382307 114.478191,19.7071216 L100.08443,19.7071216 Z M107.303606,9.58469388 C100.226723,9.58469388 95.0902524,14.9810477 95.0902524,22.4162042 C95.0902524,22.7458913 95.1408077,23.9617347 95.1408077,23.9617347 L119.472368,23.9617347 L119.472368,22.4162042 C119.472368,14.9810477 114.354927,9.58469388 107.303606,9.58469388 Z" id="Fill-13"></path>
                <path d="M208.87346,35.1438776 L213.453257,35.1438776 L213.453257,10.0462591 L208.87346,10.0462591 L208.87346,35.1438776 Z M230.817365,35.1438776 L226.237568,35.1438776 L226.237568,20.2799148 C226.231624,20.0319791 226.019604,13.9030065 219.868483,13.9030065 L219.841591,13.9024398 C219.729212,13.8967727 217.036646,13.8236671 215.224712,16.1219609 L214.13206,17.5075678 L214.13206,11.7577244 L214.321717,11.5763771 C215.239998,10.7002429 216.94578,9.6444615 219.857443,9.59204079 C220.028418,9.58212336 224.640485,9.35572257 227.857014,12.3972571 C229.82124,14.2546503 230.817365,16.9065714 230.817365,20.2799148 L230.817365,35.1438776 Z" id="Fill-14"></path>
            </g>
        </g>
    </g>
</svg>