
<svg width="84px" height="84px" viewBox="0 0 84 84" version="1.1" xmlns="http://www.w3.org/2000/svg" xmlns:xlink="http://www.w3.org/1999/xlink">
    <!-- Generator: Sketch 50.2 (55047) - http://www.bohemiancoding.com/sketch -->
    <desc>Created with Sketch.</desc>
    <defs></defs>
    <g id="Symbols" stroke="none" stroke-width="1" fill="none" fill-rule="evenodd" opacity="0.8">
        <g id="icon/360">
            <g id="Group-2">
                <circle id="Oval" fill="#000000" cx="42" cy="42" r="42"></circle>
                <g id="Group" transform="translate(12.000000, 30.000000)">
                    <ellipse id="Oval-2" stroke="#FFFFFF" stroke-width="1.35" transform="translate(30.150000, 9.000000) rotate(-270.000000) translate(-30.150000, -9.000000) " cx="30.15" cy="9" rx="8.55" ry="29.7"></ellipse>
                    <rect id="Rectangle" fill="#000000" x="10.8" y="10.8" width="41.4" height="12.6"></rect>
                    <path d="M15.9282,14.3626 L14.616,14.3626 C14.616,10.3126 18.6984,10.4584 18.6984,10.4584 C22.959,10.4584 22.7484,13.8766 22.7484,13.8766 C22.7484,15.9502 20.934,16.3228 20.934,16.3228 L20.934,16.4038 C23.6556,16.6792 23.4288,19.4818 23.4288,19.4818 C23.4288,23.2078 18.8604,23.062 18.8604,23.062 C13.6278,23.062 13.9356,19.0444 13.9356,19.0444 L15.264,19.0444 C15.264,21.9766 18.8604,21.8956 18.8604,21.8956 C22.23,21.8956 22.1004,19.4818 22.1004,19.4818 C22.1004,16.6792 18.5526,17.149 18.5526,17.149 L18.5526,15.8854 C21.501,15.9016 21.42,13.8766 21.42,13.8766 C21.42,11.4304 18.6984,11.6248 18.6984,11.6248 C15.831,11.6248 15.9282,14.3626 15.9282,14.3626 Z M29.0178,14.3788 C31.6908,14.3788 33.3756,16.3066 33.3756,18.7204 C33.3756,21.199 31.707,23.0782 28.9368,23.0782 C26.2476,23.0782 24.0768,20.9884 24.2388,16.582 C24.3846,12.7426 25.7454,10.4908 29.1798,10.4908 C31.5774,10.4908 33.408,11.9812 33.6024,14.2168 L32.2902,14.2168 C32.031,12.694 30.9618,11.641 29.1798,11.641 C26.604,11.641 25.3728,13.4716 25.308,16.5982 L25.389,16.5982 C25.9398,15.3022 27.09,14.3788 29.0178,14.3788 Z M28.9368,21.8794 C30.8808,21.8794 32.0958,20.47 32.0958,18.6232 C32.0958,16.7764 30.8808,15.529 28.8558,15.529 C26.8308,15.529 25.8426,16.5496 25.8426,18.4126 C25.8426,20.2432 26.604,21.8794 28.9368,21.8794 Z M39.1428,10.4908 C42.156,10.4908 43.857,12.7588 43.857,16.7764 C43.857,20.794 42.156,23.0782 39.1428,23.0782 C36.1296,23.0782 34.4286,20.794 34.4286,16.7764 C34.4286,12.7588 36.1296,10.4908 39.1428,10.4908 Z M39.1428,21.9118 C41.4108,21.9118 42.5124,20.1784 42.5124,16.7764 C42.5124,13.3906 41.4108,11.6572 39.1428,11.6572 C36.8748,11.6572 35.7732,13.3906 35.7732,16.7764 C35.7732,20.1784 36.8748,21.9118 39.1428,21.9118 Z M47.3076,10.4422 C48.8466,10.4422 49.9644,11.5114 49.9644,12.9532 C49.9644,13.666 49.689,14.314 49.203,14.7676 C48.717,15.2212 48.0528,15.4804 47.3076,15.4804 C45.7848,15.4804 44.667,14.4274 44.667,12.9694 C44.667,11.5114 45.7848,10.4422 47.3076,10.4422 Z M47.3076,14.3788 C48.1824,14.3788 48.717,13.8604 48.717,12.9694 C48.717,12.0784 48.1824,11.5438 47.3076,11.5438 C46.449,11.5438 45.9144,12.0784 45.9144,12.9532 C45.9144,13.8442 46.449,14.3788 47.3076,14.3788 Z" id="text" fill="#FFFFFF"></path>
                </g>
            </g>
        </g>
    </g>
</svg>