
<svg width="130px" height="130px" viewBox="0 0 130 130" version="1.1" xmlns="http://www.w3.org/2000/svg" xmlns:xlink="http://www.w3.org/1999/xlink">
    <!-- Generator: Sketch 50.2 (55047) - http://www.bohemiancoding.com/sketch -->
    <desc>Created with Sketch.</desc>
    <defs></defs>
    <g id="Desktop" stroke="none" stroke-width="1" fill="none" fill-rule="evenodd">
        <g id="Home" transform="translate(-163.000000, -5262.000000)">
            <g id="Component" transform="translate(0.000000, 5143.000000)">
                <g id="icon" transform="translate(163.000000, 119.000000)">
                    <rect id="Rectangle-5" fill="#FFFFFF" x="0" y="0" width="130" height="130"></rect>
                    <path d="M90,55 L95,84 L85,84 L90,55 Z M67.5,22 C73.8408125,22 79,27.1591875 79,33.5 C79,39.8408125 73.8408125,45 67.5,45 C61.1591875,45 56,39.8408125 56,33.5 C56,27.1591875 61.1591875,22 67.5,22 Z M68,54 C70.7571429,54 73,56.2428571 73,59 C73,61.7571429 70.7571429,64 68,64 C65.2428571,64 63,61.7571429 63,59 C63,56.2428571 65.2428571,54 68,54 Z M45.5,72 L50,91 L41,91 L45.5,72 Z M26.5,54 C31.1875652,54 35,57.8124348 35,62.5 C35,67.1875652 31.1875652,71 26.5,71 C21.8124348,71 18,67.1875652 18,62.5 C18,57.8124348 21.8124348,54 26.5,54 Z M119,46.4769231 C119,45.6772 118.353662,45.0307692 117.554054,45.0307692 C116.754446,45.0307692 116.108108,45.6772 116.108108,46.4769231 C116.108108,48.7618462 114.575405,50.6751077 112.493243,51.3027385 L112.493243,39.9692308 C112.493243,39.1695077 111.846905,38.5230769 111.047297,38.5230769 C110.247689,38.5230769 109.601351,39.1695077 109.601351,39.9692308 L109.601351,51.3027385 C107.519189,50.6751077 105.986486,48.7618462 105.986486,46.4769231 C105.986486,45.6772 105.340149,45.0307692 104.540541,45.0307692 C103.740932,45.0307692 103.094595,45.6772 103.094595,46.4769231 C103.094595,50.3670769 105.905514,53.6093538 109.601351,54.2919385 L109.601351,64.3181231 C107.519189,63.6904923 105.986486,61.7772308 105.986486,59.4923077 C105.986486,58.6925846 105.340149,58.0461538 104.540541,58.0461538 C103.740932,58.0461538 103.094595,58.6925846 103.094595,59.4923077 C103.094595,63.3824615 105.905514,66.6247385 109.601351,67.3073231 L109.601351,77.3335077 C107.519189,76.7058769 105.986486,74.7926154 105.986486,72.5076923 C105.986486,71.7079692 105.340149,71.0615385 104.540541,71.0615385 C103.740932,71.0615385 103.094595,71.7079692 103.094595,72.5076923 C103.094595,76.3978462 105.905514,79.6401231 109.601351,80.3227077 L109.601351,110.107692 L91.7077703,110.107692 L91.7077703,86.9692308 L96.7685811,86.9692308 C97.1936892,86.9692308 97.5971081,86.7826769 97.8718378,86.4572923 C98.1465676,86.1333538 98.2651351,85.7052923 98.1942838,85.2859077 L91.687527,46.2397538 C91.5718514,45.5427077 90.9688919,45.0307692 90.2618243,45.0307692 C89.5547568,45.0307692 88.9517973,45.5427077 88.8361216,46.2397538 L82.3293649,85.2859077 C82.2585135,85.7052923 82.3770811,86.1333538 82.6518108,86.4572923 C82.9265405,86.7826769 83.3299595,86.9692308 83.7550676,86.9692308 L88.8158784,86.9692308 L88.8158784,110.107692 L69.3548919,110.107692 L69.3548919,67.3073231 C73.0507297,66.6247385 75.8616486,63.3824615 75.8616486,59.4923077 C75.8616486,55.6021538 73.0507297,52.3598769 69.3548919,51.6772923 L69.3548919,47.8493231 C76.6511351,47.1204615 82.3684054,40.9468308 82.3684054,33.4615385 C82.3684054,25.4874462 75.8818919,19 67.9089459,19 C59.936,19 53.4494865,25.4874462 53.4494865,33.4615385 C53.4494865,40.9468308 59.1667568,47.1204615 66.463,47.8493231 L66.463,51.6772923 C62.7671622,52.3598769 59.9562432,55.6021538 59.9562432,59.4923077 C59.9562432,63.3824615 62.7671622,66.6247385 66.463,67.3073231 L66.463,110.107692 L47.0049054,110.107692 L47.0049054,93.4769231 L52.0657162,93.4769231 C52.5110676,93.4769231 52.9318378,93.2715692 53.2051216,92.9201538 C53.4798514,92.5701846 53.5767297,92.1132 53.4682838,91.6808 L46.961527,65.6500308 C46.7995811,65.0050462 46.2226486,64.5538462 45.5589595,64.5538462 C44.8952703,64.5538462 44.3183378,65.0050462 44.1563919,65.6500308 L37.6496351,91.6808 C37.5411892,92.1132 37.6380676,92.5701846 37.9127973,92.9201538 C38.1860811,93.2715692 38.6068514,93.4769231 39.0522027,93.4769231 L44.1130135,93.4769231 L44.1130135,110.107692 L27.9054054,110.107692 L27.9054054,73.8497231 C33.4028919,73.1367692 37.6655405,68.4353231 37.6655405,62.7461538 C37.6655405,56.5667385 32.6379865,51.5384615 26.4594595,51.5384615 C20.2809324,51.5384615 15.2533784,56.5667385 15.2533784,62.7461538 C15.2533784,68.4353231 19.516027,73.1367692 25.0135135,73.8497231 L25.0135135,110.107692 L13.4459459,110.107692 C12.6463378,110.107692 12,110.754123 12,111.553846 C12,112.353569 12.6463378,113 13.4459459,113 L111.047297,113 L117.554054,113 C118.353662,113 119,112.353569 119,111.553846 C119,110.754123 118.353662,110.107692 117.554054,110.107692 L112.493243,110.107692 L112.493243,80.3227077 C116.189081,79.6401231 119,76.3978462 119,72.5076923 C119,71.7079692 118.353662,71.0615385 117.554054,71.0615385 C116.754446,71.0615385 116.108108,71.7079692 116.108108,72.5076923 C116.108108,74.7926154 114.575405,76.7058769 112.493243,77.3335077 L112.493243,67.3073231 C116.189081,66.6247385 119,63.3824615 119,59.4923077 C119,58.6925846 118.353662,58.0461538 117.554054,58.0461538 C116.754446,58.0461538 116.108108,58.6925846 116.108108,59.4923077 C116.108108,61.7772308 114.575405,63.6904923 112.493243,64.3181231 L112.493243,54.2919385 C116.189081,53.6093538 119,50.3670769 119,46.4769231 Z" id="Fill-1" fill="#1D1D1B"></path>
                </g>
            </g>
        </g>
    </g>
</svg>