
<svg width="130px" height="130px" viewBox="0 0 130 130" version="1.1" xmlns="http://www.w3.org/2000/svg" xmlns:xlink="http://www.w3.org/1999/xlink">
    <!-- Generator: Sketch 50.2 (55047) - http://www.bohemiancoding.com/sketch -->
    <desc>Created with Sketch.</desc>
    <defs></defs>
    <g id="Desktop" stroke="none" stroke-width="1" fill="none" fill-rule="evenodd">
        <g id="Home" transform="translate(-163.000000, -5500.000000)">
            <g id="Component" transform="translate(0.000000, 5143.000000)">
                <g id="icon" transform="translate(163.000000, 357.000000)">
                    <rect id="Rectangle-5" fill="#FFFFFF" x="0" y="0" width="130" height="130"></rect>
                    <g id="Group-4" transform="translate(36.000000, 23.000000)" stroke="#13120D" stroke-linecap="round" stroke-linejoin="round" stroke-width="3.312">
                        <path d="M58,28.9655172 C58,44.9631724 29,84 29,84 C29,84 0,44.9631724 0,28.9655172 C0,12.9693103 12.9833,0 29,0 C45.0167,0 58,12.9693103 58,28.9655172 Z" id="Stroke-1"></path>
                        <path d="M40,28.5 C40,34.850875 34.850875,40 28.5,40 C22.149125,40 17,34.850875 17,28.5 C17,22.149125 22.149125,17 28.5,17 C34.850875,17 40,22.149125 40,28.5 Z" id="Stroke-3"></path>
                    </g>
                </g>
            </g>
        </g>
    </g>
</svg>