<?xml version="1.0" standalone="no"?>
<!DOCTYPE svg PUBLIC "-//W3C//DTD SVG 1.1//EN" "http://www.w3.org/Graphics/SVG/1.1/DTD/svg11.dtd" >
<svg xmlns="http://www.w3.org/2000/svg" xmlns:xlink="http://www.w3.org/1999/xlink" version="1.1">
<metadata>
Created by FontForge 20190801 at Tue Jun 16 19:05:34 2015
 By Mark Brand
Copyright 2015 Production Systems SAS - Jean-Baptiste Levee - All rights reserved - End-User License Agreement:  http://www.productiontype.com/license
</metadata>
<defs>
<font id="GranvilleBold" horiz-adv-x="550" >
  <font-face 
    font-family="GranvilleBold"
    font-weight="700"
    font-stretch="normal"
    units-per-em="1000"
    panose-1="2 0 0 0 0 0 0 0 0 0"
    ascent="750"
    descent="-250"
    x-height="450"
    cap-height="660"
    bbox="-116 -364 1234 1020"
    underline-thickness="73"
    underline-position="-122"
    unicode-range="U+0020-FB06"
  />
<missing-glyph horiz-adv-x="540" 
d="M-38 0v660h500v-660h-500zM-8 30h440v600h-440v-600zM195 548q-40 0 -65 -22t-27 -66h-29q0 58 39 92t98 34q60 0 99.5 -32t39.5 -81q0 -36 -11.5 -58t-43 -50t-36.5 -33q-16 -17 -19 -20.5t-9 -15t-6.5 -22t-0.5 -33.5h-41v41.5t8 27.5t12 19.5t26 28.5q24 26 34.5 48.5
t10.5 58.5q0 83 -79 83zM165 84v79h79v-79h-79z" />
    <glyph glyph-name="f_f" unicode="ff" horiz-adv-x="711" 
d="M181 574q0 -77 60 -124h172v64q0 49 9 88q-20 80 -119 80q-57 0 -89.5 -31t-32.5 -77zM413 0v399h-170v-399h-140v399h-91v51h91v44q0 117 53 174t147 57q96 0 138 -72q45 92 162 92q64 0 103.5 -39.5t41.5 -97.5h-34q-14 94 -111 94q-52 0 -82 -31t-30 -77
q0 -98 60 -144h112v-51h-110v-399h-140z" />
    <glyph glyph-name="fi" unicode="fi" horiz-adv-x="632" 
d="M419 0v399h-176v-399h-140v399h-91v51h91v49q0 246 220 246q80 0 126.5 -36.5t48.5 -100.5h-34q-6 51 -41.5 72.5t-99.5 21.5q-67 0 -104.5 -33.5t-37.5 -89.5q0 -83 59 -129h320v-450h-141z" />
    <glyph glyph-name="fl" unicode="fl" horiz-adv-x="631" 
d="M353 399h-110v-399h-140v399h-91v51h91v64q0 117 52.5 174t144.5 57q75 0 119 -49v39h140v-735h-140v614q-17 88 -116 88q-57 0 -89.5 -30.5t-32.5 -80.5q0 -95 60 -141h112v-51z" />
    <glyph glyph-name="f_f_i" unicode="ffi" horiz-adv-x="942" 
d="M181 574q0 -77 60 -124h172v49q0 52 11 96q-17 87 -121 87q-57 0 -89.5 -31t-32.5 -77zM413 0v399h-170v-399h-140v399h-91v51h91v44q0 117 53 174t147 57q100 0 141 -78q51 98 189 98q80 0 126.5 -36.5t48.5 -100.5h-34q-6 51 -41.5 72.5t-99.5 21.5q-67 0 -104.5 -33.5
t-37.5 -89.5q0 -83 59 -129h320v-450h-141v399h-176v-399h-140z" />
    <glyph glyph-name="f_f_l" unicode="ffl" horiz-adv-x="941" 
d="M181 574q0 -77 60 -124h172v64q0 48 9 87q-19 81 -119 81q-57 0 -89.5 -31t-32.5 -77zM413 0v399h-170v-399h-140v399h-91v51h91v44q0 117 53 174t147 57q97 0 138 -73q48 93 169 93q75 0 119 -49v39h140v-735h-140v614q-17 88 -116 88q-57 0 -89.5 -30.5t-32.5 -80.5
q0 -95 60 -141h112v-51h-110v-399h-140z" />
    <glyph glyph-name="f_b" unicode="fb" horiz-adv-x="965" 
d="M706 -11q-42 0 -84 23t-63 68v-80h-140v614q-17 88 -116 88q-57 0 -89.5 -30.5t-32.5 -80.5q0 -95 60 -141h112v-51h-110v-399h-140v399h-91v51h91v64q0 117 52.5 174t144.5 57q75 0 119 -49v39h140v-369q22 47 67.5 70.5t88.5 23.5q92 0 150.5 -68.5t58.5 -167.5
q0 -97 -60.5 -166t-157.5 -69zM559 224q0 -81 33.5 -125.5t77.5 -44.5q54 0 80.5 39.5t26.5 130.5q0 172 -98 172q-49 0 -84.5 -44.5t-35.5 -127.5z" />
    <glyph glyph-name="f_f_b" unicode="ffb" horiz-adv-x="1275" 
d="M181 574q0 -77 60 -124h172v64q0 48 9 87q-19 81 -119 81q-57 0 -89.5 -31t-32.5 -77zM1016 -11q-42 0 -84 23t-63 68v-80h-140v614q-17 88 -116 88q-57 0 -89.5 -30.5t-32.5 -80.5q0 -95 60 -141h112v-51h-110v-399h-140v399h-170v-399h-140v399h-91v51h91v44
q0 117 53 174t147 57q97 0 138 -73q48 93 169 93q75 0 119 -49v39h140v-369q22 47 67.5 70.5t88.5 23.5q92 0 150.5 -68.5t58.5 -167.5q0 -97 -60.5 -166t-157.5 -69zM869 224q0 -81 33.5 -125.5t77.5 -44.5q54 0 80.5 39.5t26.5 130.5q0 172 -98 172q-49 0 -84.5 -44.5
t-35.5 -127.5z" />
    <glyph glyph-name="f_h" unicode="fh" horiz-adv-x="947" 
d="M353 399h-110v-399h-140v399h-91v51h91v64q0 117 52.5 174t144.5 57q75 0 119 -49v39h140v-371q18 43 57.5 69.5t95.5 26.5q74 0 120.5 -43t46.5 -118v-299h-141v276q0 115 -75 115q-46 0 -75 -40t-29 -83v-268h-140v614q-17 88 -116 88q-57 0 -89.5 -30.5t-32.5 -80.5
q0 -95 60 -141h112v-51z" />
    <glyph glyph-name="f_f_h" unicode="ffh" horiz-adv-x="1257" 
d="M181 574q0 -77 60 -124h172v64q0 48 9 87q-19 81 -119 81q-57 0 -89.5 -31t-32.5 -77zM413 0v399h-170v-399h-140v399h-91v51h91v44q0 117 53 174t147 57q97 0 138 -73q48 93 169 93q75 0 119 -49v39h140v-371q18 43 57.5 69.5t95.5 26.5q74 0 120.5 -43t46.5 -118v-299
h-141v276q0 115 -75 115q-46 0 -75 -40t-29 -83v-268h-140v614q-17 88 -116 88q-57 0 -89.5 -30.5t-32.5 -80.5q0 -95 60 -141h112v-51h-110v-399h-140z" />
    <glyph glyph-name="f_j" unicode="fj" horiz-adv-x="634" 
d="M373 -250q-28 0 -40 3v42q10 -2 19 -2q70 0 70 109q0 12 -1.5 62.5t-1.5 81.5v353h-176v-399h-140v399h-91v51h91v49q0 246 220 246q80 0 126.5 -36.5t48.5 -100.5h-34q-6 51 -41.5 72.5t-99.5 21.5q-67 0 -104.5 -33.5t-37.5 -89.5q0 -83 59 -129h319v-407
q0 -23 1.5 -67.5t1.5 -58.5q0 -78 -49.5 -122.5t-139.5 -44.5z" />
    <glyph glyph-name="f_f_j" unicode="ffj" horiz-adv-x="944" 
d="M181 574q0 -77 60 -124h172v49q0 52 11 96q-17 87 -121 87q-57 0 -89.5 -31t-32.5 -77zM683 -250q-27 0 -40 3v42q10 -2 19 -2q70 0 70 109q0 12 -1.5 62.5t-1.5 81.5v353h-176v-399h-140v399h-170v-399h-140v399h-91v51h91v44q0 117 53 174t147 57q100 0 141 -78
q51 98 189 98q80 0 126.5 -36.5t48.5 -100.5h-34q-6 51 -41.5 72.5t-99.5 21.5q-67 0 -104.5 -33.5t-37.5 -89.5q0 -83 59 -129h319v-407q0 -23 1.5 -67.5t1.5 -58.5q0 -78 -49.5 -122.5t-139.5 -44.5z" />
    <glyph glyph-name="f_k" unicode="fk" horiz-adv-x="948" 
d="M917 0h-166l-181 236q151 132 225 214h92l-204 -168zM353 399h-110v-399h-140v399h-91v51h91v64q0 117 52.5 174t144.5 57q75 0 119 -49v39h140v-735h-140v614q-17 88 -116 88q-57 0 -89.5 -30.5t-32.5 -80.5q0 -95 60 -141h112v-51z" />
    <glyph glyph-name="f_f_k" unicode="ffk" horiz-adv-x="1258" 
d="M181 574q0 -77 60 -124h172v64q0 48 9 87q-19 81 -119 81q-57 0 -89.5 -31t-32.5 -77zM1227 0h-166l-181 236q151 132 225 214h92l-204 -168zM413 0v399h-170v-399h-140v399h-91v51h91v44q0 117 53 174t147 57q97 0 138 -73q48 93 169 93q75 0 119 -49v39h140v-735h-140
v614q-17 88 -116 88q-57 0 -89.5 -30.5t-32.5 -80.5q0 -95 60 -141h112v-51h-110v-399h-140z" />
    <glyph glyph-name="f_t" unicode="ft" horiz-adv-x="745" 
d="M706 143q-4 -81 -38 -117.5t-101 -36.5q-75 0 -116 42t-41 125v243h-167v-399h-140v399h-91v51h91v64q0 117 50.5 174t139.5 57q64 0 103.5 -39.5t41.5 -97.5h-34q-14 94 -111 94q-52 0 -82 -31t-30 -77q0 -98 60 -144h169q33 19 64.5 72.5t43.5 107.5h32v-180h141v-51
h-141v-263q0 -81 55 -81q50 0 59 88h42z" />
    <glyph glyph-name="f_f_t" unicode="fft" horiz-adv-x="1055" 
d="M181 574q0 -77 60 -124h172v64q0 49 9 88q-20 80 -119 80q-57 0 -89.5 -31t-32.5 -77zM1016 143q-4 -81 -38 -117.5t-101 -36.5q-75 0 -116 42t-41 125v243h-167v-399h-140v399h-170v-399h-140v399h-91v51h91v44q0 117 53 174t147 57q96 0 138 -72q45 92 162 92
q64 0 103.5 -39.5t41.5 -97.5h-34q-14 94 -111 94q-52 0 -82 -31t-30 -77q0 -98 60 -144h169q32 18 63 71.5t45 109.5h32v-181h141v-51h-141v-263q0 -81 55 -81q50 0 59 88h42z" />
    <glyph glyph-name=".notdef" horiz-adv-x="540" 
d="M-38 0v660h500v-660h-500zM-8 30h440v600h-440v-600zM195 548q-40 0 -65 -22t-27 -66h-29q0 58 39 92t98 34q60 0 99.5 -32t39.5 -81q0 -36 -11.5 -58t-43 -50t-36.5 -33q-16 -17 -19 -20.5t-9 -15t-6.5 -22t-0.5 -33.5h-41v41.5t8 27.5t12 19.5t26 28.5q24 26 34.5 48.5
t10.5 58.5q0 83 -79 83zM165 84v79h79v-79h-79z" />
    <glyph glyph-name=".null" horiz-adv-x="500" 
 />
    <glyph glyph-name="nonmarkingreturn" horiz-adv-x="333" 
 />
    <glyph glyph-name="space" unicode=" " horiz-adv-x="275" 
 />
    <glyph glyph-name="exclam" unicode="!" horiz-adv-x="275" 
d="M208 661q0 -112 -21.5 -238t-21.5 -213h-55q0 87 -21.5 213t-21.5 238h141zM71 0v132h132v-132h-132z" />
    <glyph glyph-name="quotedbl" unicode="&#x22;" horiz-adv-x="435" 
d="M360 735l-34 -199h-57l-34 199h125zM200 735l-34 -199h-57l-34 199h125z" />
    <glyph glyph-name="numbersign" unicode="#" 
d="M319 276l23 94h-107l-23 -94h107zM261 40l35 145h-107l-35 -145h-43l35 145h-122l25 91h120l23 94h-128l24 91h126l39 161h43l-39 -161h107l39 161h43l-39 -161h120l-25 -91h-117l-23 -94h126l-25 -91h-124l-35 -145h-43z" />
    <glyph glyph-name="dollar" unicode="$" 
d="M256 423q28 -14 50 -24v220h-15q-19 0 -35 -3v-193zM173 527q0 -49 40 -79v152q-40 -24 -40 -73zM262 41q25 0 44 4v194l-50 24v-222h6zM386 138q0 52 -37 78v-154q37 24 37 76zM263 -10h-7v-85h-43v89q-72 11 -112.5 53.5t-44.5 109.5h52q7 -94 105 -112v240
q-74 39 -108.5 80.5t-34.5 119.5q0 64 37 111t106 65v89h43v-82q22 2 34 2h16v80h43v-86q59 -13 91.5 -52.5t36.5 -98.5h-52q-6 78 -76 99v-235q81 -43 115.5 -87.5t34.5 -110.5q0 -146 -150 -180v-94h-43v87q-28 -2 -43 -2z" />
    <glyph glyph-name="percent" unicode="%" horiz-adv-x="907" 
d="M204 228q-75 0 -119.5 63.5t-44.5 158.5q0 96 44.5 158.5t119.5 62.5t119.5 -62.5t44.5 -158.5q0 -95 -44.5 -158.5t-119.5 -63.5zM349 0h-77l287 660h77zM204 629q-55 0 -55 -179q0 -180 55 -180q56 0 56 180q0 179 -56 179zM694 -7q-75 0 -119.5 63.5t-44.5 158.5
q0 96 44.5 158.5t119.5 62.5t119.5 -62.5t44.5 -158.5q0 -95 -44.5 -158.5t-119.5 -63.5zM694 394q-55 0 -55 -179q0 -180 55 -180q56 0 56 180q0 179 -56 179z" />
    <glyph glyph-name="ampersand" unicode="&#x26;" horiz-adv-x="734" 
d="M596 -10q-35 0 -60 16t-76 67q-71 -83 -191 -83q-101 0 -160 43t-59 121q0 36 11 64t34.5 49.5t44.5 34.5t57 32q-46 52 -63 89.5t-17 81.5q0 73 57 119t149 46q88 0 144 -34.5t56 -95.5q0 -26 -8 -47t-28.5 -39.5t-35.5 -29.5t-49 -31t-49 -30l92 -92q18 -18 26 -27
q14 65 14 135h63q0 -102 -26 -188q67 -69 102 -69q23 0 34.5 15t11.5 51h44q-3 -107 -31.5 -152.5t-86.5 -45.5zM246 543q0 -62 65 -136q34 28 46.5 41t24.5 39t12 61q0 29 -21.5 49t-52.5 20q-35 0 -54.5 -18.5t-19.5 -55.5zM308 56q64 0 109 59l-77 75q-93 90 -101 99
q-46 -36 -46 -107q0 -63 27 -94.5t88 -31.5z" />
    <glyph glyph-name="quotesingle" unicode="'" horiz-adv-x="275" 
d="M200 735l-34 -199h-57l-34 199h125z" />
    <glyph glyph-name="parenleft" unicode="(" horiz-adv-x="339" 
d="M303 664q-79 -27 -126.5 -132.5t-47.5 -255.5t47.5 -255.5t126.5 -132.5l-10 -44q-116 30 -186.5 146t-70.5 286q0 169 70.5 285t186.5 146z" />
    <glyph glyph-name="parenright" unicode=")" horiz-adv-x="339" 
d="M36 664l10 43q116 -30 186.5 -146t70.5 -285q0 -170 -70.5 -286t-186.5 -146l-10 44q79 27 126.5 132.5t47.5 255.5t-47.5 255.5t-126.5 132.5z" />
    <glyph glyph-name="asterisk" unicode="*" horiz-adv-x="390" 
d="M259 353l-61 108h-7l-62 -106l-59 44l80 90l-2 7l-115 27l20 67l110 -49l8 6l-11 120h70l-12 -121l7 -5l112 48l20 -67l-117 -26l-2 -8l78 -88z" />
    <glyph glyph-name="plus" unicode="+" 
d="M470 190h-153v-153h-83v153h-154v83h154v154h83v-154h153v-83z" />
    <glyph glyph-name="comma" unicode="," horiz-adv-x="275" 
d="M140 -62q0 52 -69 52v120q72 0 112.5 -39.5t40.5 -104.5q0 -60 -44 -108t-129 -48v60q40 0 64.5 19t24.5 49z" />
    <glyph glyph-name="hyphen" unicode="-" horiz-adv-x="335" 
d="M310 180h-285v103h285v-103z" />
    <glyph glyph-name="period" unicode="." horiz-adv-x="275" 
d="M71 0v132h132v-132h-132z" />
    <glyph glyph-name="slash" unicode="/" horiz-adv-x="276" 
d="M13 -50l177 720h73l-177 -720h-73z" />
    <glyph glyph-name="zero" unicode="0" 
d="M275 -10q-118 0 -188 97t-70 244t70 243t188 96t188 -96t70 -243t-70 -244t-188 -97zM275 616q-106 0 -106 -285q0 -287 106 -287t106 287q0 285 -106 285z" />
    <glyph glyph-name="one" unicode="1" 
d="M251 0v538l-140 -120l-36 53l252 189h69v-660h-145z" />
    <glyph glyph-name="two" unicode="2" 
d="M497 0h-441v44l108 124q69 79 95 121q64 101 64 204q0 59 -27.5 89t-73.5 30q-53 0 -84 -37.5t-35 -111.5h-52q7 97 60.5 152t147.5 55q103 0 159.5 -49t56.5 -136q0 -75 -45.5 -132.5t-207.5 -204.5q-7 -7 -11 -10h286v-138z" />
    <glyph glyph-name="three" unicode="3" 
d="M245 -10q-196 0 -210 198h52q3 -69 35 -104.5t106 -35.5q58 0 89.5 34.5t31.5 99.5q0 129 -90 129h-72v57h72q72 0 72 119q0 60 -28.5 92.5t-75.5 32.5q-54 0 -85 -32.5t-34 -96.5h-52q6 88 58.5 137.5t149.5 49.5q100 0 159.5 -47t59.5 -120q0 -53 -32.5 -92t-91.5 -57
q66 -21 103.5 -67t37.5 -105q0 -82 -67 -137t-188 -55z" />
    <glyph glyph-name="four" unicode="4" 
d="M519 147h-96v-147h-140v147h-256v42q63 93 100.5 161.5t52.5 126t18 90t3 93.5h156q0 -25 -4 -48t-8.5 -41t-20 -45.5t-25.5 -44.5t-38.5 -55t-45 -59.5t-59.5 -76.5t-69 -88h196v108q31 25 51.5 73t21.5 92h67v-273h96v-55z" />
    <glyph glyph-name="five" unicode="5" 
d="M264 -10q-93 0 -147 50.5t-60 139.5h52q3 -65 37 -98.5t93 -33.5q56 0 84.5 36t28.5 120q0 137 -102 137q-73 0 -112 -62h-46v381h373v-138h-317v-162q56 45 144 45t150 -56.5t62 -139.5q0 -99 -64 -159t-176 -60z" />
    <glyph glyph-name="six" unicode="6" 
d="M520 199q0 -92 -66 -151t-170 -59q-113 0 -178.5 85.5t-65.5 234.5q0 161 73.5 261t197.5 100q78 0 129.5 -44t59.5 -137h-54q-6 66 -38 96.5t-80 30.5q-31 0 -53 -10.5t-42 -39t-30.5 -87t-11.5 -147.5q51 66 142 66q78 0 132.5 -55t54.5 -144zM285 41q38 0 63.5 36.5
t25.5 119.5q0 68 -22 103.5t-60 35.5q-74 0 -100 -74q3 -125 24 -173t69 -48z" />
    <glyph glyph-name="seven" unicode="7" 
d="M307 0h-152q0 40 6 74.5t13.5 60.5t31 70.5t42 75.5t64.5 107t80 134h-314v138h420v-44q-48 -88 -82.5 -155t-55.5 -121t-33 -87t-16.5 -72t-5.5 -56.5t0.5 -60.5t1.5 -64z" />
    <glyph glyph-name="eight" unicode="8" 
d="M275 -10q-116 0 -183.5 50.5t-67.5 131.5q0 59 33.5 107t96.5 72q-48 22 -74.5 60.5t-26.5 84.5q0 74 61 124t162 50q102 0 162.5 -47t60.5 -120q0 -46 -27 -86.5t-76 -64.5q63 -23 96.5 -67.5t33.5 -102.5q0 -87 -65.5 -139.5t-185.5 -52.5zM204 488q0 -66 18.5 -91.5
t53.5 -25.5q71 0 71 124q0 68 -18.5 94t-52.5 26q-72 0 -72 -127zM175 182q0 -77 26.5 -107.5t73.5 -30.5q100 0 100 148q0 75 -26 104.5t-74 29.5q-100 0 -100 -144z" />
    <glyph glyph-name="nine" unicode="9" 
d="M259 314q74 0 101 75q-3 130 -24 179.5t-70 49.5q-38 0 -63.5 -38.5t-25.5 -126.5q0 -68 22 -103.5t60 -35.5zM239 -11q-78 0 -129.5 44t-59.5 137h54q6 -66 38 -96.5t80 -30.5q31 0 53 10t42 38t31 84.5t12 142.5q-51 -66 -142 -66q-78 0 -132.5 55t-54.5 144
q0 96 66 157.5t170 61.5q113 0 178.5 -85.5t65.5 -234.5q0 -161 -73.5 -261t-198.5 -100z" />
    <glyph glyph-name="colon" unicode=":" horiz-adv-x="275" 
d="M71 273v132h132v-132h-132zM71 0v132h132v-132h-132z" />
    <glyph glyph-name="semicolon" unicode=";" horiz-adv-x="275" 
d="M71 273v132h132v-132h-132zM140 -62q0 52 -69 52v120q72 0 112.5 -39.5t40.5 -104.5q0 -60 -44 -108t-129 -48v60q40 0 64.5 19t24.5 49z" />
    <glyph glyph-name="less" unicode="&#x3c;" 
d="M470 58l-390 138v62l390 149v-48l-293 -109l293 -101v-91z" />
    <glyph glyph-name="equal" unicode="=" 
d="M470 280h-390v83h390v-83zM470 100h-390v83h390v-83z" />
    <glyph glyph-name="greater" unicode="&#x3e;" 
d="M80 58v48l293 109l-293 101v91l390 -138v-62z" />
    <glyph glyph-name="question" unicode="?" horiz-adv-x="465" 
d="M186 611q-125 0 -131 -128h-49q5 88 61 137.5t152 49.5t157 -42t61 -106q0 -43 -15.5 -72.5t-35 -42.5t-51.5 -33t-50 -37q-33 -30 -39.5 -48.5t-6.5 -78.5h-55q0 74 7 95.5t45 69.5q49 62 49 130q0 106 -99 106zM146 0v132h132v-132h-132z" />
    <glyph glyph-name="at" unicode="@" horiz-adv-x="811" 
d="M388 -91q-72 0 -133 15t-111.5 48t-79.5 91.5t-29 138.5q0 170 108.5 286t294.5 116q158 0 248 -79t90 -201q0 -100 -60.5 -181t-152.5 -81q-75 0 -96 44q-45 -44 -123 -44q-68 0 -102.5 38t-34.5 98q0 113 65 188.5t163 75.5q54 0 92 -30q23 11 32 21h47l-51 -279
q-4 -26 -4 -34q0 -34 23 -34q43 0 73.5 71.5t30.5 176.5q0 101 -68 154.5t-169 53.5q-142 0 -226 -90t-84 -266q0 -65 22 -116t58 -80t76 -43.5t82 -14.5q136 0 230 47l15 -35q-38 -23 -101.5 -39t-124.5 -16zM387 112q39 0 71 29v8q0 16 3 34l37 212q-28 23 -70 23
q-51 0 -81 -58.5t-30 -152.5q0 -95 70 -95z" />
    <glyph glyph-name="A" unicode="A" horiz-adv-x="677" 
d="M394 226l-109 245l-101 -245h210zM494 0l-74 166h-261l-69 -166h-72l288 665h44l309 -665h-165z" />
    <glyph glyph-name="B" unicode="B" horiz-adv-x="668" 
d="M302 605h-55v-242h83q37 0 62.5 30t25.5 99q0 65 -31 89t-85 24zM352 307h-105v-257h105q116 0 116 123q0 134 -116 134zM97 0v660h215q123 0 193 -44t70 -125q0 -98 -105 -140q74 -18 114.5 -61.5t40.5 -106.5q0 -81 -69.5 -132t-193.5 -51h-265z" />
    <glyph glyph-name="C" unicode="C" horiz-adv-x="689" 
d="M395 610q-90 0 -138.5 -66.5t-48.5 -218.5q0 -139 51 -207t138 -68q76 0 126.5 43t61.5 115h50q-14 -95 -85 -156.5t-173 -61.5q-162 0 -244 89.5t-82 245.5t90.5 250.5t235.5 94.5q100 0 169.5 -61.5t83.5 -156.5h-50q-11 71 -61.5 114.5t-123.5 43.5z" />
    <glyph glyph-name="D" unicode="D" horiz-adv-x="755" 
d="M369 605h-121v-550h121q84 0 131 62t47 215q0 273 -178 273zM97 0v660h282q148 0 236.5 -96t88.5 -233q0 -141 -88 -236t-237 -95h-282z" />
    <glyph glyph-name="E" unicode="E" horiz-adv-x="595" 
d="M97 0v660h428v-55h-277v-247h257v-55h-257v-248h298v-55h-449z" />
    <glyph glyph-name="F" unicode="F" horiz-adv-x="554" 
d="M485 348v-55h-237v-293h-151v660h407v-55h-256v-257h237z" />
    <glyph glyph-name="G" unicode="G" horiz-adv-x="728" 
d="M660 293v-293h-73q0 20 -39 50q-71 -60 -171 -60q-162 0 -244 89.5t-82 245.5q0 150 94.5 247.5t238.5 97.5q100 0 169.5 -61.5t83.5 -156.5h-50q-11 72 -61 115t-125 43q-95 0 -144 -63.5t-49 -221.5q0 -147 47.5 -211t141.5 -64q66 0 113 33v155h-80v55h230z" />
    <glyph glyph-name="H" unicode="H" horiz-adv-x="772" 
d="M525 0v300h-277v-300h-151v660h151v-305h277v305h150v-660h-150z" />
    <glyph glyph-name="I" unicode="I" horiz-adv-x="345" 
d="M248 660v-660h-151v660h151z" />
    <glyph glyph-name="J" unicode="J" horiz-adv-x="590" 
d="M231 50q62 0 91 42t29 140v428h151v-427q0 -112 -69.5 -177.5t-182.5 -65.5q-197 0 -215 218h50q18 -158 146 -158z" />
    <glyph glyph-name="K" unicode="K" horiz-adv-x="743" 
d="M248 660v-660h-151v660h151zM702 0h-188l-259 331l319 329h86l-279 -280z" />
    <glyph glyph-name="L" unicode="L" horiz-adv-x="563" 
d="M97 0v660h151v-605h288v-55h-439z" />
    <glyph glyph-name="M" unicode="M" horiz-adv-x="887" 
d="M420 -5h-44l-214 510v-505h-65v660h155l192 -452l192 452h154v-660h-151v519z" />
    <glyph glyph-name="N" unicode="N" horiz-adv-x="740" 
d="M643 -5h-64l-417 542v-537h-65v660h144l337 -434v434h65v-665z" />
    <glyph glyph-name="O" unicode="O" horiz-adv-x="772" 
d="M386 -10q-154 0 -244.5 95t-90.5 238q0 144 91.5 245.5t243.5 101.5t243.5 -101.5t91.5 -245.5q0 -143 -90.5 -238t-244.5 -95zM386 45q85 0 131.5 62t46.5 216q0 152 -47.5 222t-130.5 70t-130.5 -70t-47.5 -222q0 -154 46.5 -216t131.5 -62z" />
    <glyph glyph-name="P" unicode="P" horiz-adv-x="647" 
d="M337 605h-89v-267h89q107 0 107 136q0 131 -107 131zM337 283h-89v-283h-151v660h240q124 0 193.5 -48t69.5 -138q0 -91 -70 -141t-193 -50z" />
    <glyph glyph-name="Q" unicode="Q" horiz-adv-x="772" 
d="M690 -190h-196l-93 180h-15q-154 0 -244.5 95t-90.5 238q0 144 91.5 245.5t243.5 101.5t243.5 -101.5t91.5 -245.5q0 -119 -64 -207t-177 -115zM564 323q0 152 -47.5 222t-130.5 70t-130.5 -70t-47.5 -222q0 -154 46.5 -216t131.5 -62t131.5 62t46.5 216z" />
    <glyph glyph-name="R" unicode="R" horiz-adv-x="722" 
d="M357 605h-109v-263h107q44 0 76.5 32.5t32.5 100.5q0 130 -107 130zM507 0l-202 287h-57v-287h-151v660h260q124 0 193.5 -46t69.5 -133q0 -62 -44.5 -111.5t-121.5 -70.5h2l226 -299h-175z" />
    <glyph glyph-name="S" unicode="S" horiz-adv-x="600" 
d="M325 613q-54 0 -84.5 -26t-30.5 -71q0 -35 26.5 -61.5t89.5 -51.5q125 -49 172.5 -97t47.5 -124q0 -87 -69 -139.5t-176 -52.5q-104 0 -170.5 54t-72.5 152h50q23 -149 178 -149q52 0 87.5 24t35.5 69q0 19 -7 33.5t-14.5 24t-31.5 22.5t-38 19t-54 23q-97 40 -139 85.5
t-42 123.5q0 85 65 142t171 57q96 0 150.5 -48t66.5 -133h-50q-11 63 -54 93.5t-107 30.5z" />
    <glyph glyph-name="T" unicode="T" horiz-adv-x="673" 
d="M646 605h-235v-605h-151v605h-233v55h619v-55z" />
    <glyph glyph-name="U" unicode="U" horiz-adv-x="722" 
d="M563 236v424h71v-425q0 -120 -68.5 -182.5t-179.5 -62.5q-298 0 -298 260v410h150v-410q0 -94 47 -137.5t124 -43.5q78 0 116 40t38 127z" />
    <glyph glyph-name="V" unicode="V" horiz-adv-x="677" 
d="M371 -5h-44l-309 665h163l213 -458l198 458h67z" />
    <glyph glyph-name="W" unicode="W" horiz-adv-x="1055" 
d="M340 -5h-44l-269 665h156l179 -446l179 446h71l187 -441l162 441h67l-248 -665h-44l-202 482z" />
    <glyph glyph-name="X" unicode="X" horiz-adv-x="689" 
d="M482 0l-169 254l-198 -254h-81l243 306l-245 354h175l163 -243l177 243h79l-221 -295l252 -365h-175z" />
    <glyph glyph-name="Y" unicode="Y" horiz-adv-x="688" 
d="M432 0h-151v290l-258 370h172l202 -297l192 297h76l-233 -350v-310z" />
    <glyph glyph-name="Z" unicode="Z" horiz-adv-x="640" 
d="M54 0v40l341 565h-320v55h493v-42l-339 -563h357v-55h-532z" />
    <glyph glyph-name="bracketleft" unicode="[" horiz-adv-x="339" 
d="M309 664h-136v-776h136v-44h-229v864h229v-44z" />
    <glyph glyph-name="backslash" unicode="\" horiz-adv-x="276" 
d="M13 670h73l177 -720h-73z" />
    <glyph glyph-name="bracketright" unicode="]" horiz-adv-x="339" 
d="M30 -156v44h136v776h-136v44h229v-864h-229z" />
    <glyph glyph-name="asciicircum" unicode="^" 
d="M359 270l-101 293l-109 -293h-48l149 390h62l138 -390h-91z" />
    <glyph glyph-name="underscore" unicode="_" horiz-adv-x="500" 
d="M500 -160h-500v73h500v-73z" />
    <glyph glyph-name="grave" unicode="`" horiz-adv-x="500" 
d="M297 698l61 -150h-67l-149 150h155z" />
    <glyph glyph-name="a" unicode="a" horiz-adv-x="523" 
d="M243 49q28 0 50 21t22 46v87l-47 -8q-45 -9 -67 -28t-22 -57q0 -29 17 -45t47 -16zM315 0v48q-41 -58 -134 -58q-60 0 -96 27.5t-36 81.5q0 61 43 92.5t127 45.5l96 16v51q0 45 -28.5 68t-68.5 23q-44 0 -72 -23t-32 -66h-34q4 76 52 115t132 39q94 0 142.5 -49.5
t48.5 -132.5v-278h-140z" />
    <glyph glyph-name="b" unicode="b" horiz-adv-x="619" 
d="M360 -10q-42 0 -84.5 23t-63.5 68v-81h-140v735h140v-369q22 47 68 70.5t90 23.5q91 0 149.5 -69t58.5 -167q0 -96 -60.5 -165t-157.5 -69zM212 224q0 -81 36 -125t86 -44q98 0 98 169q0 172 -99 172q-50 0 -85.5 -44.5t-35.5 -127.5z" />
    <glyph glyph-name="c" unicode="c" horiz-adv-x="509" 
d="M306 59q48 0 83.5 22.5t46.5 67.5h34q-4 -67 -54.5 -113.5t-134.5 -46.5q-105 0 -172.5 61.5t-67.5 170.5q0 105 65 172.5t177 67.5q79 0 130.5 -50t54.5 -123h-34q-10 50 -45.5 78t-81.5 28q-58 0 -93.5 -38.5t-35.5 -123.5q0 -173 128 -173z" />
    <glyph glyph-name="d" unicode="d" horiz-adv-x="618" 
d="M406 225q0 83 -35 127t-84 44q-99 0 -99 -171t98 -171q49 0 84.5 44t35.5 127zM406 0v85q-22 -47 -68.5 -71.5t-89.5 -24.5q-92 0 -149.5 68.5t-57.5 167.5q0 97 59.5 166t156.5 69q43 0 85.5 -23t63.5 -68v366h140v-735h-140z" />
    <glyph glyph-name="e" unicode="e" horiz-adv-x="536" 
d="M277 409q-79 0 -88 -135h169q0 68 -21.5 101.5t-59.5 33.5zM489 149q-4 -66 -58.5 -113t-142.5 -47q-111 0 -179 61.5t-68 171.5q0 100 66 169t168 69q106 0 163 -64t57 -173h-308q2 -88 39 -126t94 -38q45 0 82.5 21.5t47.5 68.5h39z" />
    <glyph glyph-name="f" unicode="f" horiz-adv-x="401" 
d="M353 450v-51h-110v-399h-140v399h-91v51h91v64q0 116 49.5 173.5t140.5 57.5q63 0 103 -39t42 -98h-34q-13 94 -111 94q-51 0 -81.5 -30.5t-30.5 -77.5q0 -98 60 -144h112z" />
    <glyph glyph-name="g" unicode="g" horiz-adv-x="531" 
d="M181 291q0 -101 70 -101t70 108q0 59 -18 83t-52 24q-70 0 -70 -114zM505 -63q0 -66 -42 -109.5t-103 -60.5t-138 -17q-86 0 -139 25t-53 72q0 34 17.5 57t52.5 47q-59 29 -59 90q0 38 18.5 64t57.5 58q-82 43 -82 128q0 74 58.5 121.5t157.5 47.5q100 0 158 -44l103 71
h3v-115q-29 1 -65 -2q18 -32 18 -72q0 -70 -59 -117t-158 -47q-47 0 -88 11q-29 -20 -29 -38q0 -44 55 -44h152q80 0 122 -34.5t42 -91.5zM242 -188q71 0 110.5 18.5t39.5 51.5q0 23 -17 38.5t-52 15.5h-151q-14 0 -20 1q-33 -32 -33 -69q0 -31 28 -43.5t95 -12.5z" />
    <glyph glyph-name="h" unicode="h" horiz-adv-x="601" 
d="M212 364q18 43 57.5 69.5t95.5 26.5q74 0 121 -43t47 -118v-299h-142v276q0 115 -74 115q-46 0 -75.5 -40t-29.5 -83v-268h-140v735h140v-371z" />
    <glyph glyph-name="i" unicode="i" horiz-adv-x="284" 
d="M212 698v-136h-140v136h140zM212 450v-450h-140v450h140z" />
    <glyph glyph-name="j" unicode="j" horiz-adv-x="296" 
d="M221 698v-136h-140v136h140zM221 450v-407q0 -23 1.5 -67.5t1.5 -58.5q0 -78 -49.5 -122.5t-139.5 -44.5q-26 0 -41 3v42q12 -2 20 -2q70 0 70 109q0 12 -1.5 62.5t-1.5 81.5v404h140z" />
    <glyph glyph-name="k" unicode="k" horiz-adv-x="601" 
d="M212 735v-735h-140v735h140zM570 0h-165l-181 236q49 46 107.5 109.5t88.5 104.5h133l-216 -170z" />
    <glyph glyph-name="l" unicode="l" horiz-adv-x="284" 
d="M212 735v-735h-140v735h140z" />
    <glyph glyph-name="m" unicode="m" horiz-adv-x="899" 
d="M212 268v-268h-140v450h140v-86q36 96 148 96q56 0 97.5 -28.5t57.5 -80.5q40 109 155 109q70 0 115.5 -43.5t45.5 -117.5v-299h-141v276q0 64 -17.5 89.5t-57.5 25.5q-41 0 -67 -40t-26 -83v-268h-141v276q0 64 -18 89.5t-58 25.5t-66.5 -40.5t-26.5 -82.5z" />
    <glyph glyph-name="n" unicode="n" horiz-adv-x="599" 
d="M212 364q18 43 57.5 69.5t95.5 26.5q74 0 120 -43t46 -118v-299h-140v276q0 115 -74 115q-46 0 -75.5 -40t-29.5 -83v-268h-140v450h140v-86z" />
    <glyph glyph-name="o" unicode="o" horiz-adv-x="588" 
d="M41 217q0 102 69 172.5t184 70.5q118 0 185.5 -64.5t67.5 -171.5q0 -101 -68.5 -168t-184.5 -67q-119 0 -186 61t-67 167zM187 225q0 -100 27.5 -138t79.5 -38q107 0 107 175q0 101 -27.5 139t-79.5 38q-107 0 -107 -176z" />
    <glyph glyph-name="p" unicode="p" horiz-adv-x="619" 
d="M212 224q0 -81 34 -125.5t78 -44.5q54 0 81 39.5t27 130.5q0 172 -99 172q-50 0 -85.5 -44.5t-35.5 -127.5zM359 -11q-42 0 -84 23t-63 68v-320h-140v690h140v-84q22 47 67.5 70.5t89.5 23.5q92 0 150.5 -69t58.5 -167q0 -97 -61 -166t-158 -69z" />
    <glyph glyph-name="q" unicode="q" horiz-adv-x="618" 
d="M546 -240h-140v325q-22 -47 -68.5 -71.5t-90.5 -24.5q-91 0 -148.5 68.5t-57.5 167.5q0 97 59.5 166t156.5 69q42 0 85 -23t64 -69v82h140v-690zM406 225q0 82 -33.5 126.5t-77.5 44.5q-54 0 -81 -40t-27 -131q0 -171 98 -171q50 0 85.5 44t35.5 127z" />
    <glyph glyph-name="r" unicode="r" horiz-adv-x="417" 
d="M212 359q52 101 142 101q23 0 41 -2v-111q-30 10 -69 10q-53 0 -83.5 -23.5t-30.5 -65.5v-268h-140v450h140v-91z" />
    <glyph glyph-name="s" unicode="s" horiz-adv-x="459" 
d="M251 413q-77 0 -77 -57q0 -20 13.5 -34.5t27 -20.5t41.5 -15q39 -13 59 -21.5t48.5 -26t41.5 -43.5t13 -61q0 -70 -55.5 -107t-141.5 -37q-81 0 -130 40t-55 111h39q19 -102 140 -102q79 0 79 54q0 19 -13 33t-25.5 19t-40.5 14q-2 1 -3 1t-3 1t-3 1q-33 11 -55 20.5
t-46.5 27t-37 43.5t-12.5 61q0 65 46.5 105.5t129.5 40.5q148 0 170 -138h-39q-11 43 -40.5 67t-70.5 24z" />
    <glyph glyph-name="t" unicode="t" horiz-adv-x="442" 
d="M403 143q-4 -81 -37.5 -117.5t-100.5 -36.5q-75 0 -116 42t-41 125v243h-90v51h90q32 18 63 71t45 108h32v-179h140v-51h-140v-263q0 -81 55 -81q50 0 59 88h41z" />
    <glyph glyph-name="u" unicode="u" horiz-adv-x="589" 
d="M377 86q-18 -43 -55.5 -70t-91.5 -27q-72 0 -117 43t-45 118v300h141v-276q0 -61 20 -88t49 -27q43 0 71 40t28 83v268h140v-450h-140v86z" />
    <glyph glyph-name="v" unicode="v" horiz-adv-x="512" 
d="M237 -5l-219 455h150l132 -293l126 293h68l-204 -455h-53z" />
    <glyph glyph-name="w" unicode="w" horiz-adv-x="808" 
d="M223 -5l-205 455h150l118 -291l120 291h65l148 -286l103 286h68l-177 -455h-53l-153 302l-132 -302h-52z" />
    <glyph glyph-name="x" unicode="x" horiz-adv-x="570" 
d="M379 0l-126 166l-139 -166h-78l179 211l-183 239h158l106 -152l121 152h78l-162 -198l205 -252h-159z" />
    <glyph glyph-name="y" unicode="y" horiz-adv-x="520" 
d="M50 -250v107q88 1 124.5 15.5t58.5 71.5l21 54l-236 452h149l149 -298l118 298h68l-209 -499q-51 -123 -99.5 -162t-143.5 -39z" />
    <glyph glyph-name="z" unicode="z" horiz-adv-x="478" 
d="M36 0v46l244 353h-228v51h383v-46l-244 -353h251v-51h-406z" />
    <glyph glyph-name="braceleft" unicode="{" horiz-adv-x="359" 
d="M132 274q53 -3 80.5 -35t27.5 -64t-9 -90.5t-9 -107.5q0 -45 18 -67t49 -22h40v-44h-50q-73 0 -109 37t-36 98q0 52 14.5 110.5t14.5 84.5q0 29 -16.5 53.5t-47.5 24.5h-65v49h65q31 0 47.5 25t16.5 53q0 26 -14.5 85t-14.5 110q0 61 36 97.5t109 36.5h50v-44h-40
q-31 0 -49 -22t-18 -66q0 -48 9 -106.5t9 -91.5q0 -31 -27.5 -63t-80.5 -37v-4z" />
    <glyph glyph-name="bar" unicode="|" horiz-adv-x="275" 
d="M96 -250v1000h83v-1000h-83z" />
    <glyph glyph-name="braceright" unicode="}" horiz-adv-x="359" 
d="M227 274v4q-53 5 -80.5 37t-27.5 63q0 33 9 91.5t9 106.5q0 44 -18 66t-49 22h-40v44h50q73 0 109 -36.5t36 -97.5q0 -51 -14.5 -110t-14.5 -85q0 -28 16.5 -53t47.5 -25h65v-49h-65q-31 0 -47.5 -24.5t-16.5 -53.5q0 -26 14.5 -84.5t14.5 -110.5q0 -61 -36 -98t-109 -37
h-50v44h40q31 0 49 22t18 67q0 49 -9 107.5t-9 90.5t27.5 64t80.5 35z" />
    <glyph glyph-name="asciitilde" unicode="~" 
d="M358 163q-46 0 -98.5 33.5t-77.5 33.5q-63 0 -63 -67h-39q0 149 112 149q44 0 100.5 -33.5t75.5 -33.5q63 0 63 67h39q0 -149 -112 -149z" />
    <glyph glyph-name="exclamdown" unicode="&#xa1;" horiz-adv-x="275" 
d="M71 292v132h132v-132h-132zM66 -235q0 112 21.5 238t21.5 213h55q0 -87 21.5 -213t21.5 -238h-141z" />
    <glyph glyph-name="cent" unicode="&#xa2;" 
d="M205 309q0 -104 47 -140l49 290q-96 -16 -96 -150zM301 80q-14 0 -21 1l-22 -132h-43l23 137q-77 17 -123 72.5t-46 140.5q0 99 62 163t171 64h10l22 128h44l-23 -135q54 -16 87.5 -59.5t35.5 -99.5h-33q-9 42 -35.5 68t-64.5 31l-53 -309q15 -3 32 -3q46 0 79 21.5
t44 62.5h33q-4 -64 -51.5 -107.5t-127.5 -43.5z" />
    <glyph glyph-name="sterling" unicode="&#xa3;" 
d="M502 128v-129h-453v46q84 70 106 102t22 81q0 33 -22 67h-126v53h88q-50 69 -50 142q0 80 60.5 130t160.5 50q92 0 144.5 -54t57.5 -143h-52q-4 63 -38 101t-93 38q-41 0 -70.5 -27t-29.5 -78q0 -25 9 -49t18.5 -38t28 -38t25.5 -34h166v-53h-141q4 -13 4 -31
q0 -68 -106 -136h291z" />
    <glyph glyph-name="currency" unicode="&#xa4;" 
d="M423 31l-69 69q-35 -16 -79 -16q-45 0 -76 15l-68 -68l-55 59l61 61q-24 36 -24 82q0 48 25 83l-62 62l56 58l68 -68q34 14 76 14t76 -16l70 70l56 -58l-64 -64q23 -37 23 -81q0 -42 -22 -80l63 -63zM275 129q81 0 81 104t-81 104t-81 -104t81 -104z" />
    <glyph glyph-name="yen" unicode="&#xa5;" 
d="M504 155h-149v-155h-145v155h-152v53h152v87h-152v53h140l-158 312h162l130 -257l120 257h61l-151 -312h141v-53h-148v-87h149v-53z" />
    <glyph glyph-name="brokenbar" unicode="&#xa6;" horiz-adv-x="275" 
d="M96 350v400h83v-400h-83zM96 -250v400h83v-400h-83z" />
    <glyph glyph-name="section" unicode="&#xa7;" horiz-adv-x="525" 
d="M254 206q55 -22 89 -43q34 20 34 64q0 34 -25.5 56t-93.5 49q-58 24 -88 43q-35 -22 -35 -64q0 -34 25.5 -56t93.5 -49zM236 -132q-124 0 -146 120h33q25 -74 112 -74q38 0 59 19.5t21 49.5q0 35 -24 58.5t-85 47.5q-102 39 -136 78t-34 106q0 96 90 139q-29 34 -29 93
q0 78 52 121.5t127 43.5q124 0 146 -120h-33q-25 74 -105 74q-42 0 -64.5 -19.5t-22.5 -49.5q0 -38 23 -60.5t86 -45.5q102 -38 136 -77.5t34 -106.5q0 -96 -90 -139q29 -34 29 -93q0 -78 -52 -121.5t-127 -43.5z" />
    <glyph glyph-name="dieresis" unicode="&#xa8;" horiz-adv-x="501" 
d="M213 688v-116h-110v116h110zM398 688v-116h-110v116h110z" />
    <glyph glyph-name="copyright" unicode="&#xa9;" horiz-adv-x="764" 
d="M382 647q133 0 225.5 -87.5t92.5 -229.5t-92.5 -229.5t-225.5 -87.5t-225.5 87.5t-92.5 229.5t92.5 229.5t225.5 87.5zM382 587q-107 0 -174.5 -69.5t-67.5 -187.5t67.5 -187.5t174.5 -69.5t174.5 69.5t67.5 187.5t-67.5 187.5t-174.5 69.5zM398 514q55 0 93.5 -33.5
t46.5 -84.5h-50q-10 64 -79 64q-94 0 -94 -130t94 -130q69 0 79 64h50q-8 -51 -46.5 -84.5t-93.5 -33.5q-90 0 -138 50.5t-48 133.5q0 82 48.5 133t137.5 51z" />
    <glyph glyph-name="ordfeminine" unicode="&#xaa;" horiz-adv-x="341" 
d="M163 347q16 0 26 11.5t10 27.5v44l-21 -4q-25 -5 -37 -14.5t-12 -28.5q0 -16 9.5 -26t24.5 -10zM199 310v24q-27 -31 -82 -31q-35 0 -58.5 17.5t-23.5 50.5q0 38 28.5 58t83.5 30l52 9v29q0 26 -14.5 39.5t-35.5 13.5q-55 0 -59 -54h-36q2 48 35.5 72.5t86.5 24.5
q124 0 124 -115v-168h-101zM302 201h-252v50h252v-50z" />
    <glyph glyph-name="guillemotleft" unicode="&#xab;" horiz-adv-x="560" 
d="M172 223l139 -202h-71l-201 188v28l201 188h71zM382 223l139 -202h-71l-201 188v28l201 188h71z" />
    <glyph glyph-name="logicalnot" unicode="&#xac;" 
d="M470 37h-83v153h-307v83h390v-236z" />
    <glyph glyph-name="registered" unicode="&#xae;" horiz-adv-x="492" 
d="M245 276q-86 0 -144 58t-58 153t58 153t144 58t144 -58t58 -153t-58 -153t-144 -58zM245 316q69 0 112.5 46t43.5 125t-43.5 125.5t-112.5 46.5t-113 -46.5t-44 -125.5t44 -125t113 -46zM239 566h-18v-62h17q38 0 38 33q0 17 -8.5 23t-28.5 6zM274 374l-45 90h-8v-90h-73
v231h101q102 0 102 -70q0 -47 -53 -64l58 -97h-82z" />
    <glyph glyph-name="macron" unicode="&#xaf;" horiz-adv-x="500" 
d="M124 672h251v-81h-251v81z" />
    <glyph glyph-name="degree" unicode="&#xb0;" horiz-adv-x="376" 
d="M188 380q-79 0 -121.5 36.5t-42.5 102.5q0 64 44 107.5t120 43.5q77 0 120 -39.5t43 -105.5q0 -63 -43.5 -104t-119.5 -41zM188 424q59 0 59 101q0 56 -14.5 78.5t-44.5 22.5q-59 0 -59 -101q0 -56 14.5 -78.5t44.5 -22.5z" />
    <glyph glyph-name="plusminus" unicode="&#xb1;" 
d="M470 0h-390v73h154v117h-154v83h154v154h83v-154h153v-83h-153v-117h153v-73z" />
    <glyph glyph-name="twosuperior" unicode="&#xb2;" horiz-adv-x="362" 
d="M148 693q-71 0 -78 -90h-45q9 142 151 142q65 0 102.5 -32t37.5 -88q0 -23 -4.5 -39.5t-20.5 -37.5t-28.5 -33.5t-48.5 -46.5t-60 -58h170v-100h-290v39l74 80q99 105 99 201q0 63 -59 63z" />
    <glyph glyph-name="threesuperior" unicode="&#xb3;" horiz-adv-x="364" 
d="M169 303q-141 0 -148 133h45q4 -38 28.5 -59.5t62.5 -21.5q69 0 69 73q0 50 -14 65.5t-40 15.5h-46v43h46q42 0 42 70q0 34 -16 52.5t-42 18.5q-32 0 -52.5 -19t-23.5 -52h-45q7 123 148 123q64 0 102 -30.5t38 -77.5q0 -70 -57 -105q68 -34 68 -104q0 -54 -42 -89.5
t-123 -35.5z" />
    <glyph glyph-name="acute" unicode="&#xb4;" horiz-adv-x="500" 
d="M203 698h155l-149 -150h-67z" />
    <glyph glyph-name="mu" unicode="&#xb5;" horiz-adv-x="594" 
d="M267 -11q-30 0 -53 17v-197h-142v641h142v-276q0 -61 19.5 -88t49.5 -27q43 0 71 40t28 83v268h140v-450h-140v86q-14 -43 -44 -70t-71 -27z" />
    <glyph glyph-name="paragraph" unicode="&#xb6;" horiz-adv-x="525" 
d="M330 -111h-55v332h-17q-98 0 -158.5 64t-60.5 153q0 92 58.5 157t160.5 65h72v-771zM379 660h55v-771h-55v771z" />
    <glyph glyph-name="periodcentered" unicode="&#xb7;" horiz-adv-x="275" 
d="M71 173v132h132v-132h-132z" />
    <glyph glyph-name="cedilla" unicode="&#xb8;" horiz-adv-x="500" 
d="M240 -208q-37 0 -61 18t-25 53h43q2 -26 35 -26q42 0 42 39q0 40 -34 40q-22 0 -34 -20h-49l56 104h39l-30 -54q15 12 43 12q32 0 56.5 -20.5t24.5 -57.5q0 -41 -27.5 -64.5t-78.5 -23.5z" />
    <glyph glyph-name="onesuperior" unicode="&#xb9;" horiz-adv-x="355" 
d="M159 310v341l-88 -74l-26 39l164 123h54v-429h-104z" />
    <glyph glyph-name="ordmasculine" unicode="&#xba;" horiz-adv-x="376" 
d="M25 442q0 64 44 107.5t120 43.5q77 0 120 -39.5t43 -105.5q0 -63 -43.5 -104t-119.5 -41q-79 0 -121.5 36.5t-42.5 102.5zM130 448q0 -56 14.5 -78.5t44.5 -22.5q59 0 59 101q0 56 -14.5 78.5t-44.5 22.5q-59 0 -59 -101zM328 201h-280v50h280v-50z" />
    <glyph glyph-name="guillemotright" unicode="&#xbb;" horiz-adv-x="560" 
d="M178 223l-139 202h71l201 -188v-28l-201 -188h-71zM388 223l-139 202h71l201 -188v-28l-201 -188h-71z" />
    <glyph glyph-name="onequarter" unicode="&#xbc;" horiz-adv-x="817" 
d="M159 235v341l-88 -74l-26 39l164 123h54v-429h-104zM319 0h-77l287 660h77zM798 96h-58v-96h-101v96h-163v34q50 76 74.5 133t28 85.5t3.5 80.5h111q0 -54 -24 -96.5t-108 -149.5q-23 -30 -36 -46h114v65q20 16 33.5 47t13.5 60h54v-172h58v-41z" />
    <glyph glyph-name="onehalf" unicode="&#xbd;" horiz-adv-x="847" 
d="M159 235v341l-88 -74l-26 39l164 123h54v-429h-104zM319 0h-77l287 660h77zM638 383q-71 0 -78 -90h-45q9 142 151 142q65 0 102.5 -32t37.5 -88q0 -23 -4.5 -39.5t-20.5 -37.5t-28.5 -33.5t-48.5 -46.5t-60 -58h170v-100h-290v39l74 80q99 105 99 201q0 63 -59 63z" />
    <glyph glyph-name="threequarters" unicode="&#xbe;" horiz-adv-x="817" 
d="M319 0h-77l287 660h77zM169 228q-141 0 -148 133h45q4 -38 28.5 -59.5t62.5 -21.5q69 0 69 73q0 50 -14 65.5t-40 15.5h-46v43h46q42 0 42 70q0 34 -16 52.5t-42 18.5q-32 0 -52.5 -19t-23.5 -52h-45q7 123 148 123q64 0 102 -30.5t38 -77.5q0 -70 -57 -105
q68 -34 68 -104q0 -54 -42 -89.5t-123 -35.5zM798 96h-58v-96h-101v96h-163v34q50 76 74.5 133t28 85.5t3.5 80.5h111q0 -54 -24 -96.5t-108 -149.5q-23 -30 -36 -46h114v65q20 16 33.5 47t13.5 60h54v-172h58v-41z" />
    <glyph glyph-name="questiondown" unicode="&#xbf;" horiz-adv-x="465" 
d="M189 292v132h132v-132h-132zM279 -186q125 0 131 128h49q-5 -88 -61 -137.5t-152 -49.5t-157 42t-61 106q0 43 15.5 72.5t35 42.5t51.5 33t50 37q33 30 39.5 48.5t6.5 78.5h55q0 -74 -7 -95.5t-45 -69.5q-49 -62 -49 -130q0 -106 99 -106z" />
    <glyph glyph-name="Agrave" unicode="&#xc0;" horiz-adv-x="677" 
d="M301 830l61 -120h-67l-149 120h155zM394 226l-109 245l-101 -245h210zM494 0l-74 166h-261l-69 -166h-72l288 665h44l309 -665h-165z" />
    <glyph glyph-name="Aacute" unicode="&#xc1;" horiz-adv-x="677" 
d="M354 830h155l-149 -120h-67zM394 226l-109 245l-101 -245h210zM494 0l-74 166h-261l-69 -166h-72l288 665h44l309 -665h-165z" />
    <glyph glyph-name="Acircumflex" unicode="&#xc2;" horiz-adv-x="677" 
d="M327 759l-100 -49h-37l99 120h76l99 -120h-37zM394 226l-109 245l-101 -245h210zM494 0l-74 166h-261l-69 -166h-72l288 665h44l309 -665h-165z" />
    <glyph glyph-name="Atilde" unicode="&#xc3;" horiz-adv-x="677" 
d="M406 830h45q0 -120 -77 -120q-26 0 -43 11t-28.5 22t-23.5 11q-30 0 -30 -44h-45q0 120 78 120q30 0 56 -21t37 -21q31 0 31 42zM394 226l-109 245l-101 -245h210zM494 0l-74 166h-261l-69 -166h-72l288 665h44l309 -665h-165z" />
    <glyph glyph-name="Adieresis" unicode="&#xc4;" horiz-adv-x="677" 
d="M288 837v-116h-110v116h110zM473 837v-116h-110v116h110zM394 226l-109 245l-101 -245h210zM494 0l-74 166h-261l-69 -166h-72l288 665h44l309 -665h-165z" />
    <glyph glyph-name="Aring" unicode="&#xc5;" horiz-adv-x="677" 
d="M327 710q-46 0 -72.5 19.5t-26.5 55.5q0 35 26.5 55t72.5 20t72.5 -20t26.5 -55q0 -36 -26.5 -55.5t-72.5 -19.5zM327 753q19 0 31.5 8t12.5 24t-12.5 24t-31.5 8q-42 0 -42 -32t42 -32zM394 226l-109 245l-101 -245h210zM494 0l-74 166h-261l-69 -166h-72l288 665h44
l309 -665h-165z" />
    <glyph glyph-name="AE" unicode="&#xc6;" horiz-adv-x="952" 
d="M444 226v333l-216 -333h216zM444 0v166h-255l-108 -166h-72l428 660h435v-55h-277v-247h257v-55h-257v-248h298v-55h-449z" />
    <glyph glyph-name="Ccedilla" unicode="&#xc7;" horiz-adv-x="689" 
d="M372 -208q-37 0 -61 18t-25 53h43q2 -26 35 -26q42 0 42 39q0 40 -34 40q-22 0 -34 -20h-49l51 95q-143 10 -216 98.5t-73 235.5q0 156 90.5 250.5t235.5 94.5q100 0 169.5 -61.5t83.5 -156.5h-50q-11 71 -61.5 114.5t-123.5 43.5q-90 0 -138.5 -66.5t-48.5 -218.5
q0 -139 51 -207t138 -68q76 0 126.5 43t61.5 115h50q-14 -95 -85 -156.5t-172 -61.5l-24 -44q15 12 43 12q32 0 56.5 -20.5t24.5 -57.5q0 -41 -27.5 -64.5t-78.5 -23.5z" />
    <glyph glyph-name="Egrave" unicode="&#xc8;" horiz-adv-x="595" 
d="M304 830l61 -120h-67l-149 120h155zM97 0v660h428v-55h-277v-247h257v-55h-257v-248h298v-55h-449z" />
    <glyph glyph-name="Eacute" unicode="&#xc9;" horiz-adv-x="595" 
d="M327 830h155l-149 -120h-67zM97 0v660h428v-55h-277v-247h257v-55h-257v-248h298v-55h-449z" />
    <glyph glyph-name="Ecircumflex" unicode="&#xca;" horiz-adv-x="595" 
d="M320 759l-100 -49h-37l99 120h76l99 -120h-37zM97 0v660h428v-55h-277v-247h257v-55h-257v-248h298v-55h-449z" />
    <glyph glyph-name="Edieresis" unicode="&#xcb;" horiz-adv-x="595" 
d="M281 837v-116h-110v116h110zM466 837v-116h-110v116h110zM97 0v660h428v-55h-277v-247h257v-55h-257v-248h298v-55h-449z" />
    <glyph glyph-name="Igrave" unicode="&#xcc;" horiz-adv-x="345" 
d="M147 830l61 -120h-67l-149 120h155zM248 660v-660h-151v660h151z" />
    <glyph glyph-name="Iacute" unicode="&#xcd;" horiz-adv-x="345" 
d="M200 830h155l-149 -120h-67zM248 660v-660h-151v660h151z" />
    <glyph glyph-name="Icircumflex" unicode="&#xce;" horiz-adv-x="345" 
d="M173 759l-100 -49h-37l99 120h76l99 -120h-37zM248 660v-660h-151v660h151z" />
    <glyph glyph-name="Idieresis" unicode="&#xcf;" horiz-adv-x="345" 
d="M134 837v-116h-110v116h110zM319 837v-116h-110v116h110zM248 660v-660h-151v660h151z" />
    <glyph glyph-name="Eth" unicode="&#xd0;" horiz-adv-x="755" 
d="M396 308h-148v-253h121q84 0 131 62t47 215q0 273 -178 273h-121v-242h148v-55zM97 0v308h-70v55h70v297h282q148 0 236.5 -96t88.5 -233q0 -141 -88 -236t-237 -95h-282z" />
    <glyph glyph-name="Ntilde" unicode="&#xd1;" horiz-adv-x="740" 
d="M466 830h45q0 -120 -77 -120q-26 0 -43 11t-28.5 22t-23.5 11q-30 0 -30 -44h-45q0 120 78 120q30 0 56 -21t37 -21q31 0 31 42zM643 -5h-64l-417 542v-537h-65v660h144l337 -434v434h65v-665z" />
    <glyph glyph-name="Ograve" unicode="&#xd2;" horiz-adv-x="772" 
d="M359 830l61 -120h-67l-149 120h155zM386 -10q-154 0 -244.5 95t-90.5 238q0 144 91.5 245.5t243.5 101.5t243.5 -101.5t91.5 -245.5q0 -143 -90.5 -238t-244.5 -95zM386 45q85 0 131.5 62t46.5 216q0 152 -47.5 222t-130.5 70t-130.5 -70t-47.5 -222q0 -154 46.5 -216
t131.5 -62z" />
    <glyph glyph-name="Oacute" unicode="&#xd3;" horiz-adv-x="772" 
d="M412 830h155l-149 -120h-67zM386 -10q-154 0 -244.5 95t-90.5 238q0 144 91.5 245.5t243.5 101.5t243.5 -101.5t91.5 -245.5q0 -143 -90.5 -238t-244.5 -95zM386 45q85 0 131.5 62t46.5 216q0 152 -47.5 222t-130.5 70t-130.5 -70t-47.5 -222q0 -154 46.5 -216t131.5 -62
z" />
    <glyph glyph-name="Ocircumflex" unicode="&#xd4;" horiz-adv-x="772" 
d="M385 759l-100 -49h-37l99 120h76l99 -120h-37zM386 -10q-154 0 -244.5 95t-90.5 238q0 144 91.5 245.5t243.5 101.5t243.5 -101.5t91.5 -245.5q0 -143 -90.5 -238t-244.5 -95zM386 45q85 0 131.5 62t46.5 216q0 152 -47.5 222t-130.5 70t-130.5 -70t-47.5 -222
q0 -154 46.5 -216t131.5 -62z" />
    <glyph glyph-name="Otilde" unicode="&#xd5;" horiz-adv-x="772" 
d="M464 830h45q0 -120 -77 -120q-26 0 -43 11t-28.5 22t-23.5 11q-30 0 -30 -44h-45q0 120 78 120q30 0 56 -21t37 -21q31 0 31 42zM386 -10q-154 0 -244.5 95t-90.5 238q0 144 91.5 245.5t243.5 101.5t243.5 -101.5t91.5 -245.5q0 -143 -90.5 -238t-244.5 -95zM386 45
q85 0 131.5 62t46.5 216q0 152 -47.5 222t-130.5 70t-130.5 -70t-47.5 -222q0 -154 46.5 -216t131.5 -62z" />
    <glyph glyph-name="Odieresis" unicode="&#xd6;" horiz-adv-x="772" 
d="M346 837v-116h-110v116h110zM531 837v-116h-110v116h110zM386 -10q-154 0 -244.5 95t-90.5 238q0 144 91.5 245.5t243.5 101.5t243.5 -101.5t91.5 -245.5q0 -143 -90.5 -238t-244.5 -95zM386 45q85 0 131.5 62t46.5 216q0 152 -47.5 222t-130.5 70t-130.5 -70t-47.5 -222
q0 -154 46.5 -216t131.5 -62z" />
    <glyph glyph-name="multiply" unicode="&#xd7;" 
d="M423 31l-146 146l-146 -146l-55 59l144 144l-144 144l56 58l145 -145l145 145l56 -58l-144 -144l144 -144z" />
    <glyph glyph-name="Oslash" unicode="&#xd8;" horiz-adv-x="772" 
d="M386 -10q-126 0 -215 68l-53 -58h-67l84 92q-84 92 -84 231q0 144 91.5 245.5t243.5 101.5q124 0 212 -72l56 62h67l-88 -96q88 -99 88 -241q0 -143 -90.5 -238t-244.5 -95zM208 323q0 -77 13 -136l308 336q-45 92 -143 92q-83 0 -130.5 -70t-47.5 -222zM386 45
q85 0 131.5 62t46.5 216q0 85 -16 147l-308 -337q41 -88 146 -88z" />
    <glyph glyph-name="Ugrave" unicode="&#xd9;" horiz-adv-x="722" 
d="M373 830l61 -120h-67l-149 120h155zM563 236v424h71v-425q0 -120 -68.5 -182.5t-179.5 -62.5q-298 0 -298 260v410h150v-410q0 -94 47 -137.5t124 -43.5q78 0 116 40t38 127z" />
    <glyph glyph-name="Uacute" unicode="&#xda;" horiz-adv-x="722" 
d="M406 830h155l-149 -120h-67zM563 236v424h71v-425q0 -120 -68.5 -182.5t-179.5 -62.5q-298 0 -298 260v410h150v-410q0 -94 47 -137.5t124 -43.5q78 0 116 40t38 127z" />
    <glyph glyph-name="Ucircumflex" unicode="&#xdb;" horiz-adv-x="722" 
d="M399 759l-100 -49h-37l99 120h76l99 -120h-37zM563 236v424h71v-425q0 -120 -68.5 -182.5t-179.5 -62.5q-298 0 -298 260v410h150v-410q0 -94 47 -137.5t124 -43.5q78 0 116 40t38 127z" />
    <glyph glyph-name="Udieresis" unicode="&#xdc;" horiz-adv-x="722" 
d="M360 837v-116h-110v116h110zM545 837v-116h-110v116h110zM563 236v424h71v-425q0 -120 -68.5 -182.5t-179.5 -62.5q-298 0 -298 260v410h150v-410q0 -94 47 -137.5t124 -43.5q78 0 116 40t38 127z" />
    <glyph glyph-name="Yacute" unicode="&#xdd;" horiz-adv-x="688" 
d="M401 830h155l-149 -120h-67zM432 0h-151v290l-258 370h172l202 -297l192 297h76l-233 -350v-310z" />
    <glyph glyph-name="Thorn" unicode="&#xde;" horiz-adv-x="647" 
d="M337 479h-89v-267h89q107 0 107 136q0 131 -107 131zM337 157h-89v-157h-151v660h151v-126h89q124 0 193.5 -48t69.5 -138q0 -91 -70 -141t-193 -50z" />
    <glyph glyph-name="germandbls" unicode="&#xdf;" horiz-adv-x="677" 
d="M467 -11q-74 0 -119 37t-50 106h35q17 -94 118 -94q37 0 58 15t21 42q0 34 -42 59q-14 9 -67 35q-61 31 -89.5 67t-28.5 92q0 29 10 52.5t19.5 35t32.5 32t31 29.5q39 42 39 100q0 104 -89 104q-53 0 -80.5 -43.5t-27.5 -158.5v-499h-140v399h-86v51h86v37
q0 132 61.5 195t186.5 63q121 0 173 -45t52 -109q0 -37 -20.5 -61t-64.5 -47.5t-54 -31.5q-36 -28 -36 -61q0 -28 18 -42.5t73 -38.5q4 -2 6.5 -3t7 -2.5t7.5 -3.5q70 -31 99 -69t29 -98q0 -68 -50 -106t-119 -38z" />
    <glyph glyph-name="agrave" unicode="&#xe0;" horiz-adv-x="523" 
d="M256 698l61 -150h-67l-149 150h155zM243 49q28 0 50 21t22 46v87l-47 -8q-45 -9 -67 -28t-22 -57q0 -29 17 -45t47 -16zM315 0v48q-41 -58 -134 -58q-60 0 -96 27.5t-36 81.5q0 61 43 92.5t127 45.5l96 16v51q0 45 -28.5 68t-68.5 23q-44 0 -72 -23t-32 -66h-34
q4 76 52 115t132 39q94 0 142.5 -49.5t48.5 -132.5v-278h-140z" />
    <glyph glyph-name="aacute" unicode="&#xe1;" horiz-adv-x="523" 
d="M310 698h155l-149 -150h-67zM243 49q28 0 50 21t22 46v87l-47 -8q-45 -9 -67 -28t-22 -57q0 -29 17 -45t47 -16zM315 0v48q-41 -58 -134 -58q-60 0 -96 27.5t-36 81.5q0 61 43 92.5t127 45.5l96 16v51q0 45 -28.5 68t-68.5 23q-44 0 -72 -23t-32 -66h-34q4 76 52 115
t132 39q94 0 142.5 -49.5t48.5 -132.5v-278h-140z" />
    <glyph glyph-name="acircumflex" unicode="&#xe2;" horiz-adv-x="523" 
d="M281 617l-100 -69h-37l99 150h76l99 -150h-37zM243 49q28 0 50 21t22 46v87l-47 -8q-45 -9 -67 -28t-22 -57q0 -29 17 -45t47 -16zM315 0v48q-41 -58 -134 -58q-60 0 -96 27.5t-36 81.5q0 61 43 92.5t127 45.5l96 16v51q0 45 -28.5 68t-68.5 23q-44 0 -72 -23t-32 -66
h-34q4 76 52 115t132 39q94 0 142.5 -49.5t48.5 -132.5v-278h-140z" />
    <glyph glyph-name="atilde" unicode="&#xe3;" horiz-adv-x="523" 
d="M328 559q-20 0 -35.5 9t-23 20.5t-17 20.5t-18.5 9q-31 0 -31 -59h-45q0 139 78 139q18 0 33 -9t23 -20.5t17.5 -20.5t18.5 -9q32 0 32 59h45q0 -139 -77 -139zM243 49q28 0 50 21t22 46v87l-47 -8q-45 -9 -67 -28t-22 -57q0 -29 17 -45t47 -16zM315 0v48
q-41 -58 -134 -58q-60 0 -96 27.5t-36 81.5q0 61 43 92.5t127 45.5l96 16v51q0 45 -28.5 68t-68.5 23q-44 0 -72 -23t-32 -66h-34q4 76 52 115t132 39q94 0 142.5 -49.5t48.5 -132.5v-278h-140z" />
    <glyph glyph-name="adieresis" unicode="&#xe4;" horiz-adv-x="523" 
d="M243 688v-116h-110v116h110zM428 688v-116h-110v116h110zM243 49q28 0 50 21t22 46v87l-47 -8q-45 -9 -67 -28t-22 -57q0 -29 17 -45t47 -16zM315 0v48q-41 -58 -134 -58q-60 0 -96 27.5t-36 81.5q0 61 43 92.5t127 45.5l96 16v51q0 45 -28.5 68t-68.5 23q-44 0 -72 -23
t-32 -66h-34q4 76 52 115t132 39q94 0 142.5 -49.5t48.5 -132.5v-278h-140z" />
    <glyph glyph-name="aring" unicode="&#xe5;" horiz-adv-x="523" 
d="M280 542q-50 0 -78 21.5t-28 60.5t28 61t78 22t78 -22t28 -61t-28 -60.5t-78 -21.5zM280 589q19 0 32.5 9t13.5 26t-13.5 26t-32.5 9t-32.5 -9t-13.5 -26t13.5 -26t32.5 -9zM243 49q28 0 50 21t22 46v87l-47 -8q-45 -9 -67 -28t-22 -57q0 -29 17 -45t47 -16zM315 0v48
q-41 -58 -134 -58q-60 0 -96 27.5t-36 81.5q0 61 43 92.5t127 45.5l96 16v51q0 45 -28.5 68t-68.5 23q-44 0 -72 -23t-32 -66h-34q4 76 52 115t132 39q94 0 142.5 -49.5t48.5 -132.5v-278h-140z" />
    <glyph glyph-name="ae" unicode="&#xe6;" horiz-adv-x="822" 
d="M560 409q-76 0 -87 -135h170q0 135 -83 135zM774 149q-4 -66 -58.5 -113t-142.5 -47q-140 0 -206 90q-17 -35 -64 -62.5t-113 -27.5q-55 0 -93 27t-38 83q0 61 42.5 91.5t127.5 46.5l96 16v51q0 45 -28.5 68t-68.5 23q-44 0 -72 -23t-32 -66h-34q4 76 52 115t132 39
q90 0 141 -48q62 48 144 48q107 0 164.5 -64t57.5 -173h-309q4 -164 132 -164q45 0 82.5 21.5t47.5 68.5h40zM251 49q70 0 95 66q-19 44 -20 88l-48 -8q-45 -10 -67 -29t-22 -56q0 -29 18 -45t44 -16z" />
    <glyph glyph-name="ccedilla" unicode="&#xe7;" horiz-adv-x="509" 
d="M278 -208q-37 0 -61 18t-25 53h43q2 -26 35 -26q42 0 42 39q0 40 -34 40q-22 0 -34 -20h-49l51 95q-92 10 -148.5 70.5t-56.5 159.5q0 105 65 172.5t177 67.5q79 0 130.5 -50t54.5 -123h-34q-10 50 -45.5 78t-81.5 28q-58 0 -93.5 -38.5t-35.5 -123.5q0 -173 128 -173
q48 0 83.5 22.5t46.5 67.5h34q-4 -67 -54 -113.5t-132 -46.5l-24 -43q15 12 43 12q32 0 56.5 -20.5t24.5 -57.5q0 -41 -27.5 -64.5t-78.5 -23.5z" />
    <glyph glyph-name="egrave" unicode="&#xe8;" horiz-adv-x="536" 
d="M256 698l61 -150h-67l-149 150h155zM277 409q-79 0 -88 -135h169q0 68 -21.5 101.5t-59.5 33.5zM489 149q-4 -66 -58.5 -113t-142.5 -47q-111 0 -179 61.5t-68 171.5q0 100 66 169t168 69q106 0 163 -64t57 -173h-308q2 -88 39 -126t94 -38q45 0 82.5 21.5t47.5 68.5h39z
" />
    <glyph glyph-name="eacute" unicode="&#xe9;" horiz-adv-x="536" 
d="M280 698h155l-149 -150h-67zM277 409q-79 0 -88 -135h169q0 68 -21.5 101.5t-59.5 33.5zM489 149q-4 -66 -58.5 -113t-142.5 -47q-111 0 -179 61.5t-68 171.5q0 100 66 169t168 69q106 0 163 -64t57 -173h-308q2 -88 39 -126t94 -38q45 0 82.5 21.5t47.5 68.5h39z" />
    <glyph glyph-name="ecircumflex" unicode="&#xea;" horiz-adv-x="536" 
d="M281 617l-100 -69h-37l99 150h76l99 -150h-37zM277 409q-79 0 -88 -135h169q0 68 -21.5 101.5t-59.5 33.5zM489 149q-4 -66 -58.5 -113t-142.5 -47q-111 0 -179 61.5t-68 171.5q0 100 66 169t168 69q106 0 163 -64t57 -173h-308q2 -88 39 -126t94 -38q45 0 82.5 21.5
t47.5 68.5h39z" />
    <glyph glyph-name="edieresis" unicode="&#xeb;" horiz-adv-x="536" 
d="M243 688v-116h-110v116h110zM428 688v-116h-110v116h110zM277 409q-79 0 -88 -135h169q0 68 -21.5 101.5t-59.5 33.5zM489 149q-4 -66 -58.5 -113t-142.5 -47q-111 0 -179 61.5t-68 171.5q0 100 66 169t168 69q106 0 163 -64t57 -173h-308q2 -88 39 -126t94 -38
q45 0 82.5 21.5t47.5 68.5h39z" />
    <glyph glyph-name="igrave" unicode="&#xec;" horiz-adv-x="284" 
d="M117 698l61 -150h-67l-149 150h155zM212 450v-450h-140v450h140z" />
    <glyph glyph-name="iacute" unicode="&#xed;" horiz-adv-x="284" 
d="M171 698h155l-149 -150h-67zM212 450v-450h-140v450h140z" />
    <glyph glyph-name="icircumflex" unicode="&#xee;" horiz-adv-x="284" 
d="M142 617l-100 -69h-37l99 150h76l99 -150h-37zM212 450v-450h-140v450h140z" />
    <glyph glyph-name="idieresis" unicode="&#xef;" horiz-adv-x="284" 
d="M104 688v-116h-110v116h110zM289 688v-116h-110v116h110zM212 450v-450h-140v450h140z" />
    <glyph glyph-name="eth" unicode="&#xf0;" horiz-adv-x="583" 
d="M286 -11q-113 0 -179 65.5t-66 162.5q0 104 64 173.5t166 69.5q87 0 134 -71q-10 129 -66 203q-83 -58 -85 -58h-76l131 91q-72 65 -189 65v54q156 0 258 -70l87 60h77l-127 -89q126 -116 126 -338q0 -154 -69.5 -236t-185.5 -82zM393 223q0 85 -30.5 131.5t-78.5 46.5
q-97 0 -97 -184q0 -96 26 -132t76 -36q47 0 75.5 41t28.5 133z" />
    <glyph glyph-name="ntilde" unicode="&#xf1;" horiz-adv-x="599" 
d="M371 559q-20 0 -35.5 9t-23 20.5t-17 20.5t-18.5 9q-31 0 -31 -59h-45q0 139 78 139q23 0 40.5 -15t29 -29.5t22.5 -14.5q32 0 32 59h45q0 -139 -77 -139zM212 364q18 43 57.5 69.5t95.5 26.5q74 0 120 -43t46 -118v-299h-140v276q0 115 -74 115q-46 0 -75.5 -40
t-29.5 -83v-268h-140v450h140v-86z" />
    <glyph glyph-name="ograve" unicode="&#xf2;" horiz-adv-x="588" 
d="M270 698l61 -150h-67l-149 150h155zM41 217q0 102 69 172.5t184 70.5q118 0 185.5 -64.5t67.5 -171.5q0 -101 -68.5 -168t-184.5 -67q-119 0 -186 61t-67 167zM187 225q0 -100 27.5 -138t79.5 -38q107 0 107 175q0 101 -27.5 139t-79.5 38q-107 0 -107 -176z" />
    <glyph glyph-name="oacute" unicode="&#xf3;" horiz-adv-x="588" 
d="M324 698h155l-149 -150h-67zM41 217q0 102 69 172.5t184 70.5q118 0 185.5 -64.5t67.5 -171.5q0 -101 -68.5 -168t-184.5 -67q-119 0 -186 61t-67 167zM187 225q0 -100 27.5 -138t79.5 -38q107 0 107 175q0 101 -27.5 139t-79.5 38q-107 0 -107 -176z" />
    <glyph glyph-name="ocircumflex" unicode="&#xf4;" horiz-adv-x="588" 
d="M295 617l-100 -69h-37l99 150h76l99 -150h-37zM41 217q0 102 69 172.5t184 70.5q118 0 185.5 -64.5t67.5 -171.5q0 -101 -68.5 -168t-184.5 -67q-119 0 -186 61t-67 167zM187 225q0 -100 27.5 -138t79.5 -38q107 0 107 175q0 101 -27.5 139t-79.5 38q-107 0 -107 -176z
" />
    <glyph glyph-name="otilde" unicode="&#xf5;" horiz-adv-x="588" 
d="M342 559q-20 0 -35.5 9t-23 20.5t-17 20.5t-18.5 9q-31 0 -31 -59h-45q0 139 78 139q18 0 33 -9t23 -20.5t17.5 -20.5t18.5 -9q32 0 32 59h45q0 -139 -77 -139zM41 217q0 102 69 172.5t184 70.5q118 0 185.5 -64.5t67.5 -171.5q0 -101 -68.5 -168t-184.5 -67
q-119 0 -186 61t-67 167zM187 225q0 -100 27.5 -138t79.5 -38q107 0 107 175q0 101 -27.5 139t-79.5 38q-107 0 -107 -176z" />
    <glyph glyph-name="odieresis" unicode="&#xf6;" horiz-adv-x="588" 
d="M257 688v-116h-110v116h110zM442 688v-116h-110v116h110zM41 217q0 102 69 172.5t184 70.5q118 0 185.5 -64.5t67.5 -171.5q0 -101 -68.5 -168t-184.5 -67q-119 0 -186 61t-67 167zM187 225q0 -100 27.5 -138t79.5 -38q107 0 107 175q0 101 -27.5 139t-79.5 38
q-107 0 -107 -176z" />
    <glyph glyph-name="divide" unicode="&#xf7;" 
d="M275 326q-23 0 -39 16t-16 40q0 22 16 38.5t39 16.5t39.5 -16.5t16.5 -38.5q0 -24 -16.5 -40t-39.5 -16zM470 273v-83h-390v83h390zM275 138q23 0 39.5 -15.5t16.5 -39.5q0 -23 -16.5 -39.5t-39.5 -16.5t-39 16.5t-16 39.5q0 24 16 39.5t39 15.5z" />
    <glyph glyph-name="oslash" unicode="&#xf8;" horiz-adv-x="588" 
d="M294 -11q-95 0 -158 40l-28 -29h-68l58 60q-57 60 -57 157q0 102 69 172.5t184 70.5q88 0 151 -38l27 28h70l-58 -60q63 -63 63 -166q0 -101 -68.5 -168t-184.5 -67zM187 225q0 -42 4 -67l188 195q-25 48 -85 48q-107 0 -107 -176zM294 49q107 0 107 175q0 41 -5 74
l-190 -196q25 -53 88 -53z" />
    <glyph glyph-name="ugrave" unicode="&#xf9;" horiz-adv-x="589" 
d="M261 698l61 -150h-67l-149 150h155zM377 86q-18 -43 -55.5 -70t-91.5 -27q-72 0 -117 43t-45 118v300h141v-276q0 -61 20 -88t49 -27q43 0 71 40t28 83v268h140v-450h-140v86z" />
    <glyph glyph-name="uacute" unicode="&#xfa;" horiz-adv-x="589" 
d="M315 698h155l-149 -150h-67zM377 86q-18 -43 -55.5 -70t-91.5 -27q-72 0 -117 43t-45 118v300h141v-276q0 -61 20 -88t49 -27q43 0 71 40t28 83v268h140v-450h-140v86z" />
    <glyph glyph-name="ucircumflex" unicode="&#xfb;" horiz-adv-x="589" 
d="M286 617l-100 -69h-37l99 150h76l99 -150h-37zM377 86q-18 -43 -55.5 -70t-91.5 -27q-72 0 -117 43t-45 118v300h141v-276q0 -61 20 -88t49 -27q43 0 71 40t28 83v268h140v-450h-140v86z" />
    <glyph glyph-name="udieresis" unicode="&#xfc;" horiz-adv-x="589" 
d="M248 688v-116h-110v116h110zM433 688v-116h-110v116h110zM377 86q-18 -43 -55.5 -70t-91.5 -27q-72 0 -117 43t-45 118v300h141v-276q0 -61 20 -88t49 -27q43 0 71 40t28 83v268h140v-450h-140v86z" />
    <glyph glyph-name="yacute" unicode="&#xfd;" horiz-adv-x="520" 
d="M330 698h155l-149 -150h-67zM50 -250v107q88 1 124.5 15.5t58.5 71.5l21 54l-236 452h149l149 -298l118 298h68l-209 -499q-51 -123 -99.5 -162t-143.5 -39z" />
    <glyph glyph-name="thorn" unicode="&#xfe;" horiz-adv-x="619" 
d="M212 224q0 -81 34 -125.5t78 -44.5q53 0 80 39.5t27 130.5q0 172 -98 172q-50 0 -85.5 -44.5t-35.5 -127.5zM359 -11q-42 0 -84 23t-63 68v-320h-140v975h140v-369q22 47 67 70.5t89 23.5q93 0 151.5 -68.5t58.5 -167.5q0 -97 -61 -166t-158 -69z" />
    <glyph glyph-name="ydieresis" unicode="&#xff;" horiz-adv-x="520" 
d="M263 688v-116h-110v116h110zM448 688v-116h-110v116h110zM50 -250v107q88 1 124.5 15.5t58.5 71.5l21 54l-236 452h149l149 -298l118 298h68l-209 -499q-51 -123 -99.5 -162t-143.5 -39z" />
    <glyph glyph-name="Amacron" unicode="&#x100;" horiz-adv-x="677" 
d="M202 830h251v-81h-251v81zM394 226l-109 245l-101 -245h210zM494 0l-74 166h-261l-69 -166h-72l288 665h44l309 -665h-165z" />
    <glyph glyph-name="amacron" unicode="&#x101;" horiz-adv-x="523" 
d="M155 672h251v-81h-251v81zM243 49q28 0 50 21t22 46v87l-47 -8q-45 -9 -67 -28t-22 -57q0 -29 17 -45t47 -16zM315 0v48q-41 -58 -134 -58q-60 0 -96 27.5t-36 81.5q0 61 43 92.5t127 45.5l96 16v51q0 45 -28.5 68t-68.5 23q-44 0 -72 -23t-32 -66h-34q4 76 52 115
t132 39q94 0 142.5 -49.5t48.5 -132.5v-278h-140z" />
    <glyph glyph-name="Abreve" unicode="&#x102;" horiz-adv-x="677" 
d="M328 782q23 0 45.5 12.5t22.5 35.5h55q0 -54 -36.5 -87t-86.5 -33q-56 0 -90 33t-34 87h55q0 -23 21 -35.5t48 -12.5zM394 226l-109 245l-101 -245h210zM494 0l-74 166h-261l-69 -166h-72l288 665h44l309 -665h-165z" />
    <glyph glyph-name="abreve" unicode="&#x103;" horiz-adv-x="523" 
d="M281 641q24 0 46 14t22 43h55q0 -55 -37.5 -97t-85.5 -42q-55 0 -89.5 41t-34.5 98h55q0 -29 21 -43t48 -14zM243 49q28 0 50 21t22 46v87l-47 -8q-45 -9 -67 -28t-22 -57q0 -29 17 -45t47 -16zM315 0v48q-41 -58 -134 -58q-60 0 -96 27.5t-36 81.5q0 61 43 92.5
t127 45.5l96 16v51q0 45 -28.5 68t-68.5 23q-44 0 -72 -23t-32 -66h-34q4 76 52 115t132 39q94 0 142.5 -49.5t48.5 -132.5v-278h-140z" />
    <glyph glyph-name="Aogonek" unicode="&#x104;" horiz-adv-x="677" 
d="M394 226l-109 245l-101 -245h210zM494 0l-74 166h-261l-69 -166h-72l288 665h44l309 -665h-114q-43 -51 -58 -78.5t-15 -52.5q0 -32 27 -32q17 0 27.5 13.5t12.5 33.5h46q-1 -44 -28.5 -68t-74.5 -24q-84 0 -84 66q0 9 2 17.5t4.5 15.5t8.5 16.5t10 15.5t14.5 17.5t16 17
t19.5 20.5t21 22z" />
    <glyph glyph-name="aogonek" unicode="&#x105;" horiz-adv-x="523" 
d="M243 49q28 0 50 21t22 46v87l-47 -8q-45 -9 -67 -28t-22 -57q0 -29 17 -45t47 -16zM315 0v48q-41 -58 -134 -58q-60 0 -96 27.5t-36 81.5q0 61 43 92.5t127 45.5l96 16v51q0 45 -28.5 68t-68.5 23q-44 0 -72 -23t-32 -66h-34q4 76 52 115t132 39q94 0 142.5 -49.5
t48.5 -132.5v-278h-89q-43 -51 -58 -78.5t-15 -52.5q0 -32 27 -32q17 0 27.5 13.5t12.5 33.5h46q-1 -44 -28.5 -68t-74.5 -24q-84 0 -84 66q0 9 2 17.5t4.5 15.5t8.5 16.5t10 15.5t14.5 17.5t16 17t19.5 20.5t21 22z" />
    <glyph glyph-name="Cacute" unicode="&#x106;" horiz-adv-x="689" 
d="M401 830h155l-149 -120h-67zM395 610q-90 0 -138.5 -66.5t-48.5 -218.5q0 -139 51 -207t138 -68q76 0 126.5 43t61.5 115h50q-14 -95 -85 -156.5t-173 -61.5q-162 0 -244 89.5t-82 245.5t90.5 250.5t235.5 94.5q100 0 169.5 -61.5t83.5 -156.5h-50q-11 71 -61.5 114.5
t-123.5 43.5z" />
    <glyph glyph-name="cacute" unicode="&#x107;" horiz-adv-x="509" 
d="M303 698h155l-149 -150h-67zM306 59q48 0 83.5 22.5t46.5 67.5h34q-4 -67 -54.5 -113.5t-134.5 -46.5q-105 0 -172.5 61.5t-67.5 170.5q0 105 65 172.5t177 67.5q79 0 130.5 -50t54.5 -123h-34q-10 50 -45.5 78t-81.5 28q-58 0 -93.5 -38.5t-35.5 -123.5q0 -173 128 -173
z" />
    <glyph glyph-name="Ccircumflex" unicode="&#x108;" horiz-adv-x="689" 
d="M374 759l-100 -49h-37l99 120h76l99 -120h-37zM395 610q-90 0 -138.5 -66.5t-48.5 -218.5q0 -139 51 -207t138 -68q76 0 126.5 43t61.5 115h50q-14 -95 -85 -156.5t-173 -61.5q-162 0 -244 89.5t-82 245.5t90.5 250.5t235.5 94.5q100 0 169.5 -61.5t83.5 -156.5h-50
q-11 71 -61.5 114.5t-123.5 43.5z" />
    <glyph glyph-name="ccircumflex" unicode="&#x109;" horiz-adv-x="509" 
d="M274 617l-100 -69h-37l99 150h76l99 -150h-37zM306 59q48 0 83.5 22.5t46.5 67.5h34q-4 -67 -54.5 -113.5t-134.5 -46.5q-105 0 -172.5 61.5t-67.5 170.5q0 105 65 172.5t177 67.5q79 0 130.5 -50t54.5 -123h-34q-10 50 -45.5 78t-81.5 28q-58 0 -93.5 -38.5
t-35.5 -123.5q0 -173 128 -173z" />
    <glyph glyph-name="Cdotaccent" unicode="&#x10a;" horiz-adv-x="689" 
d="M445 721h-140v136h140v-136zM395 610q-90 0 -138.5 -66.5t-48.5 -218.5q0 -139 51 -207t138 -68q76 0 126.5 43t61.5 115h50q-14 -95 -85 -156.5t-173 -61.5q-162 0 -244 89.5t-82 245.5t90.5 250.5t235.5 94.5q100 0 169.5 -61.5t83.5 -156.5h-50q-11 71 -61.5 114.5
t-123.5 43.5z" />
    <glyph glyph-name="cdotaccent" unicode="&#x10b;" horiz-adv-x="509" 
d="M344 698v-136h-140v136h140zM306 59q48 0 83.5 22.5t46.5 67.5h34q-4 -67 -54.5 -113.5t-134.5 -46.5q-105 0 -172.5 61.5t-67.5 170.5q0 105 65 172.5t177 67.5q79 0 130.5 -50t54.5 -123h-34q-10 50 -45.5 78t-81.5 28q-58 0 -93.5 -38.5t-35.5 -123.5q0 -173 128 -173
z" />
    <glyph glyph-name="Ccaron" unicode="&#x10c;" horiz-adv-x="689" 
d="M374 781l100 49h37l-99 -120h-76l-99 120h37zM395 610q-90 0 -138.5 -66.5t-48.5 -218.5q0 -139 51 -207t138 -68q76 0 126.5 43t61.5 115h50q-14 -95 -85 -156.5t-173 -61.5q-162 0 -244 89.5t-82 245.5t90.5 250.5t235.5 94.5q100 0 169.5 -61.5t83.5 -156.5h-50
q-11 71 -61.5 114.5t-123.5 43.5z" />
    <glyph glyph-name="ccaron" unicode="&#x10d;" horiz-adv-x="509" 
d="M276 629l100 69h37l-99 -150h-76l-99 150h37zM306 59q48 0 83.5 22.5t46.5 67.5h34q-4 -67 -54.5 -113.5t-134.5 -46.5q-105 0 -172.5 61.5t-67.5 170.5q0 105 65 172.5t177 67.5q79 0 130.5 -50t54.5 -123h-34q-10 50 -45.5 78t-81.5 28q-58 0 -93.5 -38.5t-35.5 -123.5
q0 -173 128 -173z" />
    <glyph glyph-name="Dcaron" unicode="&#x10e;" horiz-adv-x="755" 
d="M371 781l100 49h37l-99 -120h-76l-99 120h37zM369 605h-121v-550h121q84 0 131 62t47 215q0 273 -178 273zM97 0v660h282q148 0 236.5 -96t88.5 -233q0 -141 -88 -236t-237 -95h-282z" />
    <glyph glyph-name="dcaron" unicode="&#x10f;" horiz-adv-x="618" 
d="M591 735h136l-104 -150h-47zM406 225q0 83 -35 127t-84 44q-99 0 -99 -171t98 -171q49 0 84.5 44t35.5 127zM406 0v85q-22 -47 -68.5 -71.5t-89.5 -24.5q-92 0 -149.5 68.5t-57.5 167.5q0 97 59.5 166t156.5 69q43 0 85.5 -23t63.5 -68v366h140v-735h-140z" />
    <glyph glyph-name="Dcroat" unicode="&#x110;" horiz-adv-x="755" 
d="M396 308h-148v-253h121q84 0 131 62t47 215q0 273 -178 273h-121v-242h148v-55zM97 0v308h-70v55h70v297h282q148 0 236.5 -96t88.5 -233q0 -141 -88 -236t-237 -95h-282z" />
    <glyph glyph-name="dcroat" unicode="&#x111;" horiz-adv-x="618" 
d="M406 225q0 83 -35 127t-84 44q-99 0 -99 -171t98 -171q49 0 84.5 44t35.5 127zM406 0v85q-22 -47 -68.5 -71.5t-89.5 -24.5q-92 0 -149.5 68.5t-57.5 167.5q0 97 59.5 166t156.5 69q43 0 85.5 -23t63.5 -68v182h-125v50h125v134h140v-134h70v-50h-70v-551h-140z" />
    <glyph glyph-name="Emacron" unicode="&#x112;" horiz-adv-x="595" 
d="M195 830h251v-81h-251v81zM97 0v660h428v-55h-277v-247h257v-55h-257v-248h298v-55h-449z" />
    <glyph glyph-name="emacron" unicode="&#x113;" horiz-adv-x="536" 
d="M155 672h251v-81h-251v81zM277 409q-79 0 -88 -135h169q0 68 -21.5 101.5t-59.5 33.5zM489 149q-4 -66 -58.5 -113t-142.5 -47q-111 0 -179 61.5t-68 171.5q0 100 66 169t168 69q106 0 163 -64t57 -173h-308q2 -88 39 -126t94 -38q45 0 82.5 21.5t47.5 68.5h39z" />
    <glyph glyph-name="Ebreve" unicode="&#x114;" horiz-adv-x="595" 
d="M321 782q23 0 45.5 12.5t22.5 35.5h55q0 -54 -36.5 -87t-86.5 -33q-56 0 -90 33t-34 87h55q0 -23 21 -35.5t48 -12.5zM97 0v660h428v-55h-277v-247h257v-55h-257v-248h298v-55h-449z" />
    <glyph glyph-name="ebreve" unicode="&#x115;" horiz-adv-x="536" 
d="M281 641q24 0 46 14t22 43h55q0 -55 -37.5 -97t-85.5 -42q-55 0 -89.5 41t-34.5 98h55q0 -29 21 -43t48 -14zM277 409q-79 0 -88 -135h169q0 68 -21.5 101.5t-59.5 33.5zM489 149q-4 -66 -58.5 -113t-142.5 -47q-111 0 -179 61.5t-68 171.5q0 100 66 169t168 69
q106 0 163 -64t57 -173h-308q2 -88 39 -126t94 -38q45 0 82.5 21.5t47.5 68.5h39z" />
    <glyph glyph-name="Edotaccent" unicode="&#x116;" horiz-adv-x="595" 
d="M391 721h-140v136h140v-136zM97 0v660h428v-55h-277v-247h257v-55h-257v-248h298v-55h-449z" />
    <glyph glyph-name="edotaccent" unicode="&#x117;" horiz-adv-x="536" 
d="M351 698v-136h-140v136h140zM277 409q-79 0 -88 -135h169q0 68 -21.5 101.5t-59.5 33.5zM489 149q-4 -66 -58.5 -113t-142.5 -47q-111 0 -179 61.5t-68 171.5q0 100 66 169t168 69q106 0 163 -64t57 -173h-308q2 -88 39 -126t94 -38q45 0 82.5 21.5t47.5 68.5h39z" />
    <glyph glyph-name="Eogonek" unicode="&#x118;" horiz-adv-x="595" 
d="M544 -116q-1 -44 -28.5 -68t-74.5 -24q-84 0 -84 66q0 8 1 15.5t4.5 15t6 13.5t9 15t10.5 14t13.5 15.5t14.5 15.5t17.5 18.5t18.5 19.5h-355v660h428v-55h-277v-247h257v-55h-257v-248h298v-55h-43q-42 -50 -57 -78t-15 -53q0 -32 27 -32q17 0 27.5 13.5t12.5 33.5h46z
" />
    <glyph glyph-name="eogonek" unicode="&#x119;" horiz-adv-x="536" 
d="M277 409q-79 0 -88 -135h169q0 68 -21.5 101.5t-59.5 33.5zM477 -122q-2 -46 -30 -71.5t-76 -25.5q-89 0 -89 70q0 19 11 39t38 56t41 57q-37 -14 -84 -14q-111 0 -179 61.5t-68 171.5q0 100 66 169t168 69q106 0 163 -64t57 -173h-308q2 -88 39 -126t94 -38
q45 0 82.5 21.5t47.5 68.5h39q-3 -46 -30 -83q-18 -33 -41 -73t-33.5 -58.5t-18.5 -38.5t-8 -35q0 -34 30 -34q17 0 28.5 14.5t14.5 36.5h46z" />
    <glyph glyph-name="Ecaron" unicode="&#x11a;" horiz-adv-x="595" 
d="M320 781l100 49h37l-99 -120h-76l-99 120h37zM97 0v660h428v-55h-277v-247h257v-55h-257v-248h298v-55h-449z" />
    <glyph glyph-name="ecaron" unicode="&#x11b;" horiz-adv-x="536" 
d="M283 629l100 69h37l-99 -150h-76l-99 150h37zM277 409q-79 0 -88 -135h169q0 68 -21.5 101.5t-59.5 33.5zM489 149q-4 -66 -58.5 -113t-142.5 -47q-111 0 -179 61.5t-68 171.5q0 100 66 169t168 69q106 0 163 -64t57 -173h-308q2 -88 39 -126t94 -38q45 0 82.5 21.5
t47.5 68.5h39z" />
    <glyph glyph-name="Gcircumflex" unicode="&#x11c;" horiz-adv-x="728" 
d="M381 759l-100 -49h-37l99 120h76l99 -120h-37zM660 293v-293h-73q0 20 -39 50q-71 -60 -171 -60q-162 0 -244 89.5t-82 245.5q0 150 94.5 247.5t238.5 97.5q100 0 169.5 -61.5t83.5 -156.5h-50q-11 72 -61 115t-125 43q-95 0 -144 -63.5t-49 -221.5q0 -147 47.5 -211
t141.5 -64q66 0 113 33v155h-80v55h230z" />
    <glyph glyph-name="gcircumflex" unicode="&#x11d;" horiz-adv-x="531" 
d="M257 617l-100 -69h-37l99 150h76l99 -150h-37zM181 291q0 -101 70 -101t70 108q0 59 -18 83t-52 24q-70 0 -70 -114zM505 -63q0 -66 -42 -109.5t-103 -60.5t-138 -17q-86 0 -139 25t-53 72q0 34 17.5 57t52.5 47q-59 29 -59 90q0 38 18.5 64t57.5 58q-82 43 -82 128
q0 74 58.5 121.5t157.5 47.5q100 0 158 -44l103 71h3v-115q-29 1 -65 -2q18 -32 18 -72q0 -70 -59 -117t-158 -47q-47 0 -88 11q-29 -20 -29 -38q0 -44 55 -44h152q80 0 122 -34.5t42 -91.5zM242 -188q71 0 110.5 18.5t39.5 51.5q0 23 -17 38.5t-52 15.5h-151q-14 0 -20 1
q-33 -32 -33 -69q0 -31 28 -43.5t95 -12.5z" />
    <glyph glyph-name="Gbreve" unicode="&#x11e;" horiz-adv-x="728" 
d="M382 782q23 0 45.5 12.5t22.5 35.5h55q0 -54 -36.5 -87t-86.5 -33q-56 0 -90 33t-34 87h55q0 -23 21 -35.5t48 -12.5zM660 293v-293h-73q0 20 -39 50q-71 -60 -171 -60q-162 0 -244 89.5t-82 245.5q0 150 94.5 247.5t238.5 97.5q100 0 169.5 -61.5t83.5 -156.5h-50
q-11 72 -61 115t-125 43q-95 0 -144 -63.5t-49 -221.5q0 -147 47.5 -211t141.5 -64q66 0 113 33v155h-80v55h230z" />
    <glyph glyph-name="gbreve" unicode="&#x11f;" horiz-adv-x="531" 
d="M257 641q24 0 46 14t22 43h55q0 -55 -37.5 -97t-85.5 -42q-55 0 -89.5 41t-34.5 98h55q0 -29 21 -43t48 -14zM181 291q0 -101 70 -101t70 108q0 59 -18 83t-52 24q-70 0 -70 -114zM505 -63q0 -66 -42 -109.5t-103 -60.5t-138 -17q-86 0 -139 25t-53 72q0 34 17.5 57
t52.5 47q-59 29 -59 90q0 38 18.5 64t57.5 58q-82 43 -82 128q0 74 58.5 121.5t157.5 47.5q100 0 158 -44l103 71h3v-115q-29 1 -65 -2q18 -32 18 -72q0 -70 -59 -117t-158 -47q-47 0 -88 11q-29 -20 -29 -38q0 -44 55 -44h152q80 0 122 -34.5t42 -91.5zM242 -188
q71 0 110.5 18.5t39.5 51.5q0 23 -17 38.5t-52 15.5h-151q-14 0 -20 1q-33 -32 -33 -69q0 -31 28 -43.5t95 -12.5z" />
    <glyph glyph-name="Gdotaccent" unicode="&#x120;" horiz-adv-x="728" 
d="M452 721h-140v136h140v-136zM660 293v-293h-73q0 20 -39 50q-71 -60 -171 -60q-162 0 -244 89.5t-82 245.5q0 150 94.5 247.5t238.5 97.5q100 0 169.5 -61.5t83.5 -156.5h-50q-11 72 -61 115t-125 43q-95 0 -144 -63.5t-49 -221.5q0 -147 47.5 -211t141.5 -64
q66 0 113 33v155h-80v55h230z" />
    <glyph glyph-name="gdotaccent" unicode="&#x121;" horiz-adv-x="531" 
d="M327 698v-136h-140v136h140zM181 291q0 -101 70 -101t70 108q0 59 -18 83t-52 24q-70 0 -70 -114zM505 -63q0 -66 -42 -109.5t-103 -60.5t-138 -17q-86 0 -139 25t-53 72q0 34 17.5 57t52.5 47q-59 29 -59 90q0 38 18.5 64t57.5 58q-82 43 -82 128q0 74 58.5 121.5
t157.5 47.5q100 0 158 -44l103 71h3v-115q-29 1 -65 -2q18 -32 18 -72q0 -70 -59 -117t-158 -47q-47 0 -88 11q-29 -20 -29 -38q0 -44 55 -44h152q80 0 122 -34.5t42 -91.5zM242 -188q71 0 110.5 18.5t39.5 51.5q0 23 -17 38.5t-52 15.5h-151q-14 0 -20 1q-33 -32 -33 -69
q0 -31 28 -43.5t95 -12.5z" />
    <glyph glyph-name="Gcommaaccent" unicode="&#x122;" horiz-adv-x="728" 
d="M660 293v-293h-73q0 20 -39 50q-71 -60 -171 -60q-162 0 -244 89.5t-82 245.5q0 150 94.5 247.5t238.5 97.5q100 0 169.5 -61.5t83.5 -156.5h-50q-11 72 -61 115t-125 43q-95 0 -144 -63.5t-49 -221.5q0 -147 47.5 -211t141.5 -64q66 0 113 33v155h-80v55h230zM392 -149
q0 29 -63 29v70q59 0 89.5 -21t30.5 -60q0 -89 -143 -89v34q49 1 67.5 9.5t18.5 27.5z" />
    <glyph glyph-name="gcommaaccent" unicode="&#x123;" horiz-adv-x="531" 
d="M327 548h-136l104 150h47zM181 291q0 -101 70 -101t70 108q0 59 -18 83t-52 24q-70 0 -70 -114zM505 -63q0 -66 -42 -109.5t-103 -60.5t-138 -17q-86 0 -139 25t-53 72q0 34 17.5 57t52.5 47q-59 29 -59 90q0 38 18.5 64t57.5 58q-82 43 -82 128q0 74 58.5 121.5
t157.5 47.5q100 0 158 -44l103 71h3v-115q-29 1 -65 -2q18 -32 18 -72q0 -70 -59 -117t-158 -47q-47 0 -88 11q-29 -20 -29 -38q0 -44 55 -44h152q80 0 122 -34.5t42 -91.5zM242 -188q71 0 110.5 18.5t39.5 51.5q0 23 -17 38.5t-52 15.5h-151q-14 0 -20 1q-33 -32 -33 -69
q0 -31 28 -43.5t95 -12.5z" />
    <glyph glyph-name="Hcircumflex" unicode="&#x124;" horiz-adv-x="772" 
d="M386 759l-100 -49h-37l99 120h76l99 -120h-37zM525 0v300h-277v-300h-151v660h151v-305h277v305h150v-660h-150z" />
    <glyph glyph-name="hcircumflex" unicode="&#x125;" horiz-adv-x="601" 
d="M138 809l-100 -49h-37l99 120h76l99 -120h-37zM212 364q18 43 57.5 69.5t95.5 26.5q74 0 121 -43t47 -118v-299h-142v276q0 115 -74 115q-46 0 -75.5 -40t-29.5 -83v-268h-140v735h140v-371z" />
    <glyph glyph-name="Hbar" unicode="&#x126;" horiz-adv-x="772" 
d="M525 355v103h-277v-103h277zM525 0v300h-277v-300h-151v458h-70v55h70v147h151v-147h277v147h150v-147h70v-55h-70v-458h-150z" />
    <glyph glyph-name="hbar" unicode="&#x127;" horiz-adv-x="601" 
d="M212 268v-268h-140v551h-70v50h70v134h140v-134h129v-50h-129v-187q18 43 57.5 69.5t95.5 26.5q74 0 121 -43t47 -118v-299h-142v276q0 115 -74 115q-46 0 -75.5 -40t-29.5 -83z" />
    <glyph glyph-name="Itilde" unicode="&#x128;" horiz-adv-x="345" 
d="M252 830h45q0 -120 -77 -120q-26 0 -43 11t-28.5 22t-23.5 11q-30 0 -30 -44h-45q0 120 78 120q30 0 56 -21t37 -21q31 0 31 42zM248 660v-660h-151v660h151z" />
    <glyph glyph-name="itilde" unicode="&#x129;" horiz-adv-x="284" 
d="M189 559q-20 0 -35.5 9t-23 20.5t-17 20.5t-18.5 9q-31 0 -31 -59h-45q0 139 78 139q23 0 40.5 -15t29 -29.5t22.5 -14.5q32 0 32 59h45q0 -139 -77 -139zM212 450v-450h-140v450h140z" />
    <glyph glyph-name="Imacron" unicode="&#x12a;" horiz-adv-x="345" 
d="M48 830h251v-81h-251v81zM248 660v-660h-151v660h151z" />
    <glyph glyph-name="imacron" unicode="&#x12b;" horiz-adv-x="284" 
d="M16 672h251v-81h-251v81zM212 450v-450h-140v450h140z" />
    <glyph glyph-name="Ibreve" unicode="&#x12c;" horiz-adv-x="345" 
d="M174 782q23 0 45.5 12.5t22.5 35.5h55q0 -54 -36.5 -87t-86.5 -33q-56 0 -90 33t-34 87h55q0 -23 21 -35.5t48 -12.5zM248 660v-660h-151v660h151z" />
    <glyph glyph-name="ibreve" unicode="&#x12d;" horiz-adv-x="284" 
d="M142 641q24 0 46 14t22 43h55q0 -55 -37.5 -97t-85.5 -42q-55 0 -89.5 41t-34.5 98h55q0 -29 21 -43t48 -14zM212 450v-450h-140v450h140z" />
    <glyph glyph-name="Iogonek" unicode="&#x12e;" horiz-adv-x="345" 
d="M146 0h-49v660h151v-660h-51q-43 -51 -58 -78.5t-15 -52.5q0 -32 27 -32q17 0 27.5 13.5t12.5 33.5h46q-1 -44 -28.5 -68t-74.5 -24q-84 0 -84 66q0 9 2 17.5t4.5 15.5t8.5 16.5t10 15.5t14.5 17.5t16 17t19.5 20.5t21 22z" />
    <glyph glyph-name="iogonek" unicode="&#x12f;" horiz-adv-x="284" 
d="M212 698v-136h-140v136h140zM109 0h-37v450h140v-450h-52q-43 -51 -58 -78.5t-15 -52.5q0 -32 27 -32q17 0 27.5 13.5t12.5 33.5h46q-1 -44 -28.5 -68t-74.5 -24q-84 0 -84 66q0 9 2 17.5t4.5 15.5t8.5 16.5t10 15.5t14.5 17.5t16 17t19.5 20.5t21 22z" />
    <glyph glyph-name="Idotaccent" unicode="&#x130;" horiz-adv-x="345" 
d="M244 721h-140v136h140v-136zM248 660v-660h-151v660h151z" />
    <glyph glyph-name="dotlessi" unicode="&#x131;" horiz-adv-x="284" 
d="M212 450v-450h-140v450h140z" />
    <glyph glyph-name="IJ" unicode="&#x132;" horiz-adv-x="935" 
d="M248 660v-660h-151v660h151zM576 50q62 0 91 42t29 140v428h151v-427q0 -112 -69.5 -177.5t-182.5 -65.5q-197 0 -215 218h50q18 -158 146 -158z" />
    <glyph glyph-name="ij" unicode="&#x133;" horiz-adv-x="580" 
d="M505 698v-136h-140v136h140zM212 698v-136h-140v136h140zM212 450v-450h-140v450h140zM505 450v-407q0 -23 1.5 -67.5t1.5 -58.5q0 -78 -49.5 -122.5t-139.5 -44.5q-26 0 -41 3v42q12 -2 20 -2q70 0 70 109q0 12 -1.5 62.5t-1.5 81.5v404h140z" />
    <glyph glyph-name="Jcircumflex" unicode="&#x134;" horiz-adv-x="590" 
d="M426 759l-100 -49h-37l99 120h76l99 -120h-37zM231 50q62 0 91 42t29 140v428h151v-427q0 -112 -69.5 -177.5t-182.5 -65.5q-197 0 -215 218h50q18 -158 146 -158z" />
    <glyph glyph-name="jcircumflex" unicode="&#x135;" horiz-adv-x="296" 
d="M145 617l-100 -69h-37l99 150h76l99 -150h-37zM214 450v-407q0 -23 1.5 -67.5t1.5 -58.5q0 -78 -47.5 -122.5t-134.5 -44.5q-27 0 -41 3v46q10 -2 20 -2q63 0 63 101q0 12 -1.5 64.5t-1.5 83.5v404h140z" />
    <glyph glyph-name="Kcommaaccent" unicode="&#x136;" horiz-adv-x="743" 
d="M248 660v-660h-151v660h151zM702 0h-188l-259 331l319 329h86l-279 -280zM396 -149q0 29 -63 29v70q59 0 89.5 -21t30.5 -60q0 -89 -143 -89v34q49 1 67.5 9.5t18.5 27.5z" />
    <glyph glyph-name="kcommaaccent" unicode="&#x137;" horiz-adv-x="601" 
d="M212 735v-735h-140v735h140zM570 0h-165l-181 236q49 46 107.5 109.5t88.5 104.5h133l-216 -170zM303 -149q0 29 -63 29v70q59 0 89.5 -21t30.5 -60q0 -89 -143 -89v34q49 1 67.5 9.5t18.5 27.5z" />
    <glyph glyph-name="Lacute" unicode="&#x139;" horiz-adv-x="563" 
d="M198 830h155l-149 -120h-67zM97 0v660h151v-605h288v-55h-439z" />
    <glyph glyph-name="lacute" unicode="&#x13a;" horiz-adv-x="284" 
d="M164 880h155l-149 -120h-67zM212 735v-735h-140v735h140z" />
    <glyph glyph-name="Lcommaaccent" unicode="&#x13b;" horiz-adv-x="563" 
d="M97 0v660h151v-605h288v-55h-439zM339 -149q0 29 -63 29v70q59 0 89.5 -21t30.5 -60q0 -89 -143 -89v34q49 1 67.5 9.5t18.5 27.5z" />
    <glyph glyph-name="lcommaaccent" unicode="&#x13c;" horiz-adv-x="284" 
d="M212 735v-735h-140v735h140zM155 -149q0 29 -63 29v70q59 0 89.5 -21t30.5 -60q0 -89 -143 -89v34q49 1 67.5 9.5t18.5 27.5z" />
    <glyph glyph-name="Lcaron" unicode="&#x13d;" horiz-adv-x="563" 
d="M333 659h136l-104 -150h-47zM97 0v660h151v-605h288v-55h-439z" />
    <glyph glyph-name="lcaron" unicode="&#x13e;" horiz-adv-x="284" 
d="M257 735h136l-104 -150h-47zM212 735v-735h-140v735h140z" />
    <glyph glyph-name="Ldot" unicode="&#x13f;" horiz-adv-x="563" 
d="M517 419v-136h-140v136h140zM97 0v660h151v-605h288v-55h-439z" />
    <glyph glyph-name="ldot" unicode="&#x140;" horiz-adv-x="284" 
d="M212 735v-735h-140v735h140zM380 414v-136h-140v136h140z" />
    <glyph glyph-name="Lslash" unicode="&#x141;" horiz-adv-x="563" 
d="M97 0v227l-69 -35v59l69 35v374h151v-309l169 86v-58l-169 -86v-238h288v-55h-439z" />
    <glyph glyph-name="lslash" unicode="&#x142;" horiz-adv-x="284" 
d="M212 0h-140v230l-70 -64v68l70 63v438h140v-325l68 62v-68l-68 -62v-342z" />
    <glyph glyph-name="Nacute" unicode="&#x143;" horiz-adv-x="740" 
d="M404 830h155l-149 -120h-67zM643 -5h-64l-417 542v-537h-65v660h144l337 -434v434h65v-665z" />
    <glyph glyph-name="nacute" unicode="&#x144;" horiz-adv-x="599" 
d="M353 698h155l-149 -150h-67zM212 364q18 43 57.5 69.5t95.5 26.5q74 0 120 -43t46 -118v-299h-140v276q0 115 -74 115q-46 0 -75.5 -40t-29.5 -83v-268h-140v450h140v-86z" />
    <glyph glyph-name="Ncommaaccent" unicode="&#x145;" horiz-adv-x="740" 
d="M643 -5h-64l-417 542v-537h-65v660h144l337 -434v434h65v-665zM375 -149q0 29 -63 29v70q59 0 89.5 -21t30.5 -60q0 -89 -143 -89v34q49 1 67.5 9.5t18.5 27.5z" />
    <glyph glyph-name="ncommaaccent" unicode="&#x146;" horiz-adv-x="599" 
d="M212 364q18 43 57.5 69.5t95.5 26.5q74 0 120 -43t46 -118v-299h-140v276q0 115 -74 115q-46 0 -75.5 -40t-29.5 -83v-268h-140v450h140v-86zM316 -149q0 29 -63 29v70q59 0 89.5 -21t30.5 -60q0 -89 -143 -89v34q49 1 67.5 9.5t18.5 27.5z" />
    <glyph glyph-name="Ncaron" unicode="&#x147;" horiz-adv-x="740" 
d="M387 781l100 49h37l-99 -120h-76l-99 120h37zM643 -5h-64l-417 542v-537h-65v660h144l337 -434v434h65v-665z" />
    <glyph glyph-name="ncaron" unicode="&#x148;" horiz-adv-x="599" 
d="M326 629l100 69h37l-99 -150h-76l-99 150h37zM212 364q18 43 57.5 69.5t95.5 26.5q74 0 120 -43t46 -118v-299h-140v276q0 115 -74 115q-46 0 -75.5 -40t-29.5 -83v-268h-140v450h140v-86z" />
    <glyph glyph-name="Eng" unicode="&#x14a;" horiz-adv-x="740" 
d="M471 -250q-80 0 -122.5 45.5t-42.5 114.5h110q0 -103 73 -103q40 0 64.5 37.5t24.5 112.5v39l-416 541v-537h-65v660h144l337 -434v434h65v-702q0 -95 -44.5 -151.5t-127.5 -56.5z" />
    <glyph glyph-name="eng" unicode="&#x14b;" horiz-adv-x="604" 
d="M212 450v-86q18 43 57.5 69.5t95.5 26.5q74 0 121 -43t47 -118v-256q0 -23 1.5 -67.5t1.5 -58.5q0 -79 -48.5 -123t-137.5 -44q-28 0 -41 3v46q10 -2 20 -2q66 0 66 101q0 12 -2 64.5t-2 83.5v230q0 115 -74 115q-46 0 -75.5 -40t-29.5 -83v-268h-140v450h140z" />
    <glyph glyph-name="Omacron" unicode="&#x14c;" horiz-adv-x="772" 
d="M260 830h251v-81h-251v81zM386 -10q-154 0 -244.5 95t-90.5 238q0 144 91.5 245.5t243.5 101.5t243.5 -101.5t91.5 -245.5q0 -143 -90.5 -238t-244.5 -95zM386 45q85 0 131.5 62t46.5 216q0 152 -47.5 222t-130.5 70t-130.5 -70t-47.5 -222q0 -154 46.5 -216t131.5 -62z
" />
    <glyph glyph-name="omacron" unicode="&#x14d;" horiz-adv-x="588" 
d="M169 672h251v-81h-251v81zM41 217q0 102 69 172.5t184 70.5q118 0 185.5 -64.5t67.5 -171.5q0 -101 -68.5 -168t-184.5 -67q-119 0 -186 61t-67 167zM187 225q0 -100 27.5 -138t79.5 -38q107 0 107 175q0 101 -27.5 139t-79.5 38q-107 0 -107 -176z" />
    <glyph glyph-name="Obreve" unicode="&#x14e;" horiz-adv-x="772" 
d="M386 782q23 0 45.5 12.5t22.5 35.5h55q0 -54 -36.5 -87t-86.5 -33q-56 0 -90 33t-34 87h55q0 -23 21 -35.5t48 -12.5zM386 -10q-154 0 -244.5 95t-90.5 238q0 144 91.5 245.5t243.5 101.5t243.5 -101.5t91.5 -245.5q0 -143 -90.5 -238t-244.5 -95zM386 45q85 0 131.5 62
t46.5 216q0 152 -47.5 222t-130.5 70t-130.5 -70t-47.5 -222q0 -154 46.5 -216t131.5 -62z" />
    <glyph glyph-name="obreve" unicode="&#x14f;" horiz-adv-x="588" 
d="M295 641q24 0 46 14t22 43h55q0 -55 -37.5 -97t-85.5 -42q-55 0 -89.5 41t-34.5 98h55q0 -29 21 -43t48 -14zM41 217q0 102 69 172.5t184 70.5q118 0 185.5 -64.5t67.5 -171.5q0 -101 -68.5 -168t-184.5 -67q-119 0 -186 61t-67 167zM187 225q0 -100 27.5 -138t79.5 -38
q107 0 107 175q0 101 -27.5 139t-79.5 38q-107 0 -107 -176z" />
    <glyph glyph-name="Ohungarumlaut" unicode="&#x150;" horiz-adv-x="772" 
d="M463 830h111l-115 -120h-27zM323 830h111l-115 -120h-27zM386 -10q-154 0 -244.5 95t-90.5 238q0 144 91.5 245.5t243.5 101.5t243.5 -101.5t91.5 -245.5q0 -143 -90.5 -238t-244.5 -95zM386 45q85 0 131.5 62t46.5 216q0 152 -47.5 222t-130.5 70t-130.5 -70t-47.5 -222
q0 -154 46.5 -216t131.5 -62z" />
    <glyph glyph-name="ohungarumlaut" unicode="&#x151;" horiz-adv-x="588" 
d="M377 698h121l-119 -150h-37zM237 698h121l-119 -150h-37zM41 217q0 102 69 172.5t184 70.5q118 0 185.5 -64.5t67.5 -171.5q0 -101 -68.5 -168t-184.5 -67q-119 0 -186 61t-67 167zM187 225q0 -100 27.5 -138t79.5 -38q107 0 107 175q0 101 -27.5 139t-79.5 38
q-107 0 -107 -176z" />
    <glyph glyph-name="OE" unicode="&#x152;" horiz-adv-x="1005" 
d="M376 0q-148 0 -236.5 96t-88.5 233q0 141 88 236t237 95h559v-55h-277v-247h257v-55h-257v-248h298v-55h-580zM507 605h-121q-84 0 -131 -62t-47 -215q0 -273 178 -273h121v550z" />
    <glyph glyph-name="oe" unicode="&#x153;" horiz-adv-x="897" 
d="M636 409q-76 0 -87 -135h169q0 135 -82 135zM187 225q0 -100 27.5 -138t79.5 -38q107 0 107 175q0 101 -27.5 139t-79.5 38q-107 0 -107 -176zM850 149q-4 -66 -59 -113t-143 -47q-112 0 -177 68q-68 -68 -177 -68q-119 0 -186 60.5t-67 165.5q0 102 69 173.5t184 71.5
q114 0 182 -70q62 70 159 70q107 0 164 -64t57 -173h-309q4 -164 132 -164q47 0 84 21.5t47 68.5h40z" />
    <glyph glyph-name="Racute" unicode="&#x154;" horiz-adv-x="722" 
d="M375 830h155l-149 -120h-67zM357 605h-109v-263h107q44 0 76.5 32.5t32.5 100.5q0 130 -107 130zM507 0l-202 287h-57v-287h-151v660h260q124 0 193.5 -46t69.5 -133q0 -62 -44.5 -111.5t-121.5 -70.5h2l226 -299h-175z" />
    <glyph glyph-name="racute" unicode="&#x155;" horiz-adv-x="417" 
d="M262 698h155l-149 -150h-67zM212 359q52 101 142 101q23 0 41 -2v-111q-30 10 -69 10q-53 0 -83.5 -23.5t-30.5 -65.5v-268h-140v450h140v-91z" />
    <glyph glyph-name="Rcommaaccent" unicode="&#x156;" horiz-adv-x="722" 
d="M357 605h-109v-263h107q44 0 76.5 32.5t32.5 100.5q0 130 -107 130zM507 0l-202 287h-57v-287h-151v660h260q124 0 193.5 -46t69.5 -133q0 -62 -44.5 -111.5t-121.5 -70.5h2l226 -299h-175zM379 -149q0 29 -63 29v70q59 0 89.5 -21t30.5 -60q0 -89 -143 -89v34
q49 1 67.5 9.5t18.5 27.5z" />
    <glyph glyph-name="rcommaaccent" unicode="&#x157;" horiz-adv-x="417" 
d="M212 359q52 101 142 101q23 0 41 -2v-111q-30 10 -69 10q-53 0 -83.5 -23.5t-30.5 -65.5v-268h-140v450h140v-91zM161 -149q0 29 -63 29v70q59 0 89.5 -21t30.5 -60q0 -89 -143 -89v34q49 1 67.5 9.5t18.5 27.5z" />
    <glyph glyph-name="Rcaron" unicode="&#x158;" horiz-adv-x="722" 
d="M348 781l100 49h37l-99 -120h-76l-99 120h37zM357 605h-109v-263h107q44 0 76.5 32.5t32.5 100.5q0 130 -107 130zM507 0l-202 287h-57v-287h-151v660h260q124 0 193.5 -46t69.5 -133q0 -62 -44.5 -111.5t-121.5 -70.5h2l226 -299h-175z" />
    <glyph glyph-name="rcaron" unicode="&#x159;" horiz-adv-x="417" 
d="M235 629l100 69h37l-99 -150h-76l-99 150h37zM212 359q52 101 142 101q23 0 41 -2v-111q-30 10 -69 10q-53 0 -83.5 -23.5t-30.5 -65.5v-268h-140v450h140v-91z" />
    <glyph glyph-name="Sacute" unicode="&#x15a;" horiz-adv-x="600" 
d="M329 830h155l-149 -120h-67zM325 613q-54 0 -84.5 -26t-30.5 -71q0 -35 26.5 -61.5t89.5 -51.5q125 -49 172.5 -97t47.5 -124q0 -87 -69 -139.5t-176 -52.5q-104 0 -170.5 54t-72.5 152h50q23 -149 178 -149q52 0 87.5 24t35.5 69q0 19 -7 33.5t-14.5 24t-31.5 22.5
t-38 19t-54 23q-97 40 -139 85.5t-42 123.5q0 85 65 142t171 57q96 0 150.5 -48t66.5 -133h-50q-11 63 -54 93.5t-107 30.5z" />
    <glyph glyph-name="sacute" unicode="&#x15b;" horiz-adv-x="459" 
d="M260 698h155l-149 -150h-67zM251 413q-77 0 -77 -57q0 -20 13.5 -34.5t27 -20.5t41.5 -15q39 -13 59 -21.5t48.5 -26t41.5 -43.5t13 -61q0 -70 -55.5 -107t-141.5 -37q-81 0 -130 40t-55 111h39q19 -102 140 -102q79 0 79 54q0 19 -13 33t-25.5 19t-40.5 14q-2 1 -3 1
t-3 1t-3 1q-33 11 -55 20.5t-46.5 27t-37 43.5t-12.5 61q0 65 46.5 105.5t129.5 40.5q148 0 170 -138h-39q-11 43 -40.5 67t-70.5 24z" />
    <glyph glyph-name="Scircumflex" unicode="&#x15c;" horiz-adv-x="600" 
d="M302 759l-100 -49h-37l99 120h76l99 -120h-37zM325 613q-54 0 -84.5 -26t-30.5 -71q0 -35 26.5 -61.5t89.5 -51.5q125 -49 172.5 -97t47.5 -124q0 -87 -69 -139.5t-176 -52.5q-104 0 -170.5 54t-72.5 152h50q23 -149 178 -149q52 0 87.5 24t35.5 69q0 19 -7 33.5
t-14.5 24t-31.5 22.5t-38 19t-54 23q-97 40 -139 85.5t-42 123.5q0 85 65 142t171 57q96 0 150.5 -48t66.5 -133h-50q-11 63 -54 93.5t-107 30.5z" />
    <glyph glyph-name="scircumflex" unicode="&#x15d;" horiz-adv-x="459" 
d="M231 617l-100 -69h-37l99 150h76l99 -150h-37zM251 413q-77 0 -77 -57q0 -20 13.5 -34.5t27 -20.5t41.5 -15q39 -13 59 -21.5t48.5 -26t41.5 -43.5t13 -61q0 -70 -55.5 -107t-141.5 -37q-81 0 -130 40t-55 111h39q19 -102 140 -102q79 0 79 54q0 19 -13 33t-25.5 19
t-40.5 14q-2 1 -3 1t-3 1t-3 1q-33 11 -55 20.5t-46.5 27t-37 43.5t-12.5 61q0 65 46.5 105.5t129.5 40.5q148 0 170 -138h-39q-11 43 -40.5 67t-70.5 24z" />
    <glyph glyph-name="Scedilla" unicode="&#x15e;" horiz-adv-x="600" 
d="M289 -208q-37 0 -61 18t-25 53h43q2 -26 35 -26q42 0 42 39q0 40 -34 40q-22 0 -34 -20h-49l52 97q-87 11 -141 63.5t-59 139.5h50q23 -149 178 -149q52 0 87.5 24t35.5 69q0 19 -7 33.5t-14.5 24t-31.5 22.5t-38 19t-54 23q-97 40 -139 85.5t-42 123.5q0 85 65 142
t171 57q96 0 150.5 -48t66.5 -133h-50q-11 63 -54 93.5t-107 30.5q-54 0 -84.5 -26t-30.5 -71q0 -35 26.5 -61.5t89.5 -51.5q125 -49 172.5 -97t47.5 -124q0 -87 -69 -139.5t-176 -52.5h-6l-24 -44q15 12 43 12q32 0 56.5 -20.5t24.5 -57.5q0 -41 -27.5 -64.5t-78.5 -23.5z
" />
    <glyph glyph-name="scedilla" unicode="&#x15f;" horiz-adv-x="459" 
d="M221 -208q-37 0 -61 18t-25 53h43q2 -26 35 -26q42 0 42 39q0 40 -34 40q-22 0 -34 -20h-49l52 96q-68 8 -108.5 46.5t-45.5 102.5h39q19 -102 140 -102q79 0 79 54q0 19 -13 33t-25.5 19t-40.5 14q-2 1 -3 1t-3 1t-3 1q-33 11 -55 20.5t-46.5 27t-37 43.5t-12.5 61
q0 65 46.5 105.5t129.5 40.5q148 0 170 -138h-39q-11 43 -40.5 67t-70.5 24q-77 0 -77 -57q0 -20 13.5 -34.5t27 -20.5t41.5 -15q39 -13 59 -21.5t48.5 -26t41.5 -43.5t13 -61q0 -68 -53.5 -105t-137.5 -39l-24 -44q15 12 43 12q32 0 56.5 -20.5t24.5 -57.5
q0 -41 -27.5 -64.5t-78.5 -23.5z" />
    <glyph glyph-name="Scaron" unicode="&#x160;" horiz-adv-x="600" 
d="M302 781l100 49h37l-99 -120h-76l-99 120h37zM325 613q-54 0 -84.5 -26t-30.5 -71q0 -35 26.5 -61.5t89.5 -51.5q125 -49 172.5 -97t47.5 -124q0 -87 -69 -139.5t-176 -52.5q-104 0 -170.5 54t-72.5 152h50q23 -149 178 -149q52 0 87.5 24t35.5 69q0 19 -7 33.5t-14.5 24
t-31.5 22.5t-38 19t-54 23q-97 40 -139 85.5t-42 123.5q0 85 65 142t171 57q96 0 150.5 -48t66.5 -133h-50q-11 63 -54 93.5t-107 30.5z" />
    <glyph glyph-name="scaron" unicode="&#x161;" horiz-adv-x="459" 
d="M233 629l100 69h37l-99 -150h-76l-99 150h37zM251 413q-77 0 -77 -57q0 -20 13.5 -34.5t27 -20.5t41.5 -15q39 -13 59 -21.5t48.5 -26t41.5 -43.5t13 -61q0 -70 -55.5 -107t-141.5 -37q-81 0 -130 40t-55 111h39q19 -102 140 -102q79 0 79 54q0 19 -13 33t-25.5 19
t-40.5 14q-2 1 -3 1t-3 1t-3 1q-33 11 -55 20.5t-46.5 27t-37 43.5t-12.5 61q0 65 46.5 105.5t129.5 40.5q148 0 170 -138h-39q-11 43 -40.5 67t-70.5 24z" />
    <glyph glyph-name="Tcaron" unicode="&#x164;" horiz-adv-x="673" 
d="M337 781l100 49h37l-99 -120h-76l-99 120h37zM646 605h-235v-605h-151v605h-233v55h619v-55z" />
    <glyph glyph-name="tcaron" unicode="&#x165;" horiz-adv-x="442" 
d="M293 660h136l-104 -150h-47zM403 143q-4 -81 -37.5 -117.5t-100.5 -36.5q-75 0 -116 42t-41 125v243h-90v51h90q32 18 63 71t45 108h32v-179h140v-51h-140v-263q0 -81 55 -81q50 0 59 88h41z" />
    <glyph glyph-name="Tbar" unicode="&#x166;" horiz-adv-x="673" 
d="M548 290h-137v-290h-151v290h-137v60h137v255h-233v55h619v-55h-235v-255h137v-60z" />
    <glyph glyph-name="tbar" unicode="&#x167;" horiz-adv-x="442" 
d="M403 143q-4 -81 -37.5 -117.5t-100.5 -36.5q-75 0 -116 42t-41 125v99h-68v50h68v94h-90v51h90q32 18 63 71t45 108h32v-179h140v-51h-140v-94h112v-50h-112v-119q0 -81 55 -81q50 0 59 88h41z" />
    <glyph glyph-name="Utilde" unicode="&#x168;" horiz-adv-x="722" 
d="M478 830h45q0 -120 -77 -120q-26 0 -43 11t-28.5 22t-23.5 11q-30 0 -30 -44h-45q0 120 78 120q30 0 56 -21t37 -21q31 0 31 42zM563 236v424h71v-425q0 -120 -68.5 -182.5t-179.5 -62.5q-298 0 -298 260v410h150v-410q0 -94 47 -137.5t124 -43.5q78 0 116 40t38 127z
" />
    <glyph glyph-name="utilde" unicode="&#x169;" horiz-adv-x="589" 
d="M333 559q-20 0 -35.5 9t-23 20.5t-17 20.5t-18.5 9q-31 0 -31 -59h-45q0 139 78 139q23 0 40.5 -15t29 -29.5t22.5 -14.5q32 0 32 59h45q0 -139 -77 -139zM377 86q-18 -43 -55.5 -70t-91.5 -27q-72 0 -117 43t-45 118v300h141v-276q0 -61 20 -88t49 -27q43 0 71 40t28 83
v268h140v-450h-140v86z" />
    <glyph glyph-name="Umacron" unicode="&#x16a;" horiz-adv-x="722" 
d="M274 830h251v-81h-251v81zM563 236v424h71v-425q0 -120 -68.5 -182.5t-179.5 -62.5q-298 0 -298 260v410h150v-410q0 -94 47 -137.5t124 -43.5q78 0 116 40t38 127z" />
    <glyph glyph-name="umacron" unicode="&#x16b;" horiz-adv-x="589" 
d="M160 672h251v-81h-251v81zM377 86q-18 -43 -55.5 -70t-91.5 -27q-72 0 -117 43t-45 118v300h141v-276q0 -61 20 -88t49 -27q43 0 71 40t28 83v268h140v-450h-140v86z" />
    <glyph glyph-name="Ubreve" unicode="&#x16c;" horiz-adv-x="722" 
d="M400 782q23 0 45.5 12.5t22.5 35.5h55q0 -54 -36.5 -87t-86.5 -33q-56 0 -90 33t-34 87h55q0 -23 21 -35.5t48 -12.5zM563 236v424h71v-425q0 -120 -68.5 -182.5t-179.5 -62.5q-298 0 -298 260v410h150v-410q0 -94 47 -137.5t124 -43.5q78 0 116 40t38 127z" />
    <glyph glyph-name="ubreve" unicode="&#x16d;" horiz-adv-x="589" 
d="M286 641q24 0 46 14t22 43h55q0 -55 -37.5 -97t-85.5 -42q-55 0 -89.5 41t-34.5 98h55q0 -29 21 -43t48 -14zM377 86q-18 -43 -55.5 -70t-91.5 -27q-72 0 -117 43t-45 118v300h141v-276q0 -61 20 -88t49 -27q43 0 71 40t28 83v268h140v-450h-140v86z" />
    <glyph glyph-name="Uring" unicode="&#x16e;" horiz-adv-x="722" 
d="M399 710q-46 0 -72.5 19.5t-26.5 55.5q0 35 26.5 55t72.5 20t72.5 -20t26.5 -55q0 -36 -26.5 -55.5t-72.5 -19.5zM399 753q19 0 31.5 8t12.5 24t-12.5 24t-31.5 8q-42 0 -42 -32t42 -32zM563 236v424h71v-425q0 -120 -68.5 -182.5t-179.5 -62.5q-298 0 -298 260v410h150
v-410q0 -94 47 -137.5t124 -43.5q78 0 116 40t38 127z" />
    <glyph glyph-name="uring" unicode="&#x16f;" horiz-adv-x="589" 
d="M285 542q-50 0 -78 21.5t-28 60.5t28 61t78 22t78 -22t28 -61t-28 -60.5t-78 -21.5zM285 589q19 0 32.5 9t13.5 26t-13.5 26t-32.5 9t-32.5 -9t-13.5 -26t13.5 -26t32.5 -9zM377 86q-18 -43 -55.5 -70t-91.5 -27q-72 0 -117 43t-45 118v300h141v-276q0 -61 20 -88t49 -27
q43 0 71 40t28 83v268h140v-450h-140v86z" />
    <glyph glyph-name="Uhungarumlaut" unicode="&#x170;" horiz-adv-x="722" 
d="M477 830h111l-115 -120h-27zM337 830h111l-115 -120h-27zM563 236v424h71v-425q0 -120 -68.5 -182.5t-179.5 -62.5q-298 0 -298 260v410h150v-410q0 -94 47 -137.5t124 -43.5q78 0 116 40t38 127z" />
    <glyph glyph-name="uhungarumlaut" unicode="&#x171;" horiz-adv-x="589" 
d="M368 698h121l-119 -150h-37zM228 698h121l-119 -150h-37zM377 86q-18 -43 -55.5 -70t-91.5 -27q-72 0 -117 43t-45 118v300h141v-276q0 -61 20 -88t49 -27q43 0 71 40t28 83v268h140v-450h-140v86z" />
    <glyph glyph-name="Uogonek" unicode="&#x172;" horiz-adv-x="722" 
d="M350 -208q-84 0 -84 66q0 7 1 13.5t2.5 12t5.5 12.5t6 12t8.5 12.5t9.5 12t11.5 13.5t12.5 13.5t14.5 15.5t15.5 16q-265 15 -265 259v410h150v-410q0 -94 47 -137.5t124 -43.5q78 0 116 40t38 127v424h71v-425q0 -114 -63 -177t-166 -68q-38 -46 -51.5 -71.5
t-13.5 -49.5q0 -32 27 -32q17 0 27.5 13.5t12.5 33.5h46q-1 -44 -28.5 -68t-74.5 -24z" />
    <glyph glyph-name="uogonek" unicode="&#x173;" horiz-adv-x="589" 
d="M377 0v86q-18 -43 -55.5 -70t-91.5 -27q-72 0 -117 43t-45 118v300h141v-276q0 -61 20 -88t49 -27q43 0 71 40t28 83v268h140v-450h-89q-43 -51 -58 -78.5t-15 -52.5q0 -32 27 -32q17 0 27.5 13.5t12.5 33.5h46q-1 -44 -28.5 -68t-74.5 -24q-84 0 -84 66q0 9 2 17.5
t4.5 15.5t8.5 16.5t10 15.5t14.5 17.5t16 17t19.5 20.5t21 22z" />
    <glyph glyph-name="Wcircumflex" unicode="&#x174;" horiz-adv-x="1055" 
d="M577 759l-100 -49h-37l99 120h76l99 -120h-37zM340 -5h-44l-269 665h156l179 -446l179 446h71l187 -441l162 441h67l-248 -665h-44l-202 482z" />
    <glyph glyph-name="wcircumflex" unicode="&#x175;" horiz-adv-x="808" 
d="M432 617l-100 -69h-37l99 150h76l99 -150h-37zM223 -5l-205 455h150l118 -291l120 291h65l148 -286l103 286h68l-177 -455h-53l-153 302l-132 -302h-52z" />
    <glyph glyph-name="Ycircumflex" unicode="&#x176;" horiz-adv-x="688" 
d="M374 759l-100 -49h-37l99 120h76l99 -120h-37zM432 0h-151v290l-258 370h172l202 -297l192 297h76l-233 -350v-310z" />
    <glyph glyph-name="ycircumflex" unicode="&#x177;" horiz-adv-x="520" 
d="M301 617l-100 -69h-37l99 150h76l99 -150h-37zM50 -250v107q88 1 124.5 15.5t58.5 71.5l21 54l-236 452h149l149 -298l118 298h68l-209 -499q-51 -123 -99.5 -162t-143.5 -39z" />
    <glyph glyph-name="Ydieresis" unicode="&#x178;" horiz-adv-x="688" 
d="M335 837v-116h-110v116h110zM520 837v-116h-110v116h110zM432 0h-151v290l-258 370h172l202 -297l192 297h76l-233 -350v-310z" />
    <glyph glyph-name="Zacute" unicode="&#x179;" horiz-adv-x="640" 
d="M349 830h155l-149 -120h-67zM54 0v40l341 565h-320v55h493v-42l-339 -563h357v-55h-532z" />
    <glyph glyph-name="zacute" unicode="&#x17a;" horiz-adv-x="478" 
d="M275 698h155l-149 -150h-67zM36 0v46l244 353h-228v51h383v-46l-244 -353h251v-51h-406z" />
    <glyph glyph-name="Zdotaccent" unicode="&#x17b;" horiz-adv-x="640" 
d="M393 721h-140v136h140v-136zM54 0v40l341 565h-320v55h493v-42l-339 -563h357v-55h-532z" />
    <glyph glyph-name="zdotaccent" unicode="&#x17c;" horiz-adv-x="478" 
d="M316 698v-136h-140v136h140zM36 0v46l244 353h-228v51h383v-46l-244 -353h251v-51h-406z" />
    <glyph glyph-name="Zcaron" unicode="&#x17d;" horiz-adv-x="640" 
d="M322 781l100 49h37l-99 -120h-76l-99 120h37zM54 0v40l341 565h-320v55h493v-42l-339 -563h357v-55h-532z" />
    <glyph glyph-name="zcaron" unicode="&#x17e;" horiz-adv-x="478" 
d="M248 629l100 69h37l-99 -150h-76l-99 150h37zM36 0v46l244 353h-228v51h383v-46l-244 -353h251v-51h-406z" />
    <glyph glyph-name="longs" unicode="&#x17f;" horiz-adv-x="401" 
d="M243 0h-140v399h-91v51h91v64q0 117 50.5 174t139.5 57q64 0 103.5 -39.5t41.5 -97.5h-34q-14 94 -111 94q-52 0 -82 -31t-30 -77q0 -98 62 -146v-448z" />
    <glyph glyph-name="Schwa" unicode="&#x18f;" horiz-adv-x="721" 
d="M352 -10q-155 0 -228 86t-73 263h462q-1 145 -48.5 208t-140.5 63q-80 0 -133 -43t-65 -115h-50q14 95 88.5 156.5t179.5 61.5q160 0 243 -92t83 -252q0 -146 -91 -241t-227 -95zM352 47q79 1 116.5 52t43.5 180h-304q0 -113 39.5 -172.5t104.5 -59.5z" />
    <glyph glyph-name="florin" unicode="&#x192;" horiz-adv-x="529" 
 />
    <glyph glyph-name="Aringacute" unicode="&#x1fa;" horiz-adv-x="677" 
d="M364 1020h155l-149 -120h-67zM327 710q-46 0 -72.5 19.5t-26.5 55.5q0 35 26.5 55t72.5 20t72.5 -20t26.5 -55q0 -36 -26.5 -55.5t-72.5 -19.5zM327 753q19 0 31.5 8t12.5 24t-12.5 24t-31.5 8q-42 0 -42 -32t42 -32zM394 226l-109 245l-101 -245h210zM494 0l-74 166
h-261l-69 -166h-72l288 665h44l309 -665h-165z" />
    <glyph glyph-name="aringacute" unicode="&#x1fb;" horiz-adv-x="523" 
d="M310 886h155l-149 -150h-67zM280 542q-50 0 -78 21.5t-28 60.5t28 61t78 22t78 -22t28 -61t-28 -60.5t-78 -21.5zM280 589q19 0 32.5 9t13.5 26t-13.5 26t-32.5 9t-32.5 -9t-13.5 -26t13.5 -26t32.5 -9zM243 49q28 0 50 21t22 46v87l-47 -8q-45 -9 -67 -28t-22 -57
q0 -29 17 -45t47 -16zM315 0v48q-41 -58 -134 -58q-60 0 -96 27.5t-36 81.5q0 61 43 92.5t127 45.5l96 16v51q0 45 -28.5 68t-68.5 23q-44 0 -72 -23t-32 -66h-34q4 76 52 115t132 39q94 0 142.5 -49.5t48.5 -132.5v-278h-140z" />
    <glyph glyph-name="AEacute" unicode="&#x1fc;" horiz-adv-x="952" 
d="M556 830h155l-149 -120h-67zM444 226v333l-216 -333h216zM444 0v166h-255l-108 -166h-72l428 660h435v-55h-277v-247h257v-55h-257v-248h298v-55h-449z" />
    <glyph glyph-name="aeacute" unicode="&#x1fd;" horiz-adv-x="822" 
d="M458 698h155l-149 -150h-67zM560 409q-76 0 -87 -135h170q0 135 -83 135zM774 149q-4 -66 -58.5 -113t-142.5 -47q-140 0 -206 90q-17 -35 -64 -62.5t-113 -27.5q-55 0 -93 27t-38 83q0 61 42.5 91.5t127.5 46.5l96 16v51q0 45 -28.5 68t-68.5 23q-44 0 -72 -23t-32 -66
h-34q4 76 52 115t132 39q90 0 141 -48q62 48 144 48q107 0 164.5 -64t57.5 -173h-309q4 -164 132 -164q45 0 82.5 21.5t47.5 68.5h40zM251 49q70 0 95 66q-19 44 -20 88l-48 -8q-45 -10 -67 -29t-22 -56q0 -29 18 -45t44 -16z" />
    <glyph glyph-name="Oslashacute" unicode="&#x1fe;" horiz-adv-x="772" 
d="M381 830h155l-149 -120h-67zM386 -10q-126 0 -215 68l-53 -58h-67l84 92q-84 92 -84 231q0 144 91.5 245.5t243.5 101.5q124 0 212 -72l56 62h67l-88 -96q88 -99 88 -241q0 -143 -90.5 -238t-244.5 -95zM208 323q0 -77 13 -136l308 336q-45 92 -143 92q-83 0 -130.5 -70
t-47.5 -222zM386 45q85 0 131.5 62t46.5 216q0 85 -16 147l-308 -337q41 -88 146 -88z" />
    <glyph glyph-name="oslashacute" unicode="&#x1ff;" horiz-adv-x="588" 
d="M313 698h155l-149 -150h-67zM294 -11q-95 0 -158 40l-28 -29h-68l58 60q-57 60 -57 157q0 102 69 172.5t184 70.5q88 0 151 -38l27 28h70l-58 -60q63 -63 63 -166q0 -101 -68.5 -168t-184.5 -67zM187 225q0 -42 4 -67l188 195q-25 48 -85 48q-107 0 -107 -176zM294 49
q107 0 107 175q0 41 -5 74l-190 -196q25 -53 88 -53z" />
    <glyph glyph-name="Scommaaccent" unicode="&#x218;" horiz-adv-x="600" 
d="M325 613q-54 0 -84.5 -26t-30.5 -71q0 -35 26.5 -61.5t89.5 -51.5q125 -49 172.5 -97t47.5 -124q0 -87 -69 -139.5t-176 -52.5q-104 0 -170.5 54t-72.5 152h50q23 -149 178 -149q52 0 87.5 24t35.5 69q0 19 -7 33.5t-14.5 24t-31.5 22.5t-38 19t-54 23q-97 40 -139 85.5
t-42 123.5q0 85 65 142t171 57q96 0 150.5 -48t66.5 -133h-50q-11 63 -54 93.5t-107 30.5zM303 -149q0 29 -63 29v70q59 0 89.5 -21t30.5 -60q0 -89 -143 -89v34q49 1 67.5 9.5t18.5 27.5z" />
    <glyph glyph-name="scommaaccent" unicode="&#x219;" horiz-adv-x="459" 
d="M251 413q-77 0 -77 -57q0 -20 13.5 -34.5t27 -20.5t41.5 -15q39 -13 59 -21.5t48.5 -26t41.5 -43.5t13 -61q0 -70 -55.5 -107t-141.5 -37q-81 0 -130 40t-55 111h39q19 -102 140 -102q79 0 79 54q0 19 -13 33t-25.5 19t-40.5 14q-2 1 -3 1t-3 1t-3 1q-33 11 -55 20.5
t-46.5 27t-37 43.5t-12.5 61q0 65 46.5 105.5t129.5 40.5q148 0 170 -138h-39q-11 43 -40.5 67t-70.5 24zM245 -149q0 29 -63 29v70q59 0 89.5 -21t30.5 -60q0 -89 -143 -89v34q49 1 67.5 9.5t18.5 27.5z" />
    <glyph glyph-name="Tcommaaccent" unicode="&#x21a;" horiz-adv-x="673" 
d="M646 605h-235v-605h-151v605h-233v55h619v-55zM345 -149q0 29 -63 29v70q59 0 89.5 -21t30.5 -60q0 -89 -143 -89v34q49 1 67.5 9.5t18.5 27.5z" />
    <glyph glyph-name="tcommaaccent" unicode="&#x21b;" horiz-adv-x="442" 
d="M403 143q-4 -81 -37.5 -117.5t-100.5 -36.5q-75 0 -116 42t-41 125v243h-90v51h90q32 18 63 71t45 108h32v-179h140v-51h-140v-263q0 -81 55 -81q50 0 59 88h41zM276 -149q0 29 -63 29v70q59 0 89.5 -21t30.5 -60q0 -89 -143 -89v34q49 1 67.5 9.5t18.5 27.5z" />
    <glyph glyph-name="dotlessj" unicode="&#x237;" horiz-adv-x="296" 
d="M214 450v-407q0 -23 1.5 -67.5t1.5 -58.5q0 -78 -47.5 -122.5t-134.5 -44.5q-27 0 -41 3v46q10 -2 20 -2q63 0 63 101q0 12 -1.5 64.5t-1.5 83.5v404h140z" />
    <glyph glyph-name="schwa" unicode="&#x259;" horiz-adv-x="536" 
d="M261 -11q-106 0 -163 64t-57 173h308q-2 88 -39 126t-94 38q-45 0 -82.5 -21.5t-47.5 -68.5h-39q4 66 58.5 113t142.5 47q111 0 179 -61.5t68 -171.5q0 -100 -66 -169t-168 -69zM259 40q79 0 88 135h-169q0 -68 21.5 -101.5t59.5 -33.5z" />
    <glyph glyph-name="circumflex" unicode="&#x2c6;" horiz-adv-x="500" 
d="M250 617l-100 -69h-37l99 150h76l99 -150h-37z" />
    <glyph glyph-name="caron" unicode="&#x2c7;" horiz-adv-x="500" 
d="M250 629l100 69h37l-99 -150h-76l-99 150h37z" />
    <glyph glyph-name="breve" unicode="&#x2d8;" horiz-adv-x="500" 
d="M251 641q24 0 46 14t22 43h55q0 -55 -37.5 -97t-85.5 -42q-55 0 -89.5 41t-34.5 98h55q0 -29 21 -43t48 -14z" />
    <glyph glyph-name="dotaccent" unicode="&#x2d9;" horiz-adv-x="500" 
d="M320 698v-136h-140v136h140z" />
    <glyph glyph-name="ring" unicode="&#x2da;" horiz-adv-x="500" 
d="M250 542q-50 0 -78 21.5t-28 60.5t28 61t78 22t78 -22t28 -61t-28 -60.5t-78 -21.5zM250 589q19 0 32.5 9t13.5 26t-13.5 26t-32.5 9t-32.5 -9t-13.5 -26t13.5 -26t32.5 -9z" />
    <glyph glyph-name="ogonek" unicode="&#x2db;" horiz-adv-x="501" 
d="M241 -208q-84 0 -84 66q0 9 2 17.5t4.5 15.5t8.5 16.5t10 15.5t14.5 17.5t16 17t19.5 20.5t21 22h51q-43 -51 -58 -78.5t-15 -52.5q0 -32 27 -32q17 0 27.5 13.5t12.5 33.5h46q-1 -44 -28.5 -68t-74.5 -24z" />
    <glyph glyph-name="tilde" unicode="&#x2dc;" horiz-adv-x="501" 
d="M297 559q-20 0 -35.5 9t-23 20.5t-17 20.5t-18.5 9q-31 0 -31 -59h-45q0 139 78 139q23 0 40.5 -15t29 -29.5t22.5 -14.5q32 0 32 59h45q0 -139 -77 -139z" />
    <glyph glyph-name="hungarumlaut" unicode="&#x2dd;" horiz-adv-x="500" 
d="M277 698h121l-119 -150h-37zM137 698h121l-119 -150h-37z" />
    <glyph glyph-name="pi" unicode="&#x3c0;" horiz-adv-x="577" 
d="M456 -11q-49 0 -78 31.5t-29 117.5v181h-85l-23 -140q-31 -190 -182 -190v117q108 0 125 103l19 110h-25q-50 0 -68 -12t-43 -58h-49q9 39 14.5 59t16 48t21.5 41.5t27.5 27.5t39 19.5t52.5 5.5h350v-131h-128v-130q0 -51 12 -67.5t36 -16.5q47 0 47 65h56
q-3 -97 -28 -139t-78 -42z" />
    <glyph glyph-name="Wgrave" unicode="&#x1e80;" horiz-adv-x="1055" 
d="M551 830l61 -120h-67l-149 120h155zM340 -5h-44l-269 665h156l179 -446l179 446h71l187 -441l162 441h67l-248 -665h-44l-202 482z" />
    <glyph glyph-name="wgrave" unicode="&#x1e81;" horiz-adv-x="808" 
d="M407 698l61 -150h-67l-149 150h155zM223 -5l-205 455h150l118 -291l120 291h65l148 -286l103 286h68l-177 -455h-53l-153 302l-132 -302h-52z" />
    <glyph glyph-name="Wacute" unicode="&#x1e82;" horiz-adv-x="1055" 
d="M604 830h155l-149 -120h-67zM340 -5h-44l-269 665h156l179 -446l179 446h71l187 -441l162 441h67l-248 -665h-44l-202 482z" />
    <glyph glyph-name="wacute" unicode="&#x1e83;" horiz-adv-x="808" 
d="M461 698h155l-149 -150h-67zM223 -5l-205 455h150l118 -291l120 291h65l148 -286l103 286h68l-177 -455h-53l-153 302l-132 -302h-52z" />
    <glyph glyph-name="Wdieresis" unicode="&#x1e84;" horiz-adv-x="1055" 
d="M538 837v-116h-110v116h110zM723 837v-116h-110v116h110zM340 -5h-44l-269 665h156l179 -446l179 446h71l187 -441l162 441h67l-248 -665h-44l-202 482z" />
    <glyph glyph-name="wdieresis" unicode="&#x1e85;" horiz-adv-x="808" 
d="M394 688v-116h-110v116h110zM579 688v-116h-110v116h110zM223 -5l-205 455h150l118 -291l120 291h65l148 -286l103 286h68l-177 -455h-53l-153 302l-132 -302h-52z" />
    <glyph glyph-name="Ygrave" unicode="&#x1ef2;" horiz-adv-x="688" 
d="M348 830l61 -120h-67l-149 120h155zM432 0h-151v290l-258 370h172l202 -297l192 297h76l-233 -350v-310z" />
    <glyph glyph-name="ygrave" unicode="&#x1ef3;" horiz-adv-x="520" 
d="M276 698l61 -150h-67l-149 150h155zM50 -250v107q88 1 124.5 15.5t58.5 71.5l21 54l-236 452h149l149 -298l118 298h68l-209 -499q-51 -123 -99.5 -162t-143.5 -39z" />
    <glyph glyph-name="thinspace" unicode="&#x2009;" horiz-adv-x="500" 
 />
    <glyph glyph-name="endash" unicode="&#x2013;" horiz-adv-x="610" 
d="M555 190h-500v73h500v-73z" />
    <glyph glyph-name="emdash" unicode="&#x2014;" horiz-adv-x="1000" 
d="M975 190h-950v73h950v-73z" />
    <glyph glyph-name="quoteleft" unicode="&#x2018;" horiz-adv-x="275" 
d="M131 627q0 -24 18.5 -33t68.5 -9v-120q-86 0 -128.5 36t-42.5 98q0 59 42 97.5t139 38.5v-60q-97 0 -97 -48z" />
    <glyph glyph-name="quoteright" unicode="&#x2019;" horiz-adv-x="275" 
d="M144 573q0 24 -18.5 33t-68.5 9v120q86 0 128.5 -36t42.5 -98q0 -59 -42 -97.5t-139 -38.5v60q97 0 97 48z" />
    <glyph glyph-name="quotesinglbase" unicode="&#x201a;" horiz-adv-x="275" 
d="M144 -41q0 24 -18.5 33t-68.5 9v120q86 0 128.5 -36t42.5 -98q0 -59 -42 -97.5t-139 -38.5v60q97 0 97 48z" />
    <glyph glyph-name="quotedblleft" unicode="&#x201c;" horiz-adv-x="515" 
d="M371 627q0 -24 18.5 -33t68.5 -9v-120q-86 0 -128.5 36t-42.5 98q0 59 42 97.5t139 38.5v-60q-97 0 -97 -48zM131 627q0 -24 18.5 -33t68.5 -9v-120q-86 0 -128.5 36t-42.5 98q0 59 42 97.5t139 38.5v-60q-97 0 -97 -48z" />
    <glyph glyph-name="quotedblright" unicode="&#x201d;" horiz-adv-x="515" 
d="M384 573q0 24 -18.5 33t-68.5 9v120q86 0 128.5 -36t42.5 -98q0 -59 -42 -97.5t-139 -38.5v60q97 0 97 48zM144 573q0 24 -18.5 33t-68.5 9v120q86 0 128.5 -36t42.5 -98q0 -59 -42 -97.5t-139 -38.5v60q97 0 97 48z" />
    <glyph glyph-name="quotedblbase" unicode="&#x201e;" horiz-adv-x="515" 
d="M384 -41q0 24 -18.5 33t-68.5 9v120q86 0 128.5 -36t42.5 -98q0 -59 -42 -97.5t-139 -38.5v60q97 0 97 48zM144 -41q0 24 -18.5 33t-68.5 9v120q86 0 128.5 -36t42.5 -98q0 -59 -42 -97.5t-139 -38.5v60q97 0 97 48z" />
    <glyph glyph-name="dagger" unicode="&#x2020;" horiz-adv-x="391" 
d="M341 496h-116v-276h-59v276h-116v51h116v113h59v-113h116v-51z" />
    <glyph glyph-name="daggerdbl" unicode="&#x2021;" horiz-adv-x="391" 
d="M341 333h-116v-113h-59v113h-116v51h116v112h-116v51h116v113h59v-113h116v-51h-116v-112h116v-51z" />
    <glyph glyph-name="bullet" unicode="&#x2022;" 
d="M100 261q0 76 48 130.5t127 54.5q80 0 127.5 -51t47.5 -125q0 -77 -47.5 -131t-127.5 -54q-79 0 -127 51t-48 125z" />
    <glyph glyph-name="ellipsis" unicode="&#x2026;" horiz-adv-x="714" 
d="M511 0v132h132v-132h-132zM291 0v132h132v-132h-132zM71 0v132h132v-132h-132z" />
    <glyph glyph-name="perthousand" unicode="&#x2030;" horiz-adv-x="1265" 
d="M204 228q-75 0 -119.5 63.5t-44.5 158.5q0 96 44.5 158.5t119.5 62.5t119.5 -62.5t44.5 -158.5q0 -95 -44.5 -158.5t-119.5 -63.5zM349 0h-77l287 660h77zM204 629q-55 0 -55 -179q0 -180 55 -180q56 0 56 180q0 179 -56 179zM1051 -7q-75 0 -119.5 63.5t-44.5 158.5
q0 96 44.5 158.5t119.5 62.5t119.5 -62.5t44.5 -158.5q0 -95 -44.5 -158.5t-119.5 -63.5zM694 -7q-75 0 -119.5 63.5t-44.5 158.5q0 96 44.5 158.5t119.5 62.5t119.5 -62.5t44.5 -158.5q0 -95 -44.5 -158.5t-119.5 -63.5zM1051 394q-55 0 -55 -179q0 -180 55 -180
q56 0 56 180q0 179 -56 179zM694 394q-55 0 -55 -179q0 -180 55 -180q56 0 56 180q0 179 -56 179z" />
    <glyph glyph-name="guilsinglleft" unicode="&#x2039;" horiz-adv-x="350" 
d="M172 223l139 -202h-71l-201 188v28l201 188h71z" />
    <glyph glyph-name="guilsinglright" unicode="&#x203a;" horiz-adv-x="350" 
d="M178 223l-139 202h71l201 -188v-28l-201 -188h-71z" />
    <glyph glyph-name="fraction" unicode="&#x2044;" horiz-adv-x="132" 
d="M-39 0h-77l287 660h77z" />
    <glyph glyph-name="zerosuperior" unicode="&#x2070;" horiz-adv-x="348" 
d="M174 303q-75 0 -119.5 63.5t-44.5 158.5q0 96 44.5 158.5t119.5 62.5t119.5 -62.5t44.5 -158.5q0 -95 -44.5 -158.5t-119.5 -63.5zM174 704q-55 0 -55 -179q0 -180 55 -180q56 0 56 180q0 179 -56 179z" />
    <glyph glyph-name="foursuperior" unicode="&#x2074;" horiz-adv-x="357" 
d="M338 406h-58v-96h-101v96h-163v34q50 76 74.5 133t28 85.5t3.5 80.5h111q0 -54 -24 -96.5t-108 -149.5q-23 -30 -36 -46h114v65q20 16 33.5 47t13.5 60h54v-172h58v-41z" />
    <glyph glyph-name="fivesuperior" unicode="&#x2075;" horiz-adv-x="357" 
d="M172 303q-131 0 -138 123h45q3 -33 24 -52t51 -19q66 0 66 88q0 83 -64 83q-34 0 -64 -35h-36v248h249v-100h-206v-93q34 27 89 27q59 0 100 -36.5t41 -90.5q0 -65 -41.5 -104t-115.5 -39z" />
    <glyph glyph-name="sixsuperior" unicode="&#x2076;" horiz-adv-x="363" 
d="M347 440q0 -60 -45 -98.5t-116 -38.5q-77 0 -121 55.5t-44 152.5q0 105 49.5 170t132.5 65q53 0 88 -29t40 -89h-45q-8 77 -68 77q-27 0 -44 -11.5t-30 -50.5t-14 -110q32 39 87 39q54 0 92 -36.5t38 -95.5zM186 343q56 0 56 95q0 43 -13.5 65.5t-37.5 22.5
q-41 0 -61 -41q2 -81 14.5 -111.5t41.5 -30.5z" />
    <glyph glyph-name="sevensuperior" unicode="&#x2077;" horiz-adv-x="357" 
d="M202 310h-115q0 66 21.5 112.5t102.5 169.5q20 30 31 47h-195v100h279v-39q-62 -114 -88 -177.5t-31 -96.5t-5 -98v-18z" />
    <glyph glyph-name="eightsuperior" unicode="&#x2078;" horiz-adv-x="363" 
d="M181 303q-79 0 -123 34t-44 85q0 36 21.5 67t61.5 48q-65 29 -65 95q0 49 40 81.5t109 32.5q71 0 110.5 -30.5t39.5 -78.5q0 -67 -66 -99q40 -15 62 -44.5t22 -65.5q0 -52 -45 -88.5t-123 -36.5zM141 632q0 -41 9.5 -57.5t30.5 -16.5q42 0 42 79q0 67 -42 67
q-40 0 -40 -72zM122 422q0 -42 14.5 -58.5t44.5 -16.5t45 18.5t15 62.5q0 87 -60 87q-59 0 -59 -93z" />
    <glyph glyph-name="ninesuperior" unicode="&#x2079;" horiz-adv-x="364" 
d="M172 523q40 0 61 41q-2 81 -14.5 111.5t-41.5 30.5q-56 0 -56 -95q0 -43 13.5 -65.5t37.5 -22.5zM160 303q-53 0 -88 29t-40 89h45q8 -77 68 -77q27 0 44 11.5t30 50.5t14 110q-31 -39 -87 -39q-54 0 -92 36.5t-38 95.5q0 60 45 98.5t116 38.5q77 0 121 -55.5t44 -152.5
q0 -105 -49.5 -170t-132.5 -65z" />
    <glyph glyph-name="plussuperior" unicode="&#x207a;" horiz-adv-x="349" 
d="M301 431h-96v-97h-60v97h-97v59h97v98h60v-98h96v-59z" />
    <glyph glyph-name="minussuperior" unicode="&#x207b;" horiz-adv-x="349" 
d="M301 431h-253v59h253v-59z" />
    <glyph glyph-name="equalsuperior" unicode="&#x207c;" horiz-adv-x="349" 
d="M301 489h-253v60h253v-60zM301 372h-253v60h253v-60z" />
    <glyph glyph-name="parenleftsuperior" unicode="&#x207d;" horiz-adv-x="224" 
d="M202 736q-51 -17 -80.5 -84.5t-29.5 -162.5t29.5 -162t80.5 -84l-8 -34q-79 19 -125.5 94t-46.5 186t46.5 186t125.5 95z" />
    <glyph glyph-name="parenrightsuperior" unicode="&#x207e;" horiz-adv-x="224" 
d="M22 243q51 17 80.5 84.5t29.5 162.5t-29.5 162t-80.5 84l8 34q79 -19 125.5 -94t46.5 -186t-46.5 -186t-125.5 -95z" />
    <glyph glyph-name="n.superior" unicode="&#x207f;" horiz-adv-x="381" 
d="M43 586h101v-52q10 27 35 43t59 16q47 0 74.5 -27t27.5 -78v-178h-102v164q0 69 -40 69q-21 0 -37.5 -25t-16.5 -50v-158h-101v276z" />
    <glyph glyph-name="zeroinferior" unicode="&#x2080;" horiz-adv-x="348" 
d="M174 -247q-75 0 -119.5 63.5t-44.5 158.5q0 96 44.5 158.5t119.5 62.5t119.5 -62.5t44.5 -158.5q0 -95 -44.5 -158.5t-119.5 -63.5zM174 154q-55 0 -55 -179q0 -180 55 -180q56 0 56 180q0 179 -56 179z" />
    <glyph glyph-name="oneinferior" unicode="&#x2081;" horiz-adv-x="355" 
d="M159 -240v341l-88 -74l-26 39l164 123h54v-429h-104z" />
    <glyph glyph-name="twoinferior" unicode="&#x2082;" horiz-adv-x="362" 
d="M148 143q-71 0 -78 -90h-45q9 142 151 142q65 0 102.5 -32t37.5 -88q0 -23 -4.5 -39.5t-20.5 -37.5t-28.5 -33.5t-48.5 -46.5t-60 -58h170v-100h-290v39l74 80q99 105 99 201q0 63 -59 63z" />
    <glyph glyph-name="threeinferior" unicode="&#x2083;" horiz-adv-x="364" 
d="M169 -247q-141 0 -148 133h45q4 -38 28.5 -59.5t62.5 -21.5q69 0 69 73q0 50 -14 65.5t-40 15.5h-46v43h46q42 0 42 70q0 34 -16 52.5t-42 18.5q-32 0 -52.5 -19t-23.5 -52h-45q7 123 148 123q64 0 102 -30.5t38 -77.5q0 -70 -57 -105q68 -34 68 -104q0 -54 -42 -89.5
t-123 -35.5z" />
    <glyph glyph-name="fourinferior" unicode="&#x2084;" horiz-adv-x="357" 
d="M338 -144h-58v-96h-101v96h-163v34q50 76 74.5 133t28 85.5t3.5 80.5h111q0 -54 -24 -96.5t-108 -149.5q-23 -30 -36 -46h114v65q20 16 33.5 47t13.5 60h54v-172h58v-41z" />
    <glyph glyph-name="fiveinferior" unicode="&#x2085;" horiz-adv-x="357" 
d="M172 -247q-131 0 -138 123h45q3 -33 24 -52t51 -19q66 0 66 88q0 83 -64 83q-34 0 -64 -35h-36v248h249v-100h-206v-93q34 27 89 27q59 0 100 -36.5t41 -90.5q0 -65 -41.5 -104t-115.5 -39z" />
    <glyph glyph-name="sixinferior" unicode="&#x2086;" horiz-adv-x="363" 
d="M347 -110q0 -60 -45 -98.5t-116 -38.5q-77 0 -121 55.5t-44 152.5q0 105 49.5 170t132.5 65q53 0 88 -29t40 -89h-45q-8 77 -68 77q-27 0 -44 -11.5t-30 -50.5t-14 -110q32 39 87 39q54 0 92 -36.5t38 -95.5zM186 -207q56 0 56 95q0 43 -13.5 65.5t-37.5 22.5
q-41 0 -61 -41q2 -81 14.5 -111.5t41.5 -30.5z" />
    <glyph glyph-name="seveninferior" unicode="&#x2087;" horiz-adv-x="357" 
d="M202 -240h-115q0 66 21.5 112.5t102.5 169.5q20 30 31 47h-195v100h279v-39q-62 -114 -88 -177.5t-31 -96.5t-5 -98v-18z" />
    <glyph glyph-name="eightinferior" unicode="&#x2088;" horiz-adv-x="363" 
d="M181 -247q-79 0 -123 34t-44 85q0 36 21.5 67t61.5 48q-65 29 -65 95q0 49 40 81.5t109 32.5q71 0 110.5 -30.5t39.5 -78.5q0 -67 -66 -99q40 -15 62 -44.5t22 -65.5q0 -52 -45 -88.5t-123 -36.5zM141 82q0 -41 9.5 -57.5t30.5 -16.5q42 0 42 79q0 67 -42 67
q-40 0 -40 -72zM122 -128q0 -42 14.5 -58.5t44.5 -16.5t45 18.5t15 62.5q0 87 -60 87q-59 0 -59 -93z" />
    <glyph glyph-name="nineinferior" unicode="&#x2089;" horiz-adv-x="364" 
d="M172 -27q40 0 61 41q-2 81 -14.5 111.5t-41.5 30.5q-56 0 -56 -95q0 -43 13.5 -65.5t37.5 -22.5zM160 -247q-53 0 -88 29t-40 89h45q8 -77 68 -77q27 0 44 11.5t30 50.5t14 110q-31 -39 -87 -39q-54 0 -92 36.5t-38 95.5q0 60 45 98.5t116 38.5q77 0 121 -55.5t44 -152.5
q0 -105 -49.5 -170t-132.5 -65z" />
    <glyph glyph-name="parenleftinferior" unicode="&#x208d;" horiz-adv-x="224" 
d="M202 186q-51 -17 -80.5 -84.5t-29.5 -162.5t29.5 -162t80.5 -84l-8 -34q-79 19 -125.5 94t-46.5 186t46.5 186t125.5 95z" />
    <glyph glyph-name="parenrightinferior" unicode="&#x208e;" horiz-adv-x="224" 
d="M22 -307q51 17 80.5 84.5t29.5 162.5t-29.5 162t-80.5 84l8 34q79 -19 125.5 -94t46.5 -186t-46.5 -186t-125.5 -95z" />
    <glyph glyph-name="Euro" unicode="&#x20ac;" 
d="M546 157q-6 -73 -53 -120t-128 -47q-113 0 -181 65t-89 175h-75v53h68q-1 13 -1 40q0 17 2 47h-69v53h77q23 109 92 178t171 69q81 0 128 -47t53 -120h-52q-4 50 -32.5 79.5t-78.5 29.5q-64 0 -99.5 -45t-45.5 -144h232v-53h-236q-1 -15 -1 -47q0 -27 1 -40h176v-53h-172
q11 -97 48.5 -139.5t101.5 -42.5q49 0 77.5 29.5t33.5 79.5h52z" />
    <glyph glyph-name="litre" unicode="&#x2113;" horiz-adv-x="390" 
d="M224 -10q-37 0 -64.5 13.5t-50.5 46.5t-35 96.5t-12 156.5q0 187 37 266.5t120 79.5q60 0 93.5 -37.5t33.5 -101.5q0 -84 -56 -166.5t-155 -125.5q7 -92 28.5 -130t62.5 -38q25 0 41 11t37 38l40 -39q-44 -70 -120 -70zM133 303v-17q66 32 104 95.5t38 128.5q0 80 -56 80
q-46 0 -66 -66.5t-20 -220.5z" />
    <glyph glyph-name="numero" unicode="&#x2116;" horiz-adv-x="998" 
d="M647 442q0 64 44 107.5t120 43.5q77 0 120 -39.5t43 -105.5q0 -63 -43.5 -104t-119.5 -41q-79 0 -121.5 36.5t-42.5 102.5zM752 448q0 -56 14.5 -78.5t44.5 -22.5q59 0 59 101q0 56 -14.5 78.5t-44.5 22.5q-59 0 -59 -101zM950 201h-280v50h280v-50zM448 -4l-293 350
v-346h-58v495h117l253 -306v306h58v-499h-77z" />
    <glyph glyph-name="uni2117" unicode="&#x2117;" horiz-adv-x="764" 
d="M382 13q-133 0 -225.5 87.5t-92.5 229.5t92.5 229.5t225.5 87.5t225.5 -87.5t92.5 -229.5t-92.5 -229.5t-225.5 -87.5zM382 73q107 0 174.5 69.5t67.5 187.5t-67.5 187.5t-174.5 69.5t-174.5 -69.5t-67.5 -187.5t67.5 -187.5t174.5 -69.5zM398 451h-38v-95h38q47 0 47 49
q0 46 -47 46zM398 302h-38v-156h-102v359h140q71 0 111.5 -26t40.5 -74q0 -49 -40.5 -76t-111.5 -27z" />
    <glyph glyph-name="servicemark" unicode="&#x2120;" horiz-adv-x="749" 
d="M588 373v201l-87 -204h-27l-84 189v-186h-42v287h92l73 -171l72 171h92v-287h-89zM175 625q-47 0 -47 -32q0 -15 9.5 -22t45.5 -20q53 -19 71.5 -39t18.5 -54q0 -39 -31 -63.5t-80 -24.5q-46 0 -75.5 23.5t-31.5 65.5h35q7 -51 66 -51q48 0 48 31q0 14 -9.5 21.5
t-43.5 17.5q-87 27 -87 93q0 40 29 66t77 26q87 0 99 -78h-35q-7 40 -59 40z" />
    <glyph glyph-name="trademark" unicode="&#x2122;" horiz-adv-x="779" 
d="M124 373v254h-89v33h267v-33h-88v-254h-90zM618 373v201l-87 -204h-27l-84 189v-186h-42v287h92l73 -171l72 171h92v-287h-89z" />
    <glyph glyph-name="Omega" unicode="&#x2126;" horiz-adv-x="846" 
d="M384 44v-44h-294v138h137q-139 83 -139 227q0 125 91.5 215t243.5 90t243.5 -90t91.5 -215q0 -79 -46 -142t-129 -85h173v-138h-294v44q139 117 139 321q0 124 -48.5 187t-129.5 63t-129.5 -63.5t-48.5 -188.5q0 -202 139 -319z" />
    <glyph glyph-name="estimated" unicode="&#x212e;" horiz-adv-x="749" 
d="M375 600q-68 0 -125.5 -32t-92.5 -87v-81h434v82q-35 55 -91.5 86.5t-124.5 31.5zM701 232q-31 -108 -120 -175t-206 -67q-145 0 -242.5 98t-97.5 243q0 143 98 241t242 98q143 0 241 -98t98 -241h-557v-151q35 -56 92 -88t126 -32q88 0 157 47.5t92 124.5h77z" />
    <glyph glyph-name="arrowleft" unicode="&#x2190;" horiz-adv-x="590" 
d="M161 268l157 -158h-83l-191 198v8l191 198h83l-154 -157h382v-89h-385z" />
    <glyph glyph-name="arrowup" unicode="&#x2191;" horiz-adv-x="590" 
d="M251 446l-158 -157v83l198 191h8l198 -191v-83l-157 154v-382h-89v385z" />
    <glyph glyph-name="arrowright" unicode="&#x2192;" horiz-adv-x="590" 
d="M429 268h-385v89h382l-154 157h83l191 -198v-8l-191 -198h-83z" />
    <glyph glyph-name="arrowdown" unicode="&#x2193;" horiz-adv-x="590" 
d="M251 178v385h89v-382l157 154v-83l-198 -191h-8l-198 191v83z" />
    <glyph glyph-name="arrowupleft" unicode="&#x2196;" horiz-adv-x="590" 
d="M169 391l-1 -223l-58 59l5 275l5 5l275 5l59 -58l-220 -3l270 -270l-63 -63z" />
    <glyph glyph-name="arrowupright" unicode="&#x2197;" horiz-adv-x="590" 
d="M436 391l-272 -273l-63 63l270 270l-220 3l59 58l275 -5l5 -5l5 -275l-58 -59z" />
    <glyph glyph-name="arrowdownright" unicode="&#x2198;" horiz-adv-x="590" 
d="M436 248l1 223l58 -59l-5 -275l-5 -5l-275 -5l-59 58l220 3l-270 270l63 63z" />
    <glyph glyph-name="arrowdownleft" unicode="&#x2199;" horiz-adv-x="590" 
d="M169 248l272 273l63 -63l-270 -270l220 -3l-59 -58l-275 5l-5 5l-5 275l58 59z" />
    <glyph glyph-name="partialdiff" unicode="&#x2202;" horiz-adv-x="592" 
d="M232 -10q-92 0 -141.5 49t-49.5 128q0 107 72.5 187.5t190.5 80.5q69 0 103 -47q8 51 8 108q0 126 -88 126q-62 0 -123 -59l-35 34q71 73 173 73q56 0 98 -20t66 -55t35 -76.5t11 -89.5q0 -181 -95 -310t-225 -129zM305 376q-47 0 -82.5 -68.5t-35.5 -172.5q0 -87 47 -87
t82.5 68.5t35.5 172.5q0 87 -47 87z" />
    <glyph glyph-name="Delta" unicode="&#x2206;" horiz-adv-x="638" 
d="M414 138l-148 333l-138 -333h286zM18 0v45l269 620h44l289 -619v-46h-602z" />
    <glyph glyph-name="product" unicode="&#x220f;" horiz-adv-x="772" 
d="M525 -190v795h-277v-795h-151v850h578v-850h-150z" />
    <glyph glyph-name="summation" unicode="&#x2211;" horiz-adv-x="568" 
d="M514 -190h-460v44l284 352l-272 380v74h424v-55h-257l217 -305v-45l-249 -307h313v-138z" />
    <glyph glyph-name="minus" unicode="&#x2212;" 
d="M470 190h-390v83h390v-83z" />
    <glyph glyph-name="radical" unicode="&#x221a;" 
d="M301 0h-62l-138 390h91l92 -265l118 535h48z" />
    <glyph glyph-name="infinity" unicode="&#x221e;" 
d="M364 74q-39 0 -62.5 23.5t-40.5 64.5q-40 -67 -94 -67q-43 0 -68.5 35.5t-25.5 90.5q0 58 26.5 93.5t75.5 35.5q50 0 79 -51q45 80 112 80q110 0 110 -161q0 -71 -31.5 -107.5t-80.5 -36.5zM363 125q59 0 59 88q0 93 -48 93q-26 0 -44.5 -23.5t-41.5 -70.5
q15 -42 31 -64.5t44 -22.5zM163 172q14 0 26.5 12t20 25.5t19.5 39.5q-23 54 -60 54q-20 0 -33.5 -17.5t-13.5 -48.5q0 -32 12 -48.5t29 -16.5z" />
    <glyph glyph-name="integral" unicode="&#x222b;" horiz-adv-x="450" 
d="M-60 -199v140q24 -4 54 -4q29 0 48 6.5t29 14.5t14.5 27.5t5 31.5t0.5 41v219q0 175 72.5 284t218.5 109v-140q-24 4 -54 4q-29 0 -48 -6.5t-29 -14.5t-14.5 -27.5t-5 -31.5t-0.5 -41v-214q0 -183 -71.5 -290.5t-219.5 -107.5z" />
    <glyph glyph-name="approxequal" unicode="&#x2248;" 
d="M358 252q-46 0 -98.5 33.5t-77.5 33.5q-63 0 -63 -67h-39q0 149 112 149q43 0 100 -33.5t76 -33.5q63 0 63 67h39q0 -149 -112 -149zM358 62q-46 0 -98.5 33.5t-77.5 33.5q-63 0 -63 -67h-39q0 149 112 149q43 0 100 -33.5t76 -33.5q63 0 63 67h39q0 -149 -112 -149z" />
    <glyph glyph-name="notequal" unicode="&#x2260;" 
d="M470 100h-262l-75 -100h-53l75 100h-75v83h137l73 97h-210v83h272l65 87h53l-65 -87h65v-83h-127l-73 -97h200v-83z" />
    <glyph glyph-name="lessequal" unicode="&#x2264;" 
d="M470 86l-390 138v62l390 149v-48l-293 -109l293 -101v-91zM470 0h-390v73h390v-73z" />
    <glyph glyph-name="greaterequal" unicode="&#x2265;" 
d="M80 86v48l293 109l-293 101v91l390 -138v-62zM470 0h-390v73h390v-73z" />
    <glyph glyph-name="blacksquare" unicode="&#x25a0;" horiz-adv-x="562" 
d="M123 132v316h316v-316h-316z" />
    <glyph glyph-name="whitesquare" unicode="&#x25a1;" horiz-adv-x="563" 
d="M439 132h-316v316h316v-316zM369 202v176h-176v-176h176z" />
    <glyph glyph-name="blackuppointingtriangle" unicode="&#x25b2;" horiz-adv-x="804" 
d="M732 0h-660l330 660z" />
    <glyph glyph-name="whiteuppointingtriangle" unicode="&#x25b3;" horiz-adv-x="803" 
d="M732 0h-660l330 660zM617 70l-215 432l-214 -432h429z" />
    <glyph glyph-name="uni25B4" unicode="&#x25b4;" horiz-adv-x="563" 
d="M504 150h-446l223 363z" />
    <glyph glyph-name="uni25B5" unicode="&#x25b5;" horiz-adv-x="563" 
d="M281 512l223 -363h-446zM380 219l-99 161l-98 -161h197z" />
    <glyph glyph-name="blackrightpointingtriangle" unicode="&#x25b6;" horiz-adv-x="803" 
d="M113 0v660l660 -330z" />
    <glyph glyph-name="whiterightpointingtriangle" unicode="&#x25b7;" horiz-adv-x="803" 
d="M112 0v660l660 -330zM182 116l432 214l-432 215v-429z" />
    <glyph glyph-name="uni25B8" unicode="&#x25b8;" horiz-adv-x="563" 
d="M504 290l-363 -223v446z" />
    <glyph glyph-name="uni25B9" unicode="&#x25b9;" horiz-adv-x="563" 
d="M504 290l-363 -223v446zM211 192l161 98l-161 99v-197z" />
    <glyph glyph-name="blackdownpointingtriangle" unicode="&#x25bc;" horiz-adv-x="804" 
d="M402 0l-330 660h660z" />
    <glyph glyph-name="whitedownpointingtriangle" unicode="&#x25bd;" horiz-adv-x="803" 
d="M732 660l-330 -660l-330 660h660zM617 590h-429l214 -432z" />
    <glyph glyph-name="uni25BE" unicode="&#x25be;" horiz-adv-x="563" 
d="M281 150l-223 363h446z" />
    <glyph glyph-name="uni25BF" unicode="&#x25bf;" horiz-adv-x="563" 
d="M281 149l-223 363h446zM380 442h-197l98 -161z" />
    <glyph glyph-name="blackleftpointingtriangle" unicode="&#x25c0;" horiz-adv-x="803" 
d="M690 0l-660 330l660 330v-660z" />
    <glyph glyph-name="whiteleftpointingtriangle" unicode="&#x25c1;" horiz-adv-x="803" 
d="M690 0l-660 330l660 330v-660zM620 115v429l-432 -214z" />
    <glyph glyph-name="uni25C2" unicode="&#x25c2;" horiz-adv-x="563" 
d="M422 67l-363 223l363 223v-446z" />
    <glyph glyph-name="uni25C3" unicode="&#x25c3;" horiz-adv-x="563" 
d="M58 290l363 223v-446zM351 192v197l-161 -99z" />
    <glyph glyph-name="blackdiamond" unicode="&#x25c6;" horiz-adv-x="562" 
d="M281 67l-223 223l223 223l223 -223z" />
    <glyph glyph-name="whitediamond" unicode="&#x25c7;" horiz-adv-x="563" 
d="M281 67l-223 223l223 223l223 -223zM281 166l124 124l-124 124l-124 -124z" />
    <glyph glyph-name="lozenge" unicode="&#x25ca;" horiz-adv-x="551" 
d="M301 0h-62l-138 330l149 330h62l138 -330zM293 91l87 190l-122 288l-87 -190z" />
    <glyph glyph-name="whitecircle" unicode="&#x25cb;" horiz-adv-x="563" 
d="M281 118q-71 0 -116 46.5t-45 122.5t45 123t116 47t115.5 -47t44.5 -123t-44.5 -122.5t-115.5 -46.5zM281 188q40 0 65 27.5t25 71.5t-25 71.5t-65 27.5q-41 0 -66 -27.5t-25 -71.5t25 -71.5t66 -27.5z" />
    <glyph glyph-name="blackcircle" unicode="&#x25cf;" horiz-adv-x="561" 
d="M281 118q-71 0 -116 46.5t-45 122.5t45 123t116 47t115.5 -47t44.5 -123t-44.5 -122.5t-115.5 -46.5z" />
    <glyph glyph-name="heartsuitwhite" unicode="&#x2661;" horiz-adv-x="850" 
d="M443 0h-34q-15 44 -48 85t-71 70.5t-79 65t-73.5 68t-54 79t-21.5 99.5q0 90 54.5 141t133.5 51q58 0 105 -30t71 -93q24 63 71 93t106 30q78 0 132 -51t54 -141q0 -53 -21.5 -99.5t-54 -79t-73.5 -68t-78.5 -65t-70.5 -70.5t-48 -85zM426 141q20 35 54 66.5t66.5 54.5
t62 48.5t48 59.5t18.5 75q0 59 -31 87.5t-77 28.5q-97 0 -129 -144h-24q-32 144 -130 144q-45 0 -76 -28.5t-31 -87.5q0 -41 18.5 -75t48 -59.5t62 -48.5t66.5 -54.5t54 -66.5z" />
    <glyph glyph-name="heart" unicode="&#x2665;" horiz-adv-x="850" 
d="M443 0h-34q-15 44 -48 85t-71 70.5t-79 65t-73.5 68t-54 79t-21.5 99.5q0 90 54.5 141t133.5 51q58 0 105 -30t71 -93q24 63 71 93t106 30q78 0 132 -51t54 -141q0 -53 -21.5 -99.5t-54 -79t-73.5 -68t-78.5 -65t-70.5 -70.5t-48 -85z" />
    <glyph glyph-name="uni2780" unicode="&#x2780;" horiz-adv-x="800" 
d="M66 330q0 152 94.5 246t239.5 94q144 0 239 -94t95 -246q0 -151 -95 -245t-239 -94q-145 0 -239.5 93.5t-94.5 245.5zM400 50q112 0 188.5 75.5t76.5 204.5q0 130 -76.5 206.5t-188.5 76.5t-188.5 -76.5t-76.5 -206.5t76 -205t189 -75zM358 119v341l-88 -74l-26 39
l164 123h54v-429h-104z" />
    <glyph glyph-name="uni2781" unicode="&#x2781;" horiz-adv-x="800" 
d="M66 330q0 152 94.5 246t239.5 94q144 0 239 -94t95 -246q0 -151 -95 -245t-239 -94q-145 0 -239.5 93.5t-94.5 245.5zM400 50q112 0 188.5 75.5t76.5 204.5q0 130 -76.5 206.5t-188.5 76.5t-188.5 -76.5t-76.5 -206.5t76 -205t189 -75zM371 503q-71 0 -78 -90h-45
q9 142 151 142q65 0 102.5 -32t37.5 -88q0 -23 -4.5 -39.5t-20.5 -37.5t-28.5 -33.5t-48.5 -46.5t-60 -58h170v-100h-290v39l74 80q99 105 99 201q0 63 -59 63z" />
    <glyph glyph-name="uni2782" unicode="&#x2782;" horiz-adv-x="800" 
d="M66 330q0 152 94.5 246t239.5 94q144 0 239 -94t95 -246q0 -151 -95 -245t-239 -94q-145 0 -239.5 93.5t-94.5 245.5zM400 50q112 0 188.5 75.5t76.5 204.5q0 130 -76.5 206.5t-188.5 76.5t-188.5 -76.5t-76.5 -206.5t76 -205t189 -75zM385 113q-141 0 -148 133h45
q4 -38 28.5 -59.5t62.5 -21.5q69 0 69 73q0 50 -14 65.5t-40 15.5h-46v43h46q42 0 42 70q0 34 -16 52.5t-42 18.5q-32 0 -52.5 -19t-23.5 -52h-45q7 123 148 123q64 0 102 -30.5t38 -77.5q0 -70 -57 -105q68 -34 68 -104q0 -54 -42 -89.5t-123 -35.5z" />
    <glyph glyph-name="uni2783" unicode="&#x2783;" horiz-adv-x="800" 
d="M66 330q0 152 94.5 246t239.5 94q144 0 239 -94t95 -246q0 -151 -95 -245t-239 -94q-145 0 -239.5 93.5t-94.5 245.5zM400 50q112 0 188.5 75.5t76.5 204.5q0 130 -76.5 206.5t-188.5 76.5t-188.5 -76.5t-76.5 -206.5t76 -205t189 -75zM545 215h-58v-96h-101v96h-163v34
q50 76 74.5 133t28 85.5t3.5 80.5h111q0 -54 -24 -96.5t-108 -149.5q-23 -30 -36 -46h114v65q20 16 33.5 47t13.5 60h54v-172h58v-41z" />
    <glyph glyph-name="uni2784" unicode="&#x2784;" horiz-adv-x="800" 
d="M66 330q0 152 94.5 246t239.5 94q144 0 239 -94t95 -246q0 -151 -95 -245t-239 -94q-145 0 -239.5 93.5t-94.5 245.5zM400 50q112 0 188.5 75.5t76.5 204.5q0 130 -76.5 206.5t-188.5 76.5t-188.5 -76.5t-76.5 -206.5t76 -205t189 -75zM391 113q-131 0 -138 123h45
q3 -33 24 -52t51 -19q66 0 66 88q0 83 -64 83q-34 0 -64 -35h-36v248h249v-100h-206v-93q34 27 89 27q59 0 100 -36.5t41 -90.5q0 -65 -41.5 -104t-115.5 -39z" />
    <glyph glyph-name="uni2785" unicode="&#x2785;" horiz-adv-x="800" 
d="M66 330q0 152 94.5 246t239.5 94q144 0 239 -94t95 -246q0 -151 -95 -245t-239 -94q-145 0 -239.5 93.5t-94.5 245.5zM400 50q112 0 188.5 75.5t76.5 204.5q0 130 -76.5 206.5t-188.5 76.5t-188.5 -76.5t-76.5 -206.5t76 -205t189 -75zM556 250q0 -60 -45 -98.5
t-116 -38.5q-77 0 -121 55.5t-44 152.5q0 105 49.5 170t132.5 65q53 0 88 -29t40 -89h-45q-8 77 -68 77q-27 0 -44 -11.5t-30 -50.5t-14 -110q31 39 87 39q54 0 92 -36.5t38 -95.5zM395 153q56 0 56 95q0 43 -13.5 65.5t-37.5 22.5q-40 0 -61 -41q2 -81 14.5 -111.5
t41.5 -30.5z" />
    <glyph glyph-name="uni2786" unicode="&#x2786;" horiz-adv-x="800" 
d="M66 330q0 152 94.5 246t239.5 94q144 0 239 -94t95 -246q0 -151 -95 -245t-239 -94q-145 0 -239.5 93.5t-94.5 245.5zM400 50q112 0 188.5 75.5t76.5 204.5q0 130 -76.5 206.5t-188.5 76.5t-188.5 -76.5t-76.5 -206.5t76 -205t189 -75zM420 119h-115q0 66 21.5 112.5
t102.5 169.5q20 30 31 47h-195v100h279v-39q-62 -114 -88 -177.5t-31 -96.5t-5 -98v-18z" />
    <glyph glyph-name="uni2787" unicode="&#x2787;" horiz-adv-x="800" 
d="M66 330q0 152 94.5 246t239.5 94q144 0 239 -94t95 -246q0 -151 -95 -245t-239 -94q-145 0 -239.5 93.5t-94.5 245.5zM400 50q112 0 188.5 75.5t76.5 204.5q0 130 -76.5 206.5t-188.5 76.5t-188.5 -76.5t-76.5 -206.5t76 -205t189 -75zM399 112q-79 0 -123 34t-44 85
q0 36 21.5 67t61.5 48q-65 29 -65 95q0 49 40 81.5t109 32.5q71 0 110.5 -30.5t39.5 -78.5q0 -67 -66 -99q40 -15 62 -44.5t22 -65.5q0 -52 -45 -88.5t-123 -36.5zM359 441q0 -41 9.5 -57.5t30.5 -16.5q42 0 42 79q0 67 -42 67q-40 0 -40 -72zM340 231q0 -42 14.5 -58.5
t44.5 -16.5t45 18.5t15 62.5q0 87 -60 87q-59 0 -59 -93z" />
    <glyph glyph-name="uni2788" unicode="&#x2788;" horiz-adv-x="800" 
d="M66 330q0 152 94.5 246t239.5 94q144 0 239 -94t95 -246q0 -151 -95 -245t-239 -94q-145 0 -239.5 93.5t-94.5 245.5zM400 50q112 0 188.5 75.5t76.5 204.5q0 130 -76.5 206.5t-188.5 76.5t-188.5 -76.5t-76.5 -206.5t76 -205t189 -75zM398 333q40 0 61 41
q-2 81 -14.5 111.5t-41.5 30.5q-56 0 -56 -95q0 -43 13.5 -65.5t37.5 -22.5zM386 113q-53 0 -88 29t-40 89h45q8 -77 68 -77q27 0 44 11.5t30 50.5t14 110q-31 -39 -87 -39q-54 0 -92 36.5t-38 95.5q0 60 45 98.5t116 38.5q77 0 121 -55.5t44 -152.5q0 -105 -49.5 -170
t-132.5 -65z" />
    <glyph glyph-name="uni2789" unicode="&#x2789;" horiz-adv-x="800" 
d="M400 -9q-145 0 -239.5 93.5t-94.5 245.5t94.5 246t239.5 94q144 0 239 -94t95 -246q0 -151 -95 -245t-239 -94zM135 330q0 -130 76 -205t189 -75q112 0 188.5 75.5t76.5 204.5q0 130 -76.5 206.5t-188.5 76.5t-188.5 -76.5t-76.5 -206.5zM625 334q0 -104 -35.5 -163
t-98.5 -59t-98.5 59t-35.5 163q0 105 35.5 163t98.5 58t98.5 -58t35.5 -163zM228 119v341l-26 -20l-26 34l102 74h54v-429h-104zM466 334q0 -78 3.5 -119t8.5 -51t13 -10q9 0 14 10t8.5 51t3.5 119t-3.5 119t-8.5 50.5t-14 9.5q-8 0 -13 -9.5t-8.5 -50.5t-3.5 -119z" />
    <glyph glyph-name="uni278A" unicode="&#x278a;" horiz-adv-x="800" 
d="M66 330q0 152 94.5 246t239.5 94q144 0 239 -94t95 -246q0 -151 -95 -245t-239 -94q-145 0 -239.5 93.5t-94.5 245.5zM358 119h104v429h-54l-164 -123l26 -39l88 74v-341z" />
    <glyph glyph-name="uni278B" unicode="&#x278b;" horiz-adv-x="800" 
d="M66 330q0 152 94.5 246t239.5 94q144 0 239 -94t95 -246q0 -151 -95 -245t-239 -94q-145 0 -239.5 93.5t-94.5 245.5zM371 503q59 0 59 -63q0 -96 -99 -201l-74 -80v-39h290v100h-170q24 24 60 58t48.5 46.5t28.5 33.5t20.5 37.5t4.5 39.5q0 56 -37.5 88t-102.5 32
q-142 0 -151 -142h45q7 90 78 90z" />
    <glyph glyph-name="uni278C" unicode="&#x278c;" horiz-adv-x="800" 
d="M400 -9q-145 0 -239.5 93.5t-94.5 245.5t94.5 246t239.5 94q144 0 239 -94t95 -246q0 -151 -95 -245t-239 -94zM385 113q81 0 123 35.5t42 89.5q0 70 -68 104q57 35 57 105q0 47 -38 77.5t-102 30.5q-141 0 -148 -123h45q3 33 23.5 52t52.5 19q26 0 42 -18.5t16 -52.5
q0 -70 -41 -70h-47v-43h46q26 0 40 -15.5t14 -65.5q0 -73 -69 -73q-38 0 -62.5 21.5t-28.5 59.5h-45q7 -133 148 -133z" />
    <glyph glyph-name="uni278D" unicode="&#x278d;" horiz-adv-x="800" 
d="M66 330q0 152 94.5 246t239.5 94q144 0 239 -94t95 -246q0 -151 -95 -245t-239 -94q-145 0 -239.5 93.5t-94.5 245.5zM545 215v41h-58v172h-54q0 -29 -13.5 -60t-33.5 -47v-65h-114q114 147 132 176q36 57 36 116h-111q0 -52 -3.5 -80.5t-28 -85.5t-74.5 -133v-34h163
v-96h101v96h58z" />
    <glyph glyph-name="uni278E" unicode="&#x278e;" horiz-adv-x="800" 
d="M66 330q0 152 94.5 246t239.5 94q144 0 239 -94t95 -246q0 -151 -95 -245t-239 -94q-145 0 -239.5 93.5t-94.5 245.5zM253 236q7 -123 138 -123q74 0 115.5 39t41.5 104q0 54 -41 90.5t-100 36.5q-55 0 -89 -27v93h206v100h-249v-248h36q30 35 64 35q64 0 64 -83
q0 -88 -66 -88q-30 0 -51 19t-24 52h-45z" />
    <glyph glyph-name="uni278F" unicode="&#x278f;" horiz-adv-x="800" 
d="M66 330q0 152 94.5 246t239.5 94q144 0 239 -94t95 -246q0 -151 -95 -245t-239 -94q-145 0 -239.5 93.5t-94.5 245.5zM551 250q0 59 -38 95.5t-92 36.5q-55 0 -87 -39q1 71 14 110t30 50.5t44 11.5q60 0 68 -77h45q-5 60 -40 89t-88 29q-83 0 -132.5 -65t-49.5 -170
q0 -97 44 -152.5t121 -55.5q71 0 116 38.5t45 98.5zM390 153q-29 0 -41.5 30.5t-14.5 111.5q20 41 61 41q24 0 37.5 -22.5t13.5 -65.5q0 -95 -56 -95z" />
    <glyph glyph-name="uni2790" unicode="&#x2790;" horiz-adv-x="800" 
d="M66 330q0 152 94.5 246t239.5 94q144 0 239 -94t95 -246q0 -151 -95 -245t-239 -94q-145 0 -239.5 93.5t-94.5 245.5zM420 119v18q0 65 5 98t31 96.5t88 177.5v39h-279v-100h195q-107 -164 -124 -198q-31 -60 -31 -131h115z" />
    <glyph glyph-name="uni2791" unicode="&#x2791;" horiz-adv-x="800" 
d="M66 330q0 152 94.5 246t239.5 94q144 0 239 -94t95 -246q0 -151 -95 -245t-239 -94q-145 0 -239.5 93.5t-94.5 245.5zM399 112q78 0 123 36.5t45 88.5q0 36 -22 65.5t-62 44.5q66 32 66 99q0 48 -39.5 78.5t-110.5 30.5q-69 0 -109 -32.5t-40 -81.5q0 -66 65 -95
q-40 -17 -61.5 -48t-21.5 -67q0 -51 44 -85t123 -34zM359 441q0 72 40 72q42 0 42 -67q0 -79 -42 -79q-21 0 -30.5 16.5t-9.5 57.5zM340 231q0 93 59 93q60 0 60 -87q0 -44 -15 -62.5t-45 -18.5t-44.5 16.5t-14.5 58.5z" />
    <glyph glyph-name="uni2792" unicode="&#x2792;" horiz-adv-x="800" 
d="M66 330q0 152 94.5 246t239.5 94q144 0 239 -94t95 -246q0 -151 -95 -245t-239 -94q-145 0 -239.5 93.5t-94.5 245.5zM410 516q29 0 41.5 -30.5t14.5 -111.5q-20 -41 -61 -41q-24 0 -37.5 22.5t-13.5 65.5q0 95 56 95zM249 419q0 -59 38 -95.5t92 -36.5q55 0 87 39
q-1 -71 -14 -110t-30 -50.5t-44 -11.5q-60 0 -68 77h-45q5 -60 40 -89t88 -29q83 0 132.5 65t49.5 170q0 97 -44 152.5t-121 55.5q-71 0 -116 -38.5t-45 -98.5z" />
    <glyph glyph-name="uni2793" unicode="&#x2793;" horiz-adv-x="800" 
d="M66 330q0 152 94.5 246t239.5 94q144 0 239 -94t95 -246q0 -151 -95 -245t-239 -94q-145 0 -239.5 93.5t-94.5 245.5zM625 334q0 105 -35.5 163t-98.5 58t-98.5 -58t-35.5 -163q0 -104 35.5 -163t98.5 -59t98.5 59t35.5 163zM228 119h104v429h-54l-102 -74l26 -34l26 20
v-341zM466 334q0 78 3.5 119t8.5 50.5t13 9.5q9 0 14 -9.5t8.5 -50.5t3.5 -119t-3.5 -119t-8.5 -51t-14 -10q-8 0 -13 10t-8.5 51t-3.5 119z" />
    <glyph glyph-name="uni27F7" unicode="&#x27f7;" horiz-adv-x="692" 
d="M528 357l-154 157h83l191 -198v-8l-191 -198h-83l157 158h-370l157 -158h-83l-191 198v8l191 198h83l-154 -157h364z" />
    <glyph glyph-name="commaaccent" unicode="&#xf6c3;" horiz-adv-x="501" 
d="M265 -149q0 29 -63 29v70q59 0 89.5 -21t30.5 -60q0 -89 -143 -89v34q49 1 67.5 9.5t18.5 27.5z" />
    <glyph glyph-name="centinferior" unicode="&#xf6df;" horiz-adv-x="363" 
d="M140 -40q0 -65 29 -86l30 179q-59 -9 -59 -93zM197 -189h-7l-14 -84h-32l15 87q-55 10 -86.5 46.5t-31.5 93.5q0 66 42.5 106.5t116.5 40.5h7l14 84h33l-15 -88q77 -19 82 -95h-45q-3 42 -45 50l-32 -190q4 -1 13 -1q60 0 70 53h36q-2 -45 -33.5 -74t-87.5 -29z" />
    <glyph glyph-name="centsuperior" unicode="&#xf6e0;" horiz-adv-x="363" 
d="M140 510q0 -65 29 -86l30 179q-59 -9 -59 -93zM197 361h-7l-14 -84h-32l15 87q-55 10 -86.5 46.5t-31.5 93.5q0 66 42.5 106.5t116.5 40.5h7l14 84h33l-15 -88q77 -19 82 -95h-45q-3 42 -45 50l-32 -190q4 -1 13 -1q60 0 70 53h36q-2 -45 -33.5 -74t-87.5 -29z" />
    <glyph glyph-name="commainferior" unicode="&#xf6e1;" horiz-adv-x="179" 
d="M89 -281q0 30 -45 30v86q49 0 76.5 -27t27.5 -71q0 -39 -29.5 -70t-87.5 -31v39q26 0 42 12t16 32z" />
    <glyph glyph-name="commasuperior" unicode="&#xf6e2;" horiz-adv-x="179" 
d="M89 269q0 30 -45 30v86q49 0 76.5 -27t27.5 -71q0 -39 -29.5 -70t-87.5 -31v39q26 0 42 12t16 32z" />
    <glyph glyph-name="dollarinferior" unicode="&#xf6e3;" horiz-adv-x="362" 
d="M198 28l2 -1v128h-7q-14 0 -20 -1v-115q4 -2 8 -3.5t9 -4t8 -3.5zM119 103q0 -30 23 -48v90q-23 -14 -23 -42zM177 -207q16 0 23 1v120q-14 6 -27 13v-134h4zM253 -150q0 32 -22 48v-94q22 15 22 46zM182 -247h-9v-55h-31v59q-49 10 -77 42t-31 82h45q6 -68 63 -83v144
q-50 26 -72.5 54t-22.5 79q0 41 25 72t70 42v59h31v-54q6 1 20 1h7v53h31v-57q41 -10 65.5 -40t27.5 -74h-45q-4 52 -48 71v-136q54 -29 77 -60t23 -76q0 -49 -27 -78.5t-73 -39.5v-60h-31v56q-6 -1 -18 -1z" />
    <glyph glyph-name="dollarsuperior" unicode="&#xf6e4;" horiz-adv-x="362" 
d="M198 578l2 -1v128h-7q-14 0 -20 -1v-115q4 -2 8 -3.5t9 -4t8 -3.5zM119 653q0 -30 23 -48v90q-23 -14 -23 -42zM177 343q16 0 23 1v120q-14 6 -27 13v-134h4zM253 400q0 32 -22 48v-94q22 15 22 46zM182 303h-9v-55h-31v59q-49 10 -77 42t-31 82h45q6 -68 63 -83v144
q-50 26 -72.5 54t-22.5 79q0 41 25 72t70 42v59h31v-54q6 1 20 1h7v53h31v-57q41 -10 65.5 -40t27.5 -74h-45q-4 52 -48 71v-136q54 -29 77 -60t23 -76q0 -49 -27 -78.5t-73 -39.5v-60h-31v56q-6 -1 -18 -1z" />
    <glyph glyph-name="periodinferior" unicode="&#xf6e7;" horiz-adv-x="198" 
d="M47 -240v93h101v-93h-101z" />
    <glyph glyph-name="periodsuperior" unicode="&#xf6e8;" horiz-adv-x="198" 
d="M47 310v93h101v-93h-101z" />
    <glyph glyph-name="s_t" unicode="&#xfb06;" horiz-adv-x="895" 
d="M717 -11q-75 0 -116 42t-41 125v243h-91v51h91v32q0 163 -137 163q-73 0 -112.5 -40t-39.5 -104q0 -27 7 -45q106 -22 123 -134h-39q-11 43 -40.5 67t-70.5 24q-77 0 -77 -57q0 -20 13.5 -34.5t27 -20.5t41.5 -15q39 -13 59 -21.5t48.5 -26t41.5 -43.5t13 -61
q0 -70 -55.5 -107t-141.5 -37q-81 0 -130 40t-55 111h39q19 -102 140 -102q79 0 79 54q0 19 -13 33t-25.5 19t-40.5 14q-2 1 -3 1t-3 1t-3 1q-33 11 -55 20.5t-46.5 27t-37 43.5t-12.5 61q0 63 43.5 103t121.5 43q-5 19 -5 41q0 89 62 148.5t171 59.5q111 0 182 -58t71 -169
v-32h140v-51h-140v-263q0 -81 55 -81q49 0 59 88h41q-4 -82 -37.5 -118t-101.5 -36z" />
    <glyph glyph-name="CR" horiz-adv-x="500" 
 />
    <glyph glyph-name="fi.cap" horiz-adv-x="900" 
d="M802 660v-660h-151v660h151zM485 293h-237v-293h-151v660h407v-55h-256v-257h237v-55z" />
    <glyph glyph-name="fl.cap" horiz-adv-x="1117" 
d="M485 293h-237v-293h-151v660h407v-55h-256v-257h237v-55zM651 0v660h151v-605h288v-55h-439z" />
    <glyph glyph-name="germandbls.cap" horiz-adv-x="1170" 
d="M895 613q-54 0 -84.5 -26t-30.5 -71q0 -35 26.5 -61.5t89.5 -51.5q125 -49 172.5 -97t47.5 -124q0 -87 -69 -139.5t-176 -52.5q-104 0 -170.5 54t-72.5 152h50q23 -149 178 -149q52 0 87.5 24t35.5 69q0 19 -7 33.5t-14.5 24t-31.5 22.5t-38 19t-54 23q-97 40 -139 85.5
t-42 123.5q0 85 65 142t171 57q96 0 150.5 -48t66.5 -133h-50q-11 63 -54 93.5t-107 30.5zM325 613q-54 0 -84.5 -26t-30.5 -71q0 -35 26.5 -61.5t89.5 -51.5q125 -49 172.5 -97t47.5 -124q0 -87 -69 -139.5t-176 -52.5q-104 0 -170.5 54t-72.5 152h50q23 -149 178 -149
q52 0 87.5 24t35.5 69q0 19 -7 33.5t-14.5 24t-31.5 22.5t-38 19t-54 23q-97 40 -139 85.5t-42 123.5q0 85 65 142t171 57q96 0 150.5 -48t66.5 -133h-50q-11 63 -54 93.5t-107 30.5z" />
    <glyph glyph-name="a.alt" horiz-adv-x="608" 
d="M396 225q0 82 -32 126.5t-74 44.5q-51 0 -77 -40t-26 -131q0 -171 93 -171q48 0 82 44t34 127zM396 0v84q-21 -47 -66 -71t-88 -24q-89 0 -145 68.5t-56 167.5q0 97 58.5 166t152.5 69q41 0 82 -22.5t62 -68.5v81h140v-450h-140z" />
    <glyph glyph-name="g.alt" horiz-adv-x="618" 
d="M406 225q0 82 -33.5 126.5t-77.5 44.5q-54 0 -81 -40t-27 -131q0 -171 98 -171q50 0 85.5 44t35.5 127zM285 -250q-95 0 -149 47t-60 137h34q5 -57 44.5 -88t99.5 -31q69 0 110.5 42t41.5 129v99q-22 -47 -68.5 -71.5t-90.5 -24.5q-91 0 -148.5 68.5t-57.5 167.5
q0 97 59.5 166t156.5 69q42 0 85 -23t64 -69v82h140v-438q0 -120 -66 -191t-195 -71z" />
    <glyph glyph-name="agrave.alt" horiz-adv-x="608" 
d="M276 698l61 -150h-67l-149 150h155zM396 225q0 82 -32 126.5t-74 44.5q-51 0 -77 -40t-26 -131q0 -171 93 -171q48 0 82 44t34 127zM396 0v84q-21 -47 -66 -71t-88 -24q-89 0 -145 68.5t-56 167.5q0 97 58.5 166t152.5 69q41 0 82 -22.5t62 -68.5v81h140v-450h-140z" />
    <glyph glyph-name="aacute.alt" horiz-adv-x="608" 
d="M320 698h155l-149 -150h-67zM396 225q0 82 -32 126.5t-74 44.5q-51 0 -77 -40t-26 -131q0 -171 93 -171q48 0 82 44t34 127zM396 0v84q-21 -47 -66 -71t-88 -24q-89 0 -145 68.5t-56 167.5q0 97 58.5 166t152.5 69q41 0 82 -22.5t62 -68.5v81h140v-450h-140z" />
    <glyph glyph-name="acircumflex.alt" horiz-adv-x="608" 
d="M301 617l-100 -69h-37l99 150h76l99 -150h-37zM396 225q0 82 -32 126.5t-74 44.5q-51 0 -77 -40t-26 -131q0 -171 93 -171q48 0 82 44t34 127zM396 0v84q-21 -47 -66 -71t-88 -24q-89 0 -145 68.5t-56 167.5q0 97 58.5 166t152.5 69q41 0 82 -22.5t62 -68.5v81h140v-450
h-140z" />
    <glyph glyph-name="atilde.alt" horiz-adv-x="608" 
d="M348 559q-20 0 -35.5 9t-23 20.5t-17 20.5t-18.5 9q-31 0 -31 -59h-45q0 139 78 139q18 0 33 -9t23 -20.5t17.5 -20.5t18.5 -9q32 0 32 59h45q0 -139 -77 -139zM396 225q0 82 -32 126.5t-74 44.5q-51 0 -77 -40t-26 -131q0 -171 93 -171q48 0 82 44t34 127zM396 0v84
q-21 -47 -66 -71t-88 -24q-89 0 -145 68.5t-56 167.5q0 97 58.5 166t152.5 69q41 0 82 -22.5t62 -68.5v81h140v-450h-140z" />
    <glyph glyph-name="adieresis.alt" horiz-adv-x="608" 
d="M263 688v-116h-110v116h110zM448 688v-116h-110v116h110zM396 225q0 82 -32 126.5t-74 44.5q-51 0 -77 -40t-26 -131q0 -171 93 -171q48 0 82 44t34 127zM396 0v84q-21 -47 -66 -71t-88 -24q-89 0 -145 68.5t-56 167.5q0 97 58.5 166t152.5 69q41 0 82 -22.5t62 -68.5v81
h140v-450h-140z" />
    <glyph glyph-name="amacron.alt" horiz-adv-x="608" 
d="M175 672h251v-81h-251v81zM396 225q0 82 -32 126.5t-74 44.5q-51 0 -77 -40t-26 -131q0 -171 93 -171q48 0 82 44t34 127zM396 0v84q-21 -47 -66 -71t-88 -24q-89 0 -145 68.5t-56 167.5q0 97 58.5 166t152.5 69q41 0 82 -22.5t62 -68.5v81h140v-450h-140z" />
    <glyph glyph-name="abreve.alt" horiz-adv-x="608" 
d="M301 641q24 0 46 14t22 43h55q0 -55 -37.5 -97t-85.5 -42q-55 0 -89.5 41t-34.5 98h55q0 -29 21 -43t48 -14zM396 225q0 82 -32 126.5t-74 44.5q-51 0 -77 -40t-26 -131q0 -171 93 -171q48 0 82 44t34 127zM396 0v84q-21 -47 -66 -71t-88 -24q-89 0 -145 68.5t-56 167.5
q0 97 58.5 166t152.5 69q41 0 82 -22.5t62 -68.5v81h140v-450h-140z" />
    <glyph glyph-name="aring.alt" horiz-adv-x="608" 
d="M300 542q-50 0 -78 21.5t-28 60.5t28 61t78 22t78 -22t28 -61t-28 -60.5t-78 -21.5zM300 589q19 0 32.5 9t13.5 26t-13.5 26t-32.5 9t-32.5 -9t-13.5 -26t13.5 -26t32.5 -9zM396 225q0 82 -32 126.5t-74 44.5q-51 0 -77 -40t-26 -131q0 -171 93 -171q48 0 82 44t34 127z
M396 0v84q-21 -47 -66 -71t-88 -24q-89 0 -145 68.5t-56 167.5q0 97 58.5 166t152.5 69q41 0 82 -22.5t62 -68.5v81h140v-450h-140z" />
    <glyph glyph-name="aringacute.alt" horiz-adv-x="608" 
d="M330 886h155l-149 -150h-67zM300 542q-50 0 -78 21.5t-28 60.5t28 61t78 22t78 -22t28 -61t-28 -60.5t-78 -21.5zM300 589q19 0 32.5 9t13.5 26t-13.5 26t-32.5 9t-32.5 -9t-13.5 -26t13.5 -26t32.5 -9zM396 225q0 82 -32 126.5t-74 44.5q-51 0 -77 -40t-26 -131
q0 -171 93 -171q48 0 82 44t34 127zM396 0v84q-21 -47 -66 -71t-88 -24q-89 0 -145 68.5t-56 167.5q0 97 58.5 166t152.5 69q41 0 82 -22.5t62 -68.5v81h140v-450h-140z" />
    <glyph glyph-name="aogonek.alt" horiz-adv-x="608" 
d="M396 225q0 82 -32 126.5t-74 44.5q-51 0 -77 -40t-26 -131q0 -171 93 -171q48 0 82 44t34 127zM396 0v84q-21 -47 -66 -71t-88 -24q-89 0 -145 68.5t-56 167.5q0 97 58.5 166t152.5 69q41 0 82 -22.5t62 -68.5v81h140v-450h-89q-43 -51 -58 -78.5t-15 -52.5q0 -32 27 -32
q17 0 27.5 13.5t12.5 33.5h46q-1 -44 -28.5 -68t-74.5 -24q-84 0 -84 66q0 9 2 17.5t4.5 15.5t8.5 16.5t10 15.5t14.5 17.5t16 17t19.5 20.5t21 22z" />
    <glyph glyph-name="ae.alt" horiz-adv-x="822" 
d="M560 409q-76 0 -87 -135h170q0 135 -83 135zM774 149q-4 -66 -58.5 -113t-142.5 -47q-140 0 -206 90q-17 -35 -64 -62.5t-113 -27.5q-55 0 -93 27t-38 83q0 61 42.5 91.5t127.5 46.5l96 16v51q0 45 -28.5 68t-68.5 23q-44 0 -72 -23t-32 -66h-34q4 76 52 115t132 39
q90 0 141 -48q62 48 144 48q107 0 164.5 -64t57.5 -173h-309q4 -164 132 -164q45 0 82.5 21.5t47.5 68.5h40zM251 49q70 0 95 66q-19 44 -20 88l-48 -8q-45 -10 -67 -29t-22 -56q0 -29 18 -45t44 -16z" />
    <glyph glyph-name="aeacute.alt" horiz-adv-x="822" 
d="M458 698h155l-149 -150h-67zM560 409q-76 0 -87 -135h170q0 135 -83 135zM774 149q-4 -66 -58.5 -113t-142.5 -47q-140 0 -206 90q-17 -35 -64 -62.5t-113 -27.5q-55 0 -93 27t-38 83q0 61 42.5 91.5t127.5 46.5l96 16v51q0 45 -28.5 68t-68.5 23q-44 0 -72 -23t-32 -66
h-34q4 76 52 115t132 39q90 0 141 -48q62 48 144 48q107 0 164.5 -64t57.5 -173h-309q4 -164 132 -164q45 0 82.5 21.5t47.5 68.5h40zM251 49q70 0 95 66q-19 44 -20 88l-48 -8q-45 -10 -67 -29t-22 -56q0 -29 18 -45t44 -16z" />
    <glyph glyph-name="gcircumflex.alt" horiz-adv-x="618" 
d="M301 617l-100 -69h-37l99 150h76l99 -150h-37zM406 225q0 82 -33.5 126.5t-77.5 44.5q-54 0 -81 -40t-27 -131q0 -171 98 -171q50 0 85.5 44t35.5 127zM285 -250q-95 0 -149 47t-60 137h34q5 -57 44.5 -88t99.5 -31q69 0 110.5 42t41.5 129v99q-22 -47 -68.5 -71.5
t-90.5 -24.5q-91 0 -148.5 68.5t-57.5 167.5q0 97 59.5 166t156.5 69q42 0 85 -23t64 -69v82h140v-438q0 -120 -66 -191t-195 -71z" />
    <glyph glyph-name="gbreve.alt" horiz-adv-x="618" 
d="M301 641q24 0 46 14t22 43h55q0 -55 -37.5 -97t-85.5 -42q-55 0 -89.5 41t-34.5 98h55q0 -29 21 -43t48 -14zM406 225q0 82 -33.5 126.5t-77.5 44.5q-54 0 -81 -40t-27 -131q0 -171 98 -171q50 0 85.5 44t35.5 127zM285 -250q-95 0 -149 47t-60 137h34q5 -57 44.5 -88
t99.5 -31q69 0 110.5 42t41.5 129v99q-22 -47 -68.5 -71.5t-90.5 -24.5q-91 0 -148.5 68.5t-57.5 167.5q0 97 59.5 166t156.5 69q42 0 85 -23t64 -69v82h140v-438q0 -120 -66 -191t-195 -71z" />
    <glyph glyph-name="gdotaccent.alt" horiz-adv-x="618" 
d="M371 698v-136h-140v136h140zM406 225q0 82 -33.5 126.5t-77.5 44.5q-54 0 -81 -40t-27 -131q0 -171 98 -171q50 0 85.5 44t35.5 127zM285 -250q-95 0 -149 47t-60 137h34q5 -57 44.5 -88t99.5 -31q69 0 110.5 42t41.5 129v99q-22 -47 -68.5 -71.5t-90.5 -24.5
q-91 0 -148.5 68.5t-57.5 167.5q0 97 59.5 166t156.5 69q42 0 85 -23t64 -69v82h140v-438q0 -120 -66 -191t-195 -71z" />
    <glyph glyph-name="gcommaaccent.alt" horiz-adv-x="618" 
d="M371 558h-136l104 150h47zM406 225q0 82 -33.5 126.5t-77.5 44.5q-54 0 -81 -40t-27 -131q0 -171 98 -171q50 0 85.5 44t35.5 127zM285 -250q-95 0 -149 47t-60 137h34q5 -57 44.5 -88t99.5 -31q69 0 110.5 42t41.5 129v99q-22 -47 -68.5 -71.5t-90.5 -24.5
q-91 0 -148.5 68.5t-57.5 167.5q0 97 59.5 166t156.5 69q42 0 85 -23t64 -69v82h140v-438q0 -120 -66 -191t-195 -71z" />
    <glyph glyph-name="idotaccent" horiz-adv-x="284" 
d="M212 698v-136h-140v136h140zM212 450v-450h-140v450h140z" />
    <glyph glyph-name="A.small" horiz-adv-x="537" 
d="M279 170l-65 148l-62 -148h127zM355 0l-53 120h-170l-50 -120h-64l216 499h53l232 -499h-164z" />
    <glyph glyph-name="B.small" horiz-adv-x="571" 
d="M264 445h-22v-169h35q30 0 45.5 19t15.5 70q0 47 -19 63.5t-55 16.5zM302 226h-60v-179h60q74 0 74 83q0 55 -19.5 75.5t-54.5 20.5zM97 0v495h178q101 0 158 -33t57 -94q0 -75 -89 -101q60 -14 93.5 -48t33.5 -82q0 -61 -56.5 -99t-159.5 -38h-215z" />
    <glyph glyph-name="C.small" horiz-adv-x="560" 
d="M325 448q-62 0 -92 -45t-30 -159q0 -105 31.5 -150.5t92.5 -45.5q53 0 86 32t41 86h52q-11 -79 -61 -127.5t-136 -48.5q-130 0 -194 67.5t-64 186.5q0 113 70 187t190 74q84 0 134 -48.5t61 -127.5h-53q-8 55 -40.5 87t-87.5 32z" />
    <glyph glyph-name="D.small" horiz-adv-x="637" 
d="M315 445h-73v-395h73q119 0 119 199q0 103 -33 149.5t-86 46.5zM97 0v495h228q121 0 191 -71.5t70 -175.5q0 -106 -70 -177t-191 -71h-228z" />
    <glyph glyph-name="E.small" horiz-adv-x="499" 
d="M97 0v495h338v-50h-193v-172h178v-50h-178v-173h208v-50h-353z" />
    <glyph glyph-name="F.small" horiz-adv-x="470" 
d="M405 215h-163v-215h-145v495h323v-50h-178v-180h163v-50z" />
    <glyph glyph-name="G.small" horiz-adv-x="599" 
d="M531 229v-229h-69q0 15 -34 36q-48 -46 -120 -46q-128 0 -192.5 68t-64.5 186q0 113 74 187t187 74q86 0 136.5 -48.5t60.5 -127.5h-53q-17 119 -122 119q-63 0 -97 -46.5t-34 -157.5q0 -196 121 -196q37 0 63 20v111h-60v50h204z" />
    <glyph glyph-name="H.small" horiz-adv-x="660" 
d="M418 0v220h-176v-220h-145v495h145v-225h176v225h145v-495h-145z" />
    <glyph glyph-name="I.small" horiz-adv-x="340" 
d="M97 495h146v-495h-146v495z" />
    <glyph glyph-name="J.small" horiz-adv-x="479" 
d="M178 51q31 0 49.5 22.5t18.5 63.5v358h145v-333q0 -78 -51.5 -125t-136.5 -47q-83 0 -122.5 42t-45.5 122h52q12 -103 91 -103z" />
    <glyph glyph-name="K.small" horiz-adv-x="641" 
d="M600 0h-178l-174 248l246 247h76l-190 -192zM242 495v-495h-145v495h145z" />
    <glyph glyph-name="L.small" horiz-adv-x="470" 
d="M97 0v495h145v-445h201v-50h-346z" />
    <glyph glyph-name="M.small" horiz-adv-x="739" 
d="M354 -4h-53l-146 340v-336h-58v495h138l136 -315l123 315h148v-495h-145v351z" />
    <glyph glyph-name="N.small" horiz-adv-x="622" 
d="M448 -4l-293 350v-346h-58v495h117l253 -306v306h58v-499h-77z" />
    <glyph glyph-name="O.small" horiz-adv-x="638" 
d="M319 505q125 0 196.5 -73t71.5 -184t-71.5 -184.5t-196.5 -73.5t-196.5 73t-71.5 184t71.5 184.5t196.5 73.5zM319 47q55 0 85.5 44.5t30.5 156.5t-30.5 156t-85.5 44t-85.5 -44.5t-30.5 -156.5t30.5 -156t85.5 -44z" />
    <glyph glyph-name="P.small" horiz-adv-x="558" 
d="M284 445h-42v-192h42q75 0 75 98q0 94 -75 94zM294 202h-52v-202h-145v495h197q106 0 161.5 -37.5t55.5 -106.5q0 -70 -55.5 -109.5t-161.5 -39.5z" />
    <glyph glyph-name="Q.small" horiz-adv-x="638" 
d="M640 -190h-186l-103 181q-10 -1 -32 -1q-125 0 -196.5 73t-71.5 184t71.5 184.5t196.5 73.5t196.5 -73t71.5 -184q0 -87 -44.5 -152.5t-126.5 -91.5zM319 47q55 0 85.5 44.5t30.5 156.5t-30.5 156t-85.5 44t-85.5 -44.5t-30.5 -156.5t30.5 -156t85.5 -44z" />
    <glyph glyph-name="R.small" horiz-adv-x="612" 
d="M305 445h-63v-179h61q28 0 48.5 22t20.5 68q0 89 -67 89zM391 0l-131 215h-18v-215h-145v495h212q102 0 158.5 -34.5t56.5 -99.5q0 -44 -31.5 -79.5t-87.5 -52.5l167 -229h-181z" />
    <glyph glyph-name="S.small" horiz-adv-x="494" 
d="M231 45q41 0 66.5 15.5t25.5 44.5q0 10 -3 18t-10 15t-13.5 12t-19 10.5t-21.5 9t-25.5 9.5t-26.5 10q-29 11 -47.5 21.5t-39.5 29t-31.5 46.5t-10.5 65q0 65 50.5 109.5t129.5 44.5q74 0 116 -39.5t51 -108.5h-37q-8 47 -39.5 70t-73.5 23q-39 0 -59.5 -16.5
t-20.5 -45.5q0 -7 1.5 -13t5 -11.5t7 -9.5t10.5 -8.5t11.5 -7.5t14 -7t14.5 -6t16 -6.5t16 -6.5q4 -2 21.5 -8.5t22.5 -9t20 -9.5t20.5 -11t18 -12.5t17 -15.5t12.5 -18t11.5 -22.5t6 -26t2.5 -31.5q0 -74 -55.5 -116t-144.5 -42q-75 0 -126.5 44t-55.5 123h38
q9 -56 45.5 -84t89.5 -28z" />
    <glyph glyph-name="T.small" horiz-adv-x="535" 
d="M508 445h-168v-445h-145v445h-168v50h481v-50z" />
    <glyph glyph-name="U.small" horiz-adv-x="604" 
d="M458 177v318h58v-319q0 -92 -54 -139t-148 -47q-226 0 -226 198v307h145v-307q0 -122 112 -122q58 0 85.5 27t27.5 84z" />
    <glyph glyph-name="V.small" horiz-adv-x="537" 
d="M303 -4h-53l-232 499h164l141 -318l132 318h64z" />
    <glyph glyph-name="W.small" horiz-adv-x="814" 
d="M281 -4h-53l-201 499h160l115 -305l126 305h53l134 -306l112 306h60l-186 -499h-53l-137 305z" />
    <glyph glyph-name="X.small" horiz-adv-x="579" 
d="M370 0l-121 181l-141 -181h-73l181 229l-184 266h177l112 -166l121 166h71l-160 -214l194 -281h-177z" />
    <glyph glyph-name="Y.small" horiz-adv-x="527" 
d="M346 0h-147v203l-176 292h169l124 -213l121 213h67l-158 -272v-223z" />
    <glyph glyph-name="Z.small" horiz-adv-x="518" 
d="M54 0v39l227 406h-213v50h385v-40l-230 -405h241v-50h-410z" />
    <glyph glyph-name="Agrave.small" horiz-adv-x="537" 
d="M236 698l61 -150h-67l-149 150h155zM279 170l-65 148l-62 -148h127zM355 0l-53 120h-170l-50 -120h-64l216 499h53l232 -499h-164z" />
    <glyph glyph-name="Aacute.small" horiz-adv-x="537" 
d="M290 698h155l-149 -150h-67zM279 170l-65 148l-62 -148h127zM355 0l-53 120h-170l-50 -120h-64l216 499h53l232 -499h-164z" />
    <glyph glyph-name="Acircumflex.small" horiz-adv-x="537" 
d="M261 617l-100 -69h-37l99 150h76l99 -150h-37zM279 170l-65 148l-62 -148h127zM355 0l-53 120h-170l-50 -120h-64l216 499h53l232 -499h-164z" />
    <glyph glyph-name="Atilde.small" horiz-adv-x="537" 
d="M308 559q-20 0 -35.5 9t-23 20.5t-17 20.5t-18.5 9q-31 0 -31 -59h-45q0 139 78 139q18 0 33 -9t23 -20.5t17.5 -20.5t18.5 -9q32 0 32 59h45q0 -139 -77 -139zM279 170l-65 148l-62 -148h127zM355 0l-53 120h-170l-50 -120h-64l216 499h53l232 -499h-164z" />
    <glyph glyph-name="Adieresis.small" horiz-adv-x="537" 
d="M223 688v-116h-110v116h110zM408 688v-116h-110v116h110zM279 170l-65 148l-62 -148h127zM355 0l-53 120h-170l-50 -120h-64l216 499h53l232 -499h-164z" />
    <glyph glyph-name="Amacron.small" horiz-adv-x="537" 
d="M135 672h251v-81h-251v81zM279 170l-65 148l-62 -148h127zM355 0l-53 120h-170l-50 -120h-64l216 499h53l232 -499h-164z" />
    <glyph glyph-name="Abreve.small" horiz-adv-x="537" 
d="M261 641q24 0 46 14t22 43h55q0 -55 -37.5 -97t-85.5 -42q-55 0 -89.5 41t-34.5 98h55q0 -29 21 -43t48 -14zM279 170l-65 148l-62 -148h127zM355 0l-53 120h-170l-50 -120h-64l216 499h53l232 -499h-164z" />
    <glyph glyph-name="Aring.small" horiz-adv-x="537" 
d="M260 542q-50 0 -78 21.5t-28 60.5t28 61t78 22t78 -22t28 -61t-28 -60.5t-78 -21.5zM260 589q19 0 32.5 9t13.5 26t-13.5 26t-32.5 9t-32.5 -9t-13.5 -26t13.5 -26t32.5 -9zM279 170l-65 148l-62 -148h127zM355 0l-53 120h-170l-50 -120h-64l216 499h53l232 -499h-164z
" />
    <glyph glyph-name="Aringacute.small" horiz-adv-x="537" 
d="M294 884h155l-149 -150h-67zM260 542q-50 0 -78 21.5t-28 60.5t28 61t78 22t78 -22t28 -61t-28 -60.5t-78 -21.5zM260 589q19 0 32.5 9t13.5 26t-13.5 26t-32.5 9t-32.5 -9t-13.5 -26t13.5 -26t32.5 -9zM279 170l-65 148l-62 -148h127zM355 0l-53 120h-170l-50 -120h-64
l216 499h53l232 -499h-164z" />
    <glyph glyph-name="Aogonek.small" horiz-adv-x="537" 
d="M279 170l-65 148l-62 -148h127zM355 0l-53 120h-170l-50 -120h-64l216 499h53l232 -499h-113q-43 -51 -58 -78.5t-15 -52.5q0 -32 27 -32q17 0 27.5 13.5t12.5 33.5h46q-1 -44 -28.5 -68t-74.5 -24q-84 0 -84 66q0 9 2 17.5t4.5 15.5t8.5 16.5t10 15.5t14.5 17.5t16 17
t19.5 20.5t21 22z" />
    <glyph glyph-name="AE.small" horiz-adv-x="747" 
d="M335 173v231l-149 -231h149zM335 0v123h-181l-80 -123h-65l321 495h343v-50h-193v-172h178v-50h-178v-173h208v-50h-353z" />
    <glyph glyph-name="AEacute.small" horiz-adv-x="747" 
d="M441 698h155l-149 -150h-67zM335 173v231l-149 -231h149zM335 0v123h-181l-80 -123h-65l321 495h343v-50h-193v-172h178v-50h-178v-173h208v-50h-353z" />
    <glyph glyph-name="Cacute.small" horiz-adv-x="560" 
d="M339 698h155l-149 -150h-67zM325 448q-62 0 -92 -45t-30 -159q0 -105 31.5 -150.5t92.5 -45.5q53 0 86 32t41 86h52q-11 -79 -61 -127.5t-136 -48.5q-130 0 -194 67.5t-64 186.5q0 113 70 187t190 74q84 0 134 -48.5t61 -127.5h-53q-8 55 -40.5 87t-87.5 32z" />
    <glyph glyph-name="Ccircumflex.small" horiz-adv-x="560" 
d="M310 617l-100 -69h-37l99 150h76l99 -150h-37zM325 448q-62 0 -92 -45t-30 -159q0 -105 31.5 -150.5t92.5 -45.5q53 0 86 32t41 86h52q-11 -79 -61 -127.5t-136 -48.5q-130 0 -194 67.5t-64 186.5q0 113 70 187t190 74q84 0 134 -48.5t61 -127.5h-53q-8 55 -40.5 87
t-87.5 32z" />
    <glyph glyph-name="Ccaron.small" horiz-adv-x="560" 
d="M312 629l100 69h37l-99 -150h-76l-99 150h37zM325 448q-62 0 -92 -45t-30 -159q0 -105 31.5 -150.5t92.5 -45.5q53 0 86 32t41 86h52q-11 -79 -61 -127.5t-136 -48.5q-130 0 -194 67.5t-64 186.5q0 113 70 187t190 74q84 0 134 -48.5t61 -127.5h-53q-8 55 -40.5 87
t-87.5 32z" />
    <glyph glyph-name="Cdotaccent.small" horiz-adv-x="560" 
d="M380 698v-136h-140v136h140zM325 448q-62 0 -92 -45t-30 -159q0 -105 31.5 -150.5t92.5 -45.5q53 0 86 32t41 86h52q-11 -79 -61 -127.5t-136 -48.5q-130 0 -194 67.5t-64 186.5q0 113 70 187t190 74q84 0 134 -48.5t61 -127.5h-53q-8 55 -40.5 87t-87.5 32z" />
    <glyph glyph-name="Ccedilla.small" horiz-adv-x="560" 
d="M305 -208q-37 0 -61 18t-25 53h43q2 -26 35 -26q42 0 42 39q0 40 -34 40q-22 0 -34 -20h-49l51 95q-112 9 -167 76t-55 177q0 113 70 187t190 74q84 0 134 -48.5t61 -127.5h-53q-8 55 -40.5 87t-87.5 32q-62 0 -92 -45t-30 -159q0 -105 31.5 -150.5t92.5 -45.5
q53 0 86 32t41 86h52q-11 -79 -60.5 -127.5t-134.5 -48.5l-24 -44q15 12 43 12q32 0 56.5 -20.5t24.5 -57.5q0 -41 -27.5 -64.5t-78.5 -23.5z" />
    <glyph glyph-name="Dcaron.small" horiz-adv-x="637" 
d="M323 629l100 69h37l-99 -150h-76l-99 150h37zM315 445h-73v-395h73q119 0 119 199q0 103 -33 149.5t-86 46.5zM97 0v495h228q121 0 191 -71.5t70 -175.5q0 -106 -70 -177t-191 -71h-228z" />
    <glyph glyph-name="Dcroat.small" horiz-adv-x="637" 
d="M337 226h-95v-176h73q119 0 119 199q0 103 -33 149.5t-86 46.5h-73v-169h95v-50zM97 0v226h-70v50h70v219h228q121 0 191 -71.5t70 -175.5q0 -106 -70 -177t-191 -71h-228z" />
    <glyph glyph-name="Egrave.small" horiz-adv-x="499" 
d="M245 698l61 -150h-67l-149 150h155zM97 0v495h338v-50h-193v-172h178v-50h-178v-173h208v-50h-353z" />
    <glyph glyph-name="Eacute.small" horiz-adv-x="499" 
d="M279 698h155l-149 -150h-67zM97 0v495h338v-50h-193v-172h178v-50h-178v-173h208v-50h-353z" />
    <glyph glyph-name="Ecircumflex.small" horiz-adv-x="499" 
d="M270 617l-100 -69h-37l99 150h76l99 -150h-37zM97 0v495h338v-50h-193v-172h178v-50h-178v-173h208v-50h-353z" />
    <glyph glyph-name="Ecaron.small" horiz-adv-x="499" 
d="M272 629l100 69h37l-99 -150h-76l-99 150h37zM97 0v495h338v-50h-193v-172h178v-50h-178v-173h208v-50h-353z" />
    <glyph glyph-name="Edieresis.small" horiz-adv-x="499" 
d="M232 688v-116h-110v116h110zM417 688v-116h-110v116h110zM97 0v495h338v-50h-193v-172h178v-50h-178v-173h208v-50h-353z" />
    <glyph glyph-name="Emacron.small" horiz-adv-x="499" 
d="M144 672h251v-81h-251v81zM97 0v495h338v-50h-193v-172h178v-50h-178v-173h208v-50h-353z" />
    <glyph glyph-name="Ebreve.small" horiz-adv-x="499" 
d="M270 641q24 0 46 14t22 43h55q0 -55 -37.5 -97t-85.5 -42q-55 0 -89.5 41t-34.5 98h55q0 -29 21 -43t48 -14zM97 0v495h338v-50h-193v-172h178v-50h-178v-173h208v-50h-353z" />
    <glyph glyph-name="Edotaccent.small" horiz-adv-x="499" 
d="M340 698v-136h-140v136h140zM97 0v495h338v-50h-193v-172h178v-50h-178v-173h208v-50h-353z" />
    <glyph glyph-name="Eogonek.small" horiz-adv-x="499" 
d="M451 -116q-1 -44 -28.5 -68t-74.5 -24q-84 0 -84 66q0 8 1 15.5t4.5 15t6 13.5t9 15t10.5 14t13.5 15.5t14.5 15.5t17.5 18.5t18.5 19.5h-262v495h338v-50h-193v-172h178v-50h-178v-173h208v-50h-40q-42 -50 -57 -78t-15 -53q0 -32 27 -32q17 0 27.5 13.5t12.5 33.5h46z
" />
    <glyph glyph-name="fi.small" horiz-adv-x="811" 
d="M567 495h146v-495h-146v495zM405 215h-163v-215h-145v495h323v-50h-178v-180h163v-50z" />
    <glyph glyph-name="fl.small" horiz-adv-x="940" 
d="M405 215h-163v-215h-145v495h323v-50h-178v-180h163v-50zM567 0v495h145v-445h201v-50h-346z" />
    <glyph glyph-name="Gcircumflex.small" horiz-adv-x="599" 
d="M316 617l-100 -69h-37l99 150h76l99 -150h-37zM531 229v-229h-69q0 15 -34 36q-48 -46 -120 -46q-128 0 -192.5 68t-64.5 186q0 113 74 187t187 74q86 0 136.5 -48.5t60.5 -127.5h-53q-17 119 -122 119q-63 0 -97 -46.5t-34 -157.5q0 -196 121 -196q37 0 63 20v111h-60
v50h204z" />
    <glyph glyph-name="Gbreve.small" horiz-adv-x="599" 
d="M316 641q24 0 46 14t22 43h55q0 -55 -37.5 -97t-85.5 -42q-55 0 -89.5 41t-34.5 98h55q0 -29 21 -43t48 -14zM531 229v-229h-69q0 15 -34 36q-48 -46 -120 -46q-128 0 -192.5 68t-64.5 186q0 113 74 187t187 74q86 0 136.5 -48.5t60.5 -127.5h-53q-17 119 -122 119
q-63 0 -97 -46.5t-34 -157.5q0 -196 121 -196q37 0 63 20v111h-60v50h204z" />
    <glyph glyph-name="Gdotaccent.small" horiz-adv-x="599" 
d="M386 698v-136h-140v136h140zM531 229v-229h-69q0 15 -34 36q-48 -46 -120 -46q-128 0 -192.5 68t-64.5 186q0 113 74 187t187 74q86 0 136.5 -48.5t60.5 -127.5h-53q-17 119 -122 119q-63 0 -97 -46.5t-34 -157.5q0 -196 121 -196q37 0 63 20v111h-60v50h204z" />
    <glyph glyph-name="Gcommaaccent.small" horiz-adv-x="599" 
d="M531 229v-229h-69q0 15 -34 36q-48 -46 -120 -46q-128 0 -192.5 68t-64.5 186q0 113 74 187t187 74q86 0 136.5 -48.5t60.5 -127.5h-53q-17 119 -122 119q-63 0 -97 -46.5t-34 -157.5q0 -196 121 -196q37 0 63 20v111h-60v50h204zM313 -149q0 29 -63 29v70q59 0 89.5 -21
t30.5 -60q0 -89 -143 -89v34q49 1 67.5 9.5t18.5 27.5z" />
    <glyph glyph-name="Hcircumflex.small" horiz-adv-x="660" 
d="M330 617l-100 -69h-37l99 150h76l99 -150h-37zM418 0v220h-176v-220h-145v495h145v-225h176v225h145v-495h-145z" />
    <glyph glyph-name="Hbar.small" horiz-adv-x="660" 
d="M418 270v69h-176v-69h176zM418 0v220h-176v-220h-145v339h-70v50h70v106h145v-106h176v106h145v-106h70v-50h-70v-339h-145z" />
    <glyph glyph-name="Igrave.small" horiz-adv-x="340" 
d="M140 698l61 -150h-67l-149 150h155zM97 495h146v-495h-146v495z" />
    <glyph glyph-name="Iacute.small" horiz-adv-x="340" 
d="M199 698h155l-149 -150h-67zM97 495h146v-495h-146v495z" />
    <glyph glyph-name="Icircumflex.small" horiz-adv-x="340" 
d="M170 617l-100 -69h-37l99 150h76l99 -150h-37zM97 495h146v-495h-146v495z" />
    <glyph glyph-name="Itilde.small" horiz-adv-x="340" 
d="M217 559q-20 0 -35.5 9t-23 20.5t-17 20.5t-18.5 9q-31 0 -31 -59h-45q0 139 78 139q23 0 40.5 -15t29 -29.5t22.5 -14.5q32 0 32 59h45q0 -139 -77 -139zM97 495h146v-495h-146v495z" />
    <glyph glyph-name="Idieresis.small" horiz-adv-x="340" 
d="M132 688v-116h-110v116h110zM317 688v-116h-110v116h110zM97 495h146v-495h-146v495z" />
    <glyph glyph-name="Imacron.small" horiz-adv-x="340" 
d="M44 672h251v-81h-251v81zM97 495h146v-495h-146v495z" />
    <glyph glyph-name="Ibreve.small" horiz-adv-x="340" 
d="M170 641q24 0 46 14t22 43h55q0 -55 -37.5 -97t-85.5 -42q-55 0 -89.5 41t-34.5 98h55q0 -29 21 -43t48 -14zM97 495h146v-495h-146v495z" />
    <glyph glyph-name="Idotaccent.small" horiz-adv-x="340" 
d="M240 698v-136h-140v136h140zM97 495h146v-495h-146v495z" />
    <glyph glyph-name="Iogonek.small" horiz-adv-x="340" 
d="M144 0h-47v495h146v-495h-48q-43 -51 -58 -78.5t-15 -52.5q0 -32 27 -32q17 0 27.5 13.5t12.5 33.5h46q-1 -44 -28.5 -68t-74.5 -24q-84 0 -84 66q0 9 2 17.5t4.5 15.5t8.5 16.5t10 15.5t14.5 17.5t16 17t19.5 20.5t21 22z" />
    <glyph glyph-name="IJ.small" horiz-adv-x="819" 
d="M97 495h146v-495h-146v495zM518 51q31 0 49.5 22.5t18.5 63.5v358h145v-333q0 -78 -51.5 -125t-136.5 -47q-83 0 -122.5 42t-45.5 122h52q12 -103 91 -103z" />
    <glyph glyph-name="Jcircumflex.small" horiz-adv-x="479" 
d="M319 617l-100 -69h-37l99 150h76l99 -150h-37zM178 51q31 0 49.5 22.5t18.5 63.5v358h145v-333q0 -78 -51.5 -125t-136.5 -47q-83 0 -122.5 42t-45.5 122h52q12 -103 91 -103z" />
    <glyph glyph-name="Kcommaaccent.small" horiz-adv-x="641" 
d="M600 0h-178l-174 248l246 247h76l-190 -192zM242 495v-495h-145v495h145zM341 -149q0 29 -63 29v70q59 0 89.5 -21t30.5 -60q0 -89 -143 -89v34q49 1 67.5 9.5t18.5 27.5z" />
    <glyph glyph-name="Lacute.small" horiz-adv-x="470" 
d="M199 698h155l-149 -150h-67zM97 0v495h145v-445h201v-50h-346z" />
    <glyph glyph-name="Lcaron.small" horiz-adv-x="470" 
d="M327 494h136l-104 -150h-47zM97 0v495h145v-445h201v-50h-346z" />
    <glyph glyph-name="Lcommaaccent.small" horiz-adv-x="470" 
d="M97 0v495h145v-445h201v-50h-346zM286 -149q0 29 -63 29v70q59 0 89.5 -21t30.5 -60q0 -89 -143 -89v34q49 1 67.5 9.5t18.5 27.5z" />
    <glyph glyph-name="Lslash.small" horiz-adv-x="470" 
d="M97 0v174l-70 -35v59l70 36v261h145v-195l106 53v-60l-106 -54v-189h201v-50h-346z" />
    <glyph glyph-name="Ldot.small" horiz-adv-x="470" 
d="M457 327v-136h-140v136h140zM97 0v495h145v-445h201v-50h-346z" />
    <glyph glyph-name="Nacute.small" horiz-adv-x="622" 
d="M349 698h155l-149 -150h-67zM448 -4l-293 350v-346h-58v495h117l253 -306v306h58v-499h-77z" />
    <glyph glyph-name="Ncaron.small" horiz-adv-x="622" 
d="M322 629l100 69h37l-99 -150h-76l-99 150h37zM448 -4l-293 350v-346h-58v495h117l253 -306v306h58v-499h-77z" />
    <glyph glyph-name="Ntilde.small" horiz-adv-x="622" 
d="M367 559q-20 0 -35.5 9t-23 20.5t-17 20.5t-18.5 9q-31 0 -31 -59h-45q0 139 78 139q23 0 40.5 -15t29 -29.5t22.5 -14.5q32 0 32 59h45q0 -139 -77 -139zM448 -4l-293 350v-346h-58v495h117l253 -306v306h58v-499h-77z" />
    <glyph glyph-name="Ncommaaccent.small" horiz-adv-x="622" 
d="M448 -4l-293 350v-346h-58v495h117l253 -306v306h58v-499h-77zM315 -149q0 29 -63 29v70q59 0 89.5 -21t30.5 -60q0 -89 -143 -89v34q49 1 67.5 9.5t18.5 27.5z" />
    <glyph glyph-name="Ograve.small" horiz-adv-x="638" 
d="M294 698l61 -150h-67l-149 150h155zM319 505q125 0 196.5 -73t71.5 -184t-71.5 -184.5t-196.5 -73.5t-196.5 73t-71.5 184t71.5 184.5t196.5 73.5zM319 47q55 0 85.5 44.5t30.5 156.5t-30.5 156t-85.5 44t-85.5 -44.5t-30.5 -156.5t30.5 -156t85.5 -44z" />
    <glyph glyph-name="Oacute.small" horiz-adv-x="638" 
d="M348 698h155l-149 -150h-67zM319 505q125 0 196.5 -73t71.5 -184t-71.5 -184.5t-196.5 -73.5t-196.5 73t-71.5 184t71.5 184.5t196.5 73.5zM319 47q55 0 85.5 44.5t30.5 156.5t-30.5 156t-85.5 44t-85.5 -44.5t-30.5 -156.5t30.5 -156t85.5 -44z" />
    <glyph glyph-name="Ocircumflex.small" horiz-adv-x="638" 
d="M319 617l-100 -69h-37l99 150h76l99 -150h-37zM319 505q125 0 196.5 -73t71.5 -184t-71.5 -184.5t-196.5 -73.5t-196.5 73t-71.5 184t71.5 184.5t196.5 73.5zM319 47q55 0 85.5 44.5t30.5 156.5t-30.5 156t-85.5 44t-85.5 -44.5t-30.5 -156.5t30.5 -156t85.5 -44z" />
    <glyph glyph-name="Otilde.small" horiz-adv-x="638" 
d="M366 559q-20 0 -35.5 9t-23 20.5t-17 20.5t-18.5 9q-31 0 -31 -59h-45q0 139 78 139q18 0 33 -9t23 -20.5t17.5 -20.5t18.5 -9q32 0 32 59h45q0 -139 -77 -139zM319 505q125 0 196.5 -73t71.5 -184t-71.5 -184.5t-196.5 -73.5t-196.5 73t-71.5 184t71.5 184.5t196.5 73.5
zM319 47q55 0 85.5 44.5t30.5 156.5t-30.5 156t-85.5 44t-85.5 -44.5t-30.5 -156.5t30.5 -156t85.5 -44z" />
    <glyph glyph-name="Odieresis.small" horiz-adv-x="638" 
d="M281 688v-116h-110v116h110zM466 688v-116h-110v116h110zM319 505q125 0 196.5 -73t71.5 -184t-71.5 -184.5t-196.5 -73.5t-196.5 73t-71.5 184t71.5 184.5t196.5 73.5zM319 47q55 0 85.5 44.5t30.5 156.5t-30.5 156t-85.5 44t-85.5 -44.5t-30.5 -156.5t30.5 -156
t85.5 -44z" />
    <glyph glyph-name="Omacron.small" horiz-adv-x="638" 
d="M193 672h251v-81h-251v81zM319 505q125 0 196.5 -73t71.5 -184t-71.5 -184.5t-196.5 -73.5t-196.5 73t-71.5 184t71.5 184.5t196.5 73.5zM319 47q55 0 85.5 44.5t30.5 156.5t-30.5 156t-85.5 44t-85.5 -44.5t-30.5 -156.5t30.5 -156t85.5 -44z" />
    <glyph glyph-name="Obreve.small" horiz-adv-x="638" 
d="M319 641q24 0 46 14t22 43h55q0 -55 -37.5 -97t-85.5 -42q-55 0 -89.5 41t-34.5 98h55q0 -29 21 -43t48 -14zM319 505q125 0 196.5 -73t71.5 -184t-71.5 -184.5t-196.5 -73.5t-196.5 73t-71.5 184t71.5 184.5t196.5 73.5zM319 47q55 0 85.5 44.5t30.5 156.5t-30.5 156
t-85.5 44t-85.5 -44.5t-30.5 -156.5t30.5 -156t85.5 -44z" />
    <glyph glyph-name="Ohungarumlaut.small" horiz-adv-x="638" 
d="M401 698h121l-119 -150h-37zM261 698h121l-119 -150h-37zM319 505q125 0 196.5 -73t71.5 -184t-71.5 -184.5t-196.5 -73.5t-196.5 73t-71.5 184t71.5 184.5t196.5 73.5zM319 47q55 0 85.5 44.5t30.5 156.5t-30.5 156t-85.5 44t-85.5 -44.5t-30.5 -156.5t30.5 -156
t85.5 -44z" />
    <glyph glyph-name="Oslash.small" horiz-adv-x="638" 
d="M319 -10q-97 0 -166 48l-36 -38h-66l66 69q-66 71 -66 178q0 111 71.5 184.5t196.5 73.5q97 0 166 -48l36 38h66l-66 -69q66 -71 66 -178q0 -111 -71.5 -184.5t-196.5 -73.5zM203 247q0 -47 6 -81l206 217q-27 65 -96 65q-55 0 -85.5 -44.5t-30.5 -156.5zM319 47
q55 0 85.5 44.5t30.5 156.5q0 46 -6 81l-206 -217q27 -65 96 -65z" />
    <glyph glyph-name="Oslashacute.small" horiz-adv-x="638" 
d="M350 698h155l-149 -150h-67zM319 -10q-97 0 -166 48l-36 -38h-66l66 69q-66 71 -66 178q0 111 71.5 184.5t196.5 73.5q97 0 166 -48l36 38h66l-66 -69q66 -71 66 -178q0 -111 -71.5 -184.5t-196.5 -73.5zM203 247q0 -47 6 -81l206 217q-27 65 -96 65q-55 0 -85.5 -44.5
t-30.5 -156.5zM319 47q55 0 85.5 44.5t30.5 156.5q0 46 -6 81l-206 -217q27 -65 96 -65z" />
    <glyph glyph-name="OE.small" horiz-adv-x="797" 
d="M312 0q-121 0 -191 71t-70 177q0 104 70 175.5t191 71.5h421v-50h-193v-172h178v-50h-178v-173h208v-50h-436zM322 50h73v395h-73q-53 0 -86 -46.5t-33 -149.5q0 -199 119 -199z" />
    <glyph glyph-name="Racute.small" horiz-adv-x="612" 
d="M324 698h155l-149 -150h-67zM305 445h-63v-179h61q28 0 48.5 22t20.5 68q0 89 -67 89zM391 0l-131 215h-18v-215h-145v495h212q102 0 158.5 -34.5t56.5 -99.5q0 -44 -31.5 -79.5t-87.5 -52.5l167 -229h-181z" />
    <glyph glyph-name="Rcaron.small" horiz-adv-x="612" 
d="M297 629l100 69h37l-99 -150h-76l-99 150h37zM305 445h-63v-179h61q28 0 48.5 22t20.5 68q0 89 -67 89zM391 0l-131 215h-18v-215h-145v495h212q102 0 158.5 -34.5t56.5 -99.5q0 -44 -31.5 -79.5t-87.5 -52.5l167 -229h-181z" />
    <glyph glyph-name="Rcommaaccent.small" horiz-adv-x="612" 
d="M305 445h-63v-179h61q28 0 48.5 22t20.5 68q0 89 -67 89zM391 0l-131 215h-18v-215h-145v495h212q102 0 158.5 -34.5t56.5 -99.5q0 -44 -31.5 -79.5t-87.5 -52.5l167 -229h-181zM326 -149q0 29 -63 29v70q59 0 89.5 -21t30.5 -60q0 -89 -143 -89v34q49 1 67.5 9.5
t18.5 27.5z" />
    <glyph glyph-name="germandbls.small" horiz-adv-x="988" 
d="M725 45q41 0 66.5 15.5t25.5 44.5q0 10 -3 18t-10 15t-13.5 12t-19 10.5t-21.5 9t-25.5 9.5t-26.5 10q-29 11 -47.5 21.5t-39.5 29t-31.5 46.5t-10.5 65q0 65 50.5 109.5t129.5 44.5q74 0 116 -39.5t51 -108.5h-37q-8 47 -39.5 70t-73.5 23q-39 0 -59.5 -16.5
t-20.5 -45.5q0 -7 1.5 -13t5 -11.5t7 -9.5t10.5 -8.5t11.5 -7.5t14 -7t14.5 -6t16 -6.5t16 -6.5q4 -2 21.5 -8.5t22.5 -9t20 -9.5t20.5 -11t18 -12.5t17 -15.5t12.5 -18t11.5 -22.5t6 -26t2.5 -31.5q0 -74 -55.5 -116t-144.5 -42q-75 0 -126.5 44t-55.5 123h38
q9 -56 45.5 -84t89.5 -28zM231 45q41 0 66.5 15.5t25.5 44.5q0 10 -3 18t-10 15t-13.5 12t-19 10.5t-21.5 9t-25.5 9.5t-26.5 10q-29 11 -47.5 21.5t-39.5 29t-31.5 46.5t-10.5 65q0 65 50.5 109.5t129.5 44.5q74 0 116 -39.5t51 -108.5h-37q-8 47 -39.5 70t-73.5 23
q-39 0 -59.5 -16.5t-20.5 -45.5q0 -7 1.5 -13t5 -11.5t7 -9.5t10.5 -8.5t11.5 -7.5t14 -7t14.5 -6t16 -6.5t16 -6.5q4 -2 21.5 -8.5t22.5 -9t20 -9.5t20.5 -11t18 -12.5t17 -15.5t12.5 -18t11.5 -22.5t6 -26t2.5 -31.5q0 -74 -55.5 -116t-144.5 -42q-75 0 -126.5 44
t-55.5 123h38q9 -56 45.5 -84t89.5 -28z" />
    <glyph glyph-name="Sacute.small" horiz-adv-x="494" 
d="M287 698h155l-149 -150h-67zM231 45q41 0 66.5 15.5t25.5 44.5q0 10 -3 18t-10 15t-13.5 12t-19 10.5t-21.5 9t-25.5 9.5t-26.5 10q-29 11 -47.5 21.5t-39.5 29t-31.5 46.5t-10.5 65q0 65 50.5 109.5t129.5 44.5q74 0 116 -39.5t51 -108.5h-37q-8 47 -39.5 70t-73.5 23
q-39 0 -59.5 -16.5t-20.5 -45.5q0 -7 1.5 -13t5 -11.5t7 -9.5t10.5 -8.5t11.5 -7.5t14 -7t14.5 -6t16 -6.5t16 -6.5q4 -2 21.5 -8.5t22.5 -9t20 -9.5t20.5 -11t18 -12.5t17 -15.5t12.5 -18t11.5 -22.5t6 -26t2.5 -31.5q0 -74 -55.5 -116t-144.5 -42q-75 0 -126.5 44
t-55.5 123h38q9 -56 45.5 -84t89.5 -28z" />
    <glyph glyph-name="Scircumflex.small" horiz-adv-x="494" 
d="M258 617l-100 -69h-37l99 150h76l99 -150h-37zM231 45q41 0 66.5 15.5t25.5 44.5q0 10 -3 18t-10 15t-13.5 12t-19 10.5t-21.5 9t-25.5 9.5t-26.5 10q-29 11 -47.5 21.5t-39.5 29t-31.5 46.5t-10.5 65q0 65 50.5 109.5t129.5 44.5q74 0 116 -39.5t51 -108.5h-37
q-8 47 -39.5 70t-73.5 23q-39 0 -59.5 -16.5t-20.5 -45.5q0 -7 1.5 -13t5 -11.5t7 -9.5t10.5 -8.5t11.5 -7.5t14 -7t14.5 -6t16 -6.5t16 -6.5q4 -2 21.5 -8.5t22.5 -9t20 -9.5t20.5 -11t18 -12.5t17 -15.5t12.5 -18t11.5 -22.5t6 -26t2.5 -31.5q0 -74 -55.5 -116t-144.5 -42
q-75 0 -126.5 44t-55.5 123h38q9 -56 45.5 -84t89.5 -28z" />
    <glyph glyph-name="Scaron.small" horiz-adv-x="494" 
d="M260 629l100 69h37l-99 -150h-76l-99 150h37zM231 45q41 0 66.5 15.5t25.5 44.5q0 10 -3 18t-10 15t-13.5 12t-19 10.5t-21.5 9t-25.5 9.5t-26.5 10q-29 11 -47.5 21.5t-39.5 29t-31.5 46.5t-10.5 65q0 65 50.5 109.5t129.5 44.5q74 0 116 -39.5t51 -108.5h-37
q-8 47 -39.5 70t-73.5 23q-39 0 -59.5 -16.5t-20.5 -45.5q0 -7 1.5 -13t5 -11.5t7 -9.5t10.5 -8.5t11.5 -7.5t14 -7t14.5 -6t16 -6.5t16 -6.5q4 -2 21.5 -8.5t22.5 -9t20 -9.5t20.5 -11t18 -12.5t17 -15.5t12.5 -18t11.5 -22.5t6 -26t2.5 -31.5q0 -74 -55.5 -116t-144.5 -42
q-75 0 -126.5 44t-55.5 123h38q9 -56 45.5 -84t89.5 -28z" />
    <glyph glyph-name="Scedilla.small" horiz-adv-x="494" 
d="M239 -208q-37 0 -61 18t-25 53h43q2 -26 35 -26q42 0 42 39q0 40 -34 40q-22 0 -34 -20h-49l52 96q-64 9 -105 52t-45 113h38q9 -56 45.5 -84t89.5 -28q41 0 66.5 15.5t25.5 44.5q0 10 -3 18t-10 15t-13.5 12t-19 10.5t-21.5 9t-25.5 9.5t-26.5 10q-29 11 -47.5 21.5
t-39.5 29t-31.5 46.5t-10.5 65q0 65 50.5 109.5t129.5 44.5q74 0 116 -39.5t51 -108.5h-37q-8 47 -39.5 70t-73.5 23q-39 0 -59.5 -16.5t-20.5 -45.5q0 -7 1.5 -13t5 -11.5t7 -9.5t10.5 -8.5t11.5 -7.5t14 -7t14.5 -6t16 -6.5t16 -6.5q4 -2 21.5 -8.5t22.5 -9t20 -9.5
t20.5 -11t18 -12.5t17 -15.5t12.5 -18t11.5 -22.5t6 -26t2.5 -31.5q0 -73 -54.5 -115.5t-140.5 -42.5l-24 -44q15 12 43 12q32 0 56.5 -20.5t24.5 -57.5q0 -41 -27.5 -64.5t-78.5 -23.5z" />
    <glyph glyph-name="Scommaaccent.small" horiz-adv-x="494" 
d="M231 45q41 0 66.5 15.5t25.5 44.5q0 10 -3 18t-10 15t-13.5 12t-19 10.5t-21.5 9t-25.5 9.5t-26.5 10q-29 11 -47.5 21.5t-39.5 29t-31.5 46.5t-10.5 65q0 65 50.5 109.5t129.5 44.5q74 0 116 -39.5t51 -108.5h-37q-8 47 -39.5 70t-73.5 23q-39 0 -59.5 -16.5
t-20.5 -45.5q0 -7 1.5 -13t5 -11.5t7 -9.5t10.5 -8.5t11.5 -7.5t14 -7t14.5 -6t16 -6.5t16 -6.5q4 -2 21.5 -8.5t22.5 -9t20 -9.5t20.5 -11t18 -12.5t17 -15.5t12.5 -18t11.5 -22.5t6 -26t2.5 -31.5q0 -74 -55.5 -116t-144.5 -42q-75 0 -126.5 44t-55.5 123h38
q9 -56 45.5 -84t89.5 -28zM273 -149q0 29 -63 29v70q59 0 89.5 -21t30.5 -60q0 -89 -143 -89v34q49 1 67.5 9.5t18.5 27.5z" />
    <glyph glyph-name="Tcaron.small" horiz-adv-x="535" 
d="M270 629l100 69h37l-99 -150h-76l-99 150h37zM508 445h-168v-445h-145v445h-168v50h481v-50z" />
    <glyph glyph-name="Tcommaaccent.small" horiz-adv-x="535" 
d="M508 445h-168v-445h-145v445h-168v50h481v-50zM279 -149q0 29 -63 29v70q59 0 89.5 -21t30.5 -60q0 -89 -143 -89v34q49 1 67.5 9.5t18.5 27.5z" />
    <glyph glyph-name="Tbar.small" horiz-adv-x="535" 
d="M442 215h-102v-215h-145v215h-102v51h102v179h-168v50h481v-50h-168v-179h102v-51z" />
    <glyph glyph-name="Ugrave.small" horiz-adv-x="604" 
d="M300 698l61 -150h-67l-149 150h155zM458 177v318h58v-319q0 -92 -54 -139t-148 -47q-226 0 -226 198v307h145v-307q0 -122 112 -122q58 0 85.5 27t27.5 84z" />
    <glyph glyph-name="Uacute.small" horiz-adv-x="604" 
d="M354 698h155l-149 -150h-67zM458 177v318h58v-319q0 -92 -54 -139t-148 -47q-226 0 -226 198v307h145v-307q0 -122 112 -122q58 0 85.5 27t27.5 84z" />
    <glyph glyph-name="Ucircumflex.small" horiz-adv-x="604" 
d="M325 617l-100 -69h-37l99 150h76l99 -150h-37zM458 177v318h58v-319q0 -92 -54 -139t-148 -47q-226 0 -226 198v307h145v-307q0 -122 112 -122q58 0 85.5 27t27.5 84z" />
    <glyph glyph-name="Utilde.small" horiz-adv-x="604" 
d="M372 559q-20 0 -35.5 9t-23 20.5t-17 20.5t-18.5 9q-31 0 -31 -59h-45q0 139 78 139q18 0 33 -9t23 -20.5t17.5 -20.5t18.5 -9q32 0 32 59h45q0 -139 -77 -139zM458 177v318h58v-319q0 -92 -54 -139t-148 -47q-226 0 -226 198v307h145v-307q0 -122 112 -122q58 0 85.5 27
t27.5 84z" />
    <glyph glyph-name="Udieresis.small" horiz-adv-x="604" 
d="M287 688v-116h-110v116h110zM472 688v-116h-110v116h110zM458 177v318h58v-319q0 -92 -54 -139t-148 -47q-226 0 -226 198v307h145v-307q0 -122 112 -122q58 0 85.5 27t27.5 84z" />
    <glyph glyph-name="Umacron.small" horiz-adv-x="604" 
d="M199 672h251v-81h-251v81zM458 177v318h58v-319q0 -92 -54 -139t-148 -47q-226 0 -226 198v307h145v-307q0 -122 112 -122q58 0 85.5 27t27.5 84z" />
    <glyph glyph-name="Ubreve.small" horiz-adv-x="604" 
d="M325 641q24 0 46 14t22 43h55q0 -55 -37.5 -97t-85.5 -42q-55 0 -89.5 41t-34.5 98h55q0 -29 21 -43t48 -14zM458 177v318h58v-319q0 -92 -54 -139t-148 -47q-226 0 -226 198v307h145v-307q0 -122 112 -122q58 0 85.5 27t27.5 84z" />
    <glyph glyph-name="Uring.small" horiz-adv-x="604" 
d="M324 542q-50 0 -78 21.5t-28 60.5t28 61t78 22t78 -22t28 -61t-28 -60.5t-78 -21.5zM324 589q19 0 32.5 9t13.5 26t-13.5 26t-32.5 9t-32.5 -9t-13.5 -26t13.5 -26t32.5 -9zM458 177v318h58v-319q0 -92 -54 -139t-148 -47q-226 0 -226 198v307h145v-307q0 -122 112 -122
q58 0 85.5 27t27.5 84z" />
    <glyph glyph-name="Uhungarumlaut.small" horiz-adv-x="604" 
d="M407 698h121l-119 -150h-37zM267 698h121l-119 -150h-37zM458 177v318h58v-319q0 -92 -54 -139t-148 -47q-226 0 -226 198v307h145v-307q0 -122 112 -122q58 0 85.5 27t27.5 84z" />
    <glyph glyph-name="Uogonek.small" horiz-adv-x="604" 
d="M299 -208q-84 0 -84 66q0 21 12.5 43.5t25.5 37.5t49 51q-214 7 -214 198v307h145v-307q0 -122 112 -122q58 0 85.5 27t27.5 84v318h58v-319q0 -82 -42.5 -128t-117.5 -55q-39 -47 -53 -73.5t-14 -50.5q0 -32 27 -32q17 0 27.5 13.5t12.5 33.5h46q-1 -44 -28.5 -68
t-74.5 -24z" />
    <glyph glyph-name="Wgrave.small" horiz-adv-x="814" 
d="M432 698l61 -150h-67l-149 150h155zM281 -4h-53l-201 499h160l115 -305l126 305h53l134 -306l112 306h60l-186 -499h-53l-137 305z" />
    <glyph glyph-name="Wacute.small" horiz-adv-x="814" 
d="M486 698h155l-149 -150h-67zM281 -4h-53l-201 499h160l115 -305l126 305h53l134 -306l112 306h60l-186 -499h-53l-137 305z" />
    <glyph glyph-name="Wcircumflex.small" horiz-adv-x="814" 
d="M457 617l-100 -69h-37l99 150h76l99 -150h-37zM281 -4h-53l-201 499h160l115 -305l126 305h53l134 -306l112 306h60l-186 -499h-53l-137 305z" />
    <glyph glyph-name="Wdieresis.small" horiz-adv-x="814" 
d="M419 688v-116h-110v116h110zM604 688v-116h-110v116h110zM281 -4h-53l-201 499h160l115 -305l126 305h53l134 -306l112 306h60l-186 -499h-53l-137 305z" />
    <glyph glyph-name="Ygrave.small" horiz-adv-x="527" 
d="M280 698l61 -150h-67l-149 150h155zM346 0h-147v203l-176 292h169l124 -213l121 213h67l-158 -272v-223z" />
    <glyph glyph-name="Yacute.small" horiz-adv-x="527" 
d="M334 698h155l-149 -150h-67zM346 0h-147v203l-176 292h169l124 -213l121 213h67l-158 -272v-223z" />
    <glyph glyph-name="Ycircumflex.small" horiz-adv-x="527" 
d="M305 617l-100 -69h-37l99 150h76l99 -150h-37zM346 0h-147v203l-176 292h169l124 -213l121 213h67l-158 -272v-223z" />
    <glyph glyph-name="Ydieresis.small" horiz-adv-x="527" 
d="M267 688v-116h-110v116h110zM452 688v-116h-110v116h110zM346 0h-147v203l-176 292h169l124 -213l121 213h67l-158 -272v-223z" />
    <glyph glyph-name="Zacute.small" horiz-adv-x="518" 
d="M303 698h155l-149 -150h-67zM54 0v39l227 406h-213v50h385v-40l-230 -405h241v-50h-410z" />
    <glyph glyph-name="Zcaron.small" horiz-adv-x="518" 
d="M276 629l100 69h37l-99 -150h-76l-99 150h37zM54 0v39l227 406h-213v50h385v-40l-230 -405h241v-50h-410z" />
    <glyph glyph-name="Zdotaccent.small" horiz-adv-x="518" 
d="M344 698v-136h-140v136h140zM54 0v39l227 406h-213v50h385v-40l-230 -405h241v-50h-410z" />
    <glyph glyph-name="Schwa.small" horiz-adv-x="602" 
d="M295 -10q-127 0 -185.5 65.5t-58.5 198.5h348q-1 193 -132 193q-58 0 -96 -32.5t-47 -85.5h-51q11 77 69 126.5t147 49.5q127 0 194.5 -70.5t67.5 -189.5q0 -110 -73 -182.5t-183 -72.5zM299 47q45 1 69 34.5t30 118.5h-193q0 -75 25.5 -114t68.5 -39z" />
    <glyph glyph-name="Eng.small" horiz-adv-x="622" 
d="M382 -250q-69 0 -105 38.5t-36 105.5h87q0 -95 65 -95q34 0 54 25.5t20 79.5v92l-312 349v-345h-58v495h117l253 -281v281h58v-590q0 -74 -36 -114.5t-107 -40.5z" />
    <glyph glyph-name="Eth.small" horiz-adv-x="637" 
d="M337 226h-95v-176h73q119 0 119 199q0 103 -33 149.5t-86 46.5h-73v-169h95v-50zM97 0v226h-70v50h70v219h228q121 0 191 -71.5t70 -175.5q0 -106 -70 -177t-191 -71h-228z" />
    <glyph glyph-name="Thorn.small" horiz-adv-x="558" 
d="M284 355h-42v-192h42q75 0 75 98q0 94 -75 94zM294 112h-52v-112h-145v495h145v-90h52q106 0 161.5 -37.5t55.5 -106.5q0 -70 -55.5 -109.5t-161.5 -39.5z" />
    <glyph glyph-name="a.superior" horiz-adv-x="341" 
d="M163 347q16 0 26 11.5t10 27.5v44l-21 -4q-25 -5 -37 -14.5t-12 -28.5q0 -16 9.5 -26t24.5 -10zM199 310v24q-27 -31 -82 -31q-35 0 -58.5 17.5t-23.5 50.5q0 38 28.5 58t83.5 30l52 9v29q0 26 -14.5 39.5t-35.5 13.5q-55 0 -59 -54h-36q2 48 35.5 72.5t86.5 24.5
q124 0 124 -115v-168h-101z" />
    <glyph glyph-name="b.superior" horiz-adv-x="393" 
d="M230 303q-23 0 -47.5 12t-38.5 38v-43h-101v478h101v-246q14 26 41 38.5t51 12.5q60 0 96 -42t36 -103q0 -60 -37.5 -102.5t-100.5 -42.5zM144 448q0 -44 20.5 -71t43.5 -27q55 0 55 98t-52 98q-26 0 -46.5 -26.5t-20.5 -71.5z" />
    <glyph glyph-name="c.superior" horiz-adv-x="325" 
d="M196 543q-34 0 -53 -23.5t-19 -67.5q0 -99 72 -99q60 0 70 53h36q-2 -45 -33.5 -74t-87.5 -29q-70 0 -113 38t-43 105q0 66 41.5 106.5t114.5 40.5q56 0 87.5 -29t33.5 -74h-36q-10 53 -70 53z" />
    <glyph glyph-name="d.superior" horiz-adv-x="393" 
d="M249 448q0 46 -19 72t-47 26q-53 0 -53 -98t52 -98q28 0 47.5 26.5t19.5 71.5zM249 310v43q-14 -26 -40 -38t-52 -12q-60 0 -96 42t-36 103q0 60 37.5 102.5t100.5 42.5q61 0 86 -48v243h101v-478h-101z" />
    <glyph glyph-name="e.superior" horiz-adv-x="343" 
d="M179 556q-42 0 -48 -76h89q0 76 -41 76zM315 404q-2 -42 -37 -71.5t-94 -29.5q-73 0 -116 38t-43 106q0 61 42 103.5t110 42.5q70 0 106 -40.5t36 -108.5h-189q4 -91 74 -91q26 0 47.5 13.5t27.5 37.5h36z" />
    <glyph glyph-name="f.superior" horiz-adv-x="234" 
d="M243 548h-84v-238h-101v238h-51v38h51v48q0 81 34.5 120.5t94.5 39.5q44 0 70.5 -25.5t28.5 -63.5h-27q-9 56 -68 56q-35 0 -53.5 -22t-18.5 -58q0 -64 40 -95h84v-38z" />
    <glyph glyph-name="g.superior" horiz-adv-x="336" 
d="M123 489q0 -54 35 -54q36 0 36 59q0 58 -35 58q-36 0 -36 -63zM319 267q0 -61 -52 -90.5t-126 -29.5q-53 0 -87 16.5t-34 46.5q0 32 41 61q-36 20 -36 57q0 18 8 34t15.5 24t24.5 24q-55 24 -55 79q0 46 37 75t103 29t103 -26l63 55h2v-84q-19 2 -38 0q11 -20 11 -44
q0 -44 -37.5 -72t-103.5 -28q-29 0 -48 4q-16 -12 -16 -28q0 -19 30 -19h93q49 0 75.5 -24t26.5 -60zM154 192q41 0 63 11t22 28q0 28 -35 28h-103q-15 -17 -15 -36q0 -31 68 -31z" />
    <glyph glyph-name="h.superior" horiz-adv-x="381" 
d="M43 788h101v-254q10 27 35 43t59 16q47 0 74.5 -27t27.5 -78v-178h-102v164q0 69 -38 69q-23 0 -39.5 -25t-16.5 -50v-158h-101v478z" />
    <glyph glyph-name="i.superior" horiz-adv-x="197" 
d="M148 642h-101v93h101v-93zM148 586v-276h-101v276h101z" />
    <glyph glyph-name="j.superior" horiz-adv-x="190" 
d="M140 735v-93h-101v93h101zM142 586v-259q0 -14 1 -41t1 -36q0 -48 -33 -75.5t-94 -27.5q-13 0 -25 2v36q6 -2 12 -2q20 0 29 13t9 48q0 7 -1 37.5t-1 47.5v257h102z" />
    <glyph glyph-name="k.superior" horiz-adv-x="399" 
d="M144 788v-478h-101v478h101zM380 310h-127l-101 145l132 131h81l-122 -99z" />
    <glyph glyph-name="l.superior" horiz-adv-x="187" 
d="M144 788v-478h-101v478h101z" />
    <glyph glyph-name="m.superior" horiz-adv-x="564" 
d="M144 468v-158h-101v276h101v-52q10 27 33 43t53 16q37 0 63 -17.5t36 -49.5q27 67 95 67q42 0 70.5 -26.5t28.5 -72.5v-184h-102v164q0 39 -7.5 54t-25.5 15q-24 0 -39 -24.5t-15 -50.5v-158h-102v164q0 38 -8.5 53.5t-26.5 15.5q-23 0 -38 -24.5t-15 -50.5z" />
    <glyph glyph-name="o.superior" horiz-adv-x="376" 
d="M25 442q0 64 44 107.5t120 43.5q77 0 120 -39.5t43 -105.5q0 -63 -43.5 -104t-119.5 -41q-79 0 -121.5 36.5t-42.5 102.5zM130 448q0 -56 14.5 -78.5t44.5 -22.5q59 0 59 101q0 56 -14.5 78.5t-44.5 22.5q-59 0 -59 -101z" />
    <glyph glyph-name="p.superior" horiz-adv-x="393" 
d="M144 448q0 -44 20.5 -71t44.5 -27q54 0 54 98t-52 98q-26 0 -46.5 -26.5t-20.5 -71.5zM230 303q-23 0 -47.5 12t-38.5 38v-199h-101v432h101v-44q14 26 41 38.5t51 12.5q60 0 96 -42t36 -103q0 -60 -37.5 -102.5t-100.5 -42.5z" />
    <glyph glyph-name="q.superior" horiz-adv-x="393" 
d="M350 154h-101v199q-14 -26 -40 -38t-52 -12q-60 0 -96 42t-36 103q0 60 37.5 102.5t100.5 42.5q61 0 86 -48v41h101v-432zM249 448q0 46 -19 72t-47 26q-53 0 -53 -98t52 -98q28 0 47.5 26.5t19.5 71.5z" />
    <glyph glyph-name="r.superior" horiz-adv-x="283" 
d="M43 310v276h101v-65q34 72 99 72q15 0 27 -2v-80q-18 7 -50 7q-36 0 -56 -14.5t-20 -40.5v-153h-101z" />
    <glyph glyph-name="s.superior" horiz-adv-x="286" 
d="M136 339q41 0 41 27q0 4 -0.5 7.5t-2.5 6t-4 4.5t-5.5 4t-5.5 3.5t-7 3t-7.5 2t-8.5 2t-8 2.5q-102 30 -102 101q0 40 30 65.5t82 25.5q91 0 107 -89h-36q-16 54 -58 54t-42 -28q0 -11 8 -18.5t16 -11t26 -8.5q53 -17 78 -37t25 -61q0 -45 -34.5 -68t-88.5 -23
q-109 0 -117 101h36q14 -65 78 -65z" />
    <glyph glyph-name="t.superior" horiz-adv-x="276" 
d="M256 404q-2 -52 -23.5 -76.5t-67.5 -24.5q-103 0 -103 103v142h-51v38h51q21 11 40.5 43.5t29.5 66.5h31v-110h80v-38h-80v-148q0 -48 27 -48q29 0 30 52h36z" />
    <glyph glyph-name="u.superior" horiz-adv-x="375" 
d="M41 402v184h102v-170q0 -63 34 -63q22 0 38 25t16 50v158h101v-276h-101v49q-8 -26 -31 -41t-54 -15q-48 0 -76.5 26t-28.5 73z" />
    <glyph glyph-name="v.superior" horiz-adv-x="334" 
d="M142 307l-131 279h118l68 -161l71 161h55l-130 -279h-51z" />
    <glyph glyph-name="w.superior" horiz-adv-x="517" 
d="M140 307l-129 279h117l66 -159l70 159h52l81 -153l55 153h54l-109 -279h-51l-80 165l-77 -165h-49z" />
    <glyph glyph-name="x.superior" horiz-adv-x="378" 
d="M235 310l-73 96l-82 -96h-61l114 128l-114 148h122l61 -89l76 89h61l-109 -120l129 -156h-124z" />
    <glyph glyph-name="y.superior" horiz-adv-x="331" 
d="M26 147v78q54 0 75 9.5t38 43.5l13 31l-141 277h108l81 -158l64 158h56l-128 -304q-36 -85 -68.5 -110t-97.5 -25z" />
    <glyph glyph-name="z.superior" horiz-adv-x="295" 
d="M22 310v35l131 203h-125v38h243v-36l-131 -200h133v-40h-251z" />
    <glyph glyph-name="grave.cap" horiz-adv-x="500" 
d="M297 830l61 -120h-67l-149 120h155z" />
    <glyph glyph-name="acute.cap" horiz-adv-x="500" 
d="M203 830h155l-149 -120h-67z" />
    <glyph glyph-name="circumflex.cap" horiz-adv-x="500" 
d="M250 759l-100 -49h-37l99 120h76l99 -120h-37z" />
    <glyph glyph-name="caron.cap" horiz-adv-x="500" 
d="M250 781l100 49h37l-99 -120h-76l-99 120h37z" />
    <glyph glyph-name="caronSlovak" horiz-adv-x="501" 
d="M190 735h136l-104 -150h-47z" />
    <glyph glyph-name="tilde.cap" horiz-adv-x="501" 
d="M329 830h45q0 -120 -77 -120q-26 0 -43 11t-28.5 22t-23.5 11q-30 0 -30 -44h-45q0 120 78 120q30 0 56 -21t37 -21q31 0 31 42z" />
    <glyph glyph-name="dieresis.cap" horiz-adv-x="500" 
d="M211 837v-116h-110v116h110zM396 837v-116h-110v116h110z" />
    <glyph glyph-name="macron.cap" horiz-adv-x="500" 
d="M124 830h251v-81h-251v81z" />
    <glyph glyph-name="breve.cap" horiz-adv-x="500" 
d="M251 782q23 0 45.5 12.5t22.5 35.5h55q0 -54 -36.5 -87t-86.5 -33q-56 0 -90 33t-34 87h55q0 -23 21 -35.5t48 -12.5z" />
    <glyph glyph-name="ring.cap" horiz-adv-x="500" 
d="M250 710q-46 0 -72.5 19.5t-26.5 55.5q0 35 26.5 55t72.5 20t72.5 -20t26.5 -55q0 -36 -26.5 -55.5t-72.5 -19.5zM250 753q19 0 31.5 8t12.5 24t-12.5 24t-31.5 8q-42 0 -42 -32t42 -32z" />
    <glyph glyph-name="hungarumlaut.cap" horiz-adv-x="500" 
d="M275 830h111l-115 -120h-27zM135 830h111l-115 -120h-27z" />
    <glyph glyph-name="dotaccent.cap" horiz-adv-x="500" 
d="M321 721h-140v136h140v-136z" />
    <glyph glyph-name="commaaccent.alt" horiz-adv-x="501" 
d="M311 548h-136l104 150h47z" />
    <glyph glyph-name="hyphen.cap" horiz-adv-x="335" 
d="M310 280h-285v103h285v-103z" />
    <glyph glyph-name="exclamdown.cap" horiz-adv-x="275" 
d="M71 527v132h132v-132h-132zM66 0q0 112 21.5 238t21.5 213h55q0 -87 21.5 -213t21.5 -238h-141z" />
    <glyph glyph-name="questiondown.cap" horiz-adv-x="465" 
d="M189 527v132h132v-132h-132zM279 49q125 0 131 128h49q-5 -88 -61 -137.5t-152 -49.5t-157 42t-61 106q0 43 15.5 72.5t35 42.5t51.5 33t50 37q33 30 39.5 48.5t6.5 78.5h55q0 -74 -7 -95.5t-45 -69.5q-49 -62 -49 -130q0 -106 99 -106z" />
    <glyph glyph-name="guilsinglleft.cap" horiz-adv-x="350" 
d="M172 328l139 -202h-71l-201 188v28l201 188h71z" />
    <glyph glyph-name="guilsinglright.cap" horiz-adv-x="350" 
d="M178 328l-139 202h71l201 -188v-28l-201 -188h-71z" />
    <glyph glyph-name="guillemotleft.cap" horiz-adv-x="560" 
d="M172 328l139 -202h-71l-201 188v28l201 188h71zM382 328l139 -202h-71l-201 188v28l201 188h71z" />
    <glyph glyph-name="guillemotright.cap" horiz-adv-x="560" 
d="M178 328l-139 202h71l201 -188v-28l-201 -188h-71zM388 328l-139 202h71l201 -188v-28l-201 -188h-71z" />
    <glyph glyph-name="endash.cap" horiz-adv-x="610" 
d="M555 290h-500v73h500v-73z" />
    <glyph glyph-name="emdash.cap" horiz-adv-x="1000" 
d="M975 290h-950v73h950v-73z" />
    <glyph glyph-name="periodcentered.cap" horiz-adv-x="275" 
d="M71 263v132h132v-132h-132z" />
    <glyph glyph-name="parenleft.cap" horiz-adv-x="339" 
d="M303 719q-79 -27 -126.5 -132.5t-47.5 -255.5t47.5 -255.5t126.5 -132.5l-10 -44q-116 30 -186.5 146t-70.5 286q0 169 70.5 285t186.5 146z" />
    <glyph glyph-name="parenright.cap" horiz-adv-x="339" 
d="M36 719l10 43q116 -30 186.5 -146t70.5 -285q0 -170 -70.5 -286t-186.5 -146l-10 44q79 27 126.5 132.5t47.5 255.5t-47.5 255.5t-126.5 132.5z" />
    <glyph glyph-name="parenleft.small" horiz-adv-x="289" 
d="M253 529q-51 -20 -84 -97t-33 -184t33 -184t84 -97l-9 -43q-95 22 -151.5 109t-56.5 215t56.5 214.5t151.5 108.5z" />
    <glyph glyph-name="parenright.small" horiz-adv-x="289" 
d="M36 -34q51 20 84 97t33 184t-33 184t-84 97l9 43q95 -22 151.5 -109t56.5 -215t-56.5 -214.5t-151.5 -108.5z" />
    <glyph glyph-name="bracketleft.cap" horiz-adv-x="339" 
d="M309 719h-136v-776h136v-44h-229v864h229v-44z" />
    <glyph glyph-name="bracketright.cap" horiz-adv-x="339" 
d="M30 -101v44h136v776h-136v44h229v-864h-229z" />
    <glyph glyph-name="bracketleft.small" horiz-adv-x="297" 
d="M267 528h-97v-562h97v-43h-187v648h187v-43z" />
    <glyph glyph-name="bracketright.small" horiz-adv-x="297" 
d="M30 -34h97v562h-97v43h187v-648h-187v43z" />
    <glyph glyph-name="braceleft.cap" horiz-adv-x="359" 
d="M132 329q53 -3 80.5 -35t27.5 -64t-9 -90.5t-9 -107.5q0 -45 18 -67t49 -22h40v-44h-50q-73 0 -109 37t-36 98q0 52 14.5 110.5t14.5 84.5q0 29 -16.5 53.5t-47.5 24.5h-65v49h65q31 0 47.5 25t16.5 53q0 26 -14.5 85t-14.5 110q0 61 36 97.5t109 36.5h50v-44h-40
q-31 0 -49 -22t-18 -66q0 -48 9 -106.5t9 -91.5q0 -31 -27.5 -63t-80.5 -37v-4z" />
    <glyph glyph-name="braceright.cap" horiz-adv-x="359" 
d="M227 329v4q-53 5 -80.5 37t-27.5 63q0 33 9 91.5t9 106.5q0 44 -18 66t-49 22h-40v44h50q73 0 109 -36.5t36 -97.5q0 -51 -14.5 -110t-14.5 -85q0 -28 16.5 -53t47.5 -25h65v-49h-65q-31 0 -47.5 -24.5t-16.5 -53.5q0 -26 14.5 -84.5t14.5 -110.5q0 -61 -36 -98t-109 -37
h-50v44h40q31 0 49 22t18 67q0 49 -9 107.5t-9 90.5t27.5 64t80.5 35z" />
    <glyph glyph-name="braceleft.small" horiz-adv-x="277" 
d="M109 246q37 -3 56.5 -28t19.5 -57q0 -22 -6.5 -63t-6.5 -75q0 -57 45 -57h30v-43h-38q-61 0 -92 26.5t-31 74.5q0 37 10.5 78t10.5 59q0 32 -11.5 47.5t-41.5 15.5h-28v47h28q30 0 41.5 15.5t11.5 47.5q0 19 -10.5 60t-10.5 77q0 48 31 74t92 26h38v-43h-30
q-45 0 -45 -56q0 -33 6.5 -74t6.5 -64q0 -31 -19.5 -56.5t-56.5 -28.5v-3z" />
    <glyph glyph-name="braceright.small" horiz-adv-x="276" 
d="M168 248q-37 3 -56.5 28t-19.5 57q0 22 6.5 63t6.5 75q0 57 -45 57h-30v43h38q61 0 92 -26.5t31 -74.5q0 -37 -10.5 -78t-10.5 -59q0 -32 11.5 -47.5t41.5 -15.5h28v-47h-28q-30 0 -41.5 -15.5t-11.5 -47.5q0 -19 10.5 -60t10.5 -77q0 -48 -31 -74t-92 -26h-38v43h30
q45 0 45 56q0 33 -6.5 74t-6.5 64q0 31 19.5 56.5t56.5 28.5v3z" />
    <glyph glyph-name="at.small" horiz-adv-x="656" 
d="M315 -19q-58 0 -106.5 11.5t-88.5 36t-62.5 68.5t-22.5 104q0 134 84 217.5t234 83.5q127 0 197.5 -59t70.5 -151q0 -81 -48.5 -138.5t-126.5 -57.5q-67 0 -82 32q-33 -32 -86 -32q-49 0 -79 30.5t-30 76.5q0 81 47.5 137t122.5 56q44 0 72 -24q15 4 32 17h46l-40 -213
q-2 -10 -2 -17q0 -20 17 -20q29 0 51.5 51t22.5 125q0 70 -53.5 108t-129.5 38q-107 0 -172.5 -65.5t-65.5 -191.5q0 -91 57 -136t140 -45q91 0 159 36l12 -37q-29 -17 -76.5 -29t-93.5 -12zM318 143q23 0 40 16q0 13 3 28l26 153q-15 12 -39 12q-32 0 -54 -40.5t-22 -102.5
q0 -66 46 -66z" />
    <glyph glyph-name="at.cap" horiz-adv-x="811" 
d="M388 -19q-72 0 -133 15t-111.5 48t-79.5 91.5t-29 138.5q0 170 108.5 286t294.5 116q158 0 248 -79t90 -201q0 -100 -60.5 -181t-152.5 -81q-75 0 -96 44q-45 -44 -123 -44q-68 0 -102.5 38t-34.5 98q0 113 65 188.5t163 75.5q54 0 92 -30q23 11 32 21h47l-51 -279
q-4 -26 -4 -34q0 -34 23 -34q43 0 73.5 71.5t30.5 176.5q0 101 -68 154.5t-169 53.5q-142 0 -226 -90t-84 -266q0 -65 22 -116t58 -80t76 -43.5t82 -14.5q136 0 230 47l15 -35q-38 -23 -101.5 -39t-124.5 -16zM387 184q39 0 71 29v8q0 16 3 34l37 212q-28 23 -70 23
q-51 0 -81 -58.5t-30 -152.5q0 -95 70 -95z" />
    <glyph glyph-name="zero.slash" 
d="M275 -10q-98 0 -164 68l-41 -58h-53l65 93q-65 94 -65 238q0 147 70 243t188 96q98 0 164 -68l41 58h53l-65 -93q65 -93 65 -236q0 -147 -70 -244t-188 -97zM169 331q0 -55 5 -107l193 275q-25 117 -92 117q-106 0 -106 -285zM275 44q106 0 106 287q0 54 -5 106
l-193 -275q26 -118 92 -118z" />
    <glyph glyph-name="numbersign.LP" horiz-adv-x="551" 
d="M319 276l23 94h-107l-23 -94h107zM261 40l35 145h-107l-35 -145h-43l35 145h-122l25 91h120l23 94h-128l24 91h126l39 161h43l-39 -161h107l39 161h43l-39 -161h120l-25 -91h-117l-23 -94h126l-25 -91h-124l-35 -145h-43z" />
    <glyph glyph-name="Euro.LP" horiz-adv-x="580" 
d="M546 157q-6 -73 -53 -120t-128 -47q-113 0 -181 65t-89 175h-75v53h68q-1 13 -1 40q0 17 2 47h-69v53h77q23 109 92 178t171 69q81 0 128 -47t53 -120h-52q-4 50 -32.5 79.5t-78.5 29.5q-64 0 -99.5 -45t-45.5 -144h232v-53h-236q-1 -15 -1 -47q0 -27 1 -40h176v-53h-172
q11 -97 48.5 -139.5t101.5 -42.5q49 0 77.5 29.5t33.5 79.5h52z" />
    <glyph glyph-name="dollar.LP" horiz-adv-x="510" 
d="M236 423q28 -14 50 -24v220h-15q-18 0 -35 -3v-193zM153 527q0 -49 40 -79v152q-40 -24 -40 -73zM242 41q25 0 44 4v194l-50 24v-222h6zM366 138q0 52 -37 78v-154q37 24 37 76zM243 -10h-7v-85h-43v89q-72 11 -112.5 53.5t-44.5 109.5h52q7 -94 105 -112v240
q-74 39 -108.5 80.5t-34.5 119.5q0 64 37 111t106 65v89h43v-82q22 2 34 2h16v80h43v-86q59 -13 91.5 -52.5t36.5 -98.5h-52q-6 78 -76 99v-235q81 -43 115.5 -87.5t34.5 -110.5q0 -146 -150 -180v-94h-43v87q-28 -2 -43 -2z" />
    <glyph glyph-name="cent.LP" horiz-adv-x="490" 
d="M175 309q0 -104 47 -140l49 290q-96 -16 -96 -150zM271 80q-14 0 -21 1l-22 -132h-43l23 137q-77 17 -123 72.5t-46 140.5q0 99 62 163t171 64h10l22 128h44l-23 -135q54 -16 87.5 -59.5t35.5 -99.5h-33q-9 42 -35.5 68t-64.5 31l-53 -309q15 -3 32 -3q46 0 79 21.5
t44 62.5h33q-4 -64 -51.5 -107.5t-127.5 -43.5z" />
    <glyph glyph-name="sterling.LP" 
d="M502 128v-129h-453v46q84 70 106 102t22 81q0 33 -22 67h-126v53h88q-50 69 -50 142q0 80 60.5 130t160.5 50q92 0 144.5 -54t57.5 -143h-52q-4 63 -38 101t-93 38q-41 0 -70.5 -27t-29.5 -78q0 -25 9 -49t18.5 -38t28 -38t25.5 -34h166v-53h-141q4 -13 4 -31
q0 -68 -106 -136h291z" />
    <glyph glyph-name="florin.LP" horiz-adv-x="529" 
d="M434 295h-156l-48 -415h-147l50 415h-124v53h130l12 99q5 43 18 79.5t37 70.5t64.5 53.5t93.5 19.5q74 0 114.5 -38.5t44.5 -108.5h-52q-9 83 -78 83q-38 0 -62 -31.5t-33 -110.5l-14 -116h150v-53z" />
    <glyph glyph-name="yen.LP" 
d="M504 155h-149v-155h-145v155h-152v53h152v87h-152v53h140l-158 312h162l130 -257l120 257h61l-151 -312h141v-53h-148v-87h149v-53z" />
    <glyph glyph-name="zero.slashLP" horiz-adv-x="590" 
d="M295 -10q-98 0 -164 68l-41 -58h-53l65 93q-65 94 -65 238q0 147 70 243t188 96q98 0 164 -68l41 58h53l-65 -93q65 -93 65 -236q0 -147 -70 -244t-188 -97zM189 331q0 -55 5 -107l193 275q-25 117 -92 117q-106 0 -106 -285zM295 44q106 0 106 287q0 54 -5 106
l-193 -275q26 -118 92 -118z" />
    <glyph glyph-name="zero.LP" horiz-adv-x="590" 
d="M295 -10q-118 0 -188 97t-70 244t70 243t188 96t188 -96t70 -243t-70 -244t-188 -97zM295 616q-106 0 -106 -285q0 -287 106 -287t106 287q0 285 -106 285z" />
    <glyph glyph-name="one.LP" horiz-adv-x="430" 
d="M201 0v538l-140 -120l-36 53l252 189h69v-660h-145z" />
    <glyph glyph-name="two.LP" horiz-adv-x="520" 
d="M477 0h-441v44l108 124q69 79 95 121q64 101 64 204q0 59 -27.5 89t-73.5 30q-53 0 -84 -37.5t-35 -111.5h-52q7 97 60.5 152t147.5 55q103 0 159.5 -49t56.5 -136q0 -75 -45.5 -132.5t-207.5 -204.5q-7 -7 -11 -10h286v-138z" />
    <glyph glyph-name="three.LP" 
d="M245 -10q-196 0 -210 198h52q3 -69 35 -104.5t106 -35.5q58 0 89.5 34.5t31.5 99.5q0 129 -90 129h-72v57h72q72 0 72 119q0 60 -28.5 92.5t-75.5 32.5q-54 0 -85 -32.5t-34 -96.5h-52q6 88 58.5 137.5t149.5 49.5q100 0 159.5 -47t59.5 -120q0 -53 -32.5 -92t-91.5 -57
q66 -21 103.5 -67t37.5 -105q0 -82 -67 -137t-188 -55z" />
    <glyph glyph-name="four.LP" horiz-adv-x="530" 
d="M519 147h-96v-147h-140v147h-256v42q63 93 100.5 161.5t52.5 126t18 90t3 93.5h156q0 -25 -4 -48t-8.5 -41t-20 -45.5t-25.5 -44.5t-38.5 -55t-45 -59.5t-59.5 -76.5t-69 -88h196v108q31 25 51.5 73t21.5 92h67v-273h96v-55z" />
    <glyph glyph-name="five.LP" horiz-adv-x="510" 
d="M244 -10q-93 0 -147 50.5t-60 139.5h52q3 -65 37 -98.5t93 -33.5q56 0 84.5 36t28.5 120q0 137 -102 137q-73 0 -112 -62h-46v381h373v-138h-317v-162q56 45 144 45t150 -56.5t62 -139.5q0 -99 -64 -159t-176 -60z" />
    <glyph glyph-name="six.LP" horiz-adv-x="510" 
d="M500 199q0 -92 -66 -151t-170 -59q-113 0 -178.5 85.5t-65.5 234.5q0 161 73.5 261t197.5 100q78 0 129.5 -44t59.5 -137h-54q-6 66 -38 96.5t-80 30.5q-31 0 -53 -10.5t-42 -39t-30.5 -87t-11.5 -147.5q51 66 142 66q78 0 132.5 -55t54.5 -144zM265 41q38 0 63.5 36.5
t25.5 119.5q0 68 -22 103.5t-60 35.5q-74 0 -100 -74q3 -125 24 -173t69 -48z" />
    <glyph glyph-name="seven.LP" horiz-adv-x="480" 
d="M277 0h-152q0 40 6 74.5t13.5 60.5t31 70.5t42 75.5t64.5 107t80 134h-314v138h420v-44q-48 -88 -82.5 -155t-55.5 -121t-33 -87t-16.5 -72t-5.5 -56.5t0.5 -60.5t1.5 -64z" />
    <glyph glyph-name="eight.LP" horiz-adv-x="570" 
d="M285 -10q-116 0 -183.5 50.5t-67.5 131.5q0 59 33.5 107t96.5 72q-48 22 -74.5 60.5t-26.5 84.5q0 74 61 124t162 50q102 0 162.5 -47t60.5 -120q0 -46 -27 -86.5t-76 -64.5q63 -23 96.5 -67.5t33.5 -102.5q0 -87 -65.5 -139.5t-185.5 -52.5zM214 488q0 -66 18.5 -91.5
t53.5 -25.5q71 0 71 124q0 68 -18.5 94t-52.5 26q-72 0 -72 -127zM185 182q0 -77 26.5 -107.5t73.5 -30.5q100 0 100 148q0 75 -26 104.5t-74 29.5q-100 0 -100 -144z" />
    <glyph glyph-name="nine.LP" horiz-adv-x="510" 
d="M238 314q74 0 101 75q-3 130 -24 179.5t-70 49.5q-38 0 -63.5 -38.5t-25.5 -126.5q0 -68 22 -103.5t60 -35.5zM218 -11q-78 0 -129.5 44t-59.5 137h54q6 -66 38 -96.5t80 -30.5q31 0 53 10t42 38t31 84.5t12 142.5q-51 -66 -142 -66q-78 0 -132.5 55t-54.5 144
q0 96 66 157.5t170 61.5q113 0 178.5 -85.5t65.5 -234.5q0 -161 -73.5 -261t-198.5 -100z" />
    <glyph glyph-name="numbersign.OT" 
d="M316 201l24 94h-107l-24 -94h107zM266 0l28 110h-107l-28 -110h-43l28 110h-120l25 91h117l24 94h-126l24 91h125l27 109h43l-27 -109h107l27 109h43l-27 -109h120l-25 -91h-118l-24 -94h128l-25 -91h-125l-28 -110h-43z" />
    <glyph glyph-name="Euro.OT" 
d="M545 157q-5 -73 -57.5 -120t-140.5 -47q-103 0 -167.5 45.5t-84.5 129.5h-75v53h68q-1 7 -1 23q0 12 2 34h-69v53h78q22 83 84.5 130t155.5 47q88 0 141.5 -47.5t58.5 -119.5h-52q-4 48 -37 78.5t-84 30.5q-106 0 -130 -119h180v-53h-186q-1 -11 -1 -34q0 -16 1 -23h126
v-53h-120q27 -117 137 -117q51 0 84 30t37 79h52z" />
    <glyph glyph-name="dollar.OT" 
d="M299 319l7 -2v136q-8 1 -24 1q-18 0 -26 -1v-123q7 -2 22 -5.5t21 -5.5zM173 392q0 -19 9 -29.5t31 -19.5v100q-40 -17 -40 -51zM268 41q14 0 38 2v142q-7 2 -50 12v-156h12zM386 108q0 46 -37 63v-117q37 16 37 54zM268 -10h-12v-85h-43v89q-73 12 -112.5 54.5
t-44.5 109.5h52q7 -94 105 -112v162q-75 21 -109 52.5t-34 86.5q0 57 37 97.5t106 54.5v81h43v-76q8 1 25 1t25 -1v76h43v-82q120 -27 128 -140h-52q-6 68 -76 88v-142q89 -29 119.5 -65.5t30.5 -89.5q0 -124 -150 -152v-92h-43v86q-12 -1 -38 -1z" />
    <glyph glyph-name="cent.OT" 
d="M205 250q0 -105 48 -141l49 291q-97 -14 -97 -150zM301 21q-13 0 -19 1l-20 -117h-43l20 122q-77 16 -123.5 71.5t-46.5 141.5q0 99 62 163t171 64h11l19 113h44l-20 -121q53 -16 86.5 -59t35.5 -99h-33q-8 41 -35 67.5t-64 31.5l-53 -309q15 -3 31 -3q46 0 79 21.5
t44 62.5h33q-4 -64 -51.5 -107.5t-127.5 -43.5z" />
    <glyph glyph-name="sterling.OT" 
d="M502 128v-129h-453v46q75 54 96.5 76.5t21.5 51.5q0 21 -25 55h-113v53h76q-18 34 -18 64q0 72 55 116t156 44q88 0 137.5 -43t54.5 -114h-52q-3 45 -32 72t-83 27q-41 0 -68.5 -22t-27.5 -63q0 -28 41 -81h186v-53h-151q4 -8 4 -19q0 -48 -67 -81h262z" />
    <glyph glyph-name="florin.OT" horiz-adv-x="500" 
d="M454 228h-163l-41 -348h-147l42 348h-116v53h123v1q5 43 18 79.5t37 70.5t64.5 53.5t93.5 19.5q74 0 114.5 -38.5t44.5 -108.5h-52q-9 83 -78 83q-38 0 -62 -31.5t-33 -110.5l-2 -18h157v-53z" />
    <glyph glyph-name="yen.OT" 
d="M503 118h-148v-118h-145v118h-152v53h152v57h-152v53h118l-146 214h175l129 -196l125 196h66l-141 -214h119v-53h-148v-57h148v-53z" />
    <glyph glyph-name="zero.slashOT" 
d="M275 -10q-96 0 -162 50l-37 -40h-60l64 69q-63 71 -63 178q0 112 69.5 185t188.5 73q95 0 161 -49l36 39h60l-63 -69q64 -70 64 -179q0 -112 -69.5 -184.5t-188.5 -72.5zM169 247q0 -39 5 -76l190 206q-27 74 -89 74q-106 0 -106 -204zM275 44q106 0 106 203q0 41 -5 79
l-190 -207q25 -75 89 -75z" />
    <glyph glyph-name="zero.OT" 
d="M275 -10q-119 0 -188.5 72.5t-69.5 184.5t69.5 185t188.5 73t188.5 -73t69.5 -185t-69.5 -184.5t-188.5 -72.5zM275 44q106 0 106 203q0 204 -106 204t-106 -204q0 -203 106 -203z" />
    <glyph glyph-name="one.OT" 
d="M251 0v373l-140 -120l-36 53l252 189h69v-495h-145z" />
    <glyph glyph-name="two.OT" 
d="M492 0h-431v44l124 106q50 42 72.5 65t41.5 60.5t19 82.5q0 89 -84 89q-49 0 -77.5 -30t-31.5 -89h-52q6 83 58 130t146 47q95 0 144 -37t49 -107q0 -22 -6.5 -40t-15 -31t-31 -31.5t-40 -31t-59 -40.5t-70.5 -49h244v-138z" />
    <glyph glyph-name="three.OT" 
d="M245 -175q-196 0 -210 198h52q3 -69 35 -104.5t106 -35.5q58 0 89.5 34.5t31.5 99.5q0 129 -90 129h-72v57h72q72 0 72 119q0 60 -28.5 92.5t-75.5 32.5q-54 0 -85 -32.5t-34 -96.5h-52q6 88 58.5 137.5t149.5 49.5q100 0 159.5 -47t59.5 -120q0 -53 -32.5 -92t-91.5 -57
q66 -21 103.5 -67t37.5 -105q0 -82 -67 -137t-188 -55z" />
    <glyph glyph-name="four.OT" 
d="M520 0h-96v-165h-140v165h-256v42q63 89 100.5 155t52.5 121.5t18 86.5t3 90h156q0 -21 -2 -39t-9.5 -39t-13 -35.5t-22 -40t-27 -40.5t-37 -49t-43 -54t-54.5 -67t-62 -76h196v90q31 25 51.5 73t21.5 92h67v-255h96v-55z" />
    <glyph glyph-name="five.OT" 
d="M264 -175q-93 0 -147 50.5t-60 139.5h52q3 -65 37 -98.5t93 -33.5q56 0 84.5 36t28.5 120q0 137 -102 137q-73 0 -112 -62h-46v381h373v-138h-317v-162q56 45 144 45t150 -56.5t62 -139.5q0 -99 -64 -159t-176 -60z" />
    <glyph glyph-name="six.OT" 
d="M520 199q0 -92 -66 -151t-170 -59q-113 0 -178.5 85.5t-65.5 234.5q0 161 73.5 261t197.5 100q78 0 129.5 -44t59.5 -137h-54q-6 66 -38 96.5t-80 30.5q-31 0 -53 -10.5t-42 -39t-30.5 -87t-11.5 -147.5q51 66 142 66q78 0 132.5 -55t54.5 -144zM285 41q38 0 63.5 36.5
t25.5 119.5q0 68 -22 103.5t-60 35.5q-74 0 -100 -74q3 -125 24 -173t69 -48z" />
    <glyph glyph-name="seven.OT" 
d="M307 -165h-152q0 40 6 74.5t13.5 60.5t31 70.5t42 75.5t64.5 107t80 134h-314v138h420v-44q-48 -88 -82.5 -155t-55.5 -121t-33 -87t-16.5 -72t-5.5 -56.5t0.5 -60.5t1.5 -64z" />
    <glyph glyph-name="eight.OT" 
d="M275 -10q-116 0 -183.5 50.5t-67.5 131.5q0 59 33.5 107t96.5 72q-48 22 -74.5 60.5t-26.5 84.5q0 74 61 124t162 50q102 0 162.5 -47t60.5 -120q0 -46 -27 -86.5t-76 -64.5q63 -23 96.5 -67.5t33.5 -102.5q0 -87 -65.5 -139.5t-185.5 -52.5zM204 488q0 -66 18.5 -91.5
t53.5 -25.5q71 0 71 124q0 68 -18.5 94t-52.5 26q-72 0 -72 -127zM175 182q0 -77 26.5 -107.5t73.5 -30.5q100 0 100 148q0 75 -26 104.5t-74 29.5q-100 0 -100 -144z" />
    <glyph glyph-name="nine.OT" 
d="M259 149q74 0 101 75q-3 130 -24 179.5t-70 49.5q-38 0 -63.5 -38.5t-25.5 -126.5q0 -68 22 -103.5t60 -35.5zM239 -176q-78 0 -129.5 44t-59.5 137h54q6 -66 38 -96.5t80 -30.5q31 0 53 10t42 38t31 84.5t12 142.5q-51 -66 -142 -66q-78 0 -132.5 55t-54.5 144
q0 96 66 157.5t170 61.5q113 0 178.5 -85.5t65.5 -234.5q0 -161 -73.5 -261t-198.5 -100z" />
    <glyph glyph-name="numbersign.OP" 
d="M326 201l24 94h-107l-24 -94h107zM276 0l28 110h-107l-28 -110h-43l28 110h-120l25 91h117l24 94h-126l24 91h125l27 109h43l-27 -109h107l27 109h43l-27 -109h120l-25 -91h-118l-24 -94h128l-25 -91h-125l-28 -110h-43z" />
    <glyph glyph-name="Euro.OP" horiz-adv-x="580" 
d="M545 157q-5 -73 -57.5 -120t-140.5 -47q-103 0 -167.5 45.5t-84.5 129.5h-75v53h68q-1 7 -1 23q0 12 2 34h-69v53h78q22 83 84.5 130t155.5 47q88 0 141.5 -47.5t58.5 -119.5h-52q-4 48 -37 78.5t-84 30.5q-106 0 -130 -119h180v-53h-186q-1 -11 -1 -34q0 -16 1 -23h126
v-53h-120q27 -117 137 -117q51 0 84 30t37 79h52z" />
    <glyph glyph-name="dollar.OP" horiz-adv-x="490" 
d="M269 319l7 -2v136q-8 1 -24 1q-18 0 -26 -1v-123q7 -2 22 -5.5t21 -5.5zM143 392q0 -19 9 -29.5t31 -19.5v100q-40 -17 -40 -51zM238 41q14 0 38 2v142q-7 2 -50 12v-156h12zM356 108q0 46 -37 63v-117q37 16 37 54zM238 -10h-12v-85h-43v89q-73 12 -112.5 54.5
t-44.5 109.5h52q7 -94 105 -112v162q-75 21 -109 52.5t-34 86.5q0 57 37 97.5t106 54.5v81h43v-76q8 1 25 1t25 -1v76h43v-82q120 -27 128 -140h-52q-6 68 -76 88v-142q89 -29 119.5 -65.5t30.5 -89.5q0 -124 -150 -152v-92h-43v86q-12 -1 -38 -1z" />
    <glyph glyph-name="cent.OP" horiz-adv-x="490" 
d="M175 250q0 -105 48 -141l49 291q-97 -14 -97 -150zM271 21q-13 0 -19 1l-20 -117h-43l20 122q-77 16 -123.5 71.5t-46.5 141.5q0 99 62 163t171 64h11l19 113h44l-20 -121q53 -16 86.5 -59t35.5 -99h-33q-8 41 -35 67.5t-64 31.5l-53 -309q15 -3 31 -3q46 0 79 21.5
t44 62.5h33q-4 -64 -51.5 -107.5t-127.5 -43.5z" />
    <glyph glyph-name="sterling.OP" 
d="M502 128v-129h-453v46q75 54 96.5 76.5t21.5 51.5q0 21 -25 55h-113v53h76q-18 34 -18 64q0 72 55 116t156 44q88 0 137.5 -43t54.5 -114h-52q-3 45 -32 72t-83 27q-41 0 -68.5 -22t-27.5 -63q0 -28 41 -81h186v-53h-151q4 -8 4 -19q0 -48 -67 -81h262z" />
    <glyph glyph-name="florin.OP" horiz-adv-x="510" 
d="M434 228h-163l-41 -348h-147l42 348h-116v53h123v1q5 43 18 79.5t37 70.5t64.5 53.5t93.5 19.5q74 0 114.5 -38.5t44.5 -108.5h-52q-9 83 -78 83q-38 0 -62 -31.5t-33 -110.5l-2 -18h157v-53z" />
    <glyph glyph-name="yen.OP" 
d="M503 118h-148v-118h-145v118h-152v53h152v57h-152v53h118l-146 214h175l129 -196l125 196h66l-141 -214h119v-53h-148v-57h148v-53z" />
    <glyph glyph-name="zero.slashOP" horiz-adv-x="590" 
d="M295 -10q-96 0 -162 50l-37 -40h-60l64 69q-63 71 -63 178q0 112 69.5 185t188.5 73q95 0 161 -49l36 39h60l-63 -69q64 -70 64 -179q0 -112 -69.5 -184.5t-188.5 -72.5zM189 247q0 -39 5 -76l190 206q-27 74 -89 74q-106 0 -106 -204zM295 44q106 0 106 203q0 41 -5 79
l-190 -207q25 -75 89 -75z" />
    <glyph glyph-name="zero.OP" horiz-adv-x="590" 
d="M295 -10q-119 0 -188.5 72.5t-69.5 184.5t69.5 185t188.5 73t188.5 -73t69.5 -185t-69.5 -184.5t-188.5 -72.5zM295 44q106 0 106 203q0 204 -106 204t-106 -204q0 -203 106 -203z" />
    <glyph glyph-name="one.OP" horiz-adv-x="430" 
d="M201 0v373l-140 -120l-36 53l252 189h69v-495h-145z" />
    <glyph glyph-name="two.OP" horiz-adv-x="513" 
d="M465 0h-431v44l124 106q50 42 72.5 65t41.5 60.5t19 82.5q0 89 -84 89q-49 0 -77.5 -30t-31.5 -89h-52q6 83 58 130t146 47q95 0 144 -37t49 -107q0 -22 -6.5 -40t-15 -31t-31 -31.5t-40 -31t-59 -40.5t-70.5 -49h244v-138z" />
    <glyph glyph-name="three.OP" 
d="M245 -175q-196 0 -210 198h52q3 -69 35 -104.5t106 -35.5q58 0 89.5 34.5t31.5 99.5q0 129 -90 129h-72v57h72q72 0 72 119q0 60 -28.5 92.5t-75.5 32.5q-54 0 -85 -32.5t-34 -96.5h-52q6 88 58.5 137.5t149.5 49.5q100 0 159.5 -47t59.5 -120q0 -53 -32.5 -92t-91.5 -57
q66 -21 103.5 -67t37.5 -105q0 -82 -67 -137t-188 -55z" />
    <glyph glyph-name="four.OP" horiz-adv-x="530" 
d="M520 0h-96v-165h-140v165h-256v42q63 89 100.5 155t52.5 121.5t18 86.5t3 90h156q0 -21 -2 -39t-9.5 -39t-13 -35.5t-22 -40t-27 -40.5t-37 -49t-43 -54t-54.5 -67t-62 -76h196v90q31 25 51.5 73t21.5 92h67v-255h96v-55z" />
    <glyph glyph-name="five.OP" horiz-adv-x="510" 
d="M244 -174q-93 0 -147 50.5t-60 139.5h52q3 -65 37 -98.5t93 -33.5q56 0 84.5 36t28.5 120q0 137 -102 137q-73 0 -112 -62h-46v381h373v-138h-317v-162q56 45 144 45t150 -56.5t62 -139.5q0 -99 -64 -159t-176 -60z" />
    <glyph glyph-name="six.OP" horiz-adv-x="510" 
d="M500 199q0 -92 -66 -151t-170 -59q-113 0 -178.5 85.5t-65.5 234.5q0 161 73.5 261t197.5 100q78 0 129.5 -44t59.5 -137h-54q-6 66 -38 96.5t-80 30.5q-31 0 -53 -10.5t-42 -39t-30.5 -87t-11.5 -147.5q51 66 142 66q78 0 132.5 -55t54.5 -144zM265 41q38 0 63.5 36.5
t25.5 119.5q0 68 -22 103.5t-60 35.5q-74 0 -100 -74q3 -125 24 -173t69 -48z" />
    <glyph glyph-name="seven.OP" horiz-adv-x="480" 
d="M277 -165h-152q0 40 6 74.5t13.5 60.5t31 70.5t42 75.5t64.5 107t80 134h-314v138h420v-44q-48 -88 -82.5 -155t-55.5 -121t-33 -87t-16.5 -72t-5.5 -56.5t0.5 -60.5t1.5 -64z" />
    <glyph glyph-name="eight.OP" horiz-adv-x="570" 
d="M285 -10q-116 0 -183.5 50.5t-67.5 131.5q0 59 33.5 107t96.5 72q-48 22 -74.5 60.5t-26.5 84.5q0 74 61 124t162 50q102 0 162.5 -47t60.5 -120q0 -46 -27 -86.5t-76 -64.5q63 -23 96.5 -67.5t33.5 -102.5q0 -87 -65.5 -139.5t-185.5 -52.5zM214 488q0 -66 18.5 -91.5
t53.5 -25.5q71 0 71 124q0 68 -18.5 94t-52.5 26q-72 0 -72 -127zM185 182q0 -77 26.5 -107.5t73.5 -30.5q100 0 100 148q0 75 -26 104.5t-74 29.5q-100 0 -100 -144z" />
    <glyph glyph-name="nine.OP" horiz-adv-x="510" 
d="M239 149q74 0 101 75q-3 130 -24 179.5t-70 49.5q-38 0 -63.5 -38.5t-25.5 -126.5q0 -68 22 -103.5t60 -35.5zM219 -176q-78 0 -129.5 44t-59.5 137h54q6 -66 38 -96.5t80 -30.5q31 0 53 10t42 38t31 84.5t12 142.5q-51 -66 -142 -66q-78 0 -132.5 55t-54.5 144
q0 96 66 157.5t170 61.5q113 0 178.5 -85.5t65.5 -234.5q0 -161 -73.5 -261t-198.5 -100z" />
    <glyph glyph-name="multiplysuperior" horiz-adv-x="353" 
d="M268 330l-89 90l-90 -90l-43 42l90 91l-88 88l42 42l88 -88l88 88l43 -43l-88 -88l89 -90z" />
    <glyph glyph-name="dividesuperior" horiz-adv-x="349" 
d="M175 514q-17 0 -28.5 11.5t-11.5 28.5q0 16 11.5 28t28.5 12q16 0 28 -12t12 -28q0 -17 -12 -28.5t-28 -11.5zM301 431h-253v59h253v-59zM175 408q16 0 28 -11.5t12 -28.5q0 -16 -12 -28t-28 -12q-17 0 -28.5 12t-11.5 28q0 17 11.5 28.5t28.5 11.5z" />
    </font>
</defs>
</svg>
