<?xml version="1.0" standalone="no"?>
<!DOCTYPE svg PUBLIC "-//W3C//DTD SVG 1.1//EN" "http://www.w3.org/Graphics/SVG/1.1/DTD/svg11.dtd" >
<svg xmlns="http://www.w3.org/2000/svg" xmlns:xlink="http://www.w3.org/1999/xlink" version="1.1">
<metadata>
Created by FontForge 20190801 at Tue Jun 16 19:05:37 2015
 By Mark Brand
Copyright 2015 Production Systems SAS - Jean-Baptiste Levee - All rights reserved - End-User License Agreement:  http://www.productiontype.com/license
</metadata>
<defs>
<font id="GranvilleItalic" horiz-adv-x="550" >
  <font-face 
    font-family="GranvilleItalic"
    font-weight="450"
    font-style="italic"
    font-stretch="normal"
    units-per-em="1000"
    panose-1="2 0 0 0 0 0 0 0 0 0"
    ascent="750"
    descent="-250"
    x-height="450"
    cap-height="660"
    bbox="-165 -364 1110 980"
    underline-thickness="63"
    underline-position="-117"
    unicode-range="U+0020-FB06"
  />
<missing-glyph horiz-adv-x="540" 
d="M-38 0v660h500v-660h-500zM-8 30h440v600h-440v-600zM195 548q-40 0 -65 -22t-27 -66h-29q0 58 39 92t98 34q60 0 99.5 -32t39.5 -81q0 -36 -11.5 -58t-43 -50t-36.5 -33q-16 -17 -19 -20.5t-9 -15t-6.5 -22t-0.5 -33.5h-41v41.5t8 27.5t12 19.5t26 28.5q24 26 34.5 48.5
t10.5 58.5q0 83 -79 83zM165 84v79h79v-79h-79z" />
    <glyph glyph-name="f_f" unicode="ff" horiz-adv-x="576" 
d="M191 535q0 -43 12 -85h174l12 66q10 56 28 99q-6 77 -83 77q-67 0 -105 -50t-38 -107zM206 -250q-13 0 -37 3l5 31q8 -2 18 -2q66 0 87 114l92 518h-171l-88 -497q-14 -79 -55.5 -123t-105.5 -44q-13 0 -37 3l5 31q8 -2 18 -2q66 0 87 114l92 518h-88l7 36h87l12 66
q16 90 65.5 149.5t135.5 59.5q39 0 66 -18.5t37 -50.5q55 89 152 89q56 0 85 -36t24 -92h-26q2 95 -84 95q-67 0 -105 -56.5t-38 -120.5q0 -43 12 -85h119l-5 -36h-117l-88 -497q-14 -79 -55.5 -123t-105.5 -44z" />
    <glyph glyph-name="fi" unicode="fi" horiz-adv-x="502" 
d="M-49 -250q-13 0 -37 3l5 31q8 -2 18 -2q66 0 87 114l92 518h-88l7 36h87l12 66q18 99 72.5 164t148.5 65q66 0 100 -36t29 -92h-26q1 46 -24.5 70.5t-79.5 24.5q-76 0 -119.5 -56.5t-43.5 -120.5q0 -43 12 -85h266l-80 -450h-85l73 414h-177l-88 -497q-14 -79 -55.5 -123
t-105.5 -44z" />
    <glyph glyph-name="fl" unicode="fl" horiz-adv-x="521" 
d="M-49 -250q-13 0 -37 3l5 31q8 -2 18 -2q66 0 87 114l92 518h-88l7 36h87l12 66q18 100 67 164.5t134 64.5q63 0 92 -45l6 35h84l-130 -735h-85l115 643q-11 69 -83 69q-67 0 -105 -56.5t-38 -120.5q0 -43 12 -85h119l-5 -36h-117l-88 -497q-14 -79 -55.5 -123t-105.5 -44
z" />
    <glyph glyph-name="f_f_i" unicode="ffi" horiz-adv-x="757" 
d="M191 535q0 -43 12 -85h174l12 66q10 54 29 95q-6 81 -84 81q-67 0 -105 -50t-38 -107zM206 -250q-13 0 -37 3l5 31q8 -2 18 -2q66 0 87 114l92 518h-171l-88 -497q-14 -79 -55.5 -123t-105.5 -44q-13 0 -37 3l5 31q10 -2 18 -2q66 0 87 114l92 518h-88l7 36h87l12 66
q16 90 65.5 149.5t135.5 59.5q83 0 105 -74q60 94 170 94q66 0 100 -36t29 -92h-26q1 46 -24.5 70.5t-79.5 24.5q-76 0 -119.5 -56.5t-43.5 -120.5q0 -43 12 -85h266l-80 -450h-85l73 414h-177l-88 -497q-14 -79 -55.5 -123t-105.5 -44z" />
    <glyph glyph-name="f_f_l" unicode="ffl" horiz-adv-x="776" 
d="M191 535q0 -43 12 -85h174l12 66q10 56 28 99q-6 77 -83 77q-67 0 -105 -50t-38 -107zM206 -250q-13 0 -37 3l5 31q8 -2 18 -2q66 0 87 114l92 518h-171l-88 -497q-14 -79 -55.5 -123t-105.5 -44q-13 0 -37 3l5 31q8 -2 18 -2q66 0 87 114l92 518h-88l7 36h87l12 66
q16 90 65.5 149.5t135.5 59.5q39 0 66 -18.5t37 -50.5q55 89 152 89q63 0 92 -45l6 35h84l-130 -735h-85l115 643q-11 69 -83 69q-67 0 -105 -56.5t-38 -120.5q0 -43 12 -85h119l-5 -36h-117l-88 -497q-14 -79 -55.5 -123t-105.5 -44z" />
    <glyph glyph-name="f_b" unicode="fb" horiz-adv-x="840" 
d="M537 32q69 0 114 74.5t45 187.5q0 123 -101 123q-52 0 -93 -41.5t-60.5 -97.5t-19.5 -112q0 -65 30.5 -99.5t84.5 -34.5zM-49 -250q-13 0 -37 3l5 31q8 -2 18 -2q66 0 87 114l92 518h-88l7 36h87l12 66q18 100 67 164.5t134 64.5q63 0 92 -45l6 35h84l-66 -374
q29 50 75 74.5t90 24.5q78 0 123 -51.5t45 -131.5q0 -116 -70.5 -202t-165.5 -86q-55 0 -94.5 27t-50.5 75l-16 -91h-85l115 643q-11 69 -83 69q-67 0 -105 -56.5t-38 -120.5q0 -43 12 -85h119l-5 -36h-117l-88 -497q-14 -79 -55.5 -123t-105.5 -44z" />
    <glyph glyph-name="f_f_b" unicode="ffb" horiz-adv-x="1095" 
d="M191 535q0 -43 12 -85h174l12 66q10 56 28 99q-6 77 -83 77q-67 0 -105 -50t-38 -107zM792 32q69 0 114 74.5t45 187.5q0 123 -101 123q-52 0 -93 -41.5t-60.5 -97.5t-19.5 -112q0 -65 30.5 -99.5t84.5 -34.5zM206 -250q-13 0 -37 3l5 31q8 -2 18 -2q66 0 87 114l92 518
h-171l-88 -497q-14 -79 -55.5 -123t-105.5 -44q-13 0 -37 3l5 31q8 -2 18 -2q66 0 87 114l92 518h-88l7 36h87l12 66q16 90 65.5 149.5t135.5 59.5q39 0 66 -18.5t37 -50.5q55 89 152 89q63 0 92 -45l6 35h84l-66 -374q29 50 75 74.5t90 24.5q78 0 123 -51.5t45 -131.5
q0 -116 -70.5 -202t-165.5 -86q-55 0 -94.5 27t-50.5 75l-16 -91h-85l115 643q-11 69 -83 69q-67 0 -105 -56.5t-38 -120.5q0 -43 12 -85h119l-5 -36h-117l-88 -497q-14 -79 -55.5 -123t-105.5 -44z" />
    <glyph glyph-name="f_h" unicode="fh" horiz-adv-x="851" 
d="M-49 -250q-13 0 -37 3l5 31q8 -2 18 -2q66 0 87 114l92 518h-88l7 36h87l12 66q18 100 67 164.5t134 64.5q61 0 90 -43l6 33h85l-67 -377q20 40 65 71t105 31q64 0 98 -32.5t34 -89.5q0 -17 -3 -35l-37 -205q-3 -15 -3 -25q0 -32 26 -32q31 0 40 52h25q-15 -104 -95 -104
q-79 0 -79 84q0 16 3 37l30 172q5 27 5 44q0 83 -83 83q-52 0 -94.5 -43t-50.5 -89l-48 -277h-85l114 648q-12 64 -82 64q-67 0 -105 -56.5t-38 -120.5q0 -43 12 -85h119l-5 -36h-117l-88 -497q-14 -79 -55.5 -123t-105.5 -44z" />
    <glyph glyph-name="f_f_h" unicode="ffh" horiz-adv-x="1106" 
d="M191 535q0 -43 12 -85h174l12 66q10 56 28 99q-6 77 -83 77q-67 0 -105 -50t-38 -107zM206 -250q-13 0 -37 3l5 31q8 -2 18 -2q66 0 87 114l92 518h-171l-88 -497q-14 -79 -55.5 -123t-105.5 -44q-13 0 -37 3l5 31q8 -2 18 -2q66 0 87 114l92 518h-88l7 36h87l12 66
q16 90 65.5 149.5t135.5 59.5q39 0 66 -18.5t37 -50.5q55 89 152 89q61 0 90 -43l6 33h85l-67 -377q20 40 65 71t105 31q64 0 98 -32.5t34 -89.5q0 -17 -3 -35l-37 -205q-3 -15 -3 -25q0 -32 26 -32q31 0 40 52h25q-15 -104 -95 -104q-79 0 -79 84q0 16 3 37l30 172
q5 27 5 44q0 83 -83 83q-52 0 -94.5 -43t-50.5 -89l-48 -277h-85l114 648q-12 64 -82 64q-67 0 -105 -56.5t-38 -120.5q0 -43 12 -85h119l-5 -36h-117l-88 -497q-14 -79 -55.5 -123t-105.5 -44z" />
    <glyph glyph-name="f_j" unicode="fj" horiz-adv-x="501" 
d="M215 -251q-12 0 -36 3l4 32q8 -2 18 -2q66 0 88 115q14 93 21 134l67 383h-177l-88 -497q-14 -79 -55.5 -123t-105.5 -44q-13 0 -37 3l5 31q8 -2 18 -2q66 0 87 114l92 518h-87l6 36h87l12 66q18 99 72.5 164t148.5 65q66 0 100 -36t29 -92h-26q1 46 -24.5 70.5
t-79.5 24.5q-76 0 -119.5 -56.5t-43.5 -120.5q0 -43 12 -85h265l-74 -422q-4 -24 -17 -112q-14 -79 -56 -123t-106 -44z" />
    <glyph glyph-name="f_f_j" unicode="ffj" horiz-adv-x="756" 
d="M191 535q0 -43 12 -85h174l12 66q10 54 29 95q-6 81 -84 81q-67 0 -105 -50t-38 -107zM470 -251q-12 0 -36 3l4 32q8 -2 18 -2q66 0 88 115q14 93 21 134l67 383h-177l-88 -497q-14 -79 -55.5 -123t-105.5 -44q-13 0 -37 3l5 31q8 -2 18 -2q66 0 87 114l92 518h-171
l-88 -497q-14 -79 -55.5 -123t-105.5 -44q-13 0 -37 3l5 31q8 -2 18 -2q66 0 87 114l92 518h-88l7 36h87l12 66q16 90 65.5 149.5t135.5 59.5q83 0 105 -74q60 94 170 94q66 0 100 -36t29 -92h-26q1 46 -24.5 70.5t-79.5 24.5q-76 0 -119.5 -56.5t-43.5 -120.5q0 -43 12 -85
h265l-74 -422q-4 -24 -17 -112q-14 -79 -56 -123t-106 -44z" />
    <glyph glyph-name="f_k" unicode="fk" horiz-adv-x="775" 
d="M699 0h-103l-156 237l121 121q60 59 92.5 80.5t77.5 21.5l-19 -91q-92 0 -142 -47l-57 -53zM-49 -250q-13 0 -37 3l5 31q8 -2 18 -2q66 0 87 114l92 518h-88l7 36h87l12 66q18 100 67 164.5t134 64.5q63 0 92 -45l6 35h84l-130 -735h-85l115 643q-11 69 -83 69
q-67 0 -105 -56.5t-38 -120.5q0 -43 12 -85h119l-5 -36h-117l-88 -497q-14 -79 -55.5 -123t-105.5 -44z" />
    <glyph glyph-name="f_f_k" unicode="ffk" horiz-adv-x="1030" 
d="M191 535q0 -43 12 -85h174l12 66q10 56 28 99q-6 77 -83 77q-67 0 -105 -50t-38 -107zM954 0h-103l-156 237l121 121q60 59 92.5 80.5t77.5 21.5l-19 -91q-92 0 -142 -47l-57 -53zM206 -250q-13 0 -37 3l5 31q8 -2 18 -2q66 0 87 114l92 518h-171l-88 -497
q-14 -79 -55.5 -123t-105.5 -44q-13 0 -37 3l5 31q8 -2 18 -2q66 0 87 114l92 518h-88l7 36h87l12 66q16 90 65.5 149.5t135.5 59.5q39 0 66 -18.5t37 -50.5q55 89 152 89q63 0 92 -45l6 35h84l-130 -735h-85l115 643q-11 69 -83 69q-67 0 -105 -56.5t-38 -120.5
q0 -43 12 -85h119l-5 -36h-117l-88 -497q-14 -79 -55.5 -123t-105.5 -44z" />
    <glyph glyph-name="f_t" unicode="ft" horiz-adv-x="631" 
d="M-49 -250q-13 0 -37 3l5 31q8 -2 18 -2q66 0 87 114l92 518h-88l7 36h87l12 66q41 229 181 229q51 0 77.5 -33.5t21.5 -84.5h-26q2 85 -74 85q-57 0 -90 -56.5t-33 -120.5q0 -43 12 -85h171q63 37 99 180h20l-32 -180h131l-6 -36h-131l-51 -287q-4 -19 -4 -36
q0 -61 48 -61q53 0 79 85h26q-31 -126 -132 -126q-103 0 -103 107q0 19 5 51l45 267h-168l-88 -497q-14 -79 -55.5 -123t-105.5 -44z" />
    <glyph glyph-name="f_f_t" unicode="fft" horiz-adv-x="886" 
d="M191 535q0 -43 12 -85h174l12 66q10 58 28 103q-8 73 -83 73q-67 0 -105 -50t-38 -107zM206 -250q-13 0 -37 3l5 31q8 -2 18 -2q66 0 87 114l92 518h-171l-88 -497q-14 -79 -55.5 -123t-105.5 -44q-13 0 -37 3l5 31q8 -2 18 -2q66 0 87 114l92 518h-88l7 36h87l12 66
q16 90 65.5 149.5t135.5 59.5q77 0 102 -65q48 85 133 85q51 0 77.5 -33.5t21.5 -84.5h-26q2 85 -74 85q-57 0 -90 -56.5t-33 -120.5q0 -43 12 -85h170q63 37 99 180h20l-32 -180h132l-6 -36h-132l-51 -287q-4 -19 -4 -36q0 -61 48 -61q53 0 79 85h26q-31 -126 -132 -126
q-103 0 -103 107q0 19 5 51l45 267h-167l-88 -497q-14 -79 -55.5 -123t-105.5 -44z" />
    <glyph glyph-name=".notdef" horiz-adv-x="540" 
d="M-38 0v660h500v-660h-500zM-8 30h440v600h-440v-600zM195 548q-40 0 -65 -22t-27 -66h-29q0 58 39 92t98 34q60 0 99.5 -32t39.5 -81q0 -36 -11.5 -58t-43 -50t-36.5 -33q-16 -17 -19 -20.5t-9 -15t-6.5 -22t-0.5 -33.5h-41v41.5t8 27.5t12 19.5t26 28.5q24 26 34.5 48.5
t10.5 58.5q0 83 -79 83zM165 84v79h79v-79h-79z" />
    <glyph glyph-name=".null" horiz-adv-x="500" 
 />
    <glyph glyph-name="nonmarkingreturn" horiz-adv-x="333" 
 />
    <glyph glyph-name="space" unicode=" " horiz-adv-x="275" 
 />
    <glyph glyph-name="exclam" unicode="!" horiz-adv-x="275" 
d="M245 660q-16 -93 -51.5 -213t-56.5 -237h-41q21 118 27.5 237.5t22.5 212.5h99zM39 0l15 83h81l-15 -83h-81z" />
    <glyph glyph-name="quotedbl" unicode="&#x22;" horiz-adv-x="409" 
d="M393 735l-68 -199h-35l3 199h100zM260 735l-68 -199h-35l3 199h100z" />
    <glyph glyph-name="numbersign" unicode="#" 
d="M312 286l35 94h-116l-35 -94h116zM220 40l62 165h-116l-62 -165h-28l62 165h-119l28 81h122l35 94h-116l27 81h119l61 161h27l-60 -161h116l60 161h27l-61 -161h128l-28 -81h-130l-35 -94h125l-28 -81h-128l-62 -165h-26z" />
    <glyph glyph-name="dollar" unicode="$" 
d="M325 628q-11 0 -29 -2l-40 -227q15 -11 49 -31l45 258q-16 2 -25 2zM194 504q0 -41 27 -73l32 182q-59 -29 -59 -109zM229 33q11 0 17 1l40 229q-2 1 -49 29l-45 -257q24 -2 37 -2zM353 153q0 47 -31 81l-34 -190q65 27 65 109zM226 -9q-22 0 -41 3l-16 -89h-41l17 98
q-98 33 -101 137h36q9 -71 73 -95l47 269q-42 28 -66 64.5t-24 94.5q0 74 39.5 125t112.5 66l15 86h41l-14 -80h14q21 0 39 -3l15 83h41l-16 -93q92 -33 95 -136h-36q-8 69 -67 95l-47 -270q49 -32 76 -68t27 -92q0 -75 -45 -125.5t-120 -64.5l-16 -91h-41l15 86h-12z" />
    <glyph glyph-name="percent" unicode="%" horiz-adv-x="802" 
d="M229 670q60 0 90 -42.5t30 -114.5q0 -119 -51 -203t-134 -85q-60 0 -90.5 43t-30.5 114q0 119 51.5 203.5t134.5 84.5zM229 0h-59l403 660h59zM229 631q-50 0 -84 -74t-34 -192q0 -101 53 -101q50 0 83.5 74t33.5 192q0 101 -52 101zM655 435q60 0 90 -42.5t30 -114.5
q0 -119 -51 -203t-134 -85q-60 0 -90.5 43t-30.5 114q0 119 51.5 203.5t134.5 84.5zM655 396q-50 0 -84 -74t-34 -192q0 -101 53 -101q50 0 83.5 74t33.5 192q0 101 -52 101z" />
    <glyph glyph-name="ampersand" unicode="&#x26;" horiz-adv-x="566" 
d="M450 173q0 -78 -56.5 -130.5t-163.5 -52.5t-161.5 53.5t-54.5 131.5q0 70 42 120.5t112 66.5q-56 32 -56 108q0 61 41 100.5t117 39.5q59 0 95 -32t36 -89q-2 -70 -64 -93l-12 26q39 19 39 55q-2 66 -101 66q-118 0 -118 -83q0 -33 21 -59.5t69 -28.5l-2 -29
q-91 -6 -132.5 -49t-41.5 -103q0 -59 48.5 -93t129.5 -34q83 0 130 32t47 91q0 42 -23 65t-62 23q-46 0 -71 -23t-25 -60q0 -25 10 -47l-31 -10q-11 25 -11 57q0 61 48 92q32 21 101 42t112.5 42t43.5 54q0 20 -21 30l18 26q51 -25 51 -81q0 -31 -12.5 -51.5t-37.5 -29.5
t-50 -12t-61 -3h-45q102 -16 102 -128z" />
    <glyph glyph-name="quotesingle" unicode="'" horiz-adv-x="276" 
d="M260 735l-68 -199h-35l3 199h100z" />
    <glyph glyph-name="parenleft" unicode="(" horiz-adv-x="321" 
d="M322 664q-72 -22 -130 -98.5t-89.5 -180t-31.5 -208.5q0 -101 33 -179.5t102 -109.5l-15 -41q-85 29 -127.5 118t-42.5 209q0 193 86.5 346t211.5 187z" />
    <glyph glyph-name="parenright" unicode=")" horiz-adv-x="321" 
d="M-20 -110q72 22 130 98.5t89.5 180t31.5 208.5q0 101 -33 179.5t-102 109.5l15 41q85 -29 127.5 -118t42.5 -209q0 -193 -86.5 -346t-211.5 -187z" />
    <glyph glyph-name="asterisk" unicode="*" horiz-adv-x="359" 
d="M252 358l-40 111h-16l-80 -108l-37 33l94 93l-2 16l-108 27l23 50l100 -48l16 11l12 124h50l-32 -124l10 -11l119 48l5 -50l-119 -27l-7 -16l60 -93z" />
    <glyph glyph-name="plus" unicode="+" 
d="M437 200h-155l-29 -163h-59l28 163h-155l11 63h155l29 164h60l-29 -164h155z" />
    <glyph glyph-name="comma" unicode="," horiz-adv-x="276" 
d="M-19 -190l4 24q42 0 73.5 29.5t31.5 70.5q0 31 -18 48t-47 18l14 83q48 0 73.5 -32.5t25.5 -80.5q0 -66 -44 -113t-113 -47z" />
    <glyph glyph-name="hyphen" unicode="-" horiz-adv-x="325" 
d="M261 195h-235l11 73h235z" />
    <glyph glyph-name="period" unicode="." horiz-adv-x="275" 
d="M39 0l15 83h81l-15 -83h-81z" />
    <glyph glyph-name="slash" unicode="/" horiz-adv-x="274" 
d="M-49 -50l314 720h51l-314 -720h-51z" />
    <glyph glyph-name="zero" unicode="0" 
d="M515 433q0 -69 -16 -142.5t-48 -143t-89.5 -113.5t-131.5 -44q-94 0 -144.5 65t-50.5 172q0 66 16 138.5t47.5 143t89.5 116t132 45.5q94 0 144.5 -64.5t50.5 -172.5zM314 621q-46 0 -82 -39.5t-57.5 -104t-32.5 -139t-11 -150.5q0 -149 105 -149q46 0 82.5 38
t57.5 101.5t32 138.5t11 155q0 79 -26 114t-79 35z" />
    <glyph glyph-name="one" unicode="1" 
d="M209 0l100 554l-186 -134l-17 51l273 189h37l-116 -660h-91z" />
    <glyph glyph-name="two" unicode="2" 
d="M168 159q6 6 38.5 37t44.5 43.5t39.5 42.5t39.5 51t28.5 51.5t23 61t6.5 62.5q0 112 -118 112q-61 0 -99.5 -39.5t-38.5 -94.5q0 -35 17.5 -53.5t45.5 -18.5q81 0 71 132h32q11 -97 -25 -145.5t-80 -48.5q-43 0 -72 32.5t-29 93.5q0 81 58.5 136.5t153.5 55.5
q82 0 132.5 -44t50.5 -127q0 -92 -71.5 -177t-262.5 -234h289l-14 -88h-394l6 34z" />
    <glyph glyph-name="three" unicode="3" 
d="M206 -10q-89 0 -136.5 51t-32.5 150h36q-22 -151 128 -151q73 0 116.5 50.5t43.5 137.5q0 92 -57 92q-10 0 -22 -3l-87 -20l-3 42l87 20q2 1 7 1q60 15 85.5 53t25.5 111q0 46 -26.5 70.5t-73.5 24.5q-51 0 -93.5 -37t-58.5 -113h-36q21 103 82.5 152t145.5 49
q74 0 116 -42t42 -102q0 -53 -35 -97.5t-96 -73.5q42 -15 66.5 -55.5t24.5 -90.5q0 -90 -70.5 -154.5t-178.5 -64.5z" />
    <glyph glyph-name="four" unicode="4" 
d="M489 155h-120l-27 -155h-85l28 155h-263l6 34q78 91 128 155t78.5 104t45 81t21 61t13.5 70h101q-7 -39 -17 -67t-40.5 -71t-53 -69.5t-94 -108t-123.5 -142.5h206l19 108q26 24 48 71.5t31 93.5h35l-48 -273h120z" />
    <glyph glyph-name="five" unicode="5" 
d="M89 179q-2 -68 29 -103.5t90 -35.5q69 0 111.5 63.5t42.5 169.5q0 98 -94 98q-71 0 -118 -72h-39l63 361h329l-15 -88h-280l-36 -198q51 51 128 51q72 0 115 -47.5t43 -119.5q0 -110 -69.5 -189t-176.5 -79q-76 0 -120.5 48.5t-38.5 140.5h36z" />
    <glyph glyph-name="six" unicode="6" 
d="M469 241q0 -100 -64 -176t-170 -76q-87 0 -132.5 56.5t-45.5 148.5q0 122 37 229.5t109.5 177t163.5 69.5q66 0 110.5 -43t42.5 -118h-36q-2 55 -33 83.5t-85 28.5q-80 0 -135.5 -82t-73.5 -230q59 89 161 89q68 0 109.5 -45t41.5 -112zM242 36q53 0 92 58.5t39 156.5
q0 46 -19 70.5t-54 24.5q-47 0 -88 -30t-62 -93q-1 -16 -1 -50q0 -74 23.5 -105.5t69.5 -31.5z" />
    <glyph glyph-name="seven" unicode="7" 
d="M216 0h-97q19 108 62.5 184t200.5 290q15 20 23.5 31.5t22.5 30.5t26 36h-327l15 88h400l-6 -34q-88 -126 -143 -212t-86 -137.5t-49.5 -106.5t-24 -77.5t-17.5 -92.5z" />
    <glyph glyph-name="eight" unicode="8" 
d="M220 -10q-87 0 -135.5 43t-48.5 120q0 56 36.5 111.5t104.5 85.5q-57 42 -57 114q0 81 58 143.5t145 62.5q85 0 128 -38.5t43 -109.5q0 -47 -28.5 -94t-81.5 -78q79 -46 79 -143q0 -53 -24 -100.5t-81 -82t-138 -34.5zM214 455q0 -85 71 -85q48 0 81 42.5t33 123.5
q0 88 -70 88q-51 0 -83 -41.5t-32 -127.5zM130 141q0 -106 100 -106q59 0 99 45.5t40 129.5q0 64 -24 89.5t-70 25.5q-61 0 -103 -50.5t-42 -133.5z" />
    <glyph glyph-name="nine" unicode="9" 
d="M246 313q47 0 88 30t62 93q1 16 1 50q0 74 -23.5 105.5t-69.5 31.5q-53 0 -92 -58.5t-39 -156.5q0 -46 19 -70.5t54 -24.5zM179 -11q-66 0 -110.5 43t-42.5 118h36q2 -55 33 -83.5t85 -28.5q80 0 135.5 82t73.5 230q-59 -89 -161 -89q-68 0 -109.5 45t-41.5 112
q0 100 64 176t170 76q87 0 132.5 -56.5t45.5 -148.5q0 -122 -37 -229.5t-109.5 -177t-163.5 -69.5z" />
    <glyph glyph-name="colon" unicode=":" horiz-adv-x="275" 
d="M99 342l15 83h81l-15 -83h-81zM39 0l15 83h81l-15 -83h-81z" />
    <glyph glyph-name="semicolon" unicode=";" horiz-adv-x="276" 
d="M84 342l15 83h81l-15 -83h-81zM-19 -190l4 24q42 0 73.5 29.5t31.5 70.5q0 31 -18 48t-47 18l14 83q48 0 73.5 -32.5t25.5 -80.5q0 -66 -44 -113t-113 -47z" />
    <glyph glyph-name="less" unicode="&#x3c;" 
d="M413 62l-345 149l7 38l399 159l-8 -47l-311 -122l270 -115z" />
    <glyph glyph-name="equal" unicode="=" 
d="M455 300h-371l11 63h371zM419 100h-370l11 63h370z" />
    <glyph glyph-name="greater" unicode="&#x3e;" 
d="M43 62l8 47l311 122l-270 115l12 62l345 -149l-7 -38z" />
    <glyph glyph-name="question" unicode="?" horiz-adv-x="442" 
d="M333 526q0 95 -88 95q-101 0 -142 -112h-36q52 161 206 161q76 0 117 -37.5t41 -96.5q0 -42 -16 -74.5t-34 -48.5t-53.5 -41t-52.5 -41q-32 -29 -40 -46t-19 -75h-42q13 72 22.5 92t52.5 63q44 44 64 79.5t20 81.5zM119 0l15 83h81l-15 -83h-81z" />
    <glyph glyph-name="at" unicode="@" horiz-adv-x="768" 
d="M345 -91q-65 0 -120.5 14.5t-102.5 47t-74 91t-27 139.5q0 72 27 143t77 129.5t129 94.5t173 36q139 0 219.5 -72.5t80.5 -186.5q0 -43 -11.5 -90t-33.5 -91t-60 -73t-84 -29q-77 0 -90 63q-48 -63 -128 -63q-63 0 -94.5 38t-31.5 98q0 102 60.5 183t153.5 81
q53 0 91 -36q33 12 47 27h24l-51 -279q-3 -18 -3 -31q0 -38 34 -38q45 0 74.5 84t29.5 183q0 95 -64 142.5t-162 47.5q-149 0 -242 -104t-93 -264q0 -119 73 -180.5t177 -61.5q115 0 197 38l13 -35q-78 -46 -208 -46zM348 111q49 0 98 54q0 6 2 18l37 211q-32 25 -78 25
q-58 0 -92 -67.5t-34 -162.5q0 -39 18 -58.5t49 -19.5z" />
    <glyph glyph-name="A" unicode="A" horiz-adv-x="591" 
d="M363 251l-56 269l-149 -269h205zM415 0l-42 201h-243l-111 -201h-58l376 665h32l145 -665h-99z" />
    <glyph glyph-name="B" unicode="B" horiz-adv-x="617" 
d="M338 610h-90l-44 -250h117q45 0 82 44.5t37 123.5q0 47 -26.5 64.5t-75.5 17.5zM332 309h-137l-47 -264h138q60 0 103 42t43 108q0 65 -26 89.5t-74 24.5zM45 0l117 660h185q92 0 144 -40t52 -106q0 -50 -33 -94.5t-92 -69.5q55 -16 85 -53.5t30 -88.5q0 -82 -66.5 -145
t-182.5 -63h-239z" />
    <glyph glyph-name="C" unicode="C" horiz-adv-x="622" 
d="M401 620q-108 0 -180.5 -93.5t-72.5 -278.5q0 -208 157 -208q158 0 206 146h38q-61 -196 -253 -196q-118 0 -182 74t-64 197q0 169 97.5 289t250.5 120q92 0 149 -52.5t53 -143.5h-38q-1 69 -45.5 107.5t-115.5 38.5z" />
    <glyph glyph-name="D" unicode="D" horiz-adv-x="688" 
d="M392 610h-144l-98 -560h143q111 0 179.5 105t68.5 279q0 176 -149 176zM45 0l116 660h239q115 0 177 -75t62 -198q0 -62 -24 -128.5t-67 -125t-112.5 -96t-151.5 -37.5h-239z" />
    <glyph glyph-name="E" unicode="E" horiz-adv-x="545" 
d="M45 0l116 660h359l-9 -50h-263l-45 -255h244l-8 -50h-244l-45 -255h283l-9 -50h-379z" />
    <glyph glyph-name="F" unicode="F" horiz-adv-x="514" 
d="M141 0h-96l116 660h359l-9 -50h-263l-46 -265h243l-9 -50h-243z" />
    <glyph glyph-name="G" unicode="G" horiz-adv-x="660" 
d="M490 0q0 45 -20 63q-65 -73 -174 -73q-118 0 -182 74t-64 197q0 169 97.5 289t250.5 120q92 0 149 -52.5t53 -143.5h-38q-1 69 -45.5 107.5t-115.5 38.5q-108 0 -180.5 -93.5t-72.5 -278.5q0 -208 157 -208q94 0 149 67l24 136h-104l9 50h199l-51 -293h-41z" />
    <glyph glyph-name="H" unicode="H" horiz-adv-x="737" 
d="M475 0l54 305h-329l-54 -305h-96l116 660h96l-54 -305h330l54 305h95l-117 -660h-95z" />
    <glyph glyph-name="I" unicode="I" horiz-adv-x="302" 
d="M257 660l-116 -660h-96l116 660h96z" />
    <glyph glyph-name="J" unicode="J" horiz-adv-x="509" 
d="M162 40q55 0 87.5 39.5t47.5 123.5l80 457h96l-80 -457q-18 -100 -75.5 -156.5t-151.5 -56.5q-170 0 -154 196h40q-2 -75 24.5 -110.5t85.5 -35.5z" />
    <glyph glyph-name="K" unicode="K" horiz-adv-x="651" 
d="M550 0h-117l-227 331l357 329h67l-333 -303zM257 660l-116 -660h-96l116 660h96z" />
    <glyph glyph-name="L" unicode="L" horiz-adv-x="511" 
d="M45 0l116 660h96l-107 -610h283l-9 -50h-379z" />
    <glyph glyph-name="M" unicode="M" horiz-adv-x="807" 
d="M329 -5h-33l-107 528l-92 -523h-52l116 660h99l101 -519l305 519h96l-116 -660h-96l93 532z" />
    <glyph glyph-name="N" unicode="N" horiz-adv-x="696" 
d="M534 -5h-41l-297 566l-99 -561h-52l116 660h87l263 -504l88 504h53z" />
    <glyph glyph-name="O" unicode="O" horiz-adv-x="688" 
d="M639 402q0 -106 -43 -199.5t-125.5 -153t-186.5 -59.5q-114 0 -176 70.5t-62 184.5q0 102 43.5 198.5t127.5 161.5t187 65q113 0 174 -75.5t61 -192.5zM143 237q0 -108 38.5 -152.5t110.5 -44.5q105 0 177 101.5t72 285.5q0 193 -146 193q-69 0 -127.5 -54t-91.5 -142
t-33 -187z" />
    <glyph glyph-name="P" unicode="P" horiz-adv-x="575" 
d="M352 610h-104l-48 -272h104q65 0 106.5 42.5t41.5 116.5q0 62 -26.5 87.5t-73.5 25.5zM295 288h-103l-51 -288h-96l116 660h199q92 0 142.5 -40.5t50.5 -116.5q0 -96 -69.5 -155.5t-188.5 -59.5z" />
    <glyph glyph-name="Q" unicode="Q" horiz-adv-x="700" 
d="M554 -190h-156l-89 181q-8 -1 -25 -1q-114 0 -176 70.5t-62 184.5q0 102 43.5 198.5t127.5 161.5t187 65q113 0 174 -75.5t61 -192.5q0 -139 -74.5 -253.5t-196.5 -147.5zM143 237q0 -108 38.5 -152.5t110.5 -44.5q105 0 177 101.5t72 285.5q0 193 -146 193
q-69 0 -127.5 -54t-91.5 -142t-33 -187z" />
    <glyph glyph-name="R" unicode="R" horiz-adv-x="615" 
d="M352 610h-104l-46 -261h130q44 0 81.5 43.5t37.5 110.5q0 62 -25 84.5t-74 22.5zM409 0l-140 299h-75l-53 -299h-96l116 660h199q194 0 194 -151q0 -77 -51 -133.5t-141 -71.5l153 -304h-106z" />
    <glyph glyph-name="S" unicode="S" horiz-adv-x="513" 
d="M209 -10q-89 0 -137 42.5t-40 133.5h40q1 -71 33.5 -100t95.5 -29q59 0 93 36.5t34 92.5q0 34 -16.5 60.5t-41.5 42.5t-54.5 36.5t-54.5 41t-41.5 55.5t-16.5 81q0 80 56.5 133.5t144.5 53.5q165 0 172 -159h-40q-14 112 -122 112q-58 0 -89 -32.5t-31 -86.5
q0 -29 17.5 -54t43.5 -42t56 -39t56 -44.5t43.5 -60t17.5 -83.5q0 -76 -61 -133.5t-158 -57.5z" />
    <glyph glyph-name="T" unicode="T" horiz-adv-x="608" 
d="M629 610h-229l-107 -610h-96l107 610h-225l8 50h550z" />
    <glyph glyph-name="U" unicode="U" horiz-adv-x="676" 
d="M507 226l76 434h58l-75 -425q-21 -120 -97 -182.5t-182 -62.5q-96 0 -155.5 46.5t-59.5 141.5q0 36 7 72l72 410h95l-72 -410q-6 -36 -6 -64q0 -72 41 -107t99 -35q69 0 126 45.5t73 136.5z" />
    <glyph glyph-name="V" unicode="V" horiz-adv-x="591" 
d="M255 -5h-33l-145 665h99l110 -522l290 522h54z" />
    <glyph glyph-name="W" unicode="W" horiz-adv-x="889" 
d="M200 -5h-34l-79 665h97l57 -498l282 498h31l84 -487l222 487h59l-315 -665h-32l-87 501z" />
    <glyph glyph-name="X" unicode="X" horiz-adv-x="604" 
d="M405 0l-126 272l-236 -272h-65l279 319l-165 341h107l125 -273v-1l231 274h64l-273 -318l166 -342h-107z" />
    <glyph glyph-name="Y" unicode="Y" horiz-adv-x="601" 
d="M289 0h-96l53 298l-164 362h101l141 -310l251 310h61l-293 -353z" />
    <glyph glyph-name="Z" unicode="Z" horiz-adv-x="596" 
d="M490 50l-14 -50h-477l5 30l443 580h-326l14 50h440l-5 -32l-443 -578h363z" />
    <glyph glyph-name="bracketleft" unicode="[" horiz-adv-x="326" 
d="M356 669h-149l-138 -786h148l-7 -39h-199l153 864h198z" />
    <glyph glyph-name="backslash" unicode="\" horiz-adv-x="276" 
d="M80 670h46l61 -720h-47z" />
    <glyph glyph-name="bracketright" unicode="]" horiz-adv-x="327" 
d="M-48 -117h148l139 786h-149l7 39h199l-152 -864h-199z" />
    <glyph glyph-name="asciicircum" unicode="^" 
d="M371 270l-56 304l-170 -304h-44l219 390h36l73 -390h-58z" />
    <glyph glyph-name="underscore" unicode="_" horiz-adv-x="500" 
d="M416 -150h-500l11 63h500z" />
    <glyph glyph-name="grave" unicode="`" horiz-adv-x="501" 
d="M335 697l36 -150h-23l-115 150h102z" />
    <glyph glyph-name="a" unicode="a" horiz-adv-x="528" 
d="M206 39q54 0 96 36q0 17 3 35l50 281q-32 23 -83 23q-76 0 -120 -71.5t-44 -183.5q0 -62 27 -91t71 -29zM381 -11q-61 0 -75 50q-54 -51 -125 -51q-76 0 -118.5 48t-42.5 135q0 73 28.5 138.5t86 108t130.5 42.5q71 0 116 -39q35 13 49 29h20l-62 -352q-3 -15 -3 -25
q0 -32 26 -32q31 0 40 52h25q-15 -104 -95 -104z" />
    <glyph glyph-name="b" unicode="b" horiz-adv-x="557" 
d="M265 -11q-55 0 -94.5 27t-50.5 75l-16 -91h-85l129 735h85l-66 -377q28 51 75 76.5t91 25.5q78 0 123 -51.5t45 -131.5q0 -116 -70.5 -202t-165.5 -86zM254 32q69 0 114 74.5t45 187.5q0 123 -101 123q-52 0 -93 -41.5t-60.5 -97.5t-19.5 -112q0 -65 30.5 -99.5
t84.5 -34.5z" />
    <glyph glyph-name="c" unicode="c" horiz-adv-x="445" 
d="M226 41q45 0 85.5 25.5t57.5 78.5h25q-15 -65 -69 -110.5t-128 -45.5q-82 0 -130.5 45.5t-48.5 128.5q0 118 69 207.5t186 89.5q78 0 117 -45.5t32 -112.5h-26q1 55 -32 81t-81 26q-84 0 -129.5 -69t-45.5 -177q0 -65 33 -93.5t85 -28.5z" />
    <glyph glyph-name="d" unicode="d" horiz-adv-x="556" 
d="M267 418q-69 0 -114.5 -75t-45.5 -187q0 -123 101 -123q77 0 125.5 81t48.5 170q0 65 -31 99.5t-84 34.5zM337 0l16 90q-29 -50 -75.5 -75t-89.5 -25q-78 0 -123 51t-45 132q0 116 70.5 202t165.5 86q55 0 94 -26.5t51 -74.5l66 375h85l-130 -735h-85z" />
    <glyph glyph-name="e" unicode="e" horiz-adv-x="458" 
d="M193 -11q-81 0 -128 45.5t-47 128.5q0 115 73 206t182 91q66 0 104 -27t38 -71q0 -28 -11.5 -49.5t-43 -44.5t-94 -42t-156.5 -34q-1 -9 -1 -29q0 -122 113 -122q47 0 88 25.5t60 78.5h24q-16 -66 -71 -111t-130 -45zM263 418q-54 0 -96 -50t-54 -139q125 25 171 57
t46 76q0 56 -67 56z" />
    <glyph glyph-name="f" unicode="f" horiz-adv-x="321" 
d="M-49 -250q-13 0 -37 3l5 31q10 -2 18 -2q66 0 87 114l92 518h-88l7 36h87l12 66q18 100 67 164q50 65 134 65q56 0 85 -35.5t24 -92.5h-26q2 95 -84 95q-68 0 -105 -57q-38 -56 -38 -110q0 -53 12 -95h119l-5 -36h-117l-88 -497q-14 -80 -55.5 -123.5t-105.5 -43.5z" />
    <glyph glyph-name="g" unicode="g" horiz-adv-x="557" 
d="M267 418q-69 0 -114.5 -75t-45.5 -187q0 -123 101 -123q77 0 125.5 81t48.5 170q0 65 -31 99.5t-84 34.5zM175 -250q-83 0 -125 46.5t-34 116.5h25q0 -58 37.5 -84t89.5 -26q68 0 109 42t60 150l17 96q-28 -50 -75.5 -75.5t-90.5 -25.5q-78 0 -123 51t-45 132
q0 116 70.5 202t165.5 86q55 0 94 -26.5t51 -74.5l9 54q53 14 72 36h20l-80 -455q-21 -121 -86 -183t-161 -62z" />
    <glyph glyph-name="h" unicode="h" horiz-adv-x="567" 
d="M233 735l-67 -377q19 39 64.5 70.5t105.5 31.5q64 0 98 -32.5t34 -89.5q0 -17 -3 -35l-37 -205q-3 -15 -3 -25q0 -32 26 -32q13 0 24 13.5t15 38.5h25q-13 -104 -94 -104q-80 0 -80 83q0 10 4 38l30 172q4 21 4 43q0 84 -83 84q-52 0 -94 -43t-50 -89l-48 -277h-85
l129 735h85z" />
    <glyph glyph-name="i" unicode="i" horiz-adv-x="238" 
d="M221 667l-13 -76h-85l13 76h85zM183 450l-79 -450h-85l79 450h85z" />
    <glyph glyph-name="j" unicode="j" horiz-adv-x="236" 
d="M220 667l-13 -76h-85l13 76h85zM23 31l74 419h84l-74 -422q-4 -23 -10 -67l-6 -44q-14 -79 -56 -123t-106 -44q-12 0 -36 3l5 32q10 -2 18 -2q67 0 87 115q18 124 20 133z" />
    <glyph glyph-name="k" unicode="k" horiz-adv-x="491" 
d="M232 735l-129 -735h-85l130 735h84zM416 0h-103l-156 237l120 121q59 58 92.5 80t77.5 22l-19 -91q-92 0 -142 -47l-57 -53z" />
    <glyph glyph-name="l" unicode="l" horiz-adv-x="236" 
d="M232 735l-129 -735h-85l130 735h84z" />
    <glyph glyph-name="m" unicode="m" horiz-adv-x="849" 
d="M97 450h85l-17 -92q19 40 62 71t101 31t90.5 -30t34.5 -82q25 50 69 81t102 31q60 0 92.5 -32.5t32.5 -88.5q0 -17 -3 -36l-36 -205q-3 -15 -3 -25q0 -32 26 -32q31 0 40 52h24q-13 -104 -94 -104q-80 0 -80 83q0 10 4 38l31 172q3 23 3 40q0 87 -77 87
q-51 0 -90.5 -42.5t-47.5 -89.5l-49 -277h-85l50 282q4 21 4 43q0 84 -77 84q-50 0 -90 -43t-48 -89l-48 -277h-85z" />
    <glyph glyph-name="n" unicode="n" horiz-adv-x="566" 
d="M181 450l-16 -92q19 39 64.5 70.5t105.5 31.5q64 0 98 -32t34 -88q0 -11 -4 -37l-36 -205q-3 -15 -3 -26q0 -31 26 -31q13 0 24 13.5t15 38.5h25q-13 -104 -94 -104q-80 0 -80 83q0 10 4 38l31 172q4 20 4 41q0 86 -84 86q-52 0 -94 -43t-50 -89l-48 -277h-85l79 450h84z
" />
    <glyph glyph-name="o" unicode="o" horiz-adv-x="510" 
d="M19 169q0 113 73.5 202t184.5 89q85 0 131 -49t46 -131q0 -113 -73.5 -202t-185.5 -89q-83 0 -129.5 49.5t-46.5 130.5zM202 31q73 0 118.5 77t45.5 202q0 55 -25.5 81.5t-69.5 26.5q-74 0 -119.5 -77t-45.5 -201q0 -54 26 -81.5t70 -27.5z" />
    <glyph glyph-name="p" unicode="p" horiz-adv-x="557" 
d="M254 32q69 0 114 74.5t45 187.5q0 123 -101 123q-52 0 -93 -41.5t-60.5 -97.5t-19.5 -112q0 -65 30.5 -99.5t84.5 -34.5zM265 -11q-56 0 -96 27t-50 77l-59 -333h-84l125 690h81l-18 -101q31 51 75.5 81t93.5 30q78 0 123 -51.5t45 -131.5q0 -116 -70.5 -202t-165.5 -86z
" />
    <glyph glyph-name="q" unicode="q" horiz-adv-x="559" 
d="M383 -240h-86l58 330q-28 -50 -75 -75t-90 -25q-79 0 -124 51t-45 132q0 116 71 202t166 86q55 0 94 -26.5t51 -74.5l9 54q51 14 72 36h20zM268 418q-69 0 -114 -75t-45 -187q0 -123 101 -123q52 0 93 41.5t60.5 97.5t19.5 112q0 65 -30.5 99.5t-84.5 34.5z" />
    <glyph glyph-name="r" unicode="r" horiz-adv-x="363" 
d="M182 450l-17 -93q20 38 62 70.5t97 32.5q11 0 29 -2l-14 -83q-21 4 -64 4q-50 0 -82 -24t-38 -61l-52 -294h-85l79 450h85z" />
    <glyph glyph-name="s" unicode="s" horiz-adv-x="407" 
d="M224 422q-43 0 -67 -21t-24 -56q0 -29 20 -49t48 -33t56 -27.5t48 -42t20 -67.5q0 -61 -46 -99t-129 -38q-72 0 -112 37t-31 102h27q-1 -51 32 -74t85 -23q47 0 70 21t23 53q0 31 -19 51.5t-46 32.5t-54.5 25.5t-46.5 41.5t-19 70q0 58 45 96t120 38q73 0 107 -40
t26 -102h-27q1 51 -27.5 77.5t-78.5 26.5z" />
    <glyph glyph-name="t" unicode="t" horiz-adv-x="381" 
d="M303 115q-31 -126 -132 -126q-103 0 -103 107q0 19 5 51l45 267h-85l7 36h84q63 37 99 180h20l-32 -180h131l-6 -36h-131l-51 -287q-4 -19 -4 -36q0 -61 48 -61q53 0 79 85h26z" />
    <glyph glyph-name="u" unicode="u" horiz-adv-x="552" 
d="M475 450l-61 -344q-3 -18 -3 -32q0 -33 26 -33q30 0 39 52h24q-13 -104 -94 -104q-79 0 -79 84q0 4 0.5 12t0.5 9q-19 -40 -64 -72t-102 -32q-62 0 -94.5 32t-32.5 87q0 17 3 37l54 304h86l-49 -282q-5 -21 -5 -46q0 -81 72 -81q53 0 95.5 43t49.5 89l49 277h85z" />
    <glyph glyph-name="v" unicode="v" horiz-adv-x="449" 
d="M159 -5l-138 455h89l110 -362q63 97 91.5 159.5t33 94t4.5 91.5v17h96q0 -43 -23 -97.5t-47 -92t-87.5 -127.5t-95.5 -138h-33z" />
    <glyph glyph-name="w" unicode="w" horiz-adv-x="700" 
d="M111 -5l-90 455h88l63 -338l183 340h34l100 -359q18 30 32.5 56t26 45.5t19.5 41t14 34t9.5 32t5.5 27.5t3 29t1 27v31.5v33.5h96q0 -43 -21 -96.5t-42 -89t-82 -128t-91 -141.5h-32l-95 345l-189 -345h-33z" />
    <glyph glyph-name="x" unicode="x" horiz-adv-x="452" 
d="M286 0l-103 188l-171 -188h-48l202 220l-126 230h99l95 -174l152 174h48l-183 -205l134 -245h-99z" />
    <glyph glyph-name="y" unicode="y" horiz-adv-x="443" 
d="M-63 -250l15 95q32 0 45 0.5t35 5t33.5 13t31 26t38 43t45.5 65.5l-158 452h91l127 -359q72 120 87 176t15 183h96q0 -29 -8 -62t-17.5 -58.5t-32 -67t-35.5 -62.5l-45.5 -73.5t-45.5 -72.5q-112 -178 -175 -241t-142 -63z" />
    <glyph glyph-name="z" unicode="z" horiz-adv-x="440" 
d="M-9 0l5 31l311 383h-230l8 36h335l-7 -31l-313 -384h264l-10 -35h-363z" />
    <glyph glyph-name="braceleft" unicode="{" horiz-adv-x="326" 
d="M99 274q41 -3 59 -28t18 -56q0 -32 -37.5 -112t-37.5 -128q0 -67 68 -67h48l-7 -39h-47q-55 0 -81.5 27t-26.5 74q0 56 38 134.5t38 109.5q0 66 -67 66h-62l8 43h62q49 0 72.5 31.5t23.5 65.5q0 23 -5 60t-5 62q0 84 38 137.5t119 53.5h47l-6 -39h-48q-104 0 -104 -146
q0 -24 4.5 -61.5t4.5 -56.5q0 -108 -114 -127v-4z" />
    <glyph glyph-name="bar" unicode="|" horiz-adv-x="276" 
d="M6 -250l177 1000h59l-176 -1000h-60z" />
    <glyph glyph-name="braceright" unicode="}" horiz-adv-x="326" 
d="M209 274v4q-41 3 -59 28t-18 56q0 32 37.5 112t37.5 128q0 67 -68 67h-48l7 39h47q55 0 81.5 -27t26.5 -74q0 -56 -38 -134.5t-38 -109.5q0 -66 67 -66h62l-8 -43h-62q-49 0 -72.5 -31.5t-23.5 -65.5q0 -23 5 -60t5 -62q0 -84 -38 -137.5t-119 -53.5h-47l6 39h48
q104 0 104 146q0 24 -4.5 61.5t-4.5 56.5q0 108 114 127z" />
    <glyph glyph-name="asciitilde" unicode="~" 
d="M162 250q-59 0 -74 -87h-28q9 76 38.5 112.5t84.5 36.5q38 0 90.5 -43.5t80.5 -43.5q60 0 75 87h28q-9 -77 -38 -113t-85 -36q-27 0 -51 13.5t-39 30t-36.5 30t-45.5 13.5z" />
    <glyph glyph-name="exclamdown" unicode="&#xa1;" horiz-adv-x="275" 
d="M198 425l-15 -83h-81l15 83h81zM-11 -235q16 93 51.5 213t56.5 237h41q-21 -118 -27.5 -237.5t-22.5 -212.5h-99z" />
    <glyph glyph-name="cent" unicode="&#xa2;" 
d="M181 252q0 -77 54 -102l107 318q-79 -1 -120 -62t-41 -154zM264 80h-10l-44 -131h-43l46 136q-58 13 -91 54.5t-33 106.5q0 111 65.5 195t179.5 84q9 0 27 -2l44 131h43l-47 -140q44 -17 64 -55t15 -85h-29q0 72 -67 89l-110 -325q7 -1 22 -1q40 0 76 22t53 72h29
q-14 -63 -66 -107t-124 -44z" />
    <glyph glyph-name="sterling" unicode="&#xa3;" 
d="M441 87l-16 -88h-392l6 35q110 72 146 112.5t36 88.5q0 30 -16 59h-139l7 43h106q-50 75 -50 139q0 83 55 138.5t148 55.5q71 0 118 -45.5t45 -125.5h-36q-2 60 -35.5 91t-92.5 31q-53 0 -84.5 -32t-31.5 -76q0 -33 13 -62.5t34.5 -62t29.5 -51.5h147l-8 -43h-126
q1 -6 1 -18q0 -96 -131 -189h266z" />
    <glyph glyph-name="currency" unicode="&#xa4;" 
d="M372 39l-52 67q-38 -22 -88 -22q-43 0 -76 23l-76 -68l-33 47l74 66q-10 21 -10 50q0 71 42 120l-50 64l43 41l52 -67q38 22 88 22q42 0 71 -20l79 70l35 -46l-77 -68q12 -24 12 -54q0 -69 -41 -119l49 -64zM278 342q-44 0 -74 -39.5t-30 -103.5q0 -38 18 -56.5t47 -18.5
q45 0 75 39t30 107q0 36 -18.5 54t-47.5 18z" />
    <glyph glyph-name="yen" unicode="&#xa5;" 
d="M462 144h-165l-25 -144h-91l25 144h-168l8 43h168l19 107h-168l7 43h155l-115 323h101l96 -286l192 286h63l-222 -323h153l-7 -43h-164l-19 -107h165z" />
    <glyph glyph-name="brokenbar" unicode="&#xa6;" horiz-adv-x="275" 
d="M111 350l71 400h59l-70 -400h-60zM5 -250l71 400h60l-71 -400h-60z" />
    <glyph glyph-name="section" unicode="&#xa7;" horiz-adv-x="499" 
d="M216 187q43 -19 71 -44q44 8 63.5 34t19.5 57q0 40 -24 65.5t-84 52.5q-43 19 -71 44q-44 -8 -63.5 -34t-19.5 -57q0 -40 24 -65.5t84 -52.5zM165 -131q-60 0 -96.5 30t-38.5 88h36q9 -75 94 -75q42 0 65.5 25.5t23.5 70.5q0 36 -19 61t-75 51q-63 29 -88.5 60.5
t-25.5 84.5q0 56 34.5 100t92.5 60q-21 35 -21 82q0 72 48.5 117.5t117.5 45.5q60 0 96.5 -30t38.5 -88h-36q-9 75 -88 75q-47 0 -71 -26t-24 -69q0 -37 19 -62t75 -51q63 -29 88.5 -60.5t25.5 -84.5q0 -56 -34.5 -100t-92.5 -60q21 -34 21 -80q0 -74 -46.5 -119.5
t-119.5 -45.5z" />
    <glyph glyph-name="dieresis" unicode="&#xa8;" horiz-adv-x="501" 
d="M282 667l-13 -76h-75l13 76h75zM413 667l-13 -76h-75l13 76h75z" />
    <glyph glyph-name="copyright" unicode="&#xa9;" horiz-adv-x="708" 
d="M61 270q0 161 98.5 269t240.5 108q106 0 176.5 -70.5t70.5 -184.5q0 -168 -95.5 -273.5t-243.5 -105.5q-105 0 -176 71.5t-71 185.5zM592 389q0 95 -56.5 153.5t-143.5 58.5q-119 0 -197.5 -92.5t-78.5 -234.5q0 -96 56.5 -155.5t143.5 -59.5q122 0 199 90.5t77 239.5z
M389 474q-52 0 -87 -57t-35 -137q0 -60 19 -81t53 -21t63 20.5t40 51.5h35q-17 -54 -56 -86t-90 -32q-63 0 -98.5 39.5t-35.5 106.5q0 96 55 168.5t141 72.5q53 0 81 -35t27 -99h-36q-3 89 -76 89z" />
    <glyph glyph-name="ordfeminine" unicode="&#xaa;" horiz-adv-x="334" 
d="M169 346q28 0 46 13q0 6 2 18l29 167q-14 7 -38 7q-41 0 -65 -38.5t-24 -97.5q0 -33 14.5 -51t35.5 -18zM272 303q-37 0 -50 25q-31 -26 -71 -26q-46 0 -73 29.5t-27 83.5q0 73 41.5 125t109.5 52q42 0 70 -23q19 7 29 17h19l-36 -203q-3 -14 -3 -23q0 -14 12 -14
q16 0 20 32h23q-8 -75 -64 -75zM273 206h-222l7 40h222z" />
    <glyph glyph-name="guillemotleft" unicode="&#xab;" horiz-adv-x="533" 
d="M125 223l97 -202h-29l-158 188l5 28l224 188h29zM325 223l97 -202h-29l-158 188l5 28l224 188h29z" />
    <glyph glyph-name="logicalnot" unicode="&#xac;" 
d="M447 253l-38 -216h-60l27 153h-310l11 63h370z" />
    <glyph glyph-name="registered" unicode="&#xae;" horiz-adv-x="468" 
d="M453 528q0 -109 -62.5 -177.5t-158.5 -68.5q-69 0 -115 46.5t-46 120.5q0 104 64 173.5t157 69.5q69 0 115 -45.5t46 -118.5zM107 451q0 -62 36.5 -100.5t93.5 -38.5q80 0 130 58.5t50 155.5q0 61 -37 98.5t-94 37.5q-77 0 -128 -60t-51 -151zM275 577h-32l-13 -75h41
q13 0 23.5 11t10.5 32q0 32 -30 32zM286 374l-39 102h-22l-18 -102h-47l41 231h79q35 0 54.5 -15.5t19.5 -43.5q0 -55 -62 -67l44 -105h-50z" />
    <glyph glyph-name="macron" unicode="&#xaf;" horiz-adv-x="501" 
d="M189 655h238l-9 -51h-238z" />
    <glyph glyph-name="degree" unicode="&#xb0;" horiz-adv-x="329" 
d="M224 670q56 0 86.5 -29.5t30.5 -80.5q0 -69 -47.5 -124t-119.5 -55q-55 0 -86 30t-31 81q0 69 47 123.5t120 54.5zM219 634q-43 0 -68 -45t-25 -112q0 -59 53 -59q43 0 68 45t25 112q0 59 -53 59z" />
    <glyph glyph-name="plusminus" unicode="&#xb1;" 
d="M403 0h-371l11 63h157l23 137h-155l11 63h155l29 164h60l-29 -164h155l-11 -63h-155l-24 -137h155z" />
    <glyph glyph-name="twosuperior" unicode="&#xb2;" horiz-adv-x="351" 
d="M211 704q-37 0 -61.5 -22.5t-24.5 -56.5q0 -17 10 -26.5t26 -9.5q41 0 35 75h29q7 -64 -15 -95t-53 -31q-29 0 -47.5 21.5t-18.5 60.5q0 53 38 89t100 36q60 0 92 -30t32 -73q0 -27 -5.5 -46.5t-24.5 -44t-35.5 -41t-60.5 -58t-78 -75.5h173l-12 -67h-259l4 22l83 81
q81 80 112.5 126.5t31.5 94.5q0 70 -71 70z" />
    <glyph glyph-name="threesuperior" unicode="&#xb3;" horiz-adv-x="356" 
d="M165 300q-57 0 -88 33t-22 98h36q-13 -88 71 -88q45 0 72 29.5t27 80.5q0 59 -34 59q-7 0 -17 -2l-52 -12l-2 32l57 13q39 8 55 30t16 67q0 58 -54 58q-73 0 -91 -87h-37q14 67 53.5 99t94.5 32q50 0 79 -27.5t29 -66.5q0 -67 -82 -110q26 -11 41 -37.5t15 -58.5
q0 -59 -47 -100.5t-120 -41.5z" />
    <glyph glyph-name="acute" unicode="&#xb4;" horiz-adv-x="501" 
d="M292 698h109l-168 -150h-29z" />
    <glyph glyph-name="mu" unicode="&#xb5;" horiz-adv-x="557" 
d="M180 -11q-51 0 -73 36l-40 -228h-86l115 653h86l-52 -295q-2 -24 -2 -33q0 -81 72 -81q53 0 95 43t50 89l48 277h86l-62 -352q-3 -15 -3 -25q0 -32 26 -32q31 0 40 52h25q-15 -104 -95 -104q-37 0 -58.5 20.5t-21.5 60.5q0 8 2 24q-17 -41 -60 -73t-92 -32z" />
    <glyph glyph-name="paragraph" unicode="&#xb6;" horiz-adv-x="499" 
d="M246 -111h-42l57 332h-22q-82 0 -128 50t-46 125q0 117 67.5 190.5t183.5 73.5h65zM436 660h43l-136 -771h-43z" />
    <glyph glyph-name="periodcentered" unicode="&#xb7;" horiz-adv-x="275" 
d="M74 199l15 83h81l-15 -83h-81z" />
    <glyph glyph-name="cedilla" unicode="&#xb8;" horiz-adv-x="499" 
d="M156 -199q-30 0 -46 15.5t-16 42.5h31q0 -12 8 -19t20 -7q18 0 30 13.5t12 38.5q0 33 -25 33q-21 0 -34 -19h-36l53 101h34l-34 -63q16 11 39 11q52 0 52 -58q0 -37 -24 -63t-64 -26z" />
    <glyph glyph-name="onesuperior" unicode="&#xb9;" horiz-adv-x="344" 
d="M224 310h-69l63 346l-106 -81l-13 40l170 123h32z" />
    <glyph glyph-name="ordmasculine" unicode="&#xba;" horiz-adv-x="328" 
d="M210 592q56 0 86.5 -29.5t30.5 -80.5q0 -69 -47.5 -124t-119.5 -55q-55 0 -86 30t-31 81q0 69 47 123t120 55zM205 556q-43 0 -68 -45t-25 -112q0 -59 53 -59q43 0 68 45t25 112q0 59 -53 59zM246 206h-222l7 40h222z" />
    <glyph glyph-name="guillemotright" unicode="&#xbb;" horiz-adv-x="533" 
d="M170 223l-97 202h29l158 -188l-5 -28l-224 -188h-29zM370 223l-97 202h29l158 -188l-5 -28l-224 -188h-29z" />
    <glyph glyph-name="onequarter" unicode="&#xbc;" horiz-adv-x="771" 
d="M211 235h-69l63 346l-106 -81l-13 40l170 123h32zM234 0h-59l403 660h59zM731 101h-77l-18 -101h-65l19 101h-165l4 29q112 131 140 179.5t40 119.5h75q-3 -17 -7 -30.5t-14 -30.5t-17.5 -29t-27.5 -36.5t-34.5 -41.5t-48 -55.5t-57.5 -67.5h118l12 64q36 33 50 107h32
l-30 -171h78z" />
    <glyph glyph-name="onehalf" unicode="&#xbd;" horiz-adv-x="812" 
d="M211 235h-69l63 346l-106 -81l-13 40l170 123h32zM234 0h-59l403 660h59zM629 394q-37 0 -61.5 -22.5t-24.5 -56.5q0 -17 10 -26.5t26 -9.5q41 0 35 75h29q7 -64 -15 -95t-53 -31q-29 0 -47.5 21.5t-18.5 60.5q0 53 38 89t100 36q60 0 92 -30t32 -73q0 -27 -5.5 -46.5
t-24.5 -44t-35.5 -41t-60.5 -58t-78 -75.5h173l-12 -67h-259l4 22l83 81q81 80 112.5 126.5t31.5 94.5q0 70 -71 70z" />
    <glyph glyph-name="threequarters" unicode="&#xbe;" horiz-adv-x="792" 
d="M254 0h-59l403 660h59zM152 225q-57 0 -88 33t-22 98h36q-13 -88 71 -88q45 0 72 29.5t27 80.5q0 59 -34 59q-7 0 -17 -2l-52 -12l-2 32l57 13q39 8 55 30t16 67q0 58 -54 58q-73 0 -91 -87h-37q14 67 53.5 99t94.5 32q50 0 79 -27.5t29 -66.5q0 -67 -82 -110
q26 -11 41 -37.5t15 -58.5q0 -59 -47 -100.5t-120 -41.5zM751 101h-77l-18 -101h-65l19 101h-165l4 29q112 131 140 179.5t40 119.5h75q-3 -17 -7 -30.5t-14 -30.5t-17.5 -29t-27.5 -36.5t-34.5 -41.5t-48 -55.5t-57.5 -67.5h118l12 64q36 33 50 107h32l-30 -171h78z" />
    <glyph glyph-name="questiondown" unicode="&#xbf;" horiz-adv-x="442" 
d="M282 425l-15 -83h-81l15 83h81zM68 -101q0 -95 88 -95q101 0 142 112h36q-52 -161 -206 -161q-76 0 -117 37.5t-41 96.5q0 42 16 74.5t34 48.5t53.5 41t52.5 41q32 29 40 46t19 75h42q-13 -72 -22.5 -92t-52.5 -63q-44 -44 -64 -79.5t-20 -81.5z" />
    <glyph glyph-name="Agrave" unicode="&#xc0;" horiz-adv-x="591" 
d="M312 830l60 -120h-23l-139 120h102zM363 251l-56 269l-149 -269h205zM415 0l-42 201h-243l-111 -201h-58l376 665h32l145 -665h-99z" />
    <glyph glyph-name="Aacute" unicode="&#xc1;" horiz-adv-x="591" 
d="M446 830h108l-182 -120h-28zM363 251l-56 269l-149 -269h205zM415 0l-42 201h-243l-111 -201h-58l376 665h32l145 -665h-99z" />
    <glyph glyph-name="Acircumflex" unicode="&#xc2;" horiz-adv-x="591" 
d="M365 753l-93 -43h-25l124 120h15l83 -120h-26zM363 251l-56 269l-149 -269h205zM415 0l-42 201h-243l-111 -201h-58l376 665h32l145 -665h-99z" />
    <glyph glyph-name="Atilde" unicode="&#xc3;" horiz-adv-x="591" 
d="M414 710q-22 0 -38 10.5t-23.5 23t-18 23t-22.5 10.5q-18 0 -25.5 -15t-14.5 -52h-33q6 60 24.5 90t55.5 30q26 0 44 -17t31.5 -33.5t28.5 -16.5q18 0 25 15t13 52h34q-4 -60 -23 -90t-58 -30zM363 251l-56 269l-149 -269h205zM415 0l-42 201h-243l-111 -201h-58l376 665
h32l145 -665h-99z" />
    <glyph glyph-name="Adieresis" unicode="&#xc4;" horiz-adv-x="591" 
d="M477 813l-13 -76h-75l13 76h75zM346 813l-13 -76h-75l13 76h75zM363 251l-56 269l-149 -269h205zM415 0l-42 201h-243l-111 -201h-58l376 665h32l145 -665h-99z" />
    <glyph glyph-name="Aring" unicode="&#xc5;" horiz-adv-x="591" 
d="M361 710q-39 0 -59 14.5t-20 35.5q0 29 29 49.5t76 20.5q38 0 58 -14.5t20 -34.5q0 -30 -29 -50.5t-75 -20.5zM366 731q22 0 35.5 13.5t13.5 36.5q0 29 -30 29q-25 0 -39 -13.5t-14 -36.5q0 -29 34 -29zM363 251l-56 269l-149 -269h205zM415 0l-42 201h-243l-111 -201
h-58l376 665h32l145 -665h-99z" />
    <glyph glyph-name="AE" unicode="&#xc6;" horiz-adv-x="859" 
d="M408 281l50 284l-220 -284h170zM359 0l41 231h-201l-180 -231h-68l518 660h365l-8 -50h-264l-46 -261h245l-9 -50h-244l-44 -249h283l-9 -50h-379z" />
    <glyph glyph-name="Ccedilla" unicode="&#xc7;" horiz-adv-x="622" 
d="M285 -199q-30 0 -46 15.5t-16 42.5h31q0 -12 8 -19t20 -7q18 0 30 13.5t12 38.5q0 33 -25 33q-21 0 -34 -19h-36l48 92q-109 6 -168 79t-59 191q0 169 97.5 289t250.5 120q92 0 149 -52.5t53 -143.5h-38q-1 69 -45.5 107.5t-115.5 38.5q-108 0 -180.5 -93.5t-72.5 -278.5
q0 -208 157 -208q158 0 206 146h38q-60 -189 -238 -196l-29 -53q16 11 39 11q52 0 52 -58q0 -37 -24 -63t-64 -26z" />
    <glyph glyph-name="Egrave" unicode="&#xc8;" horiz-adv-x="545" 
d="M305 830l60 -120h-23l-139 120h102zM45 0l116 660h359l-9 -50h-263l-45 -255h244l-8 -50h-244l-45 -255h283l-9 -50h-379z" />
    <glyph glyph-name="Eacute" unicode="&#xc9;" horiz-adv-x="545" 
d="M409 830h108l-182 -120h-28zM45 0l116 660h359l-9 -50h-263l-45 -255h244l-8 -50h-244l-45 -255h283l-9 -50h-379z" />
    <glyph glyph-name="Ecircumflex" unicode="&#xca;" horiz-adv-x="545" 
d="M358 753l-93 -43h-25l124 120h15l83 -120h-26zM45 0l116 660h359l-9 -50h-263l-45 -255h244l-8 -50h-244l-45 -255h283l-9 -50h-379z" />
    <glyph glyph-name="Edieresis" unicode="&#xcb;" horiz-adv-x="545" 
d="M470 813l-13 -76h-75l13 76h75zM339 813l-13 -76h-75l13 76h75zM45 0l116 660h359l-9 -50h-263l-45 -255h244l-8 -50h-244l-45 -255h283l-9 -50h-379z" />
    <glyph glyph-name="Igrave" unicode="&#xcc;" horiz-adv-x="302" 
d="M172 830l60 -120h-23l-139 120h102zM257 660l-116 -660h-96l116 660h96z" />
    <glyph glyph-name="Iacute" unicode="&#xcd;" horiz-adv-x="302" 
d="M306 830h108l-182 -120h-28zM257 660l-116 -660h-96l116 660h96z" />
    <glyph glyph-name="Icircumflex" unicode="&#xce;" horiz-adv-x="302" 
d="M225 753l-93 -43h-25l124 120h15l83 -120h-26zM257 660l-116 -660h-96l116 660h96z" />
    <glyph glyph-name="Idieresis" unicode="&#xcf;" horiz-adv-x="302" 
d="M337 813l-13 -76h-75l13 76h75zM206 813l-13 -76h-75l13 76h75zM257 660l-116 -660h-96l116 660h96z" />
    <glyph glyph-name="Eth" unicode="&#xd0;" horiz-adv-x="688" 
d="M345 300h-151l-44 -250h143q111 0 179.5 105t68.5 279q0 176 -149 176h-144l-45 -260h151zM45 0l53 300h-72l9 50h72l54 310h239q115 0 177 -75t62 -198q0 -62 -24 -128.5t-67 -125t-112.5 -96t-151.5 -37.5h-239z" />
    <glyph glyph-name="Ntilde" unicode="&#xd1;" horiz-adv-x="696" 
d="M491 710q-22 0 -38 10.5t-23.5 23t-18 23t-22.5 10.5q-18 0 -25.5 -15t-14.5 -52h-33q6 60 24.5 90t55.5 30q26 0 44 -17t31.5 -33.5t28.5 -16.5q18 0 25 15t13 52h34q-4 -60 -23 -90t-58 -30zM534 -5h-41l-297 566l-99 -561h-52l116 660h87l263 -504l88 504h53z" />
    <glyph glyph-name="Ograve" unicode="&#xd2;" horiz-adv-x="688" 
d="M367 830l60 -120h-23l-139 120h102zM639 402q0 -106 -43 -199.5t-125.5 -153t-186.5 -59.5q-114 0 -176 70.5t-62 184.5q0 102 43.5 198.5t127.5 161.5t187 65q113 0 174 -75.5t61 -192.5zM143 237q0 -108 38.5 -152.5t110.5 -44.5q105 0 177 101.5t72 285.5
q0 193 -146 193q-69 0 -127.5 -54t-91.5 -142t-33 -187z" />
    <glyph glyph-name="Oacute" unicode="&#xd3;" horiz-adv-x="688" 
d="M501 830h108l-182 -120h-28zM639 402q0 -106 -43 -199.5t-125.5 -153t-186.5 -59.5q-114 0 -176 70.5t-62 184.5q0 102 43.5 198.5t127.5 161.5t187 65q113 0 174 -75.5t61 -192.5zM143 237q0 -108 38.5 -152.5t110.5 -44.5q105 0 177 101.5t72 285.5q0 193 -146 193
q-69 0 -127.5 -54t-91.5 -142t-33 -187z" />
    <glyph glyph-name="Ocircumflex" unicode="&#xd4;" horiz-adv-x="688" 
d="M420 753l-93 -43h-25l124 120h15l83 -120h-26zM639 402q0 -106 -43 -199.5t-125.5 -153t-186.5 -59.5q-114 0 -176 70.5t-62 184.5q0 102 43.5 198.5t127.5 161.5t187 65q113 0 174 -75.5t61 -192.5zM143 237q0 -108 38.5 -152.5t110.5 -44.5q105 0 177 101.5t72 285.5
q0 193 -146 193q-69 0 -127.5 -54t-91.5 -142t-33 -187z" />
    <glyph glyph-name="Otilde" unicode="&#xd5;" horiz-adv-x="688" 
d="M469 710q-22 0 -38 10.5t-23.5 23t-18 23t-22.5 10.5q-18 0 -25.5 -15t-14.5 -52h-33q6 60 24.5 90t55.5 30q26 0 44 -17t31.5 -33.5t28.5 -16.5q18 0 25 15t13 52h34q-4 -60 -23 -90t-58 -30zM639 402q0 -106 -43 -199.5t-125.5 -153t-186.5 -59.5q-114 0 -176 70.5
t-62 184.5q0 102 43.5 198.5t127.5 161.5t187 65q113 0 174 -75.5t61 -192.5zM143 237q0 -108 38.5 -152.5t110.5 -44.5q105 0 177 101.5t72 285.5q0 193 -146 193q-69 0 -127.5 -54t-91.5 -142t-33 -187z" />
    <glyph glyph-name="Odieresis" unicode="&#xd6;" horiz-adv-x="688" 
d="M532 813l-13 -76h-75l13 76h75zM401 813l-13 -76h-75l13 76h75zM639 402q0 -106 -43 -199.5t-125.5 -153t-186.5 -59.5q-114 0 -176 70.5t-62 184.5q0 102 43.5 198.5t127.5 161.5t187 65q113 0 174 -75.5t61 -192.5zM143 237q0 -108 38.5 -152.5t110.5 -44.5
q105 0 177 101.5t72 285.5q0 193 -146 193q-69 0 -127.5 -54t-91.5 -142t-33 -187z" />
    <glyph glyph-name="multiply" unicode="&#xd7;" 
d="M372 39l-119 154l-173 -154l-33 47l171 152l-115 148l43 41l116 -150l174 155l35 -46l-174 -154l117 -151z" />
    <glyph glyph-name="Oslash" unicode="&#xd8;" horiz-adv-x="688" 
d="M284 -10q-112 0 -177 71l-60 -61h-51l89 91q-39 63 -39 154q0 102 43.5 198.5t127.5 161.5t187 65q111 0 173 -75l63 65h52l-93 -95q40 -67 40 -163q0 -106 -43 -199.5t-125.5 -153t-186.5 -59.5zM143 237q0 -48 7 -79l373 382q-34 80 -128 80q-69 0 -127.5 -54
t-91.5 -142t-33 -187zM292 40q105 0 177 101.5t72 285.5q0 41 -6 72l-373 -381q34 -78 130 -78z" />
    <glyph glyph-name="Ugrave" unicode="&#xd9;" horiz-adv-x="676" 
d="M368 830l60 -120h-23l-139 120h102zM507 226l76 434h58l-75 -425q-21 -120 -97 -182.5t-182 -62.5q-96 0 -155.5 46.5t-59.5 141.5q0 36 7 72l72 410h95l-72 -410q-6 -36 -6 -64q0 -72 41 -107t99 -35q69 0 126 45.5t73 136.5z" />
    <glyph glyph-name="Uacute" unicode="&#xda;" horiz-adv-x="676" 
d="M502 830h108l-182 -120h-28zM507 226l76 434h58l-75 -425q-21 -120 -97 -182.5t-182 -62.5q-96 0 -155.5 46.5t-59.5 141.5q0 36 7 72l72 410h95l-72 -410q-6 -36 -6 -64q0 -72 41 -107t99 -35q69 0 126 45.5t73 136.5z" />
    <glyph glyph-name="Ucircumflex" unicode="&#xdb;" horiz-adv-x="676" 
d="M421 753l-93 -43h-25l124 120h15l83 -120h-26zM507 226l76 434h58l-75 -425q-21 -120 -97 -182.5t-182 -62.5q-96 0 -155.5 46.5t-59.5 141.5q0 36 7 72l72 410h95l-72 -410q-6 -36 -6 -64q0 -72 41 -107t99 -35q69 0 126 45.5t73 136.5z" />
    <glyph glyph-name="Udieresis" unicode="&#xdc;" horiz-adv-x="676" 
d="M533 813l-13 -76h-75l13 76h75zM402 813l-13 -76h-75l13 76h75zM507 226l76 434h58l-75 -425q-21 -120 -97 -182.5t-182 -62.5q-96 0 -155.5 46.5t-59.5 141.5q0 36 7 72l72 410h95l-72 -410q-6 -36 -6 -64q0 -72 41 -107t99 -35q69 0 126 45.5t73 136.5z" />
    <glyph glyph-name="Yacute" unicode="&#xdd;" horiz-adv-x="601" 
d="M454 830h108l-182 -120h-28zM289 0h-96l53 298l-164 362h101l141 -310l251 310h61l-293 -353z" />
    <glyph glyph-name="Thorn" unicode="&#xde;" horiz-adv-x="575" 
d="M333 500h-104l-48 -272h104q65 0 106.5 42.5t41.5 116.5q0 62 -26.5 87.5t-73.5 25.5zM276 178h-104l-31 -178h-96l116 660h96l-19 -110h103q92 0 142.5 -40.5t50.5 -116.5q0 -96 -69.5 -155.5t-188.5 -59.5z" />
    <glyph glyph-name="germandbls" unicode="&#xdf;" horiz-adv-x="565" 
d="M-51 -250q-15 0 -36 3l4 31q10 -2 18 -2q66 0 87 114l90 518h-80l6 36h80l3 18q24 137 88 207.5t162 70.5q80 0 115 -36.5t35 -92.5q0 -36 -20 -65.5t-48.5 -49l-57 -39t-48.5 -45t-20 -56.5q0 -36 17.5 -54.5t66.5 -41.5q53 -25 79 -54t26 -71q0 -69 -51 -110.5
t-124 -41.5q-67 0 -102 34.5t-29 98.5h27q0 -50 27.5 -72.5t71.5 -22.5t72 23.5t28 65.5q0 32 -18 50.5t-57 35.5q-52 24 -77 52t-25 73q0 39 19 70.5t45.5 53.5t53.5 44.5t46 55.5t19 73q0 91 -78 91q-56 0 -93 -46t-56 -154l-104 -598q-14 -79 -56 -123t-106 -44z" />
    <glyph glyph-name="agrave" unicode="&#xe0;" horiz-adv-x="528" 
d="M268 697l36 -150h-23l-115 150h102zM206 39q54 0 96 36q0 17 3 35l50 281q-32 23 -83 23q-76 0 -120 -71.5t-44 -183.5q0 -62 27 -91t71 -29zM381 -11q-61 0 -75 50q-54 -51 -125 -51q-76 0 -118.5 48t-42.5 135q0 73 28.5 138.5t86 108t130.5 42.5q71 0 116 -39
q35 13 49 29h20l-62 -352q-3 -15 -3 -25q0 -32 26 -32q31 0 40 52h25q-15 -104 -95 -104z" />
    <glyph glyph-name="aacute" unicode="&#xe1;" horiz-adv-x="528" 
d="M365 698h109l-168 -150h-29zM206 39q54 0 96 36q0 17 3 35l50 281q-32 23 -83 23q-76 0 -120 -71.5t-44 -183.5q0 -62 27 -91t71 -29zM381 -11q-61 0 -75 50q-54 -51 -125 -51q-76 0 -118.5 48t-42.5 135q0 73 28.5 138.5t86 108t130.5 42.5q71 0 116 -39q35 13 49 29h20
l-62 -352q-3 -15 -3 -25q0 -32 26 -32q31 0 40 52h25q-15 -104 -95 -104z" />
    <glyph glyph-name="acircumflex" unicode="&#xe2;" horiz-adv-x="528" 
d="M303 613l-98 -65h-26l130 150h15l78 -150h-26zM206 39q54 0 96 36q0 17 3 35l50 281q-32 23 -83 23q-76 0 -120 -71.5t-44 -183.5q0 -62 27 -91t71 -29zM381 -11q-61 0 -75 50q-54 -51 -125 -51q-76 0 -118.5 48t-42.5 135q0 73 28.5 138.5t86 108t130.5 42.5
q71 0 116 -39q35 13 49 29h20l-62 -352q-3 -15 -3 -25q0 -32 26 -32q31 0 40 52h25q-15 -104 -95 -104z" />
    <glyph glyph-name="atilde" unicode="&#xe3;" horiz-adv-x="528" 
d="M348 559q-23 0 -38.5 12.5t-22 27t-15.5 27t-21 12.5q-31 0 -41 -79h-34q8 72 29 105.5t57 33.5q22 0 37 -12.5t21.5 -27t17 -27t23.5 -12.5q33 0 41 79h34q-5 -67 -29 -103t-59 -36zM206 39q54 0 96 36q0 17 3 35l50 281q-32 23 -83 23q-76 0 -120 -71.5t-44 -183.5
q0 -62 27 -91t71 -29zM381 -11q-61 0 -75 50q-54 -51 -125 -51q-76 0 -118.5 48t-42.5 135q0 73 28.5 138.5t86 108t130.5 42.5q71 0 116 -39q35 13 49 29h20l-62 -352q-3 -15 -3 -25q0 -32 26 -32q31 0 40 52h25q-15 -104 -95 -104z" />
    <glyph glyph-name="adieresis" unicode="&#xe4;" horiz-adv-x="528" 
d="M280 667l-13 -76h-75l13 76h75zM411 667l-13 -76h-75l13 76h75zM206 39q54 0 96 36q0 17 3 35l50 281q-32 23 -83 23q-76 0 -120 -71.5t-44 -183.5q0 -62 27 -91t71 -29zM381 -11q-61 0 -75 50q-54 -51 -125 -51q-76 0 -118.5 48t-42.5 135q0 73 28.5 138.5t86 108
t130.5 42.5q71 0 116 -39q35 13 49 29h20l-62 -352q-3 -15 -3 -25q0 -32 26 -32q31 0 40 52h25q-15 -104 -95 -104z" />
    <glyph glyph-name="aring" unicode="&#xe5;" horiz-adv-x="528" 
d="M295 548q-39 0 -59 18t-20 44q0 37 29 62.5t76 25.5q39 0 59 -18t20 -44q0 -37 -29 -62.5t-76 -25.5zM300 574q23 0 36.5 17t13.5 45q0 37 -31 37q-25 0 -39 -17t-14 -46q0 -36 34 -36zM206 39q54 0 96 36q0 17 3 35l50 281q-32 23 -83 23q-76 0 -120 -71.5t-44 -183.5
q0 -62 27 -91t71 -29zM381 -11q-61 0 -75 50q-54 -51 -125 -51q-76 0 -118.5 48t-42.5 135q0 73 28.5 138.5t86 108t130.5 42.5q71 0 116 -39q35 13 49 29h20l-62 -352q-3 -15 -3 -25q0 -32 26 -32q31 0 40 52h25q-15 -104 -95 -104z" />
    <glyph glyph-name="ae" unicode="&#xe6;" horiz-adv-x="758" 
d="M564 418q-60 0 -102.5 -47t-52.5 -143q128 25 175 57t47 77q0 24 -17.5 40t-49.5 16zM206 39q69 0 122 63q-8 29 -8 61q0 38 10 91l24 127q-32 33 -82 33q-76 0 -120 -71.5t-44 -183.5q0 -62 27 -91t71 -29zM494 -11q-109 0 -152 78q-71 -79 -161 -79q-76 0 -118.5 48
t-42.5 135q0 114 66.5 201.5t172.5 87.5q64 0 110 -43q42 13 60 33h20l-10 -57q52 67 142 67q61 0 98 -27.5t37 -70.5q0 -28 -12 -49.5t-43.5 -44.5t-95 -42t-159.5 -34v-18q0 -77 31 -105t86 -28q47 0 88 25.5t60 78.5h24q-16 -66 -71 -111t-130 -45z" />
    <glyph glyph-name="ccedilla" unicode="&#xe7;" horiz-adv-x="445" 
d="M172 -199q-30 0 -46 15.5t-16 42.5h31q0 -12 8 -19t20 -7q18 0 30 13.5t12 38.5q0 33 -25 33q-21 0 -34 -19h-36l48 92q-67 9 -106.5 53.5t-39.5 118.5q0 118 69 207.5t186 89.5q78 0 117 -45.5t32 -112.5h-26q1 55 -32 81t-81 26q-84 0 -129.5 -69t-45.5 -177
q0 -65 33 -93.5t85 -28.5q45 0 85.5 25.5t57.5 78.5h25q-15 -65 -69 -110.5t-128 -45.5l-28 -52q16 11 39 11q52 0 52 -58q0 -37 -24 -63t-64 -26z" />
    <glyph glyph-name="egrave" unicode="&#xe8;" horiz-adv-x="458" 
d="M258 697l36 -150h-23l-115 150h102zM193 -11q-81 0 -128 45.5t-47 128.5q0 115 73 206t182 91q66 0 104 -27t38 -71q0 -28 -11.5 -49.5t-43 -44.5t-94 -42t-156.5 -34q-1 -9 -1 -29q0 -122 113 -122q47 0 88 25.5t60 78.5h24q-16 -66 -71 -111t-130 -45zM263 418
q-54 0 -96 -50t-54 -139q125 25 171 57t46 76q0 56 -67 56z" />
    <glyph glyph-name="eacute" unicode="&#xe9;" horiz-adv-x="458" 
d="M355 698h109l-168 -150h-29zM193 -11q-81 0 -128 45.5t-47 128.5q0 115 73 206t182 91q66 0 104 -27t38 -71q0 -28 -11.5 -49.5t-43 -44.5t-94 -42t-156.5 -34q-1 -9 -1 -29q0 -122 113 -122q47 0 88 25.5t60 78.5h24q-16 -66 -71 -111t-130 -45zM263 418q-54 0 -96 -50
t-54 -139q125 25 171 57t46 76q0 56 -67 56z" />
    <glyph glyph-name="ecircumflex" unicode="&#xea;" horiz-adv-x="458" 
d="M293 613l-98 -65h-26l130 150h15l78 -150h-26zM193 -11q-81 0 -128 45.5t-47 128.5q0 115 73 206t182 91q66 0 104 -27t38 -71q0 -28 -11.5 -49.5t-43 -44.5t-94 -42t-156.5 -34q-1 -9 -1 -29q0 -122 113 -122q47 0 88 25.5t60 78.5h24q-16 -66 -71 -111t-130 -45z
M263 418q-54 0 -96 -50t-54 -139q125 25 171 57t46 76q0 56 -67 56z" />
    <glyph glyph-name="edieresis" unicode="&#xeb;" horiz-adv-x="458" 
d="M270 667l-13 -76h-75l13 76h75zM401 667l-13 -76h-75l13 76h75zM193 -11q-81 0 -128 45.5t-47 128.5q0 115 73 206t182 91q66 0 104 -27t38 -71q0 -28 -11.5 -49.5t-43 -44.5t-94 -42t-156.5 -34q-1 -9 -1 -29q0 -122 113 -122q47 0 88 25.5t60 78.5h24q-16 -66 -71 -111
t-130 -45zM263 418q-54 0 -96 -50t-54 -139q125 25 171 57t46 76q0 56 -67 56z" />
    <glyph glyph-name="igrave" unicode="&#xec;" horiz-adv-x="238" 
d="M132 697l36 -150h-23l-115 150h102zM182 450l-79 -450h-85l79 450h85z" />
    <glyph glyph-name="iacute" unicode="&#xed;" horiz-adv-x="238" 
d="M229 698h109l-168 -150h-29zM182 450l-79 -450h-85l79 450h85z" />
    <glyph glyph-name="icircumflex" unicode="&#xee;" horiz-adv-x="238" 
d="M167 613l-98 -65h-26l130 150h15l78 -150h-26zM182 450l-79 -450h-85l79 450h85z" />
    <glyph glyph-name="idieresis" unicode="&#xef;" horiz-adv-x="238" 
d="M144 667l-13 -76h-75l13 76h75zM275 667l-13 -76h-75l13 76h75zM182 450l-79 -450h-85l79 450h85z" />
    <glyph glyph-name="eth" unicode="&#xf0;" horiz-adv-x="498" 
d="M176 -11q-75 0 -116.5 50t-41.5 127q0 112 70 203.5t163 91.5q44 0 73.5 -27.5t39.5 -81.5q3 31 3 62q0 102 -35 178q-79 -58 -81 -58h-49l116 83q-55 92 -160 92l6 27q134 0 208 -81l100 72h48l-130 -94q67 -91 67 -250q0 -167 -81.5 -280.5t-199.5 -113.5zM351 289
q0 60 -26 94t-66 34q-69 0 -111.5 -82.5t-42.5 -199.5q0 -103 78 -103q74 0 121 76t47 181z" />
    <glyph glyph-name="ntilde" unicode="&#xf1;" horiz-adv-x="566" 
d="M383 559q-23 0 -38.5 12.5t-22 27t-15.5 27t-21 12.5q-31 0 -41 -79h-34q8 72 29 105.5t57 33.5q22 0 37 -12.5t21.5 -27t17 -27t23.5 -12.5q33 0 41 79h34q-5 -67 -29 -103t-59 -36zM181 450l-16 -92q19 39 64.5 70.5t105.5 31.5q64 0 98 -32t34 -88q0 -11 -4 -37
l-36 -205q-3 -15 -3 -26q0 -31 26 -31q13 0 24 13.5t15 38.5h25q-13 -104 -94 -104q-80 0 -80 83q0 10 4 38l31 172q4 20 4 41q0 86 -84 86q-52 0 -94 -43t-50 -89l-48 -277h-85l79 450h84z" />
    <glyph glyph-name="ograve" unicode="&#xf2;" horiz-adv-x="510" 
d="M269 697l36 -150h-23l-115 150h102zM19 169q0 113 73.5 202t184.5 89q85 0 131 -49t46 -131q0 -113 -73.5 -202t-185.5 -89q-83 0 -129.5 49.5t-46.5 130.5zM202 31q73 0 118.5 77t45.5 202q0 55 -25.5 81.5t-69.5 26.5q-74 0 -119.5 -77t-45.5 -201q0 -54 26 -81.5
t70 -27.5z" />
    <glyph glyph-name="oacute" unicode="&#xf3;" horiz-adv-x="510" 
d="M366 698h109l-168 -150h-29zM19 169q0 113 73.5 202t184.5 89q85 0 131 -49t46 -131q0 -113 -73.5 -202t-185.5 -89q-83 0 -129.5 49.5t-46.5 130.5zM202 31q73 0 118.5 77t45.5 202q0 55 -25.5 81.5t-69.5 26.5q-74 0 -119.5 -77t-45.5 -201q0 -54 26 -81.5t70 -27.5z
" />
    <glyph glyph-name="ocircumflex" unicode="&#xf4;" horiz-adv-x="510" 
d="M304 613l-98 -65h-26l130 150h15l78 -150h-26zM19 169q0 113 73.5 202t184.5 89q85 0 131 -49t46 -131q0 -113 -73.5 -202t-185.5 -89q-83 0 -129.5 49.5t-46.5 130.5zM202 31q73 0 118.5 77t45.5 202q0 55 -25.5 81.5t-69.5 26.5q-74 0 -119.5 -77t-45.5 -201
q0 -54 26 -81.5t70 -27.5z" />
    <glyph glyph-name="otilde" unicode="&#xf5;" horiz-adv-x="510" 
d="M349 559q-23 0 -38.5 12.5t-22 27t-15.5 27t-21 12.5q-31 0 -41 -79h-34q8 72 29 105.5t57 33.5q22 0 37 -12.5t21.5 -27t17 -27t23.5 -12.5q33 0 41 79h34q-5 -67 -29 -103t-59 -36zM19 169q0 113 73.5 202t184.5 89q85 0 131 -49t46 -131q0 -113 -73.5 -202t-185.5 -89
q-83 0 -129.5 49.5t-46.5 130.5zM202 31q73 0 118.5 77t45.5 202q0 55 -25.5 81.5t-69.5 26.5q-74 0 -119.5 -77t-45.5 -201q0 -54 26 -81.5t70 -27.5z" />
    <glyph glyph-name="odieresis" unicode="&#xf6;" horiz-adv-x="510" 
d="M281 667l-13 -76h-75l13 76h75zM412 667l-13 -76h-75l13 76h75zM19 169q0 113 73.5 202t184.5 89q85 0 131 -49t46 -131q0 -113 -73.5 -202t-185.5 -89q-83 0 -129.5 49.5t-46.5 130.5zM202 31q73 0 118.5 77t45.5 202q0 55 -25.5 81.5t-69.5 26.5q-74 0 -119.5 -77
t-45.5 -201q0 -54 26 -81.5t70 -27.5z" />
    <glyph glyph-name="divide" unicode="&#xf7;" 
d="M278 336q-20 0 -32 12t-12 30q0 26 16 43t40 17q19 0 31 -12t12 -30q0 -28 -16.5 -44t-38.5 -16zM437 200h-370l11 63h370zM224 26q-20 0 -32 12t-12 30q0 26 16 43t40 17q19 0 31 -12t12 -30q0 -28 -16.5 -44t-38.5 -16z" />
    <glyph glyph-name="oslash" unicode="&#xf8;" horiz-adv-x="510" 
d="M195 -11q-80 0 -126 46l-36 -35h-49l63 62q-28 45 -28 107q0 113 73.5 202t184.5 89q80 0 127 -45l35 35h49l-62 -62q28 -45 28 -108q0 -113 -73.5 -202t-185.5 -89zM106 140q0 -13 1 -18l249 246q-21 50 -85 50q-74 0 -119.5 -77t-45.5 -201zM202 31q73 0 118.5 77
t45.5 202q0 13 -1 18l-248 -245q22 -52 85 -52z" />
    <glyph glyph-name="ugrave" unicode="&#xf9;" horiz-adv-x="552" 
d="M273 697l36 -150h-23l-115 150h102zM475 450l-61 -344q-3 -18 -3 -32q0 -33 26 -33q30 0 39 52h24q-13 -104 -94 -104q-79 0 -79 84q0 4 0.5 12t0.5 9q-19 -40 -64 -72t-102 -32q-62 0 -94.5 32t-32.5 87q0 17 3 37l54 304h86l-49 -282q-5 -21 -5 -46q0 -81 72 -81
q53 0 95.5 43t49.5 89l49 277h85z" />
    <glyph glyph-name="uacute" unicode="&#xfa;" horiz-adv-x="552" 
d="M370 698h109l-168 -150h-29zM475 450l-61 -344q-3 -18 -3 -32q0 -33 26 -33q30 0 39 52h24q-13 -104 -94 -104q-79 0 -79 84q0 4 0.5 12t0.5 9q-19 -40 -64 -72t-102 -32q-62 0 -94.5 32t-32.5 87q0 17 3 37l54 304h86l-49 -282q-5 -21 -5 -46q0 -81 72 -81q53 0 95.5 43
t49.5 89l49 277h85z" />
    <glyph glyph-name="ucircumflex" unicode="&#xfb;" horiz-adv-x="552" 
d="M308 613l-98 -65h-26l130 150h15l78 -150h-26zM475 450l-61 -344q-3 -18 -3 -32q0 -33 26 -33q30 0 39 52h24q-13 -104 -94 -104q-79 0 -79 84q0 4 0.5 12t0.5 9q-19 -40 -64 -72t-102 -32q-62 0 -94.5 32t-32.5 87q0 17 3 37l54 304h86l-49 -282q-5 -21 -5 -46
q0 -81 72 -81q53 0 95.5 43t49.5 89l49 277h85z" />
    <glyph glyph-name="udieresis" unicode="&#xfc;" horiz-adv-x="552" 
d="M285 667l-13 -76h-75l13 76h75zM416 667l-13 -76h-75l13 76h75zM475 450l-61 -344q-3 -18 -3 -32q0 -33 26 -33q30 0 39 52h24q-13 -104 -94 -104q-79 0 -79 84q0 4 0.5 12t0.5 9q-19 -40 -64 -72t-102 -32q-62 0 -94.5 32t-32.5 87q0 17 3 37l54 304h86l-49 -282
q-5 -21 -5 -46q0 -81 72 -81q53 0 95.5 43t49.5 89l49 277h85z" />
    <glyph glyph-name="yacute" unicode="&#xfd;" horiz-adv-x="443" 
d="M330 698h109l-168 -150h-29zM-63 -250l15 95q32 0 45 0.5t35 5t33.5 13t31 26t38 43t45.5 65.5l-158 452h91l127 -359q72 120 87 176t15 183h96q0 -29 -8 -62t-17.5 -58.5t-32 -67t-35.5 -62.5l-45.5 -73.5t-45.5 -72.5q-112 -178 -175 -241t-142 -63z" />
    <glyph glyph-name="thorn" unicode="&#xfe;" horiz-adv-x="558" 
d="M255 32q69 0 114 74.5t45 187.5q0 123 -101 123q-52 0 -93 -41.5t-60.5 -97.5t-19.5 -112q0 -65 30.5 -99.5t84.5 -34.5zM266 -11q-55 0 -94.5 27t-50.5 76l-58 -332h-86l171 975h85l-66 -378q28 52 75.5 77.5t91.5 25.5q78 0 123 -51.5t45 -131.5q0 -116 -70.5 -202
t-165.5 -86z" />
    <glyph glyph-name="ydieresis" unicode="&#xff;" horiz-adv-x="443" 
d="M245 667l-13 -76h-75l13 76h75zM376 667l-13 -76h-75l13 76h75zM-63 -250l15 95q32 0 45 0.5t35 5t33.5 13t31 26t38 43t45.5 65.5l-158 452h91l127 -359q72 120 87 176t15 183h96q0 -29 -8 -62t-17.5 -58.5t-32 -67t-35.5 -62.5l-45.5 -73.5t-45.5 -72.5
q-112 -178 -175 -241t-142 -63z" />
    <glyph glyph-name="Amacron" unicode="&#x100;" horiz-adv-x="591" 
d="M258 800h238l-9 -51h-238zM363 251l-56 269l-149 -269h205zM415 0l-42 201h-243l-111 -201h-58l376 665h32l145 -665h-99z" />
    <glyph glyph-name="amacron" unicode="&#x101;" horiz-adv-x="528" 
d="M195 655h238l-9 -51h-238zM206 39q54 0 96 36q0 17 3 35l50 281q-32 23 -83 23q-76 0 -120 -71.5t-44 -183.5q0 -62 27 -91t71 -29zM381 -11q-61 0 -75 50q-54 -51 -125 -51q-76 0 -118.5 48t-42.5 135q0 73 28.5 138.5t86 108t130.5 42.5q71 0 116 -39q35 13 49 29h20
l-62 -352q-3 -15 -3 -25q0 -32 26 -32q31 0 40 52h25q-15 -104 -95 -104z" />
    <glyph glyph-name="Abreve" unicode="&#x102;" horiz-adv-x="591" 
d="M371 769q84 0 94 61h34q-9 -50 -44.5 -85t-87.5 -35q-59 0 -85.5 34.5t-17.5 85.5h33q-6 -35 13 -48t61 -13zM363 251l-56 269l-149 -269h205zM415 0l-42 201h-243l-111 -201h-58l376 665h32l145 -665h-99z" />
    <glyph glyph-name="abreve" unicode="&#x103;" horiz-adv-x="528" 
d="M310 626q83 0 97 72h33q-10 -62 -46 -100.5t-89 -38.5q-58 0 -84 40.5t-16 98.5h33q-7 -41 12 -56.5t60 -15.5zM206 39q54 0 96 36q0 17 3 35l50 281q-32 23 -83 23q-76 0 -120 -71.5t-44 -183.5q0 -62 27 -91t71 -29zM381 -11q-61 0 -75 50q-54 -51 -125 -51
q-76 0 -118.5 48t-42.5 135q0 73 28.5 138.5t86 108t130.5 42.5q71 0 116 -39q35 13 49 29h20l-62 -352q-3 -15 -3 -25q0 -32 26 -32q31 0 40 52h25q-15 -104 -95 -104z" />
    <glyph glyph-name="Aogonek" unicode="&#x104;" horiz-adv-x="591" 
d="M363 251l-56 269l-149 -269h205zM415 0l-42 201h-243l-111 -201h-58l376 665h32l145 -665h-64q-55 -64 -70.5 -89t-15.5 -52q0 -24 26 -24q16 0 31.5 14t22.5 40h29q-7 -43 -34 -65.5t-65 -22.5q-65 0 -65 48q0 11 4.5 24t10.5 23t18.5 25t20.5 24t26 27.5t26 27.5z" />
    <glyph glyph-name="aogonek" unicode="&#x105;" horiz-adv-x="528" 
d="M338 -199q-65 0 -65 48q0 9 2 18t8.5 20t11 18.5t16 20.5t17 19.5t21 22.5t20.5 22q-50 3 -63 49q-54 -51 -125 -51q-76 0 -118.5 48t-42.5 135q0 73 28.5 138.5t86 108t130.5 42.5q71 0 116 -39q35 13 49 29h20l-62 -352q-3 -15 -3 -25q0 -32 26 -32q31 0 40 52h25
q-13 -84 -68 -100q-51 -59 -65.5 -83t-14.5 -51q0 -24 26 -24q16 0 31.5 14t22.5 40h29q-7 -43 -34 -65.5t-65 -22.5zM206 39q54 0 96 36q0 17 3 35l50 281q-32 23 -83 23q-76 0 -120 -71.5t-44 -183.5q0 -62 27 -91t71 -29z" />
    <glyph glyph-name="Cacute" unicode="&#x106;" horiz-adv-x="622" 
d="M503 830h108l-182 -120h-28zM401 620q-108 0 -180.5 -93.5t-72.5 -278.5q0 -208 157 -208q158 0 206 146h38q-61 -196 -253 -196q-118 0 -182 74t-64 197q0 169 97.5 289t250.5 120q92 0 149 -52.5t53 -143.5h-38q-1 69 -45.5 107.5t-115.5 38.5z" />
    <glyph glyph-name="cacute" unicode="&#x107;" horiz-adv-x="445" 
d="M375 698h109l-168 -150h-29zM226 41q45 0 85.5 25.5t57.5 78.5h25q-15 -65 -69 -110.5t-128 -45.5q-82 0 -130.5 45.5t-48.5 128.5q0 118 69 207.5t186 89.5q78 0 117 -45.5t32 -112.5h-26q1 55 -32 81t-81 26q-84 0 -129.5 -69t-45.5 -177q0 -65 33 -93.5t85 -28.5z" />
    <glyph glyph-name="Ccircumflex" unicode="&#x108;" horiz-adv-x="622" 
d="M422 753l-93 -43h-25l124 120h15l83 -120h-26zM401 620q-108 0 -180.5 -93.5t-72.5 -278.5q0 -208 157 -208q158 0 206 146h38q-61 -196 -253 -196q-118 0 -182 74t-64 197q0 169 97.5 289t250.5 120q92 0 149 -52.5t53 -143.5h-38q-1 69 -45.5 107.5t-115.5 38.5z" />
    <glyph glyph-name="ccircumflex" unicode="&#x109;" horiz-adv-x="445" 
d="M313 613l-98 -65h-26l130 150h15l78 -150h-26zM226 41q45 0 85.5 25.5t57.5 78.5h25q-15 -65 -69 -110.5t-128 -45.5q-82 0 -130.5 45.5t-48.5 128.5q0 118 69 207.5t186 89.5q78 0 117 -45.5t32 -112.5h-26q1 55 -32 81t-81 26q-84 0 -129.5 -69t-45.5 -177
q0 -65 33 -93.5t85 -28.5z" />
    <glyph glyph-name="Cdotaccent" unicode="&#x10a;" horiz-adv-x="622" 
d="M474 808l-13 -76h-85l13 76h85zM401 620q-108 0 -180.5 -93.5t-72.5 -278.5q0 -208 157 -208q158 0 206 146h38q-61 -196 -253 -196q-118 0 -182 74t-64 197q0 169 97.5 289t250.5 120q92 0 149 -52.5t53 -143.5h-38q-1 69 -45.5 107.5t-115.5 38.5z" />
    <glyph glyph-name="cdotaccent" unicode="&#x10b;" horiz-adv-x="445" 
d="M366 667l-13 -76h-85l13 76h85zM226 41q45 0 85.5 25.5t57.5 78.5h25q-15 -65 -69 -110.5t-128 -45.5q-82 0 -130.5 45.5t-48.5 128.5q0 118 69 207.5t186 89.5q78 0 117 -45.5t32 -112.5h-26q1 55 -32 81t-81 26q-84 0 -129.5 -69t-45.5 -177q0 -65 33 -93.5t85 -28.5z
" />
    <glyph glyph-name="Ccaron" unicode="&#x10c;" horiz-adv-x="622" 
d="M429 787l93 43h26l-125 -120h-15l-82 120h25zM401 620q-108 0 -180.5 -93.5t-72.5 -278.5q0 -208 157 -208q158 0 206 146h38q-61 -196 -253 -196q-118 0 -182 74t-64 197q0 169 97.5 289t250.5 120q92 0 149 -52.5t53 -143.5h-38q-1 69 -45.5 107.5t-115.5 38.5z" />
    <glyph glyph-name="ccaron" unicode="&#x10d;" horiz-adv-x="445" 
d="M316 635l96 63h26l-130 -150h-15l-77 150h25zM226 41q45 0 85.5 25.5t57.5 78.5h25q-15 -65 -69 -110.5t-128 -45.5q-82 0 -130.5 45.5t-48.5 128.5q0 118 69 207.5t186 89.5q78 0 117 -45.5t32 -112.5h-26q1 55 -32 81t-81 26q-84 0 -129.5 -69t-45.5 -177
q0 -65 33 -93.5t85 -28.5z" />
    <glyph glyph-name="Dcaron" unicode="&#x10e;" horiz-adv-x="688" 
d="M360 787l93 43h26l-125 -120h-15l-82 120h25zM392 610h-144l-98 -560h143q111 0 179.5 105t68.5 279q0 176 -149 176zM45 0l116 660h239q115 0 177 -75t62 -198q0 -62 -24 -128.5t-67 -125t-112.5 -96t-151.5 -37.5h-239z" />
    <glyph glyph-name="dcaron" unicode="&#x10f;" horiz-adv-x="556" 
d="M611 735h106l-126 -150h-25zM267 418q-69 0 -114.5 -75t-45.5 -187q0 -123 101 -123q77 0 125.5 81t48.5 170q0 65 -31 99.5t-84 34.5zM337 0l16 90q-29 -50 -75.5 -75t-89.5 -25q-78 0 -123 51t-45 132q0 116 70.5 202t165.5 86q55 0 94 -26.5t51 -74.5l66 375h85
l-130 -735h-85z" />
    <glyph glyph-name="Dcroat" unicode="&#x110;" horiz-adv-x="688" 
d="M345 300h-151l-44 -250h143q111 0 179.5 105t68.5 279q0 176 -149 176h-144l-45 -260h151zM45 0l53 300h-72l9 50h72l54 310h239q115 0 177 -75t62 -198q0 -62 -24 -128.5t-67 -125t-112.5 -96t-151.5 -37.5h-239z" />
    <glyph glyph-name="dcroat" unicode="&#x111;" horiz-adv-x="556" 
d="M267 418q-69 0 -114.5 -75t-45.5 -187q0 -123 101 -123q77 0 125.5 81t48.5 170q0 65 -31 99.5t-84 34.5zM337 0l16 90q-29 -50 -75.5 -75t-89.5 -25q-78 0 -123 51t-45 132q0 116 70.5 202t165.5 86q55 0 94 -26.5t51 -74.5l36 206h-122l5 35h123l24 134h85l-24 -134h84
l-7 -35h-83l-100 -566h-85z" />
    <glyph glyph-name="Emacron" unicode="&#x112;" horiz-adv-x="545" 
d="M251 800h238l-9 -51h-238zM45 0l116 660h359l-9 -50h-263l-45 -255h244l-8 -50h-244l-45 -255h283l-9 -50h-379z" />
    <glyph glyph-name="emacron" unicode="&#x113;" horiz-adv-x="458" 
d="M185 655h238l-9 -51h-238zM193 -11q-81 0 -128 45.5t-47 128.5q0 115 73 206t182 91q66 0 104 -27t38 -71q0 -28 -11.5 -49.5t-43 -44.5t-94 -42t-156.5 -34q-1 -9 -1 -29q0 -122 113 -122q47 0 88 25.5t60 78.5h24q-16 -66 -71 -111t-130 -45zM263 418q-54 0 -96 -50
t-54 -139q125 25 171 57t46 76q0 56 -67 56z" />
    <glyph glyph-name="Ebreve" unicode="&#x114;" horiz-adv-x="545" 
d="M364 769q84 0 94 61h34q-9 -50 -44.5 -85t-87.5 -35q-59 0 -85.5 34.5t-17.5 85.5h33q-6 -35 13 -48t61 -13zM45 0l116 660h359l-9 -50h-263l-45 -255h244l-8 -50h-244l-45 -255h283l-9 -50h-379z" />
    <glyph glyph-name="ebreve" unicode="&#x115;" horiz-adv-x="458" 
d="M300 626q83 0 97 72h33q-10 -62 -46 -100.5t-89 -38.5q-58 0 -84 40.5t-16 98.5h33q-7 -41 12 -56.5t60 -15.5zM193 -11q-81 0 -128 45.5t-47 128.5q0 115 73 206t182 91q66 0 104 -27t38 -71q0 -28 -11.5 -49.5t-43 -44.5t-94 -42t-156.5 -34q-1 -9 -1 -29
q0 -122 113 -122q47 0 88 25.5t60 78.5h24q-16 -66 -71 -111t-130 -45zM263 418q-54 0 -96 -50t-54 -139q125 25 171 57t46 76q0 56 -67 56z" />
    <glyph glyph-name="Edotaccent" unicode="&#x116;" horiz-adv-x="545" 
d="M410 808l-13 -76h-85l13 76h85zM45 0l116 660h359l-9 -50h-263l-45 -255h244l-8 -50h-244l-45 -255h283l-9 -50h-379z" />
    <glyph glyph-name="edotaccent" unicode="&#x117;" horiz-adv-x="458" 
d="M346 667l-13 -76h-85l13 76h85zM193 -11q-81 0 -128 45.5t-47 128.5q0 115 73 206t182 91q66 0 104 -27t38 -71q0 -28 -11.5 -49.5t-43 -44.5t-94 -42t-156.5 -34q-1 -9 -1 -29q0 -122 113 -122q47 0 88 25.5t60 78.5h24q-16 -66 -71 -111t-130 -45zM263 418
q-54 0 -96 -50t-54 -139q125 25 171 57t46 76q0 56 -67 56z" />
    <glyph glyph-name="Eogonek" unicode="&#x118;" horiz-adv-x="545" 
d="M404 -111q-7 -43 -34 -65.5t-65 -22.5q-65 0 -65 48q0 11 4.5 24t10 22.5t18.5 25.5t20.5 24t26 28t25.5 27h-300l116 660h359l-9 -50h-263l-45 -255h244l-8 -50h-244l-45 -255h283l-9 -50h-44q-54 -62 -69.5 -88t-15.5 -53q0 -24 26 -24q16 0 31.5 14t22.5 40h29z" />
    <glyph glyph-name="eogonek" unicode="&#x119;" horiz-adv-x="458" 
d="M226 -211q-69 0 -69 51q0 18 11.5 39.5t23.5 35.5t40.5 44.5t41.5 45.5q-38 -16 -81 -16q-81 0 -128 45.5t-47 128.5q0 115 73 206t182 91q66 0 104 -27t38 -71q0 -28 -11.5 -49.5t-43 -44.5t-94 -42t-156.5 -34q-1 -9 -1 -29q0 -122 113 -122q47 0 88 25.5t60 78.5h24
q-7 -30 -25 -59l-1 -1q-12 -18 -19 -26q-18 -23 -43.5 -54.5t-38.5 -48.5t-27 -37.5t-19.5 -36.5t-5.5 -31q0 -26 28 -26q17 0 33 15t24 43h30q-7 -46 -35.5 -70t-68.5 -24zM263 418q-54 0 -96 -50t-54 -139q125 25 171 57t46 76q0 56 -67 56z" />
    <glyph glyph-name="Ecaron" unicode="&#x11a;" horiz-adv-x="545" 
d="M365 787l93 43h26l-125 -120h-15l-82 120h25zM45 0l116 660h359l-9 -50h-263l-45 -255h244l-8 -50h-244l-45 -255h283l-9 -50h-379z" />
    <glyph glyph-name="ecaron" unicode="&#x11b;" horiz-adv-x="458" 
d="M296 635l96 63h26l-130 -150h-15l-77 150h25zM193 -11q-81 0 -128 45.5t-47 128.5q0 115 73 206t182 91q66 0 104 -27t38 -71q0 -28 -11.5 -49.5t-43 -44.5t-94 -42t-156.5 -34q-1 -9 -1 -29q0 -122 113 -122q47 0 88 25.5t60 78.5h24q-16 -66 -71 -111t-130 -45z
M263 418q-54 0 -96 -50t-54 -139q125 25 171 57t46 76q0 56 -67 56z" />
    <glyph glyph-name="Gcircumflex" unicode="&#x11c;" horiz-adv-x="660" 
d="M411 753l-93 -43h-25l124 120h15l83 -120h-26zM490 0q0 45 -20 63q-65 -73 -174 -73q-118 0 -182 74t-64 197q0 169 97.5 289t250.5 120q92 0 149 -52.5t53 -143.5h-38q-1 69 -45.5 107.5t-115.5 38.5q-108 0 -180.5 -93.5t-72.5 -278.5q0 -208 157 -208q94 0 149 67
l24 136h-104l9 50h199l-51 -293h-41z" />
    <glyph glyph-name="gcircumflex" unicode="&#x11d;" horiz-adv-x="557" 
d="M315 613l-98 -65h-26l130 150h15l78 -150h-26zM267 418q-69 0 -114.5 -75t-45.5 -187q0 -123 101 -123q77 0 125.5 81t48.5 170q0 65 -31 99.5t-84 34.5zM175 -250q-83 0 -125 46.5t-34 116.5h25q0 -58 37.5 -84t89.5 -26q68 0 109 42t60 150l17 96q-28 -50 -75.5 -75.5
t-90.5 -25.5q-78 0 -123 51t-45 132q0 116 70.5 202t165.5 86q55 0 94 -26.5t51 -74.5l9 54q53 14 72 36h20l-80 -455q-21 -121 -86 -183t-161 -62z" />
    <glyph glyph-name="Gbreve" unicode="&#x11e;" horiz-adv-x="660" 
d="M417 769q84 0 94 61h34q-9 -50 -44.5 -85t-87.5 -35q-59 0 -85.5 34.5t-17.5 85.5h33q-6 -35 13 -48t61 -13zM490 0q0 45 -20 63q-65 -73 -174 -73q-118 0 -182 74t-64 197q0 169 97.5 289t250.5 120q92 0 149 -52.5t53 -143.5h-38q-1 69 -45.5 107.5t-115.5 38.5
q-108 0 -180.5 -93.5t-72.5 -278.5q0 -208 157 -208q94 0 149 67l24 136h-104l9 50h199l-51 -293h-41z" />
    <glyph glyph-name="gbreve" unicode="&#x11f;" horiz-adv-x="557" 
d="M322 626q83 0 97 72h33q-10 -62 -46 -100.5t-89 -38.5q-58 0 -84 40.5t-16 98.5h33q-7 -41 12 -56.5t60 -15.5zM267 418q-69 0 -114.5 -75t-45.5 -187q0 -123 101 -123q77 0 125.5 81t48.5 170q0 65 -31 99.5t-84 34.5zM175 -250q-83 0 -125 46.5t-34 116.5h25
q0 -58 37.5 -84t89.5 -26q68 0 109 42t60 150l17 96q-28 -50 -75.5 -75.5t-90.5 -25.5q-78 0 -123 51t-45 132q0 116 70.5 202t165.5 86q55 0 94 -26.5t51 -74.5l9 54q53 14 72 36h20l-80 -455q-21 -121 -86 -183t-161 -62z" />
    <glyph glyph-name="Gdotaccent" unicode="&#x120;" horiz-adv-x="660" 
d="M463 808l-13 -76h-85l13 76h85zM490 0q0 45 -20 63q-65 -73 -174 -73q-118 0 -182 74t-64 197q0 169 97.5 289t250.5 120q92 0 149 -52.5t53 -143.5h-38q-1 69 -45.5 107.5t-115.5 38.5q-108 0 -180.5 -93.5t-72.5 -278.5q0 -208 157 -208q94 0 149 67l24 136h-104l9 50
h199l-51 -293h-41z" />
    <glyph glyph-name="gdotaccent" unicode="&#x121;" horiz-adv-x="557" 
d="M368 667l-13 -76h-85l13 76h85zM267 418q-69 0 -114.5 -75t-45.5 -187q0 -123 101 -123q77 0 125.5 81t48.5 170q0 65 -31 99.5t-84 34.5zM175 -250q-83 0 -125 46.5t-34 116.5h25q0 -58 37.5 -84t89.5 -26q68 0 109 42t60 150l17 96q-28 -50 -75.5 -75.5t-90.5 -25.5
q-78 0 -123 51t-45 132q0 116 70.5 202t165.5 86q55 0 94 -26.5t51 -74.5l9 54q53 14 72 36h20l-80 -455q-21 -121 -86 -183t-161 -62z" />
    <glyph glyph-name="Gcommaaccent" unicode="&#x122;" horiz-adv-x="660" 
d="M490 0q0 45 -20 63q-65 -73 -174 -73q-118 0 -182 74t-64 197q0 169 97.5 289t250.5 120q92 0 149 -52.5t53 -143.5h-38q-1 69 -45.5 107.5t-115.5 38.5q-108 0 -180.5 -93.5t-72.5 -278.5q0 -208 157 -208q94 0 149 67l24 136h-104l9 50h199l-51 -293h-41zM290 -135
q0 25 -53 25l8 50q88 0 88 -62q0 -73 -126 -73l4 26q79 0 79 34z" />
    <glyph glyph-name="gcommaaccent" unicode="&#x123;" horiz-adv-x="557" 
d="M359 548h-103l143 150h16zM267 418q-69 0 -114.5 -75t-45.5 -187q0 -123 101 -123q77 0 125.5 81t48.5 170q0 65 -31 99.5t-84 34.5zM175 -250q-83 0 -125 46.5t-34 116.5h25q0 -58 37.5 -84t89.5 -26q68 0 109 42t60 150l17 96q-28 -50 -75.5 -75.5t-90.5 -25.5
q-78 0 -123 51t-45 132q0 116 70.5 202t165.5 86q55 0 94 -26.5t51 -74.5l9 54q53 14 72 36h20l-80 -455q-21 -121 -86 -183t-161 -62z" />
    <glyph glyph-name="Hcircumflex" unicode="&#x124;" horiz-adv-x="737" 
d="M442 753l-93 -43h-25l124 120h15l83 -120h-26zM475 0l54 305h-329l-54 -305h-96l116 660h96l-54 -305h330l54 305h95l-117 -660h-95z" />
    <glyph glyph-name="hcircumflex" unicode="&#x125;" horiz-adv-x="567" 
d="M197 803l-93 -43h-25l124 120h15l83 -120h-26zM233 735l-67 -377q19 39 64.5 70.5t105.5 31.5q64 0 98 -32.5t34 -89.5q0 -17 -3 -35l-37 -205q-3 -15 -3 -25q0 -32 26 -32q13 0 24 13.5t15 38.5h25q-13 -104 -94 -104q-80 0 -80 83q0 10 4 38l30 172q4 21 4 43
q0 84 -83 84q-52 0 -94 -43t-50 -89l-48 -277h-85l129 735h85z" />
    <glyph glyph-name="Hbar" unicode="&#x126;" horiz-adv-x="737" 
d="M538 355l20 115h-329l-21 -115h330zM475 0l54 305h-329l-54 -305h-96l83 470h-68l9 50h67l25 140h96l-25 -140h330l25 140h95l-25 -140h63l-8 -50h-64l-83 -470h-95z" />
    <glyph glyph-name="hbar" unicode="&#x127;" horiz-adv-x="567" 
d="M515 93q-13 -104 -94 -104q-80 0 -80 83q0 10 4 38l30 172q4 21 4 43q0 84 -83 84q-52 0 -94 -43t-50 -89l-48 -277h-85l99 566h-62l5 35h63l24 134h85l-24 -134h143l-6 -35h-143l-37 -208q19 39 64.5 70.5t105.5 31.5q64 0 98 -32.5t34 -89.5q0 -17 -3 -35l-37 -205
q-3 -15 -3 -26q0 -31 26 -31q13 0 24 13.5t15 38.5h25z" />
    <glyph glyph-name="Itilde" unicode="&#x128;" horiz-adv-x="302" 
d="M274 710q-22 0 -38 10.5t-23.5 23t-18 23t-22.5 10.5q-18 0 -25.5 -15t-14.5 -52h-33q6 60 24.5 90t55.5 30q26 0 44 -17t31.5 -33.5t28.5 -16.5q18 0 25 15t13 52h34q-4 -60 -23 -90t-58 -30zM257 660l-116 -660h-96l116 660h96z" />
    <glyph glyph-name="itilde" unicode="&#x129;" horiz-adv-x="238" 
d="M212 559q-23 0 -38.5 12.5t-22 27t-15.5 27t-21 12.5q-31 0 -41 -79h-34q8 72 29 105.5t57 33.5q22 0 37 -12.5t21.5 -27t17 -27t23.5 -12.5q33 0 41 79h34q-5 -67 -29 -103t-59 -36zM182 450l-79 -450h-85l79 450h85z" />
    <glyph glyph-name="Imacron" unicode="&#x12a;" horiz-adv-x="302" 
d="M118 800h238l-9 -51h-238zM257 660l-116 -660h-96l116 660h96z" />
    <glyph glyph-name="imacron" unicode="&#x12b;" horiz-adv-x="238" 
d="M59 655h238l-9 -51h-238zM182 450l-79 -450h-85l79 450h85z" />
    <glyph glyph-name="Ibreve" unicode="&#x12c;" horiz-adv-x="302" 
d="M231 769q84 0 94 61h34q-9 -50 -44.5 -85t-87.5 -35q-59 0 -85.5 34.5t-17.5 85.5h33q-6 -35 13 -48t61 -13zM257 660l-116 -660h-96l116 660h96z" />
    <glyph glyph-name="ibreve" unicode="&#x12d;" horiz-adv-x="238" 
d="M174 626q83 0 97 72h33q-10 -62 -46 -100.5t-89 -38.5q-58 0 -84 40.5t-16 98.5h33q-7 -41 12 -56.5t60 -15.5zM182 450l-79 -450h-85l79 450h85z" />
    <glyph glyph-name="Iogonek" unicode="&#x12e;" horiz-adv-x="302" 
d="M74 0h-29l116 660h96l-116 -660h-32q-55 -64 -70.5 -89t-15.5 -52q0 -24 26 -24q16 0 31.5 14t22.5 40h29q-7 -43 -34 -65.5t-65 -22.5q-65 0 -65 48q0 11 4.5 24t10.5 23t18.5 25t20.5 24t26 27.5t26 27.5z" />
    <glyph glyph-name="iogonek" unicode="&#x12f;" horiz-adv-x="238" 
d="M221 667l-13 -76h-85l13 76h85zM43 0h-24l79 450h85l-79 -450h-26q-55 -64 -70.5 -89t-15.5 -52q0 -24 26 -24q16 0 31.5 14t22.5 40h29q-7 -43 -34 -65.5t-65 -22.5q-65 0 -65 48q0 11 4.5 24t10.5 23t18.5 25t20.5 24t26 27.5t26 27.5z" />
    <glyph glyph-name="Idotaccent" unicode="&#x130;" horiz-adv-x="302" 
d="M277 808l-13 -76h-85l13 76h85zM257 660l-116 -660h-96l116 660h96z" />
    <glyph glyph-name="dotlessi" unicode="&#x131;" horiz-adv-x="238" 
d="M182 450l-79 -450h-85l79 450h85z" />
    <glyph glyph-name="IJ" unicode="&#x132;" horiz-adv-x="811" 
d="M257 660l-116 -660h-96l116 660h96zM464 40q55 0 87.5 39.5t47.5 123.5l80 457h96l-80 -457q-18 -100 -75.5 -156.5t-151.5 -56.5q-170 0 -154 196h40q-2 -75 24.5 -110.5t85.5 -35.5z" />
    <glyph glyph-name="ij" unicode="&#x133;" horiz-adv-x="474" 
d="M458 667l-13 -76h-85l13 76h85zM221 667l-13 -76h-85l13 76h85zM183 450l-79 -450h-85l79 450h85zM261 31l74 419h84l-74 -422q-4 -23 -10 -67l-6 -44q-14 -79 -56 -123t-106 -44q-12 0 -36 3l5 32q10 -2 18 -2q67 0 87 115q18 124 20 133z" />
    <glyph glyph-name="Jcircumflex" unicode="&#x134;" horiz-adv-x="509" 
d="M435 753l-93 -43h-25l124 120h15l83 -120h-26zM162 40q55 0 87.5 39.5t47.5 123.5l80 457h96l-80 -457q-18 -100 -75.5 -156.5t-151.5 -56.5q-170 0 -154 196h40q-2 -75 24.5 -110.5t85.5 -35.5z" />
    <glyph glyph-name="jcircumflex" unicode="&#x135;" horiz-adv-x="236" 
d="M168 613l-98 -65h-26l130 150h15l78 -150h-26zM24 31l74 419h84l-74 -422q-4 -23 -10 -67l-6 -44q-14 -79 -56 -123t-106 -44q-12 0 -36 3l5 31q5 -1 18 -1q67 0 87 115q18 124 20 133z" />
    <glyph glyph-name="Kcommaaccent" unicode="&#x136;" horiz-adv-x="651" 
d="M550 0h-117l-227 331l357 329h67l-333 -303zM257 660l-116 -660h-96l116 660h96zM282 -135q0 25 -53 25l8 50q88 0 88 -62q0 -73 -126 -73l4 26q79 0 79 34z" />
    <glyph glyph-name="kcommaaccent" unicode="&#x137;" horiz-adv-x="491" 
d="M232 735l-129 -735h-85l130 735h84zM416 0h-103l-156 237l120 121q59 58 92.5 80t77.5 22l-19 -91q-92 0 -142 -47l-57 -53zM194 -135q0 25 -53 25l8 50q88 0 88 -62q0 -73 -126 -73l4 26q79 0 79 34z" />
    <glyph glyph-name="Lacute" unicode="&#x139;" horiz-adv-x="511" 
d="M297 830h108l-182 -120h-28zM45 0l116 660h96l-107 -610h283l-9 -50h-379z" />
    <glyph glyph-name="lacute" unicode="&#x13a;" horiz-adv-x="236" 
d="M286 880h108l-182 -120h-28zM232 735l-129 -735h-85l130 735h84z" />
    <glyph glyph-name="Lcommaaccent" unicode="&#x13b;" horiz-adv-x="511" 
d="M45 0l116 660h96l-107 -610h283l-9 -50h-379zM254 -135q0 25 -53 25l8 50q88 0 88 -62q0 -73 -126 -73l4 26q79 0 79 34z" />
    <glyph glyph-name="lcommaaccent" unicode="&#x13c;" horiz-adv-x="236" 
d="M232 735l-129 -735h-85l130 735h84zM50 -135q0 25 -53 25l8 50q88 0 88 -62q0 -73 -126 -73l4 26q79 0 79 34z" />
    <glyph glyph-name="Lcaron" unicode="&#x13d;" horiz-adv-x="511" 
d="M356 660h106l-126 -150h-25zM45 0l116 660h96l-107 -610h283l-9 -50h-379z" />
    <glyph glyph-name="lcaron" unicode="&#x13e;" horiz-adv-x="236" 
d="M290 735h106l-126 -150h-25zM232 735l-129 -735h-85l130 735h84z" />
    <glyph glyph-name="Ldot" unicode="&#x13f;" horiz-adv-x="511" 
d="M456 389l-13 -76h-85l13 76h85zM45 0l116 660h96l-107 -610h283l-9 -50h-379z" />
    <glyph glyph-name="ldot" unicode="&#x140;" horiz-adv-x="236" 
d="M232 735l-129 -735h-85l130 735h84zM292 386l-13 -76h-85l13 76h85z" />
    <glyph glyph-name="Lslash" unicode="&#x141;" horiz-adv-x="511" 
d="M45 0l44 251l-78 -46l8 49l79 45l63 361h96l-53 -304l147 87l-9 -49l-147 -86l-45 -258h283l-9 -50h-379z" />
    <glyph glyph-name="lslash" unicode="&#x142;" horiz-adv-x="236" 
d="M103 0h-85l45 255l-81 -77l8 51l82 78l76 428h84l-61 -348l84 81l-9 -52l-84 -79z" />
    <glyph glyph-name="Nacute" unicode="&#x143;" horiz-adv-x="696" 
d="M523 830h108l-182 -120h-28zM534 -5h-41l-297 566l-99 -561h-52l116 660h87l263 -504l88 504h53z" />
    <glyph glyph-name="nacute" unicode="&#x144;" horiz-adv-x="566" 
d="M400 698h109l-168 -150h-29zM181 450l-16 -92q19 39 64.5 70.5t105.5 31.5q64 0 98 -32t34 -88q0 -11 -4 -37l-36 -205q-3 -15 -3 -26q0 -31 26 -31q13 0 24 13.5t15 38.5h25q-13 -104 -94 -104q-80 0 -80 83q0 10 4 38l31 172q4 20 4 41q0 86 -84 86q-52 0 -94 -43
t-50 -89l-48 -277h-85l79 450h84z" />
    <glyph glyph-name="Ncommaaccent" unicode="&#x145;" horiz-adv-x="696" 
d="M534 -5h-41l-297 566l-99 -561h-52l116 660h87l263 -504l88 504h53zM291 -135q0 25 -53 25l8 50q88 0 88 -62q0 -73 -126 -73l4 26q79 0 79 34z" />
    <glyph glyph-name="ncommaaccent" unicode="&#x146;" horiz-adv-x="566" 
d="M181 450l-16 -92q19 39 64.5 70.5t105.5 31.5q64 0 98 -32t34 -88q0 -11 -4 -37l-36 -205q-3 -15 -3 -26q0 -31 26 -31q13 0 24 13.5t15 38.5h25q-13 -104 -94 -104q-80 0 -80 83q0 10 4 38l31 172q4 20 4 41q0 86 -84 86q-52 0 -94 -43t-50 -89l-48 -277h-85l79 450h84z
M244 -135q0 25 -53 25l8 50q88 0 88 -62q0 -73 -126 -73l4 26q79 0 79 34z" />
    <glyph glyph-name="Ncaron" unicode="&#x147;" horiz-adv-x="696" 
d="M449 787l93 43h26l-125 -120h-15l-82 120h25zM534 -5h-41l-297 566l-99 -561h-52l116 660h87l263 -504l88 504h53z" />
    <glyph glyph-name="ncaron" unicode="&#x148;" horiz-adv-x="566" 
d="M341 635l96 63h26l-130 -150h-15l-77 150h25zM181 450l-16 -92q19 39 64.5 70.5t105.5 31.5q64 0 98 -32t34 -88q0 -11 -4 -37l-36 -205q-3 -15 -3 -26q0 -31 26 -31q13 0 24 13.5t15 38.5h25q-13 -104 -94 -104q-80 0 -80 83q0 10 4 38l31 172q4 20 4 41q0 86 -84 86
q-52 0 -94 -43t-50 -89l-48 -277h-85l79 450h84z" />
    <glyph glyph-name="Eng" unicode="&#x14a;" horiz-adv-x="696" 
d="M353 -250q-142 0 -128 151h80q-2 -53 10.5 -77t45.5 -24q39 0 69 34t43 106l11 61l-287 561l-100 -562h-52l116 660h87l261 -513l90 513h53l-127 -720q-34 -190 -172 -190z" />
    <glyph glyph-name="eng" unicode="&#x14b;" horiz-adv-x="543" 
d="M331 34l43 248q4 21 4 42q0 85 -83 85q-52 0 -94 -43t-50 -89l-48 -277h-85l79 450h85l-17 -92q19 40 64.5 71t105.5 31q64 0 98 -32.5t34 -87.5q0 -20 -3 -37l-48 -272q-4 -21 -10 -61.5t-8 -52.5q-14 -79 -58.5 -123t-112.5 -44q-14 0 -38 3l5 30q6 -1 19 -1
q78 0 97 114q2 11 9 60.5t12 77.5z" />
    <glyph glyph-name="Omacron" unicode="&#x14c;" horiz-adv-x="688" 
d="M313 800h238l-9 -51h-238zM639 402q0 -106 -43 -199.5t-125.5 -153t-186.5 -59.5q-114 0 -176 70.5t-62 184.5q0 102 43.5 198.5t127.5 161.5t187 65q113 0 174 -75.5t61 -192.5zM143 237q0 -108 38.5 -152.5t110.5 -44.5q105 0 177 101.5t72 285.5q0 193 -146 193
q-69 0 -127.5 -54t-91.5 -142t-33 -187z" />
    <glyph glyph-name="omacron" unicode="&#x14d;" horiz-adv-x="510" 
d="M196 655h238l-9 -51h-238zM19 169q0 113 73.5 202t184.5 89q85 0 131 -49t46 -131q0 -113 -73.5 -202t-185.5 -89q-83 0 -129.5 49.5t-46.5 130.5zM202 31q73 0 118.5 77t45.5 202q0 55 -25.5 81.5t-69.5 26.5q-74 0 -119.5 -77t-45.5 -201q0 -54 26 -81.5t70 -27.5z" />
    <glyph glyph-name="Obreve" unicode="&#x14e;" horiz-adv-x="688" 
d="M426 769q84 0 94 61h34q-9 -50 -44.5 -85t-87.5 -35q-59 0 -85.5 34.5t-17.5 85.5h33q-6 -35 13 -48t61 -13zM639 402q0 -106 -43 -199.5t-125.5 -153t-186.5 -59.5q-114 0 -176 70.5t-62 184.5q0 102 43.5 198.5t127.5 161.5t187 65q113 0 174 -75.5t61 -192.5zM143 237
q0 -108 38.5 -152.5t110.5 -44.5q105 0 177 101.5t72 285.5q0 193 -146 193q-69 0 -127.5 -54t-91.5 -142t-33 -187z" />
    <glyph glyph-name="obreve" unicode="&#x14f;" horiz-adv-x="510" 
d="M311 626q83 0 97 72h33q-10 -62 -46 -100.5t-89 -38.5q-58 0 -84 40.5t-16 98.5h33q-7 -41 12 -56.5t60 -15.5zM19 169q0 113 73.5 202t184.5 89q85 0 131 -49t46 -131q0 -113 -73.5 -202t-185.5 -89q-83 0 -129.5 49.5t-46.5 130.5zM202 31q73 0 118.5 77t45.5 202
q0 55 -25.5 81.5t-69.5 26.5q-74 0 -119.5 -77t-45.5 -201q0 -54 26 -81.5t70 -27.5z" />
    <glyph glyph-name="Ohungarumlaut" unicode="&#x150;" horiz-adv-x="688" 
d="M519 830h102l-130 -120h-23zM386 830h102l-130 -120h-23zM639 402q0 -106 -43 -199.5t-125.5 -153t-186.5 -59.5q-114 0 -176 70.5t-62 184.5q0 102 43.5 198.5t127.5 161.5t187 65q113 0 174 -75.5t61 -192.5zM143 237q0 -108 38.5 -152.5t110.5 -44.5q105 0 177 101.5
t72 285.5q0 193 -146 193q-69 0 -127.5 -54t-91.5 -142t-33 -187z" />
    <glyph glyph-name="ohungarumlaut" unicode="&#x151;" horiz-adv-x="510" 
d="M408 698h102l-140 -150h-22zM275 698h102l-140 -150h-22zM19 169q0 113 73.5 202t184.5 89q85 0 131 -49t46 -131q0 -113 -73.5 -202t-185.5 -89q-83 0 -129.5 49.5t-46.5 130.5zM202 31q73 0 118.5 77t45.5 202q0 55 -25.5 81.5t-69.5 26.5q-74 0 -119.5 -77t-45.5 -201
q0 -54 26 -81.5t70 -27.5z" />
    <glyph glyph-name="OE" unicode="&#x152;" horiz-adv-x="931" 
d="M819 50l-9 -50h-522q-115 0 -177 75t-62 198q0 62 24 128.5t67 125t112.5 96t151.5 37.5h502l-8 -50h-264l-45 -255h245l-9 -50h-244l-45 -255h283zM296 50h144l98 560h-143q-111 0 -179.5 -105t-68.5 -279q0 -176 149 -176z" />
    <glyph glyph-name="oe" unicode="&#x153;" horiz-adv-x="800" 
d="M536 -11q-117 0 -157 87q-75 -87 -184 -87q-83 0 -129.5 49.5t-46.5 130.5q0 113 73.5 202t184.5 89q116 0 158 -89q76 89 181 89q66 0 104 -27t38 -71q0 -28 -11.5 -49.5t-43 -44.5t-94 -42t-156.5 -34q-1 -9 -1 -29q0 -122 113 -122q47 0 88 25.5t60 78.5h24
q-16 -66 -71 -111t-130 -45zM202 31q73 0 118.5 77t45.5 202q0 55 -25.5 81.5t-69.5 26.5q-74 0 -119.5 -77t-45.5 -201q0 -54 26 -81.5t70 -27.5zM606 418q-54 0 -96 -50t-54 -139q125 25 171 57t46 76q0 56 -67 56z" />
    <glyph glyph-name="Racute" unicode="&#x154;" horiz-adv-x="615" 
d="M434 830h108l-182 -120h-28zM352 610h-104l-46 -261h130q44 0 81.5 43.5t37.5 110.5q0 62 -25 84.5t-74 22.5zM409 0l-140 299h-75l-53 -299h-96l116 660h199q194 0 194 -151q0 -77 -51 -133.5t-141 -71.5l153 -304h-106z" />
    <glyph glyph-name="racute" unicode="&#x155;" horiz-adv-x="363" 
d="M310 698h109l-168 -150h-29zM182 450l-17 -93q20 38 62 70.5t97 32.5q11 0 29 -2l-14 -83q-21 4 -64 4q-50 0 -82 -24t-38 -61l-52 -294h-85l79 450h85z" />
    <glyph glyph-name="Rcommaaccent" unicode="&#x156;" horiz-adv-x="615" 
d="M352 610h-104l-46 -261h130q44 0 81.5 43.5t37.5 110.5q0 62 -25 84.5t-74 22.5zM409 0l-140 299h-75l-53 -299h-96l116 660h199q194 0 194 -151q0 -77 -51 -133.5t-141 -71.5l153 -304h-106zM269 -135q0 25 -53 25l8 50q88 0 88 -62q0 -73 -126 -73l4 26q79 0 79 34z
" />
    <glyph glyph-name="rcommaaccent" unicode="&#x157;" horiz-adv-x="363" 
d="M182 450l-17 -93q20 38 62 70.5t97 32.5q11 0 29 -2l-14 -83q-21 4 -64 4q-50 0 -82 -24t-38 -61l-52 -294h-85l79 450h85zM70 -135q0 25 -53 25l8 50q88 0 88 -62q0 -73 -126 -73l4 26q79 0 79 34z" />
    <glyph glyph-name="Rcaron" unicode="&#x158;" horiz-adv-x="615" 
d="M360 787l93 43h26l-125 -120h-15l-82 120h25zM352 610h-104l-46 -261h130q44 0 81.5 43.5t37.5 110.5q0 62 -25 84.5t-74 22.5zM409 0l-140 299h-75l-53 -299h-96l116 660h199q194 0 194 -151q0 -77 -51 -133.5t-141 -71.5l153 -304h-106z" />
    <glyph glyph-name="rcaron" unicode="&#x159;" horiz-adv-x="363" 
d="M251 635l96 63h26l-130 -150h-15l-77 150h25zM182 450l-17 -93q20 38 62 70.5t97 32.5q11 0 29 -2l-14 -83q-21 4 -64 4q-50 0 -82 -24t-38 -61l-52 -294h-85l79 450h85z" />
    <glyph glyph-name="Sacute" unicode="&#x15a;" horiz-adv-x="513" 
d="M415 830h108l-182 -120h-28zM209 -10q-89 0 -137 42.5t-40 133.5h40q1 -71 33.5 -100t95.5 -29q59 0 93 36.5t34 92.5q0 34 -16.5 60.5t-41.5 42.5t-54.5 36.5t-54.5 41t-41.5 55.5t-16.5 81q0 80 56.5 133.5t144.5 53.5q165 0 172 -159h-40q-14 112 -122 112
q-58 0 -89 -32.5t-31 -86.5q0 -29 17.5 -54t43.5 -42t56 -39t56 -44.5t43.5 -60t17.5 -83.5q0 -76 -61 -133.5t-158 -57.5z" />
    <glyph glyph-name="sacute" unicode="&#x15b;" horiz-adv-x="407" 
d="M310 698h109l-168 -150h-29zM224 422q-43 0 -67 -21t-24 -56q0 -29 20 -49t48 -33t56 -27.5t48 -42t20 -67.5q0 -61 -46 -99t-129 -38q-72 0 -112 37t-31 102h27q-1 -51 32 -74t85 -23q47 0 70 21t23 53q0 31 -19 51.5t-46 32.5t-54.5 25.5t-46.5 41.5t-19 70q0 58 45 96
t120 38q73 0 107 -40t26 -102h-27q1 51 -27.5 77.5t-78.5 26.5z" />
    <glyph glyph-name="Scircumflex" unicode="&#x15c;" horiz-adv-x="513" 
d="M334 753l-93 -43h-25l124 120h15l83 -120h-26zM209 -10q-89 0 -137 42.5t-40 133.5h40q1 -71 33.5 -100t95.5 -29q59 0 93 36.5t34 92.5q0 34 -16.5 60.5t-41.5 42.5t-54.5 36.5t-54.5 41t-41.5 55.5t-16.5 81q0 80 56.5 133.5t144.5 53.5q165 0 172 -159h-40
q-14 112 -122 112q-58 0 -89 -32.5t-31 -86.5q0 -29 17.5 -54t43.5 -42t56 -39t56 -44.5t43.5 -60t17.5 -83.5q0 -76 -61 -133.5t-158 -57.5z" />
    <glyph glyph-name="scircumflex" unicode="&#x15d;" horiz-adv-x="407" 
d="M248 613l-98 -65h-26l130 150h15l78 -150h-26zM224 422q-43 0 -67 -21t-24 -56q0 -29 20 -49t48 -33t56 -27.5t48 -42t20 -67.5q0 -61 -46 -99t-129 -38q-72 0 -112 37t-31 102h27q-1 -51 32 -74t85 -23q47 0 70 21t23 53q0 31 -19 51.5t-46 32.5t-54.5 25.5t-46.5 41.5
t-19 70q0 58 45 96t120 38q73 0 107 -40t26 -102h-27q1 51 -27.5 77.5t-78.5 26.5z" />
    <glyph glyph-name="Scedilla" unicode="&#x15e;" horiz-adv-x="513" 
d="M180 -199q-30 0 -46 15.5t-16 42.5h31q0 -12 8 -19t20 -7q18 0 30 13.5t12 38.5q0 33 -25 33q-21 0 -34 -19h-36l49 93q-155 17 -141 174h40q1 -71 33.5 -100t95.5 -29q59 0 93 36.5t34 92.5q0 34 -16.5 60.5t-41.5 42.5t-54.5 36.5t-54.5 41t-41.5 55.5t-16.5 81
q0 80 56.5 133.5t144.5 53.5q165 0 172 -159h-40q-14 112 -122 112q-58 0 -89 -32.5t-31 -86.5q0 -29 17.5 -54t43.5 -42t56 -39t56 -44.5t43.5 -60t17.5 -83.5q0 -76 -61 -133.5t-158 -57.5h-3l-29 -53q16 11 39 11q52 0 52 -58q0 -37 -24 -63t-64 -26z" />
    <glyph glyph-name="scedilla" unicode="&#x15f;" horiz-adv-x="407" 
d="M132 -199q-30 0 -46 15.5t-16 42.5h31q0 -12 8 -19t20 -7q18 0 30 13.5t12 38.5q0 33 -25 33q-21 0 -34 -19h-36l48 91q-61 7 -93 43t-24 95h27q-1 -51 32 -74t85 -23q47 0 70 21t23 53q0 31 -19 51.5t-46 32.5t-54.5 25.5t-46.5 41.5t-19 70q0 58 45 96t120 38
q73 0 107 -40t26 -102h-27q1 51 -27.5 77.5t-78.5 26.5q-43 0 -67 -21t-24 -56q0 -29 20 -49t48 -33t56 -27.5t48 -42t20 -67.5q0 -60 -45 -98.5t-123 -38.5l-28 -52q16 11 39 11q52 0 52 -58q0 -37 -24 -63t-64 -26z" />
    <glyph glyph-name="Scaron" unicode="&#x160;" horiz-adv-x="513" 
d="M341 787l93 43h26l-125 -120h-15l-82 120h25zM209 -10q-89 0 -137 42.5t-40 133.5h40q1 -71 33.5 -100t95.5 -29q59 0 93 36.5t34 92.5q0 34 -16.5 60.5t-41.5 42.5t-54.5 36.5t-54.5 41t-41.5 55.5t-16.5 81q0 80 56.5 133.5t144.5 53.5q165 0 172 -159h-40
q-14 112 -122 112q-58 0 -89 -32.5t-31 -86.5q0 -29 17.5 -54t43.5 -42t56 -39t56 -44.5t43.5 -60t17.5 -83.5q0 -76 -61 -133.5t-158 -57.5z" />
    <glyph glyph-name="scaron" unicode="&#x161;" horiz-adv-x="407" 
d="M251 635l96 63h26l-130 -150h-15l-77 150h25zM224 422q-43 0 -67 -21t-24 -56q0 -29 20 -49t48 -33t56 -27.5t48 -42t20 -67.5q0 -61 -46 -99t-129 -38q-72 0 -112 37t-31 102h27q-1 -51 32 -74t85 -23q47 0 70 21t23 53q0 31 -19 51.5t-46 32.5t-54.5 25.5t-46.5 41.5
t-19 70q0 58 45 96t120 38q73 0 107 -40t26 -102h-27q1 51 -27.5 77.5t-78.5 26.5z" />
    <glyph glyph-name="Tcaron" unicode="&#x164;" horiz-adv-x="608" 
d="M377 787l93 43h26l-125 -120h-15l-82 120h25zM629 610h-229l-107 -610h-96l107 610h-225l8 50h550z" />
    <glyph glyph-name="tcaron" unicode="&#x165;" horiz-adv-x="381" 
d="M298 660h106l-126 -150h-25zM303 115q-31 -126 -132 -126q-103 0 -103 107q0 19 5 51l45 267h-85l7 36h84q63 37 99 180h20l-32 -180h131l-6 -36h-131l-51 -287q-4 -19 -4 -36q0 -61 48 -61q53 0 79 85h26z" />
    <glyph glyph-name="Tbar" unicode="&#x166;" horiz-adv-x="608" 
d="M481 300h-135l-53 -300h-96l53 300h-136l8 50h137l45 260h-225l8 50h550l-8 -50h-229l-45 -260h135z" />
    <glyph glyph-name="tbar" unicode="&#x167;" horiz-adv-x="381" 
d="M303 115q-31 -126 -132 -126q-103 0 -103 107q0 19 5 51l20 118h-71l6 35h71l19 114h-85l7 36h84q28 16 53.5 60t40.5 107h23l-30 -167h131l-6 -36h-131l-20 -114h116l-7 -35h-115l-25 -138q-3 -19 -3 -34q0 -63 47 -63q53 0 79 85h26z" />
    <glyph glyph-name="Utilde" unicode="&#x168;" horiz-adv-x="676" 
d="M470 710q-22 0 -38 10.5t-23.5 23t-18 23t-22.5 10.5q-18 0 -25.5 -15t-14.5 -52h-33q6 60 24.5 90t55.5 30q26 0 44 -17t31.5 -33.5t28.5 -16.5q18 0 25 15t13 52h34q-4 -60 -23 -90t-58 -30zM507 226l76 434h58l-75 -425q-21 -120 -97 -182.5t-182 -62.5
q-96 0 -155.5 46.5t-59.5 141.5q0 36 7 72l72 410h95l-72 -410q-6 -36 -6 -64q0 -72 41 -107t99 -35q69 0 126 45.5t73 136.5z" />
    <glyph glyph-name="utilde" unicode="&#x169;" horiz-adv-x="552" 
d="M353 559q-23 0 -38.5 12.5t-22 27t-15.5 27t-21 12.5q-31 0 -41 -79h-34q8 72 29 105.5t57 33.5q22 0 37 -12.5t21.5 -27t17 -27t23.5 -12.5q33 0 41 79h34q-5 -67 -29 -103t-59 -36zM475 450l-61 -344q-3 -18 -3 -32q0 -33 26 -33q30 0 39 52h24q-13 -104 -94 -104
q-79 0 -79 84q0 4 0.5 12t0.5 9q-19 -40 -64 -72t-102 -32q-62 0 -94.5 32t-32.5 87q0 17 3 37l54 304h86l-49 -282q-5 -21 -5 -46q0 -81 72 -81q53 0 95.5 43t49.5 89l49 277h85z" />
    <glyph glyph-name="Umacron" unicode="&#x16a;" horiz-adv-x="676" 
d="M314 800h238l-9 -51h-238zM507 226l76 434h58l-75 -425q-21 -120 -97 -182.5t-182 -62.5q-96 0 -155.5 46.5t-59.5 141.5q0 36 7 72l72 410h95l-72 -410q-6 -36 -6 -64q0 -72 41 -107t99 -35q69 0 126 45.5t73 136.5z" />
    <glyph glyph-name="umacron" unicode="&#x16b;" horiz-adv-x="552" 
d="M200 655h238l-9 -51h-238zM475 450l-61 -344q-3 -18 -3 -32q0 -33 26 -33q30 0 39 52h24q-13 -104 -94 -104q-79 0 -79 84q0 4 0.5 12t0.5 9q-19 -40 -64 -72t-102 -32q-62 0 -94.5 32t-32.5 87q0 17 3 37l54 304h86l-49 -282q-5 -21 -5 -46q0 -81 72 -81q53 0 95.5 43
t49.5 89l49 277h85z" />
    <glyph glyph-name="Ubreve" unicode="&#x16c;" horiz-adv-x="676" 
d="M427 769q84 0 94 61h34q-9 -50 -44.5 -85t-87.5 -35q-59 0 -85.5 34.5t-17.5 85.5h33q-6 -35 13 -48t61 -13zM507 226l76 434h58l-75 -425q-21 -120 -97 -182.5t-182 -62.5q-96 0 -155.5 46.5t-59.5 141.5q0 36 7 72l72 410h95l-72 -410q-6 -36 -6 -64q0 -72 41 -107
t99 -35q69 0 126 45.5t73 136.5z" />
    <glyph glyph-name="ubreve" unicode="&#x16d;" horiz-adv-x="552" 
d="M315 626q83 0 97 72h33q-10 -62 -46 -100.5t-89 -38.5q-58 0 -84 40.5t-16 98.5h33q-7 -41 12 -56.5t60 -15.5zM475 450l-61 -344q-3 -18 -3 -32q0 -33 26 -33q30 0 39 52h24q-13 -104 -94 -104q-79 0 -79 84q0 4 0.5 12t0.5 9q-19 -40 -64 -72t-102 -32q-62 0 -94.5 32
t-32.5 87q0 17 3 37l54 304h86l-49 -282q-5 -21 -5 -46q0 -81 72 -81q53 0 95.5 43t49.5 89l49 277h85z" />
    <glyph glyph-name="Uring" unicode="&#x16e;" horiz-adv-x="676" 
d="M417 710q-39 0 -59 14.5t-20 35.5q0 29 29 49.5t76 20.5q38 0 58 -14.5t20 -34.5q0 -30 -29 -50.5t-75 -20.5zM422 731q22 0 35.5 13.5t13.5 36.5q0 29 -30 29q-25 0 -39 -13.5t-14 -36.5q0 -29 34 -29zM507 226l76 434h58l-75 -425q-21 -120 -97 -182.5t-182 -62.5
q-96 0 -155.5 46.5t-59.5 141.5q0 36 7 72l72 410h95l-72 -410q-6 -36 -6 -64q0 -72 41 -107t99 -35q69 0 126 45.5t73 136.5z" />
    <glyph glyph-name="uring" unicode="&#x16f;" horiz-adv-x="552" 
d="M301 548q-39 0 -59 18t-20 44q0 37 29 62.5t76 25.5q39 0 59 -18t20 -44q0 -37 -29 -62.5t-76 -25.5zM306 574q23 0 36.5 17t13.5 45q0 37 -31 37q-25 0 -39 -17t-14 -46q0 -36 34 -36zM475 450l-61 -344q-3 -18 -3 -32q0 -33 26 -33q30 0 39 52h24q-13 -104 -94 -104
q-79 0 -79 84q0 4 0.5 12t0.5 9q-19 -40 -64 -72t-102 -32q-62 0 -94.5 32t-32.5 87q0 17 3 37l54 304h86l-49 -282q-5 -21 -5 -46q0 -81 72 -81q53 0 95.5 43t49.5 89l49 277h85z" />
    <glyph glyph-name="Uhungarumlaut" unicode="&#x170;" horiz-adv-x="676" 
d="M520 830h102l-130 -120h-23zM387 830h102l-130 -120h-23zM507 226l76 434h58l-75 -425q-21 -120 -97 -182.5t-182 -62.5q-96 0 -155.5 46.5t-59.5 141.5q0 36 7 72l72 410h95l-72 -410q-6 -36 -6 -64q0 -72 41 -107t99 -35q69 0 126 45.5t73 136.5z" />
    <glyph glyph-name="uhungarumlaut" unicode="&#x171;" horiz-adv-x="552" 
d="M412 698h102l-140 -150h-22zM279 698h102l-140 -150h-22zM475 450l-61 -344q-3 -18 -3 -32q0 -33 26 -33q30 0 39 52h24q-13 -104 -94 -104q-79 0 -79 84q0 4 0.5 12t0.5 9q-19 -40 -64 -72t-102 -32q-62 0 -94.5 32t-32.5 87q0 17 3 37l54 304h86l-49 -282
q-5 -21 -5 -46q0 -81 72 -81q53 0 95.5 43t49.5 89l49 277h85z" />
    <glyph glyph-name="Uogonek" unicode="&#x172;" horiz-adv-x="676" 
d="M224 -199q-65 0 -65 48q0 9 2.5 18.5t8.5 20.5t11 18.5t16.5 21t17 19.5t21.5 22t21 22q-84 7 -134.5 53.5t-50.5 133.5q0 36 7 72l72 410h95l-72 -410q-6 -36 -6 -64q0 -72 41 -107t99 -35q69 0 126 45.5t73 136.5l76 434h58l-75 -425q-21 -120 -96.5 -182.5
t-178.5 -62.5q-49 -58 -63 -81.5t-14 -49.5q0 -24 26 -24q16 0 31.5 14t22.5 40h29q-7 -43 -34 -65.5t-65 -22.5z" />
    <glyph glyph-name="uogonek" unicode="&#x173;" horiz-adv-x="552" 
d="M355 -199q-65 0 -65 48q0 41 86 129q7 8 11 12q-60 11 -60 83q0 4 0.5 12t0.5 9q-19 -40 -64 -72t-102 -32q-62 0 -94.5 32t-32.5 87q0 17 3 37l54 304h86l-49 -282q-5 -21 -5 -46q0 -81 72 -81q53 0 95.5 43t49.5 89l49 277h85l-61 -346q-3 -16 -3 -30q0 -33 26 -33
q30 0 39 52h24q-11 -92 -77 -103q-50 -58 -64 -81.5t-14 -49.5q0 -24 26 -24q16 0 31.5 14t22.5 40h29q-7 -43 -34 -65.5t-65 -22.5z" />
    <glyph glyph-name="Wcircumflex" unicode="&#x174;" horiz-adv-x="889" 
d="M550 753l-93 -43h-25l124 120h15l83 -120h-26zM200 -5h-34l-79 665h97l57 -498l282 498h31l84 -487l222 487h59l-315 -665h-32l-87 501z" />
    <glyph glyph-name="wcircumflex" unicode="&#x175;" horiz-adv-x="700" 
d="M397 613l-98 -65h-26l130 150h15l78 -150h-26zM111 -5l-90 455h88l63 -338l183 340h34l100 -359q18 30 32.5 56t26 45.5t19.5 41t14 34t9.5 32t5.5 27.5t3 29t1 27v31.5v33.5h96q0 -43 -21 -96.5t-42 -89t-82 -128t-91 -141.5h-32l-95 345l-189 -345h-33z" />
    <glyph glyph-name="Ycircumflex" unicode="&#x176;" horiz-adv-x="601" 
d="M373 753l-93 -43h-25l124 120h15l83 -120h-26zM289 0h-96l53 298l-164 362h101l141 -310l251 310h61l-293 -353z" />
    <glyph glyph-name="ycircumflex" unicode="&#x177;" horiz-adv-x="443" 
d="M268 613l-98 -65h-26l130 150h15l78 -150h-26zM-63 -250l15 95q32 0 45 0.5t35 5t33.5 13t31 26t38 43t45.5 65.5l-158 452h91l127 -359q72 120 87 176t15 183h96q0 -29 -8 -62t-17.5 -58.5t-32 -67t-35.5 -62.5l-45.5 -73.5t-45.5 -72.5q-112 -178 -175 -241t-142 -63z
" />
    <glyph glyph-name="Ydieresis" unicode="&#x178;" horiz-adv-x="601" 
d="M485 813l-13 -76h-75l13 76h75zM354 813l-13 -76h-75l13 76h75zM289 0h-96l53 298l-164 362h101l141 -310l251 310h61l-293 -353z" />
    <glyph glyph-name="Zacute" unicode="&#x179;" horiz-adv-x="596" 
d="M446 830h108l-182 -120h-28zM490 50l-14 -50h-477l5 30l443 580h-326l14 50h440l-5 -32l-443 -578h363z" />
    <glyph glyph-name="zacute" unicode="&#x17a;" horiz-adv-x="440" 
d="M348 698h109l-168 -150h-29zM-9 0l5 31l311 383h-230l8 36h335l-7 -31l-313 -384h264l-10 -35h-363z" />
    <glyph glyph-name="Zdotaccent" unicode="&#x17b;" horiz-adv-x="596" 
d="M417 808l-13 -76h-85l13 76h85zM490 50l-14 -50h-477l5 30l443 580h-326l14 50h440l-5 -32l-443 -578h363z" />
    <glyph glyph-name="zdotaccent" unicode="&#x17c;" horiz-adv-x="440" 
d="M339 667l-13 -76h-85l13 76h85zM-9 0l5 31l311 383h-230l8 36h335l-7 -31l-313 -384h264l-10 -35h-363z" />
    <glyph glyph-name="Zcaron" unicode="&#x17d;" horiz-adv-x="596" 
d="M372 787l93 43h26l-125 -120h-15l-82 120h25zM490 50l-14 -50h-477l5 30l443 580h-326l14 50h440l-5 -32l-443 -578h363z" />
    <glyph glyph-name="zcaron" unicode="&#x17e;" horiz-adv-x="440" 
d="M289 635l96 63h26l-130 -150h-15l-77 150h25zM-9 0l5 31l311 383h-230l8 36h335l-7 -31l-313 -384h264l-10 -35h-363z" />
    <glyph glyph-name="longs" unicode="&#x17f;" horiz-adv-x="316" 
d="M-59 -250q-13 0 -37 3l5 31q8 -2 18 -2q66 0 87 114l92 518h-88l7 36h87l12 66q18 100 67 164.5t134 64.5q56 0 85 -36t24 -92h-26q2 95 -84 95q-67 0 -105 -56.5t-38 -120.5q0 -52 14 -92l-93 -526q-14 -79 -55.5 -123t-105.5 -44z" />
    <glyph glyph-name="Schwa" unicode="&#x18f;" horiz-adv-x="677" 
d="M278 -11q-233 0 -233 236q0 46 11 114h472q5 50 5 97q0 104 -42.5 145.5t-120.5 41.5t-143 -41t-89 -108h-48q31 87 111 141.5t182 54.5q119 0 182.5 -73.5t63.5 -190.5q0 -108 -44.5 -203.5t-126 -154.5t-180.5 -59zM284 37q89 0 151 65t85 187h-371q-8 -50 -8 -82
q0 -50 13.5 -85.5t36 -53t45.5 -24.5t48 -7z" />
    <glyph glyph-name="florin" unicode="&#x192;" horiz-adv-x="507" 
 />
    <glyph glyph-name="Aringacute" unicode="&#x1fa;" horiz-adv-x="591" 
d="M486 980h108l-182 -120h-28zM361 710q-39 0 -59 14.5t-20 35.5q0 29 29 49.5t76 20.5q38 0 58 -14.5t20 -34.5q0 -30 -29 -50.5t-75 -20.5zM366 731q22 0 35.5 13.5t13.5 36.5q0 29 -30 29q-25 0 -39 -13.5t-14 -36.5q0 -29 34 -29zM363 251l-56 269l-149 -269h205z
M415 0l-42 201h-243l-111 -201h-58l376 665h32l145 -665h-99z" />
    <glyph glyph-name="aringacute" unicode="&#x1fb;" horiz-adv-x="528" 
d="M407 884h109l-168 -150h-29zM296 548q-39 0 -59 18t-20 44q0 37 29 62.5t76 25.5q39 0 59 -18t20 -44q0 -37 -29 -62.5t-76 -25.5zM301 574q23 0 36.5 17t13.5 45q0 37 -31 37q-25 0 -39 -17t-14 -46q0 -36 34 -36zM206 39q54 0 96 36q0 17 3 35l50 281q-32 23 -83 23
q-76 0 -120 -71.5t-44 -183.5q0 -62 27 -91t71 -29zM381 -11q-61 0 -75 50q-54 -51 -125 -51q-76 0 -118.5 48t-42.5 135q0 73 28.5 138.5t86 108t130.5 42.5q71 0 116 -39q35 13 49 29h20l-62 -352q-3 -15 -3 -25q0 -32 26 -32q31 0 40 52h25q-15 -104 -95 -104z" />
    <glyph glyph-name="AEacute" unicode="&#x1fc;" horiz-adv-x="859" 
d="M622 830h108l-182 -120h-28zM408 281l50 284l-220 -284h170zM359 0l41 231h-201l-180 -231h-68l518 660h365l-8 -50h-264l-46 -261h245l-9 -50h-244l-44 -249h283l-9 -50h-379z" />
    <glyph glyph-name="aeacute" unicode="&#x1fd;" horiz-adv-x="758" 
d="M512 698h109l-168 -150h-29zM564 418q-60 0 -102.5 -47t-52.5 -143q128 25 175 57t47 77q0 24 -17.5 40t-49.5 16zM206 39q69 0 122 63q-8 29 -8 61q0 38 10 91l24 127q-32 33 -82 33q-76 0 -120 -71.5t-44 -183.5q0 -62 27 -91t71 -29zM494 -11q-109 0 -152 78
q-71 -79 -161 -79q-76 0 -118.5 48t-42.5 135q0 114 66.5 201.5t172.5 87.5q64 0 110 -43q42 13 60 33h20l-10 -57q52 67 142 67q61 0 98 -27.5t37 -70.5q0 -28 -12 -49.5t-43.5 -44.5t-95 -42t-159.5 -34v-18q0 -77 31 -105t86 -28q47 0 88 25.5t60 78.5h24
q-16 -66 -71 -111t-130 -45z" />
    <glyph glyph-name="Oslashacute" unicode="&#x1fe;" horiz-adv-x="688" 
d="M497 830h108l-182 -120h-28zM284 -10q-112 0 -177 71l-60 -61h-51l89 91q-39 63 -39 154q0 102 43.5 198.5t127.5 161.5t187 65q111 0 173 -75l63 65h52l-93 -95q40 -67 40 -163q0 -106 -43 -199.5t-125.5 -153t-186.5 -59.5zM143 237q0 -48 7 -79l373 382
q-34 80 -128 80q-69 0 -127.5 -54t-91.5 -142t-33 -187zM292 40q105 0 177 101.5t72 285.5q0 41 -6 72l-373 -381q34 -78 130 -78z" />
    <glyph glyph-name="oslashacute" unicode="&#x1ff;" horiz-adv-x="510" 
d="M370 698h109l-168 -150h-29zM195 -11q-80 0 -126 46l-36 -35h-49l63 62q-28 45 -28 107q0 113 73.5 202t184.5 89q80 0 127 -45l35 35h49l-62 -62q28 -45 28 -108q0 -113 -73.5 -202t-185.5 -89zM106 140q0 -13 1 -18l249 246q-21 50 -85 50q-74 0 -119.5 -77t-45.5 -201
zM202 31q73 0 118.5 77t45.5 202q0 13 -1 18l-248 -245q22 -52 85 -52z" />
    <glyph glyph-name="Scommaaccent" unicode="&#x218;" horiz-adv-x="513" 
d="M209 -10q-89 0 -137 42.5t-40 133.5h40q1 -71 33.5 -100t95.5 -29q59 0 93 36.5t34 92.5q0 34 -16.5 60.5t-41.5 42.5t-54.5 36.5t-54.5 41t-41.5 55.5t-16.5 81q0 80 56.5 133.5t144.5 53.5q165 0 172 -159h-40q-14 112 -122 112q-58 0 -89 -32.5t-31 -86.5
q0 -29 17.5 -54t43.5 -42t56 -39t56 -44.5t43.5 -60t17.5 -83.5q0 -76 -61 -133.5t-158 -57.5zM198 -135q0 25 -53 25l8 50q88 0 88 -62q0 -73 -126 -73l4 26q79 0 79 34z" />
    <glyph glyph-name="scommaaccent" unicode="&#x219;" horiz-adv-x="407" 
d="M224 422q-43 0 -67 -21t-24 -56q0 -29 20 -49t48 -33t56 -27.5t48 -42t20 -67.5q0 -61 -46 -99t-129 -38q-72 0 -112 37t-31 102h27q-1 -51 32 -74t85 -23q47 0 70 21t23 53q0 31 -19 51.5t-46 32.5t-54.5 25.5t-46.5 41.5t-19 70q0 58 45 96t120 38q73 0 107 -40
t26 -102h-27q1 51 -27.5 77.5t-78.5 26.5zM160 -135q0 25 -53 25l8 50q88 0 88 -62q0 -73 -126 -73l4 26q79 0 79 34z" />
    <glyph glyph-name="Tcommaaccent" unicode="&#x21a;" horiz-adv-x="608" 
d="M629 610h-229l-107 -610h-96l107 610h-225l8 50h550zM250 -135q0 25 -53 25l8 50q88 0 88 -62q0 -73 -126 -73l4 26q79 0 79 34z" />
    <glyph glyph-name="tcommaaccent" unicode="&#x21b;" horiz-adv-x="381" 
d="M303 115q-31 -126 -132 -126q-103 0 -103 107q0 19 5 51l45 267h-85l7 36h84q63 37 99 180h20l-32 -180h131l-6 -36h-131l-51 -287q-4 -19 -4 -36q0 -61 48 -61q53 0 79 85h26zM154 -135q0 25 -53 25l8 50q88 0 88 -62q0 -73 -126 -73l4 26q79 0 79 34z" />
    <glyph glyph-name="dotlessj" unicode="&#x237;" horiz-adv-x="236" 
d="M24 31l74 419h84l-74 -422q-4 -23 -10 -67l-6 -44q-14 -79 -56 -123t-106 -44q-12 0 -36 3l5 31q5 -1 18 -1q67 0 87 115q18 124 20 133z" />
    <glyph glyph-name="schwa" unicode="&#x259;" horiz-adv-x="461" 
d="M152 -11q-66 0 -104 27t-38 71q0 28 11.5 49.5t43 44.5t94 42t156.5 34q1 9 1 29q0 122 -113 122q-47 0 -88 -25.5t-60 -78.5h-24q16 66 71 111t130 45q81 0 128 -45.5t47 -128.5q0 -115 -73 -206t-182 -91zM162 31q54 0 96 50t54 139q-125 -25 -171 -57t-46 -76
q0 -56 67 -56z" />
    <glyph glyph-name="circumflex" unicode="&#x2c6;" horiz-adv-x="501" 
d="M302 613l-98 -65h-26l130 150h15l78 -150h-26z" />
    <glyph glyph-name="caron" unicode="&#x2c7;" horiz-adv-x="500" 
d="M304 635l96 63h26l-130 -150h-15l-77 150h25z" />
    <glyph glyph-name="breve" unicode="&#x2d8;" horiz-adv-x="499" 
d="M302 626q83 0 97 72h33q-10 -62 -46 -100.5t-89 -38.5q-58 0 -84 40.5t-16 98.5h33q-7 -41 12 -56.5t60 -15.5z" />
    <glyph glyph-name="dotaccent" unicode="&#x2d9;" horiz-adv-x="500" 
d="M352 667l-13 -76h-85l13 76h85z" />
    <glyph glyph-name="ring" unicode="&#x2da;" horiz-adv-x="500" 
d="M289 548q-39 0 -59 18t-20 44q0 37 29 62.5t76 25.5q39 0 59 -18t20 -44q0 -37 -29 -62.5t-76 -25.5zM294 574q23 0 36.5 17t13.5 45q0 37 -31 37q-25 0 -39 -17t-14 -46q0 -36 34 -36z" />
    <glyph glyph-name="ogonek" unicode="&#x2db;" horiz-adv-x="500" 
d="M87 -151q0 11 4.5 24t10.5 23t18.5 25t20.5 24t26 27.5t26 27.5h35q-55 -64 -70.5 -89t-15.5 -52q0 -24 26 -24q16 0 31.5 14t22.5 40h29q-7 -43 -34 -65.5t-65 -22.5q-65 0 -65 48z" />
    <glyph glyph-name="tilde" unicode="&#x2dc;" horiz-adv-x="501" 
d="M345 559q-23 0 -38.5 12.5t-22 27t-15.5 27t-21 12.5q-31 0 -41 -79h-34q8 72 29 105.5t57 33.5q22 0 37 -12.5t21.5 -27t17 -27t23.5 -12.5q33 0 41 79h34q-5 -67 -29 -103t-59 -36z" />
    <glyph glyph-name="hungarumlaut" unicode="&#x2dd;" horiz-adv-x="501" 
d="M348 698h102l-140 -150h-22zM215 698h102l-140 -150h-22z" />
    <glyph glyph-name="pi" unicode="&#x3c0;" horiz-adv-x="549" 
d="M386 -11q-87 0 -87 95q0 19 5 52l40 229h-95l-59 -181q-36 -108 -84.5 -151.5t-115.5 -43.5l16 89q106 0 148 126l54 161h-35q-52 0 -73.5 -16t-57.5 -72h-31q40 96 76.5 134.5t111.5 38.5h332l-15 -85h-129l-38 -213q-3 -18 -3 -31q0 -57 48 -57q53 0 64 64h37
q-7 -68 -35.5 -103.5t-73.5 -35.5z" />
    <glyph glyph-name="Wgrave" unicode="&#x1e80;" horiz-adv-x="889" 
d="M497 830l60 -120h-23l-139 120h102zM200 -5h-34l-79 665h97l57 -498l282 498h31l84 -487l222 487h59l-315 -665h-32l-87 501z" />
    <glyph glyph-name="wgrave" unicode="&#x1e81;" horiz-adv-x="700" 
d="M362 697l36 -150h-23l-115 150h102zM111 -5l-90 455h88l63 -338l183 340h34l100 -359q18 30 32.5 56t26 45.5t19.5 41t14 34t9.5 32t5.5 27.5t3 29t1 27v31.5v33.5h96q0 -43 -21 -96.5t-42 -89t-82 -128t-91 -141.5h-32l-95 345l-189 -345h-33z" />
    <glyph glyph-name="Wacute" unicode="&#x1e82;" horiz-adv-x="889" 
d="M631 830h108l-182 -120h-28zM200 -5h-34l-79 665h97l57 -498l282 498h31l84 -487l222 487h59l-315 -665h-32l-87 501z" />
    <glyph glyph-name="wacute" unicode="&#x1e83;" horiz-adv-x="700" 
d="M459 698h109l-168 -150h-29zM111 -5l-90 455h88l63 -338l183 340h34l100 -359q18 30 32.5 56t26 45.5t19.5 41t14 34t9.5 32t5.5 27.5t3 29t1 27v31.5v33.5h96q0 -43 -21 -96.5t-42 -89t-82 -128t-91 -141.5h-32l-95 345l-189 -345h-33z" />
    <glyph glyph-name="Wdieresis" unicode="&#x1e84;" horiz-adv-x="889" 
d="M662 813l-13 -76h-75l13 76h75zM531 813l-13 -76h-75l13 76h75zM200 -5h-34l-79 665h97l57 -498l282 498h31l84 -487l222 487h59l-315 -665h-32l-87 501z" />
    <glyph glyph-name="wdieresis" unicode="&#x1e85;" horiz-adv-x="700" 
d="M374 667l-13 -76h-75l13 76h75zM505 667l-13 -76h-75l13 76h75zM111 -5l-90 455h88l63 -338l183 340h34l100 -359q18 30 32.5 56t26 45.5t19.5 41t14 34t9.5 32t5.5 27.5t3 29t1 27v31.5v33.5h96q0 -43 -21 -96.5t-42 -89t-82 -128t-91 -141.5h-32l-95 345l-189 -345h-33
z" />
    <glyph glyph-name="Ygrave" unicode="&#x1ef2;" horiz-adv-x="601" 
d="M320 830l60 -120h-23l-139 120h102zM289 0h-96l53 298l-164 362h101l141 -310l251 310h61l-293 -353z" />
    <glyph glyph-name="ygrave" unicode="&#x1ef3;" horiz-adv-x="443" 
d="M233 697l36 -150h-23l-115 150h102zM-63 -250l15 95q32 0 45 0.5t35 5t33.5 13t31 26t38 43t45.5 65.5l-158 452h91l127 -359q72 120 87 176t15 183h96q0 -29 -8 -62t-17.5 -58.5t-32 -67t-35.5 -62.5l-45.5 -73.5t-45.5 -72.5q-112 -178 -175 -241t-142 -63z" />
    <glyph glyph-name="thinspace" unicode="&#x2009;" horiz-adv-x="500" 
 />
    <glyph glyph-name="endash" unicode="&#x2013;" horiz-adv-x="590" 
d="M522 200h-500l11 63h500z" />
    <glyph glyph-name="emdash" unicode="&#x2014;" horiz-adv-x="1000" 
d="M952 200h-950l11 63h950z" />
    <glyph glyph-name="quoteleft" unicode="&#x2018;" horiz-adv-x="275" 
d="M265 712q-53 -5 -74 -24.5t-21 -43.5q0 -47 77 -47l-14 -82q-107 0 -107 89q0 61 38 94.5t105 36.5z" />
    <glyph glyph-name="quoteright" unicode="&#x2019;" horiz-adv-x="275" 
d="M110 515l4 23q53 5 74 24.5t21 43.5q0 47 -77 47l14 82q107 0 107 -89q0 -61 -38 -94.5t-105 -36.5z" />
    <glyph glyph-name="quotesinglbase" unicode="&#x201a;" horiz-adv-x="275" 
d="M-4 -132l4 23q53 5 74 24.5t21 43.5q0 47 -77 47l14 82q107 0 107 -89q0 -61 -38 -94.5t-105 -36.5z" />
    <glyph glyph-name="quotedblleft" unicode="&#x201c;" horiz-adv-x="476" 
d="M465 712q-53 -5 -74 -24.5t-21 -43.5q0 -47 77 -47l-14 -82q-107 0 -107 89q0 61 38 94.5t105 36.5zM265 712q-53 -5 -74 -24.5t-21 -43.5q0 -47 77 -47l-14 -82q-107 0 -107 89q0 61 38 94.5t105 36.5z" />
    <glyph glyph-name="quotedblright" unicode="&#x201d;" horiz-adv-x="475" 
d="M310 515l4 23q53 5 74 24.5t21 43.5q0 47 -77 47l14 82q107 0 107 -89q0 -61 -38 -94.5t-105 -36.5zM110 515l4 23q53 5 74 24.5t21 43.5q0 47 -77 47l14 82q107 0 107 -89q0 -61 -38 -94.5t-105 -36.5z" />
    <glyph glyph-name="quotedblbase" unicode="&#x201e;" horiz-adv-x="476" 
d="M196 -132l4 23q53 5 74 24.5t21 43.5q0 47 -77 47l14 82q107 0 107 -89q0 -61 -38 -94.5t-105 -36.5zM-4 -132l4 23q53 5 74 24.5t21 43.5q0 47 -77 47l14 82q107 0 107 -89q0 -61 -38 -94.5t-105 -36.5z" />
    <glyph glyph-name="dagger" unicode="&#x2020;" horiz-adv-x="371" 
d="M354 501h-113l-49 -281h-51l50 281h-113l7 41h113l21 118h50l-21 -118h114z" />
    <glyph glyph-name="daggerdbl" unicode="&#x2021;" horiz-adv-x="371" 
d="M326 338h-113l-21 -118h-51l21 118h-113l7 41h113l22 122h-113l7 41h113l21 118h50l-21 -118h114l-8 -41h-113l-21 -122h113z" />
    <glyph glyph-name="bullet" unicode="&#x2022;" 
d="M415 270q0 -67 -41 -113.5t-110 -46.5q-68 0 -109.5 43.5t-41.5 107.5q0 66 41.5 113t109.5 47q69 0 110 -44t41 -107z" />
    <glyph glyph-name="ellipsis" unicode="&#x2026;" horiz-adv-x="655" 
d="M419 0l15 83h81l-15 -83h-81zM229 0l15 83h81l-15 -83h-81zM39 0l15 83h81l-15 -83h-81z" />
    <glyph glyph-name="perthousand" unicode="&#x2030;" horiz-adv-x="1137" 
d="M229 670q60 0 90 -42.5t30 -114.5q0 -119 -51 -203t-134 -85q-60 0 -90.5 43t-30.5 114q0 119 51.5 203.5t134.5 84.5zM229 0h-59l403 660h59zM229 631q-50 0 -84 -74t-34 -192q0 -101 53 -101q50 0 83.5 74t33.5 192q0 101 -52 101zM990 435q60 0 90 -42.5t30 -114.5
q0 -119 -51 -203t-134 -85q-60 0 -90.5 43t-30.5 114q0 119 51.5 203.5t134.5 84.5zM655 435q60 0 90 -42.5t30 -114.5q0 -119 -51 -203t-134 -85q-60 0 -90.5 43t-30.5 114q0 119 51.5 203.5t134.5 84.5zM990 396q-50 0 -84 -74t-34 -192q0 -101 53 -101q50 0 83.5 74
t33.5 192q0 101 -52 101zM655 396q-50 0 -84 -74t-34 -192q0 -101 53 -101q50 0 83.5 74t33.5 192q0 101 -52 101z" />
    <glyph glyph-name="guilsinglleft" unicode="&#x2039;" horiz-adv-x="332" 
d="M125 223l97 -202h-29l-158 188l5 28l224 188h29z" />
    <glyph glyph-name="guilsinglright" unicode="&#x203a;" horiz-adv-x="332" 
d="M170 223l-97 202h29l158 -188l-5 -28l-224 -188h-29z" />
    <glyph glyph-name="fraction" unicode="&#x2044;" horiz-adv-x="132" 
d="M-106 0h-59l403 660h59z" />
    <glyph glyph-name="zerosuperior" unicode="&#x2070;" horiz-adv-x="350" 
d="M242 745q60 0 90 -42.5t30 -114.5q0 -119 -51 -203t-134 -85q-60 0 -90.5 43t-30.5 114q0 119 51.5 203.5t134.5 84.5zM242 706q-50 0 -84 -74t-34 -192q0 -101 53 -101q50 0 83.5 74t33.5 192q0 101 -52 101z" />
    <glyph glyph-name="foursuperior" unicode="&#x2074;" horiz-adv-x="357" 
d="M353 411h-77l-18 -101h-65l19 101h-165l4 29q112 131 140 179.5t40 119.5h75q-3 -17 -7 -30.5t-14 -30.5t-17.5 -29t-27.5 -36.5t-34.5 -41.5t-48 -55.5t-57.5 -67.5h118l12 64q36 33 50 107h32l-30 -171h78z" />
    <glyph glyph-name="fivesuperior" unicode="&#x2075;" horiz-adv-x="353" 
d="M169 300q-50 0 -79.5 31.5t-25.5 92.5h35q-3 -77 67 -77q42 0 68.5 37.5t26.5 99.5q0 57 -52 57q-47 0 -72 -40h-34l41 235h221l-11 -64h-184l-20 -117q33 28 76 28q47 0 76 -31t29 -78q0 -71 -46.5 -122.5t-115.5 -51.5z" />
    <glyph glyph-name="sixsuperior" unicode="&#x2076;" horiz-adv-x="355" 
d="M341 464q0 -65 -42 -114.5t-112 -49.5q-57 0 -87 36.5t-30 96.5q0 123 57 216.5t146 93.5q43 0 72 -28t28 -77h-37q-3 67 -64 67q-47 0 -80 -48t-46 -135q36 47 95 47q45 0 72.5 -30t27.5 -75zM192 337q31 0 54 36.5t23 96.5q0 59 -48 59q-51 0 -80 -57q-2 -32 -2 -52
q0 -83 53 -83z" />
    <glyph glyph-name="sevensuperior" unicode="&#x2077;" horiz-adv-x="350" 
d="M175 310h-72q14 77 46.5 135t158.5 227h-197l12 67h259l-5 -29q-86 -123 -127.5 -194.5t-51 -100t-19.5 -85.5q-2 -6 -2.5 -10.5t-1.5 -9.5z" />
    <glyph glyph-name="eightsuperior" unicode="&#x2078;" horiz-adv-x="360" 
d="M177 300q-57 0 -89.5 29.5t-32.5 79.5q0 40 23 75t69 54q-40 29 -40 76q0 52 41 91.5t99 39.5q49 0 79 -27t30 -66q0 -76 -68 -115q53 -29 53 -92q0 -54 -43.5 -99.5t-120.5 -45.5zM219 554q29 0 47.5 25.5t18.5 76.5q0 53 -41 53q-29 0 -47.5 -25.5t-18.5 -76.5
q0 -53 41 -53zM185 335q37 0 61.5 32.5t24.5 85.5q0 63 -60 63q-37 0 -61.5 -31t-24.5 -84q0 -66 60 -66z" />
    <glyph glyph-name="ninesuperior" unicode="&#x2079;" horiz-adv-x="355" 
d="M203 514q51 0 80 57q2 32 2 52q0 83 -53 83q-31 0 -54 -36.5t-23 -96.5q0 -59 48 -59zM151 300q-43 0 -72 28t-28 77h37q3 -67 64 -67q47 0 80 48t46 135q-36 -47 -95 -47q-45 0 -72.5 30t-27.5 75q0 65 42 114.5t112 49.5q57 0 87 -36.5t30 -96.5q0 -123 -57 -216.5
t-146 -93.5z" />
    <glyph glyph-name="plussuperior" unicode="&#x207a;" horiz-adv-x="349" 
d="M313 436h-96l-18 -102h-47l18 102h-97l9 49h97l18 103h46l-18 -103h97z" />
    <glyph glyph-name="minussuperior" unicode="&#x207b;" horiz-adv-x="349" 
d="M313 436h-240l9 49h240z" />
    <glyph glyph-name="equalsuperior" unicode="&#x207c;" horiz-adv-x="348" 
d="M324 497h-240l8 49h241zM303 375h-241l9 49h240z" />
    <glyph glyph-name="parenleftsuperior" unicode="&#x207d;" horiz-adv-x="207" 
d="M243 770l2 -31q-70 -21 -115.5 -114.5t-45.5 -199.5q0 -149 85 -186l-10 -30q-55 19 -84 77.5t-29 136.5q0 125 57.5 225t139.5 122z" />
    <glyph glyph-name="parenrightsuperior" unicode="&#x207e;" horiz-adv-x="207" 
d="M20 209l-2 31q70 21 115.5 114.5t45.5 199.5q0 149 -85 186l10 30q55 -19 84 -77.5t29 -136.5q0 -125 -57.5 -225t-139.5 -122z" />
    <glyph glyph-name="n.superior" unicode="&#x207f;" horiz-adv-x="362" 
d="M157 586l-10 -50q35 57 99 57q42 0 65 -21.5t23 -58.5q0 -6 -2 -20l-20 -117q-2 -14 -2 -16q0 -14 11 -14q16 0 20 32h23q-8 -75 -64 -75t-56 54q0 6 2 20l17 97q3 16 3 28q0 48 -47 48q-32 0 -55 -27t-28 -54l-27 -159h-66l48 276h66z" />
    <glyph glyph-name="zeroinferior" unicode="&#x2080;" horiz-adv-x="350" 
d="M146 195q60 0 90 -42.5t30 -114.5q0 -119 -51 -203t-134 -85q-60 0 -90.5 43t-30.5 114q0 119 51.5 203.5t134.5 84.5zM146 156q-50 0 -84 -74t-34 -192q0 -101 53 -101q50 0 83.5 74t33.5 192q0 101 -52 101z" />
    <glyph glyph-name="oneinferior" unicode="&#x2081;" horiz-adv-x="344" 
d="M128 -240h-69l63 346l-106 -81l-13 40l170 123h32z" />
    <glyph glyph-name="twoinferior" unicode="&#x2082;" horiz-adv-x="351" 
d="M115 154q-37 0 -61.5 -22.5t-24.5 -56.5q0 -17 10 -26.5t26 -9.5q41 0 35 75h29q7 -64 -15 -95t-53 -31q-29 0 -47.5 21.5t-18.5 60.5q0 53 38 89t100 36q60 0 92 -30t32 -73q0 -27 -5.5 -46.5t-24.5 -44t-35.5 -41t-60.5 -58t-78 -75.5h173l-12 -67h-259l4 22l83 81
q81 80 112.5 126.5t31.5 94.5q0 70 -71 70z" />
    <glyph glyph-name="threeinferior" unicode="&#x2083;" horiz-adv-x="356" 
d="M69 -250q-57 0 -88 33t-22 98h36q-13 -88 71 -88q45 0 72 29.5t27 80.5q0 59 -34 59q-7 0 -17 -2l-52 -12l-2 32l57 13q39 8 55 30t16 67q0 58 -54 58q-73 0 -91 -87h-37q14 67 53.5 99t94.5 32q50 0 79 -27.5t29 -66.5q0 -67 -82 -110q26 -11 41 -37.5t15 -58.5
q0 -59 -47 -100.5t-120 -41.5z" />
    <glyph glyph-name="fourinferior" unicode="&#x2084;" horiz-adv-x="357" 
d="M257 -139h-77l-18 -101h-65l19 101h-165l4 29q112 131 140 179.5t40 119.5h75q-3 -17 -7 -30.5t-14 -30.5t-17.5 -29t-27.5 -36.5t-34.5 -41.5t-48 -55.5t-57.5 -67.5h118l12 64q36 33 50 107h32l-30 -171h78z" />
    <glyph glyph-name="fiveinferior" unicode="&#x2085;" horiz-adv-x="353" 
d="M73 -250q-50 0 -79.5 31.5t-25.5 92.5h35q-3 -77 67 -77q42 0 68.5 37.5t26.5 99.5q0 57 -52 57q-47 0 -72 -40h-34l41 235h221l-11 -64h-184l-20 -117q33 28 76 28q47 0 76 -31t29 -78q0 -71 -46.5 -122.5t-115.5 -51.5z" />
    <glyph glyph-name="sixinferior" unicode="&#x2086;" horiz-adv-x="355" 
d="M245 -86q0 -65 -42 -114.5t-112 -49.5q-57 0 -87 36.5t-30 96.5q0 123 57 216.5t146 93.5q43 0 72 -28t28 -77h-37q-3 67 -64 67q-47 0 -80 -48t-46 -135q36 47 95 47q45 0 72.5 -30t27.5 -75zM96 -213q31 0 54 36.5t23 96.5q0 59 -48 59q-51 0 -80 -57q-2 -32 -2 -52
q0 -83 53 -83z" />
    <glyph glyph-name="seveninferior" unicode="&#x2087;" horiz-adv-x="350" 
d="M79 -240h-72q14 77 46.5 135t158.5 227h-197l12 67h259l-5 -29q-86 -123 -127.5 -194.5t-51 -100t-19.5 -85.5q-3 -13 -4 -20z" />
    <glyph glyph-name="eightinferior" unicode="&#x2088;" horiz-adv-x="360" 
d="M81 -250q-57 0 -89.5 29.5t-32.5 79.5q0 40 23 75t69 54q-40 29 -40 76q0 52 41 91.5t99 39.5q49 0 79 -27t30 -66q0 -76 -68 -115q53 -29 53 -92q0 -54 -43.5 -99.5t-120.5 -45.5zM123 4q29 0 47.5 25.5t18.5 76.5q0 53 -41 53q-29 0 -47.5 -25.5t-18.5 -76.5
q0 -53 41 -53zM89 -215q37 0 61.5 32.5t24.5 85.5q0 63 -60 63q-37 0 -61.5 -31t-24.5 -84q0 -66 60 -66z" />
    <glyph glyph-name="nineinferior" unicode="&#x2089;" horiz-adv-x="355" 
d="M107 -36q51 0 80 57q2 32 2 52q0 83 -53 83q-31 0 -54 -36.5t-23 -96.5q0 -59 48 -59zM55 -250q-43 0 -72 28t-28 77h37q3 -67 64 -67q47 0 80 48t46 135q-36 -47 -95 -47q-45 0 -72.5 30t-27.5 75q0 65 42 114.5t112 49.5q57 0 87 -36.5t30 -96.5q0 -123 -57 -216.5
t-146 -93.5z" />
    <glyph glyph-name="parenleftinferior" unicode="&#x208d;" horiz-adv-x="207" 
d="M147 220l2 -31q-70 -21 -115.5 -114.5t-45.5 -199.5q0 -149 85 -186l-10 -30q-55 19 -84 77.5t-29 136.5q0 125 57.5 225t139.5 122z" />
    <glyph glyph-name="parenrightinferior" unicode="&#x208e;" horiz-adv-x="207" 
d="M-76 -341l-2 31q70 21 115.5 114.5t45.5 199.5q0 149 -85 186l10 30q55 -19 84 -77.5t29 -136.5q0 -125 -57.5 -225t-139.5 -122z" />
    <glyph glyph-name="Euro" unicode="&#x20ac;" 
d="M507 151q-52 -161 -200 -161q-106 0 -159 63.5t-53 169.5v7h-90l7 43h85q3 51 16 107h-82l8 43h86q36 112 107.5 179.5t168.5 67.5q66 0 110.5 -43t42.5 -118h-36q-2 55 -33 83.5t-85 28.5q-68 0 -116 -53t-73 -145h250l-7 -43h-253q-10 -46 -13 -107h190l-8 -43h-184
v-18q0 -173 134 -173q108 0 151 112h36z" />
    <glyph glyph-name="litre" unicode="&#x2113;" horiz-adv-x="390" 
d="M173 -10q-60 0 -92 41t-32 140q0 106 28 215t81.5 186t116.5 77q45 0 70 -27t25 -75q0 -53 -31.5 -117.5t-95.5 -125.5t-143 -91q0 -8 -0.5 -22t-0.5 -21q0 -140 73 -140q57 0 78 74h42q-29 -114 -119 -114zM274 610q-56 0 -105.5 -112t-64.5 -246q92 35 153.5 127
t61.5 168q0 63 -45 63z" />
    <glyph glyph-name="numero" unicode="&#x2116;" horiz-adv-x="914" 
d="M796 592q56 0 86.5 -29.5t30.5 -80.5q0 -69 -47.5 -124t-119.5 -55q-55 0 -86 30t-31 81q0 69 47 123t120 55zM791 556q-43 0 -68 -45t-25 -112q0 -59 53 -59q43 0 68 45t25 112q0 59 -53 59zM832 206h-222l7 40h222zM425 -4h-41l-217 406l-71 -402h-51l87 495h87
l184 -345l60 345h50z" />
    <glyph glyph-name="uni2117" unicode="&#x2117;" horiz-adv-x="726" 
d="M70 270q0 161 98.5 269t240.5 108q106 0 176.5 -70.5t70.5 -184.5q0 -168 -95.5 -273.5t-243.5 -105.5q-105 0 -176 71.5t-71 185.5zM601 389q0 95 -56.5 153.5t-143.5 58.5q-119 0 -197.5 -92.5t-78.5 -234.5q0 -96 56.5 -155.5t143.5 -59.5q122 0 199 90.5t77 239.5z
M403 458h-53l-24 -138h53q28 0 48 23t20 65q0 50 -44 50zM384 274h-67l-22 -128h-66l63 359h122q51 0 77 -27.5t26 -76.5q0 -51 -37 -89t-96 -38z" />
    <glyph glyph-name="servicemark" unicode="&#x2120;" horiz-adv-x="649" 
d="M535 373l35 205l-120 -208h-29l-39 205l-36 -202h-42l50 287h70l36 -196l112 196h71l-51 -287h-57zM146 371q-88 0 -81 81h32q0 -26 12 -36t38 -10q21 0 33.5 11t12.5 28q0 19 -14.5 33t-32.5 22t-32.5 27.5t-14.5 48.5q0 39 25.5 63t68.5 24q33 0 53.5 -18.5t21.5 -55.5
h-33q-6 39 -43 39q-41 0 -41 -35q0 -16 15.5 -29.5t33.5 -23t33.5 -30.5t15.5 -50q0 -38 -28 -63.5t-75 -25.5z" />
    <glyph glyph-name="trademark" unicode="&#x2122;" horiz-adv-x="679" 
d="M306 622h-93l-44 -249h-57l44 249h-94l6 38h245zM565 373l35 205l-120 -208h-29l-39 205l-36 -202h-42l50 287h70l36 -196l112 196h71l-51 -287h-57z" />
    <glyph glyph-name="Omega" unicode="&#x2126;" horiz-adv-x="768" 
d="M617 0h-249l9 54q105 73 152.5 176.5t47.5 212.5q0 84 -38 130.5t-109 46.5q-104 0 -171 -102.5t-67 -242.5q0 -133 92 -221l-9 -54h-240l15 88h144q-52 47 -75 107t-23 113q0 88 42 170t122 137t178 55q110 0 174 -70.5t64 -175.5q0 -211 -194 -336h150z" />
    <glyph glyph-name="estimated" unicode="&#x212e;" horiz-adv-x="749" 
d="M376 620q-76 0 -138.5 -35.5t-99.5 -97.5v-107h474v108q-37 61 -99.5 96.5t-136.5 35.5zM702 232q-31 -108 -120 -175t-206 -67q-145 0 -242.5 98t-97.5 243q0 143 98 241t242 98q143 0 241 -98t98 -241h-577v-157q37 -62 99.5 -98t138.5 -36q95 0 169 53.5t100 138.5h57
z" />
    <glyph glyph-name="arrowleft" unicode="&#x2190;" horiz-adv-x="590" 
d="M145 275l163 -165h-73l-191 198v8l191 198h73l-160 -164h398v-75h-401z" />
    <glyph glyph-name="arrowup" unicode="&#x2191;" horiz-adv-x="590" 
d="M258 462l-165 -163v73l198 191h8l198 -191v-73l-164 160v-398h-75v401z" />
    <glyph glyph-name="arrowright" unicode="&#x2192;" horiz-adv-x="590" 
d="M442 274h-398v75h401l-163 165h73l191 -198v-8l-191 -198h-73z" />
    <glyph glyph-name="arrowdown" unicode="&#x2193;" horiz-adv-x="590" 
d="M258 162v401h75v-398l164 160v-73l-198 -191h-8l-198 191v73z" />
    <glyph glyph-name="arrowupleft" unicode="&#x2196;" horiz-adv-x="590" 
d="M165 404l-3 -230l-52 52l5 275l6 6l275 5l52 -52l-232 -1l283 -284l-53 -53z" />
    <glyph glyph-name="arrowupright" unicode="&#x2197;" horiz-adv-x="590" 
d="M441 404l-281 -282l-53 53l283 284l-232 1l52 52l275 -5l6 -6l5 -275l-52 -52z" />
    <glyph glyph-name="arrowdownright" unicode="&#x2198;" horiz-adv-x="590" 
d="M440 235l3 230l52 -52l-5 -275l-6 -6l-275 -5l-52 52l232 1l-283 284l53 53z" />
    <glyph glyph-name="arrowdownleft" unicode="&#x2199;" horiz-adv-x="590" 
d="M165 235l281 282l53 -53l-283 -284l232 -1l-52 -52l-275 5l-6 6l-5 275l52 52z" />
    <glyph glyph-name="partialdiff" unicode="&#x2202;" horiz-adv-x="521" 
d="M151 -10q-66 0 -104 38t-38 100t33 128.5t96 115t138 48.5q46 0 74.5 -23t28.5 -60v-3q49 128 49 197q0 101 -86 101q-60 0 -111 -41l-20 26q66 53 147 53q146 0 146 -161q0 -110 -51 -231.5t-134.5 -204.5t-167.5 -83zM152 38q63 0 120.5 88.5t57.5 181.5q0 63 -52 63
q-63 0 -121.5 -89.5t-58.5 -179.5q0 -64 54 -64z" />
    <glyph glyph-name="Delta" unicode="&#x2206;" horiz-adv-x="565" 
d="M384 88l-90 432l-239 -432h329zM-39 0l6 34l357 631h32l138 -631l-6 -34h-527z" />
    <glyph glyph-name="product" unicode="&#x220f;" horiz-adv-x="725" 
d="M436 -190l141 800h-330l-141 -800h-96l150 850h521l-150 -850h-95z" />
    <glyph glyph-name="summation" unicode="&#x2211;" horiz-adv-x="514" 
d="M381 -102l-15 -88h-402l10 54l330 357l-183 407l5 32h366l-9 -53h-252l154 -346l-6 -30l-307 -333h309z" />
    <glyph glyph-name="minus" unicode="&#x2212;" 
d="M437 200h-370l11 63h370z" />
    <glyph glyph-name="radical" unicode="&#x221a;" 
d="M233 0h-38l-73 390h59l53 -286l224 556h40z" />
    <glyph glyph-name="infinity" unicode="&#x221e;" 
d="M320 74q-69 0 -89 93q-50 -72 -101 -72q-70 0 -70 101q0 63 32.5 108.5t82.5 45.5q52 0 73 -57q56 86 121 86q42 0 62 -29t20 -96q0 -78 -38 -129t-93 -51zM324 112q38 0 60 42t22 99q0 41 -9.5 57t-29.5 16q-18 0 -37.5 -17.5t-30.5 -34.5t-34 -54q6 -37 10 -55
t16.5 -35.5t32.5 -17.5zM136 152q14 0 29.5 15t24.5 29.5t28 47.5q-12 69 -48 69q-28 0 -48.5 -28.5t-20.5 -72.5q0 -60 35 -60z" />
    <glyph glyph-name="integral" unicode="&#x222b;" horiz-adv-x="401" 
d="M-131 -200l18 100q20 -4 50 -4q69 0 97 45t53 185l28 158q17 95 60 180.5t111.5 143t145.5 57.5l-18 -100q-22 4 -50 4q-68 0 -95.5 -45t-52.5 -185l-28 -158q-27 -155 -115 -268t-204 -113z" />
    <glyph glyph-name="approxequal" unicode="&#x2248;" 
d="M178 339q-59 0 -74 -87h-28q9 76 38.5 112.5t84.5 36.5q38 0 90.5 -43.5t80.5 -43.5q60 0 75 87h28q-9 -77 -38 -113t-85 -36q-27 0 -51 13.5t-39 30t-36.5 30t-45.5 13.5zM145 149q-59 0 -74 -87h-28q9 76 38.5 112.5t84.5 36.5q38 0 90.5 -43.5t80.5 -43.5q60 0 75 87
h28q-9 -77 -38 -113t-85 -36q-27 0 -51 13.5t-39 30t-36.5 30t-45.5 13.5z" />
    <glyph glyph-name="notequal" unicode="&#x2260;" 
d="M419 100h-263l-93 -100h-32l93 100h-75l11 63h123l127 137h-226l11 63h274l81 87h31l-81 -87h66l-11 -63h-113l-128 -137h216z" />
    <glyph glyph-name="lessequal" unicode="&#x2264;" 
d="M417 82l-345 149l7 38l399 159l-8 -45l-311 -122l270 -115zM402 0h-370l11 63h370z" />
    <glyph glyph-name="greaterequal" unicode="&#x2265;" 
d="M46 82l8 47l311 122l-270 115l12 62l345 -149l-7 -38zM402 0h-370l11 63h370z" />
    <glyph glyph-name="blacksquare" unicode="&#x25a0;" horiz-adv-x="562" 
d="M123 132v316h316v-316h-316z" />
    <glyph glyph-name="whitesquare" unicode="&#x25a1;" horiz-adv-x="563" 
d="M439 132h-316v316h316v-316zM389 182v216h-216v-216h216z" />
    <glyph glyph-name="blackuppointingtriangle" unicode="&#x25b2;" horiz-adv-x="804" 
d="M732 0h-660l330 660z" />
    <glyph glyph-name="whiteuppointingtriangle" unicode="&#x25b3;" horiz-adv-x="803" 
d="M732 0h-660l330 660zM651 50l-249 499l-248 -499h497z" />
    <glyph glyph-name="uni25B4" unicode="&#x25b4;" horiz-adv-x="563" 
d="M504 150h-446l223 363z" />
    <glyph glyph-name="uni25B5" unicode="&#x25b5;" horiz-adv-x="563" 
d="M281 513l223 -363h-446zM416 200l-135 218l-134 -218h269z" />
    <glyph glyph-name="blackrightpointingtriangle" unicode="&#x25b6;" horiz-adv-x="803" 
d="M113 0v660l660 -330z" />
    <glyph glyph-name="whiterightpointingtriangle" unicode="&#x25b7;" horiz-adv-x="803" 
d="M113 0v660l660 -330zM163 81l499 249l-499 248v-497z" />
    <glyph glyph-name="uni25B8" unicode="&#x25b8;" horiz-adv-x="563" 
d="M504 290l-363 -223v446z" />
    <glyph glyph-name="uni25B9" unicode="&#x25b9;" horiz-adv-x="563" 
d="M504 290l-363 -223v446zM191 156l218 134l-218 135v-269z" />
    <glyph glyph-name="blackdownpointingtriangle" unicode="&#x25bc;" horiz-adv-x="804" 
d="M402 0l-330 660h660z" />
    <glyph glyph-name="whitedownpointingtriangle" unicode="&#x25bd;" horiz-adv-x="803" 
d="M732 660l-330 -660l-330 660h660zM651 610h-497l248 -499z" />
    <glyph glyph-name="uni25BE" unicode="&#x25be;" horiz-adv-x="563" 
d="M281 150l-223 363h446z" />
    <glyph glyph-name="uni25BF" unicode="&#x25bf;" horiz-adv-x="563" 
d="M281 150l-223 363h446zM416 463h-269l134 -218z" />
    <glyph glyph-name="blackleftpointingtriangle" unicode="&#x25c0;" horiz-adv-x="803" 
d="M690 0l-660 330l660 330v-660z" />
    <glyph glyph-name="whiteleftpointingtriangle" unicode="&#x25c1;" horiz-adv-x="803" 
d="M690 0l-660 330l660 330v-660zM640 82v497l-499 -249z" />
    <glyph glyph-name="uni25C2" unicode="&#x25c2;" horiz-adv-x="563" 
d="M422 67l-363 223l363 223v-446z" />
    <glyph glyph-name="uni25C3" unicode="&#x25c3;" horiz-adv-x="563" 
d="M58 290l363 223v-446zM371 156v269l-218 -135z" />
    <glyph glyph-name="blackdiamond" unicode="&#x25c6;" horiz-adv-x="562" 
d="M281 67l-223 223l223 223l223 -223z" />
    <glyph glyph-name="whitediamond" unicode="&#x25c7;" horiz-adv-x="563" 
d="M281 67l-223 223l223 223l223 -223zM281 137l153 153l-153 153l-153 -153z" />
    <glyph glyph-name="lozenge" unicode="&#x25ca;" 
d="M231 0h-36l-81 329l206 331h36l80 -330zM234 76l148 239l-66 269l-147 -239z" />
    <glyph glyph-name="whitecircle" unicode="&#x25cb;" horiz-adv-x="563" 
d="M281 118q-71 0 -116 46.5t-45 122.5t45 123t116 47t115.5 -47t44.5 -123t-44.5 -122.5t-115.5 -46.5zM281 168q49 0 79.5 33t30.5 86t-30.5 86t-79.5 33q-50 0 -80.5 -33t-30.5 -86t30.5 -86t80.5 -33z" />
    <glyph glyph-name="blackcircle" unicode="&#x25cf;" horiz-adv-x="561" 
d="M281 118q-71 0 -116 46.5t-45 122.5t45 123t116 47t115.5 -47t44.5 -123t-44.5 -122.5t-115.5 -46.5z" />
    <glyph glyph-name="heartsuitwhite" unicode="&#x2661;" horiz-adv-x="850" 
d="M437 0h-23q-17 51 -59.5 99t-89.5 84.5t-92 76.5t-74.5 93t-29.5 115q0 90 52.5 140.5t130.5 50.5q57 0 103.5 -30t70.5 -92q24 62 70 92t103 30q77 0 130 -50.5t53 -140.5q0 -62 -29.5 -115t-74.5 -93t-92 -76.5t-89.5 -84.5t-59.5 -99zM426 87q21 40 60 78.5t77 67.5
t74 61t58.5 73.5t22.5 90.5q0 71 -39 108t-96 37q-53 0 -91.5 -37t-56.5 -106h-19q-18 69 -56.5 106t-90.5 37q-58 0 -97 -37t-39 -108q0 -49 22.5 -90.5t58.5 -73.5t74.5 -61t77.5 -67.5t60 -78.5z" />
    <glyph glyph-name="heart" unicode="&#x2665;" horiz-adv-x="850" 
d="M437 0h-23q-17 51 -59.5 99t-89.5 84.5t-92 76.5t-74.5 93t-29.5 115q0 90 52.5 140.5t130.5 50.5q57 0 103.5 -30t70.5 -92q24 62 70 92t103 30q77 0 130 -50.5t53 -140.5q0 -62 -29.5 -115t-74.5 -93t-92 -76.5t-89.5 -84.5t-59.5 -99z" />
    <glyph glyph-name="uni2780" unicode="&#x2780;" horiz-adv-x="800" 
d="M66 330q0 152 94.5 246t239.5 94q144 0 239 -94t95 -246q0 -151 -95 -245t-239 -94q-145 0 -239.5 93.5t-94.5 245.5zM400 32q119 0 200.5 80.5t81.5 217.5q0 138 -81.5 219.5t-200.5 81.5t-200.5 -81.5t-81.5 -219.5t81 -218t201 -80zM366 119v344l-96 -82l-21 40
l156 123h33v-425h-72z" />
    <glyph glyph-name="uni2781" unicode="&#x2781;" horiz-adv-x="800" 
d="M66 330q0 152 94.5 246t239.5 94q144 0 239 -94t95 -246q0 -151 -95 -245t-239 -94q-145 0 -239.5 93.5t-94.5 245.5zM400 32q119 0 200.5 80.5t81.5 217.5q0 138 -81.5 219.5t-200.5 81.5t-200.5 -81.5t-81.5 -219.5t81 -218t201 -80zM380 513q-36 0 -58 -23t-23 -67
h-36q1 64 38 97.5t92 33.5q61 0 97.5 -32.5t36.5 -88.5q0 -20 -5.5 -38.5t-12 -32.5t-24.5 -37t-30.5 -36.5t-43.5 -47t-51 -55.5h182v-67h-272v22l72 81q3 3 15.5 17t16 18t14.5 17.5t15 19.5t12.5 19.5t12 22t9.5 22t8 25t4 26t2 29.5q0 75 -71 75z" />
    <glyph glyph-name="uni2782" unicode="&#x2782;" horiz-adv-x="800" 
d="M66 330q0 152 94.5 246t239.5 94q144 0 239 -94t95 -246q0 -151 -95 -245t-239 -94q-145 0 -239.5 93.5t-94.5 245.5zM400 32q119 0 200.5 80.5t81.5 217.5q0 138 -81.5 219.5t-200.5 81.5t-200.5 -81.5t-81.5 -219.5t81 -218t201 -80zM397 110q-60 0 -98 33t-39 98h36
q1 -44 25.5 -67t62.5 -23q40 0 62.5 22.5t22.5 63.5q0 50 -17.5 66.5t-49.5 16.5h-46v41h46q24 0 39.5 19t15.5 57q0 36 -20 56.5t-52 20.5q-35 0 -56 -23t-22 -67h-36q1 65 37.5 98t93.5 33q61 0 96 -30t35 -78q0 -66 -54 -104q31 -17 48.5 -45t17.5 -61q0 -51 -40.5 -89
t-107.5 -38z" />
    <glyph glyph-name="uni2783" unicode="&#x2783;" horiz-adv-x="800" 
d="M66 330q0 152 94.5 246t239.5 94q144 0 239 -94t95 -246q0 -151 -95 -245t-239 -94q-145 0 -239.5 93.5t-94.5 245.5zM400 32q119 0 200.5 80.5t81.5 217.5q0 138 -81.5 219.5t-200.5 81.5t-200.5 -81.5t-81.5 -219.5t81 -218t201 -80zM550 220h-82v-101h-68v101h-174v29
q69 96 98 150t32.5 75t3.5 70h79q0 -20 -4 -37t-9 -31t-21.5 -38.5t-29 -42.5t-44 -61t-55.5 -77h124v64q15 16 24.5 47t9.5 60h34v-171h82v-37z" />
    <glyph glyph-name="uni2784" unicode="&#x2784;" horiz-adv-x="800" 
d="M66 330q0 152 94.5 246t239.5 94q144 0 239 -94t95 -246q0 -151 -95 -245t-239 -94q-145 0 -239.5 93.5t-94.5 245.5zM400 32q119 0 200.5 80.5t81.5 217.5q0 138 -81.5 219.5t-200.5 81.5t-200.5 -81.5t-81.5 -219.5t81 -218t201 -80zM391 109q-56 0 -90 31t-38 92h36
q3 -36 27 -56t59 -20q77 0 77 98q0 96 -69 96q-53 0 -71 -47h-33v241h232v-67h-192v-109q25 24 74 24q60 0 98 -39.5t38 -95.5q0 -67 -38 -107.5t-110 -40.5z" />
    <glyph glyph-name="uni2785" unicode="&#x2785;" horiz-adv-x="800" 
d="M66 330q0 152 94.5 246t239.5 94q144 0 239 -94t95 -246q0 -151 -95 -245t-239 -94q-145 0 -239.5 93.5t-94.5 245.5zM400 32q119 0 200.5 80.5t81.5 217.5q0 138 -81.5 219.5t-200.5 81.5t-200.5 -81.5t-81.5 -219.5t81 -218t201 -80zM540 249q0 -60 -38 -100t-109 -40
q-70 0 -108.5 53t-38.5 148q0 108 45.5 175t121.5 67q53 0 84 -32.5t33 -87.5h-36q-6 41 -24 60.5t-54 19.5q-90 0 -94 -177q32 40 88 40t93 -36.5t37 -89.5zM400 148q29 0 46 23.5t17 70.5q0 44 -17 65.5t-45 21.5q-59 0 -78 -51q4 -74 22.5 -102t54.5 -28z" />
    <glyph glyph-name="uni2786" unicode="&#x2786;" horiz-adv-x="800" 
d="M66 330q0 152 94.5 246t239.5 94q144 0 239 -94t95 -246q0 -151 -95 -245t-239 -94q-145 0 -239.5 93.5t-94.5 245.5zM400 32q119 0 200.5 80.5t81.5 217.5q0 138 -81.5 219.5t-200.5 81.5t-200.5 -81.5t-81.5 -219.5t81 -218t201 -80zM405 119h-76q0 76 23 131.5
t126 226.5h-207v67h273v-29q-71 -134 -100.5 -204t-34 -99t-4.5 -93z" />
    <glyph glyph-name="uni2787" unicode="&#x2787;" horiz-adv-x="800" 
d="M66 330q0 152 94.5 246t239.5 94q144 0 239 -94t95 -246q0 -151 -95 -245t-239 -94q-145 0 -239.5 93.5t-94.5 245.5zM400 32q119 0 200.5 80.5t81.5 217.5q0 138 -81.5 219.5t-200.5 81.5t-200.5 -81.5t-81.5 -219.5t81 -218t201 -80zM399 109q-67 0 -107.5 37.5
t-40.5 89.5q0 36 19.5 65t55.5 45q-58 33 -58 99q0 48 35 78.5t96 30.5t96 -30.5t35 -78.5q0 -66 -58 -99q36 -16 55.5 -45t19.5 -65q0 -52 -40.5 -89.5t-107.5 -37.5zM344 445q0 -79 55 -79t55 79q0 39 -14 55t-41 16t-41 -15.5t-14 -55.5zM326 236q0 -90 73 -90t73 90
q0 86 -73 86t-73 -86z" />
    <glyph glyph-name="uni2788" unicode="&#x2788;" horiz-adv-x="800" 
d="M66 330q0 152 94.5 246t239.5 94q144 0 239 -94t95 -246q0 -151 -95 -245t-239 -94q-145 0 -239.5 93.5t-94.5 245.5zM400 32q119 0 200.5 80.5t81.5 217.5q0 138 -81.5 219.5t-200.5 81.5t-200.5 -81.5t-81.5 -219.5t81 -218t201 -80zM402 334q59 0 78 51
q-4 74 -22.5 102t-54.5 28q-29 0 -46 -23.5t-17 -70.5q0 -44 17 -65.5t45 -21.5zM390 111q-53 0 -84 32.5t-33 87.5h36q6 -41 24 -60.5t54 -19.5q90 0 94 177q-32 -40 -88 -40t-93 36.5t-37 89.5q0 60 38 100t109 40q70 0 108.5 -53t38.5 -148q0 -108 -45.5 -175t-121.5 -67
z" />
    <glyph glyph-name="uni2789" unicode="&#x2789;" horiz-adv-x="800" 
d="M400 -9q-145 0 -239.5 93.5t-94.5 245.5t94.5 246t239.5 94q144 0 239 -94t95 -246q0 -151 -95 -245t-239 -94zM118 330q0 -138 81 -218t201 -80q119 0 200.5 80.5t81.5 217.5q0 138 -81.5 219.5t-200.5 81.5t-200.5 -81.5t-81.5 -219.5zM619 332q0 -101 -33 -162
t-91 -61t-91.5 61t-33.5 162t33 161.5t92 60.5q58 0 91 -60t33 -162zM247 119v344l-64 -54l-21 40l124 95h33v-425h-72zM446 332q0 -184 49 -184q48 0 48 184q0 183 -48 183q-49 0 -49 -183z" />
    <glyph glyph-name="uni278A" unicode="&#x278a;" horiz-adv-x="800" 
d="M66 330q0 152 94.5 246t239.5 94q144 0 239 -94t95 -246q0 -151 -95 -245t-239 -94q-145 0 -239.5 93.5t-94.5 245.5zM366 119h72v425h-33l-156 -123l21 -40l96 82v-344z" />
    <glyph glyph-name="uni278B" unicode="&#x278b;" horiz-adv-x="800" 
d="M66 330q0 152 94.5 246t239.5 94q144 0 239 -94t95 -246q0 -151 -95 -245t-239 -94q-145 0 -239.5 93.5t-94.5 245.5zM380 513q71 0 71 -75q0 -16 -1.5 -31.5t-7 -30.5t-8 -25.5t-12.5 -26t-13 -21.5t-16.5 -22.5t-15.5 -19t-18.5 -20.5t-16.5 -19l-72 -81v-22h272v67
h-182q20 22 51 55.5t43.5 47t30.5 36.5t24.5 37t12 32.5t5.5 38.5q0 56 -36.5 88.5t-97.5 32.5q-55 0 -92 -33.5t-38 -97.5h36q1 44 23 67t58 23z" />
    <glyph glyph-name="uni278C" unicode="&#x278c;" horiz-adv-x="800" 
d="M400 -9q-145 0 -239.5 93.5t-94.5 245.5t94.5 246t239.5 94q144 0 239 -94t95 -246q0 -151 -95 -245t-239 -94zM397 110q67 0 107.5 38t40.5 89q0 33 -17.5 61t-48.5 45q54 38 54 104q0 48 -35 78t-96 30q-57 0 -93.5 -33t-37.5 -98h36q1 44 22 67t56 23q32 0 52 -20.5
t20 -56.5q0 -38 -15.5 -57t-38.5 -19h-47v-41h46q32 0 49.5 -16.5t17.5 -66.5q0 -41 -22.5 -63.5t-62.5 -22.5q-38 0 -62.5 23t-25.5 67h-36q1 -65 39 -98t98 -33z" />
    <glyph glyph-name="uni278D" unicode="&#x278d;" horiz-adv-x="800" 
d="M66 330q0 152 94.5 246t239.5 94q144 0 239 -94t95 -246q0 -151 -95 -245t-239 -94q-145 0 -239.5 93.5t-94.5 245.5zM550 220v37h-82v171h-34q0 -29 -9.5 -60t-24.5 -47v-64h-124q24 34 55.5 77t44 61t29 42.5t21.5 38.5t9 31t4 37h-79q0 -48 -4 -70t-33 -75t-97 -150
v-29h174v-101h68v101h82z" />
    <glyph glyph-name="uni278E" unicode="&#x278e;" horiz-adv-x="800" 
d="M66 330q0 152 94.5 246t239.5 94q144 0 239 -94t95 -246q0 -151 -95 -245t-239 -94q-145 0 -239.5 93.5t-94.5 245.5zM263 232q4 -61 38 -92t90 -31q72 0 110 40.5t38 107.5q0 56 -38 95.5t-98 39.5q-49 0 -74 -24v109h192v67h-232v-241h33q18 47 71 47q69 0 69 -96
q0 -98 -77 -98q-35 0 -59 20t-27 56h-36z" />
    <glyph glyph-name="uni278F" unicode="&#x278f;" horiz-adv-x="800" 
d="M66 330q0 152 94.5 246t239.5 94q144 0 239 -94t95 -246q0 -151 -95 -245t-239 -94q-145 0 -239.5 93.5t-94.5 245.5zM540 249q0 53 -37 89.5t-93 36.5t-88 -40q4 177 94 177q36 0 54 -19.5t24 -60.5h36q-2 55 -33 87.5t-84 32.5q-76 0 -121.5 -67t-45.5 -175
q0 -95 38.5 -148t108.5 -53q71 0 109 40t38 100zM400 148q-36 0 -54.5 28t-22.5 102q19 51 78 51q28 0 45 -21.5t17 -65.5q0 -47 -17 -70.5t-46 -23.5z" />
    <glyph glyph-name="uni2790" unicode="&#x2790;" horiz-adv-x="800" 
d="M66 330q0 152 94.5 246t239.5 94q144 0 239 -94t95 -246q0 -151 -95 -245t-239 -94q-145 0 -239.5 93.5t-94.5 245.5zM405 119q0 64 4.5 93t34 99t100.5 204v29h-273v-67h207q-103 -171 -126 -226.5t-23 -131.5h76z" />
    <glyph glyph-name="uni2791" unicode="&#x2791;" horiz-adv-x="800" 
d="M66 330q0 152 94.5 246t239.5 94q144 0 239 -94t95 -246q0 -151 -95 -245t-239 -94q-145 0 -239.5 93.5t-94.5 245.5zM399 109q67 0 107.5 37.5t40.5 89.5q0 36 -19.5 65t-55.5 45q58 33 58 99q0 48 -35 78.5t-96 30.5t-96 -30.5t-35 -78.5q0 -66 58 -99
q-36 -16 -55.5 -45t-19.5 -65q0 -52 40.5 -89.5t107.5 -37.5zM344 445q0 40 14 55.5t41 15.5t41 -16t14 -55q0 -79 -55 -79t-55 79zM326 236q0 86 73 86t73 -86q0 -90 -73 -90t-73 90z" />
    <glyph glyph-name="uni2792" unicode="&#x2792;" horiz-adv-x="800" 
d="M66 330q0 152 94.5 246t239.5 94q144 0 239 -94t95 -246q0 -151 -95 -245t-239 -94q-145 0 -239.5 93.5t-94.5 245.5zM403 515q36 0 54.5 -28t22.5 -102q-19 -51 -78 -51q-28 0 -45 21.5t-17 65.5q0 47 17 70.5t46 23.5zM263 414q0 -53 37 -89.5t93 -36.5t88 40
q-4 -177 -94 -177q-36 0 -54 19.5t-24 60.5h-36q2 -55 33 -87.5t84 -32.5q76 0 121.5 67t45.5 175q0 95 -38.5 148t-108.5 53q-71 0 -109 -40t-38 -100z" />
    <glyph glyph-name="uni2793" unicode="&#x2793;" horiz-adv-x="800" 
d="M66 330q0 152 94.5 246t239.5 94q144 0 239 -94t95 -246q0 -151 -95 -245t-239 -94q-145 0 -239.5 93.5t-94.5 245.5zM628 332q0 102 -33 162t-91 60q-59 0 -92 -60.5t-33 -161.5t33.5 -162t91.5 -61t91 61t33 162zM256 119h72v425h-33l-124 -95l21 -40l64 54v-344z
M455 332q0 183 49 183q48 0 48 -183q0 -184 -48 -184q-49 0 -49 184z" />
    <glyph glyph-name="uni27F7" unicode="&#x27f7;" horiz-adv-x="692" 
d="M547 350l-163 164h73l191 -197v-8l-191 -199h-73l160 165h-399l163 -165h-73l-191 198v8l191 198h73l-160 -164h399z" />
    <glyph glyph-name="commaaccent" unicode="&#xf6c3;" horiz-adv-x="501" 
d="M184 -135q0 25 -53 25l8 50q88 0 88 -62q0 -73 -126 -73l4 26q79 0 79 34z" />
    <glyph glyph-name="centinferior" unicode="&#xf6df;" horiz-adv-x="353" 
d="M65 -82q0 -48 26 -64l72 211h-3q-43 0 -69 -37t-26 -110zM237 -69q-13 -62 -49 -91.5t-85 -29.5l-29 -85h-26l29 87q-40 5 -62.5 32.5t-22.5 73.5q0 80 44 130.5t117 50.5q7 0 21 -2l29 86h25l-31 -92q53 -24 43 -92h-31q7 45 -23 60l-71 -213h5q29 0 53.5 20.5
t33.5 64.5h30z" />
    <glyph glyph-name="centsuperior" unicode="&#xf6e0;" horiz-adv-x="353" 
d="M161 468q0 -48 26 -64l72 211h-3q-43 0 -69 -37t-26 -110zM333 481q-13 -62 -49 -91.5t-85 -29.5l-29 -85h-26l29 87q-40 5 -62.5 32.5t-22.5 73.5q0 80 44 130.5t117 50.5q7 0 21 -2l29 86h25l-31 -92q53 -24 43 -92h-31q7 45 -23 60l-71 -213h5q29 0 53.5 20.5
t33.5 64.5h30z" />
    <glyph glyph-name="commainferior" unicode="&#xf6e1;" horiz-adv-x="179" 
d="M-5 -278q0 37 -41 37l8 64q34 0 52.5 -21.5t18.5 -54.5q0 -44 -31 -77.5t-79 -33.5l4 25q29 0 48.5 18.5t19.5 42.5z" />
    <glyph glyph-name="commasuperior" unicode="&#xf6e2;" horiz-adv-x="179" 
d="M91 272q0 37 -41 37l8 64q34 0 52.5 -21.5t18.5 -54.5q0 -44 -31 -77.5t-79 -33.5l4 25q29 0 48.5 18.5t19.5 42.5z" />
    <glyph glyph-name="dollarinferior" unicode="&#xf6e3;" horiz-adv-x="357" 
d="M149 152q-14 0 -20 -1l-22 -124q11 -8 32 -20l25 144q-5 1 -15 1zM70 82q0 -18 14 -34l16 93q-30 -17 -30 -59zM66 -206q9 -1 35 0l22 124q-10 6 -32 18zM163 -139q0 22 -16 38l-18 -99q34 14 34 61zM86 -250q-11 0 -27 2l-10 -54h-27l11 60q-77 25 -64 112h36
q-7 -51 35 -69l27 150q-65 41 -65 110q0 49 28 84t79 46l10 56h27l-9 -52h14q14 0 21 -1l9 53h27l-10 -59q75 -26 62 -113h-36q7 52 -34 70l-27 -154q68 -47 68 -111q0 -48 -31 -82.5t-79 -44.5l-10 -55h-27l9 52h-7z" />
    <glyph glyph-name="dollarsuperior" unicode="&#xf6e4;" horiz-adv-x="357" 
d="M245 702q-14 0 -20 -1l-22 -124q11 -8 32 -20l25 144q-5 1 -15 1zM166 632q0 -18 14 -34l16 93q-30 -17 -30 -59zM184 343l13 1l22 124q-10 6 -32 18l-25 -142q7 -1 22 -1zM259 411q0 22 -16 38l-18 -99q34 14 34 61zM182 300q-11 0 -27 2l-10 -54h-27l11 60
q-77 25 -64 112h36q-7 -51 35 -69l27 150q-65 41 -65 110q0 49 28 84t79 46l10 56h27l-9 -52h14q14 0 21 -1l9 53h27l-10 -59q75 -26 62 -113h-36q7 52 -34 70l-27 -154q68 -47 68 -111q0 -48 -31 -82.5t-79 -44.5l-10 -55h-27l9 52h-7z" />
    <glyph glyph-name="periodinferior" unicode="&#xf6e7;" horiz-adv-x="186" 
d="M-39 -240l12 70h67l-12 -70h-67z" />
    <glyph glyph-name="periodsuperior" unicode="&#xf6e8;" horiz-adv-x="186" 
d="M57 310l12 70h67l-12 -70h-67z" />
    <glyph glyph-name="s_t" unicode="&#xfb06;" horiz-adv-x="781" 
d="M571 -11q-104 0 -104 107q0 19 5 51l45 267h-84l6 36h85l8 50q6 33 6 57q0 114 -116 114q-73 0 -120 -51t-47 -125q0 -20 6 -38q54 -10 78.5 -48t17.5 -91h-27q1 51 -27.5 77.5t-78.5 26.5q-43 0 -67 -21t-24 -56q0 -29 20 -49t48 -33t56 -27.5t48 -42t20 -67.5
q0 -61 -46 -99t-129 -38q-72 0 -112 37t-31 102h27q-1 -51 32 -74t85 -23q47 0 70 21t23 53q0 31 -19 51.5t-46 32.5t-54.5 25.5t-46.5 41.5t-19 70q0 58 45 96t120 38q-3 15 -3 31q0 97 62 157.5t161 60.5q77 0 128.5 -43.5t51.5 -117.5q0 -22 -6 -48l-9 -50h133l-6 -36
h-133l-49 -287q-3 -19 -3 -35q0 -62 46 -62q54 0 80 85h25q-31 -126 -131 -126z" />
    <glyph glyph-name="CR" horiz-adv-x="500" 
 />
    <glyph glyph-name="fi.cap" horiz-adv-x="816" 
d="M771 660l-116 -660h-96l116 660h96zM45 0l116 660h359l-9 -50h-263l-46 -265h243l-9 -50h-243l-52 -295h-96z" />
    <glyph glyph-name="fl.cap" horiz-adv-x="1025" 
d="M45 0l116 660h359l-9 -50h-263l-46 -265h243l-9 -50h-243l-52 -295h-96zM559 0l116 660h96l-107 -610h283l-9 -50h-379z" />
    <glyph glyph-name="germandbls.cap" horiz-adv-x="996" 
d="M692 -10q-89 0 -137 42.5t-40 133.5h40q1 -71 33.5 -100t95.5 -29q59 0 93 36.5t34 92.5q0 34 -16.5 60.5t-41.5 42.5t-54.5 36.5t-54.5 41t-41.5 55.5t-16.5 81q0 80 56.5 133.5t144.5 53.5q165 0 172 -159h-40q-14 112 -122 112q-58 0 -89 -32.5t-31 -86.5
q0 -29 17.5 -54t43.5 -42t56 -39t56 -44.5t43.5 -60t17.5 -83.5q0 -76 -61 -133.5t-158 -57.5zM209 -10q-89 0 -137 42.5t-40 133.5h40q1 -71 33.5 -100t95.5 -29q59 0 93 36.5t34 92.5q0 34 -16.5 60.5t-41.5 42.5t-54.5 36.5t-54.5 41t-41.5 55.5t-16.5 81
q0 80 56.5 133.5t144.5 53.5q165 0 172 -159h-40q-14 112 -122 112q-58 0 -89 -32.5t-31 -86.5q0 -29 17.5 -54t43.5 -42t56 -39t56 -44.5t43.5 -60t17.5 -83.5q0 -76 -61 -133.5t-158 -57.5z" />
    <glyph glyph-name="a.alt" horiz-adv-x="471" 
d="M158 33q36 0 73 27.5t46 63.5l17 94l-75 -15q-54 -11 -84.5 -39t-30.5 -71q0 -60 54 -60zM255 0l11 60q-51 -71 -137 -71q-52 0 -81.5 25.5t-29.5 72.5q0 111 169 143l113 22l7 42q3 18 3 32q0 41 -22.5 61.5t-58.5 20.5q-43 0 -74 -24t-42 -67h-23q15 70 61 106.5
t111 36.5q67 0 100.5 -35t33.5 -91q0 -14 -4 -40l-52 -294h-85z" />
    <glyph glyph-name="g.alt" horiz-adv-x="488" 
d="M227 159q48 0 81 51t33 137q0 75 -67 75q-49 0 -81.5 -51t-32.5 -137q0 -75 67 -75zM398 -76q0 -78 -70 -126t-185 -48q-82 0 -131 26t-49 75q0 60 92 113q-38 27 -38 68q0 81 91 135q-34 39 -34 95q0 75 55.5 136.5t151.5 61.5q66 0 108 -42l124 60h2l-14 -84
q-49 0 -92 -3q18 -31 18 -72q0 -74 -56 -136t-150 -62q-51 0 -86 23q-58 -32 -58 -77q0 -22 21 -30.5t66 -8.5h79q155 0 155 -104zM150 -206q76 0 124 28.5t48 74.5q0 44 -85 44h-100q-28 0 -52 8q-58 -36 -58 -90q0 -65 123 -65z" />
    <glyph glyph-name="agrave.alt" horiz-adv-x="471" 
d="M262 697l36 -150h-23l-115 150h102zM158 33q36 0 73 27.5t46 63.5l17 94l-75 -15q-54 -11 -84.5 -39t-30.5 -71q0 -60 54 -60zM255 0l11 60q-51 -71 -137 -71q-52 0 -81.5 25.5t-29.5 72.5q0 111 169 143l113 22l7 42q3 18 3 32q0 41 -22.5 61.5t-58.5 20.5
q-43 0 -74 -24t-42 -67h-23q15 70 61 106.5t111 36.5q67 0 100.5 -35t33.5 -91q0 -14 -4 -40l-52 -294h-85z" />
    <glyph glyph-name="aacute.alt" horiz-adv-x="471" 
d="M359 698h109l-168 -150h-29zM158 33q36 0 73 27.5t46 63.5l17 94l-75 -15q-54 -11 -84.5 -39t-30.5 -71q0 -60 54 -60zM255 0l11 60q-51 -71 -137 -71q-52 0 -81.5 25.5t-29.5 72.5q0 111 169 143l113 22l7 42q3 18 3 32q0 41 -22.5 61.5t-58.5 20.5q-43 0 -74 -24
t-42 -67h-23q15 70 61 106.5t111 36.5q67 0 100.5 -35t33.5 -91q0 -14 -4 -40l-52 -294h-85z" />
    <glyph glyph-name="acircumflex.alt" horiz-adv-x="471" 
d="M297 613l-98 -65h-26l130 150h15l78 -150h-26zM158 33q36 0 73 27.5t46 63.5l17 94l-75 -15q-54 -11 -84.5 -39t-30.5 -71q0 -60 54 -60zM255 0l11 60q-51 -71 -137 -71q-52 0 -81.5 25.5t-29.5 72.5q0 111 169 143l113 22l7 42q3 18 3 32q0 41 -22.5 61.5t-58.5 20.5
q-43 0 -74 -24t-42 -67h-23q15 70 61 106.5t111 36.5q67 0 100.5 -35t33.5 -91q0 -14 -4 -40l-52 -294h-85z" />
    <glyph glyph-name="atilde.alt" horiz-adv-x="471" 
d="M342 559q-23 0 -38.5 12.5t-22 27t-15.5 27t-21 12.5q-31 0 -41 -79h-34q8 72 29 105.5t57 33.5q22 0 37 -12.5t21.5 -27t17 -27t23.5 -12.5q33 0 41 79h34q-5 -67 -29 -103t-59 -36zM158 33q36 0 73 27.5t46 63.5l17 94l-75 -15q-54 -11 -84.5 -39t-30.5 -71
q0 -60 54 -60zM255 0l11 60q-51 -71 -137 -71q-52 0 -81.5 25.5t-29.5 72.5q0 111 169 143l113 22l7 42q3 18 3 32q0 41 -22.5 61.5t-58.5 20.5q-43 0 -74 -24t-42 -67h-23q15 70 61 106.5t111 36.5q67 0 100.5 -35t33.5 -91q0 -14 -4 -40l-52 -294h-85z" />
    <glyph glyph-name="adieresis.alt" horiz-adv-x="471" 
d="M274 667l-13 -76h-75l13 76h75zM405 667l-13 -76h-75l13 76h75zM158 33q36 0 73 27.5t46 63.5l17 94l-75 -15q-54 -11 -84.5 -39t-30.5 -71q0 -60 54 -60zM255 0l11 60q-51 -71 -137 -71q-52 0 -81.5 25.5t-29.5 72.5q0 111 169 143l113 22l7 42q3 18 3 32
q0 41 -22.5 61.5t-58.5 20.5q-43 0 -74 -24t-42 -67h-23q15 70 61 106.5t111 36.5q67 0 100.5 -35t33.5 -91q0 -14 -4 -40l-52 -294h-85z" />
    <glyph glyph-name="amacron.alt" horiz-adv-x="471" 
d="M189 655h238l-9 -51h-238zM158 33q36 0 73 27.5t46 63.5l17 94l-75 -15q-54 -11 -84.5 -39t-30.5 -71q0 -60 54 -60zM255 0l11 60q-51 -71 -137 -71q-52 0 -81.5 25.5t-29.5 72.5q0 111 169 143l113 22l7 42q3 18 3 32q0 41 -22.5 61.5t-58.5 20.5q-43 0 -74 -24t-42 -67
h-23q15 70 61 106.5t111 36.5q67 0 100.5 -35t33.5 -91q0 -14 -4 -40l-52 -294h-85z" />
    <glyph glyph-name="abreve.alt" horiz-adv-x="471" 
d="M304 626q83 0 97 72h33q-10 -62 -46 -100.5t-89 -38.5q-58 0 -84 40.5t-16 98.5h33q-7 -41 12 -56.5t60 -15.5zM158 33q36 0 73 27.5t46 63.5l17 94l-75 -15q-54 -11 -84.5 -39t-30.5 -71q0 -60 54 -60zM255 0l11 60q-51 -71 -137 -71q-52 0 -81.5 25.5t-29.5 72.5
q0 111 169 143l113 22l7 42q3 18 3 32q0 41 -22.5 61.5t-58.5 20.5q-43 0 -74 -24t-42 -67h-23q15 70 61 106.5t111 36.5q67 0 100.5 -35t33.5 -91q0 -14 -4 -40l-52 -294h-85z" />
    <glyph glyph-name="aring.alt" horiz-adv-x="471" 
d="M290 548q-39 0 -59 18t-20 44q0 37 29 62.5t76 25.5q39 0 59 -18t20 -44q0 -37 -29 -62.5t-76 -25.5zM295 574q23 0 36.5 17t13.5 45q0 37 -31 37q-25 0 -39 -17t-14 -46q0 -36 34 -36zM158 33q36 0 73 27.5t46 63.5l17 94l-75 -15q-54 -11 -84.5 -39t-30.5 -71
q0 -60 54 -60zM255 0l11 60q-51 -71 -137 -71q-52 0 -81.5 25.5t-29.5 72.5q0 111 169 143l113 22l7 42q3 18 3 32q0 41 -22.5 61.5t-58.5 20.5q-43 0 -74 -24t-42 -67h-23q15 70 61 106.5t111 36.5q67 0 100.5 -35t33.5 -91q0 -14 -4 -40l-52 -294h-85z" />
    <glyph glyph-name="aringacute.alt" horiz-adv-x="471" 
d="M407 884h109l-168 -150h-29zM290 548q-39 0 -59 18t-20 44q0 37 29 62.5t76 25.5q39 0 59 -18t20 -44q0 -37 -29 -62.5t-76 -25.5zM295 574q23 0 36.5 17t13.5 45q0 37 -31 37q-25 0 -39 -17t-14 -46q0 -36 34 -36zM158 33q36 0 73 27.5t46 63.5l17 94l-75 -15
q-54 -11 -84.5 -39t-30.5 -71q0 -60 54 -60zM255 0l11 60q-51 -71 -137 -71q-52 0 -81.5 25.5t-29.5 72.5q0 111 169 143l113 22l7 42q3 18 3 32q0 41 -22.5 61.5t-58.5 20.5q-43 0 -74 -24t-42 -67h-23q15 70 61 106.5t111 36.5q67 0 100.5 -35t33.5 -91q0 -14 -4 -40
l-52 -294h-85z" />
    <glyph glyph-name="aogonek.alt" horiz-adv-x="471" 
d="M158 33q36 0 73 27.5t46 63.5l17 94l-75 -15q-54 -11 -84.5 -39t-30.5 -71q0 -60 54 -60zM255 0l11 60q-51 -71 -137 -71q-52 0 -81.5 25.5t-29.5 72.5q0 111 169 143l113 22l7 42q3 18 3 32q0 41 -22.5 61.5t-58.5 20.5q-43 0 -74 -24t-42 -67h-23q15 70 61 106.5
t111 36.5q67 0 100.5 -35t33.5 -91q0 -14 -4 -40l-52 -294h-50q-55 -63 -70.5 -88t-15.5 -48q0 -29 26 -29q16 0 31.5 14t22.5 40h29q-7 -43 -34 -65.5t-65 -22.5q-65 0 -65 48q0 11 4.5 24t10.5 23t18.5 25t20.5 24t26 27.5t26 27.5z" />
    <glyph glyph-name="ae.alt" horiz-adv-x="758" 
d="M564 418q-60 0 -102.5 -47t-52.5 -143q128 25 175 57t47 77q0 24 -17.5 40t-49.5 16zM206 39q69 0 122 63q-8 29 -8 61q0 38 10 91l24 127q-32 33 -82 33q-76 0 -120 -71.5t-44 -183.5q0 -62 27 -91t71 -29zM494 -11q-109 0 -152 78q-71 -79 -161 -79q-76 0 -118.5 48
t-42.5 135q0 114 66.5 201.5t172.5 87.5q64 0 110 -43q42 13 60 33h20l-10 -57q52 67 142 67q61 0 98 -27.5t37 -70.5q0 -28 -12 -49.5t-43.5 -44.5t-95 -42t-159.5 -34v-18q0 -77 31 -105t86 -28q47 0 88 25.5t60 78.5h24q-16 -66 -71 -111t-130 -45z" />
    <glyph glyph-name="aeacute.alt" horiz-adv-x="758" 
d="M512 698h109l-168 -150h-29zM564 418q-60 0 -102.5 -47t-52.5 -143q128 25 175 57t47 77q0 24 -17.5 40t-49.5 16zM206 39q69 0 122 63q-8 29 -8 61q0 38 10 91l24 127q-32 33 -82 33q-76 0 -120 -71.5t-44 -183.5q0 -62 27 -91t71 -29zM494 -11q-109 0 -152 78
q-71 -79 -161 -79q-76 0 -118.5 48t-42.5 135q0 114 66.5 201.5t172.5 87.5q64 0 110 -43q42 13 60 33h20l-10 -57q52 67 142 67q61 0 98 -27.5t37 -70.5q0 -28 -12 -49.5t-43.5 -44.5t-95 -42t-159.5 -34v-18q0 -77 31 -105t86 -28q47 0 88 25.5t60 78.5h24
q-16 -66 -71 -111t-130 -45z" />
    <glyph glyph-name="gcircumflex.alt" horiz-adv-x="488" 
d="M312 613l-98 -65h-26l130 150h15l78 -150h-26zM227 159q48 0 81 51t33 137q0 75 -67 75q-49 0 -81.5 -51t-32.5 -137q0 -75 67 -75zM398 -76q0 -78 -70 -126t-185 -48q-82 0 -131 26t-49 75q0 60 92 113q-38 27 -38 68q0 81 91 135q-34 39 -34 95q0 75 55.5 136.5
t151.5 61.5q66 0 108 -42l124 60h2l-14 -84q-49 0 -92 -3q18 -31 18 -72q0 -74 -56 -136t-150 -62q-51 0 -86 23q-58 -32 -58 -77q0 -22 21 -30.5t66 -8.5h79q155 0 155 -104zM150 -206q76 0 124 28.5t48 74.5q0 44 -85 44h-100q-28 0 -52 8q-58 -36 -58 -90q0 -65 123 -65z
" />
    <glyph glyph-name="gbreve.alt" horiz-adv-x="488" 
d="M319 626q83 0 97 72h33q-10 -62 -46 -100.5t-89 -38.5q-58 0 -84 40.5t-16 98.5h33q-7 -41 12 -56.5t60 -15.5zM227 159q48 0 81 51t33 137q0 75 -67 75q-49 0 -81.5 -51t-32.5 -137q0 -75 67 -75zM398 -76q0 -78 -70 -126t-185 -48q-82 0 -131 26t-49 75q0 60 92 113
q-38 27 -38 68q0 81 91 135q-34 39 -34 95q0 75 55.5 136.5t151.5 61.5q66 0 108 -42l124 60h2l-14 -84q-49 0 -92 -3q18 -31 18 -72q0 -74 -56 -136t-150 -62q-51 0 -86 23q-58 -32 -58 -77q0 -22 21 -30.5t66 -8.5h79q155 0 155 -104zM150 -206q76 0 124 28.5t48 74.5
q0 44 -85 44h-100q-28 0 -52 8q-58 -36 -58 -90q0 -65 123 -65z" />
    <glyph glyph-name="gdotaccent.alt" horiz-adv-x="488" 
d="M365 667l-13 -76h-85l13 76h85zM227 159q48 0 81 51t33 137q0 75 -67 75q-49 0 -81.5 -51t-32.5 -137q0 -75 67 -75zM398 -76q0 -78 -70 -126t-185 -48q-82 0 -131 26t-49 75q0 60 92 113q-38 27 -38 68q0 81 91 135q-34 39 -34 95q0 75 55.5 136.5t151.5 61.5
q66 0 108 -42l124 60h2l-14 -84q-49 0 -92 -3q18 -31 18 -72q0 -74 -56 -136t-150 -62q-51 0 -86 23q-58 -32 -58 -77q0 -22 21 -30.5t66 -8.5h79q155 0 155 -104zM150 -206q76 0 124 28.5t48 74.5q0 44 -85 44h-100q-28 0 -52 8q-58 -36 -58 -90q0 -65 123 -65z" />
    <glyph glyph-name="gcommaaccent.alt" horiz-adv-x="488" 
d="M357 558h-103l143 150h16zM227 159q48 0 81 51t33 137q0 75 -67 75q-49 0 -81.5 -51t-32.5 -137q0 -75 67 -75zM398 -76q0 -78 -70 -126t-185 -48q-82 0 -131 26t-49 75q0 60 92 113q-38 27 -38 68q0 81 91 135q-34 39 -34 95q0 75 55.5 136.5t151.5 61.5q66 0 108 -42
l124 60h2l-14 -84q-49 0 -92 -3q18 -31 18 -72q0 -74 -56 -136t-150 -62q-51 0 -86 23q-58 -32 -58 -77q0 -22 21 -30.5t66 -8.5h79q155 0 155 -104zM150 -206q76 0 124 28.5t48 74.5q0 44 -85 44h-100q-28 0 -52 8q-58 -36 -58 -90q0 -65 123 -65z" />
    <glyph glyph-name="idotaccent" horiz-adv-x="238" 
d="M221 667l-13 -76h-85l13 76h85zM183 450l-79 -450h-85l79 450h85z" />
    <glyph glyph-name="A.small" horiz-adv-x="467" 
d="M257 189l-37 178l-98 -178h135zM297 0l-30 144h-169l-80 -144h-57l279 499h42l108 -499h-93z" />
    <glyph glyph-name="B.small" horiz-adv-x="527" 
d="M270 450h-55l-31 -177h70q38 0 62.5 29.5t24.5 81.5q0 66 -71 66zM258 229h-82l-32 -184h90q45 0 74 27.5t29 78.5q0 78 -79 78zM45 0l87 495h146q76 0 118.5 -31.5t42.5 -80.5q0 -38 -27.5 -69.5t-78.5 -46.5q100 -25 100 -120q0 -54 -51.5 -100.5t-155.5 -46.5h-181z
" />
    <glyph glyph-name="C.small" horiz-adv-x="509" 
d="M312 456q-76 0 -131 -76.5t-55 -208.5q0 -66 29.5 -99t82.5 -33t94 28.5t62 83.5h36q-25 -77 -80.5 -119t-124.5 -42q-90 0 -140.5 53t-50.5 141q0 130 78.5 225.5t198.5 95.5q70 0 112.5 -42t40.5 -119h-36q-5 112 -116 112z" />
    <glyph glyph-name="D.small" horiz-adv-x="576" 
d="M312 450h-97l-71 -405h90q88 0 135.5 78t47.5 202q0 125 -105 125zM45 0l87 495h188q92 0 142 -55t50 -140q0 -40 -9.5 -81t-31.5 -80.5t-53.5 -70t-78.5 -49.5t-104 -19h-190z" />
    <glyph glyph-name="E.small" horiz-adv-x="463" 
d="M45 0l87 495h283l-8 -45h-192l-32 -180h178l-8 -45h-177l-32 -180h206l-8 -45h-297z" />
    <glyph glyph-name="F.small" horiz-adv-x="438" 
d="M354 217h-180l-38 -217h-91l87 495h283l-8 -45h-192l-33 -187h180z" />
    <glyph glyph-name="G.small" horiz-adv-x="534" 
d="M371 0q6 30 -12 44q-54 -54 -133 -54q-90 0 -140.5 53t-50.5 141q0 130 77.5 225.5t195.5 95.5q73 0 115 -42t40 -119h-36q-5 112 -117 112q-76 0 -129.5 -76.5t-53.5 -208.5q0 -66 29.5 -99t82.5 -33q58 0 99 40l17 96h-78l8 45h169l-39 -220h-44z" />
    <glyph glyph-name="H.small" horiz-adv-x="616" 
d="M364 0l40 225h-228l-40 -225h-91l87 495h91l-40 -225h230l40 225h90l-87 -495h-92z" />
    <glyph glyph-name="I.small" horiz-adv-x="297" 
d="M132 495h91l-87 -495h-91z" />
    <glyph glyph-name="J.small" horiz-adv-x="428" 
d="M115 39q41 0 64 24.5t34 88.5l60 343h90l-58 -332q-31 -173 -182 -173q-130 0 -118 158h36q-4 -109 74 -109z" />
    <glyph glyph-name="K.small" horiz-adv-x="532" 
d="M431 0h-109l-139 248l258 247h71l-242 -228zM223 495l-87 -495h-91l87 495h91z" />
    <glyph glyph-name="L.small" horiz-adv-x="430" 
d="M223 495l-79 -450h208l-8 -45h-299l87 495h91z" />
    <glyph glyph-name="M.small" horiz-adv-x="672" 
d="M271 -4h-41l-69 379l-67 -375h-49l87 495h95l63 -371l218 371h90l-87 -495h-90l63 356z" />
    <glyph glyph-name="N.small" horiz-adv-x="586" 
d="M425 -4h-41l-217 406l-71 -402h-51l87 495h87l184 -345l60 345h50z" />
    <glyph glyph-name="O.small" horiz-adv-x="566" 
d="M314 505q86 0 137 -57t51 -142q0 -122 -77 -219t-202 -97q-86 0 -137 57t-51 142q0 122 77 219t202 97zM232 39q77 0 127.5 83t50.5 200q0 134 -105 134q-77 0 -127.5 -83t-50.5 -200q0 -134 105 -134z" />
    <glyph glyph-name="P.small" horiz-adv-x="481" 
d="M279 450h-64l-34 -193h64q46 0 75 30t29 85q0 78 -70 78zM237 211h-64l-38 -211h-90l87 495h155q75 0 117 -32.5t42 -90.5q0 -73 -54 -117t-155 -44z" />
    <glyph glyph-name="Q.small" horiz-adv-x="566" 
d="M471 -190h-146l-89 180h-13q-86 0 -137 57t-51 142q0 122 77 219t202 97q86 0 137 -57t51 -142q0 -101 -56 -190t-151 -116zM232 39q77 0 127.5 83t50.5 200q0 134 -105 134q-77 0 -127.5 -83t-50.5 -200q0 -134 105 -134z" />
    <glyph glyph-name="R.small" horiz-adv-x="532" 
d="M279 450h-64l-32 -184h71q42 0 69 28.5t27 82.5q0 40 -18 56.5t-53 16.5zM325 0l-118 221h-32l-39 -221h-91l87 495h155q76 0 118 -30t42 -86q0 -53 -38 -96t-111 -57l134 -226h-107z" />
    <glyph glyph-name="S.small" horiz-adv-x="431" 
d="M248 462q-40 0 -63.5 -21t-23.5 -57q0 -26 18.5 -46t44.5 -36t52.5 -34.5t45 -49t18.5 -71.5q0 -66 -49.5 -111.5t-125.5 -45.5q-65 0 -105 34t-34 106h36q1 -54 27 -75.5t77 -21.5q42 0 66 23t24 62q0 25 -12.5 45t-32 32t-41.5 27.5t-41.5 30.5t-32 42.5t-12.5 62.5
q0 69 45.5 108t111.5 39q60 0 94 -32t36 -96h-36q-10 85 -87 85z" />
    <glyph glyph-name="T.small" horiz-adv-x="478" 
d="M471 450h-166l-79 -450h-90l79 450h-165l8 45h421z" />
    <glyph glyph-name="U.small" horiz-adv-x="569" 
d="M393 170l57 325h55l-56 -319q-16 -95 -73.5 -140.5t-141.5 -45.5q-171 0 -171 146q0 20 5 52l54 307h91l-54 -307q-5 -30 -5 -48q0 -96 98 -96q50 0 89.5 28.5t51.5 97.5z" />
    <glyph glyph-name="V.small" horiz-adv-x="467" 
d="M156 -4l-108 499h93l77 -367l202 367h57l-279 -499h-42z" />
    <glyph glyph-name="W.small" horiz-adv-x="696" 
d="M118 -4l-60 499h94l37 -354l198 354h42l54 -341l157 341h57l-237 -499h-41l-59 353l-200 -353h-42z" />
    <glyph glyph-name="X.small" horiz-adv-x="495" 
d="M305 0l-93 204l-170 -204h-66l214 251l-116 244h100l79 -179l148 179h67l-194 -225l129 -270h-98z" />
    <glyph glyph-name="Y.small" horiz-adv-x="481" 
d="M228 0h-90l39 221l-124 274h96l100 -219l173 219h65l-220 -274z" />
    <glyph glyph-name="Z.small" horiz-adv-x="491" 
d="M-1 0l5 28l328 423h-241l12 44h343l-5 -29l-325 -420h268l-12 -46h-373z" />
    <glyph glyph-name="Agrave.small" horiz-adv-x="467" 
d="M244 697l36 -150h-23l-115 150h102zM257 189l-37 178l-98 -178h135zM297 0l-30 144h-169l-80 -144h-57l279 499h42l108 -499h-93z" />
    <glyph glyph-name="Aacute.small" horiz-adv-x="467" 
d="M341 698h109l-168 -150h-29zM257 189l-37 178l-98 -178h135zM297 0l-30 144h-169l-80 -144h-57l279 499h42l108 -499h-93z" />
    <glyph glyph-name="Acircumflex.small" horiz-adv-x="467" 
d="M279 613l-98 -65h-26l130 150h15l78 -150h-26zM257 189l-37 178l-98 -178h135zM297 0l-30 144h-169l-80 -144h-57l279 499h42l108 -499h-93z" />
    <glyph glyph-name="Atilde.small" horiz-adv-x="467" 
d="M324 559q-23 0 -38.5 12.5t-22 27t-15.5 27t-21 12.5q-31 0 -41 -79h-34q8 72 29 105.5t57 33.5q22 0 37 -12.5t21.5 -27t17 -27t23.5 -12.5q33 0 41 79h34q-5 -67 -29 -103t-59 -36zM257 189l-37 178l-98 -178h135zM297 0l-30 144h-169l-80 -144h-57l279 499h42
l108 -499h-93z" />
    <glyph glyph-name="Adieresis.small" horiz-adv-x="467" 
d="M256 667l-13 -76h-75l13 76h75zM387 667l-13 -76h-75l13 76h75zM257 189l-37 178l-98 -178h135zM297 0l-30 144h-169l-80 -144h-57l279 499h42l108 -499h-93z" />
    <glyph glyph-name="Amacron.small" horiz-adv-x="467" 
d="M171 655h238l-9 -51h-238zM257 189l-37 178l-98 -178h135zM297 0l-30 144h-169l-80 -144h-57l279 499h42l108 -499h-93z" />
    <glyph glyph-name="Abreve.small" horiz-adv-x="467" 
d="M286 626q83 0 97 72h33q-10 -62 -46 -100.5t-89 -38.5q-58 0 -84 40.5t-16 98.5h33q-7 -41 12 -56.5t60 -15.5zM257 189l-37 178l-98 -178h135zM297 0l-30 144h-169l-80 -144h-57l279 499h42l108 -499h-93z" />
    <glyph glyph-name="Aring.small" horiz-adv-x="467" 
d="M272 548q-39 0 -59 18t-20 44q0 37 29 62.5t76 25.5q39 0 59 -18t20 -44q0 -37 -29 -62.5t-76 -25.5zM277 574q23 0 36.5 17t13.5 45q0 37 -31 37q-25 0 -39 -17t-14 -46q0 -36 34 -36zM257 189l-37 178l-98 -178h135zM297 0l-30 144h-169l-80 -144h-57l279 499h42
l108 -499h-93z" />
    <glyph glyph-name="Aringacute.small" horiz-adv-x="467" 
d="M387 886h109l-168 -150h-29zM274 548q-39 0 -59 18t-20 44q0 37 29 62.5t76 25.5q39 0 59 -18t20 -44q0 -37 -29 -62.5t-76 -25.5zM279 574q23 0 36.5 17t13.5 45q0 37 -31 37q-25 0 -39 -17t-14 -46q0 -36 34 -36zM257 189l-37 178l-98 -178h135zM297 0l-30 144h-169
l-80 -144h-57l279 499h42l108 -499h-93z" />
    <glyph glyph-name="Aogonek.small" horiz-adv-x="467" 
d="M257 189l-37 178l-98 -178h135zM297 0l-30 144h-169l-80 -144h-57l279 499h42l108 -499h-58q-55 -64 -70.5 -89t-15.5 -52q0 -24 26 -24q16 0 31.5 14t22.5 40h29q-7 -43 -34 -65.5t-65 -22.5q-65 0 -65 48q0 11 4.5 24t10.5 23t18.5 25t20.5 24t26 27.5t26 27.5z" />
    <glyph glyph-name="AE.small" horiz-adv-x="673" 
d="M293 215l32 183l-142 -183h110zM255 0l30 170h-137l-131 -170h-66l389 495h285l-8 -45h-192l-32 -180h178l-8 -45h-177l-32 -180h206l-8 -45h-297z" />
    <glyph glyph-name="AEacute.small" horiz-adv-x="673" 
d="M475 698h109l-168 -150h-29zM293 215l32 183l-142 -183h110zM255 0l30 170h-137l-131 -170h-66l389 495h285l-8 -45h-192l-32 -180h178l-8 -45h-177l-32 -180h206l-8 -45h-297z" />
    <glyph glyph-name="Cacute.small" horiz-adv-x="509" 
d="M387 698h109l-168 -150h-29zM312 456q-76 0 -131 -76.5t-55 -208.5q0 -66 29.5 -99t82.5 -33t94 28.5t62 83.5h36q-25 -77 -80.5 -119t-124.5 -42q-90 0 -140.5 53t-50.5 141q0 130 78.5 225.5t198.5 95.5q70 0 112.5 -42t40.5 -119h-36q-5 112 -116 112z" />
    <glyph glyph-name="Ccircumflex.small" horiz-adv-x="509" 
d="M335 613l-98 -65h-26l130 150h15l78 -150h-26zM312 456q-76 0 -131 -76.5t-55 -208.5q0 -66 29.5 -99t82.5 -33t94 28.5t62 83.5h36q-25 -77 -80.5 -119t-124.5 -42q-90 0 -140.5 53t-50.5 141q0 130 78.5 225.5t198.5 95.5q70 0 112.5 -42t40.5 -119h-36
q-5 112 -116 112z" />
    <glyph glyph-name="Ccaron.small" horiz-adv-x="509" 
d="M338 635l96 63h26l-130 -150h-15l-77 150h25zM312 456q-76 0 -131 -76.5t-55 -208.5q0 -66 29.5 -99t82.5 -33t94 28.5t62 83.5h36q-25 -77 -80.5 -119t-124.5 -42q-90 0 -140.5 53t-50.5 141q0 130 78.5 225.5t198.5 95.5q70 0 112.5 -42t40.5 -119h-36q-5 112 -116 112
z" />
    <glyph glyph-name="Cdotaccent.small" horiz-adv-x="509" 
d="M388 667l-13 -76h-85l13 76h85zM312 456q-76 0 -131 -76.5t-55 -208.5q0 -66 29.5 -99t82.5 -33t94 28.5t62 83.5h36q-25 -77 -80.5 -119t-124.5 -42q-90 0 -140.5 53t-50.5 141q0 130 78.5 225.5t198.5 95.5q70 0 112.5 -42t40.5 -119h-36q-5 112 -116 112z" />
    <glyph glyph-name="Ccedilla.small" horiz-adv-x="509" 
d="M195 -199q-30 0 -46 15.5t-16 42.5h31q0 -12 8 -19t20 -7q18 0 30 13.5t12 38.5q0 33 -25 33q-21 0 -34 -19h-36l49 94q-73 10 -113.5 61.5t-40.5 129.5q0 130 78.5 225.5t198.5 95.5q70 0 112.5 -42t40.5 -119h-36q-5 112 -116 112q-76 0 -131 -76.5t-55 -208.5
q0 -66 29.5 -99t82.5 -33t94 28.5t62 83.5h36q-25 -77 -80.5 -119t-124.5 -42h-4l-29 -53q16 11 39 11q52 0 52 -58q0 -37 -24 -63t-64 -26z" />
    <glyph glyph-name="Dcaron.small" horiz-adv-x="576" 
d="M331 635l96 63h26l-130 -150h-15l-77 150h25zM312 450h-97l-71 -405h90q88 0 135.5 78t47.5 202q0 125 -105 125zM45 0l87 495h188q92 0 142 -55t50 -140q0 -40 -9.5 -81t-31.5 -80.5t-53.5 -70t-78.5 -49.5t-104 -19h-190z" />
    <glyph glyph-name="Dcroat.small" horiz-adv-x="576" 
d="M267 222h-92l-31 -177h90q88 0 135.5 78t47.5 202q0 125 -105 125h-97l-32 -183h92zM45 0l39 222h-68l8 45h68l40 228h188q92 0 142 -55t50 -140q0 -40 -9.5 -81t-31.5 -80.5t-53.5 -70t-78.5 -49.5t-104 -19h-190z" />
    <glyph glyph-name="Egrave.small" horiz-adv-x="463" 
d="M262 697l36 -150h-23l-115 150h102zM45 0l87 495h283l-8 -45h-192l-32 -180h178l-8 -45h-177l-32 -180h206l-8 -45h-297z" />
    <glyph glyph-name="Eacute.small" horiz-adv-x="463" 
d="M329 698h109l-168 -150h-29zM45 0l87 495h283l-8 -45h-192l-32 -180h178l-8 -45h-177l-32 -180h206l-8 -45h-297z" />
    <glyph glyph-name="Ecircumflex.small" horiz-adv-x="463" 
d="M297 613l-98 -65h-26l130 150h15l78 -150h-26zM45 0l87 495h283l-8 -45h-192l-32 -180h178l-8 -45h-177l-32 -180h206l-8 -45h-297z" />
    <glyph glyph-name="Ecaron.small" horiz-adv-x="463" 
d="M300 635l96 63h26l-130 -150h-15l-77 150h25zM45 0l87 495h283l-8 -45h-192l-32 -180h178l-8 -45h-177l-32 -180h206l-8 -45h-297z" />
    <glyph glyph-name="Edieresis.small" horiz-adv-x="463" 
d="M274 667l-13 -76h-75l13 76h75zM405 667l-13 -76h-75l13 76h75zM45 0l87 495h283l-8 -45h-192l-32 -180h178l-8 -45h-177l-32 -180h206l-8 -45h-297z" />
    <glyph glyph-name="Emacron.small" horiz-adv-x="463" 
d="M189 655h238l-9 -51h-238zM45 0l87 495h283l-8 -45h-192l-32 -180h178l-8 -45h-177l-32 -180h206l-8 -45h-297z" />
    <glyph glyph-name="Ebreve.small" horiz-adv-x="463" 
d="M304 626q83 0 97 72h33q-10 -62 -46 -100.5t-89 -38.5q-58 0 -84 40.5t-16 98.5h33q-7 -41 12 -56.5t60 -15.5zM45 0l87 495h283l-8 -45h-192l-32 -180h178l-8 -45h-177l-32 -180h206l-8 -45h-297z" />
    <glyph glyph-name="Edotaccent.small" horiz-adv-x="463" 
d="M350 667l-13 -76h-85l13 76h85zM45 0l87 495h283l-8 -45h-192l-32 -180h178l-8 -45h-177l-32 -180h206l-8 -45h-297z" />
    <glyph glyph-name="Eogonek.small" horiz-adv-x="463" 
d="M323 -111q-7 -43 -34 -65.5t-65 -22.5q-65 0 -65 48q0 11 4.5 24t10 22.5t18.5 25.5t20.5 24t26 28t25.5 27h-219l87 495h283l-8 -45h-192l-32 -180h178l-8 -45h-177l-32 -180h206l-8 -45h-43q-54 -62 -69.5 -88t-15.5 -53q0 -24 26 -24q16 0 31.5 14t22.5 40h29z" />
    <glyph glyph-name="fi.small" horiz-adv-x="745" 
d="M591 495h91l-87 -495h-91zM354 217h-180l-38 -217h-91l87 495h283l-8 -45h-192l-33 -187h180z" />
    <glyph glyph-name="fl.small" horiz-adv-x="889" 
d="M682 495l-79 -450h208l-8 -45h-299l87 495h91zM354 217h-180l-38 -217h-91l87 495h283l-8 -45h-192l-33 -187h180z" />
    <glyph glyph-name="Gcircumflex.small" horiz-adv-x="534" 
d="M327 613l-98 -65h-26l130 150h15l78 -150h-26zM371 0q6 30 -12 44q-54 -54 -133 -54q-90 0 -140.5 53t-50.5 141q0 130 77.5 225.5t195.5 95.5q73 0 115 -42t40 -119h-36q-5 112 -117 112q-76 0 -129.5 -76.5t-53.5 -208.5q0 -66 29.5 -99t82.5 -33q58 0 99 40l17 96h-78
l8 45h169l-39 -220h-44z" />
    <glyph glyph-name="Gbreve.small" horiz-adv-x="534" 
d="M334 626q83 0 97 72h33q-10 -62 -46 -100.5t-89 -38.5q-58 0 -84 40.5t-16 98.5h33q-7 -41 12 -56.5t60 -15.5zM371 0q6 30 -12 44q-54 -54 -133 -54q-90 0 -140.5 53t-50.5 141q0 130 77.5 225.5t195.5 95.5q73 0 115 -42t40 -119h-36q-5 112 -117 112
q-76 0 -129.5 -76.5t-53.5 -208.5q0 -66 29.5 -99t82.5 -33q58 0 99 40l17 96h-78l8 45h169l-39 -220h-44z" />
    <glyph glyph-name="Gdotaccent.small" horiz-adv-x="534" 
d="M380 667l-13 -76h-85l13 76h85zM371 0q6 30 -12 44q-54 -54 -133 -54q-90 0 -140.5 53t-50.5 141q0 130 77.5 225.5t195.5 95.5q73 0 115 -42t40 -119h-36q-5 112 -117 112q-76 0 -129.5 -76.5t-53.5 -208.5q0 -66 29.5 -99t82.5 -33q58 0 99 40l17 96h-78l8 45h169
l-39 -220h-44z" />
    <glyph glyph-name="Gcommaaccent.small" horiz-adv-x="534" 
d="M371 0q6 30 -12 44q-54 -54 -133 -54q-90 0 -140.5 53t-50.5 141q0 130 77.5 225.5t195.5 95.5q73 0 115 -42t40 -119h-36q-5 112 -117 112q-76 0 -129.5 -76.5t-53.5 -208.5q0 -66 29.5 -99t82.5 -33q58 0 99 40l17 96h-78l8 45h169l-39 -220h-44zM235 -135q0 25 -53 25
l8 50q88 0 88 -62q0 -73 -126 -73l4 26q79 0 79 34z" />
    <glyph glyph-name="Hcircumflex.small" horiz-adv-x="616" 
d="M357 613l-98 -65h-26l130 150h15l78 -150h-26zM364 0l40 225h-228l-40 -225h-91l87 495h91l-40 -225h230l40 225h90l-87 -495h-92z" />
    <glyph glyph-name="Hbar.small" horiz-adv-x="616" 
d="M183 270h230l15 83h-230zM176 225l-40 -225h-91l62 353h-69l7 37h69l18 105h91l-19 -105h230l19 105h90l-18 -105h59l-7 -37h-59l-62 -353h-92l40 225h-228z" />
    <glyph glyph-name="Igrave.small" horiz-adv-x="297" 
d="M166 697l36 -150h-23l-115 150h102zM132 495h91l-87 -495h-91z" />
    <glyph glyph-name="Iacute.small" horiz-adv-x="297" 
d="M263 698h109l-168 -150h-29zM132 495h91l-87 -495h-91z" />
    <glyph glyph-name="Icircumflex.small" horiz-adv-x="297" 
d="M201 613l-98 -65h-26l130 150h15l78 -150h-26zM132 495h91l-87 -495h-91z" />
    <glyph glyph-name="Itilde.small" horiz-adv-x="297" 
d="M246 559q-23 0 -38.5 12.5t-22 27t-15.5 27t-21 12.5q-31 0 -41 -79h-34q8 72 29 105.5t57 33.5q22 0 37 -12.5t21.5 -27t17 -27t23.5 -12.5q33 0 41 79h34q-5 -67 -29 -103t-59 -36zM132 495h91l-87 -495h-91z" />
    <glyph glyph-name="Idieresis.small" horiz-adv-x="297" 
d="M178 667l-13 -76h-75l13 76h75zM309 667l-13 -76h-75l13 76h75zM132 495h91l-87 -495h-91z" />
    <glyph glyph-name="Imacron.small" horiz-adv-x="297" 
d="M93 655h238l-9 -51h-238zM132 495h91l-87 -495h-91z" />
    <glyph glyph-name="Ibreve.small" horiz-adv-x="297" 
d="M208 626q83 0 97 72h33q-10 -62 -46 -100.5t-89 -38.5q-58 0 -84 40.5t-16 98.5h33q-7 -41 12 -56.5t60 -15.5zM132 495h91l-87 -495h-91z" />
    <glyph glyph-name="Idotaccent.small" horiz-adv-x="297" 
d="M254 667l-13 -76h-85l13 76h85zM132 495h91l-87 -495h-91z" />
    <glyph glyph-name="Iogonek.small" horiz-adv-x="297" 
d="M74 0h-29l87 495h91l-87 -495h-27q-55 -64 -70.5 -89t-15.5 -52q0 -24 26 -24q16 0 31.5 14t22.5 40h29q-7 -43 -34 -65.5t-65 -22.5q-65 0 -65 48q0 11 4.5 24t10.5 23t18.5 25t20.5 24t26 27.5t26 27.5z" />
    <glyph glyph-name="IJ.small" horiz-adv-x="689" 
d="M132 495h91l-87 -495h-91zM400 39q41 0 64 24.5t34 88.5l60 343h90l-58 -332q-31 -173 -182 -173q-130 0 -118 158h36q-4 -109 74 -109z" />
    <glyph glyph-name="Jcircumflex.small" horiz-adv-x="428" 
d="M339 613l-98 -65h-26l130 150h15l78 -150h-26zM115 39q41 0 64 24.5t34 88.5l60 343h90l-58 -332q-31 -173 -182 -173q-130 0 -118 158h36q-4 -109 74 -109z" />
    <glyph glyph-name="Kcommaaccent.small" horiz-adv-x="532" 
d="M431 0h-109l-139 248l258 247h71l-242 -228zM223 495l-87 -495h-91l87 495h91zM232 -135q0 25 -53 25l8 50q88 0 88 -62q0 -73 -126 -73l4 26q79 0 79 34z" />
    <glyph glyph-name="Lacute.small" horiz-adv-x="430" 
d="M263 698h109l-168 -150h-29zM223 495l-79 -450h208l-8 -45h-299l87 495h91z" />
    <glyph glyph-name="Lcaron.small" horiz-adv-x="430" 
d="M312 495h106l-126 -150h-25zM223 495l-79 -450h208l-8 -45h-299l87 495h91z" />
    <glyph glyph-name="Lcommaaccent.small" horiz-adv-x="430" 
d="M223 495l-79 -450h208l-8 -45h-299l87 495h91zM202 -135q0 25 -53 25l8 50q88 0 88 -62q0 -73 -126 -73l4 26q79 0 79 34z" />
    <glyph glyph-name="Lslash.small" horiz-adv-x="430" 
d="M344 0h-299l31 179l-63 -40l6 47l66 41l47 268h91l-37 -211l102 63l-7 -46l-103 -64l-34 -192h208z" />
    <glyph glyph-name="Ldot.small" horiz-adv-x="430" 
d="M223 495l-79 -450h208l-8 -45h-299l87 495h91zM402 295l-13 -76h-85l13 76h85z" />
    <glyph glyph-name="Nacute.small" horiz-adv-x="586" 
d="M410 698h109l-168 -150h-29zM425 -4h-41l-217 406l-71 -402h-51l87 495h87l184 -345l60 345h50z" />
    <glyph glyph-name="Ncaron.small" horiz-adv-x="586" 
d="M351 635l96 63h26l-130 -150h-15l-77 150h25zM425 -4h-41l-217 406l-71 -402h-51l87 495h87l184 -345l60 345h50z" />
    <glyph glyph-name="Ntilde.small" horiz-adv-x="586" 
d="M393 559q-23 0 -38.5 12.5t-22 27t-15.5 27t-21 12.5q-31 0 -41 -79h-34q8 72 29 105.5t57 33.5q22 0 37 -12.5t21.5 -27t17 -27t23.5 -12.5q33 0 41 79h34q-5 -67 -29 -103t-59 -36zM425 -4h-41l-217 406l-71 -402h-51l87 495h87l184 -345l60 345h50z" />
    <glyph glyph-name="Ncommaaccent.small" horiz-adv-x="586" 
d="M425 -4h-41l-217 406l-71 -402h-51l87 495h87l184 -345l60 345h50zM242 -135q0 25 -53 25l8 50q88 0 88 -62q0 -73 -126 -73l4 26q79 0 79 34z" />
    <glyph glyph-name="Ograve.small" horiz-adv-x="566" 
d="M299 697l36 -150h-23l-115 150h102zM314 505q86 0 137 -57t51 -142q0 -122 -77 -219t-202 -97q-86 0 -137 57t-51 142q0 122 77 219t202 97zM232 39q77 0 127.5 83t50.5 200q0 134 -105 134q-77 0 -127.5 -83t-50.5 -200q0 -134 105 -134z" />
    <glyph glyph-name="Oacute.small" horiz-adv-x="566" 
d="M396 698h109l-168 -150h-29zM314 505q86 0 137 -57t51 -142q0 -122 -77 -219t-202 -97q-86 0 -137 57t-51 142q0 122 77 219t202 97zM232 39q77 0 127.5 83t50.5 200q0 134 -105 134q-77 0 -127.5 -83t-50.5 -200q0 -134 105 -134z" />
    <glyph glyph-name="Ocircumflex.small" horiz-adv-x="566" 
d="M334 613l-98 -65h-26l130 150h15l78 -150h-26zM314 505q86 0 137 -57t51 -142q0 -122 -77 -219t-202 -97q-86 0 -137 57t-51 142q0 122 77 219t202 97zM232 39q77 0 127.5 83t50.5 200q0 134 -105 134q-77 0 -127.5 -83t-50.5 -200q0 -134 105 -134z" />
    <glyph glyph-name="Otilde.small" horiz-adv-x="566" 
d="M379 559q-23 0 -38.5 12.5t-22 27t-15.5 27t-21 12.5q-31 0 -41 -79h-34q8 72 29 105.5t57 33.5q22 0 37 -12.5t21.5 -27t17 -27t23.5 -12.5q33 0 41 79h34q-5 -67 -29 -103t-59 -36zM314 505q86 0 137 -57t51 -142q0 -122 -77 -219t-202 -97q-86 0 -137 57t-51 142
q0 122 77 219t202 97zM232 39q77 0 127.5 83t50.5 200q0 134 -105 134q-77 0 -127.5 -83t-50.5 -200q0 -134 105 -134z" />
    <glyph glyph-name="Odieresis.small" horiz-adv-x="566" 
d="M311 667l-13 -76h-75l13 76h75zM442 667l-13 -76h-75l13 76h75zM314 505q86 0 137 -57t51 -142q0 -122 -77 -219t-202 -97q-86 0 -137 57t-51 142q0 122 77 219t202 97zM232 39q77 0 127.5 83t50.5 200q0 134 -105 134q-77 0 -127.5 -83t-50.5 -200q0 -134 105 -134z" />
    <glyph glyph-name="Omacron.small" horiz-adv-x="566" 
d="M226 655h238l-9 -51h-238zM314 505q86 0 137 -57t51 -142q0 -122 -77 -219t-202 -97q-86 0 -137 57t-51 142q0 122 77 219t202 97zM232 39q77 0 127.5 83t50.5 200q0 134 -105 134q-77 0 -127.5 -83t-50.5 -200q0 -134 105 -134z" />
    <glyph glyph-name="Obreve.small" horiz-adv-x="566" 
d="M341 626q83 0 97 72h33q-10 -62 -46 -100.5t-89 -38.5q-58 0 -84 40.5t-16 98.5h33q-7 -41 12 -56.5t60 -15.5zM314 505q86 0 137 -57t51 -142q0 -122 -77 -219t-202 -97q-86 0 -137 57t-51 142q0 122 77 219t202 97zM232 39q77 0 127.5 83t50.5 200q0 134 -105 134
q-77 0 -127.5 -83t-50.5 -200q0 -134 105 -134z" />
    <glyph glyph-name="Ohungarumlaut.small" horiz-adv-x="566" 
d="M438 698h102l-140 -150h-22zM305 698h102l-140 -150h-22zM314 505q86 0 137 -57t51 -142q0 -122 -77 -219t-202 -97q-86 0 -137 57t-51 142q0 122 77 219t202 97zM232 39q77 0 127.5 83t50.5 200q0 134 -105 134q-77 0 -127.5 -83t-50.5 -200q0 -134 105 -134z" />
    <glyph glyph-name="Oslash.small" horiz-adv-x="566" 
d="M223 -10q-90 0 -142 63l-53 -53h-51l83 84q-25 47 -25 105q0 122 77 219t202 97q73 0 122 -43l33 33h51l-59 -59q41 -53 41 -130q0 -122 -77 -219t-202 -97zM127 173q0 -15 1 -21l262 263q-26 41 -85 41q-77 0 -127.5 -83t-50.5 -200zM232 39q77 0 127.5 83t50.5 200
q0 33 -6 57l-269 -271q21 -69 97 -69z" />
    <glyph glyph-name="Oslashacute.small" horiz-adv-x="566" 
d="M396 698h109l-168 -150h-29zM223 -10q-90 0 -142 63l-53 -53h-51l83 84q-25 47 -25 105q0 122 77 219t202 97q73 0 122 -43l33 33h51l-59 -59q41 -53 41 -130q0 -122 -77 -219t-202 -97zM127 173q0 -15 1 -21l262 263q-26 41 -85 41q-77 0 -127.5 -83t-50.5 -200zM232 39
q77 0 127.5 83t50.5 200q0 33 -6 57l-269 -271q21 -69 97 -69z" />
    <glyph glyph-name="OE.small" horiz-adv-x="742" 
d="M227 0q-92 0 -142 55t-50 140q0 40 9.5 81t31.5 80.5t53.5 70t78.5 49.5t104 19h382l-8 -45h-190l-33 -180h177l-8 -45h-177l-32 -180h206l-8 -45h-394zM235 45h97l73 405h-92q-88 0 -135.5 -78t-47.5 -202q0 -125 105 -125z" />
    <glyph glyph-name="Racute.small" horiz-adv-x="532" 
d="M356 698h109l-168 -150h-29zM279 450h-64l-32 -184h71q42 0 69 28.5t27 82.5q0 40 -18 56.5t-53 16.5zM325 0l-118 221h-32l-39 -221h-91l87 495h155q76 0 118 -30t42 -86q0 -53 -38 -96t-111 -57l134 -226h-107z" />
    <glyph glyph-name="Rcaron.small" horiz-adv-x="532" 
d="M297 635l96 63h26l-130 -150h-15l-77 150h25zM279 450h-64l-32 -184h71q42 0 69 28.5t27 82.5q0 40 -18 56.5t-53 16.5zM325 0l-118 221h-32l-39 -221h-91l87 495h155q76 0 118 -30t42 -86q0 -53 -38 -96t-111 -57l134 -226h-107z" />
    <glyph glyph-name="Rcommaaccent.small" horiz-adv-x="532" 
d="M279 450h-64l-32 -184h71q42 0 69 28.5t27 82.5q0 40 -18 56.5t-53 16.5zM325 0l-118 221h-32l-39 -221h-91l87 495h155q76 0 118 -30t42 -86q0 -53 -38 -96t-111 -57l134 -226h-107zM233 -135q0 25 -53 25l8 50q88 0 88 -62q0 -73 -126 -73l4 26q79 0 79 34z" />
    <glyph glyph-name="germandbls.small" horiz-adv-x="861" 
d="M679 462q-40 0 -63.5 -21t-23.5 -57q0 -26 18.5 -46t45 -36t52.5 -34.5t44.5 -49t18.5 -71.5q0 -66 -49.5 -111.5t-125.5 -45.5q-65 0 -105 34t-34 106h36q1 -54 27 -75.5t77 -21.5q42 0 66 23t24 62q0 25 -12.5 45t-32 32t-41.5 27.5t-41.5 30.5t-32 42.5t-12.5 62.5
q0 69 45.5 108t111.5 39q60 0 94 -32t36 -96h-36q-10 85 -87 85zM248 462q-40 0 -63.5 -21t-23.5 -57q0 -26 18.5 -46t44.5 -36t52.5 -34.5t45 -49t18.5 -71.5q0 -66 -49.5 -111.5t-125.5 -45.5q-65 0 -105 34t-34 106h36q1 -54 27 -75.5t77 -21.5q42 0 66 23t24 62
q0 25 -12.5 45t-32 32t-41.5 27.5t-41.5 30.5t-32 42.5t-12.5 62.5q0 69 45.5 108t111.5 39q60 0 94 -32t36 -96h-36q-10 85 -87 85z" />
    <glyph glyph-name="Sacute.small" horiz-adv-x="431" 
d="M324 698h109l-168 -150h-29zM248 462q-40 0 -63.5 -21t-23.5 -57q0 -26 18.5 -46t44.5 -36t52.5 -34.5t45 -49t18.5 -71.5q0 -66 -49.5 -111.5t-125.5 -45.5q-65 0 -105 34t-34 106h36q1 -54 27 -75.5t77 -21.5q42 0 66 23t24 62q0 25 -12.5 45t-32 32t-41.5 27.5
t-41.5 30.5t-32 42.5t-12.5 62.5q0 69 45.5 108t111.5 39q60 0 94 -32t36 -96h-36q-10 85 -87 85z" />
    <glyph glyph-name="Scircumflex.small" horiz-adv-x="431" 
d="M262 613l-98 -65h-26l130 150h15l78 -150h-26zM248 462q-40 0 -63.5 -21t-23.5 -57q0 -26 18.5 -46t44.5 -36t52.5 -34.5t45 -49t18.5 -71.5q0 -66 -49.5 -111.5t-125.5 -45.5q-65 0 -105 34t-34 106h36q1 -54 27 -75.5t77 -21.5q42 0 66 23t24 62q0 25 -12.5 45t-32 32
t-41.5 27.5t-41.5 30.5t-32 42.5t-12.5 62.5q0 69 45.5 108t111.5 39q60 0 94 -32t36 -96h-36q-10 85 -87 85z" />
    <glyph glyph-name="Scaron.small" horiz-adv-x="431" 
d="M265 635l96 63h26l-130 -150h-15l-77 150h25zM248 462q-40 0 -63.5 -21t-23.5 -57q0 -26 18.5 -46t44.5 -36t52.5 -34.5t45 -49t18.5 -71.5q0 -66 -49.5 -111.5t-125.5 -45.5q-65 0 -105 34t-34 106h36q1 -54 27 -75.5t77 -21.5q42 0 66 23t24 62q0 25 -12.5 45t-32 32
t-41.5 27.5t-41.5 30.5t-32 42.5t-12.5 62.5q0 69 45.5 108t111.5 39q60 0 94 -32t36 -96h-36q-10 85 -87 85z" />
    <glyph glyph-name="Scedilla.small" horiz-adv-x="431" 
d="M161 -199q-30 0 -46 15.5t-16 42.5h31q0 -12 8 -19t20 -7q18 0 30 13.5t12 38.5q0 33 -25 33q-21 0 -34 -19h-36l48 91q-61 3 -97 37.5t-30 102.5h36q1 -54 27 -75.5t77 -21.5q42 0 66 23t24 62q0 25 -12.5 45t-32 32t-41.5 27.5t-41.5 30.5t-32 42.5t-12.5 62.5
q0 69 45.5 108t111.5 39q60 0 94 -32t36 -96h-36q-10 85 -87 85q-40 0 -63.5 -21t-23.5 -57q0 -26 18.5 -46t44.5 -36t52.5 -34.5t45 -49t18.5 -71.5q0 -61 -43 -105t-110 -51l-29 -54q16 11 39 11q52 0 52 -58q0 -37 -24 -63t-64 -26z" />
    <glyph glyph-name="Scommaaccent.small" horiz-adv-x="431" 
d="M248 462q-40 0 -63.5 -21t-23.5 -57q0 -26 18.5 -46t44.5 -36t52.5 -34.5t45 -49t18.5 -71.5q0 -66 -49.5 -111.5t-125.5 -45.5q-65 0 -105 34t-34 106h36q1 -54 27 -75.5t77 -21.5q42 0 66 23t24 62q0 25 -12.5 45t-32 32t-41.5 27.5t-41.5 30.5t-32 42.5t-12.5 62.5
q0 69 45.5 108t111.5 39q60 0 94 -32t36 -96h-36q-10 85 -87 85zM179 -135q0 25 -53 25l8 50q88 0 88 -62q0 -73 -126 -73l4 26q79 0 79 34z" />
    <glyph glyph-name="Tcaron.small" horiz-adv-x="478" 
d="M295 635l96 63h26l-130 -150h-15l-77 150h25zM471 450h-166l-79 -450h-90l79 450h-165l8 45h421z" />
    <glyph glyph-name="Tcommaaccent.small" horiz-adv-x="478" 
d="M471 450h-166l-79 -450h-90l79 450h-165l8 45h421zM188 -135q0 25 -53 25l8 50q88 0 88 -62q0 -73 -126 -73l4 26q79 0 79 34z" />
    <glyph glyph-name="Tbar.small" horiz-adv-x="478" 
d="M364 205h-102l-36 -205h-90l36 205h-103l8 45h103l35 200h-165l8 45h421l-8 -45h-166l-35 -200h102z" />
    <glyph glyph-name="Ugrave.small" horiz-adv-x="569" 
d="M304 697l36 -150h-23l-115 150h102zM393 170l57 325h55l-56 -319q-16 -95 -73.5 -140.5t-141.5 -45.5q-171 0 -171 146q0 20 5 52l54 307h91l-54 -307q-5 -30 -5 -48q0 -96 98 -96q50 0 89.5 28.5t51.5 97.5z" />
    <glyph glyph-name="Uacute.small" horiz-adv-x="569" 
d="M401 698h109l-168 -150h-29zM393 170l57 325h55l-56 -319q-16 -95 -73.5 -140.5t-141.5 -45.5q-171 0 -171 146q0 20 5 52l54 307h91l-54 -307q-5 -30 -5 -48q0 -96 98 -96q50 0 89.5 28.5t51.5 97.5z" />
    <glyph glyph-name="Ucircumflex.small" horiz-adv-x="569" 
d="M339 613l-98 -65h-26l130 150h15l78 -150h-26zM393 170l57 325h55l-56 -319q-16 -95 -73.5 -140.5t-141.5 -45.5q-171 0 -171 146q0 20 5 52l54 307h91l-54 -307q-5 -30 -5 -48q0 -96 98 -96q50 0 89.5 28.5t51.5 97.5z" />
    <glyph glyph-name="Utilde.small" horiz-adv-x="569" 
d="M384 559q-23 0 -38.5 12.5t-22 27t-15.5 27t-21 12.5q-31 0 -41 -79h-34q8 72 29 105.5t57 33.5q22 0 37 -12.5t21.5 -27t17 -27t23.5 -12.5q33 0 41 79h34q-5 -67 -29 -103t-59 -36zM393 170l57 325h55l-56 -319q-16 -95 -73.5 -140.5t-141.5 -45.5q-171 0 -171 146
q0 20 5 52l54 307h91l-54 -307q-5 -30 -5 -48q0 -96 98 -96q50 0 89.5 28.5t51.5 97.5z" />
    <glyph glyph-name="Udieresis.small" horiz-adv-x="569" 
d="M316 667l-13 -76h-75l13 76h75zM447 667l-13 -76h-75l13 76h75zM393 170l57 325h55l-56 -319q-16 -95 -73.5 -140.5t-141.5 -45.5q-171 0 -171 146q0 20 5 52l54 307h91l-54 -307q-5 -30 -5 -48q0 -96 98 -96q50 0 89.5 28.5t51.5 97.5z" />
    <glyph glyph-name="Umacron.small" horiz-adv-x="569" 
d="M231 655h238l-9 -51h-238zM393 170l57 325h55l-56 -319q-16 -95 -73.5 -140.5t-141.5 -45.5q-171 0 -171 146q0 20 5 52l54 307h91l-54 -307q-5 -30 -5 -48q0 -96 98 -96q50 0 89.5 28.5t51.5 97.5z" />
    <glyph glyph-name="Ubreve.small" horiz-adv-x="569" 
d="M346 626q83 0 97 72h33q-10 -62 -46 -100.5t-89 -38.5q-58 0 -84 40.5t-16 98.5h33q-7 -41 12 -56.5t60 -15.5zM393 170l57 325h55l-56 -319q-16 -95 -73.5 -140.5t-141.5 -45.5q-171 0 -171 146q0 20 5 52l54 307h91l-54 -307q-5 -30 -5 -48q0 -96 98 -96
q50 0 89.5 28.5t51.5 97.5z" />
    <glyph glyph-name="Uring.small" horiz-adv-x="569" 
d="M332 548q-39 0 -59 18t-20 44q0 37 29 62.5t76 25.5q39 0 59 -18t20 -44q0 -37 -29 -62.5t-76 -25.5zM337 574q23 0 36.5 17t13.5 45q0 37 -31 37q-25 0 -39 -17t-14 -46q0 -36 34 -36zM393 170l57 325h55l-56 -319q-16 -95 -73.5 -140.5t-141.5 -45.5q-171 0 -171 146
q0 20 5 52l54 307h91l-54 -307q-5 -30 -5 -48q0 -96 98 -96q50 0 89.5 28.5t51.5 97.5z" />
    <glyph glyph-name="Uhungarumlaut.small" horiz-adv-x="569" 
d="M443 698h102l-140 -150h-22zM310 698h102l-140 -150h-22zM393 170l57 325h55l-56 -319q-16 -95 -73.5 -140.5t-141.5 -45.5q-171 0 -171 146q0 20 5 52l54 307h91l-54 -307q-5 -30 -5 -48q0 -96 98 -96q50 0 89.5 28.5t51.5 97.5z" />
    <glyph glyph-name="Uogonek.small" horiz-adv-x="569" 
d="M185 -199q-65 0 -65 48q0 41 86 129q3 4 5.5 6.5l5.5 5.5q-154 8 -154 146q0 20 5 52l54 307h91l-54 -307q-5 -30 -5 -48q0 -96 98 -96q50 0 89.5 28.5t51.5 97.5l57 325h55l-56 -319q-16 -90 -67.5 -135t-128.5 -50q-50 -58 -64 -82t-14 -50q0 -24 26 -24q16 0 31.5 14
t22.5 40h29q-7 -43 -34 -65.5t-65 -22.5z" />
    <glyph glyph-name="Wgrave.small" horiz-adv-x="696" 
d="M388 697l36 -150h-23l-115 150h102zM118 -4l-60 499h94l37 -354l198 354h42l54 -341l157 341h57l-237 -499h-41l-59 353l-200 -353h-42z" />
    <glyph glyph-name="Wacute.small" horiz-adv-x="696" 
d="M485 698h109l-168 -150h-29zM118 -4l-60 499h94l37 -354l198 354h42l54 -341l157 341h57l-237 -499h-41l-59 353l-200 -353h-42z" />
    <glyph glyph-name="Wcircumflex.small" horiz-adv-x="696" 
d="M423 613l-98 -65h-26l130 150h15l78 -150h-26zM118 -4l-60 499h94l37 -354l198 354h42l54 -341l157 341h57l-237 -499h-41l-59 353l-200 -353h-42z" />
    <glyph glyph-name="Wdieresis.small" horiz-adv-x="696" 
d="M400 667l-13 -76h-75l13 76h75zM531 667l-13 -76h-75l13 76h75zM118 -4l-60 499h94l37 -354l198 354h42l54 -341l157 341h57l-237 -499h-41l-59 353l-200 -353h-42z" />
    <glyph glyph-name="Ygrave.small" horiz-adv-x="481" 
d="M261 697l36 -150h-23l-115 150h102zM228 0h-90l39 221l-124 274h96l100 -219l173 219h65l-220 -274z" />
    <glyph glyph-name="Yacute.small" horiz-adv-x="481" 
d="M358 698h109l-168 -150h-29zM228 0h-90l39 221l-124 274h96l100 -219l173 219h65l-220 -274z" />
    <glyph glyph-name="Ycircumflex.small" horiz-adv-x="481" 
d="M296 613l-98 -65h-26l130 150h15l78 -150h-26zM228 0h-90l39 221l-124 274h96l100 -219l173 219h65l-220 -274z" />
    <glyph glyph-name="Ydieresis.small" horiz-adv-x="481" 
d="M273 667l-13 -76h-75l13 76h75zM404 667l-13 -76h-75l13 76h75zM228 0h-90l39 221l-124 274h96l100 -219l173 219h65l-220 -274z" />
    <glyph glyph-name="Zacute.small" horiz-adv-x="491" 
d="M349 698h109l-168 -150h-29zM-1 0l5 28l328 423h-241l12 44h343l-5 -29l-325 -420h268l-12 -46h-373z" />
    <glyph glyph-name="Zcaron.small" horiz-adv-x="491" 
d="M300 635l96 63h26l-130 -150h-15l-77 150h25zM-1 0l5 28l328 423h-241l12 44h343l-5 -29l-325 -420h268l-12 -46h-373z" />
    <glyph glyph-name="Zdotaccent.small" horiz-adv-x="491" 
d="M350 667l-13 -76h-85l13 76h85zM-1 0l5 28l328 423h-241l12 44h343l-5 -29l-325 -420h268l-12 -46h-373z" />
    <glyph glyph-name="Schwa.small" horiz-adv-x="556" 
d="M217 -8q-183 0 -183 185q0 39 8 80h354q3 30 3 63q0 75 -27.5 106.5t-81.5 31.5q-114 0 -169 -112h-47q67 159 224 159q93 0 143.5 -54t50.5 -151q0 -120 -79.5 -214t-195.5 -94zM223 39q60 0 104.5 43.5t61.5 129.5h-263q-5 -25 -5 -53q0 -120 102 -120z" />
    <glyph glyph-name="Eng.small" horiz-adv-x="586" 
d="M268 -250q-61 0 -90 34t-24 95h66q-3 -85 55 -85q66 0 85 113l16 94l-209 400l-71 -401h-51l87 495h87l182 -353l62 353h50l-103 -588q-28 -157 -142 -157z" />
    <glyph glyph-name="Eth.small" horiz-adv-x="576" 
d="M267 222h-92l-31 -177h90q88 0 135.5 78t47.5 202q0 125 -105 125h-97l-32 -183h92zM45 0l39 222h-68l8 45h68l40 228h188q92 0 142 -55t50 -140q0 -40 -9.5 -81t-31.5 -80.5t-53.5 -70t-78.5 -49.5t-104 -19h-190z" />
    <glyph glyph-name="Thorn.small" horiz-adv-x="490" 
d="M265 370h-64l-35 -193h65q46 0 75 30t29 85q0 78 -70 78zM223 131h-65l-24 -131h-89l87 495h91l-14 -80h64q75 0 117 -32.5t42 -90.5q0 -73 -54 -117t-155 -44z" />
    <glyph glyph-name="a.superior" horiz-adv-x="334" 
d="M169 346q28 0 46 13q0 6 2 18l29 167q-14 7 -38 7q-41 0 -65 -38.5t-24 -97.5q0 -33 14.5 -51t35.5 -18zM272 303q-37 0 -50 25q-31 -26 -71 -26q-46 0 -73 29.5t-27 83.5q0 73 41.5 125t109.5 52q42 0 70 -23q19 7 29 17h19l-36 -206q-2 -16 -2 -18q0 -16 11 -16
q16 0 20 32h23q-8 -75 -64 -75z" />
    <glyph glyph-name="b.superior" horiz-adv-x="355" 
d="M201 303q-64 0 -87 42l-6 -35h-66l86 478h64l-41 -235q35 39 90 39q52 0 82 -32t30 -85q0 -69 -46 -120.5t-106 -51.5zM228 556q-43 0 -71 -46.5t-28 -95.5q0 -36 18.5 -56t48.5 -20q38 0 64 41.5t26 103.5q0 73 -58 73z" />
    <glyph glyph-name="c.superior" horiz-adv-x="284" 
d="M209 552q-48 0 -72.5 -39.5t-24.5 -97.5q0 -36 19 -52.5t49 -16.5q54 0 77 55h24q-10 -42 -40 -70t-79 -28q-55 0 -87 29.5t-32 82.5q0 72 41.5 125t119.5 53q49 0 75.5 -31t21.5 -73h-24q0 63 -68 63z" />
    <glyph glyph-name="d.superior" horiz-adv-x="355" 
d="M169 339q42 0 65 33t29 78q15 107 -62 107q-38 0 -64 -41.5t-26 -103.5q0 -73 58 -73zM240 310l6 32q-36 -39 -90 -39q-52 0 -82 32t-30 85q0 69 46 120.5t106 51.5q65 0 87 -41l43 237h64l-84 -478h-66z" />
    <glyph glyph-name="e.superior" horiz-adv-x="290" 
d="M164 303q-54 0 -86.5 31.5t-32.5 85.5q0 79 46.5 126t118.5 47q43 0 68.5 -18.5t25.5 -48.5q0 -24 -10.5 -40t-54 -34t-125.5 -31v-6q0 -36 19 -52.5t49 -16.5q54 0 77 55h24q-10 -42 -40 -70t-79 -28zM202 557q-31 0 -54.5 -26t-30.5 -75q70 15 95 31.5t25 40.5
q0 29 -35 29z" />
    <glyph glyph-name="f.superior" horiz-adv-x="191" 
d="M0 147q-13 0 -23 2l4 29q6 -2 11 -2q42 0 53 61l60 317h-52l5 32h53l9 49q29 159 125 159q34 0 51.5 -23t13.5 -58h-25q1 53 -41 53q-37 0 -58 -34t-21 -73q0 -51 7 -73h79l-7 -32h-78l-54 -305q-8 -48 -37.5 -75t-74.5 -27z" />
    <glyph glyph-name="g.superior" horiz-adv-x="355" 
d="M169 339q34 0 58.5 27.5t35.5 74.5l4 24q6 47 -14 69.5t-52 22.5q-38 0 -64 -41.5t-26 -103.5q0 -73 58 -73zM140 147q-56 0 -84 29t-25 72h24q3 -64 80 -64q42 0 67.5 28.5t37.5 95.5l6 34q-36 -39 -90 -39q-52 0 -82 32t-30 85q0 69 46 120.5t106 51.5q62 0 84 -48
l3 15q35 5 50 27h22l-49 -278q-14 -80 -58 -120.5t-108 -40.5z" />
    <glyph glyph-name="h.superior" horiz-adv-x="363" 
d="M127 788h66l-45 -252q35 57 99 57q42 0 65 -21.5t23 -58.5q0 -6 -2 -20l-20 -117q-2 -14 -2 -16q0 -14 11 -14q16 0 20 32h23q-8 -75 -64 -75t-56 54q0 6 2 20l17 97q3 16 3 28q0 48 -47 48q-32 0 -55 -27t-28 -54l-27 -159h-66z" />
    <glyph glyph-name="i.superior" horiz-adv-x="172" 
d="M191 735l-9 -59h-66l10 59h65zM165 586l-48 -276h-66l49 276h65z" />
    <glyph glyph-name="j.superior" horiz-adv-x="158" 
d="M179 735l-9 -59h-66l10 59h65zM42 328l46 258h64l-45 -260q-3 -13 -6 -40t-5 -37q-8 -48 -38 -75t-75 -27q-14 0 -24 2l5 30q10 -2 11 -2q23 0 34.5 14t18.5 46q2 10 6.5 42t7.5 49z" />
    <glyph glyph-name="k.superior" horiz-adv-x="327" 
d="M192 788l-84 -478h-66l86 478h64zM313 310h-78l-99 144l70 71q38 38 62 53t54 15l-14 -69q-64 0 -84 -20l-27 -26z" />
    <glyph glyph-name="l.superior" horiz-adv-x="157" 
d="M192 788l-84 -478h-66l86 478h64z" />
    <glyph glyph-name="m.superior" horiz-adv-x="542" 
d="M480 303q-56 0 -56 54q0 6 2 20l17 97q3 16 3 28q0 48 -45 48q-32 0 -53.5 -26.5t-26.5 -54.5v1l-28 -160h-66l29 164q3 16 3 28q0 48 -45 48q-32 0 -52.5 -26.5t-25.5 -54.5l-27 -159h-66l48 276h66l-10 -50q35 57 96 57q32 0 54 -16.5t28 -44.5q44 61 105 61
q38 0 61 -22t23 -59q0 -5 -2 -19l-20 -117q-2 -14 -2 -16q0 -14 11 -14q16 0 20 32h23q-8 -75 -64 -75z" />
    <glyph glyph-name="o.superior" horiz-adv-x="328" 
d="M210 592q56 0 86.5 -29.5t30.5 -80.5q0 -69 -47.5 -124t-119.5 -55q-55 0 -86 30t-31 81q0 69 47 123.5t120 54.5zM205 556q-43 0 -68 -45t-25 -112q0 -59 53 -59q43 0 68 45t25 112q0 59 -53 59z" />
    <glyph glyph-name="p.superior" horiz-adv-x="356" 
d="M130 414q0 -36 18.5 -56t48.5 -20q38 0 64 41.5t26 103.5q0 73 -58 73q-43 0 -71 -46.5t-28 -95.5zM202 303q-66 0 -88 43l-33 -192h-66l76 432h65l-6 -36q35 42 92 42q52 0 82 -32t30 -85q0 -69 -46 -120.5t-106 -51.5z" />
    <glyph glyph-name="q.superior" horiz-adv-x="358" 
d="M282 154h-66l32 187q-35 -38 -89 -38q-52 0 -82 32t-30 85q0 69 46 120.5t106 51.5q64 0 84 -50l3 17q35 5 50 27h22zM270 481q0 36 -18.5 56t-48.5 20q-38 0 -64 -41.5t-26 -103.5q0 -73 58 -73q43 0 71 46.5t28 95.5z" />
    <glyph glyph-name="r.superior" horiz-adv-x="234" 
d="M42 310l49 276h65l-9 -52q11 22 36.5 40.5t58.5 18.5q7 0 19 -2l-11 -62q-16 3 -41 3q-29 0 -48.5 -13.5t-22.5 -32.5l-30 -176h-66z" />
    <glyph glyph-name="s.superior" horiz-adv-x="259" 
d="M126 336q54 0 54 40q0 21 -18 34t-39 19t-39 25t-18 51q0 38 30 62.5t76 24.5q50 0 72 -25.5t17 -67.5h-25q0 61 -64 61q-47 0 -47 -41q0 -18 18.5 -30.5t40 -19t40 -26.5t18.5 -51q0 -40 -28.5 -64.5t-80.5 -24.5q-50 0 -76.5 23t-20.5 65h24q0 -55 66 -55z" />
    <glyph glyph-name="t.superior" horiz-adv-x="237" 
d="M228 386q-10 -44 -31 -63.5t-56 -19.5q-72 0 -72 71q0 14 3 31l26 149h-47l5 32h47q43 32 71 110h16l-20 -110h81l-5 -32h-81l-29 -161q-2 -16 -2 -20q0 -33 27 -33q28 0 43 46h24z" />
    <glyph glyph-name="u.superior" horiz-adv-x="355" 
d="M293 303q-57 0 -57 54v1q-36 -55 -97 -55q-41 0 -63 20.5t-22 56.5q0 7 2 23l32 183h67l-29 -160q-4 -19 -4 -32q0 -48 44 -48q32 0 54 26.5t27 54.5l28 159h66l-35 -197q-3 -16 -3 -27q0 -16 11 -16q16 0 20 32h23q-8 -75 -64 -75z" />
    <glyph glyph-name="v.superior" horiz-adv-x="291" 
d="M134 306l-89 280h74l62 -211q17 26 29 46t19.5 39t12 28.5t6.5 27t2.5 21t0 24.5t-0.5 25h71q0 -27 -15 -61t-30.5 -59t-53 -78.5t-56.5 -81.5h-32z" />
    <glyph glyph-name="w.superior" horiz-adv-x="439" 
d="M97 306l-52 280h68l33 -191l103 193h32l59 -211q12 20 21.5 38t15.5 30.5t10 27.5t6.5 22t3.5 22t1 20.5v23.5v25h71q0 -27 -13 -60.5t-27 -57.5t-49 -78t-53 -84h-32l-61 195l-105 -195h-32z" />
    <glyph glyph-name="x.superior" horiz-adv-x="287" 
d="M204 310l-54 110l-102 -110h-38l124 133l-77 143h73l51 -102l89 102h38l-112 -125l82 -151h-74z" />
    <glyph glyph-name="y.superior" horiz-adv-x="292" 
d="M0 147l12 71q50 0 73 14t66 77l-105 277h73l76 -209q29 47 40.5 78t13 51t1.5 80h71q0 -24 -5 -46t-20 -51t-22.5 -42.5t-33.5 -53.5t-32 -50q-70 -113 -113 -154.5t-95 -41.5z" />
    <glyph glyph-name="z.superior" horiz-adv-x="273" 
d="M26 310l5 28l172 216h-126l7 32h208l-5 -29l-173 -215h147l-8 -32h-227z" />
    <glyph glyph-name="grave.cap" horiz-adv-x="499" 
d="M348 830l60 -120h-23l-139 120h102z" />
    <glyph glyph-name="acute.cap" horiz-adv-x="501" 
d="M325 830h108l-182 -120h-28z" />
    <glyph glyph-name="circumflex.cap" horiz-adv-x="500" 
d="M324 753l-93 -43h-25l124 120h15l83 -120h-26z" />
    <glyph glyph-name="caron.cap" horiz-adv-x="500" 
d="M330 787l93 43h26l-125 -120h-15l-82 120h25z" />
    <glyph glyph-name="caronSlovak" horiz-adv-x="500" 
d="M278 735h106l-126 -150h-25z" />
    <glyph glyph-name="tilde.cap" horiz-adv-x="500" 
d="M374 710q-22 0 -38 10.5t-23.5 23t-18 23t-22.5 10.5q-18 0 -25.5 -15t-14.5 -52h-33q6 60 24.5 90t55.5 30q26 0 44 -17t31.5 -33.5t28.5 -16.5q18 0 25 15t13 52h34q-4 -60 -23 -90t-58 -30z" />
    <glyph glyph-name="dieresis.cap" horiz-adv-x="500" 
d="M438 813l-13 -76h-75l13 76h75zM307 813l-13 -76h-75l13 76h75z" />
    <glyph glyph-name="macron.cap" horiz-adv-x="500" 
d="M214 800h238l-9 -51h-238z" />
    <glyph glyph-name="breve.cap" horiz-adv-x="499" 
d="M327 769q84 0 94 61h34q-9 -50 -44.5 -85t-87.5 -35q-59 0 -85.5 34.5t-17.5 85.5h33q-6 -35 13 -48t61 -13z" />
    <glyph glyph-name="ring.cap" horiz-adv-x="501" 
d="M316 710q-39 0 -59 14.5t-20 35.5q0 29 29 49.5t76 20.5q38 0 58 -14.5t20 -34.5q0 -30 -29 -50.5t-75 -20.5zM321 731q22 0 35.5 13.5t13.5 36.5q0 29 -30 29q-25 0 -39 -13.5t-14 -36.5q0 -29 34 -29z" />
    <glyph glyph-name="hungarumlaut.cap" horiz-adv-x="501" 
d="M369 830h102l-130 -120h-23zM236 830h102l-130 -120h-23z" />
    <glyph glyph-name="dotaccent.cap" horiz-adv-x="499" 
d="M376 808l-13 -76h-85l13 76h85z" />
    <glyph glyph-name="commaaccent.alt" horiz-adv-x="499" 
d="M325 548h-103l143 150h16z" />
    <glyph glyph-name="hyphen.cap" horiz-adv-x="325" 
d="M288 295h-235l11 73h235z" />
    <glyph glyph-name="exclamdown.cap" horiz-adv-x="275" 
d="M239 660l-15 -83h-81l15 83h81zM30 0q16 93 51.5 213t56.5 237h41q-21 -118 -27.5 -237.5t-22.5 -212.5h-99z" />
    <glyph glyph-name="questiondown.cap" horiz-adv-x="442" 
d="M323 660l-15 -83h-81l15 83h81zM109 134q0 -95 88 -95q101 0 142 112h36q-52 -161 -206 -161q-76 0 -117 37.5t-41 96.5q0 42 16 74.5t34 48.5t53.5 41t52.5 41q32 29 40 46t19 75h42q-13 -72 -22.5 -92t-52.5 -63q-44 -44 -64 -79.5t-20 -81.5z" />
    <glyph glyph-name="guilsinglleft.cap" horiz-adv-x="332" 
d="M144 333l97 -202h-29l-158 188l5 28l224 188h29z" />
    <glyph glyph-name="guilsinglright.cap" horiz-adv-x="332" 
d="M189 333l-97 202h29l158 -188l-5 -28l-224 -188h-29z" />
    <glyph glyph-name="guillemotleft.cap" horiz-adv-x="533" 
d="M144 333l97 -202h-29l-158 188l5 28l224 188h29zM344 333l97 -202h-29l-158 188l5 28l224 188h29z" />
    <glyph glyph-name="guillemotright.cap" horiz-adv-x="533" 
d="M189 333l-97 202h29l158 -188l-5 -28l-224 -188h-29zM389 333l-97 202h29l158 -188l-5 -28l-224 -188h-29z" />
    <glyph glyph-name="endash.cap" horiz-adv-x="590" 
d="M559 300h-500l11 63h500z" />
    <glyph glyph-name="emdash.cap" horiz-adv-x="1000" 
d="M969 300h-950l11 63h950z" />
    <glyph glyph-name="periodcentered.cap" horiz-adv-x="275" 
d="M91 299l15 83h81l-15 -83h-81z" />
    <glyph glyph-name="parenleft.cap" horiz-adv-x="321" 
d="M331 719q-72 -22 -130 -98.5t-89.5 -180t-31.5 -208.5q0 -101 33 -179.5t102 -109.5l-15 -41q-85 29 -127.5 118t-42.5 209q0 193 86.5 346t211.5 187z" />
    <glyph glyph-name="parenright.cap" horiz-adv-x="321" 
d="M-11 -55q72 22 130 98.5t89.5 180t31.5 208.5q0 101 -33 179.5t-102 109.5l15 41q85 -29 127.5 -118t42.5 -209q0 -193 -86.5 -346t-211.5 -187z" />
    <glyph glyph-name="parenleft.small" horiz-adv-x="260" 
d="M241 570l4 -37q-79 -24 -131.5 -131t-52.5 -230q0 -168 97 -213l-13 -35q-63 21 -95 88.5t-32 157.5q0 145 64.5 259.5t158.5 140.5z" />
    <glyph glyph-name="parenright.small" horiz-adv-x="260" 
d="M-10 -76l-4 37q79 24 131.5 131t52.5 230q0 168 -97 213l13 35q63 -21 95 -88.5t32 -157.5q0 -145 -64.5 -259.5t-158.5 -140.5z" />
    <glyph glyph-name="bracketleft.cap" horiz-adv-x="326" 
d="M365 724h-149l-138 -786h148l-7 -39h-199l153 864h198z" />
    <glyph glyph-name="bracketright.cap" horiz-adv-x="327" 
d="M-39 -62h148l139 786h-149l7 39h199l-152 -864h-199z" />
    <glyph glyph-name="bracketleft.small" horiz-adv-x="288" 
d="M294 533h-116l-101 -572h116l-7 -38h-161l115 648h160z" />
    <glyph glyph-name="bracketright.small" horiz-adv-x="288" 
d="M-34 -39h116l100 572h-116l7 38h161l-115 -648h-160z" />
    <glyph glyph-name="braceleft.cap" horiz-adv-x="326" 
d="M108 329q41 -3 59 -28t18 -56q0 -32 -37.5 -112t-37.5 -128q0 -67 68 -67h48l-7 -39h-47q-55 0 -81.5 27t-26.5 74q0 56 38 134.5t38 109.5q0 66 -67 66h-62l8 43h62q49 0 72.5 31.5t23.5 65.5q0 23 -5 60t-5 62q0 84 38 137.5t119 53.5h47l-6 -39h-48q-104 0 -104 -146
q0 -24 4.5 -61.5t4.5 -56.5q0 -108 -114 -127v-4z" />
    <glyph glyph-name="braceright.cap" horiz-adv-x="326" 
d="M218 329v4q-41 3 -59 28t-18 56q0 32 37.5 112t37.5 128q0 67 -68 67h-48l7 39h47q55 0 81.5 -27t26.5 -74q0 -56 -38 -134.5t-38 -109.5q0 -66 67 -66h62l-8 -43h-62q-49 0 -72.5 -31.5t-23.5 -65.5q0 -23 5 -60t5 -62q0 -84 -38 -137.5t-119 -53.5h-47l6 39h48
q104 0 104 146q0 24 -4.5 61.5t-4.5 56.5q0 108 114 127z" />
    <glyph glyph-name="braceleft.small" horiz-adv-x="261" 
d="M80 246q25 -3 37 -20t12 -38q0 -30 -28 -87.5t-28 -95.5q0 -47 52 -47h41l-7 -35h-40q-87 0 -87 73q0 45 28.5 106t28.5 83q0 44 -45 44h-46l6 36h47q32 0 49 24t17 56q0 11 -4 38t-4 45q0 64 29 103.5t95 39.5h41l-6 -34h-41q-76 0 -76 -108q0 -16 3 -41.5t3 -38.5
q0 -31 -17 -63.5t-59 -36.5z" />
    <glyph glyph-name="braceright.small" horiz-adv-x="261" 
d="M76 145q0 31 17 63.5t59 36.5l1 3q-25 3 -37 20t-12 38q0 30 28 87.5t28 95.5q0 47 -52 47h-41l7 35h40q87 0 87 -73q0 -45 -28.5 -106t-28.5 -83q0 -44 45 -44h46l-6 -36h-47q-32 0 -49 -24t-17 -56q0 -11 4 -38t4 -45q0 -64 -29 -103.5t-95 -39.5h-41l6 34h41
q76 0 76 108q0 16 -3 41.5t-3 38.5z" />
    <glyph glyph-name="at.small" horiz-adv-x="607" 
d="M289 -11q-52 0 -95.5 11.5t-81.5 37.5t-59.5 75t-21.5 117q0 111 80 193t205 82q109 0 173.5 -58.5t64.5 -149.5q0 -74 -41.5 -135t-102.5 -61q-60 0 -75 36q-33 -36 -87 -36q-46 0 -71 28.5t-25 73.5q0 77 45.5 137.5t116.5 60.5q39 0 64 -25q20 8 28 18h38l-38 -209
q-3 -17 -3 -27q0 -18 16 -18q29 0 51.5 51t22.5 129q0 73 -50.5 111t-123.5 38q-97 0 -162.5 -67t-65.5 -184q0 -93 58 -142.5t136 -49.5q88 0 146 29l12 -32q-57 -34 -154 -34zM274 142q29 0 56 29q2 18 4 25l27 156q-19 11 -43 11q-37 0 -61.5 -49t-24.5 -118
q0 -28 12.5 -41t29.5 -13z" />
    <glyph glyph-name="at.cap" horiz-adv-x="768" 
d="M357 -19q-65 0 -120.5 14.5t-102.5 47t-74 91t-27 139.5q0 72 27 143t77 129.5t129 94.5t173 36q139 0 219.5 -72.5t80.5 -186.5q0 -43 -11.5 -90t-33.5 -91t-60 -73t-84 -29q-77 0 -90 63q-48 -63 -128 -63q-63 0 -94.5 38t-31.5 98q0 102 60.5 183t153.5 81
q53 0 91 -36q33 12 47 27h24l-51 -279q-3 -18 -3 -31q0 -38 34 -38q45 0 74.5 84t29.5 183q0 95 -64 142.5t-162 47.5q-149 0 -242 -104t-93 -264q0 -119 73 -180.5t177 -61.5q115 0 197 38l13 -35q-78 -46 -208 -46zM360 183q49 0 98 54q0 6 2 18l37 211q-32 25 -78 25
q-58 0 -92 -67.5t-34 -162.5q0 -39 18 -58.5t49 -19.5z" />
    <glyph glyph-name="zero.slash" 
d="M230 -10q-97 0 -149 71l-49 -61h-47l76 94q-26 57 -26 133q0 66 16 138.5t47.5 143t89.5 116t132 45.5q97 0 149 -71l49 61h47l-76 -94q26 -57 26 -133q0 -69 -16 -142.5t-48 -143t-89.5 -113.5t-131.5 -44zM131 188v-7l283 350q-17 90 -100 90q-46 0 -82 -39.5
t-57.5 -104t-32.5 -139t-11 -150.5zM236 39q46 0 82.5 38t57.5 101.5t32 138.5t11 155v7l-283 -350q17 -90 100 -90z" />
    <glyph glyph-name="numbersign.LP" 
d="M312 286l35 94h-116l-35 -94h116zM220 40l62 165h-116l-62 -165h-28l62 165h-119l28 81h122l35 94h-116l27 81h119l61 161h27l-60 -161h116l60 161h27l-61 -161h128l-28 -81h-130l-35 -94h125l-28 -81h-128l-62 -165h-26z" />
    <glyph glyph-name="Euro.LP" 
d="M507 151q-52 -161 -200 -161q-106 0 -159 63.5t-53 169.5v7h-90l7 43h85q3 51 16 107h-82l8 43h86q36 112 107.5 179.5t168.5 67.5q66 0 110.5 -43t42.5 -118h-36q-2 55 -33 83.5t-85 28.5q-68 0 -116 -53t-73 -145h250l-7 -43h-253q-10 -46 -13 -107h190l-8 -43h-184
v-18q0 -173 134 -173q108 0 151 112h36z" />
    <glyph glyph-name="dollar.LP" horiz-adv-x="551" 
d="M325 628q-11 0 -29 -2l-40 -227q15 -11 49 -31l45 258q-16 2 -25 2zM194 504q0 -41 27 -73l32 182q-59 -29 -59 -109zM229 33q11 0 17 1l40 229q-2 1 -49 29l-45 -257q24 -2 37 -2zM353 153q0 47 -31 81l-34 -190q65 27 65 109zM226 -9q-22 0 -41 3l-16 -89h-41l17 98
q-98 33 -101 137h36q9 -71 73 -95l47 269q-42 28 -66 64.5t-24 94.5q0 74 39.5 125t112.5 66l15 86h41l-14 -80h14q21 0 39 -3l15 83h41l-16 -93q92 -33 95 -136h-36q-8 69 -67 95l-47 -270q49 -32 76 -68t27 -92q0 -75 -45 -125.5t-120 -64.5l-16 -91h-41l15 86h-12z" />
    <glyph glyph-name="cent.LP" 
d="M181 252q0 -77 54 -102l107 318q-79 -1 -120 -62t-41 -154zM264 80h-10l-44 -131h-43l46 136q-58 13 -91 54.5t-33 106.5q0 111 65.5 195t179.5 84q9 0 27 -2l44 131h43l-47 -140q44 -17 64 -55t15 -85h-29q0 72 -67 89l-110 -325q7 -1 22 -1q40 0 76 22t53 72h29
q-14 -63 -66 -107t-124 -44z" />
    <glyph glyph-name="sterling.LP" 
d="M441 87l-16 -88h-392l6 35q110 72 146 112.5t36 88.5q0 30 -16 59h-139l7 43h106q-50 75 -50 139q0 83 55 138.5t148 55.5q71 0 118 -45.5t45 -125.5h-36q-2 60 -35.5 91t-92.5 31q-53 0 -84.5 -32t-31.5 -76q0 -33 13 -62.5t34.5 -62t29.5 -51.5h147l-8 -43h-126
q1 -6 1 -18q0 -96 -131 -189h266z" />
    <glyph glyph-name="florin.LP" 
d="M398 294h-148l-119 -414h-94l120 414h-113l9 43h117l32 110q13 43 31 79.5t45.5 70.5t67.5 53.5t88 19.5q58 0 91 -36.5t29 -104.5h-36q0 45 -20.5 69t-57.5 24q-46 0 -81 -35.5t-60 -122.5l-37 -127h144z" />
    <glyph glyph-name="yen.LP" horiz-adv-x="560" 
d="M462 144h-165l-25 -144h-91l25 144h-168l8 43h168l19 107h-168l7 43h155l-115 323h101l96 -286l192 286h63l-222 -323h153l-7 -43h-164l-19 -107h165z" />
    <glyph glyph-name="zero.slashLP" horiz-adv-x="556" 
d="M233 -10q-97 0 -149 71l-49 -61h-47l76 94q-26 57 -26 133q0 66 16 138.5t47.5 143t89.5 116t132 45.5q97 0 149 -71l49 61h47l-76 -94q26 -57 26 -133q0 -69 -16 -142.5t-48 -143t-89.5 -113.5t-131.5 -44zM134 188v-7l283 350q-17 90 -100 90q-46 0 -82 -39.5
t-57.5 -104t-32.5 -139t-11 -150.5zM239 39q46 0 82.5 38t57.5 101.5t32 138.5t11 155v7l-283 -350q17 -90 100 -90z" />
    <glyph glyph-name="zero.LP" horiz-adv-x="556" 
d="M518 433q0 -69 -16 -142.5t-48 -143t-89.5 -113.5t-131.5 -44q-94 0 -144.5 65t-50.5 172q0 66 16 138.5t47.5 143t89.5 116t132 45.5q94 0 144.5 -64.5t50.5 -172.5zM317 621q-46 0 -82 -39.5t-57.5 -104t-32.5 -139t-11 -150.5q0 -149 105 -149q46 0 82.5 38
t57.5 101.5t32 138.5t11 155q0 79 -26 114t-79 35z" />
    <glyph glyph-name="one.LP" horiz-adv-x="460" 
d="M169 0l100 554l-186 -134l-17 51l273 189h37l-116 -660h-91z" />
    <glyph glyph-name="two.LP" 
d="M168 159q6 6 38.5 37t44.5 43.5t39.5 42.5t39.5 51t28.5 51.5t23 61t6.5 62.5q0 112 -118 112q-61 0 -99.5 -39.5t-38.5 -94.5q0 -35 17.5 -53.5t45.5 -18.5q81 0 71 132h32q11 -97 -25 -145.5t-80 -48.5q-43 0 -72 32.5t-29 93.5q0 81 58.5 136.5t153.5 55.5
q82 0 132.5 -44t50.5 -127q0 -92 -71.5 -177t-262.5 -234h289l-14 -88h-394l6 34z" />
    <glyph glyph-name="three.LP" horiz-adv-x="540" 
d="M206 -10q-89 0 -136.5 51t-32.5 150h36q-22 -151 128 -151q73 0 116.5 50.5t43.5 137.5q0 92 -57 92q-10 0 -22 -3l-87 -20l-3 42l87 20q2 1 7 1q60 15 85.5 53t25.5 111q0 46 -26.5 70.5t-73.5 24.5q-51 0 -93.5 -37t-58.5 -113h-36q21 103 82.5 152t145.5 49
q74 0 116 -42t42 -102q0 -53 -35 -97.5t-96 -73.5q42 -15 66.5 -55.5t24.5 -90.5q0 -90 -70.5 -154.5t-178.5 -64.5z" />
    <glyph glyph-name="four.LP" 
d="M489 155h-120l-27 -155h-85l28 155h-263l6 34q78 91 128 155t78.5 104t45 81t21 61t13.5 70h101q-7 -39 -17 -67t-40.5 -71t-53 -69.5t-94 -108t-123.5 -142.5h206l19 108q26 24 48 71.5t31 93.5h35l-48 -273h120z" />
    <glyph glyph-name="five.LP" horiz-adv-x="540" 
d="M89 179q-2 -68 29 -103.5t90 -35.5q69 0 111.5 63.5t42.5 169.5q0 98 -94 98q-71 0 -118 -72h-39l63 361h329l-15 -88h-280l-36 -198q51 51 128 51q72 0 115 -47.5t43 -119.5q0 -110 -69.5 -189t-176.5 -79q-76 0 -120.5 48.5t-38.5 140.5h36z" />
    </font>
</defs>
</svg>
