<?xml version="1.0" standalone="no"?>
<!DOCTYPE svg PUBLIC "-//W3C//DTD SVG 1.1//EN" "http://www.w3.org/Graphics/SVG/1.1/DTD/svg11.dtd" >
<svg xmlns="http://www.w3.org/2000/svg" xmlns:xlink="http://www.w3.org/1999/xlink" version="1.1">
<metadata>
Created by FontForge 20190801 at Tue Jun 16 19:05:48 2015
 By Mark Brand
Copyright 2015 Production Systems SAS - Jean-Baptiste Levee - All rights reserved - End-User License Agreement:  http://www.productiontype.com/license
</metadata>
<defs>
<font id="GranvilleRegular" horiz-adv-x="550" >
  <font-face 
    font-family="GranvilleRegular"
    font-weight="400"
    font-stretch="normal"
    units-per-em="1000"
    panose-1="2 0 0 0 0 0 0 0 0 0"
    ascent="750"
    descent="-250"
    x-height="450"
    cap-height="660"
    bbox="-105 -364 1178 980"
    underline-thickness="63"
    underline-position="-117"
    unicode-range="U+0020-FB06"
  />
<missing-glyph horiz-adv-x="540" 
d="M-38 0v660h500v-660h-500zM-8 30h440v600h-440v-600zM195 548q-40 0 -65 -22t-27 -66h-29q0 58 39 92t98 34q60 0 99.5 -32t39.5 -81q0 -36 -11.5 -58t-43 -50t-36.5 -33q-16 -17 -19 -20.5t-9 -15t-6.5 -22t-0.5 -33.5h-41v41.5t8 27.5t12 19.5t26 28.5q24 26 34.5 48.5
t10.5 58.5q0 83 -79 83zM165 84v79h79v-79h-79z" />
    <glyph glyph-name="f_f" unicode="ff" horiz-adv-x="623" 
d="M157 593q0 -81 32 -143h180v70q0 66 15 111q-18 84 -109 84q-50 0 -84 -30t-34 -92zM369 0v414h-176v-414h-89v414h-91v36h91v70q0 116 47.5 170.5t123.5 54.5q93 0 125 -76q41 76 130 76q56 0 89.5 -34.5t37.5 -93.5h-26q-13 98 -101 98q-46 0 -77 -30t-31 -92
q0 -81 32 -143h126v-36h-122v-414h-89z" />
    <glyph glyph-name="fi" unicode="fi" horiz-adv-x="549" 
d="M380 0v414h-187v-414h-89v414h-91v36h91v70q0 116 51.5 170.5t134.5 54.5q67 0 107.5 -35t44.5 -93h-26q-13 98 -126 98q-56 0 -94.5 -30t-38.5 -92q0 -81 32 -143h280v-450h-89z" />
    <glyph glyph-name="fl" unicode="fl" horiz-adv-x="549" 
d="M308 414h-115v-414h-89v414h-91v36h91v70q0 116 47.5 170.5t123.5 54.5q67 0 105 -43v33h89v-735h-89v648q-22 67 -105 67q-50 0 -84 -30t-34 -92q0 -81 32 -143h119v-36z" />
    <glyph glyph-name="f_f_i" unicode="ffi" horiz-adv-x="814" 
d="M157 593q0 -81 32 -143h180v70q0 57 15 107q-16 88 -109 88q-50 0 -84 -30t-34 -92zM369 0v414h-176v-414h-89v414h-91v36h91v70q0 116 47.5 170.5t123.5 54.5q96 0 127 -80q48 80 153 80q67 0 107.5 -35t44.5 -93h-26q-13 98 -126 98q-56 0 -94.5 -30t-38.5 -92
q0 -81 32 -143h280v-450h-89v414h-187v-414h-89z" />
    <glyph glyph-name="f_f_l" unicode="ffl" horiz-adv-x="814" 
d="M157 593q0 -81 32 -143h180v70q0 64 15 109q-17 86 -109 86q-50 0 -84 -30t-34 -92zM369 0v414h-176v-414h-89v414h-91v36h91v70q0 116 47.5 170.5t123.5 54.5q93 0 126 -78q44 78 139 78q67 0 105 -43v33h89v-735h-89v648q-22 67 -105 67q-50 0 -84 -30t-34 -92
q0 -81 32 -143h119v-36h-115v-414h-89z" />
    <glyph glyph-name="f_b" unicode="fb" horiz-adv-x="887" 
d="M616 -11q-44 0 -85.5 25.5t-61.5 76.5v-91h-89v648q-22 67 -105 67q-50 0 -84 -30t-34 -92q0 -81 32 -143h119v-36h-115v-414h-89v414h-91v36h91v70q0 116 47.5 170.5t123.5 54.5q67 0 105 -43v33h89v-380q21 53 66 79t91 26q96 0 156 -68.5t60 -167.5q0 -98 -62 -166.5
t-164 -68.5zM469 225q0 -92 41.5 -141.5t99.5 -49.5q69 0 102.5 43t33.5 147q0 103 -32.5 147t-94.5 44q-64 0 -107 -48.5t-43 -141.5z" />
    <glyph glyph-name="f_f_b" unicode="ffb" horiz-adv-x="1152" 
d="M157 593q0 -81 32 -143h180v70q0 64 15 109q-17 86 -109 86q-50 0 -84 -30t-34 -92zM881 -11q-44 0 -85.5 25.5t-61.5 76.5v-91h-89v648q-22 67 -105 67q-50 0 -84 -30t-34 -92q0 -81 32 -143h126v-36h-122v-414h-89v414h-176v-414h-89v414h-91v36h91v70
q0 116 47.5 170.5t123.5 54.5q93 0 126 -78q44 78 139 78q67 0 105 -43v33h89v-380q21 53 66 79t91 26q96 0 156 -68.5t60 -167.5q0 -98 -62 -166.5t-164 -68.5zM734 225q0 -92 41.5 -141.5t99.5 -49.5q69 0 102.5 43t33.5 147q0 103 -32.5 147t-94.5 44q-64 0 -107 -48.5
t-43 -141.5z" />
    <glyph glyph-name="f_h" unicode="fh" horiz-adv-x="868" 
d="M308 414h-115v-414h-89v414h-91v36h91v70q0 116 47.5 170.5t123.5 54.5q67 0 105 -43v33h89v-377q13 40 55 71t105 31q78 0 121 -43t43 -114v-303h-90v282q0 127 -106 127q-55 0 -91.5 -43t-36.5 -89v-277h-89v648q-22 67 -105 67q-50 0 -84 -30t-34 -92q0 -81 32 -143
h119v-36z" />
    <glyph glyph-name="f_f_h" unicode="ffh" horiz-adv-x="1133" 
d="M157 593q0 -81 32 -143h180v70q0 64 15 109q-17 86 -109 86q-50 0 -84 -30t-34 -92zM369 0v414h-176v-414h-89v414h-91v36h91v70q0 116 47.5 170.5t123.5 54.5q93 0 126 -78q44 78 139 78q67 0 105 -43v33h89v-377q13 40 55 71t105 31q78 0 121 -43t43 -114v-303h-90v282
q0 127 -106 127q-55 0 -91.5 -43t-36.5 -89v-277h-89v648q-22 67 -105 67q-50 0 -84 -30t-34 -92q0 -81 32 -143h126v-36h-122v-414h-89z" />
    <glyph glyph-name="f_j" unicode="fj" horiz-adv-x="553" 
d="M334 -265q-15 0 -39 3v32q10 -2 19 -2q70 0 70 115q0 12 -2 64.5t-2 83.5v383h-187v-414h-89v414h-91v36h91v70q0 116 51.5 170.5t134.5 54.5q67 0 107.5 -35t44.5 -93h-26q-13 98 -126 98q-56 0 -94.5 -30t-38.5 -92q0 -81 32 -143h281v-422q0 -23 1.5 -67.5t1.5 -58.5
q0 -79 -36 -123t-103 -44z" />
    <glyph glyph-name="f_f_j" unicode="ffj" horiz-adv-x="818" 
d="M157 593q0 -81 32 -143h180v70q0 57 15 107q-16 88 -109 88q-50 0 -84 -30t-34 -92zM599 -265q-15 0 -39 3v32q10 -2 19 -2q70 0 70 115q0 12 -2 64.5t-2 83.5v383h-187v-414h-89v414h-176v-414h-89v414h-91v36h91v70q0 116 47.5 170.5t123.5 54.5q96 0 127 -80
q48 80 153 80q67 0 107.5 -35t44.5 -93h-26q-13 98 -126 98q-56 0 -94.5 -30t-38.5 -92q0 -81 32 -143h281v-422q0 -23 1.5 -67.5t1.5 -58.5q0 -79 -36 -123t-103 -44z" />
    <glyph glyph-name="f_k" unicode="fk" horiz-adv-x="809" 
d="M785 0h-115l-188 235q184 176 220 215h65l-207 -186zM315 414h-122v-414h-89v414h-91v36h91v70q0 116 47.5 170.5t123.5 54.5q67 0 105 -43v33h89v-735h-89v648q-22 67 -105 67q-50 0 -84 -30t-34 -92q0 -81 32 -143h126v-36z" />
    <glyph glyph-name="f_f_k" unicode="ffk" horiz-adv-x="1074" 
d="M157 593q0 -81 32 -143h180v70q0 64 15 109q-17 86 -109 86q-50 0 -84 -30t-34 -92zM1050 0h-115l-188 235q184 176 220 215h65l-207 -186zM369 0v414h-176v-414h-89v414h-91v36h91v70q0 116 47.5 170.5t123.5 54.5q93 0 126 -78q44 78 139 78q67 0 105 -43v33h89v-735
h-89v648q-22 67 -105 67q-50 0 -84 -30t-34 -92q0 -81 32 -143h119v-36h-115v-414h-89z" />
    <glyph glyph-name="f_t" unicode="ft" horiz-adv-x="677" 
d="M634 116q-4 -67 -33 -97t-83 -30q-68 0 -103.5 42.5t-35.5 125.5v257h-186v-414h-89v414h-91v36h91v70q0 116 44.5 170.5t116.5 54.5q56 0 89.5 -34.5t37.5 -93.5h-26q-13 98 -101 98q-46 0 -77 -30t-31 -92q0 -81 32 -143h190q25 21 47 75.5t23 104.5h19v-180h147v-36
h-147v-279q0 -105 70 -105q58 0 69 86h27z" />
    <glyph glyph-name="f_f_t" unicode="fft" horiz-adv-x="942" 
d="M157 593q0 -81 32 -143h180v70q0 66 15 111q-18 84 -109 84q-50 0 -84 -30t-34 -92zM899 116q-4 -67 -33 -97t-83 -30q-68 0 -103.5 42.5t-35.5 125.5v257h-186v-414h-89v414h-176v-414h-89v414h-91v36h91v70q0 116 47.5 170.5t123.5 54.5q93 0 125 -76q41 76 130 76
q56 0 89.5 -34.5t37.5 -93.5h-26q-13 98 -101 98q-46 0 -77 -30t-31 -92q0 -81 32 -143h190q25 21 47 75.5t23 104.5h19v-180h147v-36h-147v-279q0 -105 70 -105q58 0 69 86h27z" />
    <glyph glyph-name=".notdef" horiz-adv-x="540" 
d="M-38 0v660h500v-660h-500zM-8 30h440v600h-440v-600zM195 548q-40 0 -65 -22t-27 -66h-29q0 58 39 92t98 34q60 0 99.5 -32t39.5 -81q0 -36 -11.5 -58t-43 -50t-36.5 -33q-16 -17 -19 -20.5t-9 -15t-6.5 -22t-0.5 -33.5h-41v41.5t8 27.5t12 19.5t26 28.5q24 26 34.5 48.5
t10.5 58.5q0 83 -79 83zM165 84v79h79v-79h-79z" />
    <glyph glyph-name=".null" horiz-adv-x="500" 
 />
    <glyph glyph-name="nonmarkingreturn" horiz-adv-x="333" 
 />
    <glyph glyph-name="space" unicode=" " horiz-adv-x="250" 
 />
    <glyph glyph-name="exclam" unicode="!" horiz-adv-x="275" 
d="M193 660q0 -93 -16.5 -212.5t-16.5 -237.5h-45q0 118 -16.5 237.5t-16.5 212.5h111zM84 0v106h106v-106h-106z" />
    <glyph glyph-name="quotedbl" unicode="&#x22;" horiz-adv-x="415" 
d="M330 735l-34 -199h-37l-34 199h105zM190 735l-34 -199h-37l-34 199h105z" />
    <glyph glyph-name="numbersign" unicode="#" 
d="M322 286l19 94h-122l-19 -94h122zM270 40l35 165h-122l-35 -165h-29l35 165h-126l15 81h128l19 94h-122l14 81h125l34 161h29l-34 -161h122l34 161h28l-34 -161h135l-15 -81h-137l-19 -94h132l-15 -81h-134l-35 -165h-28z" />
    <glyph glyph-name="dollar" unicode="$" 
d="M294 381l12 -6v252q-5 1 -15 1q-25 0 -42 -4v-221q10 -5 45 -22zM163 529q0 -60 43 -98v177q-43 -25 -43 -79zM265 33q24 0 41 4v222q-54 25 -57 27v-253h16zM396 137q0 66 -47 98v-183q47 28 47 85zM266 -9h-17v-86h-43v92q-117 26 -134 153h38q17 -90 96 -110v267
q-61 33 -93 73t-32 111q0 61 33 106.5t92 62.5v90h43v-81q9 1 27 1q20 0 30 -1v81h43v-90q102 -30 118 -149h-38q-15 83 -80 107v-265q66 -36 101.5 -78t35.5 -105q0 -62 -37 -105.5t-100 -62.5v-97h-43v88q-26 -2 -40 -2z" />
    <glyph glyph-name="percent" unicode="%" horiz-adv-x="847" 
d="M177 225q-71 0 -113 63.5t-42 159.5q0 95 42 158.5t113 63.5t112.5 -63t41.5 -159q0 -95 -41.5 -159t-112.5 -64zM308 0h-55l287 660h55zM177 631q-79 0 -79 -183q0 -184 79 -184q78 0 78 184q0 183 -78 183zM667 -10q-71 0 -113 63.5t-42 159.5q0 95 42 158.5t113 63.5
t112.5 -63t41.5 -159q0 -95 -41.5 -159t-112.5 -64zM667 396q-79 0 -79 -183q0 -184 79 -184q78 0 78 184q0 183 -78 183z" />
    <glyph glyph-name="ampersand" unicode="&#x26;" horiz-adv-x="685" 
d="M212 553q0 -79 54 -158q6 5 22.5 17t21.5 16t17 14t16 15.5t11 15.5t9.5 18.5t4.5 20.5t2 26q0 40 -21 64.5t-59 24.5q-78 0 -78 -74zM274 37q70 0 119 68l-93 105q-43 46 -88 101q-29 -23 -41 -50t-12 -79q0 -73 26.5 -109t88.5 -36zM562 -9q-39 0 -65 15t-71 63
q-67 -79 -181 -79q-87 0 -138 43t-51 121q0 32 8.5 59t16.5 42t32 36t32.5 26.5t41.5 27.5q-64 89 -64 170q0 69 45.5 112t120.5 43q76 0 123 -31t47 -87q0 -35 -16 -63t-34.5 -43t-57.5 -41.5t-60 -43.5q11 -14 24.5 -30.5t33 -40.5t32.5 -39l52 -63q28 83 28 191h53
q0 -140 -42 -235q73 -82 102 -82q42 0 42 56h44q-3 -67 -30.5 -97t-67.5 -30z" />
    <glyph glyph-name="quotesingle" unicode="'" horiz-adv-x="275" 
d="M190 735l-34 -199h-37l-34 199h105z" />
    <glyph glyph-name="parenleft" unicode="(" horiz-adv-x="359" 
d="M313 664q-89 -27 -141.5 -132.5t-52.5 -255.5t52.5 -255.5t141.5 -132.5l-10 -44q-107 30 -172 146t-65 286t65 285.5t172 145.5z" />
    <glyph glyph-name="parenright" unicode=")" horiz-adv-x="359" 
d="M46 664l10 43q107 -30 172 -145.5t65 -285.5t-65 -286t-172 -146l-10 44q89 27 141.5 132.5t52.5 255.5t-52.5 255.5t-141.5 132.5z" />
    <glyph glyph-name="asterisk" unicode="*" horiz-adv-x="377" 
d="M260 358l-63 111h-17l-64 -108l-45 33l82 93l-5 16l-119 27l15 50l114 -48l15 11l-10 124h52l-11 -124l13 -11l116 48l15 -50l-120 -27l-5 -16l81 -93z" />
    <glyph glyph-name="plus" unicode="+" 
d="M470 200h-163v-163h-63v163h-164v63h164v164h63v-164h163v-63z" />
    <glyph glyph-name="comma" unicode="," horiz-adv-x="275" 
d="M171 -66q0 66 -84 66v96q67 0 102 -38t35 -97q0 -71 -44.5 -111t-128.5 -40v40q120 0 120 84z" />
    <glyph glyph-name="hyphen" unicode="-" horiz-adv-x="295" 
d="M260 196h-225v71h225v-71z" />
    <glyph glyph-name="period" unicode="." horiz-adv-x="275" 
d="M84 0v106h106v-106h-106z" />
    <glyph glyph-name="slash" unicode="/" horiz-adv-x="275" 
d="M13 -50l197 720h53l-197 -720h-53z" />
    <glyph glyph-name="zero" unicode="0" 
d="M275 -10q-109 0 -173.5 97t-64.5 244t64 243t174 96t174 -96t64 -243t-64.5 -244t-173.5 -97zM275 621q-136 0 -136 -290q0 -292 136 -292t136 292q0 290 -136 290z" />
    <glyph glyph-name="one" unicode="1" 
d="M271 0v558l-169 -138l-27 51l252 189h39v-660h-95z" />
    <glyph glyph-name="two" unicode="2" 
d="M487 0h-411v34l111 125q1 2 25.5 28.5t33.5 38t32 40.5t33.5 50.5t25 51.5t20.5 61.5t6 63.5q0 126 -115 126q-65 0 -105 -37.5t-42 -112.5h-38q2 98 59 149.5t141 51.5q93 0 147.5 -49t54.5 -136q0 -48 -19 -88t-45 -69t-93 -100.5t-124 -139.5h303v-88z" />
    <glyph glyph-name="three" unicode="3" 
d="M263 -9q-93 0 -151.5 50.5t-60.5 149.5h38q2 -74 47 -112t115 -38q65 0 101 35.5t36 105.5q0 81 -27 106.5t-83 25.5h-72v52h72q92 0 92 121q0 66 -32 99t-86 33q-135 0 -139 -150h-38q2 102 57.5 151.5t144.5 49.5q90 0 142.5 -47t52.5 -120q0 -107 -85 -160
q48 -23 75 -65.5t27 -95.5q0 -79 -61.5 -135t-164.5 -56z" />
    <glyph glyph-name="four" unicode="4" 
d="M524 155h-126v-155h-90v155h-276v34q65 91 106 155t63.5 104t32 81t11 61.5t1.5 69.5h106q0 -39 -5.5 -67t-29.5 -71t-43 -70t-78.5 -108t-103.5 -142h216v108q24 24 38 71.5t15 93.5h37v-273h126v-47z" />
    <glyph glyph-name="five" unicode="5" 
d="M260 -10q-84 0 -137 47.5t-55 141.5h38q2 -68 42.5 -103.5t103.5 -35.5q64 0 97 40.5t33 131.5q0 82 -29 120.5t-93 38.5q-76 0 -112 -72h-41v361h358v-88h-307v-189q45 42 125 42q87 0 144 -61.5t57 -146.5q0 -103 -58 -165t-166 -62z" />
    <glyph glyph-name="six" unicode="6" 
d="M496 204q0 -93 -56 -154t-162 -61q-103 0 -160.5 82t-57.5 227q0 167 67.5 269.5t181.5 102.5q82 0 129 -50t50 -134h-38q-20 138 -136 138q-73 0 -113 -68.5t-40 -232.5q48 70 143 70q83 0 137.5 -54.5t54.5 -134.5zM288 33q49 0 77.5 40t28.5 120q0 74 -29 111t-77 37
q-45 0 -79 -26.5t-45 -82.5q7 -112 37 -155.5t87 -43.5z" />
    <glyph glyph-name="seven" unicode="7" 
d="M277 0h-102q0 26 2 48t3 40.5t9 42.5t12 39t19.5 46t23.5 47.5t33 60t38 66.5t49 84.5t57 97.5h-343v88h420v-34q-43 -79 -75 -138.5t-56 -113t-39.5 -84.5t-26 -71.5t-15 -55t-7 -54.5t-2.5 -49.5v-59.5z" />
    <glyph glyph-name="eight" unicode="8" 
d="M275 -10q-101 0 -161 52.5t-60 129.5q0 56 30 104t84 73q-41 23 -63 62t-22 85q0 74 52.5 124t140.5 50q89 0 141 -47t52 -120q0 -46 -22.5 -87t-63.5 -65q54 -24 83.5 -69t29.5 -100q0 -79 -60.5 -135.5t-160.5 -56.5zM184 496q0 -70 23.5 -97t68.5 -27q44 0 67.5 29.5
t23.5 101.5q0 67 -23.5 93.5t-67.5 26.5q-92 0 -92 -127zM155 172q0 -75 31.5 -105.5t88.5 -30.5q120 0 120 146q0 79 -31 110t-89 31q-120 0 -120 -151z" />
    <glyph glyph-name="nine" unicode="9" 
d="M262 318q45 0 79 26.5t45 82.5q-7 112 -37 155.5t-87 43.5q-49 0 -77.5 -40t-28.5 -120q0 -74 29 -111t77 -37zM249 -11q-86 0 -135 50t-52 134h38q20 -138 144 -138q69 0 107 68.5t38 232.5q-48 -70 -143 -70q-83 0 -137.5 54.5t-54.5 134.5q0 93 56 154t162 61
q102 0 160 -86.5t58 -232.5q0 -166 -65 -264t-176 -98z" />
    <glyph glyph-name="colon" unicode=":" horiz-adv-x="275" 
d="M85 300v106h106v-106h-106zM85 0v106h106v-106h-106z" />
    <glyph glyph-name="semicolon" unicode=";" horiz-adv-x="275" 
d="M88 299v106h106v-106h-106zM171 -66q0 66 -84 66v96q67 0 102 -38t35 -97q0 -71 -44.5 -111t-128.5 -40v40q120 0 120 84z" />
    <glyph glyph-name="less" unicode="&#x3c;" 
d="M470 62l-390 149v38l390 159v-39l-306 -124l306 -115v-68z" />
    <glyph glyph-name="equal" unicode="=" 
d="M470 300h-390v63h390v-63zM470 100h-390v63h390v-63z" />
    <glyph glyph-name="greater" unicode="&#x3e;" 
d="M80 62v39l306 124l-306 115v68l390 -149v-38z" />
    <glyph glyph-name="question" unicode="?" horiz-adv-x="465" 
d="M200 619q-53 0 -86 -29t-36 -88h-39q0 77 52 122.5t130 45.5q80 0 133 -42.5t53 -108.5q0 -37 -13 -67t-28 -45.5t-42 -39t-39 -36.5q-33 -35 -39.5 -50.5t-6.5 -70.5h-55q0 68 8.5 87.5t53.5 67.5q32 35 45.5 65t13.5 78q0 111 -105 111zM160 0v106h106v-106h-106z" />
    <glyph glyph-name="at" unicode="@" horiz-adv-x="808" 
d="M399 -91q-69 0 -127 16t-108.5 51.5t-79.5 101.5t-29 156q0 149 106.5 259.5t273.5 110.5q145 0 231.5 -79.5t86.5 -200.5q0 -99 -56 -180.5t-136 -81.5q-79 0 -91 62q-45 -62 -127 -62q-63 0 -94.5 38t-31.5 98q0 102 60.5 183t153.5 81q53 0 91 -36q33 12 47 27h24
l-51 -279q-4 -17 -4 -32q0 -37 35 -37q42 0 73.5 69.5t31.5 179.5q0 104 -68 156t-171 52q-134 0 -222.5 -90.5t-88.5 -253.5q0 -89 40 -151t98 -88.5t128 -26.5q115 0 195 38l15 -35q-32 -20 -88 -33t-117 -13zM371 111q51 0 98 54q0 6 2 18l37 211q-32 25 -78 25
q-58 0 -92 -67.5t-34 -162.5q0 -39 18 -58.5t49 -19.5z" />
    <glyph glyph-name="A" unicode="A" horiz-adv-x="622" 
d="M389 251l-106 260l-102 -260h208zM491 0l-82 201h-248l-80 -201h-61l272 665h34l276 -665h-111z" />
    <glyph glyph-name="B" unicode="B" horiz-adv-x="634" 
d="M303 610h-95v-250h123q42 0 70 30.5t28 101.5q0 68 -33 93t-93 25zM353 309h-145v-264h145q126 0 126 128q0 136 -126 136zM108 0v660h195q105 0 169 -44.5t64 -109.5q0 -108 -103 -155q72 -18 112.5 -65t40.5 -111q0 -69 -62.5 -122t-170.5 -53h-245z" />
    <glyph glyph-name="C" unicode="C" horiz-adv-x="661" 
d="M364 620q-200 0 -200 -297q0 -146 56.5 -214.5t154.5 -68.5q74 0 124.5 38t61.5 108h40q-13 -92 -78.5 -144t-161.5 -52q-141 0 -222.5 92.5t-81.5 240.5q0 149 79 248t213 99q97 0 164.5 -52t80.5 -144h-40q-14 70 -66 108t-124 38z" />
    <glyph glyph-name="D" unicode="D" horiz-adv-x="722" 
d="M360 610h-151v-560h151q95 0 146.5 63t51.5 219q0 278 -198 278zM108 0v660h252q140 0 222.5 -96t82.5 -233q0 -141 -82.5 -236t-222.5 -95h-252z" />
    <glyph glyph-name="E" unicode="E" horiz-adv-x="573" 
d="M108 0v660h378v-50h-277v-255h257v-50h-257v-255h298v-50h-399z" />
    <glyph glyph-name="F" unicode="F" horiz-adv-x="542" 
d="M466 345v-50h-257v-295h-101v660h378v-50h-277v-265h257z" />
    <glyph glyph-name="G" unicode="G" horiz-adv-x="691" 
d="M573 0q0 17 -6 30.5t-12.5 19.5t-17.5 15q-67 -75 -190 -75q-131 0 -210.5 93t-79.5 240q0 150 82 248.5t223 98.5q99 0 162.5 -51.5t76.5 -144.5h-40q-14 71 -63.5 108.5t-124.5 37.5q-209 0 -209 -297q0 -287 193 -287q106 0 159 68v139h-110v50h210v-293h-43z" />
    <glyph glyph-name="H" unicode="H" horiz-adv-x="764" 
d="M555 0v305h-346v-305h-101v660h101v-305h346v305h101v-660h-101z" />
    <glyph glyph-name="I" unicode="I" horiz-adv-x="317" 
d="M209 660v-660h-101v660h101z" />
    <glyph glyph-name="J" unicode="J" horiz-adv-x="540" 
d="M217 40q62 0 93 44t31 119v457h101v-457q0 -97 -58.5 -155t-156.5 -58q-170 0 -188 196h40q22 -146 138 -146z" />
    <glyph glyph-name="K" unicode="K" horiz-adv-x="664" 
d="M209 660v-660h-101v660h101zM619 0h-134l-269 331l319 329h71l-297 -300z" />
    <glyph glyph-name="L" unicode="L" horiz-adv-x="537" 
d="M108 0v660h101v-610h298v-50h-399z" />
    <glyph glyph-name="M" unicode="M" horiz-adv-x="849" 
d="M408 -5h-34l-211 528v-523h-55v660h112l198 -508l219 508h104v-660h-101v534z" />
    <glyph glyph-name="N" unicode="N" horiz-adv-x="732" 
d="M624 -5h-44l-417 559v-554h-55v660h98l363 -487v487h55v-665z" />
    <glyph glyph-name="O" unicode="O" horiz-adv-x="724" 
d="M362 -10q-141 0 -223 95t-82 238q0 144 83 245.5t222 101.5t222 -101.5t83 -245.5q0 -143 -82 -238t-223 -95zM362 40q95 0 146.5 63t51.5 220q0 155 -53 226t-145 71t-145 -71t-53 -226q0 -157 51.5 -220t146.5 -63z" />
    <glyph glyph-name="P" unicode="P" horiz-adv-x="593" 
d="M318 610h-109v-272h109q127 0 127 136t-127 136zM318 288h-109v-288h-101v660h210q110 0 171.5 -48t61.5 -138q0 -88 -62 -137t-171 -49z" />
    <glyph glyph-name="Q" unicode="Q" horiz-adv-x="724" 
d="M664 -190h-156l-121 181q-8 -1 -25 -1q-141 0 -223 95t-82 238q0 144 83 245.5t222 101.5t222 -101.5t83 -245.5q0 -119 -59 -207.5t-163 -115.5zM560 323q0 155 -53 226t-145 71t-145 -71t-53 -226q0 -157 51.5 -220t146.5 -63t146.5 63t51.5 220z" />
    <glyph glyph-name="R" unicode="R" horiz-adv-x="647" 
d="M318 610h-109v-261h137q42 0 70.5 31.5t28.5 100.5q0 129 -127 129zM483 0l-203 299h-71v-299h-101v660h210q110 0 171.5 -45t61.5 -128q0 -66 -44.5 -116t-121.5 -65l218 -306h-120z" />
    <glyph glyph-name="S" unicode="S" horiz-adv-x="551" 
d="M296 623q-51 0 -81.5 -28.5t-30.5 -75.5t27 -77.5t101 -65.5q98 -47 138.5 -90t40.5 -116q0 -79 -59.5 -129.5t-156.5 -50.5q-195 0 -211 176h40q14 -72 54 -100.5t112 -28.5q58 0 92 29t34 83q0 50 -28.5 80t-112.5 66q-87 38 -123.5 82.5t-36.5 114.5q0 73 53.5 125.5
t140.5 52.5q156 0 178 -159h-40q-21 112 -131 112z" />
    <glyph glyph-name="T" unicode="T" horiz-adv-x="639" 
d="M609 610h-239v-610h-101v610h-239v50h579v-50z" />
    <glyph glyph-name="U" unicode="U" horiz-adv-x="712" 
d="M553 226v434h61v-425q0 -120 -68.5 -182.5t-179.5 -62.5q-268 0 -268 260v410h100v-410q0 -108 48.5 -157t131.5 -49q72 0 123.5 45.5t51.5 136.5z" />
    <glyph glyph-name="V" unicode="V" horiz-adv-x="622" 
d="M327 -5h-34l-273 665h111l207 -516l207 516h57z" />
    <glyph glyph-name="W" unicode="W" horiz-adv-x="935" 
d="M272 -5h-36l-206 665h110l147 -496l201 496h33l179 -476l144 476h61l-208 -665h-34l-187 488z" />
    <glyph glyph-name="X" unicode="X" horiz-adv-x="641" 
d="M489 0l-181 279l-202 -279h-70l241 327l-222 333h116l166 -259l173 259h70l-211 -307l236 -353h-116z" />
    <glyph glyph-name="Y" unicode="Y" horiz-adv-x="622" 
d="M365 0h-101v299l-239 361h112l201 -301l193 301h66l-232 -351v-309z" />
    <glyph glyph-name="Z" unicode="Z" horiz-adv-x="628" 
d="M60 0v30l363 580h-352v50h473v-32l-361 -578h385v-50h-508z" />
    <glyph glyph-name="bracketleft" unicode="[" horiz-adv-x="359" 
d="M329 669h-156v-786h156v-39h-209v864h209v-39z" />
    <glyph glyph-name="backslash" unicode="\" horiz-adv-x="275" 
d="M13 670h53l197 -720h-53z" />
    <glyph glyph-name="bracketright" unicode="]" horiz-adv-x="359" 
d="M30 -156v39h156v786h-156v39h209v-864h-209z" />
    <glyph glyph-name="asciicircum" unicode="^" 
d="M380 270l-115 306l-124 -306h-39l159 390h38l149 -390h-68z" />
    <glyph glyph-name="underscore" unicode="_" horiz-adv-x="500" 
d="M500 -150h-500v63h500v-63z" />
    <glyph glyph-name="grave" unicode="`" horiz-adv-x="500" 
d="M273 697l65 -150h-27l-149 150h111z" />
    <glyph glyph-name="a" unicode="a" horiz-adv-x="486" 
d="M217 33q39 0 72 33t33 63v89l-76 -15q-52 -10 -76 -32t-24 -67q0 -33 18 -52t53 -19zM322 0v70q-18 -34 -53 -57.5t-84 -23.5q-62 0 -96 28t-34 80q0 59 38 88.5t114 44.5l115 22v51q0 52 -29.5 78.5t-73.5 26.5q-42 0 -72 -24.5t-34 -66.5h-24q4 70 45.5 106.5
t109.5 36.5q81 0 124 -45.5t43 -111.5v-303h-89z" />
    <glyph glyph-name="b" unicode="b" horiz-adv-x="587" 
d="M316 -11q-44 0 -85.5 25.5t-61.5 76.5v-91h-89v735h89v-380q21 53 66 79t91 26q96 0 156 -68.5t60 -167.5q0 -98 -62 -166.5t-164 -68.5zM169 225q0 -92 41.5 -141.5t99.5 -49.5q69 0 102.5 43t33.5 147q0 103 -32.5 147t-94.5 44q-64 0 -107 -48.5t-43 -141.5z" />
    <glyph glyph-name="c" unicode="c" horiz-adv-x="480" 
d="M280 41q48 0 86 25.5t46 78.5h25q-4 -65 -52 -110.5t-126 -45.5q-95 0 -154.5 62t-59.5 170q0 101 59 170t153 69q80 0 127.5 -46t51.5 -112h-26q-8 55 -46 81t-87 26q-62 0 -99 -44t-37 -135q0 -103 39 -146t100 -43z" />
    <glyph glyph-name="d" unicode="d" horiz-adv-x="586" 
d="M417 224q0 92 -41.5 141.5t-98.5 49.5q-68 0 -102 -43t-34 -147q0 -103 32.5 -147t94.5 -44q63 0 106 48.5t43 141.5zM417 0v96q-21 -53 -70.5 -80t-97.5 -27q-94 0 -149 68t-55 168q0 99 56.5 167t157.5 68q46 0 91.5 -26t66.5 -78v379h89v-735h-89z" />
    <glyph glyph-name="e" unicode="e" horiz-adv-x="501" 
d="M261 418q-106 0 -118 -144h216q0 144 -98 144zM448 145q-4 -65 -53.5 -110.5t-127.5 -45.5q-101 0 -161.5 61t-60.5 172q1 100 58.5 169t150.5 69q95 0 148.5 -60.5t53.5 -161.5h-315v-8q0 -189 147 -189q49 0 87.5 25.5t47.5 78.5h25z" />
    <glyph glyph-name="f" unicode="f" horiz-adv-x="358" 
d="M315 450v-36h-122v-414h-89v414h-91v36h91v70q0 113 43 169t118 56q56 0 89.5 -34t37.5 -94h-26q-14 98 -101 98q-45 0 -77 -30q-31 -30 -31 -102q0 -71 32 -133h126z" />
    <glyph glyph-name="g" unicode="g" horiz-adv-x="514" 
d="M162 287q0 -71 23 -99.5t67 -28.5q88 0 88 135q0 71 -22.5 99.5t-65.5 28.5q-90 0 -90 -135zM476 -86q0 -82 -72 -123t-190 -41q-84 0 -132.5 25.5t-48.5 71.5q0 24 12.5 45.5t26.5 33.5t40 31q-59 31 -59 89q0 68 75 114q-60 48 -60 127q0 70 50.5 121.5t133.5 51.5
q79 0 129 -44l112 62h3v-84q-54 0 -91 -4q31 -42 31 -96q0 -71 -50.5 -122t-133.5 -51q-57 0 -99 22q-44 -27 -44 -62q0 -30 24 -41.5t77 -11.5h93q173 0 173 -114zM234 -206q76 0 122 24.5t46 64.5q0 30 -21.5 44t-77.5 14h-116q-26 0 -47 6q-43 -34 -43 -82
q0 -38 29 -54.5t108 -16.5z" />
    <glyph glyph-name="h" unicode="h" horiz-adv-x="569" 
d="M170 358q12 39 54 70.5t105 31.5q78 0 121.5 -43t43.5 -114v-303h-91v282q0 127 -105 127q-56 0 -92 -43t-36 -89v-277h-90v735h90v-377z" />
    <glyph glyph-name="i" unicode="i" horiz-adv-x="250" 
d="M170 673v-87h-90v87h90zM170 450v-450h-90v450h90z" />
    <glyph glyph-name="j" unicode="j" horiz-adv-x="253" 
d="M170 673v-87h-90v87h90zM170 450v-409q0 -23 1.5 -67.5t1.5 -58.5q0 -78 -36 -121.5t-103 -43.5q-27 0 -39 3v32q10 -2 19 -2q70 0 70 113q0 12 -2 64.5t-2 83.5v406h90z" />
    <glyph glyph-name="k" unicode="k" horiz-adv-x="510" 
d="M170 736v-736h-90v736h90zM486 0h-116l-187 235q174 167 219 215h81l-221 -187z" />
    <glyph glyph-name="l" unicode="l" horiz-adv-x="250" 
d="M170 735v-735h-90v735h90z" />
    <glyph glyph-name="m" unicode="m" horiz-adv-x="868" 
d="M170 277v-277h-90v450h90v-92q12 40 51.5 71t101.5 31t101.5 -30t52.5 -82q16 49 56.5 80.5t102.5 31.5q74 0 115.5 -43t41.5 -114v-303h-89v282q0 127 -100 127q-54 0 -88 -43t-34 -89v-277h-89v282q0 127 -102 127q-53 0 -87 -43t-34 -89z" />
    <glyph glyph-name="n" unicode="n" horiz-adv-x="569" 
d="M170 358q12 39 54 70.5t105 31.5q78 0 121.5 -43t43.5 -114v-303h-90v282q0 127 -106 127q-56 0 -92 -43t-36 -89v-277h-90v450h90v-92z" />
    <glyph glyph-name="o" unicode="o" horiz-adv-x="531" 
d="M45 224q0 97 60.5 166.5t160.5 69.5q101 0 160.5 -66.5t59.5 -167.5q0 -97 -60 -167t-160 -70q-101 0 -161 67t-60 168zM141 224q0 -111 32 -152t93 -41q60 0 92.5 44t32.5 151q0 111 -31.5 151.5t-93.5 40.5q-60 0 -92.5 -43.5t-32.5 -150.5z" />
    <glyph glyph-name="p" unicode="p" horiz-adv-x="587" 
d="M170 225q0 -92 41.5 -141.5t98.5 -49.5q69 0 102.5 43t33.5 147q0 103 -32.5 147t-93.5 44q-64 0 -107 -48.5t-43 -141.5zM316 -11q-45 0 -86 25.5t-60 76.5v-331h-90v690h90v-94q20 52 64.5 78t91.5 26q96 0 156 -68.5t60 -167.5q0 -98 -62 -166.5t-164 -68.5z" />
    <glyph glyph-name="q" unicode="q" horiz-adv-x="586" 
d="M506 -240h-89v336q-21 -53 -70.5 -80t-97.5 -27q-94 0 -149 68t-55 168q0 99 56.5 167t157.5 68q46 0 91.5 -26t66.5 -78v94h89v-690zM417 224q0 92 -41.5 141.5t-98.5 49.5q-68 0 -102 -43t-34 -147q0 -103 32.5 -147t94.5 -44q63 0 106 48.5t43 141.5z" />
    <glyph glyph-name="r" unicode="r" horiz-adv-x="382" 
d="M170 357q55 103 158 103q12 0 30 -2v-83q-23 4 -66 4q-57 0 -89.5 -24t-32.5 -61v-294h-90v450h90v-93z" />
    <glyph glyph-name="s" unicode="s" horiz-adv-x="423" 
d="M228 420q-44 0 -66.5 -19t-22.5 -51q0 -34 22.5 -51.5t75.5 -37.5q36 -13 54 -21t42 -24.5t34.5 -40t10.5 -55.5q0 -62 -48 -96.5t-122 -34.5q-72 0 -118.5 36.5t-49.5 101.5h27q7 -51 44 -73.5t90 -22.5q95 0 95 68q0 17 -6 29.5t-25 23.5t-31 16.5t-45 18.5
q-62 24 -94.5 53.5t-32.5 85.5q0 57 42.5 95.5t112.5 38.5q71 0 110.5 -39t42.5 -103h-28q-7 50 -37 76t-77 26z" />
    <glyph glyph-name="t" unicode="t" horiz-adv-x="405" 
d="M362 116q-8 -127 -117 -127q-138 0 -138 168v257h-87v36h87q24 21 46.5 75.5t23.5 104.5h19v-180h146v-36h-146v-279q0 -105 69 -105q58 0 69 86h28z" />
    <glyph glyph-name="u" unicode="u" horiz-adv-x="558" 
d="M389 92q-13 -40 -53.5 -71.5t-100.5 -31.5q-76 0 -118 43t-42 114v304h90v-282q0 -127 102 -127q52 0 87 43t35 89v277h89v-450h-89v92z" />
    <glyph glyph-name="v" unicode="v" horiz-adv-x="481" 
d="M229 -5l-209 455h97l150 -334l143 334h51l-197 -455h-35z" />
    <glyph glyph-name="w" unicode="w" horiz-adv-x="751" 
d="M198 -5l-178 455h95l122 -327l131 329h35l157 -333l120 331h51l-171 -455h-35l-157 332l-136 -332h-34z" />
    <glyph glyph-name="x" unicode="x" horiz-adv-x="510" 
d="M370 0l-137 187l-140 -187h-58l170 221l-165 229h104l118 -165l123 165h58l-153 -198l185 -252h-105z" />
    <glyph glyph-name="y" unicode="y" horiz-adv-x="477" 
d="M48 -250v77q73 1 104 18t52 71l31 81l-215 453h95l163 -338l128 338h51l-204 -521q-38 -98 -77.5 -138.5t-127.5 -40.5z" />
    <glyph glyph-name="z" unicode="z" horiz-adv-x="457" 
d="M40 0v31l262 383h-252v36h355v-31l-264 -384h276v-35h-377z" />
    <glyph glyph-name="braceleft" unicode="{" horiz-adv-x="359" 
d="M132 274q49 -3 73.5 -35t24.5 -64t-19 -90.5t-19 -107.5q0 -94 87 -94h50v-39h-50q-68 0 -101.5 37t-33.5 98q0 52 19.5 110.5t19.5 84.5q0 31 -21 56t-63 25h-65v43h65q42 0 63 25.5t21 55.5q0 26 -19.5 85t-19.5 110q0 61 33.5 97.5t101.5 36.5h50v-39h-50
q-87 0 -87 -93q0 -48 19 -106.5t19 -91.5q0 -31 -24.5 -63t-73.5 -37v-4z" />
    <glyph glyph-name="bar" unicode="|" horiz-adv-x="275" 
d="M106 -250v1000h63v-1000h-63z" />
    <glyph glyph-name="braceright" unicode="}" horiz-adv-x="359" 
d="M227 274v4q-49 5 -73.5 37t-24.5 63q0 33 19 91.5t19 106.5q0 93 -87 93h-50v39h50q68 0 101.5 -36.5t33.5 -97.5q0 -51 -19.5 -110t-19.5 -85q0 -30 21 -55.5t63 -25.5h65v-43h-65q-42 0 -63 -25t-21 -56q0 -26 19.5 -84.5t19.5 -110.5q0 -61 -33.5 -98t-101.5 -37h-50
v39h50q87 0 87 94q0 49 -19 107.5t-19 90.5t24.5 64t73.5 35z" />
    <glyph glyph-name="asciitilde" unicode="~" 
d="M368 163q-32 0 -60 13.5t-45.5 30t-41.5 30t-49 13.5q-63 0 -63 -87h-29q0 149 102 149q37 0 73 -22t67 -43.5t56 -21.5q63 0 63 87h29q0 -149 -102 -149z" />
    <glyph glyph-name="exclamdown" unicode="&#xa1;" horiz-adv-x="275" 
d="M85 319v106h106v-106h-106zM82 -235q0 93 16.5 212.5t16.5 237.5h45q0 -118 16.5 -237.5t16.5 -212.5h-111z" />
    <glyph glyph-name="cent" unicode="&#xa2;" 
d="M190 310q0 -121 60 -165l57 335q-117 -9 -117 -170zM294 80h-12l-22 -131h-43l23 137q-68 16 -109.5 71.5t-41.5 142.5q0 100 56.5 162.5t152.5 62.5q11 0 17 -1l22 130h43l-23 -137q51 -15 81 -54.5t33 -88.5h-29q-16 86 -92 103l-60 -349q14 -3 27 -3q41 0 76 27.5
t44 78.5h29q-4 -63 -50 -107t-122 -44z" />
    <glyph glyph-name="sterling" unicode="&#xa3;" 
d="M492 87v-88h-413v35q90 63 122.5 101t32.5 83q0 37 -32 76h-143v43h104q-33 36 -52 72t-19 86q0 75 55.5 125t151.5 50q77 0 127.5 -51t55.5 -141h-38q-6 73 -43.5 107t-92.5 34q-61 0 -96 -28t-35 -74q0 -36 16 -65.5t50 -66t43 -48.5h158v-43h-134q7 -21 7 -40
q0 -86 -105 -167h280z" />
    <glyph glyph-name="currency" unicode="&#xa4;" 
d="M429 39l-68 68q-38 -23 -86 -23q-51 0 -85 23l-68 -68l-40 43l66 66q-25 35 -25 85q0 48 25 87l-66 66l41 42l68 -68q36 22 85 22q48 0 84 -22l68 68l41 -42l-67 -67q25 -37 25 -86q0 -47 -24 -85l66 -66zM275 124q86 0 86 109t-86 109t-86 -109t86 -109z" />
    <glyph glyph-name="yen" unicode="&#xa5;" 
d="M504 144h-174v-144h-95v144h-177v43h177v107h-177v43h162l-180 323h111l152 -283l141 283h61l-165 -323h163v-43h-173v-107h174v-43z" />
    <glyph glyph-name="brokenbar" unicode="&#xa6;" horiz-adv-x="275" 
d="M106 350v400h63v-400h-63zM106 -250v400h63v-400h-63z" />
    <glyph glyph-name="section" unicode="&#xa7;" horiz-adv-x="525" 
d="M253 200q62 -24 96 -54q56 18 56 83q0 39 -28 61.5t-104 51.5q-62 24 -96 54q-56 -18 -56 -83q0 -39 28 -61.5t104 -51.5zM246 -128q-62 0 -95.5 36t-35.5 95h27q14 -95 93 -95q43 0 66 22.5t23 56.5q0 44 -26 72t-93 54q-80 30 -114.5 71t-34.5 103q0 47 25.5 84
t69.5 53q-29 38 -29 93q0 70 46 111.5t112 41.5q62 0 95.5 -36t35.5 -95h-27q-14 95 -93 95q-43 0 -66 -22.5t-23 -56.5q0 -43 26 -71.5t93 -54.5q80 -30 114.5 -71t34.5 -103q0 -47 -25.5 -84t-69.5 -53q29 -38 29 -93q0 -70 -46 -111.5t-112 -41.5z" />
    <glyph glyph-name="dieresis" unicode="&#xa8;" horiz-adv-x="500" 
d="M220 668v-77h-80v77h80zM361 668v-77h-80v77h80z" />
    <glyph glyph-name="copyright" unicode="&#xa9;" horiz-adv-x="744" 
d="M372 647q129 0 215.5 -87t86.5 -230t-86.5 -230t-215.5 -87t-215.5 87t-86.5 230t86.5 230t215.5 87zM372 601q-108 0 -176 -73.5t-68 -197.5t68 -197.5t176 -73.5t176 73.5t68 197.5t-68 197.5t-176 73.5zM374 519q54 0 90.5 -30.5t43.5 -86.5h-37q-6 35 -29.5 54.5
t-57.5 19.5q-43 0 -69 -37t-26 -114q0 -76 28 -113t75 -37q34 0 57 21.5t30 63.5h37q-8 -64 -44.5 -96t-92.5 -32q-79 0 -122.5 50t-43.5 139q0 91 43 144.5t118 53.5z" />
    <glyph glyph-name="ordfeminine" unicode="&#xaa;" horiz-adv-x="317" 
d="M145 341q23 0 40.5 20.5t17.5 40.5v35l-40 -8q-28 -6 -42 -17.5t-14 -35.5q0 -35 38 -35zM203 310v40q-23 -47 -78 -47q-39 0 -62.5 18t-23.5 50q0 65 99 84l65 14v28q0 28 -16.5 43.5t-43.5 15.5q-24 0 -41 -14.5t-20 -39.5h-25q2 43 31.5 67t74.5 24q54 0 81.5 -27.5
t27.5 -68.5v-187h-69zM270 206h-222v40h222v-40z" />
    <glyph glyph-name="guillemotleft" unicode="&#xab;" 
d="M152 223l139 -202h-31l-201 188v28l201 188h31zM352 223l139 -202h-31l-201 188v28l201 188h31z" />
    <glyph glyph-name="logicalnot" unicode="&#xac;" 
d="M470 37h-63v153h-327v63h390v-216z" />
    <glyph glyph-name="registered" unicode="&#xae;" horiz-adv-x="492" 
d="M246 282q-83 0 -139.5 56.5t-56.5 148.5t56.5 148.5t139.5 56.5t139.5 -56.5t56.5 -148.5t-56.5 -148.5t-139.5 -56.5zM246 316q69 0 112.5 46t43.5 125t-43.5 125.5t-112.5 46.5t-113 -46.5t-44 -125.5t44 -125t113 -46zM248 577h-34v-75h44q9 0 18.5 10.5t9.5 26.5
q0 18 -11.5 28t-26.5 10zM292 374l-60 102h-18v-102h-49v231h83q40 0 64.5 -17.5t24.5 -45.5q0 -21 -14 -37.5t-39 -23.5l66 -107h-58z" />
    <glyph glyph-name="macron" unicode="&#xaf;" horiz-adv-x="500" 
d="M125 655h251v-51h-251v51z" />
    <glyph glyph-name="degree" unicode="&#xb0;" horiz-adv-x="348" 
d="M174 380q-68 0 -106 38.5t-38 100.5q0 60 39 105.5t105 45.5q67 0 105.5 -41.5t38.5 -103.5q0 -59 -39 -102t-105 -43zM174 422q72 0 72 103q0 58 -18.5 81t-53.5 23q-72 0 -72 -104q0 -57 18.5 -80t53.5 -23z" />
    <glyph glyph-name="plusminus" unicode="&#xb1;" 
d="M470 0h-390v63h164v137h-164v63h164v164h63v-164h163v-63h-163v-137h163v-63z" />
    <glyph glyph-name="twosuperior" unicode="&#xb2;" horiz-adv-x="355" 
d="M155 704q-36 0 -58 -23t-23 -67h-36q1 64 38 97.5t92 33.5q61 0 97.5 -32.5t36.5 -88.5q0 -20 -5.5 -38.5t-12 -32.5t-24.5 -37t-30.5 -36.5t-43.5 -47t-51 -55.5h182v-67h-272v22l72 81q3 3 15.5 17t16 18t14.5 17.5t15 19.5t12.5 19.5t12 22t9.5 22t8 25t4 26t2 29.5
q0 75 -71 75z" />
    <glyph glyph-name="threesuperior" unicode="&#xb3;" horiz-adv-x="352" 
d="M171 300q-60 0 -98 33t-39 98h36q1 -44 25.5 -67t62.5 -23q40 0 62.5 22.5t22.5 63.5q0 50 -17.5 66.5t-49.5 16.5h-46v41h46q24 0 39.5 19t15.5 57q0 36 -20 56.5t-52 20.5q-35 0 -56 -23t-22 -67h-36q1 65 37.5 98t93.5 33q61 0 96 -30t35 -78q0 -66 -54 -104
q31 -17 48.5 -45t17.5 -61q0 -51 -40.5 -89t-107.5 -38z" />
    <glyph glyph-name="acute" unicode="&#xb4;" horiz-adv-x="500" 
d="M227 698h111l-149 -150h-27z" />
    <glyph glyph-name="mu" unicode="&#xb5;" horiz-adv-x="566" 
d="M252 -11q-54 0 -81 32v-211h-91v640h91v-282q0 -69 26 -98t75 -29q52 0 87 43t35 89v277h89v-450h-89v92q-13 -39 -52 -71t-90 -32z" />
    <glyph glyph-name="paragraph" unicode="&#xb6;" horiz-adv-x="525" 
d="M326 -111h-45v332h-23q-98 0 -158.5 64t-60.5 153q0 92 58.5 157t160.5 65h68v-771zM384 660h45v-771h-45v771z" />
    <glyph glyph-name="periodcentered" unicode="&#xb7;" horiz-adv-x="275" 
d="M84 188v106h106v-106h-106z" />
    <glyph glyph-name="cedilla" unicode="&#xb8;" horiz-adv-x="500" 
d="M244 -199q-66 0 -69 58h32q5 -26 35 -26q15 0 25 11t10 30q0 44 -33 44q-22 0 -33 -19h-37l36 101h36l-24 -63q14 11 36 11q31 0 50 -18.5t19 -55.5q0 -34 -21 -53.5t-62 -19.5z" />
    <glyph glyph-name="onesuperior" unicode="&#xb9;" horiz-adv-x="344" 
d="M162 310v344l-96 -82l-21 40l156 123h33v-425h-72z" />
    <glyph glyph-name="ordmasculine" unicode="&#xba;" horiz-adv-x="342" 
d="M27 442q0 60 39 105.5t105 45.5q67 0 105.5 -41.5t38.5 -103.5q0 -59 -39 -102t-105 -43q-68 0 -106 38.5t-38 100.5zM99 448q0 -60 18 -83.5t54 -23.5q72 0 72 107q0 60 -18 84t-54 24q-72 0 -72 -108zM288 206h-235v40h235v-40z" />
    <glyph glyph-name="guillemotright" unicode="&#xbb;" 
d="M198 223l-139 202h31l201 -188v-28l-201 -188h-31zM398 223l-139 202h31l201 -188v-28l-201 -188h-31z" />
    <glyph glyph-name="onequarter" unicode="&#xbc;" horiz-adv-x="777" 
d="M278 0h-55l287 660h55zM162 235v344l-96 -82l-21 40l156 123h33v-425h-72zM763 101h-82v-101h-68v101h-174v29q68 97 97 150t33 75t4 70h79q0 -20 -4 -37t-9 -31t-21.5 -38.5t-29 -42.5t-44 -61t-55.5 -77h124v64q15 16 24.5 47t9.5 60h34v-171h82v-37z" />
    <glyph glyph-name="onehalf" unicode="&#xbd;" horiz-adv-x="807" 
d="M278 0h-55l287 660h55zM162 235v344l-96 -82l-21 40l156 123h33v-425h-72zM615 394q-36 0 -58 -23t-23 -67h-36q1 64 38 97.5t92 33.5q61 0 97.5 -32.5t36.5 -88.5q0 -20 -5.5 -38.5t-12 -32.5t-24.5 -37t-30.5 -36.5t-43.5 -47t-51 -55.5h182v-67h-272v22l72 81
q3 3 15.5 17t16 18t14.5 17.5t15 19.5t12.5 19.5t12 22t9.5 22t8 25t4 26t2 29.5q0 75 -71 75z" />
    <glyph glyph-name="threequarters" unicode="&#xbe;" horiz-adv-x="807" 
d="M308 0h-55l287 660h55zM171 225q-60 0 -98 33t-39 98h36q1 -44 25.5 -67t62.5 -23q40 0 62.5 22.5t22.5 63.5q0 50 -17.5 66.5t-49.5 16.5h-46v41h46q24 0 39.5 19t15.5 57q0 36 -20 56.5t-52 20.5q-35 0 -56 -23t-22 -67h-36q1 65 37.5 98t93.5 33q61 0 96 -30t35 -78
q0 -66 -54 -104q31 -17 48.5 -45t17.5 -61q0 -51 -40.5 -89t-107.5 -38zM793 101h-82v-101h-68v101h-174v29q68 97 97 150t33 75t4 70h79q0 -20 -4 -37t-9 -31t-21.5 -38.5t-29 -42.5t-44 -61t-55.5 -77h124v64q15 16 24.5 47t9.5 60h34v-171h82v-37z" />
    <glyph glyph-name="questiondown" unicode="&#xbf;" horiz-adv-x="465" 
d="M209 319v106h106v-106h-106zM275 -195q53 0 86 29t36 88h39q0 -77 -52 -122.5t-130 -45.5q-80 0 -133 42.5t-53 108.5q0 37 13 67t28 45.5t42 39t39 36.5q33 35 39.5 50.5t6.5 70.5h55q0 -68 -8.5 -87.5t-53.5 -67.5q-32 -35 -45.5 -65t-13.5 -78q0 -111 105 -111z" />
    <glyph glyph-name="Agrave" unicode="&#xc0;" horiz-adv-x="622" 
d="M232 830l85 -120h-27l-169 120h111zM389 251l-106 260l-102 -260h208zM491 0l-82 201h-248l-80 -201h-61l272 665h34l276 -665h-111z" />
    <glyph glyph-name="Aacute" unicode="&#xc1;" horiz-adv-x="622" 
d="M385 830h111l-169 -120h-27zM389 251l-106 260l-102 -260h208zM491 0l-82 201h-248l-80 -201h-61l272 665h34l276 -665h-111z" />
    <glyph glyph-name="Acircumflex" unicode="&#xc2;" horiz-adv-x="622" 
d="M309 753l-90 -43h-27l109 120h16l109 -120h-27zM389 251l-106 260l-102 -260h208zM491 0l-82 201h-248l-80 -201h-61l272 665h34l276 -665h-111z" />
    <glyph glyph-name="Atilde" unicode="&#xc3;" horiz-adv-x="622" 
d="M398 830h35q0 -61 -15 -90.5t-55 -29.5q-25 0 -43 9.5t-26 20.5t-19.5 20.5t-24.5 9.5q-19 0 -24 -14t-5 -46h-35q0 61 15 90.5t55 29.5q26 0 46 -15t35.5 -30t31.5 -15q19 0 24 14t5 46zM389 251l-106 260l-102 -260h208zM491 0l-82 201h-248l-80 -201h-61l272 665h34
l276 -665h-111z" />
    <glyph glyph-name="Adieresis" unicode="&#xc4;" horiz-adv-x="622" 
d="M278 813v-77h-80v77h80zM419 813v-77h-80v77h80zM389 251l-106 260l-102 -260h208zM491 0l-82 201h-248l-80 -201h-61l272 665h34l276 -665h-111z" />
    <glyph glyph-name="Aring" unicode="&#xc5;" horiz-adv-x="622" 
d="M309 710q-45 0 -70.5 16t-25.5 44q0 27 26 43.5t70 16.5t70 -16.5t26 -43.5q0 -28 -25.5 -44t-70.5 -16zM309 733q42 0 42 37t-42 37t-42 -37t42 -37zM389 251l-106 260l-102 -260h208zM491 0l-82 201h-248l-80 -201h-61l272 665h34l276 -665h-111z" />
    <glyph glyph-name="AE" unicode="&#xc6;" horiz-adv-x="903" 
d="M438 281v296l-186 -296h186zM438 0v231h-217l-145 -231h-66l418 660h388v-50h-277v-255h257v-50h-257v-255h298v-50h-399z" />
    <glyph glyph-name="Ccedilla" unicode="&#xc7;" horiz-adv-x="661" 
d="M352 -199q-66 0 -69 58h32q5 -26 35 -26q15 0 25 11t10 30q0 44 -33 44q-22 0 -33 -19h-37l33 94q-121 15 -189.5 105t-68.5 225q0 149 79 248t213 99q97 0 164.5 -52t80.5 -144h-40q-14 70 -66 108t-124 38q-200 0 -200 -297q0 -146 56.5 -214.5t154.5 -68.5
q74 0 124.5 38t61.5 108h40q-13 -92 -78.5 -144t-161.5 -52h-11l-20 -53q14 11 36 11q31 0 50 -18.5t19 -55.5q0 -34 -21 -53.5t-62 -19.5z" />
    <glyph glyph-name="Egrave" unicode="&#xc8;" horiz-adv-x="573" 
d="M237 830l85 -120h-27l-169 120h111zM108 0v660h378v-50h-277v-255h257v-50h-257v-255h298v-50h-399z" />
    <glyph glyph-name="Eacute" unicode="&#xc9;" horiz-adv-x="573" 
d="M339 830h111l-169 -120h-27zM108 0v660h378v-50h-277v-255h257v-50h-257v-255h298v-50h-399z" />
    <glyph glyph-name="Ecircumflex" unicode="&#xca;" horiz-adv-x="573" 
d="M308 753l-90 -43h-27l109 120h16l109 -120h-27zM108 0v660h378v-50h-277v-255h257v-50h-257v-255h298v-50h-399z" />
    <glyph glyph-name="Edieresis" unicode="&#xcb;" horiz-adv-x="573" 
d="M277 813v-77h-80v77h80zM418 813v-77h-80v77h80zM108 0v660h378v-50h-277v-255h257v-50h-257v-255h298v-50h-399z" />
    <glyph glyph-name="Igrave" unicode="&#xcc;" horiz-adv-x="317" 
d="M87 830l85 -120h-27l-169 120h111zM209 660v-660h-101v660h101z" />
    <glyph glyph-name="Iacute" unicode="&#xcd;" horiz-adv-x="317" 
d="M229 830h111l-169 -120h-27zM209 660v-660h-101v660h101z" />
    <glyph glyph-name="Icircumflex" unicode="&#xce;" horiz-adv-x="317" 
d="M158 753l-90 -43h-27l109 120h16l109 -120h-27zM209 660v-660h-101v660h101z" />
    <glyph glyph-name="Idieresis" unicode="&#xcf;" horiz-adv-x="317" 
d="M127 813v-77h-80v77h80zM268 813v-77h-80v77h80zM209 660v-660h-101v660h101z" />
    <glyph glyph-name="Eth" unicode="&#xd0;" horiz-adv-x="722" 
d="M393 300h-164v-250h151q95 0 146.5 63t51.5 219q0 278 -198 278h-151v-260h164v-50zM128 0v300h-70v50h70v310h252q140 0 222.5 -96t82.5 -233q0 -141 -82.5 -236t-222.5 -95h-252z" />
    <glyph glyph-name="Ntilde" unicode="&#xd1;" horiz-adv-x="732" 
d="M466 830h35q0 -61 -15 -90.5t-55 -29.5q-25 0 -43 9.5t-26 20.5t-19.5 20.5t-24.5 9.5q-19 0 -24 -14t-5 -46h-35q0 61 15 90.5t55 29.5q26 0 46 -15t35.5 -30t31.5 -15q19 0 24 14t5 46zM624 -5h-44l-417 559v-554h-55v660h98l363 -487v487h55v-665z" />
    <glyph glyph-name="Ograve" unicode="&#xd2;" horiz-adv-x="724" 
d="M290 830l85 -120h-27l-169 120h111zM362 -10q-141 0 -223 95t-82 238q0 144 83 245.5t222 101.5t222 -101.5t83 -245.5q0 -143 -82 -238t-223 -95zM362 40q95 0 146.5 63t51.5 220q0 155 -53 226t-145 71t-145 -71t-53 -226q0 -157 51.5 -220t146.5 -63z" />
    <glyph glyph-name="Oacute" unicode="&#xd3;" horiz-adv-x="724" 
d="M432 830h111l-169 -120h-27zM362 -10q-141 0 -223 95t-82 238q0 144 83 245.5t222 101.5t222 -101.5t83 -245.5q0 -143 -82 -238t-223 -95zM362 40q95 0 146.5 63t51.5 220q0 155 -53 226t-145 71t-145 -71t-53 -226q0 -157 51.5 -220t146.5 -63z" />
    <glyph glyph-name="Ocircumflex" unicode="&#xd4;" horiz-adv-x="724" 
d="M361 753l-90 -43h-27l109 120h16l109 -120h-27zM362 -10q-141 0 -223 95t-82 238q0 144 83 245.5t222 101.5t222 -101.5t83 -245.5q0 -143 -82 -238t-223 -95zM362 40q95 0 146.5 63t51.5 220q0 155 -53 226t-145 71t-145 -71t-53 -226q0 -157 51.5 -220t146.5 -63z" />
    <glyph glyph-name="Otilde" unicode="&#xd5;" horiz-adv-x="724" 
d="M450 830h35q0 -61 -15 -90.5t-55 -29.5q-25 0 -43 9.5t-26 20.5t-19.5 20.5t-24.5 9.5q-19 0 -24 -14t-5 -46h-35q0 61 15 90.5t55 29.5q26 0 46 -15t35.5 -30t31.5 -15q19 0 24 14t5 46zM362 -10q-141 0 -223 95t-82 238q0 144 83 245.5t222 101.5t222 -101.5t83 -245.5
q0 -143 -82 -238t-223 -95zM362 40q95 0 146.5 63t51.5 220q0 155 -53 226t-145 71t-145 -71t-53 -226q0 -157 51.5 -220t146.5 -63z" />
    <glyph glyph-name="Odieresis" unicode="&#xd6;" horiz-adv-x="724" 
d="M330 813v-77h-80v77h80zM471 813v-77h-80v77h80zM362 -10q-141 0 -223 95t-82 238q0 144 83 245.5t222 101.5t222 -101.5t83 -245.5q0 -143 -82 -238t-223 -95zM362 40q95 0 146.5 63t51.5 220q0 155 -53 226t-145 71t-145 -71t-53 -226q0 -157 51.5 -220t146.5 -63z" />
    <glyph glyph-name="multiply" unicode="&#xd7;" 
d="M428 39l-153 154l-154 -154l-40 43l152 152l-152 152l41 42l153 -152l152 152l41 -42l-152 -152l152 -152z" />
    <glyph glyph-name="Oslash" unicode="&#xd8;" horiz-adv-x="724" 
d="M362 -10q-118 0 -199 71l-52 -61h-54l77 91q-77 92 -77 232q0 144 83 245.5t222 101.5q117 0 197 -75l54 65h54l-80 -95q80 -98 80 -242q0 -143 -82 -238t-223 -95zM164 323q0 -101 24 -168l324 386q-49 79 -150 79q-92 0 -145 -71t-53 -226zM362 40q95 0 146.5 63
t51.5 220q0 107 -27 178l-325 -386q47 -75 154 -75z" />
    <glyph glyph-name="Ugrave" unicode="&#xd9;" horiz-adv-x="712" 
d="M310 830l85 -120h-27l-169 120h111zM553 226v434h61v-425q0 -120 -68.5 -182.5t-179.5 -62.5q-268 0 -268 260v410h100v-410q0 -108 48.5 -157t131.5 -49q72 0 123.5 45.5t51.5 136.5z" />
    <glyph glyph-name="Uacute" unicode="&#xda;" horiz-adv-x="712" 
d="M412 830h111l-169 -120h-27zM553 226v434h61v-425q0 -120 -68.5 -182.5t-179.5 -62.5q-268 0 -268 260v410h100v-410q0 -108 48.5 -157t131.5 -49q72 0 123.5 45.5t51.5 136.5z" />
    <glyph glyph-name="Ucircumflex" unicode="&#xdb;" horiz-adv-x="712" 
d="M361 753l-90 -43h-27l109 120h16l109 -120h-27zM553 226v434h61v-425q0 -120 -68.5 -182.5t-179.5 -62.5q-268 0 -268 260v410h100v-410q0 -108 48.5 -157t131.5 -49q72 0 123.5 45.5t51.5 136.5z" />
    <glyph glyph-name="Udieresis" unicode="&#xdc;" horiz-adv-x="712" 
d="M330 813v-77h-80v77h80zM471 813v-77h-80v77h80zM553 226v434h61v-425q0 -120 -68.5 -182.5t-179.5 -62.5q-268 0 -268 260v410h100v-410q0 -108 48.5 -157t131.5 -49q72 0 123.5 45.5t51.5 136.5z" />
    <glyph glyph-name="Yacute" unicode="&#xdd;" horiz-adv-x="622" 
d="M375 830h111l-169 -120h-27zM365 0h-101v299l-239 361h112l201 -301l193 301h66l-232 -351v-309z" />
    <glyph glyph-name="Thorn" unicode="&#xde;" horiz-adv-x="603" 
d="M318 500h-109v-272h109q127 0 127 136t-127 136zM318 178h-109v-178h-101v660h101v-110h109q110 0 171.5 -48t61.5 -138q0 -88 -62 -137t-171 -49z" />
    <glyph glyph-name="germandbls" unicode="&#xdf;" horiz-adv-x="620" 
d="M428 -11q-69 0 -113 36.5t-46 100.5h27q13 -95 117 -95q37 0 58.5 17.5t21.5 51.5q0 35 -20.5 55.5t-71.5 39.5q-70 27 -101.5 64t-31.5 91q0 45 20 73.5t71 69.5q30 27 42 52.5t12 65.5q0 50 -26.5 77t-73.5 27q-62 0 -93.5 -46t-31.5 -162v-507h-89v414h-86v36h86v10
q0 286 214 286q97 0 140.5 -39t43.5 -89q0 -28 -13 -52.5t-27.5 -37.5t-41 -34.5t-37.5 -31.5q-23 -21 -31.5 -36.5t-8.5 -38.5q0 -40 22 -65.5t83 -50.5q71 -27 101.5 -60.5t30.5 -88.5q0 -61 -43 -97t-104 -36z" />
    <glyph glyph-name="agrave" unicode="&#xe0;" horiz-adv-x="486" 
d="M211 697l65 -150h-27l-149 150h111zM217 33q39 0 72 33t33 63v89l-76 -15q-52 -10 -76 -32t-24 -67q0 -33 18 -52t53 -19zM322 0v70q-18 -34 -53 -57.5t-84 -23.5q-62 0 -96 28t-34 80q0 59 38 88.5t114 44.5l115 22v51q0 52 -29.5 78.5t-73.5 26.5q-42 0 -72 -24.5
t-34 -66.5h-24q4 70 45.5 106.5t109.5 36.5q81 0 124 -45.5t43 -111.5v-303h-89z" />
    <glyph glyph-name="aacute" unicode="&#xe1;" horiz-adv-x="486" 
d="M293 698h111l-149 -150h-27zM217 33q39 0 72 33t33 63v89l-76 -15q-52 -10 -76 -32t-24 -67q0 -33 18 -52t53 -19zM322 0v70q-18 -34 -53 -57.5t-84 -23.5q-62 0 -96 28t-34 80q0 59 38 88.5t114 44.5l115 22v51q0 52 -29.5 78.5t-73.5 26.5q-42 0 -72 -24.5t-34 -66.5
h-24q4 70 45.5 106.5t109.5 36.5q81 0 124 -45.5t43 -111.5v-303h-89z" />
    <glyph glyph-name="acircumflex" unicode="&#xe2;" horiz-adv-x="486" 
d="M264 611l-90 -63h-27l109 150h16l109 -150h-27zM217 33q39 0 72 33t33 63v89l-76 -15q-52 -10 -76 -32t-24 -67q0 -33 18 -52t53 -19zM322 0v70q-18 -34 -53 -57.5t-84 -23.5q-62 0 -96 28t-34 80q0 59 38 88.5t114 44.5l115 22v51q0 52 -29.5 78.5t-73.5 26.5
q-42 0 -72 -24.5t-34 -66.5h-24q4 70 45.5 106.5t109.5 36.5q81 0 124 -45.5t43 -111.5v-303h-89z" />
    <glyph glyph-name="atilde" unicode="&#xe3;" horiz-adv-x="486" 
d="M313 559q-21 0 -38 12.5t-26 27t-21.5 27t-25.5 12.5q-29 0 -29 -79h-35q0 66 18 102.5t52 36.5q25 0 45 -20t36 -39.5t32 -19.5q29 0 29 79h35q0 -139 -72 -139zM217 33q39 0 72 33t33 63v89l-76 -15q-52 -10 -76 -32t-24 -67q0 -33 18 -52t53 -19zM322 0v70
q-18 -34 -53 -57.5t-84 -23.5q-62 0 -96 28t-34 80q0 59 38 88.5t114 44.5l115 22v51q0 52 -29.5 78.5t-73.5 26.5q-42 0 -72 -24.5t-34 -66.5h-24q4 70 45.5 106.5t109.5 36.5q81 0 124 -45.5t43 -111.5v-303h-89z" />
    <glyph glyph-name="adieresis" unicode="&#xe4;" horiz-adv-x="486" 
d="M231 668v-77h-80v77h80zM372 668v-77h-80v77h80zM217 33q39 0 72 33t33 63v89l-76 -15q-52 -10 -76 -32t-24 -67q0 -33 18 -52t53 -19zM322 0v70q-18 -34 -53 -57.5t-84 -23.5q-62 0 -96 28t-34 80q0 59 38 88.5t114 44.5l115 22v51q0 52 -29.5 78.5t-73.5 26.5
q-42 0 -72 -24.5t-34 -66.5h-24q4 70 45.5 106.5t109.5 36.5q81 0 124 -45.5t43 -111.5v-303h-89z" />
    <glyph glyph-name="aring" unicode="&#xe5;" horiz-adv-x="486" 
d="M261 548q-45 0 -70.5 19.5t-25.5 55.5q0 35 25.5 55t70.5 20t70.5 -20t25.5 -55q0 -36 -25.5 -55.5t-70.5 -19.5zM261 573q42 0 42 50t-42 50t-42 -50t42 -50zM217 33q39 0 72 33t33 63v89l-76 -15q-52 -10 -76 -32t-24 -67q0 -33 18 -52t53 -19zM322 0v70
q-18 -34 -53 -57.5t-84 -23.5q-62 0 -96 28t-34 80q0 59 38 88.5t114 44.5l115 22v51q0 52 -29.5 78.5t-73.5 26.5q-42 0 -72 -24.5t-34 -66.5h-24q4 70 45.5 106.5t109.5 36.5q81 0 124 -45.5t43 -111.5v-303h-89z" />
    <glyph glyph-name="ae" unicode="&#xe6;" horiz-adv-x="787" 
d="M548 418q-106 0 -118 -144h216q0 144 -98 144zM736 145q-5 -65 -54.5 -110.5t-127.5 -45.5q-131 0 -189 98q-16 -40 -59.5 -69t-107.5 -29q-61 0 -97 28.5t-36 80.5q0 59 38 88t114 44l115 23v51q0 52 -29.5 78t-72.5 26t-72.5 -24.5t-33.5 -66.5h-25q4 69 45.5 106
t110.5 37q95 0 139 -64q59 64 147 64q95 0 148 -60.5t53 -161.5h-314v-8q0 -189 147 -189q49 0 87.5 25.5t46.5 78.5h27zM227 34q41 0 76.5 22.5t50.5 51.5q-22 50 -22 110l-75 -15q-52 -10 -76.5 -31.5t-24.5 -66.5q0 -33 19.5 -52t51.5 -19z" />
    <glyph glyph-name="ccedilla" unicode="&#xe7;" horiz-adv-x="480" 
d="M261 -199q-66 0 -69 58h32q5 -26 35 -26q15 0 25 11t10 30q0 44 -33 44q-22 0 -33 -19h-37l33 92q-81 12 -130 72t-49 158q0 101 59 170t153 69q80 0 127.5 -46t51.5 -112h-26q-8 55 -46 81t-87 26q-62 0 -99 -44t-37 -135q0 -103 39 -146t100 -43q48 0 86 25.5t46 78.5
h25q-4 -65 -52 -110.5t-126 -45.5l-20 -52q14 11 36 11q31 0 50 -18.5t19 -55.5q0 -34 -21 -53.5t-62 -19.5z" />
    <glyph glyph-name="egrave" unicode="&#xe8;" horiz-adv-x="501" 
d="M204 697l65 -150h-27l-149 150h111zM261 418q-106 0 -118 -144h216q0 144 -98 144zM448 145q-4 -65 -53.5 -110.5t-127.5 -45.5q-101 0 -161.5 61t-60.5 172q1 100 58.5 169t150.5 69q95 0 148.5 -60.5t53.5 -161.5h-315v-8q0 -189 147 -189q49 0 87.5 25.5t47.5 78.5h25
z" />
    <glyph glyph-name="eacute" unicode="&#xe9;" horiz-adv-x="501" 
d="M306 698h111l-149 -150h-27zM261 418q-106 0 -118 -144h216q0 144 -98 144zM448 145q-4 -65 -53.5 -110.5t-127.5 -45.5q-101 0 -161.5 61t-60.5 172q1 100 58.5 169t150.5 69q95 0 148.5 -60.5t53.5 -161.5h-315v-8q0 -189 147 -189q49 0 87.5 25.5t47.5 78.5h25z" />
    <glyph glyph-name="ecircumflex" unicode="&#xea;" horiz-adv-x="501" 
d="M257 611l-90 -63h-27l109 150h16l109 -150h-27zM261 418q-106 0 -118 -144h216q0 144 -98 144zM448 145q-4 -65 -53.5 -110.5t-127.5 -45.5q-101 0 -161.5 61t-60.5 172q1 100 58.5 169t150.5 69q95 0 148.5 -60.5t53.5 -161.5h-315v-8q0 -189 147 -189q49 0 87.5 25.5
t47.5 78.5h25z" />
    <glyph glyph-name="edieresis" unicode="&#xeb;" horiz-adv-x="501" 
d="M224 668v-77h-80v77h80zM365 668v-77h-80v77h80zM261 418q-106 0 -118 -144h216q0 144 -98 144zM448 145q-4 -65 -53.5 -110.5t-127.5 -45.5q-101 0 -161.5 61t-60.5 172q1 100 58.5 169t150.5 69q95 0 148.5 -60.5t53.5 -161.5h-315v-8q0 -189 147 -189q49 0 87.5 25.5
t47.5 78.5h25z" />
    <glyph glyph-name="igrave" unicode="&#xec;" horiz-adv-x="250" 
d="M75 697l65 -150h-27l-149 150h111zM170 450v-450h-90v450h90z" />
    <glyph glyph-name="iacute" unicode="&#xed;" horiz-adv-x="250" 
d="M177 698h111l-149 -150h-27zM170 450v-450h-90v450h90z" />
    <glyph glyph-name="icircumflex" unicode="&#xee;" horiz-adv-x="250" 
d="M128 611l-90 -63h-27l109 150h16l109 -150h-27zM170 450v-450h-90v450h90z" />
    <glyph glyph-name="idieresis" unicode="&#xef;" horiz-adv-x="250" 
d="M95 668v-77h-80v77h80zM236 668v-77h-80v77h80zM170 450v-450h-90v450h90z" />
    <glyph glyph-name="eth" unicode="&#xf0;" horiz-adv-x="535" 
d="M249 -11q-92 0 -148 66.5t-56 161.5q0 102 54.5 173t139.5 71q94 0 140 -92q-7 157 -70 245q-23 -15 -52 -34t-43 -28l-13 -9h-51l141 94q-69 73 -180 73v35q127 0 219 -82l108 72h52l-138 -92q63 -67 95.5 -165t32.5 -198q0 -134 -63 -212.5t-168 -78.5zM383 228
q0 88 -37.5 138.5t-89.5 50.5q-115 0 -115 -200q0 -97 26 -141t82 -44q134 0 134 196z" />
    <glyph glyph-name="ntilde" unicode="&#xf1;" horiz-adv-x="569" 
d="M366 559q-21 0 -38 12.5t-26 27t-21.5 27t-25.5 12.5q-29 0 -29 -79h-35q0 66 18 102.5t52 36.5q25 0 45 -20t36 -39.5t32 -19.5q29 0 29 79h35q0 -139 -72 -139zM170 358q12 39 54 70.5t105 31.5q78 0 121.5 -43t43.5 -114v-303h-90v282q0 127 -106 127q-56 0 -92 -43
t-36 -89v-277h-90v450h90v-92z" />
    <glyph glyph-name="ograve" unicode="&#xf2;" horiz-adv-x="531" 
d="M215 697l65 -150h-27l-149 150h111zM45 224q0 97 60.5 166.5t160.5 69.5q101 0 160.5 -66.5t59.5 -167.5q0 -97 -60 -167t-160 -70q-101 0 -161 67t-60 168zM141 224q0 -111 32 -152t93 -41q60 0 92.5 44t32.5 151q0 111 -31.5 151.5t-93.5 40.5q-60 0 -92.5 -43.5
t-32.5 -150.5z" />
    <glyph glyph-name="oacute" unicode="&#xf3;" horiz-adv-x="531" 
d="M317 698h111l-149 -150h-27zM45 224q0 97 60.5 166.5t160.5 69.5q101 0 160.5 -66.5t59.5 -167.5q0 -97 -60 -167t-160 -70q-101 0 -161 67t-60 168zM141 224q0 -111 32 -152t93 -41q60 0 92.5 44t32.5 151q0 111 -31.5 151.5t-93.5 40.5q-60 0 -92.5 -43.5t-32.5 -150.5
z" />
    <glyph glyph-name="ocircumflex" unicode="&#xf4;" horiz-adv-x="531" 
d="M268 611l-90 -63h-27l109 150h16l109 -150h-27zM45 224q0 97 60.5 166.5t160.5 69.5q101 0 160.5 -66.5t59.5 -167.5q0 -97 -60 -167t-160 -70q-101 0 -161 67t-60 168zM141 224q0 -111 32 -152t93 -41q60 0 92.5 44t32.5 151q0 111 -31.5 151.5t-93.5 40.5
q-60 0 -92.5 -43.5t-32.5 -150.5z" />
    <glyph glyph-name="otilde" unicode="&#xf5;" horiz-adv-x="531" 
d="M317 559q-21 0 -38 12.5t-26 27t-21.5 27t-25.5 12.5q-29 0 -29 -79h-35q0 66 18 102.5t52 36.5q25 0 45 -20t36 -39.5t32 -19.5q29 0 29 79h35q0 -139 -72 -139zM45 224q0 97 60.5 166.5t160.5 69.5q101 0 160.5 -66.5t59.5 -167.5q0 -97 -60 -167t-160 -70
q-101 0 -161 67t-60 168zM141 224q0 -111 32 -152t93 -41q60 0 92.5 44t32.5 151q0 111 -31.5 151.5t-93.5 40.5q-60 0 -92.5 -43.5t-32.5 -150.5z" />
    <glyph glyph-name="odieresis" unicode="&#xf6;" horiz-adv-x="531" 
d="M235 668v-77h-80v77h80zM376 668v-77h-80v77h80zM45 224q0 97 60.5 166.5t160.5 69.5q101 0 160.5 -66.5t59.5 -167.5q0 -97 -60 -167t-160 -70q-101 0 -161 67t-60 168zM141 224q0 -111 32 -152t93 -41q60 0 92.5 44t32.5 151q0 111 -31.5 151.5t-93.5 40.5
q-60 0 -92.5 -43.5t-32.5 -150.5z" />
    <glyph glyph-name="divide" unicode="&#xf7;" 
d="M275 336q-21 0 -35.5 14.5t-14.5 36.5q0 20 14.5 35t35.5 15t35.5 -15t14.5 -35q0 -22 -14.5 -36.5t-35.5 -14.5zM470 263v-63h-390v63h390zM275 128q21 0 35.5 -14.5t14.5 -36.5q0 -20 -14.5 -35t-35.5 -15t-35.5 15t-14.5 35q0 22 14.5 36.5t35.5 14.5z" />
    <glyph glyph-name="oslash" unicode="&#xf8;" horiz-adv-x="531" 
d="M266 -11q-84 0 -140 47l-31 -36h-51l55 63q-54 65 -54 161q0 97 60.5 166.5t160.5 69.5q81 0 137 -45l30 35h53l-54 -62q54 -65 54 -162t-60 -167t-160 -70zM141 224q0 -63 10 -100l213 246q-29 48 -98 48q-60 0 -92.5 -43.5t-32.5 -150.5zM266 31q60 0 92.5 44t32.5 151
q0 61 -11 102l-213 -246q29 -51 99 -51z" />
    <glyph glyph-name="ugrave" unicode="&#xf9;" horiz-adv-x="558" 
d="M224 697l65 -150h-27l-149 150h111zM389 92q-13 -40 -53.5 -71.5t-100.5 -31.5q-76 0 -118 43t-42 114v304h90v-282q0 -127 102 -127q52 0 87 43t35 89v277h89v-450h-89v92z" />
    <glyph glyph-name="uacute" unicode="&#xfa;" horiz-adv-x="558" 
d="M326 698h111l-149 -150h-27zM389 92q-13 -40 -53.5 -71.5t-100.5 -31.5q-76 0 -118 43t-42 114v304h90v-282q0 -127 102 -127q52 0 87 43t35 89v277h89v-450h-89v92z" />
    <glyph glyph-name="ucircumflex" unicode="&#xfb;" horiz-adv-x="558" 
d="M277 611l-90 -63h-27l109 150h16l109 -150h-27zM389 92q-13 -40 -53.5 -71.5t-100.5 -31.5q-76 0 -118 43t-42 114v304h90v-282q0 -127 102 -127q52 0 87 43t35 89v277h89v-450h-89v92z" />
    <glyph glyph-name="udieresis" unicode="&#xfc;" horiz-adv-x="558" 
d="M244 668v-77h-80v77h80zM385 668v-77h-80v77h80zM389 92q-13 -40 -53.5 -71.5t-100.5 -31.5q-76 0 -118 43t-42 114v304h90v-282q0 -127 102 -127q52 0 87 43t35 89v277h89v-450h-89v92z" />
    <glyph glyph-name="yacute" unicode="&#xfd;" horiz-adv-x="477" 
d="M312 698h111l-149 -150h-27zM48 -250v77q73 1 104 18t52 71l31 81l-215 453h95l163 -338l128 338h51l-204 -521q-38 -98 -77.5 -138.5t-127.5 -40.5z" />
    <glyph glyph-name="thorn" unicode="&#xfe;" horiz-adv-x="587" 
d="M170 225q0 -92 41.5 -141.5t98.5 -49.5q69 0 102.5 43t33.5 147q0 103 -32.5 147t-93.5 44q-64 0 -107 -48.5t-43 -141.5zM316 -11q-45 0 -86 25t-60 75v-329h-90v976h90v-379q20 51 65 77t91 26q96 0 156 -68.5t60 -167.5q0 -98 -62 -166.5t-164 -68.5z" />
    <glyph glyph-name="ydieresis" unicode="&#xff;" horiz-adv-x="477" 
d="M230 668v-77h-80v77h80zM371 668v-77h-80v77h80zM48 -250v77q73 1 104 18t52 71l31 81l-215 453h95l163 -338l128 338h51l-204 -521q-38 -98 -77.5 -138.5t-127.5 -40.5z" />
    <glyph glyph-name="Amacron" unicode="&#x100;" horiz-adv-x="622" 
d="M184 800h251v-51h-251v51zM389 251l-106 260l-102 -260h208zM491 0l-82 201h-248l-80 -201h-61l272 665h34l276 -665h-111z" />
    <glyph glyph-name="amacron" unicode="&#x101;" horiz-adv-x="486" 
d="M136 655h251v-51h-251v51zM217 33q39 0 72 33t33 63v89l-76 -15q-52 -10 -76 -32t-24 -67q0 -33 18 -52t53 -19zM322 0v70q-18 -34 -53 -57.5t-84 -23.5q-62 0 -96 28t-34 80q0 59 38 88.5t114 44.5l115 22v51q0 52 -29.5 78.5t-73.5 26.5q-42 0 -72 -24.5t-34 -66.5h-24
q4 70 45.5 106.5t109.5 36.5q81 0 124 -45.5t43 -111.5v-303h-89z" />
    <glyph glyph-name="Abreve" unicode="&#x102;" horiz-adv-x="622" 
d="M309 769q33 0 60.5 14t27.5 47h35q0 -47 -37.5 -83.5t-85.5 -36.5q-55 0 -89.5 35.5t-34.5 84.5h35q0 -61 89 -61zM389 251l-106 260l-102 -260h208zM491 0l-82 201h-248l-80 -201h-61l272 665h34l276 -665h-111z" />
    <glyph glyph-name="abreve" unicode="&#x103;" horiz-adv-x="486" 
d="M262 626q33 0 60.5 16.5t27.5 55.5h35q0 -55 -37.5 -97t-85.5 -42q-55 0 -89.5 41t-34.5 98h35q0 -72 89 -72zM217 33q39 0 72 33t33 63v89l-76 -15q-52 -10 -76 -32t-24 -67q0 -33 18 -52t53 -19zM322 0v70q-18 -34 -53 -57.5t-84 -23.5q-62 0 -96 28t-34 80
q0 59 38 88.5t114 44.5l115 22v51q0 52 -29.5 78.5t-73.5 26.5q-42 0 -72 -24.5t-34 -66.5h-24q4 70 45.5 106.5t109.5 36.5q81 0 124 -45.5t43 -111.5v-303h-89z" />
    <glyph glyph-name="Aogonek" unicode="&#x104;" horiz-adv-x="622" 
d="M389 251l-106 260l-102 -260h208zM492 0h-1l-82 201h-248l-80 -201h-61l272 665h34l276 -665h-74q-65 -82 -65 -130q0 -36 33 -36q17 0 29.5 14.5t15.5 40.5h32q-1 -42 -24.5 -65t-63.5 -23q-79 0 -79 63q0 27 19.5 55t66.5 81z" />
    <glyph glyph-name="aogonek" unicode="&#x105;" horiz-adv-x="486" 
d="M217 33q39 0 71.5 32.5t32.5 63.5v89l-75 -15q-52 -10 -76 -32t-24 -67q0 -33 18 -52t53 -19zM321 0v69q-18 -34 -53 -57t-83 -23q-62 0 -96 28t-34 80q0 59 38 88.5t114 44.5l114 22v51q0 52 -29 78.5t-73 26.5q-42 0 -72 -24.5t-34 -66.5h-24q4 70 45.5 106.5
t109.5 36.5q81 0 124 -45.5t43 -111.5v-303h-54q-65 -82 -65 -130q0 -36 33 -36q17 0 29.5 14.5t15.5 40.5h32q-1 -42 -24.5 -65t-63.5 -23q-79 0 -79 63q0 27 19.5 55t66.5 81z" />
    <glyph glyph-name="Cacute" unicode="&#x106;" horiz-adv-x="661" 
d="M432 830h111l-169 -120h-27zM364 620q-200 0 -200 -297q0 -146 56.5 -214.5t154.5 -68.5q74 0 124.5 38t61.5 108h40q-13 -92 -78.5 -144t-161.5 -52q-141 0 -222.5 92.5t-81.5 240.5q0 149 79 248t213 99q97 0 164.5 -52t80.5 -144h-40q-14 70 -66 108t-124 38z" />
    <glyph glyph-name="cacute" unicode="&#x107;" horiz-adv-x="480" 
d="M301 698h111l-149 -150h-27zM280 41q48 0 86 25.5t46 78.5h25q-4 -65 -52 -110.5t-126 -45.5q-95 0 -154.5 62t-59.5 170q0 101 59 170t153 69q80 0 127.5 -46t51.5 -112h-26q-8 55 -46 81t-87 26q-62 0 -99 -44t-37 -135q0 -103 39 -146t100 -43z" />
    <glyph glyph-name="Ccircumflex" unicode="&#x108;" horiz-adv-x="661" 
d="M361 753l-90 -43h-27l109 120h16l109 -120h-27zM364 620q-200 0 -200 -297q0 -146 56.5 -214.5t154.5 -68.5q74 0 124.5 38t61.5 108h40q-13 -92 -78.5 -144t-161.5 -52q-141 0 -222.5 92.5t-81.5 240.5q0 149 79 248t213 99q97 0 164.5 -52t80.5 -144h-40
q-14 70 -66 108t-124 38z" />
    <glyph glyph-name="ccircumflex" unicode="&#x109;" horiz-adv-x="480" 
d="M264 611l-90 -63h-27l109 150h16l109 -150h-27zM280 41q48 0 86 25.5t46 78.5h25q-4 -65 -52 -110.5t-126 -45.5q-95 0 -154.5 62t-59.5 170q0 101 59 170t153 69q80 0 127.5 -46t51.5 -112h-26q-8 55 -46 81t-87 26q-62 0 -99 -44t-37 -135q0 -103 39 -146t100 -43z" />
    <glyph glyph-name="Cdotaccent" unicode="&#x10a;" horiz-adv-x="661" 
d="M405 726h-90v87h90v-87zM364 620q-200 0 -200 -297q0 -146 56.5 -214.5t154.5 -68.5q74 0 124.5 38t61.5 108h40q-13 -92 -78.5 -144t-161.5 -52q-141 0 -222.5 92.5t-81.5 240.5q0 149 79 248t213 99q97 0 164.5 -52t80.5 -144h-40q-14 70 -66 108t-124 38z" />
    <glyph glyph-name="cdotaccent" unicode="&#x10b;" horiz-adv-x="480" 
d="M294 673v-87h-90v87h90zM280 41q48 0 86 25.5t46 78.5h25q-4 -65 -52 -110.5t-126 -45.5q-95 0 -154.5 62t-59.5 170q0 101 59 170t153 69q80 0 127.5 -46t51.5 -112h-26q-8 55 -46 81t-87 26q-62 0 -99 -44t-37 -135q0 -103 39 -146t100 -43z" />
    <glyph glyph-name="Ccaron" unicode="&#x10c;" horiz-adv-x="661" 
d="M362 787l90 43h27l-109 -120h-16l-109 120h27zM364 620q-200 0 -200 -297q0 -146 56.5 -214.5t154.5 -68.5q74 0 124.5 38t61.5 108h40q-13 -92 -78.5 -144t-161.5 -52q-141 0 -222.5 92.5t-81.5 240.5q0 149 79 248t213 99q97 0 164.5 -52t80.5 -144h-40q-14 70 -66 108
t-124 38z" />
    <glyph glyph-name="ccaron" unicode="&#x10d;" horiz-adv-x="480" 
d="M250 635l90 63h27l-109 -150h-16l-109 150h27zM280 41q48 0 86 25.5t46 78.5h25q-4 -65 -52 -110.5t-126 -45.5q-95 0 -154.5 62t-59.5 170q0 101 59 170t153 69q80 0 127.5 -46t51.5 -112h-26q-8 55 -46 81t-87 26q-62 0 -99 -44t-37 -135q0 -103 39 -146t100 -43z" />
    <glyph glyph-name="Dcaron" unicode="&#x10e;" horiz-adv-x="722" 
d="M322 787l90 43h27l-109 -120h-16l-109 120h27zM360 610h-151v-560h151q95 0 146.5 63t51.5 219q0 278 -198 278zM108 0v660h252q140 0 222.5 -96t82.5 -233q0 -141 -82.5 -236t-222.5 -95h-252z" />
    <glyph glyph-name="dcaron" unicode="&#x10f;" horiz-adv-x="586" 
d="M566 735h111l-104 -150h-27zM417 224q0 92 -41.5 141.5t-98.5 49.5q-68 0 -102 -43t-34 -147q0 -103 32.5 -147t94.5 -44q63 0 106 48.5t43 141.5zM417 0v96q-21 -53 -70.5 -80t-97.5 -27q-94 0 -149 68t-55 168q0 99 56.5 167t157.5 68q46 0 91.5 -26t66.5 -78v379h89
v-735h-89z" />
    <glyph glyph-name="Dcroat" unicode="&#x110;" horiz-adv-x="722" 
d="M393 300h-164v-250h151q95 0 146.5 63t51.5 219q0 278 -198 278h-151v-260h164v-50zM128 0v300h-70v50h70v310h252q140 0 222.5 -96t82.5 -233q0 -141 -82.5 -236t-222.5 -95h-252z" />
    <glyph glyph-name="dcroat" unicode="&#x111;" horiz-adv-x="586" 
d="M417 224q0 92 -41.5 141.5t-98.5 49.5q-68 0 -102 -43t-34 -147q0 -103 32.5 -147t94.5 -44q63 0 106 48.5t43 141.5zM417 0v96q-21 -53 -70.5 -80t-97.5 -27q-94 0 -149 68t-55 168q0 99 56.5 167t157.5 68q46 0 91.5 -26t66.5 -78v210h-135v35h135v134h89v-134h70v-35
h-70v-566h-89z" />
    <glyph glyph-name="Emacron" unicode="&#x112;" horiz-adv-x="573" 
d="M183 800h251v-51h-251v51zM108 0v660h378v-50h-277v-255h257v-50h-257v-255h298v-50h-399z" />
    <glyph glyph-name="emacron" unicode="&#x113;" horiz-adv-x="501" 
d="M129 655h251v-51h-251v51zM261 418q-106 0 -118 -144h216q0 144 -98 144zM448 145q-4 -65 -53.5 -110.5t-127.5 -45.5q-101 0 -161.5 61t-60.5 172q1 100 58.5 169t150.5 69q95 0 148.5 -60.5t53.5 -161.5h-315v-8q0 -189 147 -189q49 0 87.5 25.5t47.5 78.5h25z" />
    <glyph glyph-name="Ebreve" unicode="&#x114;" horiz-adv-x="573" 
d="M308 769q33 0 60.5 14t27.5 47h35q0 -47 -37.5 -83.5t-85.5 -36.5q-55 0 -89.5 35.5t-34.5 84.5h35q0 -61 89 -61zM108 0v660h378v-50h-277v-255h257v-50h-257v-255h298v-50h-399z" />
    <glyph glyph-name="ebreve" unicode="&#x115;" horiz-adv-x="501" 
d="M255 626q33 0 60.5 16.5t27.5 55.5h35q0 -55 -37.5 -97t-85.5 -42q-55 0 -89.5 41t-34.5 98h35q0 -72 89 -72zM261 418q-106 0 -118 -144h216q0 144 -98 144zM448 145q-4 -65 -53.5 -110.5t-127.5 -45.5q-101 0 -161.5 61t-60.5 172q1 100 58.5 169t150.5 69
q95 0 148.5 -60.5t53.5 -161.5h-315v-8q0 -189 147 -189q49 0 87.5 25.5t47.5 78.5h25z" />
    <glyph glyph-name="Edotaccent" unicode="&#x116;" horiz-adv-x="573" 
d="M352 726h-90v87h90v-87zM108 0v660h378v-50h-277v-255h257v-50h-257v-255h298v-50h-399z" />
    <glyph glyph-name="edotaccent" unicode="&#x117;" horiz-adv-x="501" 
d="M299 673v-87h-90v87h90zM261 418q-106 0 -118 -144h216q0 144 -98 144zM448 145q-4 -65 -53.5 -110.5t-127.5 -45.5q-101 0 -161.5 61t-60.5 172q1 100 58.5 169t150.5 69q95 0 148.5 -60.5t53.5 -161.5h-315v-8q0 -189 147 -189q49 0 87.5 25.5t47.5 78.5h25z" />
    <glyph glyph-name="Eogonek" unicode="&#x118;" horiz-adv-x="573" 
d="M507 -111q-1 -42 -24.5 -65t-63.5 -23q-79 0 -79 63q0 27 19.5 56t65.5 80h-317v660h378v-50h-277v-255h257v-50h-257v-255h298v-50h-46q-64 -82 -64 -130q0 -36 33 -36q17 0 29.5 14.5t15.5 40.5h32z" />
    <glyph glyph-name="eogonek" unicode="&#x119;" horiz-adv-x="501" 
d="M261 418q-106 0 -118 -144h216q0 144 -98 144zM432 -117q-1 -45 -25.5 -69.5t-65.5 -24.5q-83 0 -83 67q0 21 13.5 47t26 42.5t46.5 57.5q-34 -14 -77 -14q-101 0 -161.5 61t-60.5 172q1 100 58.5 169t150.5 69q95 0 148.5 -60.5t53.5 -161.5h-315v-8q0 -189 147 -189
q49 0 87.5 25.5t47.5 78.5h25q-3 -51 -36 -93q-53 -76 -75.5 -117.5t-22.5 -72.5q0 -43 39 -43q19 0 33.5 17t16.5 47h29z" />
    <glyph glyph-name="Ecaron" unicode="&#x11a;" horiz-adv-x="573" 
d="M309 787l90 43h27l-109 -120h-16l-109 120h27zM108 0v660h378v-50h-277v-255h257v-50h-257v-255h298v-50h-399z" />
    <glyph glyph-name="ecaron" unicode="&#x11b;" horiz-adv-x="501" 
d="M255 635l90 63h27l-109 -150h-16l-109 150h27zM261 418q-106 0 -118 -144h216q0 144 -98 144zM448 145q-4 -65 -53.5 -110.5t-127.5 -45.5q-101 0 -161.5 61t-60.5 172q1 100 58.5 169t150.5 69q95 0 148.5 -60.5t53.5 -161.5h-315v-8q0 -189 147 -189q49 0 87.5 25.5
t47.5 78.5h25z" />
    <glyph glyph-name="Gcircumflex" unicode="&#x11c;" horiz-adv-x="691" 
d="M365 753l-90 -43h-27l109 120h16l109 -120h-27zM573 0q0 17 -6 30.5t-12.5 19.5t-17.5 15q-67 -75 -190 -75q-131 0 -210.5 93t-79.5 240q0 150 82 248.5t223 98.5q99 0 162.5 -51.5t76.5 -144.5h-40q-14 71 -63.5 108.5t-124.5 37.5q-209 0 -209 -297q0 -287 193 -287
q106 0 159 68v139h-110v50h210v-293h-43z" />
    <glyph glyph-name="gcircumflex" unicode="&#x11d;" horiz-adv-x="514" 
d="M259 611l-90 -63h-27l109 150h16l109 -150h-27zM162 287q0 -71 23 -99.5t67 -28.5q88 0 88 135q0 71 -22.5 99.5t-65.5 28.5q-90 0 -90 -135zM476 -86q0 -82 -72 -123t-190 -41q-84 0 -132.5 25.5t-48.5 71.5q0 24 12.5 45.5t26.5 33.5t40 31q-59 31 -59 89q0 68 75 114
q-60 48 -60 127q0 70 50.5 121.5t133.5 51.5q79 0 129 -44l112 62h3v-84q-54 0 -91 -4q31 -42 31 -96q0 -71 -50.5 -122t-133.5 -51q-57 0 -99 22q-44 -27 -44 -62q0 -30 24 -41.5t77 -11.5h93q173 0 173 -114zM234 -206q76 0 122 24.5t46 64.5q0 30 -21.5 44t-77.5 14h-116
q-26 0 -47 6q-43 -34 -43 -82q0 -38 29 -54.5t108 -16.5z" />
    <glyph glyph-name="Gbreve" unicode="&#x11e;" horiz-adv-x="691" 
d="M365 769q33 0 60.5 14t27.5 47h35q0 -47 -37.5 -83.5t-85.5 -36.5q-55 0 -89.5 35.5t-34.5 84.5h35q0 -61 89 -61zM573 0q0 17 -6 30.5t-12.5 19.5t-17.5 15q-67 -75 -190 -75q-131 0 -210.5 93t-79.5 240q0 150 82 248.5t223 98.5q99 0 162.5 -51.5t76.5 -144.5h-40
q-14 71 -63.5 108.5t-124.5 37.5q-209 0 -209 -297q0 -287 193 -287q106 0 159 68v139h-110v50h210v-293h-43z" />
    <glyph glyph-name="gbreve" unicode="&#x11f;" horiz-adv-x="514" 
d="M257 626q33 0 60.5 16.5t27.5 55.5h35q0 -55 -37.5 -97t-85.5 -42q-55 0 -89.5 41t-34.5 98h35q0 -72 89 -72zM162 287q0 -71 23 -99.5t67 -28.5q88 0 88 135q0 71 -22.5 99.5t-65.5 28.5q-90 0 -90 -135zM476 -86q0 -82 -72 -123t-190 -41q-84 0 -132.5 25.5t-48.5 71.5
q0 24 12.5 45.5t26.5 33.5t40 31q-59 31 -59 89q0 68 75 114q-60 48 -60 127q0 70 50.5 121.5t133.5 51.5q79 0 129 -44l112 62h3v-84q-54 0 -91 -4q31 -42 31 -96q0 -71 -50.5 -122t-133.5 -51q-57 0 -99 22q-44 -27 -44 -62q0 -30 24 -41.5t77 -11.5h93q173 0 173 -114z
M234 -206q76 0 122 24.5t46 64.5q0 30 -21.5 44t-77.5 14h-116q-26 0 -47 6q-43 -34 -43 -82q0 -38 29 -54.5t108 -16.5z" />
    <glyph glyph-name="Gdotaccent" unicode="&#x120;" horiz-adv-x="691" 
d="M409 726h-90v87h90v-87zM573 0q0 17 -6 30.5t-12.5 19.5t-17.5 15q-67 -75 -190 -75q-131 0 -210.5 93t-79.5 240q0 150 82 248.5t223 98.5q99 0 162.5 -51.5t76.5 -144.5h-40q-14 71 -63.5 108.5t-124.5 37.5q-209 0 -209 -297q0 -287 193 -287q106 0 159 68v139h-110
v50h210v-293h-43z" />
    <glyph glyph-name="gdotaccent" unicode="&#x121;" horiz-adv-x="514" 
d="M301 673v-87h-90v87h90zM162 287q0 -71 23 -99.5t67 -28.5q88 0 88 135q0 71 -22.5 99.5t-65.5 28.5q-90 0 -90 -135zM476 -86q0 -82 -72 -123t-190 -41q-84 0 -132.5 25.5t-48.5 71.5q0 24 12.5 45.5t26.5 33.5t40 31q-59 31 -59 89q0 68 75 114q-60 48 -60 127
q0 70 50.5 121.5t133.5 51.5q79 0 129 -44l112 62h3v-84q-54 0 -91 -4q31 -42 31 -96q0 -71 -50.5 -122t-133.5 -51q-57 0 -99 22q-44 -27 -44 -62q0 -30 24 -41.5t77 -11.5h93q173 0 173 -114zM234 -206q76 0 122 24.5t46 64.5q0 30 -21.5 44t-77.5 14h-116q-26 0 -47 6
q-43 -34 -43 -82q0 -38 29 -54.5t108 -16.5z" />
    <glyph glyph-name="Gcommaaccent" unicode="&#x122;" horiz-adv-x="691" 
d="M573 0q0 17 -6 30.5t-12.5 19.5t-17.5 15q-67 -75 -190 -75q-131 0 -210.5 93t-79.5 240q0 150 82 248.5t223 98.5q99 0 162.5 -51.5t76.5 -144.5h-40q-14 71 -63.5 108.5t-124.5 37.5q-209 0 -209 -297q0 -287 193 -287q106 0 159 68v139h-110v50h210v-293h-43z
M393 -135q0 25 -58 25v50q99 0 99 -68q0 -67 -114 -67v26q44 1 58.5 9.5t14.5 24.5z" />
    <glyph glyph-name="gcommaaccent" unicode="&#x123;" horiz-adv-x="514" 
d="M310 548h-115l123 150h23zM162 287q0 -71 23 -99.5t67 -28.5q88 0 88 135q0 71 -22.5 99.5t-65.5 28.5q-90 0 -90 -135zM476 -86q0 -82 -72 -123t-190 -41q-84 0 -132.5 25.5t-48.5 71.5q0 24 12.5 45.5t26.5 33.5t40 31q-59 31 -59 89q0 68 75 114q-60 48 -60 127
q0 70 50.5 121.5t133.5 51.5q79 0 129 -44l112 62h3v-84q-54 0 -91 -4q31 -42 31 -96q0 -71 -50.5 -122t-133.5 -51q-57 0 -99 22q-44 -27 -44 -62q0 -30 24 -41.5t77 -11.5h93q173 0 173 -114zM234 -206q76 0 122 24.5t46 64.5q0 30 -21.5 44t-77.5 14h-116q-26 0 -47 6
q-43 -34 -43 -82q0 -38 29 -54.5t108 -16.5z" />
    <glyph glyph-name="Hcircumflex" unicode="&#x124;" horiz-adv-x="764" 
d="M382 753l-90 -43h-27l109 120h16l109 -120h-27zM555 0v305h-346v-305h-101v660h101v-305h346v305h101v-660h-101z" />
    <glyph glyph-name="hcircumflex" unicode="&#x125;" horiz-adv-x="569" 
d="M123 803l-90 -43h-27l109 120h16l109 -120h-27zM170 358q12 39 54 70.5t105 31.5q78 0 121.5 -43t43.5 -114v-303h-91v282q0 127 -105 127q-56 0 -92 -43t-36 -89v-277h-90v735h90v-377z" />
    <glyph glyph-name="Hbar" unicode="&#x126;" horiz-adv-x="764" 
d="M555 355v115h-346v-115h346zM555 0v305h-346v-305h-101v470h-70v50h70v140h101v-140h346v140h101v-140h70v-50h-70v-470h-101z" />
    <glyph glyph-name="hbar" unicode="&#x127;" horiz-adv-x="569" 
d="M170 277v-277h-90v566h-70v35h70v134h90v-134h143v-35h-143v-208q12 39 54 70.5t105 31.5q78 0 121.5 -43t43.5 -114v-303h-91v282q0 127 -105 127q-56 0 -92 -43t-36 -89z" />
    <glyph glyph-name="Itilde" unicode="&#x128;" horiz-adv-x="317" 
d="M247 830h35q0 -61 -15 -90.5t-55 -29.5q-25 0 -43 9.5t-26 20.5t-19.5 20.5t-24.5 9.5q-19 0 -24 -14t-5 -46h-35q0 61 15 90.5t55 29.5q26 0 46 -15t35.5 -30t31.5 -15q19 0 24 14t5 46zM209 660v-660h-101v660h101z" />
    <glyph glyph-name="itilde" unicode="&#x129;" horiz-adv-x="250" 
d="M177 559q-21 0 -38 12.5t-26 27t-21.5 27t-25.5 12.5q-29 0 -29 -79h-35q0 66 18 102.5t52 36.5q25 0 45 -20t36 -39.5t32 -19.5q29 0 29 79h35q0 -139 -72 -139zM170 450v-450h-90v450h90z" />
    <glyph glyph-name="Imacron" unicode="&#x12a;" horiz-adv-x="317" 
d="M33 800h251v-51h-251v51zM209 660v-660h-101v660h101z" />
    <glyph glyph-name="imacron" unicode="&#x12b;" horiz-adv-x="250" 
d="M0 655h251v-51h-251v51zM170 450v-450h-90v450h90z" />
    <glyph glyph-name="Ibreve" unicode="&#x12c;" horiz-adv-x="317" 
d="M158 769q33 0 60.5 14t27.5 47h35q0 -47 -37.5 -83.5t-85.5 -36.5q-55 0 -89.5 35.5t-34.5 84.5h35q0 -61 89 -61zM209 660v-660h-101v660h101z" />
    <glyph glyph-name="ibreve" unicode="&#x12d;" horiz-adv-x="250" 
d="M126 626q33 0 60.5 16.5t27.5 55.5h35q0 -55 -37.5 -97t-85.5 -42q-55 0 -89.5 41t-34.5 98h35q0 -72 89 -72zM170 450v-450h-90v450h90z" />
    <glyph glyph-name="Iogonek" unicode="&#x12e;" horiz-adv-x="317" 
d="M142 0h-34v660h101v-660h-31q-65 -82 -65 -130q0 -36 33 -36q17 0 29.5 14.5t15.5 40.5h32q-1 -42 -24.5 -65t-63.5 -23q-79 0 -79 63q0 27 19.5 55t66.5 81z" />
    <glyph glyph-name="iogonek" unicode="&#x12f;" horiz-adv-x="250" 
d="M170 673v-87h-90v87h90zM108 0h-28v450h90v-450h-26q-65 -82 -65 -130q0 -36 33 -36q17 0 29.5 14.5t15.5 40.5h32q-1 -42 -24.5 -65t-63.5 -23q-79 0 -79 63q0 27 19.5 55t66.5 81z" />
    <glyph glyph-name="Idotaccent" unicode="&#x130;" horiz-adv-x="317" 
d="M202 726h-90v87h90v-87zM209 660v-660h-101v660h101z" />
    <glyph glyph-name="dotlessi" unicode="&#x131;" horiz-adv-x="250" 
d="M170 450v-450h-90v450h90z" />
    <glyph glyph-name="IJ" unicode="&#x132;" horiz-adv-x="857" 
d="M209 660v-660h-101v660h101zM534 40q62 0 93 44t31 119v457h101v-457q0 -97 -58.5 -155t-156.5 -58q-170 0 -188 196h40q22 -146 138 -146z" />
    <glyph glyph-name="ij" unicode="&#x133;" horiz-adv-x="503" 
d="M420 673v-87h-90v87h90zM170 673v-87h-90v87h90zM170 450v-450h-90v450h90zM420 450v-409q0 -23 1.5 -67.5t1.5 -58.5q0 -78 -36 -121.5t-103 -43.5q-27 0 -39 3v32q10 -2 19 -2q70 0 70 113q0 12 -2 64.5t-2 83.5v406h90z" />
    <glyph glyph-name="Jcircumflex" unicode="&#x134;" horiz-adv-x="540" 
d="M391 753l-90 -43h-27l109 120h16l109 -120h-27zM217 40q62 0 93 44t31 119v457h101v-457q0 -97 -58.5 -155t-156.5 -58q-170 0 -188 196h40q22 -146 138 -146z" />
    <glyph glyph-name="jcircumflex" unicode="&#x135;" horiz-adv-x="253" 
d="M127 611l-90 -63h-27l109 150h16l109 -150h-27zM170 450v-422q0 -23 1.5 -67.5t1.5 -58.5q0 -79 -36 -123t-103 -44q-27 0 -39 3v32q10 -2 19 -2q70 0 70 115q0 12 -2 64.5t-2 83.5v419h90z" />
    <glyph glyph-name="Kcommaaccent" unicode="&#x136;" horiz-adv-x="664" 
d="M209 660v-660h-101v660h101zM619 0h-134l-269 331l319 329h71l-297 -300zM369 -135q0 25 -58 25v50q99 0 99 -68q0 -67 -114 -67v26q44 1 58.5 9.5t14.5 24.5z" />
    <glyph glyph-name="kcommaaccent" unicode="&#x137;" horiz-adv-x="510" 
d="M170 736v-736h-90v736h90zM486 0h-116l-187 235q174 167 219 215h81l-221 -187zM289 -135q0 25 -58 25v50q99 0 99 -68q0 -67 -114 -67v26q44 1 58.5 9.5t14.5 24.5z" />
    <glyph glyph-name="Lacute" unicode="&#x139;" horiz-adv-x="537" 
d="M236 830h111l-169 -120h-27zM108 0v660h101v-610h298v-50h-399z" />
    <glyph glyph-name="lacute" unicode="&#x13a;" horiz-adv-x="250" 
d="M197 880h111l-169 -120h-27zM170 735v-735h-90v735h90z" />
    <glyph glyph-name="Lcommaaccent" unicode="&#x13b;" horiz-adv-x="537" 
d="M108 0v660h101v-610h298v-50h-399zM343 -135q0 25 -58 25v50q99 0 99 -68q0 -67 -114 -67v26q44 1 58.5 9.5t14.5 24.5z" />
    <glyph glyph-name="lcommaaccent" unicode="&#x13c;" horiz-adv-x="250" 
d="M170 735v-735h-90v735h90zM140 -135q0 25 -58 25v50q99 0 99 -68q0 -67 -114 -67v26q44 1 58.5 9.5t14.5 24.5z" />
    <glyph glyph-name="Lcaron" unicode="&#x13d;" horiz-adv-x="537" 
d="M309 661h111l-104 -150h-27zM108 0v660h101v-610h298v-50h-399z" />
    <glyph glyph-name="lcaron" unicode="&#x13e;" horiz-adv-x="250" 
d="M230 735h111l-104 -150h-27zM170 735v-735h-90v735h90z" />
    <glyph glyph-name="Ldot" unicode="&#x13f;" horiz-adv-x="537" 
d="M463 394v-87h-90v87h90zM108 0v660h101v-610h298v-50h-399z" />
    <glyph glyph-name="ldot" unicode="&#x140;" horiz-adv-x="250" 
d="M170 735v-735h-90v735h90zM295 391v-87h-90v87h90z" />
    <glyph glyph-name="Lslash" unicode="&#x141;" horiz-adv-x="537" 
d="M108 0v248l-70 -43v49l70 43v363h101v-306l143 89v-49l-143 -89v-255h298v-50h-399z" />
    <glyph glyph-name="lslash" unicode="&#x142;" horiz-adv-x="250" 
d="M170 0h-90v256l-71 -78v51l71 78v429h90v-347l71 79v-52l-71 -78v-338z" />
    <glyph glyph-name="Nacute" unicode="&#x143;" horiz-adv-x="732" 
d="M418 830h111l-169 -120h-27zM624 -5h-44l-417 559v-554h-55v660h98l363 -487v487h55v-665z" />
    <glyph glyph-name="nacute" unicode="&#x144;" horiz-adv-x="569" 
d="M366 698h111l-149 -150h-27zM170 358q12 39 54 70.5t105 31.5q78 0 121.5 -43t43.5 -114v-303h-90v282q0 127 -106 127q-56 0 -92 -43t-36 -89v-277h-90v450h90v-92z" />
    <glyph glyph-name="Ncommaaccent" unicode="&#x145;" horiz-adv-x="732" 
d="M624 -5h-44l-417 559v-554h-55v660h98l363 -487v487h55v-665zM379 -135q0 25 -58 25v50q99 0 99 -68q0 -67 -114 -67v26q44 1 58.5 9.5t14.5 24.5z" />
    <glyph glyph-name="ncommaaccent" unicode="&#x146;" horiz-adv-x="569" 
d="M170 358q12 39 54 70.5t105 31.5q78 0 121.5 -43t43.5 -114v-303h-90v282q0 127 -106 127q-56 0 -92 -43t-36 -89v-277h-90v450h90v-92zM317 -135q0 25 -58 25v50q99 0 99 -68q0 -67 -114 -67v26q44 1 58.5 9.5t14.5 24.5z" />
    <glyph glyph-name="Ncaron" unicode="&#x147;" horiz-adv-x="732" 
d="M378 787l90 43h27l-109 -120h-16l-109 120h27zM624 -5h-44l-417 559v-554h-55v660h98l363 -487v487h55v-665z" />
    <glyph glyph-name="ncaron" unicode="&#x148;" horiz-adv-x="569" 
d="M315 635l90 63h27l-109 -150h-16l-109 150h27zM170 358q12 39 54 70.5t105 31.5q78 0 121.5 -43t43.5 -114v-303h-90v282q0 127 -106 127q-56 0 -92 -43t-36 -89v-277h-90v450h90v-92z" />
    <glyph glyph-name="Eng" unicode="&#x14a;" horiz-adv-x="732" 
d="M477 -250q-150 0 -154 152h90q3 -58 20.5 -81t54.5 -23t59 36t22 109v57l-406 553v-553h-55v660h98l363 -496v496h55v-717q0 -90 -35.5 -141.5t-111.5 -51.5z" />
    <glyph glyph-name="eng" unicode="&#x14b;" horiz-adv-x="572" 
d="M170 450v-92q12 39 54 70.5t105 31.5q78 0 121.5 -43t43.5 -114v-260q0 -24 1.5 -69t1.5 -59q0 -78 -40 -121.5t-115 -43.5q-30 0 -43 3v32q10 -2 21 -2q88 0 88 113q0 12 -2 65t-2 85v236q0 127 -106 127q-56 0 -92 -43t-36 -89v-277h-90v450h90z" />
    <glyph glyph-name="Omacron" unicode="&#x14c;" horiz-adv-x="724" 
d="M236 800h251v-51h-251v51zM362 -10q-141 0 -223 95t-82 238q0 144 83 245.5t222 101.5t222 -101.5t83 -245.5q0 -143 -82 -238t-223 -95zM362 40q95 0 146.5 63t51.5 220q0 155 -53 226t-145 71t-145 -71t-53 -226q0 -157 51.5 -220t146.5 -63z" />
    <glyph glyph-name="omacron" unicode="&#x14d;" horiz-adv-x="531" 
d="M140 655h251v-51h-251v51zM45 224q0 97 60.5 166.5t160.5 69.5q101 0 160.5 -66.5t59.5 -167.5q0 -97 -60 -167t-160 -70q-101 0 -161 67t-60 168zM141 224q0 -111 32 -152t93 -41q60 0 92.5 44t32.5 151q0 111 -31.5 151.5t-93.5 40.5q-60 0 -92.5 -43.5t-32.5 -150.5z
" />
    <glyph glyph-name="Obreve" unicode="&#x14e;" horiz-adv-x="724" 
d="M361 769q33 0 60.5 14t27.5 47h35q0 -47 -37.5 -83.5t-85.5 -36.5q-55 0 -89.5 35.5t-34.5 84.5h35q0 -61 89 -61zM362 -10q-141 0 -223 95t-82 238q0 144 83 245.5t222 101.5t222 -101.5t83 -245.5q0 -143 -82 -238t-223 -95zM362 40q95 0 146.5 63t51.5 220
q0 155 -53 226t-145 71t-145 -71t-53 -226q0 -157 51.5 -220t146.5 -63z" />
    <glyph glyph-name="obreve" unicode="&#x14f;" horiz-adv-x="531" 
d="M266 626q33 0 60.5 16.5t27.5 55.5h35q0 -55 -37.5 -97t-85.5 -42q-55 0 -89.5 41t-34.5 98h35q0 -72 89 -72zM45 224q0 97 60.5 166.5t160.5 69.5q101 0 160.5 -66.5t59.5 -167.5q0 -97 -60 -167t-160 -70q-101 0 -161 67t-60 168zM141 224q0 -111 32 -152t93 -41
q60 0 92.5 44t32.5 151q0 111 -31.5 151.5t-93.5 40.5q-60 0 -92.5 -43.5t-32.5 -150.5z" />
    <glyph glyph-name="Ohungarumlaut" unicode="&#x150;" horiz-adv-x="724" 
d="M439 830h111l-115 -120h-27zM299 830h111l-115 -120h-27zM362 -10q-141 0 -223 95t-82 238q0 144 83 245.5t222 101.5t222 -101.5t83 -245.5q0 -143 -82 -238t-223 -95zM362 40q95 0 146.5 63t51.5 220q0 155 -53 226t-145 71t-145 -71t-53 -226q0 -157 51.5 -220
t146.5 -63z" />
    <glyph glyph-name="ohungarumlaut" unicode="&#x151;" horiz-adv-x="531" 
d="M348 698h111l-119 -150h-27zM208 698h111l-119 -150h-27zM45 224q0 97 60.5 166.5t160.5 69.5q101 0 160.5 -66.5t59.5 -167.5q0 -97 -60 -167t-160 -70q-101 0 -161 67t-60 168zM141 224q0 -111 32 -152t93 -41q60 0 92.5 44t32.5 151q0 111 -31.5 151.5t-93.5 40.5
q-60 0 -92.5 -43.5t-32.5 -150.5z" />
    <glyph glyph-name="OE" unicode="&#x152;" horiz-adv-x="978" 
d="M362 0q-140 0 -222.5 96t-82.5 233q0 141 82.5 236t222.5 95h529v-50h-277v-255h256v-50h-256v-255h298v-50h-550zM513 610h-151q-95 0 -146.5 -63t-51.5 -219q0 -278 198 -278h151v560z" />
    <glyph glyph-name="oe" unicode="&#x153;" horiz-adv-x="846" 
d="M606 418q-106 0 -118 -144h217q0 144 -99 144zM141 224q0 -111 32 -152t93 -41q60 0 92.5 44t32.5 151q0 111 -31.5 151.5t-93.5 40.5q-60 0 -92.5 -43.5t-32.5 -150.5zM793 145q-4 -65 -53.5 -110.5t-127.5 -45.5q-119 0 -177 92q-64 -92 -169 -92q-102 0 -161.5 63.5
t-59.5 163.5q0 98 60.5 171t160.5 73q113 0 173 -93q58 93 161 93q94 0 147.5 -60.5t53.5 -161.5h-315v-8q0 -189 147 -189q49 0 87.5 25.5t47.5 78.5h25z" />
    <glyph glyph-name="Racute" unicode="&#x154;" horiz-adv-x="647" 
d="M372 830h111l-169 -120h-27zM318 610h-109v-261h137q42 0 70.5 31.5t28.5 100.5q0 129 -127 129zM483 0l-203 299h-71v-299h-101v660h210q110 0 171.5 -45t61.5 -128q0 -66 -44.5 -116t-121.5 -65l218 -306h-120z" />
    <glyph glyph-name="racute" unicode="&#x155;" horiz-adv-x="382" 
d="M282 698h111l-149 -150h-27zM170 357q55 103 158 103q12 0 30 -2v-83q-23 4 -66 4q-57 0 -89.5 -24t-32.5 -61v-294h-90v450h90v-93z" />
    <glyph glyph-name="Rcommaaccent" unicode="&#x156;" horiz-adv-x="647" 
d="M318 610h-109v-261h137q42 0 70.5 31.5t28.5 100.5q0 129 -127 129zM483 0l-203 299h-71v-299h-101v660h210q110 0 171.5 -45t61.5 -128q0 -66 -44.5 -116t-121.5 -65l218 -306h-120zM353 -135q0 25 -58 25v50q99 0 99 -68q0 -67 -114 -67v26q44 1 58.5 9.5t14.5 24.5z
" />
    <glyph glyph-name="rcommaaccent" unicode="&#x157;" horiz-adv-x="382" 
d="M170 357q55 103 158 103q12 0 30 -2v-83q-23 4 -66 4q-57 0 -89.5 -24t-32.5 -61v-294h-90v450h90v-93zM158 -135q0 25 -58 25v50q99 0 99 -68q0 -67 -114 -67v26q44 1 58.5 9.5t14.5 24.5z" />
    <glyph glyph-name="Rcaron" unicode="&#x158;" horiz-adv-x="647" 
d="M302 787l90 43h27l-109 -120h-16l-109 120h27zM318 610h-109v-261h137q42 0 70.5 31.5t28.5 100.5q0 129 -127 129zM483 0l-203 299h-71v-299h-101v660h210q110 0 171.5 -45t61.5 -128q0 -66 -44.5 -116t-121.5 -65l218 -306h-120z" />
    <glyph glyph-name="rcaron" unicode="&#x159;" horiz-adv-x="382" 
d="M231 635l90 63h27l-109 -150h-16l-109 150h27zM170 357q55 103 158 103q12 0 30 -2v-83q-23 4 -66 4q-57 0 -89.5 -24t-32.5 -61v-294h-90v450h90v-93z" />
    <glyph glyph-name="Sacute" unicode="&#x15a;" horiz-adv-x="551" 
d="M320 830h111l-169 -120h-27zM296 623q-51 0 -81.5 -28.5t-30.5 -75.5t27 -77.5t101 -65.5q98 -47 138.5 -90t40.5 -116q0 -79 -59.5 -129.5t-156.5 -50.5q-195 0 -211 176h40q14 -72 54 -100.5t112 -28.5q58 0 92 29t34 83q0 50 -28.5 80t-112.5 66q-87 38 -123.5 82.5
t-36.5 114.5q0 73 53.5 125.5t140.5 52.5q156 0 178 -159h-40q-21 112 -131 112z" />
    <glyph glyph-name="sacute" unicode="&#x15b;" horiz-adv-x="423" 
d="M247 698h111l-149 -150h-27zM228 420q-44 0 -66.5 -19t-22.5 -51q0 -34 22.5 -51.5t75.5 -37.5q36 -13 54 -21t42 -24.5t34.5 -40t10.5 -55.5q0 -62 -48 -96.5t-122 -34.5q-72 0 -118.5 36.5t-49.5 101.5h27q7 -51 44 -73.5t90 -22.5q95 0 95 68q0 17 -6 29.5t-25 23.5
t-31 16.5t-45 18.5q-62 24 -94.5 53.5t-32.5 85.5q0 57 42.5 95.5t112.5 38.5q71 0 110.5 -39t42.5 -103h-28q-7 50 -37 76t-77 26z" />
    <glyph glyph-name="Scircumflex" unicode="&#x15c;" horiz-adv-x="551" 
d="M279 753l-90 -43h-27l109 120h16l109 -120h-27zM296 623q-51 0 -81.5 -28.5t-30.5 -75.5t27 -77.5t101 -65.5q98 -47 138.5 -90t40.5 -116q0 -79 -59.5 -129.5t-156.5 -50.5q-195 0 -211 176h40q14 -72 54 -100.5t112 -28.5q58 0 92 29t34 83q0 50 -28.5 80t-112.5 66
q-87 38 -123.5 82.5t-36.5 114.5q0 73 53.5 125.5t140.5 52.5q156 0 178 -159h-40q-21 112 -131 112z" />
    <glyph glyph-name="scircumflex" unicode="&#x15d;" horiz-adv-x="423" 
d="M218 611l-90 -63h-27l109 150h16l109 -150h-27zM228 420q-44 0 -66.5 -19t-22.5 -51q0 -34 22.5 -51.5t75.5 -37.5q36 -13 54 -21t42 -24.5t34.5 -40t10.5 -55.5q0 -62 -48 -96.5t-122 -34.5q-72 0 -118.5 36.5t-49.5 101.5h27q7 -51 44 -73.5t90 -22.5q95 0 95 68
q0 17 -6 29.5t-25 23.5t-31 16.5t-45 18.5q-62 24 -94.5 53.5t-32.5 85.5q0 57 42.5 95.5t112.5 38.5q71 0 110.5 -39t42.5 -103h-28q-7 50 -37 76t-77 26z" />
    <glyph glyph-name="Scedilla" unicode="&#x15e;" horiz-adv-x="551" 
d="M290 -199q-66 0 -69 58h32q5 -26 35 -26q15 0 25 11t10 30q0 44 -33 44q-22 0 -33 -19h-37l33 92q-174 8 -189 175h40q14 -72 54 -100.5t112 -28.5q58 0 92 29t34 83q0 50 -28.5 80t-112.5 66q-87 38 -123.5 82.5t-36.5 114.5q0 73 53.5 125.5t140.5 52.5q156 0 178 -159
h-40q-21 112 -131 112q-51 0 -81.5 -28.5t-30.5 -75.5t27 -77.5t101 -65.5q98 -47 138.5 -90t40.5 -116q0 -76 -55.5 -126t-147.5 -54l-20 -53q14 11 36 11q31 0 50 -18.5t19 -55.5q0 -34 -21 -53.5t-62 -19.5z" />
    <glyph glyph-name="scedilla" unicode="&#x15f;" horiz-adv-x="423" 
d="M221 -199q-66 0 -69 58h32q5 -26 35 -26q15 0 25 11t10 30q0 44 -33 44q-22 0 -33 -19h-37l32 91q-62 6 -101 42t-42 95h27q7 -51 44 -73.5t90 -22.5q95 0 95 68q0 23 -15 39.5t-32.5 24.5t-59.5 24q-61 23 -94 53t-33 86q0 57 42.5 95.5t112.5 38.5q71 0 110.5 -39
t42.5 -103h-28q-7 50 -37 76t-77 26q-44 0 -66.5 -19t-22.5 -51q0 -34 22.5 -51.5t75.5 -37.5q36 -13 54 -21t42 -24.5t34.5 -40t10.5 -55.5q0 -60 -44 -94t-115 -37l-20 -52q14 11 36 11q31 0 50 -18.5t19 -55.5q0 -34 -21 -53.5t-62 -19.5z" />
    <glyph glyph-name="Scaron" unicode="&#x160;" horiz-adv-x="551" 
d="M280 787l90 43h27l-109 -120h-16l-109 120h27zM296 623q-51 0 -81.5 -28.5t-30.5 -75.5t27 -77.5t101 -65.5q98 -47 138.5 -90t40.5 -116q0 -79 -59.5 -129.5t-156.5 -50.5q-195 0 -211 176h40q14 -72 54 -100.5t112 -28.5q58 0 92 29t34 83q0 50 -28.5 80t-112.5 66
q-87 38 -123.5 82.5t-36.5 114.5q0 73 53.5 125.5t140.5 52.5q156 0 178 -159h-40q-21 112 -131 112z" />
    <glyph glyph-name="scaron" unicode="&#x161;" horiz-adv-x="423" 
d="M216 635l90 63h27l-109 -150h-16l-109 150h27zM228 420q-44 0 -66.5 -19t-22.5 -51q0 -34 22.5 -51.5t75.5 -37.5q36 -13 54 -21t42 -24.5t34.5 -40t10.5 -55.5q0 -62 -48 -96.5t-122 -34.5q-72 0 -118.5 36.5t-49.5 101.5h27q7 -51 44 -73.5t90 -22.5q95 0 95 68
q0 17 -6 29.5t-25 23.5t-31 16.5t-45 18.5q-62 24 -94.5 53.5t-32.5 85.5q0 57 42.5 95.5t112.5 38.5q71 0 110.5 -39t42.5 -103h-28q-7 50 -37 76t-77 26z" />
    <glyph glyph-name="Tcaron" unicode="&#x164;" horiz-adv-x="639" 
d="M321 787l90 43h27l-109 -120h-16l-109 120h27zM609 610h-239v-610h-101v610h-239v50h579v-50z" />
    <glyph glyph-name="tcaron" unicode="&#x165;" horiz-adv-x="405" 
d="M256 660h111l-104 -150h-27zM362 116q-8 -127 -117 -127q-138 0 -138 168v257h-87v36h87q24 21 46.5 75.5t23.5 104.5h19v-180h146v-36h-146v-279q0 -105 69 -105q58 0 69 86h28z" />
    <glyph glyph-name="Tbar" unicode="&#x166;" horiz-adv-x="639" 
d="M513 300h-143v-300h-101v300h-143v50h143v260h-239v50h579v-50h-239v-260h143v-50z" />
    <glyph glyph-name="tbar" unicode="&#x167;" horiz-adv-x="405" 
d="M362 116q-8 -127 -117 -127q-138 0 -138 168v108h-77v35h77v114h-87v36h87q24 21 46.5 75.5t23.5 104.5h19v-180h146v-36h-146v-114h118v-35h-118v-130q0 -105 69 -105q58 0 69 86h28z" />
    <glyph glyph-name="Utilde" unicode="&#x168;" horiz-adv-x="712" 
d="M450 830h35q0 -61 -15 -90.5t-55 -29.5q-25 0 -43 9.5t-26 20.5t-19.5 20.5t-24.5 9.5q-19 0 -24 -14t-5 -46h-35q0 61 15 90.5t55 29.5q26 0 46 -15t35.5 -30t31.5 -15q19 0 24 14t5 46zM553 226v434h61v-425q0 -120 -68.5 -182.5t-179.5 -62.5q-268 0 -268 260v410h100
v-410q0 -108 48.5 -157t131.5 -49q72 0 123.5 45.5t51.5 136.5z" />
    <glyph glyph-name="utilde" unicode="&#x169;" horiz-adv-x="558" 
d="M336 559q-21 0 -38 12.5t-26 27t-21.5 27t-25.5 12.5q-29 0 -29 -79h-35q0 66 18 102.5t52 36.5q25 0 45 -20t36 -39.5t32 -19.5q29 0 29 79h35q0 -139 -72 -139zM389 92q-13 -40 -53.5 -71.5t-100.5 -31.5q-76 0 -118 43t-42 114v304h90v-282q0 -127 102 -127
q52 0 87 43t35 89v277h89v-450h-89v92z" />
    <glyph glyph-name="Umacron" unicode="&#x16a;" horiz-adv-x="712" 
d="M236 800h251v-51h-251v51zM553 226v434h61v-425q0 -120 -68.5 -182.5t-179.5 -62.5q-268 0 -268 260v410h100v-410q0 -108 48.5 -157t131.5 -49q72 0 123.5 45.5t51.5 136.5z" />
    <glyph glyph-name="umacron" unicode="&#x16b;" horiz-adv-x="558" 
d="M149 655h251v-51h-251v51zM389 92q-13 -40 -53.5 -71.5t-100.5 -31.5q-76 0 -118 43t-42 114v304h90v-282q0 -127 102 -127q52 0 87 43t35 89v277h89v-450h-89v92z" />
    <glyph glyph-name="Ubreve" unicode="&#x16c;" horiz-adv-x="712" 
d="M361 769q33 0 60.5 14t27.5 47h35q0 -47 -37.5 -83.5t-85.5 -36.5q-55 0 -89.5 35.5t-34.5 84.5h35q0 -61 89 -61zM553 226v434h61v-425q0 -120 -68.5 -182.5t-179.5 -62.5q-268 0 -268 260v410h100v-410q0 -108 48.5 -157t131.5 -49q72 0 123.5 45.5t51.5 136.5z" />
    <glyph glyph-name="ubreve" unicode="&#x16d;" horiz-adv-x="558" 
d="M275 626q33 0 60.5 16.5t27.5 55.5h35q0 -55 -37.5 -97t-85.5 -42q-55 0 -89.5 41t-34.5 98h35q0 -72 89 -72zM389 92q-13 -40 -53.5 -71.5t-100.5 -31.5q-76 0 -118 43t-42 114v304h90v-282q0 -127 102 -127q52 0 87 43t35 89v277h89v-450h-89v92z" />
    <glyph glyph-name="Uring" unicode="&#x16e;" horiz-adv-x="712" 
d="M361 710q-45 0 -70.5 16t-25.5 44q0 27 26 43.5t70 16.5t70 -16.5t26 -43.5q0 -28 -25.5 -44t-70.5 -16zM361 733q42 0 42 37t-42 37t-42 -37t42 -37zM553 226v434h61v-425q0 -120 -68.5 -182.5t-179.5 -62.5q-268 0 -268 260v410h100v-410q0 -108 48.5 -157t131.5 -49
q72 0 123.5 45.5t51.5 136.5z" />
    <glyph glyph-name="uring" unicode="&#x16f;" horiz-adv-x="558" 
d="M274 548q-45 0 -70.5 19.5t-25.5 55.5q0 35 25.5 55t70.5 20t70.5 -20t25.5 -55q0 -36 -25.5 -55.5t-70.5 -19.5zM274 573q42 0 42 50t-42 50t-42 -50t42 -50zM389 92q-13 -40 -53.5 -71.5t-100.5 -31.5q-76 0 -118 43t-42 114v304h90v-282q0 -127 102 -127q52 0 87 43
t35 89v277h89v-450h-89v92z" />
    <glyph glyph-name="Uhungarumlaut" unicode="&#x170;" horiz-adv-x="712" 
d="M439 830h111l-115 -120h-27zM299 830h111l-115 -120h-27zM553 226v434h61v-425q0 -120 -68.5 -182.5t-179.5 -62.5q-268 0 -268 260v410h100v-410q0 -108 48.5 -157t131.5 -49q72 0 123.5 45.5t51.5 136.5z" />
    <glyph glyph-name="uhungarumlaut" unicode="&#x171;" horiz-adv-x="558" 
d="M357 698h111l-119 -150h-27zM217 698h111l-119 -150h-27zM389 92q-13 -40 -53.5 -71.5t-100.5 -31.5q-76 0 -118 43t-42 114v304h90v-282q0 -127 102 -127q52 0 87 43t35 89v277h89v-450h-89v92z" />
    <glyph glyph-name="Uogonek" unicode="&#x172;" horiz-adv-x="712" 
d="M357 -199q-79 0 -79 63q0 25 17.5 52t59.5 74q-257 5 -257 260v410h100v-410q0 -108 48.5 -157t131.5 -49q72 0 123.5 45.5t51.5 136.5v434h61v-425q0 -112 -60.5 -174t-160.5 -70q-58 -76 -58 -121q0 -36 33 -36q17 0 29.5 14.5t15.5 40.5h32q-1 -42 -24.5 -65
t-63.5 -23z" />
    <glyph glyph-name="uogonek" unicode="&#x173;" horiz-adv-x="558" 
d="M389 0v92q-13 -40 -53.5 -71.5t-100.5 -31.5q-76 0 -118 43t-42 114v304h90v-282q0 -127 102 -127q52 0 87 43t35 89v277h89v-450h-53q-65 -82 -65 -130q0 -36 33 -36q17 0 29.5 14.5t15.5 40.5h32q-1 -42 -24.5 -65t-63.5 -23q-79 0 -79 63q0 27 19.5 55t66.5 81z" />
    <glyph glyph-name="Wcircumflex" unicode="&#x174;" horiz-adv-x="935" 
d="M506 753l-90 -43h-27l109 120h16l109 -120h-27zM272 -5h-36l-206 665h110l147 -496l201 496h33l179 -476l144 476h61l-208 -665h-34l-187 488z" />
    <glyph glyph-name="wcircumflex" unicode="&#x175;" horiz-adv-x="751" 
d="M390 611l-90 -63h-27l109 150h16l109 -150h-27zM198 -5l-178 455h95l122 -327l131 329h35l157 -333l120 331h51l-171 -455h-35l-157 332l-136 -332h-34z" />
    <glyph glyph-name="Ycircumflex" unicode="&#x176;" horiz-adv-x="622" 
d="M334 753l-90 -43h-27l109 120h16l109 -120h-27zM365 0h-101v299l-239 361h112l201 -301l193 301h66l-232 -351v-309z" />
    <glyph glyph-name="ycircumflex" unicode="&#x177;" horiz-adv-x="477" 
d="M263 611l-90 -63h-27l109 150h16l109 -150h-27zM48 -250v77q73 1 104 18t52 71l31 81l-215 453h95l163 -338l128 338h51l-204 -521q-38 -98 -77.5 -138.5t-127.5 -40.5z" />
    <glyph glyph-name="Ydieresis" unicode="&#x178;" horiz-adv-x="622" 
d="M303 813v-77h-80v77h80zM444 813v-77h-80v77h80zM365 0h-101v299l-239 361h112l201 -301l193 301h66l-232 -351v-309z" />
    <glyph glyph-name="Zacute" unicode="&#x179;" horiz-adv-x="628" 
d="M384 830h111l-169 -120h-27zM60 0v30l363 580h-352v50h473v-32l-361 -578h385v-50h-508z" />
    <glyph glyph-name="zacute" unicode="&#x17a;" horiz-adv-x="457" 
d="M277 698h111l-149 -150h-27zM40 0v31l262 383h-252v36h355v-31l-264 -384h276v-35h-377z" />
    <glyph glyph-name="Zdotaccent" unicode="&#x17b;" horiz-adv-x="628" 
d="M357 726h-90v87h90v-87zM60 0v30l363 580h-352v50h473v-32l-361 -578h385v-50h-508z" />
    <glyph glyph-name="zdotaccent" unicode="&#x17c;" horiz-adv-x="457" 
d="M270 673v-87h-90v87h90zM40 0v31l262 383h-252v36h355v-31l-264 -384h276v-35h-377z" />
    <glyph glyph-name="Zcaron" unicode="&#x17d;" horiz-adv-x="628" 
d="M314 787l90 43h27l-109 -120h-16l-109 120h27zM60 0v30l363 580h-352v50h473v-32l-361 -578h385v-50h-508z" />
    <glyph glyph-name="zcaron" unicode="&#x17e;" horiz-adv-x="457" 
d="M226 635l90 63h27l-109 -150h-16l-109 150h27zM40 0v31l262 383h-252v36h355v-31l-264 -384h276v-35h-377z" />
    <glyph glyph-name="longs" unicode="&#x17f;" horiz-adv-x="358" 
d="M193 0h-89v414h-91v36h91v70q0 116 44.5 170.5t116.5 54.5q56 0 89.5 -34.5t37.5 -93.5h-26q-13 98 -101 98q-46 0 -77 -30t-31 -92q0 -89 36 -150v-443z" />
    <glyph glyph-name="Schwa" unicode="&#x18f;" horiz-adv-x="710" 
d="M355 -11q-155 0 -226.5 88.5t-71.5 261.5h490q-1 87 -16.5 145t-46 87.5t-65.5 40.5t-85 11q-81 0 -142 -41.5t-74 -107.5h-51q17 87 90.5 141.5t176.5 54.5q148 0 233.5 -93t85.5 -239q0 -150 -82 -249.5t-216 -99.5zM353 37q38 0 67.5 9.5t58.5 35t46 78t21 129.5h-382
q0 -75 18.5 -128t49 -78t60 -35.5t61.5 -10.5z" />
    <glyph glyph-name="florin" unicode="&#x192;" horiz-adv-x="533" 
 />
    <glyph glyph-name="Aringacute" unicode="&#x1fa;" horiz-adv-x="622" 
d="M395 980h111l-169 -120h-27zM309 710q-45 0 -70.5 16t-25.5 44q0 27 26 43.5t70 16.5t70 -16.5t26 -43.5q0 -28 -25.5 -44t-70.5 -16zM309 733q42 0 42 37t-42 37t-42 -37t42 -37zM389 251l-106 260l-102 -260h208zM491 0l-82 201h-248l-80 -201h-61l272 665h34l276 -665
h-111z" />
    <glyph glyph-name="aringacute" unicode="&#x1fb;" horiz-adv-x="486" 
d="M297 885h111l-149 -150h-27zM251 548q-45 0 -70.5 19.5t-25.5 55.5q0 35 25.5 55t70.5 20t70.5 -20t25.5 -55q0 -36 -25.5 -55.5t-70.5 -19.5zM251 573q42 0 42 50t-42 50t-42 -50t42 -50zM217 33q39 0 72 33t33 63v89l-76 -15q-52 -10 -76 -32t-24 -67q0 -33 18 -52
t53 -19zM322 0v70q-18 -34 -53 -57.5t-84 -23.5q-62 0 -96 28t-34 80q0 59 38 88.5t114 44.5l115 22v51q0 52 -29.5 78.5t-73.5 26.5q-42 0 -72 -24.5t-34 -66.5h-24q4 70 45.5 106.5t109.5 36.5q81 0 124 -45.5t43 -111.5v-303h-89z" />
    <glyph glyph-name="AEacute" unicode="&#x1fc;" horiz-adv-x="903" 
d="M568 830h111l-169 -120h-27zM438 281v296l-186 -296h186zM438 0v231h-217l-145 -231h-66l418 660h388v-50h-277v-255h257v-50h-257v-255h298v-50h-399z" />
    <glyph glyph-name="aeacute" unicode="&#x1fd;" horiz-adv-x="787" 
d="M463 698h111l-149 -150h-27zM548 418q-106 0 -118 -144h216q0 144 -98 144zM736 145q-5 -65 -54.5 -110.5t-127.5 -45.5q-131 0 -189 98q-16 -40 -59.5 -69t-107.5 -29q-61 0 -97 28.5t-36 80.5q0 59 38 88t114 44l115 23v51q0 52 -29.5 78t-72.5 26t-72.5 -24.5
t-33.5 -66.5h-25q4 69 45.5 106t110.5 37q95 0 139 -64q59 64 147 64q95 0 148 -60.5t53 -161.5h-314v-8q0 -189 147 -189q49 0 87.5 25.5t46.5 78.5h27zM227 34q41 0 76.5 22.5t50.5 51.5q-22 50 -22 110l-75 -15q-52 -10 -76.5 -31.5t-24.5 -66.5q0 -33 19.5 -52t51.5 -19
z" />
    <glyph glyph-name="Oslashacute" unicode="&#x1fe;" horiz-adv-x="724" 
d="M447 830h111l-169 -120h-27zM362 -10q-118 0 -199 71l-52 -61h-54l77 91q-77 92 -77 232q0 144 83 245.5t222 101.5q117 0 197 -75l54 65h54l-80 -95q80 -98 80 -242q0 -143 -82 -238t-223 -95zM164 323q0 -101 24 -168l324 386q-49 79 -150 79q-92 0 -145 -71t-53 -226z
M362 40q95 0 146.5 63t51.5 220q0 107 -27 178l-325 -386q47 -75 154 -75z" />
    <glyph glyph-name="oslashacute" unicode="&#x1ff;" horiz-adv-x="531" 
d="M325 698h111l-149 -150h-27zM266 -11q-84 0 -140 47l-31 -36h-51l55 63q-54 65 -54 161q0 97 60.5 166.5t160.5 69.5q81 0 137 -45l30 35h53l-54 -62q54 -65 54 -162t-60 -167t-160 -70zM141 224q0 -63 10 -100l213 246q-29 48 -98 48q-60 0 -92.5 -43.5t-32.5 -150.5z
M266 31q60 0 92.5 44t32.5 151q0 61 -11 102l-213 -246q29 -51 99 -51z" />
    <glyph glyph-name="Scommaaccent" unicode="&#x218;" horiz-adv-x="551" 
d="M296 623q-51 0 -81.5 -28.5t-30.5 -75.5t27 -77.5t101 -65.5q98 -47 138.5 -90t40.5 -116q0 -79 -59.5 -129.5t-156.5 -50.5q-195 0 -211 176h40q14 -72 54 -100.5t112 -28.5q58 0 92 29t34 83q0 50 -28.5 80t-112.5 66q-87 38 -123.5 82.5t-36.5 114.5q0 73 53.5 125.5
t140.5 52.5q156 0 178 -159h-40q-21 112 -131 112zM307 -135q0 25 -58 25v50q99 0 99 -68q0 -67 -114 -67v26q44 1 58.5 9.5t14.5 24.5z" />
    <glyph glyph-name="scommaaccent" unicode="&#x219;" horiz-adv-x="423" 
d="M228 420q-44 0 -66.5 -19t-22.5 -51q0 -34 22.5 -51.5t75.5 -37.5q36 -13 54 -21t42 -24.5t34.5 -40t10.5 -55.5q0 -62 -48 -96.5t-122 -34.5q-72 0 -118.5 36.5t-49.5 101.5h27q7 -51 44 -73.5t90 -22.5q95 0 95 68q0 17 -6 29.5t-25 23.5t-31 16.5t-45 18.5
q-62 24 -94.5 53.5t-32.5 85.5q0 57 42.5 95.5t112.5 38.5q71 0 110.5 -39t42.5 -103h-28q-7 50 -37 76t-77 26zM238 -135q0 25 -58 25v50q99 0 99 -68q0 -67 -114 -67v26q44 1 58.5 9.5t14.5 24.5z" />
    <glyph glyph-name="Tcommaaccent" unicode="&#x21a;" horiz-adv-x="639" 
d="M609 610h-239v-610h-101v610h-239v50h579v-50zM339 -135q0 25 -58 25v50q99 0 99 -68q0 -67 -114 -67v26q44 1 58.5 9.5t14.5 24.5z" />
    <glyph glyph-name="tcommaaccent" unicode="&#x21b;" horiz-adv-x="405" 
d="M362 116q-8 -127 -117 -127q-138 0 -138 168v257h-87v36h87q24 21 46.5 75.5t23.5 104.5h19v-180h146v-36h-146v-279q0 -105 69 -105q58 0 69 86h28zM253 -135q0 25 -58 25v50q99 0 99 -68q0 -67 -114 -67v26q44 1 58.5 9.5t14.5 24.5z" />
    <glyph glyph-name="dotlessj" unicode="&#x237;" horiz-adv-x="253" 
d="M170 450v-422q0 -23 1.5 -67.5t1.5 -58.5q0 -79 -36 -123t-103 -44q-27 0 -39 3v32q10 -2 19 -2q70 0 70 115q0 12 -2 64.5t-2 83.5v419h90z" />
    <glyph glyph-name="schwa" unicode="&#x259;" horiz-adv-x="486" 
d="M240 -10q-93 0 -144 58.5t-51 157.5h300q0 172 -142 172q-44 0 -79 -22t-44 -72h-29q4 63 51 107t124 44q97 0 156 -58t59 -162q-1 -95 -56.5 -160t-144.5 -65zM232 38q99 0 111 128h-202q0 -128 91 -128z" />
    <glyph glyph-name="circumflex" unicode="&#x2c6;" horiz-adv-x="500" 
d="M250 611l-90 -63h-27l109 150h16l109 -150h-27z" />
    <glyph glyph-name="caron" unicode="&#x2c7;" horiz-adv-x="500" 
d="M250 635l90 63h27l-109 -150h-16l-109 150h27z" />
    <glyph glyph-name="breve" unicode="&#x2d8;" horiz-adv-x="500" 
d="M251 626q33 0 60.5 16.5t27.5 55.5h35q0 -55 -37.5 -97t-85.5 -42q-55 0 -89.5 41t-34.5 98h35q0 -72 89 -72z" />
    <glyph glyph-name="dotaccent" unicode="&#x2d9;" horiz-adv-x="500" 
d="M295 673v-87h-90v87h90z" />
    <glyph glyph-name="ring" unicode="&#x2da;" horiz-adv-x="500" 
d="M250 548q-45 0 -70.5 19.5t-25.5 55.5q0 35 25.5 55t70.5 20t70.5 -20t25.5 -55q0 -36 -25.5 -55.5t-70.5 -19.5zM250 573q42 0 42 50t-42 50t-42 -50t42 -50z" />
    <glyph glyph-name="ogonek" unicode="&#x2db;" horiz-adv-x="500" 
d="M246 -199q-79 0 -79 63q0 27 19.5 55t66.5 81h36q-65 -82 -65 -130q0 -36 33 -36q17 0 29.5 14.5t15.5 40.5h32q-1 -42 -24.5 -65t-63.5 -23z" />
    <glyph glyph-name="tilde" unicode="&#x2dc;" horiz-adv-x="500" 
d="M302 559q-21 0 -38 12.5t-26 27t-21.5 27t-25.5 12.5q-29 0 -29 -79h-35q0 66 18 102.5t52 36.5q25 0 45 -20t36 -39.5t32 -19.5q29 0 29 79h35q0 -139 -72 -139z" />
    <glyph glyph-name="hungarumlaut" unicode="&#x2dd;" horiz-adv-x="500" 
d="M282 698h111l-119 -150h-27zM142 698h111l-119 -150h-27z" />
    <glyph glyph-name="pi" unicode="&#x3c0;" horiz-adv-x="578" 
d="M455 -11q-47 0 -74.5 31.5t-27.5 115.5v229h-100l-29 -181q-18 -109 -60.5 -152t-112.5 -43v89q51 0 85.5 27t46.5 99l27 161h-38q-53 0 -73 -16.5t-47 -71.5h-33q12 40 18.5 58.5t20 45.5t29 39t40.5 21t58 9h349v-85h-136v-213q0 -53 15 -70.5t46 -17.5q58 0 58 64h39
q-2 -73 -26.5 -106t-74.5 -33z" />
    <glyph glyph-name="Wgrave" unicode="&#x1e80;" horiz-adv-x="935" 
d="M435 830l85 -120h-27l-169 120h111zM272 -5h-36l-206 665h110l147 -496l201 496h33l179 -476l144 476h61l-208 -665h-34l-187 488z" />
    <glyph glyph-name="wgrave" unicode="&#x1e81;" horiz-adv-x="751" 
d="M337 697l65 -150h-27l-149 150h111zM198 -5l-178 455h95l122 -327l131 329h35l157 -333l120 331h51l-171 -455h-35l-157 332l-136 -332h-34z" />
    <glyph glyph-name="Wacute" unicode="&#x1e82;" horiz-adv-x="935" 
d="M577 830h111l-169 -120h-27zM272 -5h-36l-206 665h110l147 -496l201 496h33l179 -476l144 476h61l-208 -665h-34l-187 488z" />
    <glyph glyph-name="wacute" unicode="&#x1e83;" horiz-adv-x="751" 
d="M439 698h111l-149 -150h-27zM198 -5l-178 455h95l122 -327l131 329h35l157 -333l120 331h51l-171 -455h-35l-157 332l-136 -332h-34z" />
    <glyph glyph-name="Wdieresis" unicode="&#x1e84;" horiz-adv-x="935" 
d="M475 813v-77h-80v77h80zM616 813v-77h-80v77h80zM272 -5h-36l-206 665h110l147 -496l201 496h33l179 -476l144 476h61l-208 -665h-34l-187 488z" />
    <glyph glyph-name="wdieresis" unicode="&#x1e85;" horiz-adv-x="751" 
d="M357 668v-77h-80v77h80zM498 668v-77h-80v77h80zM198 -5l-178 455h95l122 -327l131 329h35l157 -333l120 331h51l-171 -455h-35l-157 332l-136 -332h-34z" />
    <glyph glyph-name="Ygrave" unicode="&#x1ef2;" horiz-adv-x="622" 
d="M263 830l85 -120h-27l-169 120h111zM365 0h-101v299l-239 361h112l201 -301l193 301h66l-232 -351v-309z" />
    <glyph glyph-name="ygrave" unicode="&#x1ef3;" horiz-adv-x="477" 
d="M210 697l65 -150h-27l-149 150h111zM48 -250v77q73 1 104 18t52 71l31 81l-215 453h95l163 -338l128 338h51l-204 -521q-38 -98 -77.5 -138.5t-127.5 -40.5z" />
    <glyph glyph-name="thinspace" unicode="&#x2009;" horiz-adv-x="500" 
 />
    <glyph glyph-name="endash" unicode="&#x2013;" horiz-adv-x="610" 
d="M555 200h-500v63h500v-63z" />
    <glyph glyph-name="emdash" unicode="&#x2014;" horiz-adv-x="1000" 
d="M975 200h-950v63h950v-63z" />
    <glyph glyph-name="quoteleft" unicode="&#x2018;" horiz-adv-x="276" 
d="M119 648q0 -45 84 -45v-96q-68 0 -102 29.5t-34 82.5q0 50 37 83t105 33v-40q-90 0 -90 -47z" />
    <glyph glyph-name="quoteright" unicode="&#x2019;" horiz-adv-x="276" 
d="M157 594q0 45 -84 45v96q68 0 102 -29.5t34 -82.5q0 -50 -37 -83t-105 -33v40q90 0 90 47z" />
    <glyph glyph-name="quotesinglbase" unicode="&#x201a;" horiz-adv-x="276" 
d="M157 -46q0 45 -84 45v96q68 0 102 -29.5t34 -82.5q0 -50 -37 -83t-105 -33v40q90 0 90 47z" />
    <glyph glyph-name="quotedblleft" unicode="&#x201c;" horiz-adv-x="476" 
d="M319 648q0 -45 84 -45v-96q-68 0 -102 29.5t-34 82.5q0 50 37 83t105 33v-40q-90 0 -90 -47zM119 648q0 -45 84 -45v-96q-68 0 -102 29.5t-34 82.5q0 50 37 83t105 33v-40q-90 0 -90 -47z" />
    <glyph glyph-name="quotedblright" unicode="&#x201d;" horiz-adv-x="476" 
d="M357 594q0 45 -84 45v96q68 0 102 -29.5t34 -82.5q0 -50 -37 -83t-105 -33v40q90 0 90 47zM157 594q0 45 -84 45v96q68 0 102 -29.5t34 -82.5q0 -50 -37 -83t-105 -33v40q90 0 90 47z" />
    <glyph glyph-name="quotedblbase" unicode="&#x201e;" horiz-adv-x="476" 
d="M357 -46q0 45 -84 45v96q68 0 102 -29.5t34 -82.5q0 -50 -37 -83t-105 -33v40q90 0 90 47zM157 -46q0 45 -84 45v96q68 0 102 -29.5t34 -82.5q0 -50 -37 -83t-105 -33v40q90 0 90 47z" />
    <glyph glyph-name="dagger" unicode="&#x2020;" horiz-adv-x="391" 
d="M341 501h-119v-281h-53v281h-119v41h119v118h53v-118h119v-41z" />
    <glyph glyph-name="daggerdbl" unicode="&#x2021;" horiz-adv-x="391" 
d="M341 338h-119v-118h-53v118h-119v41h119v122h-119v41h119v118h53v-118h119v-41h-119v-122h119v-41z" />
    <glyph glyph-name="bullet" unicode="&#x2022;" 
d="M124 261q0 66 41.5 113t109.5 47q69 0 110 -44t41 -107q0 -67 -41 -113.5t-110 -46.5q-68 0 -109.5 43.5t-41.5 107.5z" />
    <glyph glyph-name="ellipsis" unicode="&#x2026;" horiz-adv-x="675" 
d="M484 0v106h106v-106h-106zM284 0v106h106v-106h-106zM84 0v106h106v-106h-106z" />
    <glyph glyph-name="perthousand" unicode="&#x2030;" horiz-adv-x="1205" 
d="M177 225q-71 0 -113 63.5t-42 159.5q0 95 42 158.5t113 63.5t112.5 -63t41.5 -159q0 -95 -41.5 -159t-112.5 -64zM308 0h-55l287 660h55zM177 631q-79 0 -79 -183q0 -184 79 -184q78 0 78 184q0 183 -78 183zM1024 -10q-71 0 -113 63.5t-42 159.5q0 95 42 158.5t113 63.5
t112.5 -63t41.5 -159q0 -95 -41.5 -159t-112.5 -64zM667 -10q-71 0 -113 63.5t-42 159.5q0 95 42 158.5t113 63.5t112.5 -63t41.5 -159q0 -95 -41.5 -159t-112.5 -64zM1024 396q-79 0 -79 -183q0 -184 79 -184q78 0 78 184q0 183 -78 183zM667 396q-79 0 -79 -183
q0 -184 79 -184q78 0 78 184q0 183 -78 183z" />
    <glyph glyph-name="guilsinglleft" unicode="&#x2039;" horiz-adv-x="350" 
d="M152 223l139 -202h-31l-201 188v28l201 188h31z" />
    <glyph glyph-name="guilsinglright" unicode="&#x203a;" horiz-adv-x="350" 
d="M198 223l-139 202h31l201 -188v-28l-201 -188h-31z" />
    <glyph glyph-name="fraction" unicode="&#x2044;" horiz-adv-x="132" 
d="M-50 0h-55l287 660h55z" />
    <glyph glyph-name="zerosuperior" unicode="&#x2070;" horiz-adv-x="353" 
d="M177 300q-71 0 -113 63.5t-42 159.5q0 95 42 158.5t113 63.5t112.5 -63t41.5 -159q0 -95 -41.5 -159t-112.5 -64zM177 706q-79 0 -79 -183q0 -184 79 -184q78 0 78 184q0 183 -78 183z" />
    <glyph glyph-name="foursuperior" unicode="&#x2074;" horiz-adv-x="359" 
d="M343 411h-82v-101h-68v101h-174v29q68 97 97 150t33 75t4 70h79q0 -20 -4 -37t-9 -31t-21.5 -38.5t-29 -42.5t-44 -61t-55.5 -77h124v64q15 16 24.5 47t9.5 60h34v-171h82v-37z" />
    <glyph glyph-name="fivesuperior" unicode="&#x2075;" horiz-adv-x="357" 
d="M169 300q-56 0 -90 31t-38 92h36q3 -36 27 -56t59 -20q77 0 77 98q0 96 -69 96q-53 0 -71 -47h-33v241h232v-67h-192v-109q25 24 74 24q60 0 98 -39.5t38 -95.5q0 -67 -38 -107.5t-110 -40.5z" />
    <glyph glyph-name="sixsuperior" unicode="&#x2076;" horiz-adv-x="361" 
d="M329 440q0 -60 -38 -100t-109 -40q-70 0 -108.5 53t-38.5 148q0 108 45.5 175t121.5 67q53 0 84 -32.5t33 -87.5h-36q-6 41 -24 60.5t-54 19.5q-90 0 -94 -177q32 40 88 40t93 -36.5t37 -89.5zM189 339q29 0 46 23.5t17 70.5q0 44 -17 65.5t-45 21.5q-59 0 -78 -51
q4 -74 22.5 -102t54.5 -28z" />
    <glyph glyph-name="sevensuperior" unicode="&#x2077;" horiz-adv-x="351" 
d="M181 310h-76q0 76 23 131.5t126 226.5h-207v67h273v-29q-55 -102 -83 -159.5t-40.5 -103t-14 -63.5t-1.5 -70z" />
    <glyph glyph-name="eightsuperior" unicode="&#x2078;" horiz-adv-x="360" 
d="M180 300q-67 0 -107.5 37.5t-40.5 89.5q0 36 19.5 65t55.5 45q-58 33 -58 99q0 48 35 78.5t96 30.5t96 -30.5t35 -78.5q0 -66 -58 -99q36 -16 55.5 -45t19.5 -65q0 -52 -40.5 -89.5t-107.5 -37.5zM125 636q0 -82 55 -82t55 82q0 38 -14 53.5t-41 15.5t-41 -15.5
t-14 -53.5zM107 427q0 -88 73 -88t73 88q0 89 -73 89t-73 -89z" />
    <glyph glyph-name="ninesuperior" unicode="&#x2079;" horiz-adv-x="361" 
d="M172 523q59 0 78 51q-4 74 -22.5 102t-54.5 28q-29 0 -46 -23.5t-17 -70.5q0 -44 17 -65.5t45 -21.5zM160 300q-53 0 -84 32.5t-33 87.5h36q6 -41 24 -60.5t54 -19.5q90 0 94 177q-32 -40 -88 -40t-93 36.5t-37 89.5q0 60 38 100t109 40q70 0 108.5 -53t38.5 -148
q0 -108 -45.5 -175t-121.5 -67z" />
    <glyph glyph-name="plussuperior" unicode="&#x207a;" horiz-adv-x="349" 
d="M301 436h-102v-102h-49v102h-102v49h102v103h49v-103h102v-49z" />
    <glyph glyph-name="minussuperior" unicode="&#x207b;" horiz-adv-x="349" 
d="M301 436h-253v49h253v-49z" />
    <glyph glyph-name="equalsuperior" unicode="&#x207c;" horiz-adv-x="349" 
d="M301 497h-253v49h253v-49zM301 375h-253v49h253v-49z" />
    <glyph glyph-name="parenleftsuperior" unicode="&#x207d;" horiz-adv-x="234" 
d="M206 739q-57 -19 -92.5 -86t-35.5 -164q0 -96 35.5 -163t92.5 -86l-7 -31q-72 18 -115.5 94t-43.5 186t43.5 185.5t115.5 95.5z" />
    <glyph glyph-name="parenrightsuperior" unicode="&#x207e;" horiz-adv-x="234" 
d="M28 240q57 19 92.5 86t35.5 164q0 96 -35.5 163t-92.5 86l7 31q72 -18 115.5 -94t43.5 -186t-43.5 -185.5t-115.5 -95.5z" />
    <glyph glyph-name="n.superior" unicode="&#x207f;" horiz-adv-x="364" 
d="M48 586h69v-48q31 55 93 55q53 0 81 -28.5t28 -77.5v-177h-69v164q0 42 -15 59t-45 17q-31 0 -52 -26t-21 -56v-158h-69v276z" />
    <glyph glyph-name="zeroinferior" unicode="&#x2080;" horiz-adv-x="353" 
d="M177 -250q-71 0 -113 63.5t-42 159.5q0 95 42 158.5t113 63.5t112.5 -63t41.5 -159q0 -95 -41.5 -159t-112.5 -64zM177 156q-79 0 -79 -183q0 -184 79 -184q78 0 78 184q0 183 -78 183z" />
    <glyph glyph-name="oneinferior" unicode="&#x2081;" horiz-adv-x="344" 
d="M162 -240v344l-96 -82l-21 40l156 123h33v-425h-72z" />
    <glyph glyph-name="twoinferior" unicode="&#x2082;" horiz-adv-x="355" 
d="M155 154q-36 0 -58 -23t-23 -67h-36q1 64 38 97.5t92 33.5q61 0 97.5 -32.5t36.5 -88.5q0 -20 -5.5 -38.5t-12 -32.5t-24.5 -37t-30.5 -36.5t-43.5 -47t-51 -55.5h182v-67h-272v22l72 81q3 3 15.5 17t16 18t14.5 17.5t15 19.5t12.5 19.5t12 22t9.5 22t8 25t4 26t2 29.5
q0 75 -71 75z" />
    <glyph glyph-name="threeinferior" unicode="&#x2083;" horiz-adv-x="352" 
d="M171 -250q-60 0 -98 33t-39 98h36q1 -44 25.5 -67t62.5 -23q40 0 62.5 22.5t22.5 63.5q0 50 -17.5 66.5t-49.5 16.5h-46v41h46q24 0 39.5 19t15.5 57q0 36 -20 56.5t-52 20.5q-35 0 -56 -23t-22 -67h-36q1 65 37.5 98t93.5 33q61 0 96 -30t35 -78q0 -66 -54 -104
q31 -17 48.5 -45t17.5 -61q0 -51 -40.5 -89t-107.5 -38z" />
    <glyph glyph-name="fourinferior" unicode="&#x2084;" horiz-adv-x="359" 
d="M343 -139h-82v-101h-68v101h-174v29q68 97 97 150t33 75t4 70h79q0 -20 -4 -37t-9 -31t-21.5 -38.5t-29 -42.5t-44 -61t-55.5 -77h124v64q15 16 24.5 47t9.5 60h34v-171h82v-37z" />
    <glyph glyph-name="fiveinferior" unicode="&#x2085;" horiz-adv-x="357" 
d="M169 -250q-56 0 -90 31t-38 92h36q3 -36 27 -56t59 -20q77 0 77 98q0 96 -69 96q-53 0 -71 -47h-33v241h232v-67h-192v-109q25 24 74 24q60 0 98 -39.5t38 -95.5q0 -67 -38 -107.5t-110 -40.5z" />
    <glyph glyph-name="sixinferior" unicode="&#x2086;" horiz-adv-x="361" 
d="M329 -110q0 -60 -38 -100t-109 -40q-70 0 -108.5 53t-38.5 148q0 108 45.5 175t121.5 67q53 0 84 -32.5t33 -87.5h-36q-6 41 -24 60.5t-54 19.5q-90 0 -94 -177q32 40 88 40t93 -36.5t37 -89.5zM189 -211q29 0 46 23.5t17 70.5q0 44 -17 65.5t-45 21.5q-59 0 -78 -51
q4 -74 22.5 -102t54.5 -28z" />
    <glyph glyph-name="seveninferior" unicode="&#x2087;" horiz-adv-x="351" 
d="M181 -240h-76q0 76 23 131.5t126 226.5h-207v67h273v-29q-55 -102 -83 -159.5t-40.5 -103t-14 -63.5t-1.5 -70z" />
    <glyph glyph-name="eightinferior" unicode="&#x2088;" horiz-adv-x="360" 
d="M180 -250q-67 0 -107.5 37.5t-40.5 89.5q0 36 19.5 65t55.5 45q-58 33 -58 99q0 48 35 78.5t96 30.5t96 -30.5t35 -78.5q0 -66 -58 -99q36 -16 55.5 -45t19.5 -65q0 -52 -40.5 -89.5t-107.5 -37.5zM125 86q0 -82 55 -82t55 82q0 38 -14 53.5t-41 15.5t-41 -15.5
t-14 -53.5zM107 -123q0 -88 73 -88t73 88q0 89 -73 89t-73 -89z" />
    <glyph glyph-name="nineinferior" unicode="&#x2089;" horiz-adv-x="361" 
d="M172 -27q59 0 78 51q-4 74 -22.5 102t-54.5 28q-29 0 -46 -23.5t-17 -70.5q0 -44 17 -65.5t45 -21.5zM160 -250q-53 0 -84 32.5t-33 87.5h36q6 -41 24 -60.5t54 -19.5q90 0 94 177q-32 -40 -88 -40t-93 36.5t-37 89.5q0 60 38 100t109 40q70 0 108.5 -53t38.5 -148
q0 -108 -45.5 -175t-121.5 -67z" />
    <glyph glyph-name="parenleftinferior" unicode="&#x208d;" horiz-adv-x="234" 
d="M206 189q-57 -19 -92.5 -86t-35.5 -164q0 -96 35.5 -163t92.5 -86l-7 -31q-72 18 -115.5 94t-43.5 186t43.5 185.5t115.5 95.5z" />
    <glyph glyph-name="parenrightinferior" unicode="&#x208e;" horiz-adv-x="234" 
d="M28 -310q57 19 92.5 86t35.5 164q0 96 -35.5 163t-92.5 86l7 31q72 -18 115.5 -94t43.5 -186t-43.5 -185.5t-115.5 -95.5z" />
    <glyph glyph-name="Euro" unicode="&#x20ac;" 
d="M529 141q-11 -77 -58 -114t-120 -37q-110 0 -174.5 64t-82.5 176h-84v43h79q-2 32 -2 50q0 30 3 57h-80v43h86q20 112 86 179.5t168 67.5q67 0 116.5 -38t58.5 -113h-38q-9 55 -44 82t-86 27q-73 0 -113 -49t-51 -156h252v-43h-256q-1 -18 -1 -57q0 -34 1 -50h196v-43
h-192q22 -198 164 -198q61 0 92.5 25.5t41.5 83.5h38z" />
    <glyph glyph-name="litre" unicode="&#x2113;" horiz-adv-x="390" 
d="M224 -10q-35 0 -60.5 13.5t-47.5 46.5t-33 96.5t-11 156.5q0 182 35 264t112 82q55 0 86 -37.5t31 -101.5q0 -86 -56 -170.5t-154 -125.5q7 -100 30.5 -142t69.5 -42q29 0 48.5 13t39.5 41l28 -27q-48 -67 -118 -67zM123 303q0 -34 1 -50q74 31 117.5 106t43.5 151
q0 100 -66 100q-52 0 -74 -71t-22 -236z" />
    <glyph glyph-name="numero" unicode="&#x2116;" horiz-adv-x="964" 
d="M649 442q0 60 39 105.5t105 45.5q67 0 105.5 -41.5t38.5 -103.5q0 -59 -39 -102t-105 -43q-68 0 -106 38.5t-38 100.5zM721 448q0 -60 18 -83.5t54 -23.5q72 0 72 107q0 60 -18 84t-54 24q-72 0 -72 -108zM910 206h-235v40h235v-40zM514 -4l-2 1v-1h-42l-304 397v-393
h-53v495h91l257 -337v337h53v-499z" />
    <glyph glyph-name="uni2117" unicode="&#x2117;" horiz-adv-x="744" 
d="M372 13q-129 0 -215.5 87t-86.5 230t86.5 230t215.5 87t215.5 -87t86.5 -230t-86.5 -230t-215.5 -87zM372 59q108 0 176 73.5t68 197.5t-68 197.5t-176 73.5t-176 -73.5t-68 -197.5t68 -197.5t176 -73.5zM393 458h-56v-138h56q25 0 41 17t16 49q0 72 -57 72zM408 274h-71
v-128h-70v359h141q54 0 85 -33.5t31 -83.5q0 -45 -32 -79.5t-84 -34.5z" />
    <glyph glyph-name="servicemark" unicode="&#x2120;" horiz-adv-x="708" 
d="M571 373v206l-88 -209h-30l-80 204v-201h-45v287h77l74 -195l81 195h72v-287h-61zM166 629q-20 0 -31 -10t-11 -25q0 -18 8.5 -27.5t38.5 -20.5q45 -16 66 -38t21 -56q0 -36 -27.5 -59t-72.5 -23q-91 0 -99 85h32q5 -30 20.5 -41t41.5 -11q23 0 36 10t13 27
q0 18 -12 29.5t-44 21.5q-76 24 -76 88q0 35 24 59t65 24q76 0 86 -78h-32q-8 45 -47 45z" />
    <glyph glyph-name="trademark" unicode="&#x2122;" horiz-adv-x="738" 
d="M125 373v248h-100v39h260v-39h-100v-248h-60zM601 373v206l-88 -209h-30l-80 204v-201h-45v287h77l74 -195l81 195h72v-287h-61z" />
    <glyph glyph-name="Omega" unicode="&#x2126;" horiz-adv-x="808" 
d="M355 54v-54h-257v88h155q-80 60 -114.5 135t-34.5 143q0 124 84 214t216 90t216 -90t84 -214q0 -68 -34.5 -143t-114.5 -135h155v-88h-257v54q81 61 112.5 132.5t31.5 176.5q0 120 -51 188.5t-142 68.5t-142 -68.5t-51 -188.5q0 -105 31.5 -176.5t112.5 -132.5z" />
    <glyph glyph-name="estimated" unicode="&#x212e;" horiz-adv-x="749" 
d="M375 620q-76 0 -138.5 -35.5t-99.5 -97.5v-107h474v108q-37 61 -99 96.5t-137 35.5zM701 232q-31 -108 -120 -175t-206 -67q-145 0 -242.5 98t-97.5 243q0 143 98 241t242 98q143 0 241 -98t98 -241h-577v-157q38 -62 100 -98t138 -36q95 0 169 53t100 139h57z" />
    <glyph glyph-name="arrowleft" unicode="&#x2190;" horiz-adv-x="590" 
d="M145 275l163 -165h-73l-191 198v8l191 198h73l-160 -164h398v-75h-401z" />
    <glyph glyph-name="arrowup" unicode="&#x2191;" horiz-adv-x="590" 
d="M258 462l-165 -163v73l198 191h8l198 -191v-73l-164 160v-398h-75v401z" />
    <glyph glyph-name="arrowright" unicode="&#x2192;" horiz-adv-x="590" 
d="M442 274h-398v75h401l-163 165h73l191 -198v-8l-191 -198h-73z" />
    <glyph glyph-name="arrowdown" unicode="&#x2193;" horiz-adv-x="590" 
d="M258 162v401h75v-398l164 160v-73l-198 -191h-8l-198 191v73z" />
    <glyph glyph-name="arrowupleft" unicode="&#x2196;" horiz-adv-x="590" 
d="M165 404l-3 -230l-52 52l5 275l6 6l275 5l52 -52l-232 -1l283 -284l-53 -53z" />
    <glyph glyph-name="arrowupright" unicode="&#x2197;" horiz-adv-x="590" 
d="M441 404l-281 -282l-53 53l283 284l-232 1l52 52l275 -5l6 -6l5 -275l-52 -52z" />
    <glyph glyph-name="arrowdownright" unicode="&#x2198;" horiz-adv-x="590" 
d="M440 235l3 230l52 -52l-5 -275l-6 -6l-275 -5l-52 52l232 1l-283 284l53 53z" />
    <glyph glyph-name="arrowdownleft" unicode="&#x2199;" horiz-adv-x="590" 
d="M165 235l281 282l53 -53l-283 -284l232 -1l-52 -52l-275 5l-6 6l-5 275l52 52z" />
    <glyph glyph-name="partialdiff" unicode="&#x2202;" horiz-adv-x="560" 
d="M218 -10q-78 0 -122.5 47t-44.5 120q0 104 68 183.5t171 79.5q89 0 114 -81q17 94 17 157q0 136 -111 136q-63 0 -109 -41l-26 26q58 53 143 53q192 0 192 -241q0 -180 -87 -309.5t-205 -129.5zM291 371q-59 0 -100.5 -67t-41.5 -169q0 -97 71 -97q58 0 99.5 67t41.5 169
q0 97 -70 97z" />
    <glyph glyph-name="Delta" unicode="&#x2206;" horiz-adv-x="594" 
d="M441 88l-172 423l-167 -423h339zM20 0v34l258 631h34l262 -631v-34h-554z" />
    <glyph glyph-name="product" unicode="&#x220f;" horiz-adv-x="764" 
d="M556 -190v800h-347v-800h-101v850h548v-850h-100z" />
    <glyph glyph-name="summation" unicode="&#x2211;" horiz-adv-x="543" 
d="M483 -190h-423v54l279 347l-266 417v32h385v-50h-263l224 -349v-30l-268 -336h332v-85z" />
    <glyph glyph-name="minus" unicode="&#x2212;" 
d="M470 200h-390v63h390v-63z" />
    <glyph glyph-name="radical" unicode="&#x221a;" 
d="M289 0h-38l-149 390h68l106 -282l134 552h39z" />
    <glyph glyph-name="infinity" unicode="&#x221e;" 
d="M338 74q-40 0 -63 24.5t-40 68.5q-41 -72 -94 -72q-43 0 -68.5 35.5t-25.5 90.5q0 58 26.5 93.5t75.5 35.5q50 0 80 -56q44 85 111 85q110 0 110 -161q0 -71 -31.5 -107.5t-80.5 -36.5zM337 115q69 0 69 98q0 113 -58 113q-15 0 -27 -8t-24 -27.5t-18.5 -32t-19.5 -42.5
q11 -33 18.5 -51t23 -34t36.5 -16zM137 152q20 0 34.5 21.5t32.5 65.5q2 5 3 8q-25 66 -64 66q-25 0 -41 -20.5t-16 -55.5q0 -42 15 -63.5t36 -21.5z" />
    <glyph glyph-name="integral" unicode="&#x222b;" horiz-adv-x="422" 
d="M-74 -200v100q24 -4 54 -4q73 0 94 44.5t21 185.5v158q0 95 29.5 180.5t91 143t142.5 57.5v-100q-24 4 -54 4q-71 0 -92 -45t-21 -185v-158q0 -100 -29.5 -185t-91 -140.5t-144.5 -55.5z" />
    <glyph glyph-name="approxequal" unicode="&#x2248;" 
d="M368 252q-40 0 -73.5 22t-62.5 43.5t-60 21.5q-63 0 -63 -87h-29q0 149 102 149q29 0 58.5 -13.5t49 -30t44 -30t44.5 -13.5q63 0 63 87h29q0 -149 -102 -149zM368 62q-32 0 -60 13.5t-45.5 30t-41.5 30t-49 13.5q-63 0 -63 -87h-29q0 149 102 149q29 0 58.5 -13.5
t49 -30t44 -30t44.5 -13.5q63 0 63 87h29q0 -149 -102 -149z" />
    <glyph glyph-name="notequal" unicode="&#x2260;" 
d="M470 100h-270l-77 -100h-43l77 100h-77v63h126l105 137h-231v63h280l67 87h43l-67 -87h67v-63h-116l-105 -137h221v-63z" />
    <glyph glyph-name="lessequal" unicode="&#x2264;" 
d="M470 82l-390 149v38l390 159v-39l-306 -124l306 -115v-68zM470 0h-390v63h390v-63z" />
    <glyph glyph-name="greaterequal" unicode="&#x2265;" 
d="M80 82v39l306 124l-306 115v68l390 -149v-38zM470 0h-390v63h390v-63z" />
    <glyph glyph-name="blacksquare" unicode="&#x25a0;" horiz-adv-x="562" 
d="M123 132v316h316v-316h-316z" />
    <glyph glyph-name="whitesquare" unicode="&#x25a1;" horiz-adv-x="563" 
d="M439 132h-316v316h316v-316zM389 182v216h-216v-216h216z" />
    <glyph glyph-name="blackuppointingtriangle" unicode="&#x25b2;" horiz-adv-x="804" 
d="M732 0h-660l330 660z" />
    <glyph glyph-name="whiteuppointingtriangle" unicode="&#x25b3;" horiz-adv-x="803" 
d="M732 0h-660l330 660zM651 50l-249 499l-248 -499h497z" />
    <glyph glyph-name="uni25B4" unicode="&#x25b4;" horiz-adv-x="563" 
d="M504 150h-446l223 363z" />
    <glyph glyph-name="uni25B5" unicode="&#x25b5;" horiz-adv-x="563" 
d="M281 513l223 -363h-446zM416 200l-135 218l-134 -218h269z" />
    <glyph glyph-name="blackrightpointingtriangle" unicode="&#x25b6;" horiz-adv-x="803" 
d="M113 0v660l660 -330z" />
    <glyph glyph-name="whiterightpointingtriangle" unicode="&#x25b7;" horiz-adv-x="803" 
d="M113 0v660l660 -330zM163 81l499 249l-499 248v-497z" />
    <glyph glyph-name="uni25B8" unicode="&#x25b8;" horiz-adv-x="563" 
d="M504 290l-363 -223v446z" />
    <glyph glyph-name="uni25B9" unicode="&#x25b9;" horiz-adv-x="563" 
d="M504 290l-363 -223v446zM191 156l218 134l-218 135v-269z" />
    <glyph glyph-name="blackdownpointingtriangle" unicode="&#x25bc;" horiz-adv-x="804" 
d="M402 0l-330 660h660z" />
    <glyph glyph-name="whitedownpointingtriangle" unicode="&#x25bd;" horiz-adv-x="803" 
d="M732 660l-330 -660l-330 660h660zM651 610h-497l248 -499z" />
    <glyph glyph-name="uni25BE" unicode="&#x25be;" horiz-adv-x="563" 
d="M281 150l-223 363h446z" />
    <glyph glyph-name="uni25BF" unicode="&#x25bf;" horiz-adv-x="563" 
d="M281 150l-223 363h446zM416 463h-269l134 -218z" />
    <glyph glyph-name="blackleftpointingtriangle" unicode="&#x25c0;" horiz-adv-x="803" 
d="M690 0l-660 330l660 330v-660z" />
    <glyph glyph-name="whiteleftpointingtriangle" unicode="&#x25c1;" horiz-adv-x="803" 
d="M690 0l-660 330l660 330v-660zM640 82v497l-499 -249z" />
    <glyph glyph-name="uni25C2" unicode="&#x25c2;" horiz-adv-x="563" 
d="M422 67l-363 223l363 223v-446z" />
    <glyph glyph-name="uni25C3" unicode="&#x25c3;" horiz-adv-x="563" 
d="M58 290l363 223v-446zM371 156v269l-218 -135z" />
    <glyph glyph-name="blackdiamond" unicode="&#x25c6;" horiz-adv-x="562" 
d="M281 67l-223 223l223 223l223 -223z" />
    <glyph glyph-name="whitediamond" unicode="&#x25c7;" horiz-adv-x="563" 
d="M281 67l-223 223l223 223l223 -223zM281 137l153 153l-153 153l-153 -153z" />
    <glyph glyph-name="lozenge" unicode="&#x25ca;" 
d="M290 0h-38l-146 329l155 331h38l146 -330zM286 77l104 224l-125 282l-104 -224z" />
    <glyph glyph-name="whitecircle" unicode="&#x25cb;" horiz-adv-x="563" 
d="M281 118q-71 0 -116 46.5t-45 122.5t45 123t116 47t115.5 -47t44.5 -123t-44.5 -122.5t-115.5 -46.5zM281 168q49 0 79.5 33t30.5 86t-30.5 86t-79.5 33q-50 0 -80.5 -33t-30.5 -86t30.5 -86t80.5 -33z" />
    <glyph glyph-name="blackcircle" unicode="&#x25cf;" horiz-adv-x="561" 
d="M281 118q-71 0 -116 46.5t-45 122.5t45 123t116 47t115.5 -47t44.5 -123t-44.5 -122.5t-115.5 -46.5z" />
    <glyph glyph-name="heartsuitwhite" unicode="&#x2661;" horiz-adv-x="850" 
d="M437 0h-23q-17 51 -59.5 99t-89.5 84.5t-92 76.5t-74.5 93t-29.5 115q0 90 52.5 140.5t130.5 50.5q57 0 103.5 -30t70.5 -92q24 62 70 92t103 30q77 0 130 -50.5t53 -140.5q0 -62 -29.5 -115t-74.5 -93t-92 -76.5t-89.5 -84.5t-59.5 -99zM426 87q21 40 60 78.5t77 67.5
t74 61t58.5 73.5t22.5 90.5q0 71 -39 108t-96 37q-53 0 -91.5 -37t-56.5 -106h-19q-18 69 -56.5 106t-90.5 37q-58 0 -97 -37t-39 -108q0 -49 22.5 -90.5t58.5 -73.5t74.5 -61t77.5 -67.5t60 -78.5z" />
    <glyph glyph-name="heart" unicode="&#x2665;" horiz-adv-x="850" 
d="M437 0h-23q-17 51 -59.5 99t-89.5 84.5t-92 76.5t-74.5 93t-29.5 115q0 90 52.5 140.5t130.5 50.5q57 0 103.5 -30t70.5 -92q24 62 70 92t103 30q77 0 130 -50.5t53 -140.5q0 -62 -29.5 -115t-74.5 -93t-92 -76.5t-89.5 -84.5t-59.5 -99z" />
    <glyph glyph-name="uni2780" unicode="&#x2780;" horiz-adv-x="800" 
d="M66 330q0 152 94.5 246t239.5 94q144 0 239 -94t95 -246q0 -151 -95 -245t-239 -94q-145 0 -239.5 93.5t-94.5 245.5zM400 32q119 0 200.5 80.5t81.5 217.5q0 138 -81.5 219.5t-200.5 81.5t-200.5 -81.5t-81.5 -219.5t81 -218t201 -80zM366 119v344l-96 -82l-21 40
l156 123h33v-425h-72z" />
    <glyph glyph-name="uni2781" unicode="&#x2781;" horiz-adv-x="800" 
d="M66 330q0 152 94.5 246t239.5 94q144 0 239 -94t95 -246q0 -151 -95 -245t-239 -94q-145 0 -239.5 93.5t-94.5 245.5zM400 32q119 0 200.5 80.5t81.5 217.5q0 138 -81.5 219.5t-200.5 81.5t-200.5 -81.5t-81.5 -219.5t81 -218t201 -80zM380 513q-36 0 -58 -23t-23 -67
h-36q1 64 38 97.5t92 33.5q61 0 97.5 -32.5t36.5 -88.5q0 -20 -5.5 -38.5t-12 -32.5t-24.5 -37t-30.5 -36.5t-43.5 -47t-51 -55.5h182v-67h-272v22l72 81q3 3 15.5 17t16 18t14.5 17.5t15 19.5t12.5 19.5t12 22t9.5 22t8 25t4 26t2 29.5q0 75 -71 75z" />
    <glyph glyph-name="uni2782" unicode="&#x2782;" horiz-adv-x="800" 
d="M66 330q0 152 94.5 246t239.5 94q144 0 239 -94t95 -246q0 -151 -95 -245t-239 -94q-145 0 -239.5 93.5t-94.5 245.5zM400 32q119 0 200.5 80.5t81.5 217.5q0 138 -81.5 219.5t-200.5 81.5t-200.5 -81.5t-81.5 -219.5t81 -218t201 -80zM397 110q-60 0 -98 33t-39 98h36
q1 -44 25.5 -67t62.5 -23q40 0 62.5 22.5t22.5 63.5q0 50 -17.5 66.5t-49.5 16.5h-46v41h46q24 0 39.5 19t15.5 57q0 36 -20 56.5t-52 20.5q-35 0 -56 -23t-22 -67h-36q1 65 37.5 98t93.5 33q61 0 96 -30t35 -78q0 -66 -54 -104q31 -17 48.5 -45t17.5 -61q0 -51 -40.5 -89
t-107.5 -38z" />
    <glyph glyph-name="uni2783" unicode="&#x2783;" horiz-adv-x="800" 
d="M66 330q0 152 94.5 246t239.5 94q144 0 239 -94t95 -246q0 -151 -95 -245t-239 -94q-145 0 -239.5 93.5t-94.5 245.5zM400 32q119 0 200.5 80.5t81.5 217.5q0 138 -81.5 219.5t-200.5 81.5t-200.5 -81.5t-81.5 -219.5t81 -218t201 -80zM550 220h-82v-101h-68v101h-174v29
q52 74 80 117t39.5 77t13 48t1.5 53h79q0 -20 -4 -37t-9 -31t-21.5 -38.5t-29 -42.5t-44 -61t-55.5 -77h124v64q15 16 24.5 47t9.5 60h34v-171h82v-37z" />
    <glyph glyph-name="uni2784" unicode="&#x2784;" horiz-adv-x="800" 
d="M66 330q0 152 94.5 246t239.5 94q144 0 239 -94t95 -246q0 -151 -95 -245t-239 -94q-145 0 -239.5 93.5t-94.5 245.5zM400 32q119 0 200.5 80.5t81.5 217.5q0 138 -81.5 219.5t-200.5 81.5t-200.5 -81.5t-81.5 -219.5t81 -218t201 -80zM391 109q-56 0 -90 31t-38 92h36
q3 -36 27 -56t59 -20q77 0 77 98q0 96 -69 96q-53 0 -71 -47h-33v241h232v-67h-192v-109q25 24 74 24q60 0 98 -39.5t38 -95.5q0 -67 -38 -107.5t-110 -40.5z" />
    <glyph glyph-name="uni2785" unicode="&#x2785;" horiz-adv-x="800" 
d="M66 330q0 152 94.5 246t239.5 94q144 0 239 -94t95 -246q0 -151 -95 -245t-239 -94q-145 0 -239.5 93.5t-94.5 245.5zM400 32q119 0 200.5 80.5t81.5 217.5q0 138 -81.5 219.5t-200.5 81.5t-200.5 -81.5t-81.5 -219.5t81 -218t201 -80zM540 249q0 -60 -38 -100t-109 -40
q-70 0 -108.5 53t-38.5 148q0 108 45.5 175t121.5 67q53 0 84 -32.5t33 -87.5h-36q-6 41 -24 60.5t-54 19.5q-90 0 -94 -177q32 40 88 40t93 -36.5t37 -89.5zM400 148q29 0 46 23.5t17 70.5q0 44 -17 65.5t-45 21.5q-59 0 -78 -51q4 -74 22.5 -102t54.5 -28z" />
    <glyph glyph-name="uni2786" unicode="&#x2786;" horiz-adv-x="800" 
d="M66 330q0 152 94.5 246t239.5 94q144 0 239 -94t95 -246q0 -151 -95 -245t-239 -94q-145 0 -239.5 93.5t-94.5 245.5zM400 32q119 0 200.5 80.5t81.5 217.5q0 138 -81.5 219.5t-200.5 81.5t-200.5 -81.5t-81.5 -219.5t81 -218t201 -80zM405 119h-76q0 76 23 131.5
t126 226.5h-207v67h273v-29q-71 -134 -100.5 -204t-34 -99t-4.5 -93z" />
    <glyph glyph-name="uni2787" unicode="&#x2787;" horiz-adv-x="800" 
d="M66 330q0 152 94.5 246t239.5 94q144 0 239 -94t95 -246q0 -151 -95 -245t-239 -94q-145 0 -239.5 93.5t-94.5 245.5zM400 32q119 0 200.5 80.5t81.5 217.5q0 138 -81.5 219.5t-200.5 81.5t-200.5 -81.5t-81.5 -219.5t81 -218t201 -80zM399 109q-67 0 -107.5 37.5
t-40.5 89.5q0 36 19.5 65t55.5 45q-58 33 -58 99q0 48 35 78.5t96 30.5t96 -30.5t35 -78.5q0 -66 -58 -99q36 -16 55.5 -45t19.5 -65q0 -52 -40.5 -89.5t-107.5 -37.5zM344 445q0 -78 55 -78t55 78q0 38 -14 53.5t-41 15.5t-41 -15.5t-14 -53.5zM326 236q0 -88 73 -88t73 88
q0 85 -73 85t-73 -85z" />
    <glyph glyph-name="uni2788" unicode="&#x2788;" horiz-adv-x="800" 
d="M66 330q0 152 94.5 246t239.5 94q144 0 239 -94t95 -246q0 -151 -95 -245t-239 -94q-145 0 -239.5 93.5t-94.5 245.5zM400 32q119 0 200.5 80.5t81.5 217.5q0 138 -81.5 219.5t-200.5 81.5t-200.5 -81.5t-81.5 -219.5t81 -218t201 -80zM402 334q59 0 78 51
q-4 74 -22.5 102t-54.5 28q-29 0 -46 -23.5t-17 -70.5q0 -44 17 -65.5t45 -21.5zM390 111q-53 0 -84 32.5t-33 87.5h36q6 -41 24 -60.5t54 -19.5q90 0 94 177q-32 -40 -88 -40t-93 36.5t-37 89.5q0 60 38 100t109 40q70 0 108.5 -53t38.5 -148q0 -108 -45.5 -175t-121.5 -67
z" />
    <glyph glyph-name="uni2789" unicode="&#x2789;" horiz-adv-x="800" 
d="M400 -9q-145 0 -239.5 93.5t-94.5 245.5t94.5 246t239.5 94q144 0 239 -94t95 -246q0 -151 -95 -245t-239 -94zM118 330q0 -138 81 -218t201 -80q119 0 200.5 80.5t81.5 217.5q0 138 -81.5 219.5t-200.5 81.5t-200.5 -81.5t-81.5 -219.5zM619 332q0 -101 -33 -162
t-91 -61t-91.5 61t-33.5 162t33 161.5t92 60.5q58 0 91 -60t33 -162zM247 119v344l-64 -54l-21 40l124 95h33v-425h-72zM446 332q0 -184 49 -184q48 0 48 184q0 183 -48 183q-49 0 -49 -183z" />
    <glyph glyph-name="uni278A" unicode="&#x278a;" horiz-adv-x="800" 
d="M66 330q0 152 94.5 246t239.5 94q144 0 239 -94t95 -246q0 -151 -95 -245t-239 -94q-145 0 -239.5 93.5t-94.5 245.5zM366 119h72v425h-33l-156 -123l21 -40l96 82v-344z" />
    <glyph glyph-name="uni278B" unicode="&#x278b;" horiz-adv-x="800" 
d="M66 330q0 152 94.5 246t239.5 94q144 0 239 -94t95 -246q0 -151 -95 -245t-239 -94q-145 0 -239.5 93.5t-94.5 245.5zM380 513q71 0 71 -75q0 -16 -1.5 -31.5t-7 -30.5t-8 -25.5t-12.5 -26t-13 -21.5t-16.5 -22.5t-15.5 -19t-18.5 -20.5t-16.5 -19l-72 -81v-22h272v67
h-182q20 22 51 55.5t43.5 47t30.5 36.5t24.5 37t12 32.5t5.5 38.5q0 56 -36.5 88.5t-97.5 32.5q-55 0 -92 -33.5t-38 -97.5h36q1 44 23 67t58 23z" />
    <glyph glyph-name="uni278C" unicode="&#x278c;" horiz-adv-x="800" 
d="M400 -9q-145 0 -239.5 93.5t-94.5 245.5t94.5 246t239.5 94q144 0 239 -94t95 -246q0 -151 -95 -245t-239 -94zM397 110q67 0 107.5 38t40.5 89q0 33 -17.5 61t-48.5 45q54 38 54 104q0 48 -35 78t-96 30q-57 0 -93.5 -33t-37.5 -98h36q1 44 22 67t56 23q32 0 52 -20.5
t20 -56.5q0 -38 -15.5 -57t-38.5 -19h-47v-41h46q32 0 49.5 -16.5t17.5 -66.5q0 -41 -22.5 -63.5t-62.5 -22.5q-38 0 -62.5 23t-25.5 67h-36q1 -65 39 -98t98 -33z" />
    <glyph glyph-name="uni278D" unicode="&#x278d;" horiz-adv-x="800" 
d="M66 330q0 152 94.5 246t239.5 94q144 0 239 -94t95 -246q0 -151 -95 -245t-239 -94q-145 0 -239.5 93.5t-94.5 245.5zM550 220v37h-82v171h-34q0 -29 -9.5 -60t-24.5 -47v-64h-124q24 34 55.5 77t44 61t29 42.5t21.5 38.5t9 31t4 37h-79q0 -39 -1.5 -53t-13 -48
t-39.5 -77t-80 -117v-29h174v-101h68v101h82z" />
    <glyph glyph-name="uni278E" unicode="&#x278e;" horiz-adv-x="800" 
d="M66 330q0 152 94.5 246t239.5 94q144 0 239 -94t95 -246q0 -151 -95 -245t-239 -94q-145 0 -239.5 93.5t-94.5 245.5zM263 232q4 -61 38 -92t90 -31q72 0 110 40.5t38 107.5q0 56 -38 95.5t-98 39.5q-49 0 -74 -24v109h192v67h-232v-241h33q18 47 71 47q69 0 69 -96
q0 -98 -77 -98q-35 0 -59 20t-27 56h-36z" />
    <glyph glyph-name="uni278F" unicode="&#x278f;" horiz-adv-x="800" 
d="M66 330q0 152 94.5 246t239.5 94q144 0 239 -94t95 -246q0 -151 -95 -245t-239 -94q-145 0 -239.5 93.5t-94.5 245.5zM540 249q0 53 -37 89.5t-93 36.5t-88 -40q4 177 94 177q36 0 54 -19.5t24 -60.5h36q-2 55 -33 87.5t-84 32.5q-76 0 -121.5 -67t-45.5 -175
q0 -95 38.5 -148t108.5 -53q71 0 109 40t38 100zM400 148q-36 0 -54.5 28t-22.5 102q19 51 78 51q28 0 45 -21.5t17 -65.5q0 -47 -17 -70.5t-46 -23.5z" />
    <glyph glyph-name="uni2790" unicode="&#x2790;" horiz-adv-x="800" 
d="M66 330q0 152 94.5 246t239.5 94q144 0 239 -94t95 -246q0 -151 -95 -245t-239 -94q-145 0 -239.5 93.5t-94.5 245.5zM405 119q0 52 1.5 70t14 63.5t40.5 103t83 159.5v29h-273v-67h207q-103 -171 -126 -226.5t-23 -131.5h76z" />
    <glyph glyph-name="uni2791" unicode="&#x2791;" horiz-adv-x="800" 
d="M66 330q0 152 94.5 246t239.5 94q144 0 239 -94t95 -246q0 -151 -95 -245t-239 -94q-145 0 -239.5 93.5t-94.5 245.5zM399 109q67 0 107.5 37.5t40.5 89.5q0 36 -19.5 65t-55.5 45q58 33 58 99q0 48 -35 78.5t-96 30.5t-96 -30.5t-35 -78.5q0 -66 58 -99
q-36 -16 -55.5 -45t-19.5 -65q0 -52 40.5 -89.5t107.5 -37.5zM344 445q0 38 14 53.5t41 15.5t41 -15.5t14 -53.5q0 -78 -55 -78t-55 78zM326 236q0 85 73 85t73 -85q0 -88 -73 -88t-73 88z" />
    <glyph glyph-name="uni2792" unicode="&#x2792;" horiz-adv-x="800" 
d="M66 330q0 152 94.5 246t239.5 94q144 0 239 -94t95 -246q0 -151 -95 -245t-239 -94q-145 0 -239.5 93.5t-94.5 245.5zM403 515q36 0 54.5 -28t22.5 -102q-19 -51 -78 -51q-28 0 -45 21.5t-17 65.5q0 47 17 70.5t46 23.5zM263 414q0 -53 37 -89.5t93 -36.5t88 40
q-4 -177 -94 -177q-36 0 -54 19.5t-24 60.5h-36q2 -55 33 -87.5t84 -32.5q76 0 121.5 67t45.5 175q0 95 -38.5 148t-108.5 53q-71 0 -109 -40t-38 -100z" />
    <glyph glyph-name="uni2793" unicode="&#x2793;" horiz-adv-x="800" 
d="M66 330q0 152 94.5 246t239.5 94q144 0 239 -94t95 -246q0 -151 -95 -245t-239 -94q-145 0 -239.5 93.5t-94.5 245.5zM628 332q0 102 -33 162t-91 60q-59 0 -92 -60.5t-33 -161.5t33.5 -162t91.5 -61t91 61t33 162zM256 119h72v425h-33l-124 -95l21 -40l64 54v-344z
M455 332q0 183 49 183q48 0 48 -183q0 -184 -48 -184q-49 0 -49 184z" />
    <glyph glyph-name="uni27F7" unicode="&#x27f7;" horiz-adv-x="692" 
d="M547 350l-163 164h73l191 -197v-8l-191 -199h-73l160 165h-399l163 -165h-73l-191 198v8l191 198h73l-160 -164h399z" />
    <glyph glyph-name="commaaccent" unicode="&#xf6c3;" horiz-adv-x="500" 
d="M266 -135q0 25 -58 25v50q99 0 99 -68q0 -67 -114 -67v26q44 1 58.5 9.5t14.5 24.5z" />
    <glyph glyph-name="centinferior" unicode="&#xf6df;" horiz-adv-x="348" 
d="M129 -38q0 -68 34 -93l35 205h-2q-67 0 -67 -112zM189 -180h-7l-15 -85h-27l15 88q-47 10 -74.5 46.5t-27.5 93.5q0 66 37 106t102 40q8 0 12 -1l14 85h27l-15 -90q66 -21 66 -88h-30q0 41 -42 55l-36 -212q10 -2 16 -2q22 0 42.5 17t25.5 45h29q-2 -41 -32.5 -69.5
t-79.5 -28.5z" />
    <glyph glyph-name="centsuperior" unicode="&#xf6e0;" horiz-adv-x="348" 
d="M129 512q0 -68 34 -93l35 205h-2q-67 0 -67 -112zM189 370h-7l-15 -85h-27l15 88q-47 10 -74.5 46.5t-27.5 93.5q0 66 37 106t102 40q8 0 12 -1l14 85h27l-15 -90q66 -21 66 -88h-30q0 41 -42 55l-36 -212q10 -2 16 -2q22 0 42.5 17t25.5 45h29q-2 -41 -32.5 -69.5
t-79.5 -28.5z" />
    <glyph glyph-name="commainferior" unicode="&#xf6e1;" horiz-adv-x="178" 
d="M111 -281q0 47 -56 47v62q46 0 69 -25.5t23 -65.5q0 -48 -30 -74.5t-86 -26.5v29q80 0 80 54z" />
    <glyph glyph-name="commasuperior" unicode="&#xf6e2;" horiz-adv-x="178" 
d="M111 269q0 47 -56 47v62q46 0 69 -25.5t23 -65.5q0 -48 -30 -74.5t-86 -26.5v29q80 0 80 54z" />
    <glyph glyph-name="dollarinferior" unicode="&#xf6e3;" horiz-adv-x="360" 
d="M193 15l5 -2v147h-8q-14 0 -26 -3v-130q18 -8 29 -12zM109 91q0 -32 27 -49v104q-27 -19 -27 -55zM175 -216q13 0 23 3v140q-18 8 -34 13v-156h11zM256 -145q0 38 -30 58v-115q30 20 30 57zM178 -250h-14v-52h-28v56q-94 19 -93 109h36q-1 -57 57 -74v162
q-46 19 -66.5 46.5t-20.5 74.5q0 43 23 74.5t64 42.5v58h28v-53q5 1 16 1q12 0 18 -1v53h28v-58q77 -21 76 -97h-36q1 45 -40 61v-153q53 -25 74.5 -54t21.5 -71q0 -45 -27 -75.5t-69 -42.5v-59h-28v53q-7 -1 -20 -1z" />
    <glyph glyph-name="dollarsuperior" unicode="&#xf6e4;" horiz-adv-x="360" 
d="M193 565l5 -2v147h-8q-14 0 -26 -3v-130q18 -8 29 -12zM109 641q0 -32 27 -49v104q-27 -19 -27 -55zM175 334q13 0 23 3v140q-18 8 -34 13v-156h11zM256 405q0 38 -30 58v-115q30 20 30 57zM178 300h-14v-52h-28v56q-94 19 -93 109h36q-1 -57 57 -74v162
q-46 19 -66.5 46.5t-20.5 74.5q0 43 23 74.5t64 42.5v58h28v-53q5 1 16 1q12 0 18 -1v53h28v-58q77 -21 76 -97h-36q1 45 -40 61v-153q53 -25 74.5 -54t21.5 -71q0 -45 -27 -75.5t-69 -42.5v-59h-28v53q-7 -1 -20 -1z" />
    <glyph glyph-name="periodinferior" unicode="&#xf6e7;" horiz-adv-x="172" 
d="M50 -240v71h71v-71h-71z" />
    <glyph glyph-name="periodsuperior" unicode="&#xf6e8;" horiz-adv-x="172" 
d="M50 310v71h71v-71h-71z" />
    <glyph glyph-name="s_t" unicode="&#xfb06;" horiz-adv-x="828" 
d="M668 -11q-68 0 -103.5 42.5t-35.5 125.5v257h-90v36h90v50q0 171 -140 171q-72 0 -115.5 -43.5t-43.5 -111.5q0 -35 12 -57q60 -7 92.5 -45t35.5 -96h-28q-7 50 -37 76t-77 26q-44 0 -66.5 -19t-22.5 -51q0 -34 22.5 -51.5t75.5 -37.5q36 -13 54 -21t42 -24.5t34.5 -40
t10.5 -55.5q0 -62 -48 -96.5t-122 -34.5q-72 0 -118.5 36.5t-49.5 101.5h27q7 -51 44 -73.5t90 -22.5q95 0 95 68q0 32 -24.5 49t-82.5 39q-62 24 -94.5 53.5t-32.5 85.5q0 54 39 92t103 42q-9 24 -9 56q0 84 57.5 138.5t150.5 54.5q92 0 154 -54t62 -155v-50h146v-36h-146
v-279q0 -105 69 -105q57 0 70 86h27q-5 -67 -34 -97t-83 -30z" />
    <glyph glyph-name="CR" horiz-adv-x="500" 
 />
    <glyph glyph-name="fi.cap" horiz-adv-x="859" 
d="M751 660v-660h-101v660h101zM466 295h-257v-295h-101v660h378v-50h-277v-265h257v-50z" />
    <glyph glyph-name="fl.cap" horiz-adv-x="1079" 
d="M466 295h-257v-295h-101v660h378v-50h-277v-265h257v-50zM650 0v660h101v-610h298v-50h-399z" />
    <glyph glyph-name="germandbls.cap" horiz-adv-x="1062" 
d="M807 623q-51 0 -81.5 -28.5t-30.5 -75.5t27 -77.5t101 -65.5q98 -47 138.5 -90t40.5 -116q0 -79 -59.5 -129.5t-156.5 -50.5q-194 0 -211 176h40q14 -72 54 -100.5t112 -28.5q58 0 92 29t34 83q0 50 -28.5 80t-112.5 66q-87 38 -123.5 82.5t-36.5 114.5q0 73 53.5 125.5
t140.5 52.5q156 0 178 -159h-40q-21 112 -131 112zM296 623q-51 0 -81.5 -28.5t-30.5 -75.5t27 -77.5t101 -65.5q98 -47 138.5 -90t40.5 -116q0 -79 -59.5 -129.5t-156.5 -50.5q-195 0 -211 176h40q14 -72 54 -100.5t112 -28.5q58 0 92 29t34 83q0 50 -28.5 80t-112.5 66
q-87 38 -123.5 82.5t-36.5 114.5q0 73 53.5 125.5t140.5 52.5q156 0 178 -159h-40q-21 112 -131 112z" />
    <glyph glyph-name="a.alt" horiz-adv-x="576" 
d="M407 224q0 93 -40.5 142t-99.5 49q-61 0 -93.5 -43.5t-32.5 -146.5t31 -147t91 -44q61 0 102.5 48.5t41.5 141.5zM407 0v95q-21 -52 -69 -79t-94 -27q-92 0 -145.5 68t-53.5 168q0 99 55.5 167t153.5 68q45 0 89 -26t64 -77v93h89v-450h-89z" />
    <glyph glyph-name="g.alt" horiz-adv-x="586" 
d="M417 224q0 92 -41.5 141.5t-98.5 49.5q-68 0 -102 -43t-34 -147q0 -103 32.5 -147t94.5 -44q63 0 106 48.5t43 141.5zM269 -250q-86 0 -138.5 44.5t-56.5 128.5h24q5 -56 46 -88.5t100 -32.5q76 0 124.5 46t48.5 149v99q-21 -53 -70.5 -80t-97.5 -27q-94 0 -149 68
t-55 168q0 99 56.5 167t157.5 68q46 0 91.5 -26t66.5 -78v94h89v-453q0 -110 -60.5 -178.5t-176.5 -68.5z" />
    <glyph glyph-name="agrave.alt" horiz-adv-x="576" 
d="M245 697l65 -150h-27l-149 150h111zM407 224q0 93 -40.5 142t-99.5 49q-61 0 -93.5 -43.5t-32.5 -146.5t31 -147t91 -44q61 0 102.5 48.5t41.5 141.5zM407 0v95q-21 -52 -69 -79t-94 -27q-92 0 -145.5 68t-53.5 168q0 99 55.5 167t153.5 68q45 0 89 -26t64 -77v93h89
v-450h-89z" />
    <glyph glyph-name="aacute.alt" horiz-adv-x="576" 
d="M317 698h111l-149 -150h-27zM407 224q0 93 -40.5 142t-99.5 49q-61 0 -93.5 -43.5t-32.5 -146.5t31 -147t91 -44q61 0 102.5 48.5t41.5 141.5zM407 0v95q-21 -52 -69 -79t-94 -27q-92 0 -145.5 68t-53.5 168q0 99 55.5 167t153.5 68q45 0 89 -26t64 -77v93h89v-450h-89z
" />
    <glyph glyph-name="acircumflex.alt" horiz-adv-x="576" 
d="M278 611l-90 -63h-27l109 150h16l109 -150h-27zM407 224q0 93 -40.5 142t-99.5 49q-61 0 -93.5 -43.5t-32.5 -146.5t31 -147t91 -44q61 0 102.5 48.5t41.5 141.5zM407 0v95q-21 -52 -69 -79t-94 -27q-92 0 -145.5 68t-53.5 168q0 99 55.5 167t153.5 68q45 0 89 -26
t64 -77v93h89v-450h-89z" />
    <glyph glyph-name="atilde.alt" horiz-adv-x="576" 
d="M327 559q-21 0 -38 12.5t-26 27t-21.5 27t-25.5 12.5q-29 0 -29 -79h-35q0 66 18 102.5t52 36.5q25 0 45 -20t36 -39.5t32 -19.5q29 0 29 79h35q0 -139 -72 -139zM407 224q0 93 -40.5 142t-99.5 49q-61 0 -93.5 -43.5t-32.5 -146.5t31 -147t91 -44q61 0 102.5 48.5
t41.5 141.5zM407 0v95q-21 -52 -69 -79t-94 -27q-92 0 -145.5 68t-53.5 168q0 99 55.5 167t153.5 68q45 0 89 -26t64 -77v93h89v-450h-89z" />
    <glyph glyph-name="adieresis.alt" horiz-adv-x="576" 
d="M245 668v-77h-80v77h80zM386 668v-77h-80v77h80zM407 224q0 93 -40.5 142t-99.5 49q-61 0 -93.5 -43.5t-32.5 -146.5t31 -147t91 -44q61 0 102.5 48.5t41.5 141.5zM407 0v95q-21 -52 -69 -79t-94 -27q-92 0 -145.5 68t-53.5 168q0 99 55.5 167t153.5 68q45 0 89 -26
t64 -77v93h89v-450h-89z" />
    <glyph glyph-name="amacron.alt" horiz-adv-x="576" 
d="M150 655h251v-51h-251v51zM407 224q0 93 -40.5 142t-99.5 49q-61 0 -93.5 -43.5t-32.5 -146.5t31 -147t91 -44q61 0 102.5 48.5t41.5 141.5zM407 0v95q-21 -52 -69 -79t-94 -27q-92 0 -145.5 68t-53.5 168q0 99 55.5 167t153.5 68q45 0 89 -26t64 -77v93h89v-450h-89z
" />
    <glyph glyph-name="abreve.alt" horiz-adv-x="576" 
d="M276 626q33 0 60.5 16.5t27.5 55.5h35q0 -55 -37.5 -97t-85.5 -42q-55 0 -89.5 41t-34.5 98h35q0 -72 89 -72zM407 224q0 93 -40.5 142t-99.5 49q-61 0 -93.5 -43.5t-32.5 -146.5t31 -147t91 -44q61 0 102.5 48.5t41.5 141.5zM407 0v95q-21 -52 -69 -79t-94 -27
q-92 0 -145.5 68t-53.5 168q0 99 55.5 167t153.5 68q45 0 89 -26t64 -77v93h89v-450h-89z" />
    <glyph glyph-name="aring.alt" horiz-adv-x="576" 
d="M275 548q-45 0 -70.5 19.5t-25.5 55.5q0 35 25.5 55t70.5 20t70.5 -20t25.5 -55q0 -36 -25.5 -55.5t-70.5 -19.5zM275 573q42 0 42 50t-42 50t-42 -50t42 -50zM407 224q0 93 -40.5 142t-99.5 49q-61 0 -93.5 -43.5t-32.5 -146.5t31 -147t91 -44q61 0 102.5 48.5
t41.5 141.5zM407 0v95q-21 -52 -69 -79t-94 -27q-92 0 -145.5 68t-53.5 168q0 99 55.5 167t153.5 68q45 0 89 -26t64 -77v93h89v-450h-89z" />
    <glyph glyph-name="aringacute.alt" horiz-adv-x="576" 
d="M317 885h111l-149 -150h-27zM265 548q-45 0 -70.5 19.5t-25.5 55.5q0 35 25.5 55t70.5 20t70.5 -20t25.5 -55q0 -36 -25.5 -55.5t-70.5 -19.5zM265 573q42 0 42 50t-42 50t-42 -50t42 -50zM407 224q0 93 -40.5 142t-99.5 49q-61 0 -93.5 -43.5t-32.5 -146.5t31 -147
t91 -44q61 0 102.5 48.5t41.5 141.5zM407 0v95q-21 -52 -69 -79t-94 -27q-92 0 -145.5 68t-53.5 168q0 99 55.5 167t153.5 68q45 0 89 -26t64 -77v93h89v-450h-89z" />
    <glyph glyph-name="aogonek.alt" horiz-adv-x="576" 
d="M407 224q0 93 -40.5 142t-99.5 49q-61 0 -93.5 -43.5t-32.5 -146.5t31 -147t91 -44q61 0 102.5 48.5t41.5 141.5zM407 0v95q-21 -52 -69 -79t-94 -27q-92 0 -145.5 68t-53.5 168q0 99 55.5 167t153.5 68q45 0 89 -26t64 -77v93h89v-450h-53q-65 -82 -65 -130
q0 -36 33 -36q17 0 29.5 14.5t15.5 40.5h32q-1 -42 -24.5 -65t-63.5 -23q-79 0 -79 63q0 27 19.5 55t66.5 81z" />
    <glyph glyph-name="ae.alt" horiz-adv-x="787" 
d="M548 418q-106 0 -118 -144h216q0 144 -98 144zM736 145q-5 -65 -54.5 -110.5t-127.5 -45.5q-131 0 -189 98q-16 -40 -59.5 -69t-107.5 -29q-61 0 -97 28.5t-36 80.5q0 59 38 88t114 44l115 23v51q0 52 -29.5 78t-72.5 26t-72.5 -24.5t-33.5 -66.5h-25q4 69 45.5 106
t110.5 37q95 0 139 -64q59 64 147 64q95 0 148 -60.5t53 -161.5h-314v-8q0 -189 147 -189q49 0 87.5 25.5t46.5 78.5h27zM227 34q41 0 76.5 22.5t50.5 51.5q-22 50 -22 110l-75 -15q-52 -10 -76.5 -31.5t-24.5 -66.5q0 -33 19.5 -52t51.5 -19z" />
    <glyph glyph-name="aeacute.alt" horiz-adv-x="787" 
d="M463 698h111l-149 -150h-27zM548 418q-106 0 -118 -144h216q0 144 -98 144zM736 145q-5 -65 -54.5 -110.5t-127.5 -45.5q-131 0 -189 98q-16 -40 -59.5 -69t-107.5 -29q-61 0 -97 28.5t-36 80.5q0 59 38 88t114 44l115 23v51q0 52 -29.5 78t-72.5 26t-72.5 -24.5
t-33.5 -66.5h-25q4 69 45.5 106t110.5 37q95 0 139 -64q59 64 147 64q95 0 148 -60.5t53 -161.5h-314v-8q0 -189 147 -189q49 0 87.5 25.5t46.5 78.5h27zM227 34q41 0 76.5 22.5t50.5 51.5q-22 50 -22 110l-75 -15q-52 -10 -76.5 -31.5t-24.5 -66.5q0 -33 19.5 -52t51.5 -19
z" />
    <glyph glyph-name="gcircumflex.alt" horiz-adv-x="586" 
d="M298 611l-90 -63h-27l109 150h16l109 -150h-27zM417 224q0 92 -41.5 141.5t-98.5 49.5q-68 0 -102 -43t-34 -147q0 -103 32.5 -147t94.5 -44q63 0 106 48.5t43 141.5zM269 -250q-86 0 -138.5 44.5t-56.5 128.5h24q5 -56 46 -88.5t100 -32.5q76 0 124.5 46t48.5 149v99
q-21 -53 -70.5 -80t-97.5 -27q-94 0 -149 68t-55 168q0 99 56.5 167t157.5 68q46 0 91.5 -26t66.5 -78v94h89v-453q0 -110 -60.5 -178.5t-176.5 -68.5z" />
    <glyph glyph-name="gbreve.alt" horiz-adv-x="586" 
d="M296 626q33 0 60.5 16.5t27.5 55.5h35q0 -55 -37.5 -97t-85.5 -42q-55 0 -89.5 41t-34.5 98h35q0 -72 89 -72zM417 224q0 92 -41.5 141.5t-98.5 49.5q-68 0 -102 -43t-34 -147q0 -103 32.5 -147t94.5 -44q63 0 106 48.5t43 141.5zM269 -250q-86 0 -138.5 44.5
t-56.5 128.5h24q5 -56 46 -88.5t100 -32.5q76 0 124.5 46t48.5 149v99q-21 -53 -70.5 -80t-97.5 -27q-94 0 -149 68t-55 168q0 99 56.5 167t157.5 68q46 0 91.5 -26t66.5 -78v94h89v-453q0 -110 -60.5 -178.5t-176.5 -68.5z" />
    <glyph glyph-name="gdotaccent.alt" horiz-adv-x="586" 
d="M340 673v-87h-90v87h90zM417 224q0 92 -41.5 141.5t-98.5 49.5q-68 0 -102 -43t-34 -147q0 -103 32.5 -147t94.5 -44q63 0 106 48.5t43 141.5zM269 -250q-86 0 -138.5 44.5t-56.5 128.5h24q5 -56 46 -88.5t100 -32.5q76 0 124.5 46t48.5 149v99q-21 -53 -70.5 -80
t-97.5 -27q-94 0 -149 68t-55 168q0 99 56.5 167t157.5 68q46 0 91.5 -26t66.5 -78v94h89v-453q0 -110 -60.5 -178.5t-176.5 -68.5z" />
    <glyph glyph-name="gcommaaccent.alt" horiz-adv-x="586" 
d="M349 558h-115l123 150h23zM417 224q0 92 -41.5 141.5t-98.5 49.5q-68 0 -102 -43t-34 -147q0 -103 32.5 -147t94.5 -44q63 0 106 48.5t43 141.5zM269 -250q-86 0 -138.5 44.5t-56.5 128.5h24q5 -56 46 -88.5t100 -32.5q76 0 124.5 46t48.5 149v99q-21 -53 -70.5 -80
t-97.5 -27q-94 0 -149 68t-55 168q0 99 56.5 167t157.5 68q46 0 91.5 -26t66.5 -78v94h89v-453q0 -110 -60.5 -178.5t-176.5 -68.5z" />
    <glyph glyph-name="idotaccent" horiz-adv-x="250" 
d="M170 673v-87h-90v87h90zM170 450v-450h-90v450h90z" />
    <glyph glyph-name="A.small" horiz-adv-x="492" 
d="M291 189l-71 175l-69 -175h140zM368 0l-58 144h-177l-57 -144h-56l201 499h44l207 -499h-104z" />
    <glyph glyph-name="B.small" horiz-adv-x="537" 
d="M261 450h-58v-177h74q71 0 71 96q0 46 -22.5 63.5t-64.5 17.5zM290 229h-87v-184h95q89 0 89 89q0 95 -97 95zM108 0v495h153q87 0 138.5 -33.5t51.5 -83.5q0 -81 -89 -111q60 -12 93.5 -47.5t33.5 -86.5q0 -55 -47.5 -94t-143.5 -39h-190z" />
    <glyph glyph-name="C.small" horiz-adv-x="545" 
d="M297 456q-138 0 -138 -214q0 -104 39 -153.5t106 -49.5q121 0 143 112h38q-12 -77 -63.5 -119t-122.5 -42q-112 0 -177 69.5t-65 182.5q0 109 64 186t171 77q73 0 127 -42.5t66 -118.5h-38q-23 112 -150 112z" />
    <glyph glyph-name="D.small" horiz-adv-x="605" 
d="M305 450h-102v-405h102q69 0 105 45.5t36 158.5q0 201 -141 201zM108 0v495h197q112 0 177.5 -72t65.5 -175q0 -106 -65 -177t-178 -71h-197z" />
    <glyph glyph-name="E.small" horiz-adv-x="487" 
d="M108 0v495h297v-45h-202v-180h187v-45h-187v-180h218v-45h-313z" />
    <glyph glyph-name="F.small" horiz-adv-x="462" 
d="M392 217h-189v-217h-95v495h298v-45h-203v-187h189v-46z" />
    <glyph glyph-name="G.small" horiz-adv-x="571" 
d="M496 220v-220h-46q0 31 -22 45q-53 -55 -137 -55q-107 0 -170.5 70t-63.5 182q0 108 65.5 185.5t173.5 77.5q72 0 124.5 -42.5t64.5 -118.5h-38q-23 112 -147 112q-141 0 -141 -214q0 -202 137 -202q66 0 105 42v93h-82v45h177z" />
    <glyph glyph-name="H.small" horiz-adv-x="648" 
d="M445 0v225h-242v-225h-95v495h95v-225h242v225h95v-495h-95z" />
    <glyph glyph-name="I.small" horiz-adv-x="311" 
d="M108 495h95v-495h-95v495z" />
    <glyph glyph-name="J.small" horiz-adv-x="450" 
d="M172 39q85 0 85 113v343h95v-332q0 -80 -42.5 -126.5t-116.5 -46.5q-137 0 -154 158h38q16 -109 95 -109z" />
    <glyph glyph-name="K.small" horiz-adv-x="553" 
d="M508 0h-114l-187 248l219 247h62l-196 -219zM203 495v-495h-95v495h95z" />
    <glyph glyph-name="L.small" horiz-adv-x="452" 
d="M108 0v495h95v-450h219v-45h-314z" />
    <glyph glyph-name="M.small" horiz-adv-x="706" 
d="M303 -4l-142 365v-361h-53v495h100l140 -367l155 367h95v-495h-95v365l-156 -369h-44z" />
    <glyph glyph-name="N.small" horiz-adv-x="622" 
d="M514 -4l-2 1v-1h-42l-304 397v-393h-53v495h91l257 -337v337h53v-499z" />
    <glyph glyph-name="O.small" horiz-adv-x="592" 
d="M296 505q111 0 175 -76.5t64 -186.5q0 -109 -63.5 -180.5t-175.5 -71.5t-175.5 71.5t-63.5 180.5q0 110 64 186.5t175 76.5zM296 39q137 0 137 203q0 214 -137 214t-137 -214q0 -203 137 -203z" />
    <glyph glyph-name="P.small" horiz-adv-x="506" 
d="M271 450h-68v-193h68q88 0 88 97q0 96 -88 96zM271 211h-68v-211h-95v495h163q89 0 139.5 -37t50.5 -104t-50.5 -105t-139.5 -38z" />
    <glyph glyph-name="Q.small" horiz-adv-x="592" 
d="M590 -190h-146l-130 181q-6 -1 -18 -1q-112 0 -175.5 71.5t-63.5 180.5q0 110 64 186.5t175 76.5t175 -76.5t64 -186.5q0 -88 -43 -153.5t-121 -88.5zM296 39q137 0 137 203q0 214 -137 214t-137 -214q0 -203 137 -203z" />
    <glyph glyph-name="R.small" 
d="M271 450h-68v-184h89q67 0 67 93q0 91 -88 91zM396 0l-150 221h-43v-221h-95v495h163q90 0 140 -34t50 -98q0 -48 -30 -84t-88 -50l163 -229h-110z" />
    <glyph glyph-name="S.small" horiz-adv-x="462" 
d="M223 33q91 0 91 73q0 13 -3 24t-6 18.5t-12 16t-13.5 13t-17.5 11.5t-18 9t-21.5 9t-20.5 9q-62 28 -90 59.5t-28 93.5q0 58 42 97t116 39q126 0 140 -126h-38q-14 83 -96 83q-39 0 -60.5 -19.5t-21.5 -51.5q0 -35 19.5 -54t70.5 -42q83 -37 114.5 -70t31.5 -92
q0 -63 -49 -103t-120 -40q-155 0 -169 148h38q17 -105 121 -105z" />
    <glyph glyph-name="T.small" horiz-adv-x="503" 
d="M473 450h-174v-450h-95v450h-174v45h443v-45z" />
    <glyph glyph-name="U.small" horiz-adv-x="599" 
d="M443 170v325h58v-319q0 -90 -52.5 -138t-139.5 -48q-100 0 -155.5 48.5t-55.5 149.5v307h95v-307q0 -144 125 -144q50 0 87.5 31t37.5 95z" />
    <glyph glyph-name="V.small" horiz-adv-x="492" 
d="M224 -4l-204 499h104l145 -364l147 364h56l-204 -499h-44z" />
    <glyph glyph-name="W.small" horiz-adv-x="732" 
d="M186 -4l-156 499h104l104 -350l138 350h44l124 -339l102 339h56l-156 -499h-44l-130 350l-142 -350h-44z" />
    <glyph glyph-name="X.small" horiz-adv-x="522" 
d="M374 0l-128 197l-143 -197h-67l179 244l-167 251h112l114 -179l129 179h66l-165 -225l182 -270h-112z" />
    <glyph glyph-name="Y.small" horiz-adv-x="507" 
d="M301 0h-95v221l-181 274h108l145 -217l139 217h65l-181 -274v-221z" />
    <glyph glyph-name="Z.small" horiz-adv-x="517" 
d="M60 0v28l262 423h-253v44h370v-29l-260 -420h278v-46h-397z" />
    <glyph glyph-name="Agrave.small" horiz-adv-x="492" 
d="M190 697l65 -150h-27l-149 150h111zM291 189l-71 175l-69 -175h140zM368 0l-58 144h-177l-57 -144h-56l201 499h44l207 -499h-104z" />
    <glyph glyph-name="Aacute.small" horiz-adv-x="492" 
d="M297 698h111l-149 -150h-27zM291 189l-71 175l-69 -175h140zM368 0l-58 144h-177l-57 -144h-56l201 499h44l207 -499h-104z" />
    <glyph glyph-name="Acircumflex.small" horiz-adv-x="492" 
d="M248 611l-90 -63h-27l109 150h16l109 -150h-27zM291 189l-71 175l-69 -175h140zM368 0l-58 144h-177l-57 -144h-56l201 499h44l207 -499h-104z" />
    <glyph glyph-name="Atilde.small" horiz-adv-x="492" 
d="M297 559q-21 0 -38 12.5t-26 27t-21.5 27t-25.5 12.5q-29 0 -29 -79h-35q0 66 18 102.5t52 36.5q25 0 45 -20t36 -39.5t32 -19.5q29 0 29 79h35q0 -139 -72 -139zM291 189l-71 175l-69 -175h140zM368 0l-58 144h-177l-57 -144h-56l201 499h44l207 -499h-104z" />
    <glyph glyph-name="Adieresis.small" horiz-adv-x="492" 
d="M215 668v-77h-80v77h80zM356 668v-77h-80v77h80zM291 189l-71 175l-69 -175h140zM368 0l-58 144h-177l-57 -144h-56l201 499h44l207 -499h-104z" />
    <glyph glyph-name="Amacron.small" horiz-adv-x="492" 
d="M120 655h251v-51h-251v51zM291 189l-71 175l-69 -175h140zM368 0l-58 144h-177l-57 -144h-56l201 499h44l207 -499h-104z" />
    <glyph glyph-name="Abreve.small" horiz-adv-x="492" 
d="M246 626q33 0 60.5 16.5t27.5 55.5h35q0 -55 -37.5 -97t-85.5 -42q-55 0 -89.5 41t-34.5 98h35q0 -72 89 -72zM291 189l-71 175l-69 -175h140zM368 0l-58 144h-177l-57 -144h-56l201 499h44l207 -499h-104z" />
    <glyph glyph-name="Aring.small" horiz-adv-x="492" 
d="M245 548q-45 0 -70.5 19.5t-25.5 55.5q0 35 25.5 55t70.5 20t70.5 -20t25.5 -55q0 -36 -25.5 -55.5t-70.5 -19.5zM245 573q42 0 42 50t-42 50t-42 -50t42 -50zM291 189l-71 175l-69 -175h140zM368 0l-58 144h-177l-57 -144h-56l201 499h44l207 -499h-104z" />
    <glyph glyph-name="Aringacute.small" horiz-adv-x="492" 
d="M309 885h111l-149 -150h-27zM246 548q-45 0 -70.5 19.5t-25.5 55.5q0 35 25.5 55t70.5 20t70.5 -20t25.5 -55q0 -36 -25.5 -55.5t-70.5 -19.5zM246 573q42 0 42 50t-42 50t-42 -50t42 -50zM291 189l-71 175l-69 -175h140zM368 0l-58 144h-177l-57 -144h-56l201 499h44
l207 -499h-104z" />
    <glyph glyph-name="Aogonek.small" horiz-adv-x="492" 
d="M291 189l-71 175l-69 -175h140zM368 0l-58 144h-177l-57 -144h-56l201 499h44l207 -499h-68q-65 -82 -65 -130q0 -36 33 -36q17 0 29.5 14.5t15.5 40.5h32q-1 -42 -24.5 -65t-63.5 -23q-79 0 -79 63q0 27 19.5 55t66.5 81z" />
    <glyph glyph-name="AE.small" horiz-adv-x="709" 
d="M330 215v191l-120 -191h120zM330 0v170h-149l-107 -170h-64l319 495h298v-45h-202v-185h187v-45h-187v-175h218v-45h-313z" />
    <glyph glyph-name="AEacute.small" horiz-adv-x="709" 
d="M442 698h111l-149 -150h-27zM330 215v191l-120 -191h120zM330 0v170h-149l-107 -170h-64l319 495h298v-45h-202v-185h187v-45h-187v-175h218v-45h-313z" />
    <glyph glyph-name="Cacute.small" horiz-adv-x="545" 
d="M326 698h111l-149 -150h-27zM297 456q-138 0 -138 -214q0 -104 39 -153.5t106 -49.5q121 0 143 112h38q-12 -77 -63.5 -119t-122.5 -42q-112 0 -177 69.5t-65 182.5q0 109 64 186t171 77q73 0 127 -42.5t66 -118.5h-38q-23 112 -150 112z" />
    <glyph glyph-name="Ccircumflex.small" horiz-adv-x="545" 
d="M297 611l-90 -63h-27l109 150h16l109 -150h-27zM297 456q-138 0 -138 -214q0 -104 39 -153.5t106 -49.5q121 0 143 112h38q-12 -77 -63.5 -119t-122.5 -42q-112 0 -177 69.5t-65 182.5q0 109 64 186t171 77q73 0 127 -42.5t66 -118.5h-38q-23 112 -150 112z" />
    <glyph glyph-name="Ccaron.small" horiz-adv-x="545" 
d="M295 635l90 63h27l-109 -150h-16l-109 150h27zM297 456q-138 0 -138 -214q0 -104 39 -153.5t106 -49.5q121 0 143 112h38q-12 -77 -63.5 -119t-122.5 -42q-112 0 -177 69.5t-65 182.5q0 109 64 186t171 77q73 0 127 -42.5t66 -118.5h-38q-23 112 -150 112z" />
    <glyph glyph-name="Cdotaccent.small" horiz-adv-x="545" 
d="M339 673v-87h-90v87h90zM297 456q-138 0 -138 -214q0 -104 39 -153.5t106 -49.5q121 0 143 112h38q-12 -77 -63.5 -119t-122.5 -42q-112 0 -177 69.5t-65 182.5q0 109 64 186t171 77q73 0 127 -42.5t66 -118.5h-38q-23 112 -150 112z" />
    <glyph glyph-name="Ccedilla.small" horiz-adv-x="545" 
d="M296 -199q-66 0 -69 58h32q5 -26 35 -26q15 0 25 11t10 30q0 44 -33 44q-22 0 -33 -19h-37l33 94q-94 12 -148 79.5t-54 169.5q0 109 64 186t171 77q73 0 127 -42.5t66 -118.5h-38q-23 112 -150 112q-138 0 -138 -214q0 -104 39 -153.5t106 -49.5q121 0 143 112h38
q-12 -77 -63.5 -119t-122.5 -42h-5l-20 -53q14 11 36 11q31 0 50 -18.5t19 -55.5q0 -34 -21 -53.5t-62 -19.5z" />
    <glyph glyph-name="Dcaron.small" horiz-adv-x="605" 
d="M306 635l90 63h27l-109 -150h-16l-109 150h27zM305 450h-102v-405h102q69 0 105 45.5t36 158.5q0 201 -141 201zM108 0v495h197q112 0 177.5 -72t65.5 -175q0 -106 -65 -177t-178 -71h-197z" />
    <glyph glyph-name="Dcroat.small" horiz-adv-x="605" 
d="M299 222h-96v-177h102q69 0 105 45.5t36 158.5q0 201 -141 201h-102v-183h96v-45zM108 0v222h-70v45h70v228h197q112 0 177.5 -72t65.5 -175q0 -106 -65 -177t-178 -71h-197z" />
    <glyph glyph-name="Egrave.small" horiz-adv-x="487" 
d="M228 697l65 -150h-27l-149 150h111zM108 0v495h297v-45h-202v-180h187v-45h-187v-180h218v-45h-313z" />
    <glyph glyph-name="Eacute.small" horiz-adv-x="487" 
d="M290 698h111l-149 -150h-27zM108 0v495h297v-45h-202v-180h187v-45h-187v-180h218v-45h-313z" />
    <glyph glyph-name="Ecircumflex.small" horiz-adv-x="487" 
d="M261 611l-90 -63h-27l109 150h16l109 -150h-27zM108 0v495h297v-45h-202v-180h187v-45h-187v-180h218v-45h-313z" />
    <glyph glyph-name="Ecaron.small" horiz-adv-x="487" 
d="M259 635l90 63h27l-109 -150h-16l-109 150h27zM108 0v495h297v-45h-202v-180h187v-45h-187v-180h218v-45h-313z" />
    <glyph glyph-name="Edieresis.small" horiz-adv-x="487" 
d="M228 668v-77h-80v77h80zM369 668v-77h-80v77h80zM108 0v495h297v-45h-202v-180h187v-45h-187v-180h218v-45h-313z" />
    <glyph glyph-name="Emacron.small" horiz-adv-x="487" 
d="M133 655h251v-51h-251v51zM108 0v495h297v-45h-202v-180h187v-45h-187v-180h218v-45h-313z" />
    <glyph glyph-name="Ebreve.small" horiz-adv-x="487" 
d="M259 626q33 0 60.5 16.5t27.5 55.5h35q0 -55 -37.5 -97t-85.5 -42q-55 0 -89.5 41t-34.5 98h35q0 -72 89 -72zM108 0v495h297v-45h-202v-180h187v-45h-187v-180h218v-45h-313z" />
    <glyph glyph-name="Edotaccent.small" horiz-adv-x="487" 
d="M303 673v-87h-90v87h90zM108 0v495h297v-45h-202v-180h187v-45h-187v-180h218v-45h-313z" />
    <glyph glyph-name="Eogonek.small" horiz-adv-x="487" 
d="M421 -111q-1 -42 -24.5 -65t-63.5 -23q-79 0 -79 63q0 27 19.5 56t65.5 80h-231v495h297v-45h-202v-180h187v-45h-187v-180h218v-45h-46q-64 -82 -64 -130q0 -36 33 -36q17 0 29.5 14.5t15.5 40.5h32z" />
    <glyph glyph-name="fi.small" horiz-adv-x="773" 
d="M570 495h95v-495h-95v495zM392 217h-189v-217h-95v495h298v-45h-203v-187h189v-46z" />
    <glyph glyph-name="fl.small" horiz-adv-x="914" 
d="M392 217h-189v-217h-95v495h298v-45h-203v-187h189v-46zM570 0v495h95v-450h219v-45h-314z" />
    <glyph glyph-name="Gcircumflex.small" horiz-adv-x="571" 
d="M302 611l-90 -63h-27l109 150h16l109 -150h-27zM496 220v-220h-46q0 31 -22 45q-53 -55 -137 -55q-107 0 -170.5 70t-63.5 182q0 108 65.5 185.5t173.5 77.5q72 0 124.5 -42.5t64.5 -118.5h-38q-23 112 -147 112q-141 0 -141 -214q0 -202 137 -202q66 0 105 42v93h-82v45
h177z" />
    <glyph glyph-name="Gbreve.small" horiz-adv-x="571" 
d="M300 626q33 0 60.5 16.5t27.5 55.5h35q0 -55 -37.5 -97t-85.5 -42q-55 0 -89.5 41t-34.5 98h35q0 -72 89 -72zM496 220v-220h-46q0 31 -22 45q-53 -55 -137 -55q-107 0 -170.5 70t-63.5 182q0 108 65.5 185.5t173.5 77.5q72 0 124.5 -42.5t64.5 -118.5h-38
q-23 112 -147 112q-141 0 -141 -214q0 -202 137 -202q66 0 105 42v93h-82v45h177z" />
    <glyph glyph-name="Gdotaccent.small" horiz-adv-x="571" 
d="M344 673v-87h-90v87h90zM496 220v-220h-46q0 31 -22 45q-53 -55 -137 -55q-107 0 -170.5 70t-63.5 182q0 108 65.5 185.5t173.5 77.5q72 0 124.5 -42.5t64.5 -118.5h-38q-23 112 -147 112q-141 0 -141 -214q0 -202 137 -202q66 0 105 42v93h-82v45h177z" />
    <glyph glyph-name="Gcommaaccent.small" horiz-adv-x="571" 
d="M496 220v-220h-46q0 31 -22 45q-53 -55 -137 -55q-107 0 -170.5 70t-63.5 182q0 108 65.5 185.5t173.5 77.5q72 0 124.5 -42.5t64.5 -118.5h-38q-23 112 -147 112q-141 0 -141 -214q0 -202 137 -202q66 0 105 42v93h-82v45h177zM327 -135q0 25 -58 25v50q99 0 99 -68
q0 -67 -114 -67v26q44 1 58.5 9.5t14.5 24.5z" />
    <glyph glyph-name="Hcircumflex.small" horiz-adv-x="648" 
d="M326 611l-90 -63h-27l109 150h16l109 -150h-27zM445 0v225h-242v-225h-95v495h95v-225h242v225h95v-495h-95z" />
    <glyph glyph-name="Hbar.small" horiz-adv-x="648" 
d="M445 270v72h-242v-72h242zM445 0v225h-242v-225h-95v342h-70v45h70v108h95v-108h242v108h95v-108h70v-45h-70v-342h-95z" />
    <glyph glyph-name="Igrave.small" horiz-adv-x="311" 
d="M105 697l65 -150h-27l-149 150h111zM108 495h95v-495h-95v495z" />
    <glyph glyph-name="Iacute.small" horiz-adv-x="311" 
d="M207 698h111l-149 -150h-27zM108 495h95v-495h-95v495z" />
    <glyph glyph-name="Icircumflex.small" horiz-adv-x="311" 
d="M158 611l-90 -63h-27l109 150h16l109 -150h-27zM108 495h95v-495h-95v495z" />
    <glyph glyph-name="Itilde.small" horiz-adv-x="311" 
d="M207 559q-21 0 -38 12.5t-26 27t-21.5 27t-25.5 12.5q-29 0 -29 -79h-35q0 66 18 102.5t52 36.5q25 0 45 -20t36 -39.5t32 -19.5q29 0 29 79h35q0 -139 -72 -139zM108 495h95v-495h-95v495z" />
    <glyph glyph-name="Idieresis.small" horiz-adv-x="311" 
d="M125 668v-77h-80v77h80zM266 668v-77h-80v77h80zM108 495h95v-495h-95v495z" />
    <glyph glyph-name="Imacron.small" horiz-adv-x="311" 
d="M30 655h251v-51h-251v51zM108 495h95v-495h-95v495z" />
    <glyph glyph-name="Ibreve.small" horiz-adv-x="311" 
d="M156 626q33 0 60.5 16.5t27.5 55.5h35q0 -55 -37.5 -97t-85.5 -42q-55 0 -89.5 41t-34.5 98h35q0 -72 89 -72zM108 495h95v-495h-95v495z" />
    <glyph glyph-name="Idotaccent.small" horiz-adv-x="311" 
d="M200 673v-87h-90v87h90zM108 495h95v-495h-95v495z" />
    <glyph glyph-name="Iogonek.small" horiz-adv-x="311" 
d="M139 0h-31v495h95v-495h-28q-65 -82 -65 -130q0 -36 33 -36q17 0 29.5 14.5t15.5 40.5h32q-1 -42 -24.5 -65t-63.5 -23q-79 0 -79 63q0 27 19.5 55t66.5 81z" />
    <glyph glyph-name="IJ.small" horiz-adv-x="761" 
d="M108 495h95v-495h-95v495zM483 39q85 0 85 113v343h95v-332q0 -80 -42.5 -126.5t-116.5 -46.5q-137 0 -154 158h38q16 -109 95 -109z" />
    <glyph glyph-name="Jcircumflex.small" horiz-adv-x="450" 
d="M307 611l-90 -63h-27l109 150h16l109 -150h-27zM172 39q85 0 85 113v343h95v-332q0 -80 -42.5 -126.5t-116.5 -46.5q-137 0 -154 158h38q16 -109 95 -109z" />
    <glyph glyph-name="Kcommaaccent.small" horiz-adv-x="553" 
d="M508 0h-114l-187 248l219 247h62l-196 -219zM203 495v-495h-95v495h95zM320 -135q0 25 -58 25v50q99 0 99 -68q0 -67 -114 -67v26q44 1 58.5 9.5t14.5 24.5z" />
    <glyph glyph-name="Lacute.small" horiz-adv-x="452" 
d="M208 698h111l-149 -150h-27zM108 0v495h95v-450h219v-45h-314z" />
    <glyph glyph-name="Lcaron.small" horiz-adv-x="452" 
d="M293 494h111l-104 -150h-27zM108 0v495h95v-450h219v-45h-314z" />
    <glyph glyph-name="Lcommaaccent.small" horiz-adv-x="452" 
d="M108 0v495h95v-450h219v-45h-314zM304 -135q0 25 -58 25v50q99 0 99 -68q0 -67 -114 -67v26q44 1 58.5 9.5t14.5 24.5z" />
    <glyph glyph-name="Lslash.small" horiz-adv-x="452" 
d="M108 0v186l-70 -43v47l70 43v262h95v-211l111 65v-46l-111 -65v-193h219v-45h-314z" />
    <glyph glyph-name="Ldot.small" horiz-adv-x="452" 
d="M416 300v-87h-90v87h90zM108 0v495h95v-450h219v-45h-314z" />
    <glyph glyph-name="Nacute.small" horiz-adv-x="622" 
d="M375 698h111l-149 -150h-27zM514 -4l-2 1v-1h-42l-304 397v-393h-53v495h91l257 -337v337h53v-499z" />
    <glyph glyph-name="Ncaron.small" horiz-adv-x="622" 
d="M324 635l90 63h27l-109 -150h-16l-109 150h27zM514 -4l-2 1v-1h-42l-304 397v-393h-53v495h91l257 -337v337h53v-499z" />
    <glyph glyph-name="Ntilde.small" horiz-adv-x="622" 
d="M375 559q-21 0 -38 12.5t-26 27t-21.5 27t-25.5 12.5q-29 0 -29 -79h-35q0 66 18 102.5t52 36.5q25 0 45 -20t36 -39.5t32 -19.5q29 0 29 79h35q0 -139 -72 -139zM514 -4l-2 1v-1h-42l-304 397v-393h-53v495h91l257 -337v337h53v-499z" />
    <glyph glyph-name="Ncommaaccent.small" horiz-adv-x="622" 
d="M514 -4l-2 1v-1h-42l-304 397v-393h-53v495h91l257 -337v337h53v-499zM335 -135q0 25 -58 25v50q99 0 99 -68q0 -67 -114 -67v26q44 1 58.5 9.5t14.5 24.5z" />
    <glyph glyph-name="Ograve.small" horiz-adv-x="592" 
d="M245 697l65 -150h-27l-149 150h111zM296 505q111 0 175 -76.5t64 -186.5q0 -109 -63.5 -180.5t-175.5 -71.5t-175.5 71.5t-63.5 180.5q0 110 64 186.5t175 76.5zM296 39q137 0 137 203q0 214 -137 214t-137 -214q0 -203 137 -203z" />
    <glyph glyph-name="Oacute.small" horiz-adv-x="592" 
d="M347 698h111l-149 -150h-27zM296 505q111 0 175 -76.5t64 -186.5q0 -109 -63.5 -180.5t-175.5 -71.5t-175.5 71.5t-63.5 180.5q0 110 64 186.5t175 76.5zM296 39q137 0 137 203q0 214 -137 214t-137 -214q0 -203 137 -203z" />
    <glyph glyph-name="Ocircumflex.small" horiz-adv-x="592" 
d="M298 611l-90 -63h-27l109 150h16l109 -150h-27zM296 505q111 0 175 -76.5t64 -186.5q0 -109 -63.5 -180.5t-175.5 -71.5t-175.5 71.5t-63.5 180.5q0 110 64 186.5t175 76.5zM296 39q137 0 137 203q0 214 -137 214t-137 -214q0 -203 137 -203z" />
    <glyph glyph-name="Otilde.small" horiz-adv-x="592" 
d="M347 559q-21 0 -38 12.5t-26 27t-21.5 27t-25.5 12.5q-29 0 -29 -79h-35q0 66 18 102.5t52 36.5q25 0 45 -20t36 -39.5t32 -19.5q29 0 29 79h35q0 -139 -72 -139zM296 505q111 0 175 -76.5t64 -186.5q0 -109 -63.5 -180.5t-175.5 -71.5t-175.5 71.5t-63.5 180.5
q0 110 64 186.5t175 76.5zM296 39q137 0 137 203q0 214 -137 214t-137 -214q0 -203 137 -203z" />
    <glyph glyph-name="Odieresis.small" horiz-adv-x="592" 
d="M265 668v-77h-80v77h80zM406 668v-77h-80v77h80zM296 505q111 0 175 -76.5t64 -186.5q0 -109 -63.5 -180.5t-175.5 -71.5t-175.5 71.5t-63.5 180.5q0 110 64 186.5t175 76.5zM296 39q137 0 137 203q0 214 -137 214t-137 -214q0 -203 137 -203z" />
    <glyph glyph-name="Omacron.small" horiz-adv-x="592" 
d="M170 655h251v-51h-251v51zM296 505q111 0 175 -76.5t64 -186.5q0 -109 -63.5 -180.5t-175.5 -71.5t-175.5 71.5t-63.5 180.5q0 110 64 186.5t175 76.5zM296 39q137 0 137 203q0 214 -137 214t-137 -214q0 -203 137 -203z" />
    <glyph glyph-name="Obreve.small" horiz-adv-x="592" 
d="M296 626q33 0 60.5 16.5t27.5 55.5h35q0 -55 -37.5 -97t-85.5 -42q-55 0 -89.5 41t-34.5 98h35q0 -72 89 -72zM296 505q111 0 175 -76.5t64 -186.5q0 -109 -63.5 -180.5t-175.5 -71.5t-175.5 71.5t-63.5 180.5q0 110 64 186.5t175 76.5zM296 39q137 0 137 203
q0 214 -137 214t-137 -214q0 -203 137 -203z" />
    <glyph glyph-name="Ohungarumlaut.small" horiz-adv-x="592" 
d="M378 698h111l-119 -150h-27zM238 698h111l-119 -150h-27zM296 505q111 0 175 -76.5t64 -186.5q0 -109 -63.5 -180.5t-175.5 -71.5t-175.5 71.5t-63.5 180.5q0 110 64 186.5t175 76.5zM296 39q137 0 137 203q0 214 -137 214t-137 -214q0 -203 137 -203z" />
    <glyph glyph-name="Oslash.small" horiz-adv-x="592" 
d="M296 -10q-88 0 -150 48l-32 -38h-56l57 67q-58 70 -58 175q0 110 64 186.5t175 76.5q87 0 149 -51l34 41h57l-61 -71q60 -74 60 -182q0 -109 -63.5 -180.5t-175.5 -71.5zM159 242q0 -62 13 -108l227 267q-36 55 -103 55q-137 0 -137 -214zM296 39q137 0 137 203
q0 70 -15 115l-227 -266q34 -52 105 -52z" />
    <glyph glyph-name="Oslashacute.small" horiz-adv-x="592" 
d="M345 698h111l-149 -150h-27zM296 -10q-88 0 -150 48l-32 -38h-56l57 67q-58 70 -58 175q0 110 64 186.5t175 76.5q87 0 149 -51l34 41h57l-61 -71q60 -74 60 -182q0 -109 -63.5 -180.5t-175.5 -71.5zM159 242q0 -62 13 -108l227 267q-36 55 -103 55q-137 0 -137 -214z
M296 39q137 0 137 203q0 70 -15 115l-227 -266q34 -52 105 -52z" />
    <glyph glyph-name="OE.small" horiz-adv-x="781" 
d="M300 0q-112 0 -177.5 72t-65.5 175q0 106 65 177t178 71h399v-45h-202v-180h187v-45h-187v-180h218v-45h-415zM300 45h102v405h-102q-69 0 -105 -45.5t-36 -158.5q0 -201 141 -201z" />
    <glyph glyph-name="Racute.small" 
d="M322 698h111l-149 -150h-27zM271 450h-68v-184h89q67 0 67 93q0 91 -88 91zM396 0l-150 221h-43v-221h-95v495h163q90 0 140 -34t50 -98q0 -48 -30 -84t-88 -50l163 -229h-110z" />
    <glyph glyph-name="Rcaron.small" 
d="M271 635l90 63h27l-109 -150h-16l-109 150h27zM271 450h-68v-184h89q67 0 67 93q0 91 -88 91zM396 0l-150 221h-43v-221h-95v495h163q90 0 140 -34t50 -98q0 -48 -30 -84t-88 -50l163 -229h-110z" />
    <glyph glyph-name="Rcommaaccent.small" 
d="M271 450h-68v-184h89q67 0 67 93q0 91 -88 91zM396 0l-150 221h-43v-221h-95v495h163q90 0 140 -34t50 -98q0 -48 -30 -84t-88 -50l163 -229h-110zM319 -135q0 25 -58 25v50q99 0 99 -68q0 -67 -114 -67v26q44 1 58.5 9.5t14.5 24.5z" />
    <glyph glyph-name="germandbls.small" horiz-adv-x="924" 
d="M685 33q91 0 91 73q0 13 -3 24t-6 18.5t-12 16t-13.5 13t-17.5 11.5t-18 9t-21.5 9t-20.5 9q-62 28 -90 59.5t-28 93.5q0 58 42 97t116 39q126 0 140 -126h-38q-14 83 -96 83q-39 0 -60.5 -19.5t-21.5 -51.5q0 -35 19.5 -54t70.5 -42q83 -37 114.5 -70t31.5 -92
q0 -63 -49 -103t-120 -40q-155 0 -169 148h38q17 -105 121 -105zM223 33q91 0 91 73q0 13 -3 24t-6 18.5t-12 16t-13.5 13t-17.5 11.5t-18 9t-21.5 9t-20.5 9q-62 28 -90 59.5t-28 93.5q0 58 42 97t116 39q126 0 140 -126h-38q-14 83 -96 83q-39 0 -60.5 -19.5t-21.5 -51.5
q0 -35 19.5 -54t70.5 -42q83 -37 114.5 -70t31.5 -92q0 -63 -49 -103t-120 -40q-155 0 -169 148h38q17 -105 121 -105z" />
    <glyph glyph-name="Sacute.small" horiz-adv-x="462" 
d="M262 698h111l-149 -150h-27zM223 33q91 0 91 73q0 13 -3 24t-6 18.5t-12 16t-13.5 13t-17.5 11.5t-18 9t-21.5 9t-20.5 9q-62 28 -90 59.5t-28 93.5q0 58 42 97t116 39q126 0 140 -126h-38q-14 83 -96 83q-39 0 -60.5 -19.5t-21.5 -51.5q0 -35 19.5 -54t70.5 -42
q83 -37 114.5 -70t31.5 -92q0 -63 -49 -103t-120 -40q-155 0 -169 148h38q17 -105 121 -105z" />
    <glyph glyph-name="Scircumflex.small" horiz-adv-x="462" 
d="M240 611l-90 -63h-27l109 150h16l109 -150h-27zM223 33q91 0 91 73q0 13 -3 24t-6 18.5t-12 16t-13.5 13t-17.5 11.5t-18 9t-21.5 9t-20.5 9q-62 28 -90 59.5t-28 93.5q0 58 42 97t116 39q126 0 140 -126h-38q-14 83 -96 83q-39 0 -60.5 -19.5t-21.5 -51.5
q0 -35 19.5 -54t70.5 -42q83 -37 114.5 -70t31.5 -92q0 -63 -49 -103t-120 -40q-155 0 -169 148h38q17 -105 121 -105z" />
    <glyph glyph-name="Scaron.small" horiz-adv-x="462" 
d="M238 635l90 63h27l-109 -150h-16l-109 150h27zM223 33q91 0 91 73q0 13 -3 24t-6 18.5t-12 16t-13.5 13t-17.5 11.5t-18 9t-21.5 9t-20.5 9q-62 28 -90 59.5t-28 93.5q0 58 42 97t116 39q126 0 140 -126h-38q-14 83 -96 83q-39 0 -60.5 -19.5t-21.5 -51.5q0 -35 19.5 -54
t70.5 -42q83 -37 114.5 -70t31.5 -92q0 -63 -49 -103t-120 -40q-155 0 -169 148h38q17 -105 121 -105z" />
    <glyph glyph-name="Scedilla.small" horiz-adv-x="462" 
d="M234 -199q-66 0 -69 58h32q5 -26 35 -26q15 0 25 11t10 30q0 44 -33 44q-22 0 -33 -19h-37l33 93q-120 16 -133 146h38q17 -105 121 -105q91 0 91 73q0 13 -3 24t-6 18.5t-12 16t-13.5 13t-17.5 11.5t-18 9t-21.5 9t-20.5 9q-62 28 -90 59.5t-28 93.5q0 58 42 97t116 39
q126 0 140 -126h-38q-14 83 -96 83q-39 0 -60.5 -19.5t-21.5 -51.5q0 -35 19.5 -54t70.5 -42q83 -37 114.5 -70t31.5 -92q0 -63 -49 -103t-120 -40h-1l-20 -53q14 11 36 11q31 0 50 -18.5t19 -55.5q0 -34 -21 -53.5t-62 -19.5z" />
    <glyph glyph-name="Scommaaccent.small" horiz-adv-x="462" 
d="M223 33q91 0 91 73q0 13 -3 24t-6 18.5t-12 16t-13.5 13t-17.5 11.5t-18 9t-21.5 9t-20.5 9q-62 28 -90 59.5t-28 93.5q0 58 42 97t116 39q126 0 140 -126h-38q-14 83 -96 83q-39 0 -60.5 -19.5t-21.5 -51.5q0 -35 19.5 -54t70.5 -42q83 -37 114.5 -70t31.5 -92
q0 -63 -49 -103t-120 -40q-155 0 -169 148h38q17 -105 121 -105zM271 -135q0 25 -58 25v50q99 0 99 -68q0 -67 -114 -67v26q44 1 58.5 9.5t14.5 24.5z" />
    <glyph glyph-name="Tcaron.small" horiz-adv-x="503" 
d="M252 635l90 63h27l-109 -150h-16l-109 150h27zM473 450h-174v-450h-95v450h-174v45h443v-45z" />
    <glyph glyph-name="Tcommaaccent.small" horiz-adv-x="503" 
d="M473 450h-174v-450h-95v450h-174v45h443v-45zM280 -135q0 25 -58 25v50q99 0 99 -68q0 -67 -114 -67v26q44 1 58.5 9.5t14.5 24.5z" />
    <glyph glyph-name="Tbar.small" horiz-adv-x="503" 
d="M399 205h-100v-205h-95v205h-100v45h100v200h-174v45h443v-45h-174v-200h100v-45z" />
    <glyph glyph-name="Ugrave.small" horiz-adv-x="599" 
d="M259 697l65 -150h-27l-149 150h111zM443 170v325h58v-319q0 -90 -52.5 -138t-139.5 -48q-100 0 -155.5 48.5t-55.5 149.5v307h95v-307q0 -144 125 -144q50 0 87.5 31t37.5 95z" />
    <glyph glyph-name="Uacute.small" horiz-adv-x="599" 
d="M361 698h111l-149 -150h-27zM443 170v325h58v-319q0 -90 -52.5 -138t-139.5 -48q-100 0 -155.5 48.5t-55.5 149.5v307h95v-307q0 -144 125 -144q50 0 87.5 31t37.5 95z" />
    <glyph glyph-name="Ucircumflex.small" horiz-adv-x="599" 
d="M312 611l-90 -63h-27l109 150h16l109 -150h-27zM443 170v325h58v-319q0 -90 -52.5 -138t-139.5 -48q-100 0 -155.5 48.5t-55.5 149.5v307h95v-307q0 -144 125 -144q50 0 87.5 31t37.5 95z" />
    <glyph glyph-name="Utilde.small" horiz-adv-x="599" 
d="M371 559q-21 0 -38 12.5t-26 27t-21.5 27t-25.5 12.5q-29 0 -29 -79h-35q0 66 18 102.5t52 36.5q25 0 45 -20t36 -39.5t32 -19.5q29 0 29 79h35q0 -139 -72 -139zM443 170v325h58v-319q0 -90 -52.5 -138t-139.5 -48q-100 0 -155.5 48.5t-55.5 149.5v307h95v-307
q0 -144 125 -144q50 0 87.5 31t37.5 95z" />
    <glyph glyph-name="Udieresis.small" horiz-adv-x="599" 
d="M279 668v-77h-80v77h80zM420 668v-77h-80v77h80zM443 170v325h58v-319q0 -90 -52.5 -138t-139.5 -48q-100 0 -155.5 48.5t-55.5 149.5v307h95v-307q0 -144 125 -144q50 0 87.5 31t37.5 95z" />
    <glyph glyph-name="Umacron.small" horiz-adv-x="599" 
d="M184 655h251v-51h-251v51zM443 170v325h58v-319q0 -90 -52.5 -138t-139.5 -48q-100 0 -155.5 48.5t-55.5 149.5v307h95v-307q0 -144 125 -144q50 0 87.5 31t37.5 95z" />
    <glyph glyph-name="Ubreve.small" horiz-adv-x="599" 
d="M310 626q33 0 60.5 16.5t27.5 55.5h35q0 -55 -37.5 -97t-85.5 -42q-55 0 -89.5 41t-34.5 98h35q0 -72 89 -72zM443 170v325h58v-319q0 -90 -52.5 -138t-139.5 -48q-100 0 -155.5 48.5t-55.5 149.5v307h95v-307q0 -144 125 -144q50 0 87.5 31t37.5 95z" />
    <glyph glyph-name="Uring.small" horiz-adv-x="599" 
d="M309 548q-45 0 -70.5 19.5t-25.5 55.5q0 35 25.5 55t70.5 20t70.5 -20t25.5 -55q0 -36 -25.5 -55.5t-70.5 -19.5zM309 573q42 0 42 50t-42 50t-42 -50t42 -50zM443 170v325h58v-319q0 -90 -52.5 -138t-139.5 -48q-100 0 -155.5 48.5t-55.5 149.5v307h95v-307
q0 -144 125 -144q50 0 87.5 31t37.5 95z" />
    <glyph glyph-name="Uhungarumlaut.small" horiz-adv-x="599" 
d="M392 698h111l-119 -150h-27zM252 698h111l-119 -150h-27zM443 170v325h58v-319q0 -90 -52.5 -138t-139.5 -48q-100 0 -155.5 48.5t-55.5 149.5v307h95v-307q0 -144 125 -144q50 0 87.5 31t37.5 95z" />
    <glyph glyph-name="Uogonek.small" horiz-adv-x="599" 
d="M300 -199q-79 0 -79 63q0 25 17.5 52t59.5 74q-95 2 -147.5 51t-52.5 147v307h95v-307q0 -144 125 -144q50 0 87.5 31t37.5 95v325h58v-319q0 -83 -44.5 -130t-120.5 -55q-58 -76 -58 -121q0 -36 33 -36q17 0 29.5 14.5t15.5 40.5h32q-1 -42 -24.5 -65t-63.5 -23z" />
    <glyph glyph-name="Wgrave.small" horiz-adv-x="732" 
d="M349 697l65 -150h-27l-149 150h111zM186 -4l-156 499h104l104 -350l138 350h44l124 -339l102 339h56l-156 -499h-44l-130 350l-142 -350h-44z" />
    <glyph glyph-name="Wacute.small" horiz-adv-x="732" 
d="M451 698h111l-149 -150h-27zM186 -4l-156 499h104l104 -350l138 350h44l124 -339l102 339h56l-156 -499h-44l-130 350l-142 -350h-44z" />
    <glyph glyph-name="Wcircumflex.small" horiz-adv-x="732" 
d="M402 611l-90 -63h-27l109 150h16l109 -150h-27zM186 -4l-156 499h104l104 -350l138 350h44l124 -339l102 339h56l-156 -499h-44l-130 350l-142 -350h-44z" />
    <glyph glyph-name="Wdieresis.small" horiz-adv-x="732" 
d="M369 668v-77h-80v77h80zM510 668v-77h-80v77h80zM186 -4l-156 499h104l104 -350l138 350h44l124 -339l102 339h56l-156 -499h-44l-130 350l-142 -350h-44z" />
    <glyph glyph-name="Ygrave.small" horiz-adv-x="507" 
d="M217 697l65 -150h-27l-149 150h111zM301 0h-95v221l-181 274h108l145 -217l139 217h65l-181 -274v-221z" />
    <glyph glyph-name="Yacute.small" horiz-adv-x="507" 
d="M319 698h111l-149 -150h-27zM301 0h-95v221l-181 274h108l145 -217l139 217h65l-181 -274v-221z" />
    <glyph glyph-name="Ycircumflex.small" horiz-adv-x="507" 
d="M270 611l-90 -63h-27l109 150h16l109 -150h-27zM301 0h-95v221l-181 274h108l145 -217l139 217h65l-181 -274v-221z" />
    <glyph glyph-name="Ydieresis.small" horiz-adv-x="507" 
d="M237 668v-77h-80v77h80zM378 668v-77h-80v77h80zM301 0h-95v221l-181 274h108l145 -217l139 217h65l-181 -274v-221z" />
    <glyph glyph-name="Zacute.small" horiz-adv-x="517" 
d="M317 698h111l-149 -150h-27zM60 0v28l262 423h-253v44h370v-29l-260 -420h278v-46h-397z" />
    <glyph glyph-name="Zcaron.small" horiz-adv-x="517" 
d="M266 635l90 63h27l-109 -150h-16l-109 150h27zM60 0v28l262 423h-253v44h370v-29l-260 -420h278v-46h-397z" />
    <glyph glyph-name="Zdotaccent.small" horiz-adv-x="517" 
d="M310 673v-87h-90v87h90zM60 0v28l262 423h-253v44h370v-29l-260 -420h278v-46h-397z" />
    <glyph glyph-name="Schwa.small" horiz-adv-x="584" 
d="M291 -8q-234 0 -234 265h368q-1 110 -36.5 155.5t-107.5 45.5q-119 0 -157 -112h-49q16 71 71 115t135 44q111 0 178.5 -71t67.5 -180q0 -112 -65.5 -187t-170.5 -75zM289 39q56 0 92.5 36t42.5 137h-270q0 -51 13.5 -87t35.5 -53.5t43 -25t43 -7.5z" />
    <glyph glyph-name="Eng.small" horiz-adv-x="617" 
d="M381 -250q-127 0 -127 130h72q0 -50 15 -70t46 -20q69 0 69 138v72l-295 394v-394h-53v495h91l257 -344v344h53v-567q0 -89 -30 -133.5t-98 -44.5z" />
    <glyph glyph-name="Eth.small" horiz-adv-x="605" 
d="M299 222h-96v-177h102q69 0 105 45.5t36 158.5q0 201 -141 201h-102v-183h96v-45zM108 0v222h-70v45h70v228h197q112 0 177.5 -72t65.5 -175q0 -106 -65 -177t-178 -71h-197z" />
    <glyph glyph-name="Thorn.small" horiz-adv-x="513" 
d="M271 370h-68v-193h68q88 0 88 97q0 96 -88 96zM271 131h-68v-131h-95v495h95v-80h68q89 0 139.5 -37t50.5 -104t-50.5 -105t-139.5 -38z" />
    <glyph glyph-name="a.superior" horiz-adv-x="317" 
d="M145 341q23 0 40.5 20.5t17.5 40.5v35l-40 -8q-28 -6 -42 -17.5t-14 -35.5q0 -35 38 -35zM203 310v40q-23 -47 -78 -47q-39 0 -62.5 18t-23.5 50q0 65 99 84l65 14v28q0 28 -16.5 43.5t-43.5 15.5q-24 0 -41 -14.5t-20 -39.5h-25q2 43 31.5 67t74.5 24q54 0 81.5 -27.5
t27.5 -68.5v-187h-69z" />
    <glyph glyph-name="b.superior" horiz-adv-x="374" 
d="M199 303q-56 0 -82 39v-32h-69v478h69v-236q28 41 88 41q62 0 102 -42.5t40 -102.5t-41 -102.5t-107 -42.5zM117 448q0 -50 23.5 -79t56.5 -29q77 0 77 108q0 109 -71 109q-37 0 -61.5 -29t-24.5 -80z" />
    <glyph glyph-name="c.superior" horiz-adv-x="307" 
d="M181 549q-82 0 -82 -96q0 -56 23 -81t58 -25q64 0 75 55h25q-2 -42 -32.5 -70.5t-82.5 -28.5q-61 0 -99.5 38t-38.5 106q0 65 37.5 105.5t101.5 40.5q52 0 82.5 -28.5t32.5 -70.5h-25q-11 55 -75 55z" />
    <glyph glyph-name="d.superior" horiz-adv-x="374" 
d="M257 448q0 51 -23.5 80t-56.5 29q-77 0 -77 -109q0 -58 16 -83t55 -25q32 0 59 29.5t27 78.5zM257 310v38q-32 -45 -98 -45q-61 0 -96.5 42t-35.5 103q0 60 39 102.5t98 42.5q64 0 93 -42v237h69v-478h-69z" />
    <glyph glyph-name="e.superior" horiz-adv-x="319" 
d="M166 562q-57 0 -66 -81h124q0 42 -13.5 61.5t-44.5 19.5zM287 402q-2 -42 -32.5 -70.5t-82.5 -28.5q-65 0 -105 38t-40 106q0 61 38.5 103.5t98.5 42.5q62 0 95 -37.5t33 -106.5h-193q1 -54 25.5 -78t61.5 -24q27 0 49 13.5t27 41.5h25z" />
    <glyph glyph-name="f.superior" horiz-adv-x="210" 
d="M211 554h-83v-244h-69v244h-51v32h51v40q0 87 31 128t81 41q38 0 61 -23t26 -61h-25q-5 31 -19.5 45t-43.5 14t-48.5 -19t-19.5 -61q0 -61 26 -104h83v-32z" />
    <glyph glyph-name="g.superior" horiz-adv-x="330" 
d="M111 487q0 -67 48 -67q21 0 34.5 17.5t13.5 53.5q0 67 -48 67t-48 -71zM301 253q0 -55 -46.5 -80.5t-118.5 -25.5q-52 0 -84 16.5t-32 46.5q0 14 7 26.5t15 20t23 18.5q-32 20 -32 59q0 50 46 75q-40 30 -40 78q0 42 33.5 74t86.5 32q48 0 81 -25l77 46h2v-64
q-21 0 -59 -2q19 -27 19 -57q0 -44 -33.5 -75t-86.5 -31q-31 0 -53 9q-28 -16 -28 -37q0 -17 12.5 -22.5t41.5 -5.5h64q53 0 79 -21.5t26 -54.5zM148 186q40 0 67.5 12.5t27.5 31.5q0 31 -48 31h-77q-15 0 -27 3q-20 -19 -20 -41q0 -37 77 -37z" />
    <glyph glyph-name="h.superior" horiz-adv-x="364" 
d="M48 788h69v-250q31 55 93 55q53 0 81 -28.5t28 -77.5v-177h-69v164q0 42 -15 59t-45 17q-31 0 -52 -26t-21 -56v-158h-69v478z" />
    <glyph glyph-name="i.superior" horiz-adv-x="180" 
d="M126 664h-69v71h69v-71zM126 586v-276h-69v276h69z" />
    <glyph glyph-name="j.superior" horiz-adv-x="173" 
d="M121 735v-71h-69v71h69zM119 586v-259q0 -14 1 -41t1 -36q0 -49 -24.5 -76t-71.5 -27q-16 0 -28 2v30q8 -2 15 -2q41 0 41 61q0 8 -1.5 40t-1.5 51v257h69z" />
    <glyph glyph-name="k.superior" horiz-adv-x="341" 
d="M117 788v-478h-69v478h69zM321 310h-89l-111 145l137 131h62l-130 -116z" />
    <glyph glyph-name="l.superior" horiz-adv-x="165" 
d="M117 788v-478h-69v478h69z" />
    <glyph glyph-name="m.superior" horiz-adv-x="553" 
d="M117 468v-158h-69v276h69v-48q32 55 90 55q78 0 99 -60q31 60 97 60q49 0 77 -27t28 -72v-184h-69v170q0 70 -57 70q-31 0 -50.5 -27t-19.5 -54v-159h-69v170q0 70 -57 70q-30 0 -49.5 -26t-19.5 -56z" />
    <glyph glyph-name="o.superior" horiz-adv-x="342" 
d="M27 442q0 60 39 105.5t105 45.5q67 0 105.5 -41.5t38.5 -103.5q0 -59 -39 -102t-105 -43q-68 0 -106 38.5t-38 100.5zM99 448q0 -60 18 -83.5t54 -23.5q72 0 72 107q0 60 -18 84t-54 24q-72 0 -72 -108z" />
    <glyph glyph-name="p.superior" horiz-adv-x="374" 
d="M117 448q0 -50 23.5 -79t56.5 -29q77 0 77 108q0 109 -71 109q-37 0 -61.5 -29t-24.5 -80zM199 303q-56 0 -82 39v-188h-69v432h69v-34q28 41 88 41q62 0 102 -42.5t40 -102.5t-41 -102.5t-107 -42.5z" />
    <glyph glyph-name="q.superior" horiz-adv-x="374" 
d="M326 154h-69v194q-32 -45 -98 -45q-61 0 -96.5 42t-35.5 103q0 60 39 102.5t98 42.5q64 0 93 -42v35h69v-432zM257 448q0 51 -23.5 80t-56.5 29q-77 0 -77 -109q0 -58 16 -83t55 -25q32 0 59 29.5t27 78.5z" />
    <glyph glyph-name="r.superior" horiz-adv-x="248" 
d="M48 310v276h69v-56q36 63 98 63q7 0 19 -2v-61q-16 2 -43 2q-74 0 -74 -61v-161h-69z" />
    <glyph glyph-name="s.superior" horiz-adv-x="263" 
d="M129 339q47 0 47 34q0 18 -12 26t-49 20t-60 31.5t-23 55.5q0 37 27.5 62t69.5 25q46 0 71.5 -26t27.5 -68h-25q-9 59 -72 59q-20 0 -31 -10t-11 -25q0 -24 46 -41q7 -3 10 -4q48 -18 69.5 -36.5t21.5 -56.5q0 -39 -30.5 -60.5t-73.5 -21.5q-48 0 -77.5 23t-30.5 66h25
q8 -53 80 -53z" />
    <glyph glyph-name="t.superior" horiz-adv-x="259" 
d="M236 387q-3 -44 -21.5 -64t-54.5 -20q-42 0 -67 26.5t-25 76.5v151h-56v32h56q15 11 29 45t15 62h25v-107h89v-32h-89v-163q0 -55 36 -55q30 0 36 48h27z" />
    <glyph glyph-name="u.superior" horiz-adv-x="357" 
d="M45 402v184h69v-169q0 -70 57 -70q28 0 48.5 25.5t20.5 49.5v164h69v-276h-69v48q-7 -22 -31.5 -38.5t-58.5 -16.5q-48 0 -76.5 27t-28.5 72z" />
    <glyph glyph-name="v.superior" horiz-adv-x="316" 
d="M143 307l-131 279h77l84 -187l86 187h45l-131 -279h-30z" />
    <glyph glyph-name="w.superior" horiz-adv-x="483" 
d="M125 307l-113 279h75l71 -180l84 182h29l88 -182l67 180h45l-107 -279h-31l-89 185l-88 -185h-31z" />
    <glyph glyph-name="x.superior" horiz-adv-x="335" 
d="M231 310l-77 104l-82 -104h-51l108 134l-107 142h83l72 -100l78 100h51l-103 -129l111 -147h-83z" />
    <glyph glyph-name="y.superior" horiz-adv-x="314" 
d="M36 147v60q45 1 64 12t31 43l19 49l-138 275h76l94 -190l73 190h47l-127 -320q-26 -66 -54 -92.5t-85 -26.5z" />
    <glyph glyph-name="z.superior" horiz-adv-x="283" 
d="M24 310v29l145 215h-141v32h225v-28l-146 -216h152v-32h-235z" />
    <glyph glyph-name="grave.cap" horiz-adv-x="500" 
d="M263 830l85 -120h-27l-169 120h111z" />
    <glyph glyph-name="acute.cap" horiz-adv-x="500" 
d="M237 830h111l-169 -120h-27z" />
    <glyph glyph-name="circumflex.cap" horiz-adv-x="500" 
d="M250 753l-90 -43h-27l109 120h16l109 -120h-27z" />
    <glyph glyph-name="caron.cap" horiz-adv-x="500" 
d="M250 787l90 43h27l-109 -120h-16l-109 120h27z" />
    <glyph glyph-name="caronSlovak" horiz-adv-x="500" 
d="M205 735h111l-104 -150h-27z" />
    <glyph glyph-name="tilde.cap" horiz-adv-x="500" 
d="M339 830h35q0 -61 -15 -90.5t-55 -29.5q-25 0 -43 9.5t-26 20.5t-19.5 20.5t-24.5 9.5q-19 0 -24 -14t-5 -46h-35q0 61 15 90.5t55 29.5q26 0 46 -15t35.5 -30t31.5 -15q19 0 24 14t5 46z" />
    <glyph glyph-name="dieresis.cap" horiz-adv-x="500" 
d="M220 813v-77h-80v77h80zM361 813v-77h-80v77h80z" />
    <glyph glyph-name="macron.cap" horiz-adv-x="500" 
d="M125 800h251v-51h-251v51z" />
    <glyph glyph-name="breve.cap" horiz-adv-x="500" 
d="M251 769q33 0 60.5 14t27.5 47h35q0 -47 -37.5 -83.5t-85.5 -36.5q-55 0 -89.5 35.5t-34.5 84.5h35q0 -61 89 -61z" />
    <glyph glyph-name="ring.cap" horiz-adv-x="500" 
d="M250 710q-45 0 -70.5 16t-25.5 44q0 27 26 43.5t70 16.5t70 -16.5t26 -43.5q0 -28 -25.5 -44t-70.5 -16zM250 733q42 0 42 37t-42 37t-42 -37t42 -37z" />
    <glyph glyph-name="hungarumlaut.cap" horiz-adv-x="500" 
d="M280 830h111l-115 -120h-27zM140 830h111l-115 -120h-27z" />
    <glyph glyph-name="dotaccent.cap" horiz-adv-x="500" 
d="M295 726h-90v87h90v-87z" />
    <glyph glyph-name="commaaccent.alt" horiz-adv-x="500" 
d="M292 548h-115l123 150h23z" />
    <glyph glyph-name="hyphen.cap" horiz-adv-x="295" 
d="M260 296h-225v71h225v-71z" />
    <glyph glyph-name="exclamdown.cap" horiz-adv-x="275" 
d="M85 554v106h106v-106h-106zM82 0q0 93 16.5 212.5t16.5 237.5h45q0 -118 16.5 -237.5t16.5 -212.5h-111z" />
    <glyph glyph-name="questiondown.cap" horiz-adv-x="465" 
d="M209 554v106h106v-106h-106zM275 40q53 0 86 29t36 88h39q0 -77 -52 -122.5t-130 -45.5q-80 0 -133 42.5t-53 108.5q0 37 13 67t28 45.5t42 39t39 36.5q33 35 39.5 50.5t6.5 70.5h55q0 -68 -8.5 -87.5t-53.5 -67.5q-32 -35 -45.5 -65t-13.5 -78q0 -111 105 -111z" />
    <glyph glyph-name="guilsinglleft.cap" horiz-adv-x="350" 
d="M152 328l139 -202h-31l-201 188v28l201 188h31z" />
    <glyph glyph-name="guilsinglright.cap" horiz-adv-x="350" 
d="M198 328l-139 202h31l201 -188v-28l-201 -188h-31z" />
    <glyph glyph-name="guillemotleft.cap" 
d="M152 328l139 -202h-31l-201 188v28l201 188h31zM352 328l139 -202h-31l-201 188v28l201 188h31z" />
    <glyph glyph-name="guillemotright.cap" 
d="M198 328l-139 202h31l201 -188v-28l-201 -188h-31zM398 328l-139 202h31l201 -188v-28l-201 -188h-31z" />
    <glyph glyph-name="endash.cap" horiz-adv-x="610" 
d="M555 300h-500v63h500v-63z" />
    <glyph glyph-name="emdash.cap" horiz-adv-x="1000" 
d="M975 300h-950v63h950v-63z" />
    <glyph glyph-name="periodcentered.cap" horiz-adv-x="275" 
d="M84 278v106h106v-106h-106z" />
    <glyph glyph-name="parenleft.cap" horiz-adv-x="359" 
d="M313 719q-89 -27 -141.5 -132.5t-52.5 -255.5t52.5 -255.5t141.5 -132.5l-10 -44q-107 30 -172 146t-65 286t65 285.5t172 145.5z" />
    <glyph glyph-name="parenright.cap" horiz-adv-x="359" 
d="M46 719l10 43q107 -30 172 -145.5t65 -285.5t-65 -286t-172 -146l-10 44q89 27 141.5 132.5t52.5 255.5t-52.5 255.5t-141.5 132.5z" />
    <glyph glyph-name="parenleft.small" horiz-adv-x="305" 
d="M259 533q-67 -20 -106.5 -96.5t-39.5 -188.5t39.5 -189t106.5 -97l-9 -39q-84 22 -134 109t-50 215t50 214.5t134 109.5z" />
    <glyph glyph-name="parenright.small" horiz-adv-x="305" 
d="M46 -39q67 20 106.5 96.5t39.5 188.5t-39.5 189t-106.5 97l9 39q84 -22 134 -109t50 -215t-50 -214.5t-134 -109.5z" />
    <glyph glyph-name="bracketleft.cap" horiz-adv-x="359" 
d="M329 724h-156v-786h156v-39h-209v864h209v-39z" />
    <glyph glyph-name="bracketright.cap" horiz-adv-x="359" 
d="M30 -101v39h156v786h-156v39h209v-864h-209z" />
    <glyph glyph-name="bracketleft.small" horiz-adv-x="319" 
d="M289 533h-122v-572h122v-38h-169v648h169v-38z" />
    <glyph glyph-name="bracketright.small" horiz-adv-x="319" 
d="M30 -39h122v572h-122v38h169v-648h-169v38z" />
    <glyph glyph-name="braceleft.cap" horiz-adv-x="359" 
d="M132 329q49 -3 73.5 -35t24.5 -64t-19 -90.5t-19 -107.5q0 -94 87 -94h50v-39h-50q-68 0 -101.5 37t-33.5 98q0 52 19.5 110.5t19.5 84.5q0 31 -21 56t-63 25h-65v43h65q42 0 63 25.5t21 55.5q0 26 -19.5 85t-19.5 110q0 61 33.5 97.5t101.5 36.5h50v-39h-50
q-87 0 -87 -93q0 -48 19 -106.5t19 -91.5q0 -31 -24.5 -63t-73.5 -37v-4z" />
    <glyph glyph-name="braceright.cap" horiz-adv-x="359" 
d="M227 329v4q-49 5 -73.5 37t-24.5 63q0 33 19 91.5t19 106.5q0 93 -87 93h-50v39h50q68 0 101.5 -36.5t33.5 -97.5q0 -51 -19.5 -110t-19.5 -85q0 -30 21 -55.5t63 -25.5h65v-43h-65q-42 0 -63 -25t-21 -56q0 -26 19.5 -84.5t19.5 -110.5q0 -61 -33.5 -98t-101.5 -37h-50
v39h50q87 0 87 94q0 49 -19 107.5t-19 90.5t24.5 64t73.5 35z" />
    <glyph glyph-name="braceleft.small" horiz-adv-x="291" 
d="M118 246q36 -3 50 -26.5t14 -48.5t-14 -68.5t-14 -79.5q0 -65 64 -65h43v-35h-43q-107 0 -107 101q0 39 14.5 83t14.5 63q0 25 -14.5 42t-42.5 17h-49v36h49q28 0 42.5 17t14.5 42q0 19 -14.5 63t-14.5 83q0 101 107 101h43v-34h-43q-64 0 -64 -65q0 -36 14 -80t14 -69
t-14 -48t-50 -26v-3z" />
    <glyph glyph-name="braceright.small" horiz-adv-x="291" 
d="M173 249q-36 3 -50 26t-14 48t14 69t14 80q0 65 -64 65h-43v34h43q107 0 107 -101q0 -39 -14.5 -83t-14.5 -63q0 -25 14.5 -42t42.5 -17h49v-36h-49q-28 0 -42.5 -17t-14.5 -42q0 -19 14.5 -63t14.5 -83q0 -101 -107 -101h-43v35h43q64 0 64 65q0 36 -14 79.5t-14 68.5
t14 48.5t50 26.5v3z" />
    <glyph glyph-name="at.small" horiz-adv-x="633" 
d="M313 -11q-52 0 -95.5 11.5t-81.5 37.5t-59.5 75t-21.5 117q0 111 80 193t205 82q109 0 173.5 -58.5t64.5 -149.5q0 -74 -41.5 -135t-102.5 -61q-60 0 -75 36q-33 -36 -87 -36q-46 0 -71 28.5t-25 73.5q0 77 45.5 137.5t116.5 60.5q39 0 64 -25q20 8 28 18h38l-38 -209
q-3 -17 -3 -27q0 -18 16 -18q28 0 50 51t22 129q0 73 -49.5 110t-122.5 37q-97 0 -161.5 -66t-64.5 -183q0 -93 57 -141.5t135 -48.5q88 0 146 29l12 -34q-57 -34 -154 -34zM298 144q29 0 56 27q0 3 1.5 10.5t2.5 11.5l27 157q-19 11 -43 11q-37 0 -60.5 -48t-23.5 -117
q0 -52 40 -52z" />
    <glyph glyph-name="at.cap" horiz-adv-x="808" 
d="M399 -19q-69 0 -127 16t-108.5 51.5t-79.5 101.5t-29 156q0 149 106.5 259.5t273.5 110.5q145 0 231.5 -79.5t86.5 -200.5q0 -99 -56 -180.5t-136 -81.5q-79 0 -91 62q-45 -62 -127 -62q-63 0 -94.5 38t-31.5 98q0 102 60.5 183t153.5 81q53 0 91 -36q33 12 47 27h24
l-51 -279q-4 -17 -4 -32q0 -37 35 -37q42 0 73.5 69.5t31.5 179.5q0 104 -68 156t-171 52q-134 0 -222.5 -90.5t-88.5 -253.5q0 -89 40 -151t98 -88.5t128 -26.5q115 0 195 38l15 -35q-32 -20 -88 -33t-117 -13zM371 183q51 0 98 54q0 6 2 18l37 211q-32 25 -78 25
q-58 0 -92 -67.5t-34 -162.5q0 -39 18 -58.5t49 -19.5z" />
    <glyph glyph-name="zero.slash" 
d="M275 -10q-89 0 -151 68l-37 -58h-49l60 93q-61 93 -61 238q0 147 64 243t174 96q89 0 151 -67l37 57h50l-60 -93q60 -92 60 -236q0 -147 -64.5 -244t-173.5 -97zM139 331q0 -88 13 -153l230 357q-34 86 -107 86q-136 0 -136 -290zM275 39q136 0 136 292q0 86 -13 151
l-230 -357q34 -86 107 -86z" />
    <glyph glyph-name="numbersign.LP" 
d="M322 286l19 94h-122l-19 -94h122zM270 40l35 165h-122l-35 -165h-29l35 165h-126l15 81h128l19 94h-122l14 81h125l34 161h29l-34 -161h122l34 161h28l-34 -161h135l-15 -81h-137l-19 -94h132l-15 -81h-134l-35 -165h-28z" />
    <glyph glyph-name="Euro.LP" horiz-adv-x="580" 
d="M529 141q-11 -77 -58 -114t-120 -37q-110 0 -174.5 64t-82.5 176h-84v43h79q-2 32 -2 50q0 30 3 57h-80v43h86q20 112 86 179.5t168 67.5q67 0 116.5 -38t58.5 -113h-38q-9 55 -44 82t-86 27q-73 0 -113 -49t-51 -156h252v-43h-256q-1 -18 -1 -57q0 -34 1 -50h196v-43
h-192q22 -198 164 -198q61 0 92.5 25.5t41.5 83.5h38z" />
    <glyph glyph-name="dollar.LP" horiz-adv-x="510" 
d="M274 381l12 -6v252q-5 1 -15 1q-25 0 -42 -4v-221q10 -5 45 -22zM143 529q0 -60 43 -98v177q-43 -25 -43 -79zM245 33q24 0 41 4v222q-54 25 -57 27v-253h16zM376 137q0 66 -47 98v-183q47 28 47 85zM246 -9h-17v-86h-43v92q-117 26 -134 153h38q17 -90 96 -110v267
q-61 33 -93 73t-32 111q0 61 33 106.5t92 62.5v90h43v-81q9 1 27 1q20 0 30 -1v81h43v-90q102 -30 118 -149h-38q-15 83 -80 107v-265q66 -36 101.5 -78t35.5 -105q0 -62 -37 -105.5t-100 -62.5v-97h-43v88q-26 -2 -40 -2z" />
    <glyph glyph-name="cent.LP" horiz-adv-x="490" 
d="M160 310q0 -121 60 -165l57 335q-117 -9 -117 -170zM264 80h-12l-22 -131h-43l23 137q-68 16 -109.5 71.5t-41.5 142.5q0 100 56.5 162.5t152.5 62.5q11 0 17 -1l22 130h43l-23 -137q51 -15 81 -54.5t33 -88.5h-29q-16 86 -92 103l-60 -349q14 -3 27 -3q41 0 76 27.5
t44 78.5h29q-4 -63 -50 -107t-122 -44z" />
    <glyph glyph-name="sterling.LP" 
d="M492 87v-88h-413v35q90 63 122.5 101t32.5 83q0 37 -32 76h-143v43h104q-33 36 -52 72t-19 86q0 75 55.5 125t151.5 50q77 0 127.5 -51t55.5 -141h-38q-6 73 -43.5 107t-92.5 34q-61 0 -96 -28t-35 -74q0 -36 16 -65.5t50 -66t43 -48.5h158v-43h-134q7 -21 7 -40
q0 -86 -105 -167h280z" />
    <glyph glyph-name="florin.LP" horiz-adv-x="529" 
d="M410 294h-156l-49 -414h-98l50 414h-119v43h124l13 110q5 43 17.5 80t33.5 70.5t56 53t80 19.5q66 0 100 -38.5t36 -92.5h-29q-2 39 -24.5 61t-54.5 22q-98 0 -116 -158l-15 -127h151v-43z" />
    <glyph glyph-name="yen.LP" 
d="M504 144h-174v-144h-95v144h-177v43h177v107h-177v43h162l-180 323h111l152 -283l141 283h61l-165 -323h163v-43h-173v-107h174v-43z" />
    <glyph glyph-name="zero.slashLP" 
d="M275 -10q-89 0 -151 68l-37 -58h-49l60 93q-61 93 -61 238q0 147 64 243t174 96q89 0 151 -67l37 57h50l-60 -93q60 -92 60 -236q0 -147 -64.5 -244t-173.5 -97zM139 331q0 -88 13 -153l230 357q-34 86 -107 86q-136 0 -136 -290zM275 39q136 0 136 292q0 86 -13 151
l-230 -357q34 -86 107 -86z" />
    <glyph glyph-name="zero.LP" 
d="M275 -10q-109 0 -173.5 97t-64.5 244t64 243t174 96t174 -96t64 -243t-64.5 -244t-173.5 -97zM275 621q-136 0 -136 -290q0 -292 136 -292t136 292q0 290 -136 290z" />
    <glyph glyph-name="one.LP" horiz-adv-x="430" 
d="M221 0v558l-169 -138l-27 51l252 189h39v-660h-95z" />
    <glyph glyph-name="two.LP" horiz-adv-x="520" 
d="M467 0h-411v34l111 125q1 2 25.5 28.5t33.5 38t32 40.5t33.5 50.5t25 51.5t20.5 61.5t6 63.5q0 126 -115 126q-65 0 -105 -37.5t-42 -112.5h-38q2 98 59 149.5t141 51.5q93 0 147.5 -49t54.5 -136q0 -48 -19 -88t-45 -69t-93 -100.5t-124 -139.5h303v-88z" />
    <glyph glyph-name="three.LP" 
d="M263 -9q-93 0 -151.5 50.5t-60.5 149.5h38q2 -74 47 -112t115 -38q65 0 101 35.5t36 105.5q0 81 -27 106.5t-83 25.5h-72v52h72q92 0 92 121q0 66 -32 99t-86 33q-135 0 -139 -150h-38q2 102 57.5 151.5t144.5 49.5q90 0 142.5 -47t52.5 -120q0 -107 -85 -160
q48 -23 75 -65.5t27 -95.5q0 -79 -61.5 -135t-164.5 -56z" />
    <glyph glyph-name="four.LP" horiz-adv-x="530" 
d="M524 155h-126v-155h-90v155h-276v34q65 91 106 155t63.5 104t32 81t11 61.5t1.5 69.5h106q0 -39 -5.5 -67t-29.5 -71t-43 -70t-78.5 -108t-103.5 -142h216v108q24 24 38 71.5t15 93.5h37v-273h126v-47z" />
    <glyph glyph-name="five.LP" horiz-adv-x="510" 
d="M240 -10q-84 0 -137 47.5t-55 141.5h38q2 -68 42.5 -103.5t103.5 -35.5q64 0 97 40.5t33 131.5q0 82 -29 120.5t-93 38.5q-76 0 -112 -72h-41v361h358v-88h-307v-189q45 42 125 42q87 0 144 -61.5t57 -146.5q0 -103 -58 -165t-166 -62z" />
    <glyph glyph-name="six.LP" horiz-adv-x="510" 
d="M476 204q0 -93 -56 -154t-162 -61q-103 0 -160.5 82t-57.5 227q0 167 67.5 269.5t181.5 102.5q82 0 129 -50t50 -134h-38q-20 138 -136 138q-73 0 -113 -68.5t-40 -232.5q48 70 143 70q83 0 137.5 -54.5t54.5 -134.5zM268 33q49 0 77.5 40t28.5 120q0 74 -29 111t-77 37
q-45 0 -79 -26.5t-45 -82.5q7 -112 37 -155.5t87 -43.5z" />
    <glyph glyph-name="seven.LP" horiz-adv-x="480" 
d="M247 0h-102q0 26 2 48t3 40.5t9 42.5t12 39t19.5 46t23.5 47.5t33 60t38 66.5t49 84.5t57 97.5h-343v88h420v-34q-43 -79 -75 -138.5t-56 -113t-39.5 -84.5t-26 -71.5t-15 -55t-7 -54.5t-2.5 -49.5v-59.5z" />
    <glyph glyph-name="eight.LP" horiz-adv-x="530" 
d="M265 -10q-101 0 -161 52.5t-60 129.5q0 56 30 104t84 73q-41 23 -63 62t-22 85q0 74 52.5 124t140.5 50q89 0 141 -47t52 -120q0 -46 -22.5 -87t-63.5 -65q54 -24 83.5 -69t29.5 -100q0 -79 -60.5 -135.5t-160.5 -56.5zM174 496q0 -70 23.5 -97t68.5 -27q44 0 67.5 29.5
t23.5 101.5q0 67 -23.5 93.5t-67.5 26.5q-92 0 -92 -127zM145 172q0 -75 31.5 -105.5t88.5 -30.5q120 0 120 146q0 79 -31 110t-89 31q-120 0 -120 -151z" />
    <glyph glyph-name="nine.LP" horiz-adv-x="510" 
d="M242 318q45 0 79 26.5t45 82.5q-7 112 -37 155.5t-87 43.5q-49 0 -77.5 -40t-28.5 -120q0 -74 29 -111t77 -37zM229 -11q-86 0 -135 50t-52 134h38q20 -138 144 -138q69 0 107 68.5t38 232.5q-48 -70 -143 -70q-83 0 -137.5 54.5t-54.5 134.5q0 93 56 154t162 61
q102 0 160 -86.5t58 -232.5q0 -166 -65 -264t-176 -98z" />
    <glyph glyph-name="numbersign.OT" 
d="M312 201l19 94h-122l-19 -94h122zM270 0l25 120h-122l-25 -120h-28l25 120h-131l15 81h133l19 94h-128l15 81h130l25 119h28l-25 -119h122l25 119h29l-25 -119h130l-15 -81h-132l-19 -94h126l-14 -81h-129l-25 -120h-29z" />
    <glyph glyph-name="Euro.OT" 
d="M529 142q-4 -68 -54 -110t-126 -42q-102 0 -163.5 49t-80.5 131h-85v43h78q-1 10 -1 30q0 13 2 37h-79v43h87q21 81 81 131.5t148 50.5q77 0 129 -43t56 -109h-38q-4 50 -42 80t-89 30q-55 0 -94 -34.5t-53 -105.5h180v-43h-186q-1 -12 -1 -37q0 -21 1 -30h126v-43h-121
q24 -138 157 -138q51 0 88.5 28.5t41.5 81.5h38z" />
    <glyph glyph-name="dollar.OT" 
d="M295 297l4 -1v167h-16q-9 0 -27 -2v-151zM173 389q0 -39 43 -61v123q-43 -19 -43 -62zM271 32q10 0 28 2v160q-27 10 -39 13l-4 1v-176h15zM386 110q0 26 -8.5 40.5t-38.5 28.5v-136q47 20 47 67zM273 -10h-17v-85h-40v90q-62 13 -97.5 51.5t-36.5 95.5h38q1 -85 96 -105
v185q-68 26 -96.5 58.5t-28.5 84.5q0 48 33.5 84.5t91.5 49.5v81h40v-76q7 1 20 1q16 0 23 -1v76h40v-82q55 -13 88 -48t36 -87h-38q-6 72 -86 93v-174q77 -29 107 -61.5t30 -88.5q0 -51 -37.5 -86.5t-99.5 -48.5v-92h-40v86q-9 -1 -26 -1z" />
    <glyph glyph-name="cent.OT" 
d="M190 250q0 -121 60 -165l57 335q-117 -9 -117 -170zM294 20h-12l-22 -131h-43l23 137q-68 16 -109.5 71.5t-41.5 142.5q0 100 56.5 162.5t152.5 62.5q11 0 17 -1l22 130h43l-23 -137q51 -15 81 -54.5t33 -88.5h-29q-16 86 -92 103l-60 -349q14 -3 27 -3q41 0 76 27.5
t44 78.5h29q-4 -63 -50 -107t-122 -44z" />
    <glyph glyph-name="sterling.OT" 
d="M492 87v-88h-403v35q70 38 92.5 71.5t22.5 71.5q0 21 -15 41h-130v43h92q-37 43 -37 93q0 63 49.5 107t135.5 44q75 0 125 -44t54 -118h-38q-4 56 -41.5 83.5t-90.5 27.5q-54 0 -84 -22.5t-30 -61.5q0 -15 7 -31.5t13.5 -25.5t22.5 -28t20 -24h187v-43h-162q4 -11 4 -24
q0 -64 -59 -107h265z" />
    <glyph glyph-name="florin.OT" 
d="M430 218h-165l-40 -338h-98l41 338h-110v43h115l3 21q5 43 17.5 80t33.5 70.5t56 53t80 19.5q66 0 100 -38.5t36 -92.5h-29q-2 39 -24 61t-55 22q-97 0 -116 -158l-5 -38h160v-43z" />
    <glyph glyph-name="yen.OT" 
d="M503 108h-173v-108h-95v108h-177v43h177v67h-177v43h145l-173 234h118l160 -221l152 221h68l-168 -234h143v-43h-173v-67h173v-43z" />
    <glyph glyph-name="zero.slashOT" 
d="M275 -10q-90 0 -149 50l-34 -40h-54l58 69q-59 71 -59 179q0 112 64 184.5t174 72.5q88 0 150 -49l33 39h55l-59 -69q59 -71 59 -178q0 -112 -64 -185t-174 -73zM139 248q0 -67 14 -112l226 265q-35 55 -104 55q-136 0 -136 -208zM275 39q136 0 136 209q0 66 -14 111
l-225 -265q34 -55 103 -55z" />
    <glyph glyph-name="zero.OT" 
d="M275 -10q-110 0 -174 73t-64 185t64 184.5t174 72.5t174 -72.5t64 -184.5t-64 -185t-174 -73zM275 39q136 0 136 209q0 208 -136 208t-136 -208q0 -209 136 -209z" />
    <glyph glyph-name="one.OT" 
d="M271 0v393l-169 -138l-27 51l252 189h39v-495h-95z" />
    <glyph glyph-name="two.OT" 
d="M482 0h-411v34l117 91q106 82 138 120t32 101q0 50 -29.5 79t-83.5 29q-55 0 -92.5 -34t-39.5 -96h-38q2 86 57.5 133.5t135.5 47.5q87 0 139.5 -41t52.5 -116q0 -31 -10 -56.5t-36 -50.5t-49 -42.5t-71.5 -51.5t-80.5 -59h269v-88z" />
    <glyph glyph-name="three.OT" 
d="M263 -174q-93 0 -151.5 50.5t-60.5 149.5h38q2 -74 47 -112t115 -38q65 0 101 35.5t36 105.5q0 81 -27 106.5t-83 25.5h-72v52h72q92 0 92 121q0 66 -32 99t-86 33q-135 0 -139 -150h-38q2 102 57.5 151.5t144.5 49.5q90 0 142.5 -47t52.5 -120q0 -107 -85 -160
q48 -23 75 -65.5t27 -95.5q0 -79 -61.5 -135t-164.5 -56z" />
    <glyph glyph-name="four.OT" 
d="M519 0h-126v-165h-90v165h-276v34q65 89 106 152t63.5 102t32 79t11 60t1.5 68h106q0 -20 -2 -37t-4 -31.5t-10.5 -33.5t-13.5 -31.5t-21 -36.5t-25.5 -38t-34.5 -47t-40 -52.5t-50.5 -65.5t-58.5 -75h216v98q24 24 38 71.5t15 93.5h37v-263h126v-47z" />
    <glyph glyph-name="five.OT" 
d="M266 -175q-84 0 -137 47.5t-55 141.5h38q2 -68 42.5 -103.5t103.5 -35.5q64 0 97 40.5t33 131.5q0 82 -29 120.5t-93 38.5q-76 0 -112 -72h-41v361h358v-88h-307v-189q45 42 125 42q87 0 144 -61.5t57 -146.5q0 -103 -58 -165t-166 -62z" />
    <glyph glyph-name="six.OT" 
d="M496 204q0 -93 -56 -154t-162 -61q-103 0 -160.5 82t-57.5 227q0 167 67.5 269.5t181.5 102.5q82 0 129 -50t50 -134h-38q-20 138 -136 138q-73 0 -113 -68.5t-40 -232.5q48 70 143 70q83 0 137.5 -54.5t54.5 -134.5zM288 33q49 0 77.5 40t28.5 120q0 74 -29 111t-77 37
q-45 0 -79 -26.5t-45 -82.5q7 -112 37 -155.5t87 -43.5z" />
    <glyph glyph-name="seven.OT" 
d="M277 -165h-102q0 26 2 48t3 40.5t9 42.5t12 39t19.5 46t23.5 47.5t33 60t38 66.5t49 84.5t57 97.5h-343v88h420v-34q-43 -79 -75 -138.5t-56 -113t-39.5 -84.5t-26 -71.5t-15 -55t-7 -54.5t-2.5 -49.5v-59.5z" />
    <glyph glyph-name="eight.OT" 
d="M275 -10q-101 0 -161 52.5t-60 129.5q0 56 30 104t84 73q-41 23 -63 62t-22 85q0 74 52.5 124t140.5 50q89 0 141 -47t52 -120q0 -46 -22.5 -87t-63.5 -65q54 -24 83.5 -69t29.5 -100q0 -79 -60.5 -135.5t-160.5 -56.5zM184 496q0 -70 23.5 -97t68.5 -27q44 0 67.5 29.5
t23.5 101.5q0 67 -23.5 93.5t-67.5 26.5q-92 0 -92 -127zM155 172q0 -75 31.5 -105.5t88.5 -30.5q120 0 120 146q0 79 -31 110t-89 31q-120 0 -120 -151z" />
    <glyph glyph-name="nine.OT" 
d="M262 153q45 0 79 26.5t45 82.5q-7 112 -37 155.5t-87 43.5q-49 0 -77.5 -40t-28.5 -120q0 -74 29 -111t77 -37zM249 -176q-86 0 -135 50t-52 134h38q20 -138 144 -138q69 0 107 68.5t38 232.5q-48 -70 -143 -70q-83 0 -137.5 54.5t-54.5 134.5q0 93 56 154t162 61
q102 0 160 -86.5t58 -232.5q0 -166 -65 -264t-176 -98z" />
    <glyph glyph-name="numbersign.OP" 
d="M322 201l19 94h-122l-19 -94h122zM280 0l25 120h-122l-25 -120h-28l25 120h-131l15 81h133l19 94h-128l15 81h130l25 119h28l-25 -119h122l25 119h29l-25 -119h130l-15 -81h-132l-19 -94h126l-14 -81h-129l-25 -120h-29z" />
    <glyph glyph-name="Euro.OP" horiz-adv-x="580" 
d="M529 142q-4 -68 -54 -110t-126 -42q-102 0 -163.5 49t-80.5 131h-85v43h78q-1 10 -1 30q0 13 2 37h-79v43h87q21 81 81 131.5t148 50.5q77 0 129 -43t56 -109h-38q-4 50 -42 80t-89 30q-55 0 -94 -34.5t-53 -105.5h180v-43h-186q-1 -12 -1 -37q0 -21 1 -30h126v-43h-121
q24 -138 157 -138q51 0 88.5 28.5t41.5 81.5h38z" />
    <glyph glyph-name="dollar.OP" horiz-adv-x="490" 
d="M265 297l4 -1v167h-16q-9 0 -27 -2v-151zM143 389q0 -39 43 -61v123q-43 -19 -43 -62zM241 32q10 0 28 2v160q-27 10 -39 13l-4 1v-176h15zM356 110q0 26 -8.5 40.5t-38.5 28.5v-136q47 20 47 67zM243 -10h-17v-85h-40v90q-62 13 -97.5 51.5t-36.5 95.5h38q1 -85 96 -105
v185q-68 26 -96.5 58.5t-28.5 84.5q0 48 33.5 84.5t91.5 49.5v81h40v-76q7 1 20 1q16 0 23 -1v76h40v-82q55 -13 88 -48t36 -87h-38q-6 72 -86 93v-174q77 -29 107 -61.5t30 -88.5q0 -51 -37.5 -86.5t-99.5 -48.5v-92h-40v86q-9 -1 -26 -1z" />
    <glyph glyph-name="cent.OP" horiz-adv-x="490" 
d="M160 250q0 -121 60 -165l57 335q-117 -9 -117 -170zM264 20h-12l-22 -131h-43l23 137q-68 16 -109.5 71.5t-41.5 142.5q0 100 56.5 162.5t152.5 62.5q11 0 17 -1l22 130h43l-23 -137q51 -15 81 -54.5t33 -88.5h-29q-16 86 -92 103l-60 -349q14 -3 27 -3q41 0 76 27.5
t44 78.5h29q-4 -63 -50 -107t-122 -44z" />
    <glyph glyph-name="sterling.OP" 
d="M492 87v-88h-403v35q70 38 92.5 71.5t22.5 71.5q0 21 -15 41h-130v43h92q-37 43 -37 93q0 63 49.5 107t135.5 44q75 0 125 -44t54 -118h-38q-4 56 -41.5 83.5t-90.5 27.5q-54 0 -84 -22.5t-30 -61.5q0 -15 7 -31.5t13.5 -25.5t22.5 -28t20 -24h187v-43h-162q4 -11 4 -24
q0 -64 -59 -107h265z" />
    <glyph glyph-name="florin.OP" horiz-adv-x="510" 
d="M410 218h-165l-40 -338h-98l41 338h-110v43h115l3 21q5 43 17.5 80t33.5 70.5t56 53t80 19.5q66 0 100 -38.5t36 -92.5h-29q-2 39 -24 61t-55 22q-97 0 -116 -158l-5 -38h160v-43z" />
    <glyph glyph-name="yen.OP" 
d="M503 108h-173v-108h-95v108h-177v43h177v67h-177v43h145l-173 234h118l160 -221l152 221h68l-168 -234h143v-43h-173v-67h173v-43z" />
    <glyph glyph-name="zero.slashOP" 
d="M275 -10q-90 0 -149 50l-34 -40h-54l58 69q-59 71 -59 179q0 112 64 184.5t174 72.5q88 0 150 -49l33 39h55l-59 -69q59 -71 59 -178q0 -112 -64 -185t-174 -73zM139 248q0 -67 14 -112l226 265q-35 55 -104 55q-136 0 -136 -208zM275 39q136 0 136 209q0 66 -14 111
l-225 -265q34 -55 103 -55z" />
    <glyph glyph-name="zero.OP" 
d="M275 -10q-110 0 -174 73t-64 185t64 184.5t174 72.5t174 -72.5t64 -184.5t-64 -185t-174 -73zM275 39q136 0 136 209q0 208 -136 208t-136 -208q0 -209 136 -209z" />
    <glyph glyph-name="one.OP" horiz-adv-x="430" 
d="M221 0v393l-169 -138l-27 51l252 189h39v-495h-95z" />
    <glyph glyph-name="two.OP" horiz-adv-x="513" 
d="M455 0h-411v34l117 91q106 82 138 120t32 101q0 50 -29.5 79t-83.5 29q-55 0 -92.5 -34t-39.5 -96h-38q2 86 57.5 133.5t135.5 47.5q87 0 139.5 -41t52.5 -116q0 -31 -10 -56.5t-36 -50.5t-49 -42.5t-71.5 -51.5t-80.5 -59h269v-88z" />
    <glyph glyph-name="three.OP" 
d="M263 -174q-93 0 -151.5 50.5t-60.5 149.5h38q2 -74 47 -112t115 -38q65 0 101 35.5t36 105.5q0 81 -27 106.5t-83 25.5h-72v52h72q92 0 92 121q0 66 -32 99t-86 33q-135 0 -139 -150h-38q2 102 57.5 151.5t144.5 49.5q90 0 142.5 -47t52.5 -120q0 -107 -85 -160
q48 -23 75 -65.5t27 -95.5q0 -79 -61.5 -135t-164.5 -56z" />
    <glyph glyph-name="four.OP" horiz-adv-x="530" 
d="M519 0h-126v-165h-90v165h-276v34q65 89 106 152t63.5 102t32 79t11 60t1.5 68h106q0 -20 -2 -37t-4 -31.5t-10.5 -33.5t-13.5 -31.5t-21 -36.5t-25.5 -38t-34.5 -47t-40 -52.5t-50.5 -65.5t-58.5 -75h216v98q24 24 38 71.5t15 93.5h37v-263h126v-47z" />
    <glyph glyph-name="five.OP" horiz-adv-x="510" 
d="M240 -174q-84 0 -137 47.5t-55 141.5h38q2 -68 42.5 -103.5t103.5 -35.5q64 0 97 40.5t33 131.5q0 82 -29 120.5t-93 38.5q-76 0 -112 -72h-41v361h358v-88h-307v-189q45 42 125 42q87 0 144 -61.5t57 -146.5q0 -103 -58 -165t-166 -62z" />
    <glyph glyph-name="six.OP" horiz-adv-x="510" 
d="M476 204q0 -93 -56 -154t-162 -61q-103 0 -160.5 82t-57.5 227q0 167 67.5 269.5t181.5 102.5q82 0 129 -50t50 -134h-38q-20 138 -136 138q-73 0 -113 -68.5t-40 -232.5q48 70 143 70q83 0 137.5 -54.5t54.5 -134.5zM268 33q49 0 77.5 40t28.5 120q0 74 -29 111t-77 37
q-45 0 -79 -26.5t-45 -82.5q7 -112 37 -155.5t87 -43.5z" />
    <glyph glyph-name="seven.OP" horiz-adv-x="480" 
d="M247 -165h-102q0 26 2 48t3 40.5t9 42.5t12 39t19.5 46t23.5 47.5t33 60t38 66.5t49 84.5t57 97.5h-343v88h420v-34q-43 -79 -75 -138.5t-56 -113t-39.5 -84.5t-26 -71.5t-15 -55t-7 -54.5t-2.5 -49.5v-59.5z" />
    <glyph glyph-name="eight.OP" horiz-adv-x="530" 
d="M265 -10q-101 0 -161 52.5t-60 129.5q0 56 30 104t84 73q-41 23 -63 62t-22 85q0 74 52.5 124t140.5 50q89 0 141 -47t52 -120q0 -46 -22.5 -87t-63.5 -65q54 -24 83.5 -69t29.5 -100q0 -79 -60.5 -135.5t-160.5 -56.5zM174 496q0 -70 23.5 -97t68.5 -27q44 0 67.5 29.5
t23.5 101.5q0 67 -23.5 93.5t-67.5 26.5q-92 0 -92 -127zM145 172q0 -75 31.5 -105.5t88.5 -30.5q120 0 120 146q0 79 -31 110t-89 31q-120 0 -120 -151z" />
    <glyph glyph-name="nine.OP" horiz-adv-x="510" 
d="M242 153q45 0 79 26.5t45 82.5q-7 112 -37 155.5t-87 43.5q-49 0 -77.5 -40t-28.5 -120q0 -74 29 -111t77 -37zM229 -176q-86 0 -135 50t-52 134h38q20 -138 144 -138q69 0 107 68.5t38 232.5q-48 -70 -143 -70q-83 0 -137.5 54.5t-54.5 134.5q0 93 56 154t162 61
q102 0 160 -86.5t58 -232.5q0 -166 -65 -264t-176 -98z" />
    <glyph glyph-name="multiplysuperior" horiz-adv-x="354" 
d="M268 335l-91 91l-91 -91l-35 35l91 91l-93 93l35 34l93 -93l93 93l35 -35l-93 -92l91 -91z" />
    <glyph glyph-name="dividesuperior" horiz-adv-x="349" 
d="M175 522q-16 0 -26 10.5t-10 26.5q0 15 10.5 25t25.5 10t25 -10.5t10 -24.5q0 -16 -10 -26.5t-25 -10.5zM301 436h-253v49h253v-49zM175 399q15 0 25 -10t10 -26q0 -14 -10 -24.5t-25 -10.5t-25.5 10t-10.5 25q0 16 10 26t26 10z" />
    <glyph glyph-name="Eurosuperior" horiz-adv-x="355" 
d="M342 403q-1 -50 -35.5 -76.5t-86.5 -26.5q-70 0 -112 43.5t-55 116.5h-47v34h43q-1 8 -1 26q0 19 1 29h-43v35h48q15 71 59 116t109 45q49 0 81.5 -25.5t33.5 -75.5h-36q-1 31 -21 48t-52 17q-87 0 -101 -125h158v-35h-161q-1 -9 -1 -29q0 -18 1 -26h122v-34h-120
q17 -124 102 -124q33 0 55 17.5t23 49.5h36z" />
    <glyph glyph-name="plusinferior" horiz-adv-x="349" 
d="M301 -114h-102v-102h-49v102h-102v49h102v103h49v-103h102v-49z" />
    <glyph glyph-name="minusinferior" horiz-adv-x="349" 
d="M301 -114h-253v49h253v-49z" />
    <glyph glyph-name="multiplyinferior" horiz-adv-x="354" 
d="M268 -215l-91 91l-91 -91l-35 35l91 91l-93 93l35 34l93 -93l93 93l35 -35l-93 -92l91 -91z" />
    <glyph glyph-name="divideinferior" horiz-adv-x="349" 
d="M175 -28q-16 0 -26 10.5t-10 26.5q0 15 10.5 25t25.5 10t25 -10.5t10 -24.5q0 -16 -10 -26.5t-25 -10.5zM301 -114h-253v49h253v-49zM175 -151q15 0 25 -10t10 -26q0 -14 -10 -24.5t-25 -10.5t-25.5 10t-10.5 25q0 16 10 26t26 10z" />
    <glyph glyph-name="equalinferior" horiz-adv-x="349" 
d="M301 -53h-253v49h253v-49zM301 -175h-253v49h253v-49z" />
    <glyph glyph-name="Euroinferior" horiz-adv-x="355" 
d="M342 -147q-1 -50 -35.5 -76.5t-86.5 -26.5q-70 0 -112 43.5t-55 116.5h-47v34h43q-1 8 -1 26q0 19 1 29h-43v35h48q15 71 59 116t109 45q49 0 81.5 -25.5t33.5 -75.5h-36q-1 31 -21 48t-52 17q-87 0 -101 -125h158v-35h-161q-1 -9 -1 -29q0 -18 1 -26h122v-34h-120
q17 -124 102 -124q33 0 55 17.5t23 49.5h36z" />
    <glyph glyph-name="comma.numr" horiz-adv-x="178" 
d="M111 194q0 47 -56 47v62q46 0 69 -25.5t23 -65.5q0 -48 -30 -74.5t-86 -26.5v29q80 0 80 54z" />
    <glyph glyph-name="period.numr" horiz-adv-x="172" 
d="M50 235v71h71v-71h-71z" />
    <glyph glyph-name="parenleft.numr" horiz-adv-x="234" 
d="M206 664q-57 -19 -92.5 -86t-35.5 -164q0 -96 35.5 -163t92.5 -86l-7 -31q-72 18 -115.5 94t-43.5 186t43.5 185.5t115.5 95.5z" />
    <glyph glyph-name="parenright.numr" horiz-adv-x="234" 
d="M28 165q57 19 92.5 86t35.5 164q0 96 -35.5 163t-92.5 86l7 31q72 -18 115.5 -94t43.5 -186t-43.5 -185.5t-115.5 -95.5z" />
    <glyph glyph-name="plus.numr" horiz-adv-x="349" 
d="M301 361h-102v-102h-49v102h-102v49h102v103h49v-103h102v-49z" />
    <glyph glyph-name="minus.numr" horiz-adv-x="349" 
d="M301 361h-253v49h253v-49z" />
    <glyph glyph-name="multiply.numr" horiz-adv-x="354" 
d="M268 260l-91 91l-91 -91l-35 35l91 91l-93 93l35 34l93 -93l93 93l35 -35l-93 -92l91 -91z" />
    <glyph glyph-name="divide.numr" horiz-adv-x="349" 
d="M175 447q-16 0 -26 10.5t-10 26.5q0 14 10.5 24.5t25.5 10.5t25 -10.5t10 -24.5q0 -16 -10 -26.5t-25 -10.5zM301 361h-253v49h253v-49zM175 324q15 0 25 -10t10 -26q0 -14 -10 -24.5t-25 -10.5t-25.5 10.5t-10.5 24.5q0 16 10 26t26 10z" />
    <glyph glyph-name="equal.numr" horiz-adv-x="349" 
d="M301 422h-253v49h253v-49zM301 300h-253v49h253v-49z" />
    <glyph glyph-name="Euro.numr" horiz-adv-x="355" 
d="M342 328q-1 -50 -35.5 -76.5t-86.5 -26.5q-70 0 -112 43.5t-55 116.5h-47v34h43q-1 8 -1 26q0 19 1 29h-43v35h48q15 71 59 116t109 45q49 0 81.5 -25.5t33.5 -75.5h-36q-1 31 -21 48t-52 17q-87 0 -101 -125h158v-35h-161q-1 -9 -1 -29q0 -18 1 -26h122v-34h-120
q17 -124 102 -124q33 0 55 17.5t23 49.5h36z" />
    </font>
</defs>
</svg>
